<svg width="39" height="42" viewBox="0 0 39 42" fill="none" xmlns="http://www.w3.org/2000/svg">
<path fill-rule="evenodd" clip-rule="evenodd" d="M23 10V8.5C23 6.567 21.433 5 19.5 5C17.567 5 16 6.567 16 8.5V10H23ZM19.5 0C14.8056 0 11 3.80558 11 8.5V15H28V8.5C28 3.80558 24.1944 0 19.5 0Z" fill="#ADC2F9"/>
<path d="M7 15C7 12.2386 9.23858 10 12 10H27C29.7614 10 32 12.2386 32 15V24C32 26.7614 29.7614 29 27 29H12C9.23858 29 7 26.7614 7 24V15Z" fill="#93B1FF"/>
<path d="M0 38.5C0 36.567 1.567 35 3.5 35H35.5C37.433 35 39 36.567 39 38.5C39 40.433 37.433 42 35.5 42H3.5C1.567 42 0 40.433 0 38.5Z" fill="#3166ED" fill-opacity="0.1"/>
<path d="M6 38.5C6 39.3284 5.32843 40 4.5 40C3.67157 40 3 39.3284 3 38.5C3 37.6716 3.67157 37 4.5 37C5.32843 37 6 37.6716 6 38.5Z" fill="#93B1FF"/>
<path d="M10 38.5C10 39.3284 9.32843 40 8.5 40C7.67157 40 7 39.3284 7 38.5C7 37.6716 7.67157 37 8.5 37C9.32843 37 10 37.6716 10 38.5Z" fill="#93B1FF"/>
<path d="M14 38.5C14 39.3284 13.3284 40 12.5 40C11.6716 40 11 39.3284 11 38.5C11 37.6716 11.6716 37 12.5 37C13.3284 37 14 37.6716 14 38.5Z" fill="#93B1FF"/>
<path d="M18 38.5C18 39.3284 17.3284 40 16.5 40C15.6716 40 15 39.3284 15 38.5C15 37.6716 15.6716 37 16.5 37C17.3284 37 18 37.6716 18 38.5Z" fill="#93B1FF"/>
<path d="M22 38.5C22 39.3284 21.3284 40 20.5 40C19.6716 40 19 39.3284 19 38.5C19 37.6716 19.6716 37 20.5 37C21.3284 37 22 37.6716 22 38.5Z" fill="#93B1FF"/>
<path d="M37 38.5C37 39.8807 35.8807 41 34.5 41C33.1193 41 32 39.8807 32 38.5C32 37.1193 33.1193 36 34.5 36C35.8807 36 37 37.1193 37 38.5Z" fill="#93B1FF"/>
</svg>
