<svg width="240" height="160" viewBox="0 0 240 160" fill="none" xmlns="http://www.w3.org/2000/svg">
<g clip-path="url(#clip0)">
<path opacity="0.1" d="M139.893 31.9114C125.774 31.4086 112.327 26.8424 99.4945 21.8564C86.6623 16.8705 73.9349 11.3228 60.1537 8.67576C51.2899 6.97298 41.152 6.73254 34.0116 11.4933C27.1374 16.0836 24.9165 23.9855 23.7232 31.3256C22.8244 36.847 22.2964 42.657 24.7573 47.8266C26.4676 51.4157 29.5001 54.4322 31.5988 57.8705C38.9006 69.8315 33.7389 84.5817 25.8284 96.2607C22.1197 101.741 17.811 106.971 14.9466 112.799C12.0822 118.626 10.7579 125.313 13.2646 131.263C15.7472 137.165 21.6659 141.589 28.0777 144.704C41.0996 151.029 56.4385 152.841 71.4064 153.867C104.53 156.138 137.827 155.154 171.038 154.17C183.329 153.805 195.673 153.436 207.763 151.532C214.478 150.474 221.409 148.795 226.285 144.745C232.472 139.602 234.005 130.891 229.858 124.443C222.903 113.625 203.679 110.939 198.812 99.3274C196.137 92.9382 198.884 85.8189 202.774 79.893C211.116 67.1801 225.098 56.0257 225.833 41.492C226.339 31.5114 219.618 21.5155 209.225 16.7918C198.332 11.8409 183.224 12.4638 175.192 20.6586C166.906 29.0872 152.361 32.3332 139.893 31.9114Z" fill="#3166ED"/>
<g opacity="0.1">
<path opacity="0.1" d="M93.8081 33.1836C95.1996 33.2218 96.5912 33.1548 97.9712 32.9833C98.1162 32.9652 98.0993 32.7507 97.9532 32.7464C96.5871 32.7084 95.1823 32.578 93.7812 32.4791C92.7152 32.4038 92.7399 33.1539 93.8081 33.1836Z" fill="black"/>
<path opacity="0.1" d="M86.9627 65.355C85.9788 65.9977 85.381 67.0709 84.7026 68.0349C82.766 70.7584 79.9996 72.7682 76.8298 73.7696C76.7034 73.8096 76.7271 73.999 76.8597 73.9979C81.5611 73.952 86.1402 71.4492 88.8476 67.5977C89.5261 66.6338 90.1238 65.5605 91.1077 64.9179C91.165 64.8825 91.1465 64.7951 91.0797 64.7865C89.6083 64.5962 88.1716 64.5622 86.9627 65.355Z" fill="black"/>
<path opacity="0.1" d="M130.473 31.8393C129.232 30.0338 127.231 28.8841 125.17 28.1474C122.39 27.1551 119.325 26.8162 116.469 27.5616C116.433 27.57 116.439 27.6239 116.476 27.6264C118.029 27.7318 119.56 28.0542 121.025 28.5846C123.086 29.3212 125.087 30.471 126.328 32.2765C127.569 34.082 127.888 36.6482 126.671 38.4625C125.514 40.1915 123.645 39.4024 122.421 40.4669C121.3 41.4396 121.204 42.915 120.381 44.15C118.839 46.4605 116.692 48.3032 114.02 49.0026C114.938 48.8933 115.907 48.9065 116.823 48.8103C120.126 48.4671 122.733 46.4058 124.526 43.7129C125.349 42.4779 125.445 41.0024 126.566 40.0297C127.79 38.9652 129.659 39.7543 130.816 38.0253C132.035 36.2023 131.719 33.6448 130.473 31.8393Z" fill="black"/>
<path opacity="0.1" d="M112.68 49.2474C110.884 49.4354 108.88 49.1993 107.444 50.3119C105.679 51.6912 105.764 54.3164 105.319 56.5132C104.571 60.2677 101.581 63.3787 97.9964 64.617C97.9418 64.6359 97.9511 64.7179 98.0086 64.7232C103.225 65.1495 108.443 61.2259 109.482 56.0782C109.918 53.8814 109.842 51.2562 111.607 49.8769C111.936 49.6298 112.302 49.4364 112.691 49.3032C112.728 49.2903 112.719 49.2437 112.68 49.2474Z" fill="black"/>
</g>
<g opacity="0.1">
<path opacity="0.1" d="M18.3366 21.3061C18.8221 21.2509 18.5408 21.0562 18.0811 20.8903C14.8811 19.7349 2.56264 16.0132 0.465009 26.3067C0.413208 26.5609 0.321316 26.8161 0.229275 27.0586C0.117647 27.3528 -0.00877877 27.8052 0.00379793 28.3236C0.027933 29.3184 1.87025 29.7718 2.73804 30.2589C3.3011 30.5691 3.89859 30.8119 4.51822 30.9824C4.98695 31.1119 5.47209 31.154 5.95013 31.11C6.70059 31.0409 7.44116 30.832 8.16973 30.6392C9.93946 30.171 13.5167 28.6626 16.7176 23.8485C16.8574 23.6382 17.0405 23.456 17.2517 23.3178C17.3565 23.2492 17.48 23.1671 17.612 23.0766C18.364 22.5615 18.0515 21.9398 17.1421 22.0012L16.4915 22.0452C16.074 22.0734 15.7264 21.91 15.7413 22.3282C15.7695 23.1161 15.3454 23.4823 15.4023 22.696C15.4265 22.3619 15.3904 22.1329 15.2539 22.1078C15.203 22.0982 14.8656 22.1339 14.504 22.1769C13.9693 22.2405 13.5829 22.7231 13.5763 23.2616C13.576 23.2878 13.5756 23.3145 13.5751 23.3416C13.5544 24.4444 13.2398 24.2867 13.1306 23.1891C13.0851 22.7316 12.61 22.4343 12.1587 22.5216L11.5614 22.6371C10.994 22.7469 10.6079 23.2851 10.6243 23.8629C10.6273 23.9684 10.6291 24.0804 10.6293 24.198C10.6304 25.3436 10.2244 25.2418 10.2017 24.0964C10.1905 23.5309 9.59485 23.1159 9.05872 23.2963L8.73874 23.404C8.16109 23.5984 7.79909 24.1752 7.81252 24.7845C7.81334 24.822 7.81403 24.8602 7.81456 24.8992C7.83257 26.2303 7.61232 25.7522 7.42827 24.4337C7.36163 23.9563 6.94984 24.0713 6.51026 24.2691C6.09703 24.4549 5.58722 24.6982 5.20681 24.9254C4.88905 25.1151 4.7624 25.4789 4.7728 25.8489C4.77692 25.9954 4.77856 26.1634 4.77495 26.3458C4.75386 27.4132 4.26323 27.2188 4.30283 26.1519C4.31188 25.9082 4.30026 25.7191 4.25825 25.6214C4.23571 25.569 4.17309 25.5728 4.12803 25.6079C4.09215 25.6358 4.04371 25.6738 3.98477 25.7209C3.82757 25.8466 3.30399 25.6651 3.45726 25.5347C3.56369 25.4441 3.66088 25.1613 3.52146 25.1518C3.30185 25.1367 3.00236 25.1289 2.66658 25.1552C2.16543 25.1945 1.91472 24.7822 2.40137 24.6563C2.87018 24.5349 3.48134 24.5112 4.26383 24.7063C4.39884 24.7399 4.54301 24.7177 4.65828 24.6397C4.67462 24.6287 4.6919 24.617 4.71005 24.6048C5.1231 24.3267 5.57727 22.9904 5.09884 22.8524C4.638 22.7194 4.01441 22.1447 4.4924 22.1844C5.18145 22.2416 6.03315 22.4615 7.01162 23.0096C7.24554 23.1406 7.52557 23.1735 7.77761 23.0821L8.24515 22.9125C8.78239 22.7176 9.46044 22.2961 8.94205 22.0556C8.28311 21.7498 7.69563 20.8968 8.36497 21.1791C8.85579 21.3862 9.39015 21.6672 9.96225 22.0454C10.1471 22.1675 10.3723 22.2159 10.5893 22.1714L11.0756 22.0715C11.6153 21.9608 12.3779 21.6342 11.897 21.3654C11.3085 21.0364 10.7619 20.2078 11.3705 20.4979C11.9047 20.7525 12.4904 21.0934 13.1147 21.5489C13.205 21.6148 13.3171 21.6479 13.4286 21.6385C13.8708 21.6009 14.0017 21.0209 13.6162 20.8009C13.1146 20.5146 12.5932 20.2238 12.3349 20.1012C11.9661 19.9261 12.1101 19.6967 12.5035 19.8057C12.8049 19.8893 13.1003 19.9911 13.3882 20.1106C14.2941 20.4867 17.3619 21.4168 18.3366 21.3061Z" fill="#3166ED"/>
</g>
<g opacity="0.1">
<path opacity="0.1" d="M17.2509 8.14432C17.8327 8.64043 18.0376 8.3998 17.6803 7.72387C16.0638 4.66587 11.0679 -3.19798 4.40908 1.41734C4.23315 1.53928 4.03276 1.63888 3.83945 1.73085C3.60659 1.84163 3.2761 2.03708 2.98985 2.34947C2.43581 2.9541 3.27276 4.27307 3.51063 5.05789C3.67214 5.564 3.89177 6.04959 4.16511 6.50492C4.52664 7.11736 5.0772 7.59534 5.73368 7.86671L-nan -nanL5.73368 7.86671C5.73368 7.86671 8.98004 10.6662 15.4561 9.22647C15.6605 9.18103 15.8747 9.17734 16.0804 9.21622C16.1825 9.2355 16.3036 9.25745 16.4345 9.27927C17.1739 9.40256 17.3424 8.85555 16.7686 8.37325L16.3579 8.02811C16.0913 7.80406 15.975 7.50654 15.7433 7.76642C15.3089 8.25342 14.8414 8.22248 15.3263 7.78584C15.5339 7.59892 15.6449 7.44022 15.5771 7.34647C15.552 7.31173 15.3305 7.13979 15.0909 6.95857C14.7389 6.69238 14.6149 6.30541 14.3271 6.63992C13.7366 7.32618 13.162 7.49192 13.7189 6.77813C13.9499 6.48202 13.8381 6.03848 13.5234 5.83348L13.0942 5.55388C12.6973 5.29532 12.1631 5.39367 11.8453 5.74489C11.7884 5.80774 11.7273 5.87359 11.6623 5.94172C11.0142 6.62047 10.8332 6.33458 11.4662 5.6417C11.7773 5.30114 11.6609 4.71885 11.2439 4.52184L10.993 4.40333C10.5347 4.18684 9.98526 4.3248 9.64289 4.69855C9.62437 4.71877 9.60543 4.73929 9.5861 4.76007C8.8345 5.56819 8.97545 5.15515 9.62166 4.26051C9.85508 3.93734 9.54388 3.76952 9.16831 3.63586C8.81347 3.50957 8.36724 3.36255 8.01 3.28295C7.71892 3.2181 7.44377 3.36122 7.24391 3.58257C7.16183 3.67348 7.06518 3.7766 6.95663 3.88559C6.33993 4.50477 6.15956 4.11221 6.78517 3.50202C6.92749 3.36321 7.02624 3.24523 7.05496 3.16425C7.07014 3.12143 7.03153 3.08966 6.98635 3.08492C6.95031 3.08114 6.90141 3.07624 6.84139 3.07075C6.68042 3.05602 6.4768 2.65411 6.63812 2.66435C6.75001 2.67145 6.96395 2.56233 6.88886 2.47907C6.76766 2.3447 6.5939 2.16769 6.37857 1.99032C6.06027 1.72813 6.14619 1.34096 6.50563 1.54309C6.85231 1.73805 7.22785 2.07161 7.58107 2.6316C7.64387 2.73116 7.74456 2.80189 7.86056 2.82188C7.88719 2.82646 7.91624 2.83152 7.9474 2.837C8.35225 2.90819 9.36887 2.41237 9.16476 2.05558C8.96604 1.70822 8.92149 1.00061 9.18232 1.30411C9.54839 1.73005 9.91535 2.33651 10.1776 3.19429C10.2418 3.40403 10.3883 3.58203 10.5887 3.67123L10.9758 3.84357C11.4005 4.03264 12.0392 4.17482 11.8703 3.74169C11.6552 3.18979 11.7852 2.35182 12.0186 2.89629C12.1899 3.29616 12.3452 3.76332 12.4685 4.30781C12.5085 4.48448 12.6139 4.64059 12.767 4.7374L13.1151 4.95747C13.4968 5.19882 14.1344 5.43867 14.0019 5.00692C13.84 4.47893 13.9864 3.6778 14.1824 4.19413C14.3559 4.65132 14.5109 5.18981 14.6234 5.81928C14.6395 5.90941 14.687 5.99248 14.7581 6.05011C15.0416 6.27974 15.4494 6.01005 15.3456 5.66033C15.2101 5.204 15.0653 4.7338 14.9815 4.51361C14.8617 4.19906 15.0779 4.14537 15.2495 4.43493C15.4832 4.8293 15.6728 5.24734 15.8154 5.68139C16.0858 6.50453 16.5917 7.58213 17.2509 8.14432Z" fill="#3166ED"/>
</g>
<g clip-path="url(#clip1)">
<path d="M174.001 14H70.3555C66.4895 14 63.3555 17.134 63.3555 21V140C63.3555 143.866 66.4895 147 70.3555 147H174.001C177.867 147 181.001 143.866 181.001 140V21C181.001 17.134 177.867 14 174.001 14Z" fill="url(#paint0_linear)"/>
<path d="M172.023 16.562H72.1338C68.2678 16.562 65.1338 19.696 65.1338 23.562V137.637C65.1338 141.503 68.2678 144.637 72.1338 144.637H172.023C175.889 144.637 179.023 141.503 179.023 137.637V23.562C179.023 19.696 175.889 16.562 172.023 16.562Z" fill="white"/>
<path opacity="0.2" d="M111.321 37.645H60.666C56.8 37.645 53.666 40.779 53.666 44.645V71.6286C53.666 75.4946 56.8 78.6286 60.666 78.6286H111.321C115.187 78.6286 118.321 75.4946 118.321 71.6286V44.645C118.321 40.779 115.187 37.645 111.321 37.645Z" fill="#3166ED"/>
<path d="M109.146 31.9297H49C45.134 31.9297 42 35.0637 42 38.9297V66.8979C42 70.7639 45.134 73.8979 49 73.8979H109.146C113.012 73.8979 116.146 70.7639 116.146 66.8979V38.9297C116.146 35.0637 113.012 31.9297 109.146 31.9297Z" fill="url(#paint1_linear)"/>
<path d="M115.159 38.0386H42.792V65.915C42.792 69.781 45.926 72.915 49.792 72.915H108.159C112.025 72.915 115.159 69.781 115.159 65.915V38.0386Z" fill="white"/>
<path d="M65.8437 40.9941H54.7334C50.8674 40.9941 47.7334 44.1281 47.7334 47.9941V60.3972C47.7334 64.2632 50.8674 67.3972 54.7334 67.3972H65.8437C69.7097 67.3972 72.8437 64.2632 72.8437 60.3972V47.9941C72.8437 44.1281 69.7097 40.9941 65.8437 40.9941Z" fill="url(#paint2_linear)"/>
<path d="M65.2528 41.5854H55.5254C51.6594 41.5854 48.5254 44.7195 48.5254 48.5855V59.8063C48.5254 63.6723 51.6594 66.8063 55.5254 66.8063H65.2528C69.1188 66.8063 72.2528 63.6723 72.2528 59.8063V48.5854C72.2528 44.7195 69.1188 41.5854 65.2528 41.5854Z" fill="#3166ED"/>
<path d="M67.0144 51.5444C66.8373 50.0463 66.5717 48.5447 65.9962 47.1436C65.4207 45.7426 64.4964 44.4544 63.2091 43.6586C62.7503 43.3521 62.2195 43.1697 61.6686 43.1292C60.6611 43.094 59.7297 43.7715 59.2109 44.6327C59.0352 44.9309 58.8819 45.2418 58.7523 45.5626C58.2723 45.644 57.8336 45.8839 57.5067 46.2435C57.1798 46.6032 56.9837 47.0619 56.9497 47.5459C55.8856 47.9976 54.9902 48.7699 54.3889 49.7545C53.7876 50.7391 53.5107 51.8865 53.597 53.0359C53.6833 54.1853 54.1285 55.2789 54.8702 56.1633C55.6118 57.0477 56.6127 57.6786 57.7324 57.9674V58.9079C56.5459 59.217 55.4954 59.9085 54.7443 60.8746C53.9933 61.8407 53.584 63.0272 53.5801 64.2493V66.8114H64.6523V64.2457C64.6486 63.0241 64.2398 61.838 63.4894 60.872C62.7391 59.9059 61.6893 59.2142 60.5035 58.9044V57.9639C61.6919 57.6577 62.7446 56.9668 63.4962 55.9997C64.2477 55.0325 64.6556 53.844 64.6558 52.6208C64.6558 52.6085 64.6558 52.5943 64.6558 52.582L65.2791 53.9636C65.8723 55.28 66.4796 56.6916 66.2477 58.1174C67.3845 56.1764 67.2906 53.7748 67.0144 51.5444Z" fill="white"/>
<path d="M109.839 32.7183H48.1121C45.1739 32.7183 42.792 35.1002 42.792 38.0384H115.159C115.159 35.1002 112.777 32.7183 109.839 32.7183Z" fill="#3166ED"/>
<path d="M108.537 48.9731H82.8271C82.3374 48.9731 81.9404 49.3701 81.9404 49.8598C81.9404 50.3496 82.3374 50.7465 82.8271 50.7465H108.537C109.026 50.7465 109.423 50.3496 109.423 49.8598C109.423 49.3701 109.026 48.9731 108.537 48.9731Z" fill="#E0E0E0"/>
<path d="M108.537 56.4624H82.8271C82.3374 56.4624 81.9404 56.8594 81.9404 57.3491C81.9404 57.8388 82.3374 58.2358 82.8271 58.2358H108.537C109.026 58.2358 109.423 57.8388 109.423 57.3491C109.423 56.8594 109.026 56.4624 108.537 56.4624Z" fill="#F5F5F5"/>
<path opacity="0.2" d="M97.069 52.7178H82.6298C82.1401 52.7178 81.7432 53.1148 81.7432 53.6045C81.7432 54.0942 82.1401 54.4911 82.6298 54.4911H97.069C97.5587 54.4911 97.9557 54.0942 97.9557 53.6045C97.9557 53.1148 97.5587 52.7178 97.069 52.7178Z" fill="#3166ED"/>
<path opacity="0.2" d="M91.9287 60.2051H82.6299C82.1401 60.2051 81.7432 60.6021 81.7432 61.0918C81.7432 61.5815 82.1401 61.9785 82.6299 61.9785H91.9287C92.4184 61.9785 92.8154 61.5815 92.8154 61.0918C92.8154 60.6021 92.4184 60.2051 91.9287 60.2051Z" fill="#69F0AE"/>
<path d="M104.978 60.2051H95.6787C95.189 60.2051 94.792 60.6021 94.792 61.0918C94.792 61.5815 95.189 61.9785 95.6787 61.9785H104.978C105.467 61.9785 105.864 61.5815 105.864 61.0918C105.864 60.6021 105.467 60.2051 104.978 60.2051Z" fill="#69F0AE"/>
<path d="M168.648 88.0869H76.4958C75.571 88.0869 74.8213 88.8366 74.8213 89.7615C74.8213 90.6863 75.571 91.436 76.4958 91.436H168.648C169.573 91.436 170.322 90.6863 170.322 89.7615C170.322 88.8366 169.573 88.0869 168.648 88.0869Z" fill="#E0E0E0"/>
<path d="M104.98 95.376H76.4959C75.571 95.376 74.8213 96.1257 74.8213 97.0505C74.8213 97.9754 75.571 98.7251 76.4959 98.7251H104.98C105.905 98.7251 106.655 97.9754 106.655 97.0505C106.655 96.1257 105.905 95.376 104.98 95.376Z" fill="#E0E0E0"/>
<path d="M168.648 95.376H140.164C139.239 95.376 138.489 96.1257 138.489 97.0505C138.489 97.9754 139.239 98.7251 140.164 98.7251H168.648C169.573 98.7251 170.323 97.9754 170.323 97.0505C170.323 96.1257 169.573 95.376 168.648 95.376Z" fill="#69F0AE"/>
<path d="M168.648 102.667H76.4958C75.571 102.667 74.8213 103.417 74.8213 104.342C74.8213 105.266 75.571 106.016 76.4958 106.016H168.648C169.573 106.016 170.322 105.266 170.322 104.342C170.322 103.417 169.573 102.667 168.648 102.667Z" fill="#E0E0E0"/>
<path d="M168.648 109.958H76.4959C75.571 109.958 74.8213 110.708 74.8213 111.633C74.8213 112.558 75.571 113.308 76.4959 113.308H168.648C169.573 113.308 170.322 112.558 170.322 111.633C170.322 110.708 169.573 109.958 168.648 109.958Z" fill="#E0E0E0"/>
<path d="M82.442 116.854H76.4957C75.3531 116.854 74.4268 117.78 74.4268 118.923C74.4268 120.066 75.3531 120.992 76.4957 120.992H82.442C83.5846 120.992 84.5109 120.066 84.5109 118.923C84.5109 117.78 83.5846 116.854 82.442 116.854Z" fill="url(#paint3_linear)"/>
<path d="M82.6377 117.248H76.4959C75.571 117.248 74.8213 117.997 74.8213 118.922C74.8213 119.847 75.571 120.597 76.4959 120.597H82.6377C83.5625 120.597 84.3122 119.847 84.3122 118.922C84.3122 117.997 83.5625 117.248 82.6377 117.248Z" fill="#3166ED"/>
<path d="M125.348 117.248H119.206C118.281 117.248 117.531 117.997 117.531 118.922C117.531 119.847 118.281 120.597 119.206 120.597H125.348C126.273 120.597 127.022 119.847 127.022 118.922C127.022 117.997 126.273 117.248 125.348 117.248Z" fill="#69F0AE"/>
<path d="M168.648 117.248H162.507C161.582 117.248 160.832 117.997 160.832 118.922C160.832 119.847 161.582 120.597 162.507 120.597H168.648C169.573 120.597 170.323 119.847 170.323 118.922C170.323 117.997 169.573 117.248 168.648 117.248Z" fill="#69F0AE"/>
<path d="M165.203 128.085H121.464C117.981 128.085 115.158 130.909 115.158 134.391C115.158 137.874 117.981 140.697 121.464 140.697H165.203C168.686 140.697 171.509 137.874 171.509 134.391C171.509 130.909 168.686 128.085 165.203 128.085Z" fill="url(#paint4_linear)"/>
<path d="M165.495 129.464H120.974C118.308 129.464 116.146 131.625 116.146 134.292C116.146 136.958 118.308 139.12 120.974 139.12H165.495C168.161 139.12 170.323 136.958 170.323 134.292C170.323 131.625 168.161 129.464 165.495 129.464Z" fill="#EC6689"/>
<path d="M164.509 30.1562H142.722C138.856 30.1562 135.722 33.2903 135.722 37.1563V50.3481C135.722 54.2141 138.856 57.3481 142.722 57.3481H164.509C168.375 57.3481 171.509 54.2141 171.509 50.3481V37.1562C171.509 33.2903 168.375 30.1562 164.509 30.1562Z" fill="url(#paint5_linear)"/>
<path d="M163.324 31.9297H144.105C140.239 31.9297 137.105 35.0637 137.105 38.9297V48.5748C137.105 52.4407 140.239 55.5748 144.105 55.5748H163.324C167.19 55.5748 170.324 52.4408 170.324 48.5748V38.9297C170.324 35.0637 167.19 31.9297 163.324 31.9297Z" fill="#3166ED"/>
<path opacity="0.2" d="M163.324 31.9297H144.105C140.239 31.9297 137.105 35.0637 137.105 38.9297V48.5748C137.105 52.4407 140.239 55.5748 144.105 55.5748H163.324C167.19 55.5748 170.324 52.4408 170.324 48.5748V38.9297C170.324 35.0637 167.19 31.9297 163.324 31.9297Z" fill="white"/>
<path d="M146.739 44.3164L150.655 48.2281L160.443 38.4487" stroke="white" stroke-width="3"/>
</g>
</g>
<defs>
<linearGradient id="paint0_linear" x1="122.178" y1="147" x2="122.178" y2="14" gradientUnits="userSpaceOnUse">
<stop stop-color="#808080" stop-opacity="0.25"/>
<stop offset="0.54" stop-color="#808080" stop-opacity="0.12"/>
<stop offset="1" stop-color="#808080" stop-opacity="0.1"/>
</linearGradient>
<linearGradient id="paint1_linear" x1="15566" y1="14278.5" x2="15566" y2="4296.32" gradientUnits="userSpaceOnUse">
<stop stop-color="#808080" stop-opacity="0.25"/>
<stop offset="0.54" stop-color="#808080" stop-opacity="0.12"/>
<stop offset="1" stop-color="#808080" stop-opacity="0.1"/>
</linearGradient>
<linearGradient id="paint2_linear" x1="860.805" y1="6055.61" x2="4421.95" y2="6055.61" gradientUnits="userSpaceOnUse">
<stop stop-color="#808080" stop-opacity="0.25"/>
<stop offset="0.54" stop-color="#808080" stop-opacity="0.12"/>
<stop offset="1" stop-color="#808080" stop-opacity="0.1"/>
</linearGradient>
<linearGradient id="paint3_linear" x1="2208.23" y1="2625.82" x2="2208.23" y2="2528.79" gradientUnits="userSpaceOnUse">
<stop stop-color="#808080" stop-opacity="0.25"/>
<stop offset="0.54" stop-color="#808080" stop-opacity="0.12"/>
<stop offset="1" stop-color="#808080" stop-opacity="0.1"/>
</linearGradient>
<linearGradient id="paint4_linear" x1="32363.6" y1="9183" x2="32363.6" y2="8281.79" gradientUnits="userSpaceOnUse">
<stop stop-color="#808080" stop-opacity="0.25"/>
<stop offset="0.54" stop-color="#808080" stop-opacity="0.12"/>
<stop offset="1" stop-color="#808080" stop-opacity="0.1"/>
</linearGradient>
<linearGradient id="paint5_linear" x1="22694.1" y1="6710.1" x2="22694.1" y2="2519.84" gradientUnits="userSpaceOnUse">
<stop stop-color="#808080" stop-opacity="0.25"/>
<stop offset="0.54" stop-color="#808080" stop-opacity="0.12"/>
<stop offset="1" stop-color="#808080" stop-opacity="0.1"/>
</linearGradient>
<clipPath id="clip0">
<rect width="240" height="160" fill="white"/>
</clipPath>
<clipPath id="clip1">
<rect width="139" height="133" fill="white" transform="translate(42 14)"/>
</clipPath>
</defs>
</svg>
