<svg width="122" height="198" viewBox="0 0 122 198" fill="none" xmlns="http://www.w3.org/2000/svg">
<path d="M8.10449 129.282H113.608V191.343C113.608 194.771 110.83 197.549 107.402 197.549H14.3106C10.8831 197.549 8.10449 194.771 8.10449 191.343V129.282Z" fill="#E19842"/>
<g clip-path="url(#clip0)">
<path d="M33.7496 76.3792C32.6621 75.2917 31.2162 74.6929 29.6784 74.6929C28.1404 74.6929 26.6947 75.2918 25.6074 76.3792C23.3626 78.6239 23.3626 82.2767 25.6074 84.5215C26.7301 85.6442 28.2041 86.2051 29.6784 86.2051C31.1526 86.2051 32.6273 85.644 33.7496 84.5215C35.9944 82.2769 35.9944 78.6243 33.7496 76.3792Z" fill="#ED336B"/>
<path d="M103.526 69.3047C101.282 67.0601 97.6291 67.0597 95.3838 69.3047C93.139 71.5495 93.139 75.2023 95.3838 77.447C96.5065 78.5695 97.9806 79.1307 99.455 79.1307C100.929 79.1307 102.404 78.5695 103.526 77.447C105.771 75.2023 105.771 71.5497 103.526 69.3047Z" fill="#ED336B"/>
<path d="M78.4721 35.3053C79.3461 34.4532 79.6548 33.2029 79.2775 32.042C78.9004 30.8814 77.9155 30.051 76.7078 29.8758L70.3577 28.9531C70.3217 28.9479 70.2911 28.9253 70.2752 28.893L67.4354 23.1388V23.1386C66.8952 22.044 65.8012 21.3643 64.5806 21.3643C63.3602 21.3643 62.2663 22.044 61.7262 23.1386L58.8865 28.8928C58.8705 28.9251 58.8395 28.9477 58.8038 28.9529L52.4536 29.8756C51.2458 30.051 50.2611 30.881 49.8838 32.0419C49.5066 33.2027 49.8151 34.453 50.6892 35.3051L55.2844 39.7844C55.3103 39.8094 55.3219 39.8457 55.3158 39.8816L54.2311 46.2061C54.0249 47.4092 54.51 48.6022 55.4975 49.3194C56.0554 49.7249 56.7082 49.9307 57.3655 49.9307C57.8714 49.9307 58.3801 49.8087 58.8498 49.5618L64.5299 46.5756C64.5618 46.5591 64.6 46.5589 64.632 46.5758L70.3119 49.5618C71.3925 50.1298 72.6766 50.0368 73.6641 49.3194C74.6514 48.602 75.1369 47.409 74.9303 46.2061L73.8457 39.8814C73.8398 39.8457 73.8514 39.8097 73.8774 39.7843L78.4721 35.3053Z" fill="#FFE457"/>
<path d="M78.4719 35.3053C79.3459 34.4532 79.6546 33.2029 79.2773 32.042C78.9002 30.8814 77.9153 30.051 76.7076 29.8758L70.3575 28.9531C70.3216 28.9479 70.2909 28.9253 70.275 28.893L67.4352 23.1388V23.1386C66.895 22.044 65.801 21.3643 64.5804 21.3643C63.5507 21.3643 62.6124 21.8496 62.0195 22.6586C62.1294 22.8082 62.2284 22.9679 62.313 23.1386V23.1388L65.1528 28.893C65.1688 28.9255 65.1997 28.9479 65.2353 28.9531L71.5855 29.8758C72.7933 30.0512 73.7778 30.8812 74.1551 32.042C74.5324 33.2029 74.2237 34.4532 73.3497 35.3053L68.7548 39.7843C68.7288 39.8097 68.7172 39.8457 68.7231 39.8814L69.8077 46.2061C69.9769 47.1917 69.6813 48.1697 69.0263 48.886L70.3117 49.5618C71.3923 50.1298 72.6764 50.0368 73.6639 49.3194C74.6512 48.602 75.1367 47.409 74.9301 46.2061L73.8455 39.8814C73.8396 39.8457 73.8512 39.8097 73.8772 39.7843L78.4719 35.3053Z" fill="#F5BA3D"/>
<path d="M83.2984 13.7747C82.2109 12.6874 80.7652 12.0884 79.2272 12.0884C77.6892 12.0884 76.2436 12.6874 75.1562 13.7747C72.9115 16.0195 72.9115 19.6722 75.1562 21.917C76.2436 23.0045 77.6894 23.6035 79.2272 23.6035C80.7654 23.6035 82.2111 23.0045 83.2984 21.9172C85.5432 19.6721 85.5432 16.0195 83.2984 13.7747Z" fill="#3CAAFA"/>
<path d="M57.0845 92.5555C57.0535 92.5555 57.0225 92.5545 56.9913 92.5526C56.1443 92.502 55.4986 91.7742 55.5491 90.927C55.5562 90.8049 56.0209 82.1847 53.5842 71.2446C52.1571 64.8372 50.0276 58.8965 47.2549 53.5878C43.8068 46.9858 39.3462 41.3444 33.9966 36.821C33.3486 36.2732 33.2674 35.3033 33.8155 34.6553C34.3633 34.0073 35.333 33.9261 35.9812 34.4742C41.6501 39.2677 46.3685 45.2367 50.0057 52.2153C52.9033 57.7753 55.1235 63.9839 56.6047 70.6684C59.123 82.0343 58.6391 90.745 58.6174 91.1102C58.5681 91.9261 57.8912 92.5555 57.0845 92.5555Z" fill="#ED336B"/>
<path d="M49.1511 92.5557C48.3031 92.5557 47.6153 91.8687 47.6144 91.0209C47.6138 90.9367 47.5642 86.8513 45.5422 81.2242C43.6725 76.0206 39.6794 68.3849 31.2731 61.558C30.6144 61.023 30.5138 60.0553 31.0489 59.3962C31.5839 58.7374 32.5518 58.6368 33.2106 59.1721C42.2221 66.4906 46.491 74.7157 48.4854 80.327C50.6627 86.4534 50.6878 90.8354 50.6878 91.019C50.6878 91.8676 49.9997 92.5557 49.1511 92.5557Z" fill="#904F15"/>
<path d="M72.0756 92.5556C71.2687 92.5556 70.5918 91.9266 70.5433 91.1105C70.5214 90.7454 70.0375 82.0347 72.5558 70.6688C74.037 63.9842 76.2572 57.7757 79.1548 52.2157C82.7918 45.2369 87.5104 39.268 93.1793 34.4745C93.8273 33.9267 94.7972 34.0078 95.3448 34.6557C95.8929 35.3037 95.8117 36.2733 95.1637 36.8214C89.801 41.356 85.332 47.0133 81.8801 53.636C79.1069 58.9574 76.9792 64.9119 75.5564 71.3337C73.1301 82.2841 73.606 90.8419 73.611 90.9271C73.6616 91.7743 73.016 92.502 72.1688 92.5528C72.1376 92.5545 72.1066 92.5556 72.0756 92.5556Z" fill="#ED336B"/>
<path d="M80.2213 92.5537C80.2203 92.5537 80.2192 92.5537 80.2182 92.5537C79.3706 92.552 78.6846 91.8662 78.6846 91.0184C78.6846 90.8347 78.7097 86.4528 80.887 80.3263C82.8812 74.715 87.1501 66.49 96.1615 59.1715C96.8208 58.6366 97.7881 58.7367 98.3234 59.3956C98.8584 60.0543 98.758 61.0222 98.0993 61.5573C89.6931 68.3842 85.6999 76.02 83.8301 81.2236C81.7971 86.8816 81.7582 90.9803 81.758 91.0212C81.7549 91.8681 81.0676 92.5537 80.2213 92.5537Z" fill="#904F15"/>
<path d="M64.5806 92.5553C63.7319 92.5553 63.0439 91.8672 63.0439 91.0187V55.984C63.0439 55.1352 63.7321 54.4473 64.5806 54.4473C65.4296 54.4473 66.1173 55.1354 66.1173 55.984V91.0183C66.1173 91.8672 65.4296 92.5553 64.5806 92.5553Z" fill="#904F15"/>
<path d="M112.618 49.023L109.564 46.4368L109.964 42.4554C110.064 41.4542 109.596 40.501 108.743 39.968C107.89 39.4346 106.828 39.4325 105.972 39.9618L102.569 42.0668L98.9061 40.4568C97.9849 40.0519 96.9341 40.202 96.1631 40.8489C95.3923 41.4958 95.0619 42.5048 95.301 43.4821L96.2511 47.3694L93.5879 50.3556C92.9183 51.1064 92.7365 52.1525 93.1135 53.0851C93.4904 54.018 94.3477 54.644 95.3514 54.7189L99.342 55.0162L101.36 58.4723C101.835 59.2868 102.689 59.7738 103.621 59.7738C103.684 59.7738 103.746 59.7715 103.809 59.7673C104.813 59.6968 105.673 59.0748 106.054 58.1438L107.57 54.4404L111.48 53.5898C112.464 53.3759 113.225 52.6365 113.469 51.6598C113.712 50.6835 113.386 49.6729 112.618 49.023Z" fill="#FFE457"/>
<path d="M112.617 49.0225L109.564 46.4363L109.963 42.4549C110.063 41.4537 109.596 40.5006 108.742 39.9675C107.889 39.4341 106.827 39.4321 105.972 39.9613L104.19 41.063C104.392 41.4866 104.48 41.9648 104.431 42.4549L104.031 46.4363L107.085 49.0225C107.853 49.6725 108.179 50.683 107.935 51.6593C107.692 52.6358 106.93 53.3752 105.947 53.5893L102.037 54.4399L100.787 57.4934L101.359 58.4721C101.834 59.2867 102.688 59.7737 103.62 59.7737C103.683 59.7737 103.745 59.7714 103.808 59.767C104.812 59.6965 105.672 59.0745 106.053 58.1435L107.569 54.4401L111.479 53.5895C112.463 53.3756 113.224 52.6362 113.468 51.6595C113.711 50.683 113.385 49.6725 112.617 49.0225Z" fill="#F5BA3D"/>
<path d="M35.9189 26.9623L32.8655 24.3761L33.2649 20.3947C33.3653 19.3934 32.8974 18.4403 32.0441 17.9073C31.1908 17.3741 30.1292 17.372 29.2736 17.9012L25.8702 20.0063L22.2069 18.3962C21.2859 17.9913 20.2347 18.1417 19.4639 18.7886C18.6933 19.4355 18.3631 20.4443 18.6019 21.4217L19.5523 25.3087L16.8888 28.2952C16.2191 29.0461 16.0372 30.0923 16.4145 31.0251C16.7914 31.9581 17.6489 32.584 18.6524 32.6587L22.6428 32.956L24.6602 36.4121C25.1357 37.2266 25.9899 37.7136 26.9218 37.7136C26.9841 37.7136 27.0468 37.7114 27.1096 37.707C28.1134 37.6367 28.9738 37.0147 29.3547 36.0834L30.8707 32.3801L34.7807 31.5294C35.764 31.3156 36.5257 30.5763 36.7692 29.6C37.0125 28.6229 36.6867 27.6126 35.9189 26.9623Z" fill="#FFE457"/>
<path d="M35.9188 26.9623L32.8653 24.3761L33.2647 20.3947C33.3651 19.3934 32.8973 18.4403 32.044 17.9073C31.1906 17.3741 30.129 17.372 29.2734 17.9012L27.6479 18.9066C27.8842 19.3533 27.9903 19.867 27.9374 20.3948L27.538 24.3763L30.5917 26.9625C31.3594 27.6126 31.6853 28.6229 31.4419 29.5994C31.1984 30.5757 30.4367 31.3152 29.4534 31.5288L25.5434 32.3795L24.209 35.6392L24.6599 36.4117C25.1353 37.2263 25.9896 37.7133 26.9214 37.7133C26.9837 37.7133 27.0465 37.711 27.1092 37.7066C28.1131 37.6363 28.9734 37.0143 29.3544 36.083L30.8703 32.3797L34.7803 31.529C35.7637 31.3152 36.5253 30.5759 36.7689 29.5996C37.0124 28.6229 36.6865 27.6126 35.9188 26.9623Z" fill="#F5BA3D"/>
<path d="M24.4211 57.5213C23.8154 57.5213 23.2665 57.1656 23.0188 56.6131L21.8294 53.9592C21.4906 53.2036 20.8878 52.6008 20.1322 52.2619L17.4786 51.0731C16.926 50.8254 16.5703 50.2762 16.5703 49.6708C16.5703 49.0651 16.926 48.5161 17.4786 48.2685L20.1324 47.0791C20.888 46.7403 21.4908 46.1375 21.8296 45.3819L23.019 42.7281C23.2666 42.1755 23.8158 41.8198 24.4213 41.8198C25.0269 41.8198 25.5759 42.1755 25.8236 42.7281L27.0129 45.3819C27.3517 46.1375 27.9545 46.7403 28.7103 47.0792L31.3639 48.2685C31.9165 48.5161 32.2722 49.0653 32.2722 49.6708C32.2722 50.2764 31.9165 50.8254 31.3639 51.0731L28.7101 52.2623C27.9545 52.601 27.3517 53.2038 27.0129 53.9594L25.8236 56.6132C25.5757 57.1658 25.0267 57.5213 24.4211 57.5213Z" fill="#F5BA3D"/>
<path d="M99.4554 28.4688C98.85 28.4688 98.3006 28.1131 98.0531 27.5605L96.8637 24.9069C96.525 24.1512 95.922 23.5485 95.1664 23.2097L92.5127 22.0203C91.9601 21.7726 91.6045 21.2235 91.6045 20.618C91.6045 20.0126 91.96 19.4634 92.5127 19.2157L95.1664 18.0263C95.9222 17.6876 96.525 17.0848 96.8637 16.329L98.0531 13.6753C98.3006 13.1227 98.85 12.7671 99.4554 12.7671C100.061 12.7671 100.61 13.1227 100.858 13.6753L102.047 16.3292C102.386 17.0848 102.989 17.6876 103.744 18.0263L106.398 19.2157C106.951 19.4634 107.306 20.0126 107.306 20.618C107.306 21.2237 106.951 21.7726 106.398 22.0203L103.744 23.2097C102.988 23.5485 102.386 24.1512 102.047 24.9069L100.858 27.5607C100.61 28.1133 100.061 28.4688 99.4554 28.4688Z" fill="#F5BA3D"/>
<path d="M47.9925 21.695C47.3869 21.695 46.8379 21.3394 46.5902 20.7868L45.4008 18.1329C45.0621 17.3773 44.4593 16.7745 43.7035 16.4356L41.0499 15.2464C40.4973 14.9989 40.1416 14.4495 40.1416 13.8441C40.1416 13.2385 40.4973 12.6895 41.0499 12.4418L43.7037 11.2524C44.4595 10.9137 45.0621 10.3109 45.4008 9.55528L46.5902 6.90142C46.8379 6.34882 47.3871 5.99316 47.9925 5.99316C48.5982 5.99316 49.1472 6.34882 49.3948 6.90142L50.5842 9.55528C50.923 10.3111 51.5258 10.9137 52.2814 11.2524L54.935 12.4418C55.4876 12.6895 55.8433 13.2387 55.8433 13.8441C55.8433 14.4495 55.4876 14.9987 54.935 15.2464L52.2814 16.4356C51.5256 16.7744 50.923 17.3771 50.5842 18.1327L49.3948 20.7866C49.1472 21.3394 48.5984 21.695 47.9925 21.695Z" fill="#F5BA3D"/>
</g>
<path d="M8.10449 129.282H39.135V197.549H14.3106C10.8831 197.549 8.10449 194.771 8.10449 191.343V129.282Z" fill="#D98D34"/>
<path d="M0.468665 113.463C-1.02336 110.373 1.22842 106.785 4.66035 106.785H22.1437C24.9692 106.785 27.5712 108.321 28.9361 110.795L39.1359 129.282H8.1054L0.468665 113.463Z" fill="#CF842B"/>
<path d="M9.65723 112.216L17.4148 114.543L22.0694 111.44L30.6028 129.282H17.4148L9.65723 112.216Z" fill="#DE9D1F"/>
<path d="M120.753 113.344C122.134 110.264 119.881 106.785 116.506 106.785H55.4933C52.5931 106.785 49.9352 108.403 48.6028 110.979L39.1355 129.282H113.609L120.753 113.344Z" fill="#CF842B"/>
<path d="M67.7454 158.98C67.3069 160.592 66.5778 157.734 64.8847 157.734C63.1917 157.734 62.4625 160.592 62.024 158.98C61.3726 156.587 62.9693 154.785 64.8847 154.785C66.8002 154.785 68.3968 156.587 67.7454 158.98Z" fill="#4A0D0D"/>
<path d="M92.8734 158.98C92.4348 160.592 91.7057 157.734 90.0127 157.734C88.3196 157.734 87.5905 160.592 87.152 158.98C86.5006 156.587 88.0972 154.785 90.0127 154.785C91.9281 154.785 93.5247 156.587 92.8734 158.98Z" fill="#4A0D0D"/>
<path d="M72.2739 173.793C71.9583 171.232 76.2902 168.72 77.4188 168.72C78.5475 168.72 82.8793 171.232 82.5637 173.793C82.273 176.152 78.6957 179.043 77.4188 179.043C76.1419 179.043 72.5647 176.152 72.2739 173.793Z" fill="#4A0D0D"/>
<path d="M17.415 129.282H30.603V154.882H17.415V129.282Z" fill="#DE9D1F"/>
<defs>
<clipPath id="clip0">
<rect width="97.3267" height="97.3267" fill="white" transform="translate(16.2207 0.61084)"/>
</clipPath>
</defs>
</svg>
