<svg width="70" height="49" viewBox="0 0 70 49" fill="none" xmlns="http://www.w3.org/2000/svg">
<path d="M70 44.1369C70 46.4223 68.1475 48.275 65.8622 48.275H4.13779C1.85254 48.2751 0 46.4223 0 44.1369V4.13793C0 1.85268 1.85254 0 4.13779 0H65.8622C68.1476 0 70 1.85268 70 4.13793V44.1369Z" fill="#306FC5"/>
<path opacity="0.15" d="M2.94178 44.1369V4.13793C2.94178 1.85268 4.79459 0 7.07984 0H4.13766C1.85254 0 0 1.85254 0 4.13793V44.1371C0 46.4224 1.85254 48.2751 4.13779 48.2751H7.07998C4.79473 48.2751 2.94178 46.4223 2.94178 44.1369Z" fill="#202121"/>
<path d="M10.1982 19.3179H12.2898L11.2443 16.656L10.1982 19.3179Z" fill="white"/>
<path d="M21.3208 28.2538V29.4899H24.8384V30.8211H21.3208V32.2475H25.2185L27.0247 30.2506L25.3137 28.2538H21.3208Z" fill="white"/>
<path d="M48.7947 16.6561L47.6538 19.318H49.8406L48.7947 16.6561Z" fill="white"/>
<path d="M31.4929 33.0072V27.5885L29.021 30.2506L31.4929 33.0072Z" fill="white"/>
<path d="M36.1508 29.1097C36.0556 28.5393 35.675 28.2537 35.1044 28.2537H33.1084V29.9648H35.2001C35.7703 29.965 36.1508 29.6799 36.1508 29.1097Z" fill="white"/>
<path d="M42.8053 29.7751C42.9955 29.6798 43.0909 29.3943 43.0909 29.1097C43.1861 28.7298 42.9955 28.5393 42.8053 28.4442C42.6157 28.349 42.3301 28.349 42.0453 28.349H40.1436V29.8703H42.0452C42.33 29.8703 42.6156 29.8703 42.8053 29.7751Z" fill="white"/>
<path d="M56.4943 14.184V15.3247L55.9243 14.184H51.4566V15.3247L50.886 14.184H44.8017C43.7561 14.184 42.9001 14.3743 42.1399 14.7545V14.184H37.8621V14.2791V14.7545C37.3869 14.3744 36.8165 14.184 36.0559 14.184H20.7503L19.7041 16.5607L18.6586 14.184H15.2364H13.8103V15.3247L13.3349 14.184H13.2398H9.15201L7.25039 18.6519L5.06412 23.5002L5.02393 23.5955H5.06412H9.91258H9.97328L10.0077 23.5002L10.5784 22.0745H11.8142L12.3846 23.5955H17.8979V23.5002V22.4548L18.3736 23.5954H21.1302L21.6053 22.4548V23.5002V23.5955H23.7919H34.7246H34.8197V21.1237H35.0103C35.2002 21.1237 35.2002 21.1237 35.2002 21.409V23.5004H42.045V22.93C42.6154 23.2156 43.4705 23.5004 44.6114 23.5004H47.4637L48.0341 21.9797H49.3647L49.9351 23.5004H55.4487V22.5499V22.0747L56.3047 23.5004H56.4943H56.5897H60.7726V14.184H56.4946H56.4943ZM24.2675 22.1698H23.3166H22.7464V21.5999V16.941L22.6512 17.1591V17.1565L20.4396 22.1698H20.3696H19.8612H19.0386L16.7571 16.941V22.1698H13.5251L12.8597 20.7439H9.62711L8.96156 22.1698H7.29045L10.1028 15.5151H12.4792L15.141 21.8844V15.5151H15.7112H17.6596L17.7045 15.6103H17.7077L18.9072 18.2209L19.7685 20.1768L19.799 20.0782L21.7002 15.5152H24.2674V22.1698H24.2675ZM30.8273 16.941H27.1196V18.1768H30.7321V19.5077H27.1196V20.839H30.8273V22.2646H25.5036V15.5152H30.8273V16.941ZM37.6078 19.3924C37.6103 19.3946 37.6134 19.3961 37.6164 19.3981C37.6524 19.4361 37.6832 19.4743 37.7094 19.5108C37.8915 19.7495 38.0388 20.1046 38.0462 20.6252C38.0467 20.6342 38.0471 20.6431 38.0477 20.6521C38.0477 20.6573 38.0486 20.6618 38.0486 20.6672C38.0486 20.6702 38.0483 20.6725 38.0483 20.6754C38.0505 20.7277 38.0519 20.7812 38.0519 20.839V22.17H36.6262V21.4091C36.6262 21.0289 36.6262 20.4584 36.3406 20.0782C36.2508 19.9884 36.1598 19.9292 36.0609 19.887C35.9184 19.7948 35.6484 19.7933 35.2002 19.7933H33.4885V22.17H31.8728V15.5152H35.4855C36.3406 15.5152 36.9113 15.5152 37.3868 15.8004C37.8526 16.0801 38.1339 16.544 38.1446 17.2786C38.1226 18.2903 37.4732 18.8454 37.0063 19.0326C37.0063 19.0326 37.3235 19.0964 37.6078 19.3924ZM40.8091 22.1698H39.1928V15.5151H40.8091V22.1698ZM59.3471 22.1698H57.2553L54.2133 17.1311V21.314L54.2033 21.3041V22.1739H52.5973V22.17H50.981L50.4106 20.744H47.083L46.5126 22.2647H44.7064C43.9464 22.2647 42.9951 22.0748 42.425 21.5044C41.8546 20.934 41.5697 20.1735 41.5697 18.9378C41.5697 17.9872 41.7596 17.0359 42.425 16.2756C42.8999 15.7048 43.7559 15.5152 44.8014 15.5152H46.3228V16.941H44.8014C44.231 16.941 43.9464 17.0358 43.5654 17.3215C43.2807 17.6066 43.0904 18.1768 43.0904 18.8422C43.0904 19.6029 43.1856 20.0782 43.5654 20.4584C43.8512 20.744 44.2312 20.8392 44.7064 20.8392H45.3718L47.5581 15.6106H48.5092H49.9349L52.5971 21.9799V21.6551V19.5079V19.318V15.6108H54.9736L57.73 20.2688V15.6108H59.3468V22.1701H59.3471V22.1698Z" fill="white"/>
<path d="M36.2527 18.2868C36.2804 18.2571 36.3056 18.2235 36.3269 18.1849C36.413 18.0486 36.5118 17.8031 36.4586 17.468C36.4564 17.4372 36.4508 17.4088 36.4442 17.3813C36.4424 17.3736 36.4427 17.3669 36.4407 17.3593L36.4397 17.3594C36.3924 17.1966 36.2717 17.0965 36.1512 17.0358C35.9606 16.941 35.6754 16.941 35.3904 16.941H33.4888V18.4623H35.3904C35.6754 18.4623 35.9608 18.4623 36.1512 18.367C36.1798 18.3525 36.2052 18.3328 36.2297 18.3106L36.23 18.3118C36.2301 18.3116 36.2398 18.3015 36.2527 18.2868Z" fill="white"/>
<path d="M64.956 31.6768C64.956 31.0114 64.7661 30.3457 64.481 29.8704V25.5926H64.4766V25.307C64.4766 25.307 60.492 25.307 59.8989 25.307C59.3061 25.307 58.5866 25.8773 58.5866 25.8773V25.307H54.2138C53.548 25.307 52.693 25.4973 52.3122 25.8773V25.307H44.5171V25.5926V25.8772C43.9471 25.4022 42.9005 25.3069 42.4255 25.3069H37.2919V25.5925V25.877C36.8166 25.4021 35.6753 25.3068 35.1046 25.3068H29.4016L28.0703 26.7329L26.8344 25.3068H26.4364H25.7888H18.2788V25.5924V26.3434V34.9089H26.6446L28.0192 33.534L29.2107 34.9089H29.3061H34.1266H34.345H34.4402H34.5348V33.9583V32.7225H35.0105C35.6753 32.7225 36.5313 32.7225 37.1967 32.4369V34.8134V35.004H41.4748V34.8134V32.5321H41.6644C41.95 32.5321 41.95 32.5321 41.95 32.8173V34.8134V35.004H54.8786C55.7348 35.004 56.5899 34.8134 57.0651 34.4331V34.8134V35.004H61.1533C62.0083 35.004 62.8646 34.9089 63.435 34.5284C64.3102 34.0033 64.8619 33.0738 64.9439 31.9651C64.9478 31.9323 64.9525 31.8995 64.9555 31.8665L64.9499 31.8612C64.9535 31.7997 64.956 31.7388 64.956 31.6768ZM35.0106 31.1065H33.1088V31.391V31.9617V32.5322V33.578H29.9841L28.1655 31.4863L28.1592 31.4933L28.0703 31.391L25.9789 33.578H19.8948V26.9235H26.0741L27.7623 28.7726L28.1172 29.1598L28.1653 29.1099L30.162 26.9236H35.2003C36.1782 26.9236 37.2731 27.1649 37.6881 28.1598C37.738 28.3568 37.767 28.5758 37.767 28.8247C37.767 30.7259 36.436 31.1065 35.0106 31.1065ZM44.5171 31.0112C44.707 31.2957 44.8021 31.6766 44.8021 32.2473V33.5778H43.1862V32.7225C43.1862 32.3416 43.1862 31.6766 42.9006 31.391C42.711 31.1065 42.3302 31.1065 41.7603 31.1065H40.0492V33.578H38.4332V26.8283H42.0454C42.8055 26.8283 43.4709 26.8283 43.9471 27.1132C44.422 27.3987 44.8021 27.8741 44.8021 28.6346C44.8021 29.6801 44.137 30.2505 43.6615 30.441C44.137 30.6303 44.422 30.821 44.5171 31.0112ZM51.0768 28.2537H47.3687V29.4897H50.9814V30.8209H47.3687V32.152H51.0768V33.5778H45.7531V26.8282H51.0768V28.2537ZM55.0693 33.578H52.027V32.1521H55.0693C55.3539 32.1521 55.5445 32.1521 55.7351 31.9618C55.8303 31.8665 55.9247 31.6768 55.9247 31.4865C55.9247 31.2959 55.8303 31.1066 55.7351 31.0114C55.6397 30.9163 55.4492 30.8212 55.1642 30.8212C53.643 30.726 51.8368 30.8212 51.8368 28.7299C51.8368 27.7792 52.4072 26.7333 54.1185 26.7333H57.2555V28.3492H54.3087C54.0237 28.3492 53.8332 28.3492 53.6429 28.4443C53.4533 28.5396 53.4533 28.7299 53.4533 28.9198C53.4533 29.2052 53.6429 29.3003 53.8331 29.3947C54.0237 29.4899 54.2136 29.4899 54.4035 29.4899H55.2592C56.1149 29.4899 56.6852 29.6801 57.0654 30.0605C57.3507 30.3458 57.5409 30.8212 57.5409 31.4865C57.5409 32.912 56.6853 33.578 55.0693 33.578ZM63.2449 32.912C62.8651 33.2928 62.1993 33.578 61.2483 33.578H58.2068V32.1521H61.2481C61.5335 32.1521 61.7241 32.1521 61.914 31.9618C62.0087 31.8665 62.1041 31.6768 62.1041 31.4865C62.1041 31.2959 62.0087 31.1066 61.914 31.0114C61.8188 30.9163 61.6289 30.8212 61.3436 30.8212C59.823 30.726 58.0163 30.8212 58.0163 28.7301C58.0163 27.8265 58.5332 27.0103 59.8081 26.7679C59.9605 26.7468 60.1216 26.7333 60.2979 26.7333H63.4354V28.3492H61.3436H60.5833H60.4881C60.2028 28.3492 60.0129 28.3492 59.823 28.4443C59.7273 28.5396 59.6321 28.7299 59.6321 28.9198C59.6321 29.2052 59.7273 29.3003 60.0129 29.3947C60.2028 29.4899 60.393 29.4899 60.5833 29.4899H60.6777H61.4386C61.8541 29.4899 62.1683 29.5412 62.4558 29.6423C62.7191 29.7375 63.5908 30.1275 63.7858 31.1453C63.8027 31.252 63.8152 31.3633 63.8152 31.4865C63.8152 32.057 63.625 32.5322 63.2449 32.912Z" fill="white"/>
</svg>
