<svg width="687" height="478" viewBox="0 0 687 478" fill="none" xmlns="http://www.w3.org/2000/svg">
<path d="M-246 16.0672C-246 7.19354 -239.577 0 -231.654 0H672.147C680.07 0 686.493 7.19354 686.493 16.0672V461.933C686.493 470.806 680.07 478 672.147 478H-231.654C-239.577 478 -246 470.806 -246 461.933V16.0672Z" fill="white"/>
<path d="M-246 12.212C-246 5.46752 -239.58 0 -231.662 0H671.661C679.58 0 686 5.46752 686 12.212V67.1663H-246V12.212Z" fill="#B4B8C2" fill-opacity="0.18"/>
<path d="M-19.814 41.103C-20.5073 41.103 -21.192 41.012 -21.868 40.83C-22.544 40.648 -23.0943 40.401 -23.519 40.089L-22.752 38.36C-22.3013 38.646 -21.8247 38.867 -21.322 39.023C-20.8107 39.1703 -20.2993 39.244 -19.788 39.244C-19.268 39.244 -18.8693 39.1746 -18.592 39.036C-18.3147 38.8886 -18.176 38.685 -18.176 38.425C-18.176 38.191 -18.3017 38.0003 -18.553 37.853C-18.8043 37.697 -19.2767 37.5453 -19.97 37.398C-20.8453 37.2246 -21.5257 37.0123 -22.011 36.761C-22.4963 36.501 -22.8387 36.1976 -23.038 35.851C-23.2287 35.5043 -23.324 35.084 -23.324 34.59C-23.324 34.0266 -23.1637 33.5196 -22.843 33.069C-22.5223 32.6096 -22.0717 32.2543 -21.491 32.003C-20.9103 31.743 -20.2473 31.613 -19.502 31.613C-18.8347 31.613 -18.189 31.7083 -17.565 31.899C-16.9323 32.081 -16.4383 32.3236 -16.083 32.627L-16.837 34.356C-17.2443 34.07 -17.6733 33.8533 -18.124 33.706C-18.5747 33.55 -19.0253 33.472 -19.476 33.472C-19.918 33.472 -20.2733 33.5586 -20.542 33.732C-20.8107 33.8966 -20.945 34.122 -20.945 34.408C-20.945 34.564 -20.8973 34.694 -20.802 34.798C-20.7067 34.902 -20.529 35.006 -20.269 35.11C-20.009 35.2053 -19.619 35.3093 -19.099 35.422C-18.2583 35.604 -17.5997 35.825 -17.123 36.085C-16.6377 36.3363 -16.2953 36.6353 -16.096 36.982C-15.8967 37.32 -15.797 37.7273 -15.797 38.204C-15.797 39.1053 -16.148 39.816 -16.85 40.336C-17.552 40.8473 -18.54 41.103 -19.814 41.103ZM-7.82597 39.075H-11.934L-12.753 40.986H-15.197L-10.868 31.73H-8.94397L-4.60197 40.986H-7.00697L-7.82597 39.075ZM-8.61897 37.242L-9.87997 34.317L-11.141 37.242H-8.61897ZM-3.55476 31.73H-1.11076V39.01H2.80224V40.986H-3.55476V31.73ZM10.797 39.075H6.68904L5.87004 40.986H3.42604L7.75504 31.73H9.67904L14.021 40.986H11.616L10.797 39.075ZM10.004 37.242L8.74304 34.317L7.48204 37.242H10.004ZM23.1153 40.986H20.5283L19.3323 37.905C19.1936 37.5583 18.8686 37.385 18.3573 37.385H17.4733V40.986H15.0683V31.73H19.3713C20.4893 31.73 21.3299 31.9726 21.8933 32.458C22.4566 32.9346 22.7383 33.6193 22.7383 34.512C22.7383 35.136 22.5693 35.6776 22.2313 36.137C21.9019 36.5876 21.4339 36.9083 20.8273 37.099C21.0873 37.151 21.3213 37.2723 21.5293 37.463C21.7373 37.6536 21.9019 37.9093 22.0233 38.23L23.1153 40.986ZM18.9813 35.565C19.5013 35.565 19.8783 35.487 20.1123 35.331C20.3463 35.1663 20.4633 34.915 20.4633 34.577C20.4633 34.2216 20.3463 33.966 20.1123 33.81C19.8869 33.654 19.5099 33.576 18.9813 33.576H17.4473V35.565H18.9813ZM29.3959 37.45V40.986H26.9389V37.437L23.0519 31.73H25.8079L28.1479 35.422L30.5269 31.73H33.3089L29.3959 37.45Z" fill="#B4B8C2" fill-opacity="0.8"/>
<path d="M93.239 41.103C92.2943 41.103 91.471 40.9123 90.769 40.531C90.067 40.141 89.5253 39.5863 89.144 38.867C88.7713 38.1476 88.585 37.307 88.585 36.345C88.585 35.383 88.7757 34.5466 89.157 33.836C89.5383 33.1253 90.0757 32.5793 90.769 32.198C91.471 31.808 92.2943 31.613 93.239 31.613C94.1837 31.613 95.0027 31.808 95.696 32.198C96.398 32.5793 96.9353 33.1253 97.308 33.836C97.6807 34.5466 97.867 35.383 97.867 36.345C97.867 37.307 97.6807 38.1476 97.308 38.867C96.9353 39.5863 96.398 40.141 95.696 40.531C95.0027 40.9123 94.1837 41.103 93.239 41.103ZM93.239 39.244C93.9323 39.244 94.474 38.997 94.864 38.503C95.2627 38.009 95.462 37.2896 95.462 36.345C95.462 35.409 95.2627 34.6983 94.864 34.213C94.474 33.719 93.9323 33.472 93.239 33.472C92.5457 33.472 92.004 33.7146 91.614 34.2C91.224 34.6853 91.029 35.4003 91.029 36.345C91.029 37.2983 91.224 38.022 91.614 38.516C92.004 39.0013 92.5457 39.244 93.239 39.244ZM101.385 33.706H98.6291V31.73H106.611V33.706H103.855V40.986H101.385V33.706ZM116.643 31.73V40.986H114.251V37.242H110.507V40.986H108.115V31.73H110.507V35.331H114.251V31.73H116.643ZM118.829 31.73H125.433V33.602H121.208V35.344H125.16V37.216H121.208V39.114H125.433V40.986H118.829V31.73ZM135.242 40.986H132.655L131.459 37.905C131.321 37.5583 130.996 37.385 130.484 37.385H129.6V40.986H127.195V31.73H131.498C132.616 31.73 133.457 31.9726 134.02 32.458C134.584 32.9346 134.865 33.6193 134.865 34.512C134.865 35.136 134.696 35.6776 134.358 36.137C134.029 36.5876 133.561 36.9083 132.954 37.099C133.214 37.151 133.448 37.2723 133.656 37.463C133.864 37.6536 134.029 37.9093 134.15 38.23L135.242 40.986ZM131.108 35.565C131.628 35.565 132.005 35.487 132.239 35.331C132.473 35.1663 132.59 34.915 132.59 34.577C132.59 34.2216 132.473 33.966 132.239 33.81C132.014 33.654 131.637 33.576 131.108 33.576H129.574V35.565H131.108Z" fill="#B4B8C2" fill-opacity="0.8"/>
<path d="M193.912 33.706H191.156V31.73H199.138V33.706H196.382V40.986H193.912V33.706ZM204.541 41.103C203.597 41.103 202.773 40.9123 202.071 40.531C201.369 40.141 200.828 39.5863 200.446 38.867C200.074 38.1476 199.887 37.307 199.887 36.345C199.887 35.383 200.078 34.5466 200.459 33.836C200.841 33.1253 201.378 32.5793 202.071 32.198C202.773 31.808 203.597 31.613 204.541 31.613C205.486 31.613 206.305 31.808 206.998 32.198C207.7 32.5793 208.238 33.1253 208.61 33.836C208.983 34.5466 209.169 35.383 209.169 36.345C209.169 37.307 208.983 38.1476 208.61 38.867C208.238 39.5863 207.7 40.141 206.998 40.531C206.305 40.9123 205.486 41.103 204.541 41.103ZM204.541 39.244C205.235 39.244 205.776 38.997 206.166 38.503C206.565 38.009 206.764 37.2896 206.764 36.345C206.764 35.409 206.565 34.6983 206.166 34.213C205.776 33.719 205.235 33.472 204.541 33.472C203.848 33.472 203.306 33.7146 202.916 34.2C202.526 34.6853 202.331 35.4003 202.331 36.345C202.331 37.2983 202.526 38.022 202.916 38.516C203.306 39.0013 203.848 39.244 204.541 39.244ZM212.687 33.706H209.931V31.73H217.913V33.706H215.157V40.986H212.687V33.706ZM224.451 39.075H220.343L219.524 40.986H217.08L221.409 31.73H223.333L227.675 40.986H225.27L224.451 39.075ZM223.658 37.242L222.397 34.317L221.136 37.242H223.658ZM228.723 31.73H231.167V39.01H235.08V40.986H228.723V31.73Z" fill="#B4B8C2" fill-opacity="0.8"/>
<path d="M298.062 31.73L293.85 40.986H291.913L287.701 31.73H290.236L292.901 37.944L295.605 31.73H298.062ZM304.403 39.075H300.295L299.476 40.986H297.032L301.361 31.73H303.285L307.627 40.986H305.222L304.403 39.075ZM303.61 37.242L302.349 34.317L301.088 37.242H303.61ZM309.548 33.706H306.792V31.73H314.774V33.706H312.018V40.986H309.548V33.706Z" fill="#B4B8C2" fill-opacity="0.8"/>
<path d="M362.832 31.73H366.615C367.638 31.73 368.517 31.9163 369.254 32.289C369.999 32.653 370.567 33.1816 370.957 33.875C371.356 34.5683 371.555 35.3916 371.555 36.345C371.555 37.307 371.36 38.139 370.97 38.841C370.58 39.5343 370.012 40.0673 369.267 40.44C368.53 40.804 367.646 40.986 366.615 40.986H362.832V31.73ZM366.446 39.036C367.347 39.036 368.019 38.815 368.461 38.373C368.912 37.9223 369.137 37.2463 369.137 36.345C369.137 34.5683 368.24 33.68 366.446 33.68H365.276V39.036H366.446ZM377.577 41.103C376.225 41.103 375.203 40.765 374.509 40.089C373.816 39.4043 373.469 38.4033 373.469 37.086V31.73H375.848V37.177C375.848 37.8443 375.996 38.3556 376.29 38.711C376.594 39.0663 377.023 39.244 377.577 39.244C378.123 39.244 378.544 39.0663 378.838 38.711C379.133 38.347 379.28 37.8356 379.28 37.177V31.73H381.685V37.086C381.685 38.386 381.33 39.3826 380.619 40.076C379.917 40.7606 378.903 41.103 377.577 41.103ZM383.804 31.73H390.408V33.602H386.183V35.344H390.135V37.216H386.183V39.114H390.408V40.986H383.804V31.73ZM396.46 31.73H400.243C401.266 31.73 402.145 31.9163 402.882 32.289C403.627 32.653 404.195 33.1816 404.585 33.875C404.984 34.5683 405.183 35.3916 405.183 36.345C405.183 37.307 404.988 38.139 404.598 38.841C404.208 39.5343 403.64 40.0673 402.895 40.44C402.158 40.804 401.274 40.986 400.243 40.986H396.46V31.73ZM400.074 39.036C400.975 39.036 401.647 38.815 402.089 38.373C402.54 37.9223 402.765 37.2463 402.765 36.345C402.765 34.5683 401.868 33.68 400.074 33.68H398.904V39.036H400.074ZM413.097 39.075H408.989L408.17 40.986H405.726L410.055 31.73H411.979L416.321 40.986H413.916L413.097 39.075ZM412.304 37.242L411.043 34.317L409.782 37.242H412.304ZM418.242 33.706H415.486V31.73H423.468V33.706H420.712V40.986H418.242V33.706ZM424.972 31.73H431.576V33.602H427.351V35.344H431.303V37.216H427.351V39.114H431.576V40.986H424.972V31.73Z" fill="#B4B8C2" fill-opacity="0.8"/>
<path d="M484.059 36.189C484.605 36.345 485.025 36.6223 485.32 37.021C485.615 37.411 485.762 37.8876 485.762 38.451C485.762 38.9623 485.628 39.4086 485.359 39.79C485.09 40.1713 484.705 40.466 484.202 40.674C483.708 40.882 483.123 40.986 482.447 40.986H477.832V31.73H482.33C483.301 31.73 484.072 31.9466 484.644 32.38C485.216 32.8133 485.502 33.3983 485.502 34.135C485.502 34.6116 485.376 35.032 485.125 35.396C484.874 35.76 484.518 36.0243 484.059 36.189ZM480.211 35.357H481.914C482.365 35.357 482.694 35.2876 482.902 35.149C483.11 35.0103 483.214 34.7893 483.214 34.486C483.214 34.174 483.106 33.9443 482.889 33.797C482.681 33.6496 482.356 33.576 481.914 33.576H480.211V35.357ZM482.161 39.14C482.629 39.14 482.963 39.0663 483.162 38.919C483.37 38.7716 483.474 38.5246 483.474 38.178C483.474 37.8226 483.374 37.5713 483.175 37.424C482.976 37.2766 482.638 37.203 482.161 37.203H480.211V39.14H482.161ZM487.48 31.73H489.924V40.986H487.48V31.73ZM492.113 31.73H494.557V39.01H498.47V40.986H492.113V31.73ZM500.162 31.73H502.606V39.01H506.519V40.986H500.162V31.73ZM508.21 31.73H514.814V33.602H510.589V35.344H514.541V37.216H510.589V39.114H514.814V40.986H508.21V31.73ZM516.576 31.73H520.359C521.381 31.73 522.261 31.9163 522.998 32.289C523.743 32.653 524.311 33.1816 524.701 33.875C525.099 34.5683 525.299 35.3916 525.299 36.345C525.299 37.307 525.104 38.139 524.714 38.841C524.324 39.5343 523.756 40.0673 523.011 40.44C522.274 40.804 521.39 40.986 520.359 40.986H516.576V31.73ZM520.19 39.036C521.091 39.036 521.763 38.815 522.205 38.373C522.655 37.9223 522.881 37.2463 522.881 36.345C522.881 34.5683 521.984 33.68 520.19 33.68H519.02V39.036H520.19Z" fill="#B4B8C2" fill-opacity="0.8"/>
<path d="M560.059 447.203C560.605 447.359 561.025 447.636 561.32 448.035C561.615 448.425 561.762 448.902 561.762 449.465C561.762 449.976 561.628 450.423 561.359 450.804C561.09 451.185 560.705 451.48 560.202 451.688C559.708 451.896 559.123 452 558.447 452H553.832V442.744H558.33C559.301 442.744 560.072 442.961 560.644 443.394C561.216 443.827 561.502 444.412 561.502 445.149C561.502 445.626 561.376 446.046 561.125 446.41C560.874 446.774 560.518 447.038 560.059 447.203ZM556.211 446.371H557.914C558.365 446.371 558.694 446.302 558.902 446.163C559.11 446.024 559.214 445.803 559.214 445.5C559.214 445.188 559.106 444.958 558.889 444.811C558.681 444.664 558.356 444.59 557.914 444.59H556.211V446.371ZM558.161 450.154C558.629 450.154 558.963 450.08 559.162 449.933C559.37 449.786 559.474 449.539 559.474 449.192C559.474 448.837 559.374 448.585 559.175 448.438C558.976 448.291 558.638 448.217 558.161 448.217H556.211V450.154H558.161ZM569.745 450.089H565.637L564.818 452H562.374L566.703 442.744H568.627L572.969 452H570.564L569.745 450.089ZM568.952 448.256L567.691 445.331L566.43 448.256H568.952ZM574.017 442.744H576.461V450.024H580.374V452H574.017V442.744ZM588.368 450.089H584.26L583.441 452H580.997L585.326 442.744H587.25L591.592 452H589.187L588.368 450.089ZM587.575 448.256L586.314 445.331L585.053 448.256H587.575ZM600.921 442.744V452H599.114L594.915 446.748V452H592.64V442.744H594.421L598.62 447.97V442.744H600.921ZM607.611 452.117C606.649 452.117 605.808 451.922 605.089 451.532C604.378 451.133 603.828 450.574 603.438 449.855C603.056 449.136 602.866 448.304 602.866 447.359C602.866 446.423 603.056 445.6 603.438 444.889C603.828 444.17 604.378 443.615 605.089 443.225C605.808 442.826 606.649 442.627 607.611 442.627C608.217 442.627 608.802 442.718 609.366 442.9C609.938 443.082 610.397 443.329 610.744 443.641L610.003 445.37C609.249 444.824 608.469 444.551 607.663 444.551C606.917 444.551 606.345 444.789 605.947 445.266C605.548 445.734 605.349 446.432 605.349 447.359C605.349 448.295 605.548 449.001 605.947 449.478C606.345 449.955 606.917 450.193 607.663 450.193C608.469 450.193 609.249 449.92 610.003 449.374L610.744 451.103C610.397 451.415 609.938 451.662 609.366 451.844C608.802 452.026 608.217 452.117 607.611 452.117ZM612.532 442.744H619.136V444.616H614.911V446.358H618.863V448.23H614.911V450.128H619.136V452H612.532V442.744Z" fill="#B4B8C2" fill-opacity="0.8"/>
<path d="M586.832 31.73H591.239C592.296 31.73 593.115 31.9856 593.696 32.497C594.277 32.9996 594.567 33.6843 594.567 34.551C594.567 35.409 594.272 36.0936 593.683 36.605C593.094 37.1163 592.279 37.372 591.239 37.372H589.276V40.986H586.832V31.73ZM590.914 35.552C591.833 35.552 592.292 35.227 592.292 34.577C592.292 34.2476 592.179 34.0006 591.954 33.836C591.737 33.6626 591.391 33.576 590.914 33.576H589.276V35.552H590.914ZM601.501 39.075H597.393L596.574 40.986H594.13L598.459 31.73H600.383L604.725 40.986H602.32L601.501 39.075ZM600.708 37.242L599.447 34.317L598.186 37.242H600.708ZM605.772 31.73H608.216V40.986H605.772V31.73ZM610.406 31.73H614.189C615.211 31.73 616.091 31.9163 616.828 32.289C617.573 32.653 618.141 33.1816 618.531 33.875C618.929 34.5683 619.129 35.3916 619.129 36.345C619.129 37.307 618.934 38.139 618.544 38.841C618.154 39.5343 617.586 40.0673 616.841 40.44C616.104 40.804 615.22 40.986 614.189 40.986H610.406V31.73ZM614.02 39.036C614.921 39.036 615.593 38.815 616.035 38.373C616.485 37.9223 616.711 37.2463 616.711 36.345C616.711 34.5683 615.814 33.68 614.02 33.68H612.85V39.036H614.02Z" fill="#B4B8C2" fill-opacity="0.8"/>
<path d="M-246 369.044H686.493V420.007H-246V369.044Z" fill="#B4B8C2" fill-opacity="0.05"/>
<path d="M-19.9414 113.181C-19.9414 109.784 -17.5215 107.03 -14.5363 107.03H28.0285C31.0137 107.03 33.4336 109.784 33.4336 113.181C33.4336 116.578 31.0137 119.331 28.0285 119.331H-14.5363C-17.5215 119.331 -19.9414 116.578 -19.9414 113.181Z" fill="#B4B8C2"/>
<path d="M119.775 113.181C119.775 109.784 122.118 107.03 125.008 107.03H130.241C133.131 107.03 135.474 109.784 135.474 113.181C135.474 116.578 133.131 119.331 130.241 119.331H125.008C122.118 119.331 119.775 116.578 119.775 113.181Z" fill="#B4B8C2" fill-opacity="0.5"/>
<path d="M185.709 113.181C185.709 109.784 188.108 107.03 191.067 107.03H230.586C233.545 107.03 235.944 109.784 235.944 113.181C235.944 116.578 233.545 119.331 230.586 119.331H191.067C188.108 119.331 185.709 116.578 185.709 113.181Z" fill="#B4B8C2"/>
<path d="M363.104 113.181C363.104 109.784 365.634 107.03 368.755 107.03H413.967C417.088 107.03 419.618 109.784 419.618 113.181C419.618 116.578 417.088 119.331 413.967 119.331H368.755C365.634 119.331 363.104 116.578 363.104 113.181Z" fill="#B4B8C2"/>
<path d="M-29.3604 157.114C-29.3604 153.718 -26.9506 150.964 -23.978 150.964H28.0514C31.024 150.964 33.4338 153.718 33.4338 157.114C33.4338 160.511 31.024 163.265 28.0514 163.265H-23.978C-26.9506 163.265 -29.3604 160.511 -29.3604 157.114Z" fill="#7E9CEA"/>
<path d="M97.7979 157.114C97.7979 153.718 100.208 150.964 103.18 150.964H130.092C133.065 150.964 135.474 153.718 135.474 157.114C135.474 160.511 133.065 163.265 130.092 163.265H103.18C100.208 163.265 97.7979 160.511 97.7979 157.114Z" fill="#7E9CEA"/>
<path d="M185.709 157.114C185.709 153.718 188.108 150.964 191.067 150.964H230.586C233.545 150.964 235.944 153.718 235.944 157.114C235.944 160.511 233.545 163.265 230.586 163.265H191.067C188.108 163.265 185.709 160.511 185.709 157.114Z" fill="#7E9CEA"/>
<path d="M363.104 157.114C363.104 153.718 365.634 150.964 368.755 150.964H413.967C417.088 150.964 419.618 153.718 419.618 157.114C419.618 160.511 417.088 163.265 413.967 163.265H368.755C365.634 163.265 363.104 160.511 363.104 157.114Z" fill="#7E9CEA"/>
<path d="M-8.95215 199.291C-8.95215 195.894 -6.58004 193.14 -3.65389 193.14H28.1356C31.0618 193.14 33.4339 195.894 33.4339 199.291C33.4339 202.688 31.0618 205.442 28.1356 205.442H-3.65389C-6.58004 205.442 -8.95215 202.688 -8.95215 199.291Z" fill="#B4B8C2"/>
<path d="M119.775 199.291C119.775 195.894 122.118 193.14 125.008 193.14H130.241C133.131 193.14 135.474 195.894 135.474 199.291C135.474 202.688 133.131 205.442 130.241 205.442H125.008C122.118 205.442 119.775 202.688 119.775 199.291Z" fill="#B4B8C2" fill-opacity="0.5"/>
<path d="M185.709 199.291C185.709 195.894 188.108 193.14 191.067 193.14H230.586C233.545 193.14 235.944 195.894 235.944 199.291C235.944 202.688 233.545 205.442 230.586 205.442H191.067C188.108 205.442 185.709 202.688 185.709 199.291Z" fill="#B4B8C2"/>
<path d="M363.104 199.291C363.104 195.894 365.634 193.14 368.755 193.14H413.967C417.088 193.14 419.618 195.894 419.618 199.291C419.618 202.688 417.088 205.442 413.967 205.442H368.755C365.634 205.442 363.104 202.688 363.104 199.291Z" fill="#B4B8C2"/>
<path d="M-24.6504 243.225C-24.6504 239.828 -22.2863 237.074 -19.37 237.074H28.1538C31.07 237.074 33.4342 239.828 33.4342 243.225C33.4342 246.622 31.07 249.375 28.1538 249.375H-19.37C-22.2863 249.375 -24.6504 246.622 -24.6504 243.225Z" fill="#B4B8C2"/>
<path d="M119.775 243.225C119.775 239.828 122.118 237.074 125.008 237.074H130.241C133.131 237.074 135.474 239.828 135.474 243.225C135.474 246.622 133.131 249.375 130.241 249.375H125.008C122.118 249.375 119.775 246.622 119.775 243.225Z" fill="#B4B8C2" fill-opacity="0.5"/>
<path d="M185.709 243.225C185.709 239.828 188.108 237.074 191.067 237.074H230.586C233.545 237.074 235.944 239.828 235.944 243.225C235.944 246.622 233.545 249.375 230.586 249.375H191.067C188.108 249.375 185.709 246.622 185.709 243.225Z" fill="#B4B8C2"/>
<path d="M363.104 243.225C363.104 239.828 365.634 237.074 368.755 237.074H413.967C417.088 237.074 419.618 239.828 419.618 243.225C419.618 246.622 417.088 249.375 413.967 249.375H368.755C365.634 249.375 363.104 246.622 363.104 243.225Z" fill="#B4B8C2"/>
<path d="M-19.9414 287.158C-19.9414 283.761 -17.5215 281.008 -14.5363 281.008H28.0285C31.0137 281.008 33.4336 283.761 33.4336 287.158C33.4336 290.555 31.0137 293.309 28.0285 293.309H-14.5363C-17.5215 293.309 -19.9414 290.555 -19.9414 287.158Z" fill="#B4B8C2"/>
<path d="M102.508 286.28C102.508 283.368 104.838 281.008 107.713 281.008H130.269C133.144 281.008 135.475 283.368 135.475 286.28C135.475 289.191 133.144 291.552 130.269 291.552H107.713C104.838 291.552 102.508 289.191 102.508 286.28Z" fill="#B4B8C2"/>
<path d="M185.709 287.158C185.709 283.761 188.108 281.008 191.067 281.008H230.586C233.545 281.008 235.944 283.761 235.944 287.158C235.944 290.555 233.545 293.309 230.586 293.309H191.067C188.108 293.309 185.709 290.555 185.709 287.158Z" fill="#B4B8C2"/>
<path d="M363.104 287.158C363.104 283.761 365.634 281.008 368.755 281.008H413.967C417.088 281.008 419.618 283.761 419.618 287.158C419.618 290.555 417.088 293.309 413.967 293.309H368.755C365.634 293.309 363.104 290.555 363.104 287.158Z" fill="#B4B8C2"/>
<path d="M-24.6504 447.246C-24.6504 443.849 -22.2863 441.096 -19.37 441.096H28.1538C31.07 441.096 33.4342 443.849 33.4342 447.246C33.4342 450.643 31.07 453.397 28.1538 453.397H-19.37C-22.2863 453.397 -24.6504 450.643 -24.6504 447.246Z" fill="#B4B8C2"/>
<path d="M102.508 447.246C102.508 443.849 104.838 441.096 107.713 441.096H130.269C133.144 441.096 135.475 443.849 135.475 447.246C135.475 450.643 133.144 453.397 130.269 453.397H107.713C104.838 453.397 102.508 450.643 102.508 447.246Z" fill="#B4B8C2"/>
<path d="M177.86 447.246C177.86 443.849 180.224 441.096 183.141 441.096H230.664C233.581 441.096 235.945 443.849 235.945 447.246C235.945 450.643 233.581 453.397 230.664 453.397H183.141C180.224 453.397 177.86 450.643 177.86 447.246Z" fill="#B4B8C2"/>
<path d="M-19.9414 329.335C-19.9414 325.938 -17.5215 323.184 -14.5363 323.184H28.0285C31.0137 323.184 33.4336 325.938 33.4336 329.335C33.4336 332.732 31.0137 335.486 28.0285 335.486H-14.5363C-17.5215 335.486 -19.9414 332.732 -19.9414 329.335Z" fill="#B4B8C2"/>
<path d="M102.508 329.335C102.508 325.938 104.838 323.184 107.713 323.184H130.269C133.144 323.184 135.475 325.938 135.475 329.335C135.475 332.732 133.144 335.486 130.269 335.486H107.713C104.838 335.486 102.508 332.732 102.508 329.335Z" fill="#B4B8C2"/>
<path d="M185.709 329.335C185.709 325.938 188.108 323.184 191.067 323.184H230.586C233.545 323.184 235.944 325.938 235.944 329.335C235.944 332.732 233.545 335.486 230.586 335.486H191.067C188.108 335.486 185.709 332.732 185.709 329.335Z" fill="#B4B8C2"/>
<path d="M363.104 329.335C363.104 325.938 365.634 323.184 368.755 323.184H413.967C417.088 323.184 419.618 325.938 419.618 329.335C419.618 332.732 417.088 335.486 413.967 335.486H368.755C365.634 335.486 363.104 332.732 363.104 329.335Z" fill="#B4B8C2"/>
<path fill-rule="evenodd" clip-rule="evenodd" d="M307.77 105.723C308.287 106.323 308.287 107.297 307.77 107.897L299.823 117.124C299.305 117.724 298.467 117.724 297.949 117.124L294.417 113.023C293.9 112.423 293.9 111.449 294.417 110.848C294.935 110.248 295.773 110.248 296.29 110.848L298.886 113.862L305.897 105.723C306.414 105.122 307.253 105.122 307.77 105.723Z" fill="#7E9CEA"/>
<path fill-rule="evenodd" clip-rule="evenodd" d="M510.282 151.35C510.799 151.864 510.799 152.699 510.282 153.214L502.334 161.122C501.817 161.637 500.978 161.637 500.461 161.122L496.929 157.607C496.412 157.092 496.412 156.258 496.929 155.743C497.446 155.228 498.285 155.228 498.802 155.743L501.398 158.326L508.409 151.35C508.926 150.835 509.764 150.835 510.282 151.35Z" fill="#7E9CEA"/>
<path fill-rule="evenodd" clip-rule="evenodd" d="M307.77 151.35C308.287 151.864 308.287 152.699 307.77 153.214L299.823 161.122C299.305 161.637 298.467 161.637 297.949 161.122L294.417 157.607C293.9 157.092 293.9 156.258 294.417 155.743C294.935 155.228 295.773 155.228 296.29 155.743L298.886 158.326L305.897 151.35C306.414 150.835 307.253 150.835 307.77 151.35Z" fill="#7E9CEA"/>
<path fill-rule="evenodd" clip-rule="evenodd" d="M609.182 151.35C609.699 151.864 609.699 152.699 609.182 153.214L601.235 161.122C600.717 161.637 599.879 161.637 599.362 161.122L595.829 157.607C595.312 157.092 595.312 156.258 595.829 155.743C596.347 155.228 597.185 155.228 597.703 155.743L600.298 158.326L607.309 151.35C607.826 150.835 608.665 150.835 609.182 151.35Z" fill="#7E9CEA"/>
<path fill-rule="evenodd" clip-rule="evenodd" d="M510.282 193.591C510.799 194.191 510.799 195.165 510.282 195.765L502.334 204.991C501.817 205.592 500.978 205.592 500.461 204.991L496.929 200.891C496.412 200.29 496.412 199.317 496.929 198.716C497.446 198.116 498.285 198.116 498.802 198.716L501.398 201.729L508.409 193.591C508.926 192.99 509.764 192.99 510.282 193.591Z" fill="#7E9CEA"/>
<path fill-rule="evenodd" clip-rule="evenodd" d="M295.971 193.556C296.466 193.002 297.269 193.002 297.764 193.556L301.094 197.284L304.424 193.556C304.919 193.002 305.722 193.002 306.217 193.556C306.712 194.11 306.712 195.009 306.217 195.563L302.887 199.291L306.217 203.019C306.712 203.573 306.712 204.472 306.217 205.026C305.722 205.58 304.919 205.58 304.424 205.026L301.094 201.298L297.764 205.026C297.269 205.58 296.466 205.58 295.971 205.026C295.476 204.472 295.476 203.573 295.971 203.019L299.301 199.291L295.971 195.563C295.476 195.009 295.476 194.11 295.971 193.556Z" fill="#EA7EB8"/>
<path fill-rule="evenodd" clip-rule="evenodd" d="M597.383 190.1C597.878 189.467 598.681 189.467 599.176 190.1L602.506 194.361L605.836 190.1C606.331 189.467 607.134 189.467 607.629 190.1C608.124 190.734 608.124 191.761 607.629 192.394L604.299 196.655L607.629 200.915C608.124 201.548 608.124 202.575 607.629 203.209C607.134 203.842 606.331 203.842 605.836 203.209L602.506 198.949L599.176 203.209C598.681 203.842 597.878 203.842 597.383 203.209C596.888 202.575 596.888 201.548 597.383 200.915L600.713 196.655L597.383 192.394C596.888 191.761 596.888 190.734 597.383 190.1Z" fill="#EA7EB8"/>
<path fill-rule="evenodd" clip-rule="evenodd" d="M496.912 279.725C497.408 279.092 498.21 279.092 498.706 279.725L502.036 283.986L505.365 279.725C505.861 279.092 506.663 279.092 507.159 279.725C507.654 280.359 507.654 281.386 507.159 282.019L503.829 286.28L507.159 290.54C507.654 291.173 507.654 292.2 507.159 292.834C506.663 293.467 505.861 293.467 505.365 292.834L502.036 288.574L498.706 292.834C498.21 293.467 497.408 293.467 496.912 292.834C496.417 292.2 496.417 291.173 496.912 290.54L500.242 286.28L496.912 282.019C496.417 281.386 496.417 280.359 496.912 279.725Z" fill="#EA7EB8"/>
<path fill-rule="evenodd" clip-rule="evenodd" d="M496.912 107.446C497.408 106.891 498.21 106.891 498.706 107.446L502.036 111.173L505.365 107.446C505.861 106.891 506.663 106.891 507.159 107.446C507.654 108 507.654 108.899 507.159 109.453L503.829 113.181L507.159 116.908C507.654 117.463 507.654 118.361 507.159 118.916C506.663 119.47 505.861 119.47 505.365 118.916L502.036 115.188L498.706 118.916C498.21 119.47 497.408 119.47 496.912 118.916C496.417 118.361 496.417 117.463 496.912 116.908L500.242 113.181L496.912 109.453C496.417 108.899 496.417 108 496.912 107.446Z" fill="#EA7EB8"/>
<path fill-rule="evenodd" clip-rule="evenodd" d="M597.383 107.446C597.878 106.891 598.681 106.891 599.176 107.446L602.506 111.173L605.836 107.446C606.331 106.891 607.134 106.891 607.629 107.446C608.124 108 608.124 108.899 607.629 109.453L604.299 113.181L607.629 116.908C608.124 117.463 608.124 118.361 607.629 118.916C607.134 119.47 606.331 119.47 605.836 118.916L602.506 115.188L599.176 118.916C598.681 119.47 597.878 119.47 597.383 118.916C596.888 118.361 596.888 117.463 597.383 116.908L600.713 113.181L597.383 109.453C596.888 108.899 596.888 108 597.383 107.446Z" fill="#EA7EB8"/>
<path fill-rule="evenodd" clip-rule="evenodd" d="M597.383 279.725C597.878 279.092 598.681 279.092 599.176 279.725L602.506 283.986L605.836 279.725C606.331 279.092 607.134 279.092 607.629 279.725C608.124 280.359 608.124 281.386 607.629 282.019L604.299 286.28L607.629 290.54C608.124 291.173 608.124 292.2 607.629 292.834C607.134 293.467 606.331 293.467 605.836 292.834L602.506 288.574L599.176 292.834C598.681 293.467 597.878 293.467 597.383 292.834C596.888 292.2 596.888 291.173 597.383 290.54L600.713 286.28L597.383 282.019C596.888 281.386 596.888 280.359 597.383 279.725Z" fill="#EA7EB8"/>
<path fill-rule="evenodd" clip-rule="evenodd" d="M510.282 237.524C510.799 238.125 510.799 239.098 510.282 239.699L502.334 248.925C501.817 249.526 500.978 249.526 500.461 248.925L496.929 244.825C496.412 244.224 496.412 243.25 496.929 242.65C497.446 242.049 498.285 242.049 498.802 242.65L501.398 245.663L508.409 237.524C508.926 236.924 509.764 236.924 510.282 237.524Z" fill="#7E9CEA"/>
<path fill-rule="evenodd" clip-rule="evenodd" d="M307.77 237.524C308.287 238.125 308.287 239.098 307.77 239.699L299.823 248.925C299.305 249.526 298.467 249.526 297.949 248.925L294.417 244.825C293.9 244.224 293.9 243.25 294.417 242.65C294.935 242.049 295.773 242.049 296.29 242.65L298.886 245.663L305.897 237.524C306.414 236.924 307.253 236.924 307.77 237.524Z" fill="#7E9CEA"/>
<path fill-rule="evenodd" clip-rule="evenodd" d="M609.182 237.524C609.699 238.125 609.699 239.098 609.182 239.699L601.235 248.925C600.717 249.526 599.879 249.526 599.362 248.925L595.829 244.825C595.312 244.224 595.312 243.25 595.829 242.65C596.347 242.049 597.185 242.049 597.703 242.65L600.298 245.663L607.309 237.524C607.826 236.924 608.665 236.924 609.182 237.524Z" fill="#7E9CEA"/>
<path fill-rule="evenodd" clip-rule="evenodd" d="M307.77 281.394C308.287 281.909 308.287 282.743 307.77 283.258L299.823 291.166C299.305 291.681 298.467 291.681 297.949 291.166L294.417 287.651C293.9 287.136 293.9 286.302 294.417 285.787C294.935 285.273 295.773 285.273 296.29 285.787L298.886 288.37L305.897 281.394C306.414 280.879 307.253 280.879 307.77 281.394Z" fill="#7E9CEA"/>
<path fill-rule="evenodd" clip-rule="evenodd" d="M510.282 327.085C510.799 327.6 510.799 328.434 510.282 328.949L502.334 336.857C501.817 337.372 500.978 337.372 500.461 336.857L496.929 333.342C496.412 332.828 496.412 331.993 496.929 331.478C497.446 330.964 498.285 330.964 498.802 331.478L501.398 334.061L508.409 327.085C508.926 326.57 509.764 326.57 510.282 327.085Z" fill="#7E9CEA"/>
<path fill-rule="evenodd" clip-rule="evenodd" d="M307.77 325.392C308.287 325.993 308.287 326.966 307.77 327.567L299.823 336.793C299.305 337.393 298.467 337.393 297.949 336.793L294.417 332.692C293.9 332.092 293.9 331.118 294.417 330.518C294.935 329.917 295.773 329.917 296.29 330.518L298.886 333.531L305.897 325.392C306.414 324.792 307.253 324.792 307.77 325.392Z" fill="#7E9CEA"/>
<path fill-rule="evenodd" clip-rule="evenodd" d="M609.182 327.085C609.699 327.6 609.699 328.434 609.182 328.949L601.235 336.857C600.717 337.372 599.879 337.372 599.362 336.857L595.829 333.342C595.312 332.828 595.312 331.993 595.829 331.478C596.347 330.964 597.185 330.964 597.703 331.478L600.298 334.061L607.309 327.085C607.826 326.57 608.665 326.57 609.182 327.085Z" fill="#7E9CEA"/>
<path d="M647 156.162C647 157.089 646.328 157.841 645.5 157.841C644.672 157.841 644 157.089 644 156.162C644 155.234 644.672 154.482 645.5 154.482C646.328 154.482 647 155.234 647 156.162Z" fill="#B4B8C2"/>
<path d="M653 156.162C653 157.089 652.328 157.841 651.5 157.841C650.672 157.841 650 157.089 650 156.162C650 155.234 650.672 154.482 651.5 154.482C652.328 154.482 653 155.234 653 156.162Z" fill="#B4B8C2"/>
<path d="M659 156.162C659 157.089 658.328 157.841 657.5 157.841C656.672 157.841 656 157.089 656 156.162C656 155.234 656.672 154.482 657.5 154.482C658.328 154.482 659 155.234 659 156.162Z" fill="#B4B8C2"/>
</svg>
