<svg width="29" height="28" viewBox="0 0 29 28" fill="none" xmlns="http://www.w3.org/2000/svg">
<path d="M14.5 28C22.5081 28 29 25.6297 29 22.7059V18.5H0V22.7059C0 25.6297 6.49187 28 14.5 28Z" fill="#86A7FC"/>
<ellipse cx="14.5" cy="18.5" rx="14.5" ry="4.5" fill="#C5D4FA"/>
<path d="M14.5 20.5C22.5081 20.5 29 18.4853 29 16V11.5H0V16C0 18.4853 6.49187 20.5 14.5 20.5Z" fill="#8FAFFF"/>
<ellipse cx="14.5" cy="11.5" rx="14.5" ry="4.5" fill="#C5D4FA"/>
<path d="M14.5 13.5C22.5081 13.5 29 11.4853 29 9V4.5H0V9C0 11.4853 6.49187 13.5 14.5 13.5Z" fill="#A1BBFE"/>
<ellipse cx="14.5" cy="4.5" rx="14.5" ry="4.5" fill="#C5D4FA"/>
</svg>
