<svg width="16" height="12" viewBox="0 0 16 12" fill="none" xmlns="http://www.w3.org/2000/svg">
<path fill-rule="evenodd" clip-rule="evenodd" d="M9.92268 1.21746C10.1682 1.32183 10.2845 1.61067 10.1827 1.8626L9.7382 1.67362L9.29374 1.48464C9.39563 1.23271 9.67722 1.11309 9.92268 1.21746ZM9.7382 1.67362C9.29374 1.48464 9.29374 1.48464 9.29374 1.48464L5.58575 10.653C5.48386 10.9049 5.60025 11.1937 5.84572 11.2981C6.09119 11.4025 6.37278 11.2828 6.47467 11.0309L10.1827 1.8626C10.1827 1.8626 10.1827 1.8626 9.7382 1.67362ZM4.2592 2.80754C4.44386 3.00353 4.43861 3.31612 4.24747 3.50573L1.8275 5.9063L4.18795 8.47486C4.37021 8.6732 4.36117 8.9857 4.16774 9.17285C3.97431 9.36 3.66975 9.35093 3.48748 9.15259L0.801095 6.22936C0.620433 6.03277 0.627505 5.72357 0.816962 5.53563L3.57874 2.79599C3.76988 2.60638 4.07453 2.61155 4.2592 2.80754ZM11.5998 2.90527C11.7896 2.71427 12.0943 2.71721 12.2803 2.91184L14.9682 5.72404C15.1525 5.91695 15.1514 6.22623 14.9656 6.41794L12.2023 9.26862C12.0148 9.46203 11.7101 9.46299 11.5217 9.27076C11.3334 9.07853 11.3326 8.7659 11.5201 8.57248L13.9481 6.06767L11.5929 3.60352C11.4069 3.40889 11.41 3.09627 11.5998 2.90527Z" fill="white"/>
<path d="M10.1827 1.8626C10.2845 1.61067 10.1682 1.32183 9.92268 1.21746C9.67722 1.11309 9.39563 1.23271 9.29374 1.48464M10.1827 1.8626L9.7382 1.67362M10.1827 1.8626C10.1827 1.8626 10.1827 1.8626 9.7382 1.67362M10.1827 1.8626L6.47467 11.0309C6.37278 11.2828 6.09119 11.4025 5.84572 11.2981C5.60025 11.1937 5.48386 10.9049 5.58575 10.653L9.29374 1.48464M9.7382 1.67362L9.29374 1.48464M9.7382 1.67362C9.29374 1.48464 9.29374 1.48464 9.29374 1.48464M4.24747 3.50573C4.43861 3.31612 4.44386 3.00353 4.2592 2.80754C4.07453 2.61155 3.76988 2.60638 3.57874 2.79599L0.816962 5.53563C0.627505 5.72357 0.620433 6.03277 0.801095 6.22936L3.48748 9.15259C3.66975 9.35093 3.97431 9.36 4.16774 9.17285C4.36117 8.9857 4.37022 8.6732 4.18795 8.47486L1.8275 5.9063L4.24747 3.50573ZM12.2803 2.91184C12.0943 2.71721 11.7896 2.71427 11.5998 2.90527C11.41 3.09627 11.4069 3.40889 11.5929 3.60352L13.9481 6.06767L11.5201 8.57248C11.3326 8.7659 11.3334 9.07853 11.5217 9.27076C11.7101 9.46299 12.0148 9.46203 12.2023 9.26862L14.9656 6.41794C15.1514 6.22623 15.1525 5.91695 14.9682 5.72404L12.2803 2.91184Z" stroke="white" stroke-width="0.2" stroke-linecap="round" stroke-linejoin="round"/>
</svg>
