<svg width="657" height="393" viewBox="0 0 657 393" fill="none" xmlns="http://www.w3.org/2000/svg">
<path opacity="0.1" d="M0 26.7395C0 19.7037 4.36695 14 9.75385 14H624.246C629.633 14 634 19.7037 634 26.7395V380.26C634 387.296 629.633 393 624.246 393H9.75385C4.36695 393 0 387.296 0 380.26V26.7395Z" fill="#3166ED"/>
<path d="M18 12.6738C18 5.67427 22.4014 0 27.8308 0H647.169C652.599 0 657 5.67427 657 12.6738V364.373C657 371.372 652.599 377.047 647.169 377.047H27.8308C22.4014 377.047 18 371.372 18 364.373V12.6738Z" fill="white"/>
<path d="M41.3105 54.0544C41.3105 49.6316 44.9941 46.0463 49.538 46.0463H189.405C193.949 46.0463 197.632 49.6316 197.632 54.0544V64.0644C197.632 68.4872 193.949 72.0725 189.405 72.0725H49.538C44.9941 72.0725 41.3105 68.4872 41.3105 64.0644V54.0544Z" fill="#EFF0F2"/>
<path d="M50.2246 63.0636C50.2246 61.4051 51.6059 60.0606 53.3099 60.0606H111.588C113.292 60.0606 114.673 61.4051 114.673 63.0636C114.673 64.7221 113.292 66.0666 111.588 66.0666H53.3099C51.6059 66.0666 50.2246 64.7221 50.2246 63.0636Z" fill="#C4C4C4"/>
<path d="M50.2246 54.388C50.2246 53.4666 50.992 52.7196 51.9387 52.7196H77.9923C78.939 52.7196 79.7064 53.4666 79.7064 54.388C79.7064 55.3094 78.939 56.0563 77.9923 56.0563H51.9387C50.992 56.0563 50.2246 55.3094 50.2246 54.388Z" fill="#DFDFDF"/>
<path d="M205.863 54.0544C205.863 49.6316 209.547 46.0463 214.091 46.0463H353.958C358.502 46.0463 362.185 49.6316 362.185 54.0544V64.0644C362.185 68.4872 358.502 72.0725 353.958 72.0725H214.091C209.547 72.0725 205.863 68.4872 205.863 64.0644V54.0544Z" fill="#EFF0F2"/>
<path d="M214.088 54.388C214.088 53.4666 214.855 52.7196 215.802 52.7196H236.371C237.317 52.7196 238.085 53.4666 238.085 54.388C238.085 55.3094 237.317 56.0563 236.371 56.0563H215.802C214.855 56.0563 214.088 55.3094 214.088 54.388Z" fill="#DFDFDF"/>
<path d="M214.088 63.0636C214.088 61.4051 215.469 60.0606 217.173 60.0606H276.137C277.841 60.0606 279.222 61.4051 279.222 63.0636C279.222 64.7221 277.841 66.0666 276.137 66.0666H217.173C215.469 66.0666 214.088 64.7221 214.088 63.0636Z" fill="#C4C4C4"/>
<path fill-rule="evenodd" clip-rule="evenodd" d="M374.007 59.063C374.007 58.6945 374.314 58.3957 374.692 58.3957L377.35 58.3957L377.35 55.809C377.35 55.4404 377.657 55.1416 378.036 55.1416C378.414 55.1416 378.721 55.4404 378.721 55.809L378.721 58.3957H381.379C381.757 58.3957 382.064 58.6945 382.064 59.063C382.064 59.4316 381.757 59.7304 381.379 59.7304H378.721L378.721 62.3171C378.721 62.6857 378.414 62.9845 378.036 62.9845C377.657 62.9845 377.35 62.6857 377.35 62.3171L377.35 59.7304L374.692 59.7304C374.314 59.7304 374.007 59.4316 374.007 59.063Z" fill="#3166ED"/>
<path d="M44.9018 104.85C44.2541 104.85 43.6896 104.723 43.2083 104.469C42.727 104.208 42.3557 103.838 42.0942 103.358C41.8387 102.878 41.7109 102.317 41.7109 101.675C41.7109 101.033 41.8417 100.475 42.1031 100.001C42.3646 99.5266 42.733 99.1622 43.2083 98.9077C43.6896 98.6475 44.2541 98.5173 44.9018 98.5173C45.5495 98.5173 46.111 98.6475 46.5864 98.9077C47.0677 99.1622 47.4361 99.5266 47.6916 100.001C47.9471 100.475 48.0749 101.033 48.0749 101.675C48.0749 102.317 47.9471 102.878 47.6916 103.358C47.4361 103.838 47.0677 104.208 46.5864 104.469C46.111 104.723 45.5495 104.85 44.9018 104.85ZM44.9018 103.61C45.3772 103.61 45.7486 103.445 46.016 103.115C46.2893 102.786 46.426 102.306 46.426 101.675C46.426 101.051 46.2893 100.576 46.016 100.252C45.7486 99.9227 45.3772 99.7579 44.9018 99.7579C44.4265 99.7579 44.0551 99.9199 43.7877 100.244C43.5203 100.568 43.3866 101.045 43.3866 101.675C43.3866 102.311 43.5203 102.794 43.7877 103.124C44.0551 103.448 44.4265 103.61 44.9018 103.61Z" fill="#B4B8C2" fill-opacity="0.8"/>
<path d="M55.0867 98.5954V104.772H53.8478L50.9689 101.267V104.772H49.4091V98.5954H50.6302L53.5091 102.083V98.5954H55.0867Z" fill="#B4B8C2" fill-opacity="0.8"/>
<path d="M56.5897 98.5954H58.2653V103.454H60.9482V104.772H56.5897V98.5954Z" fill="#B4B8C2" fill-opacity="0.8"/>
<path d="M62.1078 98.5954H63.7834V104.772H62.1078V98.5954Z" fill="#B4B8C2" fill-opacity="0.8"/>
<path d="M70.9621 98.5954V104.772H69.7232L66.8442 101.267V104.772H65.2845V98.5954H66.5056L69.3845 102.083V98.5954H70.9621Z" fill="#B4B8C2" fill-opacity="0.8"/>
<path d="M72.4651 98.5954H76.9929V99.8447H74.0962V101.007H76.8057V102.256H74.0962V103.523H76.9929V104.772H72.4651V98.5954Z" fill="#B4B8C2" fill-opacity="0.8"/>
<path d="M81.1424 98.5954H84.164C84.8889 98.5954 85.4504 98.766 85.8486 99.1073C86.2467 99.4427 86.4457 99.8996 86.4457 100.478C86.4457 101.051 86.2437 101.507 85.8396 101.849C85.4356 102.19 84.877 102.361 84.164 102.361H82.8181V104.772H81.1424V98.5954ZM83.9412 101.146C84.571 101.146 84.8859 100.929 84.8859 100.495C84.8859 100.276 84.8087 100.111 84.6542 100.001C84.5056 99.8852 84.268 99.8273 83.9412 99.8273H82.8181V101.146H83.9412Z" fill="#B4B8C2" fill-opacity="0.8"/>
<path d="M93.1178 104.772H91.3441L90.5241 102.716C90.429 102.485 90.2062 102.369 89.8556 102.369H89.2495V104.772H87.6006V98.5954H90.5508C91.3174 98.5954 91.8937 98.7574 92.28 99.0812C92.6662 99.3993 92.8593 99.8562 92.8593 100.452C92.8593 100.868 92.7435 101.23 92.5117 101.536C92.2859 101.837 91.9651 102.051 91.5491 102.178C91.7274 102.213 91.8878 102.294 92.0304 102.421C92.173 102.549 92.2859 102.719 92.3691 102.933L93.1178 104.772ZM90.2835 101.155C90.64 101.155 90.8985 101.103 91.0589 100.999C91.2193 100.889 91.2995 100.721 91.2995 100.495C91.2995 100.258 91.2193 100.088 91.0589 99.9835C90.9044 99.8794 90.6459 99.8273 90.2835 99.8273H89.2317V101.155H90.2835Z" fill="#B4B8C2" fill-opacity="0.8"/>
<path d="M94.3199 98.5954H98.8477V99.8447H95.951V101.007H98.6606V102.256H95.951V103.523H98.8477V104.772H94.3199V98.5954Z" fill="#B4B8C2" fill-opacity="0.8"/>
<path d="M102.268 104.85C101.793 104.85 101.323 104.79 100.86 104.668C100.396 104.547 100.019 104.382 99.7279 104.174L100.254 103.02C100.563 103.211 100.89 103.358 101.234 103.462C101.585 103.561 101.935 103.61 102.286 103.61C102.642 103.61 102.916 103.564 103.106 103.471C103.296 103.373 103.391 103.237 103.391 103.063C103.391 102.907 103.305 102.78 103.133 102.682C102.96 102.577 102.637 102.476 102.161 102.378C101.561 102.262 101.095 102.121 100.762 101.953C100.429 101.779 100.194 101.577 100.058 101.346C99.927 101.114 99.8616 100.834 99.8616 100.504C99.8616 100.128 99.9715 99.7897 100.191 99.489C100.411 99.1824 100.72 98.9453 101.118 98.7776C101.516 98.6041 101.971 98.5173 102.482 98.5173C102.94 98.5173 103.382 98.581 103.81 98.7082C104.244 98.8296 104.583 98.9916 104.826 99.194L104.309 100.348C104.03 100.157 103.736 100.012 103.427 99.9141C103.118 99.81 102.809 99.7579 102.5 99.7579C102.197 99.7579 101.953 99.8158 101.769 99.9314C101.585 100.041 101.493 100.192 101.493 100.383C101.493 100.487 101.525 100.573 101.591 100.643C101.656 100.712 101.778 100.782 101.956 100.851C102.134 100.915 102.402 100.984 102.758 101.059C103.335 101.181 103.786 101.328 104.113 101.502C104.446 101.669 104.681 101.869 104.817 102.1C104.954 102.326 105.022 102.598 105.022 102.916C105.022 103.517 104.782 103.992 104.3 104.339C103.819 104.68 103.142 104.85 102.268 104.85Z" fill="#B4B8C2" fill-opacity="0.8"/>
<path d="M106.314 98.5954H110.841V99.8447H107.945V101.007H110.654V102.256H107.945V103.523H110.841V104.772H106.314V98.5954Z" fill="#B4B8C2" fill-opacity="0.8"/>
<path d="M117.727 98.5954V104.772H116.488L113.609 101.267V104.772H112.049V98.5954H113.27L116.149 102.083V98.5954H117.727Z" fill="#B4B8C2" fill-opacity="0.8"/>
<path d="M122.314 104.85C121.654 104.85 121.078 104.72 120.585 104.46C120.097 104.194 119.72 103.821 119.453 103.341C119.191 102.861 119.061 102.306 119.061 101.675C119.061 101.051 119.191 100.501 119.453 100.027C119.72 99.5468 120.097 99.1767 120.585 98.9164C121.078 98.6504 121.654 98.5173 122.314 98.5173C122.73 98.5173 123.131 98.5781 123.517 98.6995C123.909 98.821 124.224 98.9858 124.462 99.194L123.954 100.348C123.437 99.9835 122.902 99.8013 122.349 99.8013C121.838 99.8013 121.446 99.9603 121.173 100.278C120.9 100.591 120.763 101.056 120.763 101.675C120.763 102.3 120.9 102.771 121.173 103.089C121.446 103.407 121.838 103.566 122.349 103.566C122.902 103.566 123.437 103.384 123.954 103.02L124.462 104.174C124.224 104.382 123.909 104.547 123.517 104.668C123.131 104.79 122.73 104.85 122.314 104.85Z" fill="#B4B8C2" fill-opacity="0.8"/>
<path d="M125.688 98.5954H130.216V99.8447H127.319V101.007H130.029V102.256H127.319V103.523H130.216V104.772H125.688V98.5954Z" fill="#B4B8C2" fill-opacity="0.8"/>
<path fill-rule="evenodd" clip-rule="evenodd" d="M477.364 132.801C477.364 132.432 477.671 132.133 478.05 132.133L480.707 132.133L480.707 129.546C480.707 129.178 481.014 128.879 481.393 128.879C481.772 128.879 482.079 129.178 482.079 129.546L482.079 132.133H484.736C485.115 132.133 485.422 132.432 485.422 132.801C485.422 133.169 485.115 133.468 484.736 133.468H482.079L482.079 136.055C482.079 136.423 481.772 136.722 481.393 136.722C481.014 136.722 480.707 136.423 480.707 136.055L480.707 133.468L478.05 133.468C477.671 133.468 477.364 133.169 477.364 132.801Z" fill="#3166ED"/>
<path d="M156.496 127.462C156.496 123.039 160.18 119.454 164.724 119.454H223.001C227.545 119.454 231.229 123.039 231.229 127.462V137.472C231.229 141.895 227.545 145.48 223.001 145.48H164.724C160.18 145.48 156.496 141.895 156.496 137.472V127.462Z" fill="#3B5998"/>
<path d="M182.553 132.467C182.553 130.44 184.16 128.796 186.143 128.796H218.729C220.712 128.796 222.319 130.44 222.319 132.467C222.319 134.494 220.712 136.137 218.729 136.137H186.143C184.16 136.137 182.553 134.494 182.553 132.467Z" fill="white" fill-opacity="0.5"/>
<path d="M168.865 136.804V132.924H167.465V131.382H168.865V130.162C168.865 129.518 169.059 129.021 169.446 128.671C169.834 128.309 170.349 128.129 170.992 128.129C171.513 128.129 171.937 128.151 172.264 128.196V129.569H171.392C171.064 129.569 170.84 129.637 170.719 129.772C170.622 129.885 170.574 130.066 170.574 130.315V131.382H172.119L171.901 132.924H170.574V136.804H168.865Z" fill="white"/>
<path d="M372.469 127.462C372.469 123.039 376.152 119.454 380.696 119.454H457.486C462.03 119.454 465.713 123.039 465.713 127.462V137.472C465.713 141.895 462.03 145.48 457.486 145.48H380.696C376.152 145.48 372.469 141.895 372.469 137.472V127.462Z" fill="#1AB7EA"/>
<path d="M400.58 132.467C400.58 130.44 402.205 128.796 404.21 128.796H451.115C453.119 128.796 454.744 130.44 454.744 132.467C454.744 134.494 453.119 136.137 451.115 136.137H404.21C402.205 136.137 400.58 134.494 400.58 132.467Z" fill="white" fill-opacity="0.5"/>
<path d="M392.345 131.017C392.308 131.764 391.745 132.792 390.656 134.103C389.542 135.47 388.6 136.148 387.829 136.137C387.352 136.137 386.942 135.723 386.599 134.896L386.342 133.965C386.061 132.976 385.859 132.338 385.736 132.051C385.553 131.591 385.357 131.362 385.149 131.362C385.088 131.362 384.874 131.482 384.507 131.724L384.121 131.258L384.653 130.81C385.143 130.396 385.492 130.115 385.7 129.965C386.055 129.712 386.336 129.58 386.544 129.569C387.18 129.511 387.572 129.919 387.719 130.793C387.915 131.907 388.074 132.666 388.196 133.068C388.331 133.54 388.49 133.764 388.673 133.741C388.857 133.718 389.114 133.465 389.444 132.982C389.787 132.465 389.971 132.074 389.995 131.81C390.032 131.453 389.909 131.241 389.628 131.172C389.408 131.114 389.144 131.149 388.839 131.275C389.242 130.034 390.013 129.431 391.151 129.465C391.996 129.488 392.393 130.005 392.345 131.017Z" fill="white"/>
<path d="M240.139 127.462C240.139 123.039 243.822 119.454 248.366 119.454H355.323C359.867 119.454 363.551 123.039 363.551 127.462V137.472C363.551 141.895 359.867 145.48 355.323 145.48H248.366C243.822 145.48 240.139 141.895 240.139 137.472V127.462Z" fill="#E1306C"/>
<path d="M268.938 132.467C268.938 130.44 270.545 128.796 272.527 128.796H344.88C346.862 128.796 348.47 130.44 348.47 132.467C348.47 134.494 346.862 136.137 344.88 136.137H272.527C270.545 136.137 268.938 134.494 268.938 132.467Z" fill="white" fill-opacity="0.5"/>
<path d="M255.572 130.907C255.161 130.907 254.776 131.01 254.418 131.217C254.073 131.411 253.794 131.682 253.582 132.03C253.383 132.366 253.284 132.734 253.284 133.134C253.284 133.534 253.383 133.909 253.582 134.257C253.794 134.593 254.073 134.864 254.418 135.071C254.776 135.264 255.161 135.361 255.572 135.361C255.983 135.361 256.361 135.264 256.706 135.071C257.064 134.864 257.342 134.593 257.541 134.257C257.754 133.909 257.86 133.534 257.86 133.134C257.86 132.734 257.754 132.366 257.541 132.03C257.342 131.682 257.064 131.411 256.706 131.217C256.361 131.01 255.983 130.907 255.572 130.907ZM255.572 134.586C255.161 134.586 254.809 134.444 254.517 134.16C254.226 133.876 254.08 133.534 254.08 133.134C254.08 132.734 254.226 132.392 254.517 132.108C254.809 131.824 255.161 131.682 255.572 131.682C255.983 131.682 256.334 131.824 256.626 132.108C256.918 132.392 257.064 132.734 257.064 133.134C257.064 133.534 256.918 133.876 256.626 134.16C256.334 134.444 255.983 134.586 255.572 134.586ZM258.496 130.81C258.483 130.952 258.423 131.075 258.317 131.178C258.224 131.281 258.105 131.333 257.959 131.333C257.813 131.333 257.687 131.281 257.581 131.178C257.475 131.075 257.422 130.952 257.422 130.81C257.422 130.668 257.475 130.546 257.581 130.442C257.687 130.339 257.813 130.287 257.959 130.287C258.105 130.287 258.231 130.339 258.337 130.442C258.443 130.546 258.496 130.668 258.496 130.81ZM260.008 131.333C259.982 130.959 259.922 130.636 259.829 130.365C259.71 130.042 259.524 129.765 259.272 129.532C259.034 129.287 258.748 129.106 258.417 128.99C258.138 128.9 257.807 128.848 257.422 128.835C257.051 128.809 256.434 128.796 255.572 128.796C254.71 128.796 254.086 128.809 253.702 128.835C253.33 128.848 253.005 128.9 252.727 128.99C252.395 129.106 252.103 129.287 251.851 129.532C251.613 129.765 251.434 130.042 251.314 130.365C251.221 130.636 251.162 130.959 251.135 131.333C251.122 131.695 251.115 132.295 251.115 133.134C251.115 133.973 251.122 134.58 251.135 134.954C251.162 135.316 251.221 135.632 251.314 135.903C251.434 136.226 251.613 136.51 251.851 136.755C252.103 136.988 252.395 137.155 252.727 137.259C253.005 137.362 253.33 137.42 253.702 137.433C254.086 137.459 254.71 137.472 255.572 137.472C256.434 137.472 257.051 137.459 257.422 137.433C257.807 137.42 258.138 137.368 258.417 137.278C258.748 137.162 259.034 136.988 259.272 136.755C259.524 136.51 259.71 136.226 259.829 135.903C259.922 135.632 259.975 135.316 259.989 134.954C260.015 134.58 260.028 133.973 260.028 133.134C260.028 132.295 260.022 131.695 260.008 131.333ZM259.053 135.69C258.894 136.077 258.609 136.355 258.198 136.523C257.986 136.6 257.628 136.652 257.124 136.678C256.845 136.691 256.434 136.697 255.89 136.697H255.253C254.723 136.697 254.312 136.691 254.02 136.678C253.529 136.652 253.171 136.6 252.946 136.523C252.548 136.368 252.263 136.09 252.09 135.69C252.011 135.471 251.957 135.122 251.931 134.645C251.918 134.36 251.911 133.96 251.911 133.444V132.824C251.911 132.308 251.918 131.908 251.931 131.624C251.957 131.133 252.011 130.784 252.09 130.578C252.249 130.178 252.534 129.9 252.946 129.745C253.171 129.668 253.529 129.616 254.02 129.59C254.312 129.577 254.723 129.571 255.253 129.571H255.89C256.421 129.571 256.832 129.577 257.124 129.59C257.628 129.616 257.986 129.668 258.198 129.745C258.609 129.9 258.894 130.178 259.053 130.578C259.133 130.784 259.186 131.133 259.213 131.624C259.226 131.895 259.233 132.295 259.233 132.824V133.444C259.233 133.96 259.226 134.36 259.213 134.645C259.186 135.122 259.133 135.471 259.053 135.69Z" fill="white"/>
<path d="M41.3105 127.462C41.3105 123.039 44.9941 119.454 49.538 119.454H139.355C143.898 119.454 147.582 123.039 147.582 127.462V137.472C147.582 141.895 143.898 145.48 139.355 145.48H49.538C44.9941 145.48 41.3105 141.895 41.3105 137.472V127.462Z" fill="#3166ED"/>
<path fill-rule="evenodd" clip-rule="evenodd" d="M57.3947 129.492C57.6057 129.571 57.7085 129.796 57.6243 129.995L57.2422 129.851L56.8602 129.708C56.9444 129.509 57.1837 129.412 57.3947 129.492ZM57.2422 129.851C56.8602 129.708 56.8602 129.708 56.8602 129.708L53.795 136.941C53.7108 137.139 53.8136 137.365 54.0246 137.444C54.2356 137.523 54.4749 137.427 54.5592 137.228L57.6243 129.995C57.6243 129.995 57.6243 129.995 57.2422 129.851ZM52.5719 130.798C52.7319 130.95 52.731 131.196 52.5698 131.346L50.5286 133.255L52.5755 135.246C52.7335 135.4 52.7293 135.645 52.5661 135.794C52.4029 135.943 52.1425 135.939 51.9844 135.785L49.6549 133.52C49.4983 133.367 49.5008 133.124 49.6606 132.975L51.9901 130.796C52.1513 130.646 52.4118 130.647 52.5719 130.798ZM58.8475 130.798C59.0075 130.647 59.268 130.646 59.4292 130.796L61.7587 132.975C61.9185 133.124 61.9211 133.367 61.7644 133.52L59.4349 135.785C59.2768 135.939 59.0164 135.943 58.8532 135.794C58.69 135.645 58.6858 135.4 58.8439 135.246L60.8907 133.255L58.8495 131.346C58.6883 131.196 58.6874 130.95 58.8475 130.798Z" fill="white"/>
<path d="M70.793 132.467C70.793 130.44 72.3993 128.796 74.3809 128.796H132.339C134.321 128.796 135.927 130.44 135.927 132.467C135.927 134.494 134.321 136.137 132.339 136.137H74.3809C72.3993 136.137 70.793 134.494 70.793 132.467Z" fill="white" fill-opacity="0.5"/>
<path d="M294.188 172.002H298.617V173.278H295.836V174.406H298.439V175.672H295.836V178.179H294.188V172.002Z" fill="#B4B8C2" fill-opacity="0.8"/>
<path d="M302.753 178.257C302.106 178.257 301.541 178.13 301.06 177.876C300.578 177.615 300.207 177.245 299.946 176.765C299.69 176.285 299.562 175.724 299.562 175.082C299.562 174.44 299.693 173.882 299.955 173.408C300.216 172.934 300.584 172.569 301.06 172.315C301.541 172.055 302.106 171.924 302.753 171.924C303.401 171.924 303.962 172.055 304.438 172.315C304.919 172.569 305.288 172.934 305.543 173.408C305.799 173.882 305.926 174.44 305.926 175.082C305.926 175.724 305.799 176.285 305.543 176.765C305.288 177.245 304.919 177.615 304.438 177.876C303.962 178.13 303.401 178.257 302.753 178.257ZM302.753 177.017C303.229 177.017 303.6 176.852 303.867 176.522C304.141 176.193 304.277 175.713 304.277 175.082C304.277 174.458 304.141 173.983 303.867 173.659C303.6 173.33 303.229 173.165 302.753 173.165C302.278 173.165 301.907 173.327 301.639 173.651C301.372 173.975 301.238 174.452 301.238 175.082C301.238 175.718 301.372 176.201 301.639 176.531C301.907 176.855 302.278 177.017 302.753 177.017Z" fill="#B4B8C2" fill-opacity="0.8"/>
<path d="M312.938 172.002V178.179H311.699L308.82 174.675V178.179H307.26V172.002H308.482L311.361 175.49V172.002H312.938Z" fill="#B4B8C2" fill-opacity="0.8"/>
<path d="M315.867 173.321H313.978V172.002H319.45V173.321H317.561V178.179H315.867V173.321Z" fill="#B4B8C2" fill-opacity="0.8"/>
<path d="M322.616 178.257C322.14 178.257 321.671 178.197 321.207 178.075C320.744 177.954 320.367 177.789 320.075 177.581L320.601 176.427C320.91 176.618 321.237 176.765 321.582 176.869C321.932 176.968 322.283 177.017 322.633 177.017C322.99 177.017 323.263 176.971 323.453 176.878C323.644 176.78 323.739 176.644 323.739 176.47C323.739 176.314 323.653 176.187 323.48 176.089C323.308 175.984 322.984 175.883 322.509 175.785C321.909 175.669 321.442 175.528 321.109 175.36C320.777 175.186 320.542 174.984 320.405 174.753C320.274 174.521 320.209 174.241 320.209 173.911C320.209 173.535 320.319 173.197 320.539 172.896C320.759 172.59 321.068 172.352 321.466 172.185C321.864 172.011 322.319 171.924 322.83 171.924C323.287 171.924 323.73 171.988 324.158 172.115C324.591 172.237 324.93 172.399 325.174 172.601L324.657 173.755C324.377 173.564 324.083 173.419 323.774 173.321C323.465 173.217 323.156 173.165 322.847 173.165C322.544 173.165 322.301 173.223 322.117 173.338C321.932 173.448 321.84 173.599 321.84 173.79C321.84 173.894 321.873 173.98 321.938 174.05C322.004 174.119 322.125 174.189 322.304 174.258C322.482 174.322 322.749 174.391 323.106 174.466C323.682 174.588 324.134 174.735 324.461 174.909C324.793 175.076 325.028 175.276 325.165 175.507C325.301 175.733 325.37 176.005 325.37 176.323C325.37 176.924 325.129 177.399 324.648 177.746C324.167 178.087 323.489 178.257 322.616 178.257Z" fill="#B4B8C2" fill-opacity="0.8"/>
<path fill-rule="evenodd" clip-rule="evenodd" d="M591.177 226.228C591.177 225.859 591.484 225.561 591.862 225.561L594.52 225.561L594.52 222.974C594.52 222.605 594.827 222.307 595.205 222.307C595.584 222.307 595.891 222.605 595.891 222.974L595.891 225.561H598.549C598.927 225.561 599.234 225.859 599.234 226.228C599.234 226.597 598.927 226.895 598.549 226.895H595.891L595.891 229.482C595.891 229.851 595.584 230.149 595.205 230.149C594.827 230.149 594.52 229.851 594.52 229.482L594.52 226.895L591.862 226.895C591.484 226.895 591.177 226.597 591.177 226.228Z" fill="#3166ED"/>
<path d="M293.619 199.534C293.619 195.111 297.303 191.526 301.847 191.526H417.031C421.575 191.526 425.259 195.111 425.259 199.534V252.921C425.259 257.344 421.575 260.929 417.031 260.929H301.847C297.303 260.929 293.619 257.344 293.619 252.921V199.534Z" fill="#EFF0F2"/>
<path d="M304.588 223.892C304.588 222.971 305.355 222.224 306.302 222.224H407.088C408.035 222.224 408.802 222.971 408.802 223.892C408.802 224.814 408.035 225.56 407.088 225.56H306.302C305.355 225.56 304.588 224.814 304.588 223.892Z" fill="#DFDFDF"/>
<path d="M304.588 232.568C304.588 231.646 305.355 230.899 306.302 230.899H385.148C386.095 230.899 386.863 231.646 386.863 232.568C386.863 233.489 386.095 234.236 385.148 234.236H306.302C305.355 234.236 304.588 233.489 304.588 232.568Z" fill="#DFDFDF"/>
<path d="M304.588 241.243C304.588 240.322 305.355 239.575 306.302 239.575H394.747C395.694 239.575 396.461 240.322 396.461 241.243C396.461 242.164 395.694 242.911 394.747 242.911H306.302C305.355 242.911 304.588 242.164 304.588 241.243Z" fill="#DFDFDF"/>
<path d="M304.588 249.918C304.588 248.997 305.355 248.25 306.302 248.25H352.924C353.871 248.25 354.638 248.997 354.638 249.918C354.638 250.84 353.871 251.587 352.924 251.587H306.302C305.355 251.587 304.588 250.84 304.588 249.918Z" fill="#DFDFDF"/>
<path d="M305.986 204.399V211.546H307.601V208.463H310.573V211.546H312.188V204.399H310.573V207.142H307.601V204.399H305.986Z" fill="#888888" fill-opacity="0.5"/>
<path d="M317.034 208.403H314.658C314.665 208.303 314.686 208.189 314.72 208.063C314.761 207.936 314.826 207.816 314.915 207.702C315.011 207.589 315.135 207.495 315.286 207.422C315.443 207.342 315.639 207.302 315.872 207.302C316.228 207.302 316.492 207.395 316.664 207.582C316.842 207.769 316.965 208.043 317.034 208.403ZM314.658 209.304H318.494C318.522 208.904 318.487 208.52 318.391 208.153C318.295 207.786 318.138 207.459 317.918 207.172C317.706 206.885 317.432 206.658 317.096 206.491C316.76 206.318 316.365 206.231 315.913 206.231C315.508 206.231 315.138 206.301 314.802 206.441C314.473 206.581 314.189 206.775 313.949 207.022C313.709 207.262 313.523 207.549 313.393 207.882C313.263 208.216 313.198 208.577 313.198 208.964C313.198 209.364 313.26 209.731 313.383 210.065C313.513 210.398 313.695 210.685 313.928 210.926C314.161 211.166 314.446 211.353 314.782 211.486C315.118 211.613 315.495 211.676 315.913 211.676C316.516 211.676 317.03 211.543 317.456 211.276C317.881 211.009 318.196 210.565 318.402 209.945H317.116C317.068 210.105 316.938 210.258 316.725 210.405C316.513 210.545 316.259 210.615 315.964 210.615C315.553 210.615 315.238 210.512 315.018 210.305C314.799 210.098 314.679 209.764 314.658 209.304Z" fill="#888888" fill-opacity="0.5"/>
<path d="M319.402 204.399V211.546H320.862V204.399H319.402Z" fill="#888888" fill-opacity="0.5"/>
<path d="M324.953 211.546L326.753 206.371H325.303L324.182 209.905H324.161L323.04 206.371H321.508L323.328 211.546H324.953Z" fill="#888888" fill-opacity="0.5"/>
<path d="M330.934 208.403H328.558C328.565 208.303 328.586 208.189 328.62 208.063C328.661 207.936 328.726 207.816 328.815 207.702C328.911 207.589 329.035 207.495 329.185 207.422C329.343 207.342 329.539 207.302 329.772 207.302C330.128 207.302 330.392 207.395 330.564 207.582C330.742 207.769 330.865 208.043 330.934 208.403ZM328.558 209.304H332.394C332.422 208.904 332.387 208.52 332.291 208.153C332.195 207.786 332.038 207.459 331.818 207.172C331.606 206.885 331.331 206.658 330.996 206.491C330.66 206.318 330.265 206.231 329.813 206.231C329.408 206.231 329.038 206.301 328.702 206.441C328.373 206.581 328.088 206.775 327.848 207.022C327.609 207.262 327.423 207.549 327.293 207.882C327.163 208.216 327.098 208.577 327.098 208.964C327.098 209.364 327.159 209.731 327.283 210.065C327.413 210.398 327.595 210.685 327.828 210.926C328.061 211.166 328.346 211.353 328.682 211.486C329.017 211.613 329.395 211.676 329.813 211.676C330.416 211.676 330.93 211.543 331.355 211.276C331.781 211.009 332.096 210.565 332.302 209.945H331.016C330.968 210.105 330.838 210.258 330.625 210.405C330.413 210.545 330.159 210.615 329.864 210.615C329.453 210.615 329.137 210.512 328.918 210.305C328.699 210.098 328.579 209.764 328.558 209.304Z" fill="#888888" fill-opacity="0.5"/>
<path d="M335.111 206.371V204.819H333.651V206.371H332.767V207.322H333.651V210.375C333.651 210.635 333.696 210.845 333.785 211.006C333.874 211.166 333.994 211.289 334.145 211.376C334.302 211.463 334.481 211.519 334.68 211.546C334.885 211.58 335.101 211.596 335.327 211.596C335.471 211.596 335.619 211.593 335.77 211.586C335.921 211.58 336.058 211.566 336.181 211.546V210.445C336.112 210.458 336.041 210.468 335.965 210.475C335.89 210.482 335.811 210.485 335.729 210.485C335.482 210.485 335.317 210.445 335.235 210.365C335.153 210.285 335.111 210.125 335.111 209.885V207.322H336.181V206.371H335.111Z" fill="#888888" fill-opacity="0.5"/>
<path d="M338.377 205.57V204.399H336.917V205.57H338.377ZM336.917 206.371V211.546H338.377V206.371H336.917Z" fill="#888888" fill-opacity="0.5"/>
<path d="M343.147 208.193H344.577C344.556 207.859 344.474 207.572 344.33 207.332C344.186 207.085 343.998 206.881 343.764 206.721C343.538 206.554 343.278 206.431 342.983 206.351C342.695 206.271 342.393 206.231 342.078 206.231C341.646 206.231 341.262 206.301 340.926 206.441C340.59 206.581 340.306 206.778 340.072 207.032C339.839 207.279 339.661 207.576 339.538 207.923C339.421 208.263 339.363 208.633 339.363 209.034C339.363 209.421 339.428 209.778 339.558 210.105C339.688 210.425 339.87 210.702 340.103 210.936C340.336 211.169 340.617 211.353 340.947 211.486C341.283 211.613 341.649 211.676 342.047 211.676C342.753 211.676 343.333 211.496 343.785 211.136C344.238 210.775 344.512 210.252 344.608 209.564H343.199C343.151 209.885 343.031 210.141 342.839 210.335C342.654 210.522 342.386 210.615 342.037 210.615C341.81 210.615 341.618 210.565 341.461 210.465C341.303 210.365 341.176 210.238 341.08 210.085C340.991 209.925 340.926 209.748 340.885 209.554C340.844 209.361 340.823 209.17 340.823 208.984C340.823 208.79 340.844 208.597 340.885 208.403C340.926 208.203 340.995 208.023 341.091 207.862C341.193 207.696 341.324 207.562 341.481 207.462C341.639 207.355 341.834 207.302 342.068 207.302C342.691 207.302 343.051 207.599 343.147 208.193Z" fill="#888888" fill-opacity="0.5"/>
<path d="M345.371 207.963C345.392 207.629 345.477 207.352 345.628 207.132C345.779 206.912 345.971 206.735 346.204 206.601C346.437 206.468 346.698 206.374 346.986 206.321C347.281 206.261 347.575 206.231 347.87 206.231C348.138 206.231 348.408 206.251 348.683 206.291C348.957 206.324 349.207 206.394 349.433 206.501C349.66 206.608 349.845 206.758 349.989 206.952C350.133 207.138 350.205 207.389 350.205 207.702V210.395C350.205 210.629 350.218 210.852 350.246 211.066C350.273 211.279 350.321 211.439 350.39 211.546H348.909C348.881 211.466 348.857 211.386 348.837 211.306C348.823 211.219 348.813 211.132 348.806 211.046C348.573 211.279 348.299 211.443 347.983 211.536C347.668 211.63 347.346 211.676 347.017 211.676C346.763 211.676 346.526 211.646 346.307 211.586C346.088 211.526 345.896 211.433 345.731 211.306C345.566 211.179 345.436 211.019 345.34 210.825C345.251 210.632 345.207 210.402 345.207 210.135C345.207 209.841 345.258 209.601 345.361 209.414C345.47 209.221 345.608 209.067 345.772 208.954C345.944 208.84 346.136 208.757 346.348 208.703C346.567 208.643 346.787 208.597 347.006 208.563C347.226 208.53 347.442 208.503 347.654 208.483C347.867 208.463 348.055 208.433 348.22 208.393C348.384 208.353 348.515 208.296 348.611 208.223C348.707 208.143 348.751 208.029 348.744 207.882C348.744 207.729 348.717 207.609 348.662 207.522C348.614 207.429 348.546 207.359 348.456 207.312C348.374 207.259 348.275 207.225 348.158 207.212C348.048 207.192 347.928 207.182 347.798 207.182C347.51 207.182 347.284 207.242 347.119 207.362C346.955 207.482 346.859 207.682 346.831 207.963H345.371ZM348.744 209.014C348.683 209.067 348.604 209.11 348.508 209.144C348.419 209.17 348.319 209.194 348.21 209.214C348.107 209.234 347.997 209.251 347.88 209.264C347.764 209.277 347.647 209.294 347.531 209.314C347.421 209.334 347.311 209.361 347.202 209.394C347.099 209.427 347.006 209.474 346.924 209.534C346.849 209.588 346.787 209.658 346.739 209.744C346.691 209.831 346.667 209.941 346.667 210.075C346.667 210.201 346.691 210.308 346.739 210.395C346.787 210.482 346.852 210.552 346.934 210.605C347.017 210.652 347.113 210.685 347.222 210.705C347.332 210.725 347.445 210.735 347.562 210.735C347.85 210.735 348.072 210.689 348.23 210.595C348.388 210.502 348.504 210.392 348.58 210.265C348.655 210.131 348.7 209.998 348.713 209.864C348.734 209.731 348.744 209.624 348.744 209.544V209.014Z" fill="#888888" fill-opacity="0.5"/>
<path d="M354.355 204.399V211.546H355.867V206.761H355.887L358.942 211.546H360.556V204.399H359.044V209.194H359.024L355.959 204.399H354.355Z" fill="#888888" fill-opacity="0.5"/>
<path d="M365.402 208.403H363.027C363.034 208.303 363.054 208.189 363.088 208.063C363.13 207.936 363.195 207.816 363.284 207.702C363.38 207.589 363.503 207.495 363.654 207.422C363.812 207.342 364.007 207.302 364.24 207.302C364.597 207.302 364.861 207.395 365.032 207.582C365.21 207.769 365.334 208.043 365.402 208.403ZM363.027 209.304H366.863C366.89 208.904 366.856 208.52 366.76 208.153C366.664 207.786 366.506 207.459 366.287 207.172C366.074 206.885 365.8 206.658 365.464 206.491C365.128 206.318 364.734 206.231 364.281 206.231C363.877 206.231 363.507 206.301 363.171 206.441C362.842 206.581 362.557 206.775 362.317 207.022C362.077 207.262 361.892 207.549 361.762 207.882C361.631 208.216 361.566 208.577 361.566 208.964C361.566 209.364 361.628 209.731 361.751 210.065C361.882 210.398 362.063 210.685 362.297 210.926C362.53 211.166 362.814 211.353 363.15 211.486C363.486 211.613 363.863 211.676 364.281 211.676C364.885 211.676 365.399 211.543 365.824 211.276C366.249 211.009 366.565 210.565 366.77 209.945H365.485C365.437 210.105 365.306 210.258 365.094 210.405C364.881 210.545 364.628 210.615 364.333 210.615C363.921 210.615 363.606 210.512 363.387 210.305C363.167 210.098 363.047 209.764 363.027 209.304Z" fill="#888888" fill-opacity="0.5"/>
<path d="M372.717 211.546V206.371H371.256V209.084C371.256 209.611 371.167 209.991 370.989 210.225C370.811 210.452 370.523 210.565 370.125 210.565C369.775 210.565 369.532 210.462 369.395 210.255C369.258 210.041 369.189 209.721 369.189 209.294V206.371H367.729V209.554C367.729 209.875 367.756 210.168 367.811 210.435C367.873 210.695 367.976 210.919 368.12 211.106C368.264 211.286 368.459 211.426 368.706 211.526C368.96 211.626 369.282 211.676 369.673 211.676C369.981 211.676 370.283 211.61 370.578 211.476C370.872 211.343 371.112 211.126 371.298 210.825H371.328V211.546H372.717Z" fill="#888888" fill-opacity="0.5"/>
<path d="M377.404 208.403H375.028C375.035 208.303 375.056 208.189 375.09 208.063C375.131 207.936 375.196 207.816 375.286 207.702C375.382 207.589 375.505 207.495 375.656 207.422C375.813 207.342 376.009 207.302 376.242 207.302C376.599 207.302 376.862 207.395 377.034 207.582C377.212 207.769 377.336 208.043 377.404 208.403ZM375.028 209.304H378.865C378.892 208.904 378.858 208.52 378.762 208.153C378.666 207.786 378.508 207.459 378.289 207.172C378.076 206.885 377.802 206.658 377.466 206.491C377.13 206.318 376.736 206.231 376.283 206.231C375.879 206.231 375.508 206.301 375.172 206.441C374.843 206.581 374.559 206.775 374.319 207.022C374.079 207.262 373.894 207.549 373.763 207.882C373.633 208.216 373.568 208.577 373.568 208.964C373.568 209.364 373.63 209.731 373.753 210.065C373.883 210.398 374.065 210.685 374.298 210.926C374.531 211.166 374.816 211.353 375.152 211.486C375.488 211.613 375.865 211.676 376.283 211.676C376.886 211.676 377.401 211.543 377.826 211.276C378.251 211.009 378.566 210.565 378.772 209.945H377.486C377.438 210.105 377.308 210.258 377.096 210.405C376.883 210.545 376.629 210.615 376.335 210.615C375.923 210.615 375.608 210.512 375.388 210.305C375.169 210.098 375.049 209.764 375.028 209.304Z" fill="#888888" fill-opacity="0.5"/>
<path d="M441.713 199.534C441.713 195.111 445.396 191.526 449.94 191.526H565.125C569.669 191.526 573.352 195.111 573.352 199.534V252.921C573.352 257.344 569.669 260.929 565.125 260.929H449.94C445.396 260.929 441.713 257.344 441.713 252.921V199.534Z" fill="#EFF0F2"/>
<path d="M452.68 223.892C452.68 222.971 453.447 222.224 454.394 222.224H555.18C556.127 222.224 556.894 222.971 556.894 223.892C556.894 224.814 556.127 225.56 555.18 225.56H454.394C453.447 225.56 452.68 224.814 452.68 223.892Z" fill="#DFDFDF"/>
<path d="M452.68 232.568C452.68 231.646 453.447 230.899 454.394 230.899H533.24C534.187 230.899 534.954 231.646 534.954 232.568C534.954 233.489 534.187 234.236 533.24 234.236H454.394C453.447 234.236 452.68 233.489 452.68 232.568Z" fill="#DFDFDF"/>
<path d="M452.68 241.243C452.68 240.322 453.447 239.575 454.394 239.575H542.839C543.786 239.575 544.553 240.322 544.553 241.243C544.553 242.164 543.786 242.911 542.839 242.911H454.394C453.447 242.911 452.68 242.164 452.68 241.243Z" fill="#DFDFDF"/>
<path d="M452.68 249.918C452.68 248.997 453.447 248.25 454.394 248.25H501.016C501.963 248.25 502.73 248.997 502.73 249.918C502.73 250.84 501.963 251.587 501.016 251.587H454.394C453.447 251.587 452.68 250.84 452.68 249.918Z" fill="#DFDFDF"/>
<path d="M453.979 210.879L454.575 203.772H455.984L457.424 207.285L457.784 208.326H457.804C457.935 207.913 458.055 207.565 458.164 207.285L459.604 203.772H461.013L461.609 210.879H460.283L459.985 206.905C459.971 206.765 459.964 206.605 459.964 206.424C459.964 206.237 459.967 206.087 459.974 205.974V205.804H459.954C459.796 206.264 459.662 206.631 459.553 206.905L458.37 209.658H457.218L456.035 206.905L455.634 205.794H455.614C455.634 206.221 455.631 206.591 455.603 206.905L455.305 210.879H453.979Z" fill="#888888" fill-opacity="0.5"/>
<path d="M462.818 209.057V205.774H464.124V208.797C464.124 209.137 464.182 209.397 464.299 209.578C464.422 209.751 464.634 209.838 464.936 209.838C465.389 209.838 465.745 209.671 466.006 209.337C466.273 209.004 466.407 208.597 466.407 208.116V205.774H467.703V210.879H466.448V210.278L466.479 209.928H466.458C466.321 210.215 466.088 210.465 465.759 210.679C465.43 210.892 465.056 210.999 464.638 210.999C463.424 210.999 462.818 210.352 462.818 209.057Z" fill="#888888" fill-opacity="0.5"/>
<path d="M468.694 210.248L469.28 209.407C469.699 209.781 470.196 209.968 470.772 209.968C471.005 209.968 471.183 209.925 471.306 209.838C471.437 209.744 471.502 209.618 471.502 209.457C471.502 209.311 471.413 209.184 471.235 209.077C471.056 208.97 470.84 208.873 470.587 208.787C470.333 208.7 470.076 208.6 469.815 208.486C469.562 208.366 469.346 208.196 469.167 207.976C468.989 207.756 468.9 207.492 468.9 207.185C468.9 206.705 469.089 206.331 469.466 206.064C469.85 205.79 470.329 205.654 470.905 205.654C471.632 205.654 472.222 205.847 472.674 206.234L472.191 207.125C472.04 206.998 471.838 206.895 471.584 206.815C471.337 206.728 471.097 206.685 470.864 206.685C470.377 206.685 470.134 206.848 470.134 207.175C470.134 207.322 470.223 207.449 470.401 207.555C470.58 207.662 470.796 207.759 471.049 207.846C471.31 207.933 471.567 208.033 471.821 208.146C472.074 208.253 472.29 208.416 472.469 208.637C472.647 208.857 472.736 209.12 472.736 209.427C472.736 209.881 472.554 210.258 472.191 210.559C471.828 210.852 471.348 210.999 470.751 210.999C469.915 210.999 469.229 210.749 468.694 210.248Z" fill="#888888" fill-opacity="0.5"/>
<path d="M473.497 208.326C473.497 207.539 473.744 206.898 474.238 206.404C474.738 205.904 475.383 205.654 476.171 205.654C476.898 205.654 477.467 205.884 477.879 206.344C478.29 206.798 478.496 207.375 478.496 208.076C478.496 208.189 478.482 208.353 478.454 208.567H474.845C474.886 208.994 475.054 209.327 475.349 209.568C475.643 209.801 476 209.918 476.418 209.918C476.939 209.918 477.44 209.731 477.92 209.357L478.434 210.268C478.173 210.495 477.851 210.675 477.467 210.809C477.09 210.936 476.71 210.999 476.326 210.999C475.482 210.999 474.8 210.742 474.279 210.228C473.758 209.708 473.497 209.074 473.497 208.326ZM474.875 207.696H477.189C477.183 207.362 477.08 207.098 476.881 206.905C476.689 206.711 476.442 206.615 476.14 206.615C475.811 206.615 475.534 206.715 475.307 206.915C475.081 207.108 474.937 207.369 474.875 207.696Z" fill="#888888" fill-opacity="0.5"/>
<path d="M480.095 210.248C479.54 209.741 479.262 209.1 479.262 208.326C479.262 207.552 479.54 206.915 480.095 206.414C480.651 205.907 481.329 205.654 482.132 205.654C482.941 205.654 483.623 205.907 484.178 206.414C484.74 206.915 485.021 207.552 485.021 208.326C485.021 209.1 484.744 209.741 484.188 210.248C483.633 210.749 482.951 210.999 482.142 210.999C481.333 210.999 480.651 210.749 480.095 210.248ZM480.589 208.326C480.589 208.793 480.736 209.177 481.031 209.477C481.333 209.771 481.703 209.918 482.142 209.918C482.581 209.918 482.951 209.771 483.253 209.477C483.554 209.177 483.705 208.793 483.705 208.326C483.705 207.866 483.551 207.485 483.242 207.185C482.941 206.885 482.574 206.735 482.142 206.735C481.71 206.735 481.343 206.885 481.041 207.185C480.74 207.485 480.589 207.866 480.589 208.326Z" fill="#888888" fill-opacity="0.5"/>
<path d="M488.331 210.028L489.051 209.057C489.291 209.264 489.572 209.441 489.894 209.588C490.223 209.734 490.545 209.808 490.861 209.808C491.19 209.808 491.45 209.734 491.642 209.588C491.834 209.434 491.93 209.237 491.93 208.997C491.93 208.75 491.814 208.536 491.581 208.356C491.348 208.176 491.063 208.019 490.727 207.886C490.398 207.752 490.065 207.606 489.73 207.445C489.394 207.285 489.109 207.058 488.876 206.765C488.643 206.471 488.526 206.121 488.526 205.714C488.526 205.1 488.759 204.603 489.226 204.222C489.699 203.842 490.295 203.652 491.015 203.652C491.872 203.652 492.585 203.905 493.154 204.412L492.568 205.463C492.362 205.283 492.112 205.136 491.817 205.023C491.529 204.903 491.245 204.843 490.964 204.843C490.628 204.843 490.357 204.916 490.151 205.063C489.952 205.21 489.853 205.407 489.853 205.654C489.853 205.894 489.969 206.101 490.203 206.274C490.436 206.448 490.717 206.598 491.046 206.725C491.382 206.851 491.718 206.995 492.054 207.155C492.39 207.309 492.674 207.532 492.907 207.826C493.14 208.119 493.257 208.476 493.257 208.897C493.257 209.497 493.041 209.998 492.609 210.398C492.177 210.799 491.584 210.999 490.83 210.999C490.364 210.999 489.911 210.916 489.472 210.749C489.034 210.582 488.653 210.342 488.331 210.028Z" fill="#888888" fill-opacity="0.5"/>
<path d="M493.994 209.467C493.994 209.107 494.093 208.8 494.292 208.546C494.498 208.293 494.765 208.109 495.094 207.996C495.43 207.876 495.752 207.792 496.061 207.746C496.376 207.699 496.705 207.676 497.048 207.676H497.275V207.606C497.275 207.005 496.945 206.705 496.287 206.705C495.807 206.705 495.32 206.868 494.827 207.195L494.343 206.284C494.57 206.111 494.875 205.964 495.259 205.844C495.643 205.717 496.023 205.654 496.4 205.654C497.086 205.654 497.621 205.834 498.005 206.194C498.389 206.548 498.581 207.045 498.581 207.686V210.879H497.367V210.448L497.398 210.078H497.377C497.213 210.352 496.983 210.575 496.688 210.749C496.393 210.916 496.071 210.999 495.722 210.999C495.235 210.999 494.823 210.859 494.487 210.579C494.158 210.292 493.994 209.921 493.994 209.467ZM495.29 209.357C495.29 209.537 495.358 209.694 495.495 209.828C495.639 209.961 495.835 210.028 496.082 210.028C496.431 210.028 496.719 209.888 496.945 209.608C497.172 209.327 497.285 209.02 497.285 208.687V208.546H497.059C495.879 208.546 495.29 208.817 495.29 209.357Z" fill="#888888" fill-opacity="0.5"/>
<path d="M499.919 210.879V205.774H501.173V206.374L501.153 206.735H501.173C501.311 206.461 501.537 206.214 501.852 205.994C502.168 205.767 502.562 205.654 503.035 205.654C504.255 205.654 504.865 206.301 504.865 207.596V210.879H503.559V207.856C503.559 207.515 503.498 207.259 503.374 207.085C503.258 206.905 503.045 206.815 502.737 206.815C502.284 206.815 501.917 206.975 501.636 207.295C501.362 207.616 501.225 208.013 501.225 208.486V210.879H499.919Z" fill="#888888" fill-opacity="0.5"/>
<path d="M505.794 210.248L506.38 209.407C506.799 209.781 507.296 209.968 507.872 209.968C508.105 209.968 508.283 209.925 508.406 209.838C508.537 209.744 508.602 209.618 508.602 209.457C508.602 209.311 508.513 209.184 508.334 209.077C508.156 208.97 507.94 208.873 507.687 208.787C507.433 208.7 507.176 208.6 506.915 208.486C506.662 208.366 506.446 208.196 506.267 207.976C506.089 207.756 506 207.492 506 207.185C506 206.705 506.188 206.331 506.566 206.064C506.949 205.79 507.429 205.654 508.005 205.654C508.732 205.654 509.322 205.847 509.774 206.234L509.291 207.125C509.14 206.998 508.938 206.895 508.684 206.815C508.437 206.728 508.197 206.685 507.964 206.685C507.477 206.685 507.234 206.848 507.234 207.175C507.234 207.322 507.323 207.449 507.501 207.555C507.68 207.662 507.896 207.759 508.149 207.846C508.41 207.933 508.667 208.033 508.921 208.146C509.174 208.253 509.39 208.416 509.569 208.637C509.747 208.857 509.836 209.12 509.836 209.427C509.836 209.881 509.654 210.258 509.291 210.559C508.927 210.852 508.448 210.999 507.851 210.999C507.015 210.999 506.329 210.749 505.794 210.248Z" fill="#888888" fill-opacity="0.5"/>
<path fill-rule="evenodd" clip-rule="evenodd" d="M239.454 328.248C239.454 327.879 239.761 327.581 240.14 327.581L242.797 327.581L242.797 324.994C242.797 324.625 243.104 324.326 243.483 324.326C243.861 324.326 244.168 324.625 244.168 324.994L244.168 327.581H246.826C247.205 327.581 247.512 327.879 247.512 328.248C247.512 328.616 247.205 328.915 246.826 328.915H244.168L244.168 331.502C244.168 331.871 243.861 332.169 243.483 332.169C243.104 332.169 242.797 331.871 242.797 331.502L242.797 328.915L240.14 328.915C239.761 328.915 239.454 328.616 239.454 328.248Z" fill="#3166ED"/>
<path d="M44.9642 293.707C44.3046 293.707 43.7283 293.577 43.2351 293.317C42.7478 293.051 42.3705 292.678 42.1031 292.198C41.8417 291.717 41.7109 291.162 41.7109 290.532C41.7109 289.907 41.8417 289.358 42.1031 288.884C42.3705 288.403 42.7478 288.033 43.2351 287.773C43.7283 287.507 44.3046 287.374 44.9642 287.374C45.3802 287.374 45.7812 287.435 46.1675 287.556C46.5597 287.678 46.8746 287.842 47.1123 288.051L46.6042 289.205C46.0873 288.84 45.5525 288.658 44.9999 288.658C44.4889 288.658 44.0967 288.817 43.8233 289.135C43.55 289.447 43.4133 289.913 43.4133 290.532C43.4133 291.156 43.55 291.628 43.8233 291.946C44.0967 292.264 44.4889 292.423 44.9999 292.423C45.5525 292.423 46.0873 292.241 46.6042 291.877L47.1123 293.03C46.8746 293.239 46.5597 293.403 46.1675 293.525C45.7812 293.646 45.3802 293.707 44.9642 293.707Z" fill="#B4B8C2" fill-opacity="0.8"/>
<path d="M51.2207 293.707C50.573 293.707 50.0085 293.58 49.5272 293.325C49.0459 293.065 48.6745 292.695 48.4131 292.215C48.1576 291.735 48.0298 291.174 48.0298 290.532C48.0298 289.89 48.1606 289.332 48.422 288.857C48.6835 288.383 49.0519 288.019 49.5272 287.764C50.0085 287.504 50.573 287.374 51.2207 287.374C51.8684 287.374 52.4299 287.504 52.9053 287.764C53.3866 288.019 53.755 288.383 54.0105 288.857C54.266 289.332 54.3938 289.89 54.3938 290.532C54.3938 291.174 54.266 291.735 54.0105 292.215C53.755 292.695 53.3866 293.065 52.9053 293.325C52.4299 293.58 51.8684 293.707 51.2207 293.707ZM51.2207 292.466C51.6961 292.466 52.0675 292.302 52.3349 291.972C52.6082 291.642 52.7449 291.162 52.7449 290.532C52.7449 289.907 52.6082 289.433 52.3349 289.109C52.0675 288.779 51.6961 288.615 51.2207 288.615C50.7454 288.615 50.374 288.777 50.1066 289.1C49.8392 289.424 49.7055 289.901 49.7055 290.532C49.7055 291.168 49.8392 291.651 50.1066 291.981C50.374 292.305 50.7454 292.466 51.2207 292.466Z" fill="#B4B8C2" fill-opacity="0.8"/>
<path d="M55.728 287.452H57.4036V292.31H60.0865V293.629H55.728V287.452Z" fill="#B4B8C2" fill-opacity="0.8"/>
<path d="M63.8933 293.707C63.2456 293.707 62.6811 293.58 62.1998 293.325C61.7185 293.065 61.3471 292.695 61.0857 292.215C60.8302 291.735 60.7024 291.174 60.7024 290.532C60.7024 289.89 60.8332 289.332 61.0946 288.857C61.3561 288.383 61.7245 288.019 62.1998 287.764C62.6811 287.504 63.2456 287.374 63.8933 287.374C64.541 287.374 65.1025 287.504 65.5779 287.764C66.0592 288.019 66.4276 288.383 66.6831 288.857C66.9386 289.332 67.0664 289.89 67.0664 290.532C67.0664 291.174 66.9386 291.735 66.6831 292.215C66.4276 292.695 66.0592 293.065 65.5779 293.325C65.1025 293.58 64.541 293.707 63.8933 293.707ZM63.8933 292.466C64.3687 292.466 64.7401 292.302 65.0075 291.972C65.2808 291.642 65.4175 291.162 65.4175 290.532C65.4175 289.907 65.2808 289.433 65.0075 289.109C64.7401 288.779 64.3687 288.615 63.8933 288.615C63.418 288.615 63.0466 288.777 62.7792 289.1C62.5118 289.424 62.3781 289.901 62.3781 290.532C62.3781 291.168 62.5118 291.651 62.7792 291.981C63.0466 292.305 63.418 292.466 63.8933 292.466Z" fill="#B4B8C2" fill-opacity="0.8"/>
<path d="M73.9178 293.629H72.1441L71.3241 291.573C71.229 291.342 71.0062 291.226 70.6556 291.226H70.0495V293.629H68.4006V287.452H71.3508C72.1173 287.452 72.6937 287.614 73.0799 287.938C73.4662 288.256 73.6593 288.713 73.6593 289.309C73.6593 289.725 73.5434 290.087 73.3117 290.393C73.0859 290.694 72.765 290.908 72.3491 291.035C72.5273 291.07 72.6878 291.151 72.8304 291.278C72.973 291.405 73.0859 291.576 73.1691 291.79L73.9178 293.629ZM71.0834 290.011C71.4399 290.011 71.6984 289.959 71.8588 289.855C72.0193 289.745 72.0995 289.578 72.0995 289.352C72.0995 289.115 72.0193 288.944 71.8588 288.84C71.7043 288.736 71.4459 288.684 71.0834 288.684H70.0317V290.011H71.0834Z" fill="#B4B8C2" fill-opacity="0.8"/>
<path d="M77.3672 293.707C76.8918 293.707 76.4224 293.646 75.9589 293.525C75.4954 293.403 75.1181 293.239 74.827 293.03L75.3528 291.877C75.6618 292.067 75.9886 292.215 76.3333 292.319C76.6839 292.417 77.0344 292.466 77.385 292.466C77.7415 292.466 78.0149 292.42 78.205 292.328C78.3952 292.229 78.4902 292.093 78.4902 291.92C78.4902 291.764 78.4041 291.637 78.2318 291.538C78.0594 291.434 77.7356 291.333 77.2602 291.235C76.6601 291.119 76.1936 290.977 75.8609 290.809C75.5281 290.636 75.2934 290.434 75.1567 290.202C75.026 289.971 74.9607 289.69 74.9607 289.361C74.9607 288.985 75.0706 288.646 75.2904 288.346C75.5103 288.039 75.8193 287.802 76.2174 287.634C76.6155 287.461 77.0701 287.374 77.5811 287.374C78.0386 287.374 78.4813 287.438 78.9092 287.565C79.3429 287.686 79.6816 287.848 79.9253 288.051L79.4083 289.205C79.129 289.014 78.8349 288.869 78.5259 288.771C78.2169 288.667 77.9079 288.615 77.5989 288.615C77.2959 288.615 77.0523 288.672 76.8681 288.788C76.6839 288.898 76.5918 289.048 76.5918 289.239C76.5918 289.343 76.6244 289.43 76.6898 289.499C76.7552 289.569 76.877 289.638 77.0552 289.708C77.2335 289.771 77.5009 289.841 77.8574 289.916C78.4338 290.037 78.8854 290.185 79.2122 290.358C79.545 290.526 79.7797 290.726 79.9163 290.957C80.053 291.182 80.1213 291.454 80.1213 291.772C80.1213 292.374 79.8807 292.848 79.3994 293.195C78.9181 293.536 78.2407 293.707 77.3672 293.707Z" fill="#B4B8C2" fill-opacity="0.8"/>
<path d="M41.3105 314.984C41.3105 310.561 44.9941 306.976 49.538 306.976H76.2773C80.8212 306.976 84.5047 310.561 84.5047 314.984V341.01C84.5047 345.433 80.8212 349.018 76.2773 349.018H49.538C44.9941 349.018 41.3105 345.433 41.3105 341.01V314.984Z" fill="#3166ED"/>
<path d="M89.3027 314.984C89.3027 310.561 92.9863 306.976 97.5302 306.976H123.584C128.128 306.976 131.811 310.561 131.811 314.984V341.01C131.811 345.433 128.128 349.018 123.584 349.018H97.5302C92.9863 349.018 89.3027 345.433 89.3027 341.01V314.984Z" fill="#E37898"/>
<path d="M137.299 314.984C137.299 310.561 140.982 306.976 145.526 306.976H171.58C176.124 306.976 179.807 310.561 179.807 314.984V341.01C179.807 345.433 176.124 349.018 171.58 349.018H145.526C140.982 349.018 137.299 345.433 137.299 341.01V314.984Z" fill="#1B367C"/>
<path d="M184.607 314.984C184.607 310.561 188.291 306.976 192.835 306.976H219.574C224.118 306.976 227.802 310.561 227.802 314.984V341.01C227.802 345.433 224.118 349.018 219.574 349.018H192.835C188.291 349.018 184.607 345.433 184.607 341.01V314.984Z" fill="#EFF0F2"/>
<path fill-rule="evenodd" clip-rule="evenodd" d="M491.763 328.248C491.763 327.879 492.069 327.581 492.448 327.581L495.106 327.581L495.106 324.994C495.106 324.625 495.413 324.326 495.791 324.326C496.17 324.326 496.477 324.625 496.477 324.994L496.477 327.581H499.135C499.513 327.581 499.82 327.879 499.82 328.248C499.82 328.616 499.513 328.915 499.135 328.915H496.477L496.477 331.502C496.477 331.871 496.17 332.169 495.791 332.169C495.413 332.169 495.106 331.871 495.106 331.502L495.106 328.915L492.448 328.915C492.069 328.915 491.763 328.616 491.763 328.248Z" fill="#3166ED"/>
<path d="M294.188 287.452H295.863V293.629H294.188V287.452Z" fill="#B4B8C2" fill-opacity="0.8"/>
<path d="M300.448 293.707C299.789 293.707 299.212 293.577 298.719 293.316C298.232 293.05 297.854 292.677 297.587 292.197C297.326 291.717 297.195 291.162 297.195 290.532C297.195 289.907 297.326 289.358 297.587 288.883C297.854 288.403 298.232 288.033 298.719 287.773C299.212 287.507 299.789 287.374 300.448 287.374C300.864 287.374 301.265 287.435 301.651 287.556C302.044 287.677 302.358 287.842 302.596 288.051L302.088 289.204C301.571 288.84 301.036 288.658 300.484 288.658C299.973 288.658 299.581 288.817 299.307 289.135C299.034 289.447 298.897 289.913 298.897 290.532C298.897 291.156 299.034 291.628 299.307 291.946C299.581 292.264 299.973 292.423 300.484 292.423C301.036 292.423 301.571 292.241 302.088 291.876L302.596 293.03C302.358 293.238 302.044 293.403 301.651 293.525C301.265 293.646 300.864 293.707 300.448 293.707Z" fill="#B4B8C2" fill-opacity="0.8"/>
<path d="M306.705 293.707C306.057 293.707 305.492 293.58 305.011 293.325C304.53 293.065 304.158 292.695 303.897 292.215C303.641 291.735 303.514 291.174 303.514 290.532C303.514 289.89 303.644 289.332 303.906 288.857C304.167 288.383 304.536 288.019 305.011 287.764C305.492 287.504 306.057 287.374 306.705 287.374C307.352 287.374 307.914 287.504 308.389 287.764C308.87 288.019 309.239 288.383 309.494 288.857C309.75 289.332 309.878 289.89 309.878 290.532C309.878 291.174 309.75 291.735 309.494 292.215C309.239 292.695 308.87 293.065 308.389 293.325C307.914 293.58 307.352 293.707 306.705 293.707ZM306.705 292.466C307.18 292.466 307.551 292.301 307.819 291.972C308.092 291.642 308.229 291.162 308.229 290.532C308.229 289.907 308.092 289.433 307.819 289.109C307.551 288.779 307.18 288.614 306.705 288.614C306.229 288.614 305.858 288.776 305.59 289.1C305.323 289.424 305.189 289.901 305.189 290.532C305.189 291.168 305.323 291.651 305.59 291.98C305.858 292.304 306.229 292.466 306.705 292.466Z" fill="#B4B8C2" fill-opacity="0.8"/>
<path d="M316.889 287.452V293.629H315.651L312.772 290.124V293.629H311.212V287.452H312.433L315.312 290.939V287.452H316.889Z" fill="#B4B8C2" fill-opacity="0.8"/>
<path d="M320.692 293.707C320.217 293.707 319.747 293.646 319.284 293.525C318.82 293.403 318.443 293.238 318.152 293.03L318.678 291.876C318.987 292.067 319.313 292.215 319.658 292.319C320.009 292.417 320.359 292.466 320.71 292.466C321.066 292.466 321.34 292.42 321.53 292.327C321.72 292.229 321.815 292.093 321.815 291.92C321.815 291.764 321.729 291.636 321.557 291.538C321.384 291.434 321.06 291.333 320.585 291.234C319.985 291.119 319.518 290.977 319.186 290.809C318.853 290.636 318.618 290.433 318.482 290.202C318.351 289.971 318.285 289.69 318.285 289.361C318.285 288.985 318.395 288.646 318.615 288.345C318.835 288.039 319.144 287.802 319.542 287.634C319.94 287.461 320.395 287.374 320.906 287.374C321.363 287.374 321.806 287.437 322.234 287.565C322.668 287.686 323.006 287.848 323.25 288.051L322.733 289.204C322.454 289.013 322.16 288.869 321.851 288.771C321.542 288.666 321.233 288.614 320.924 288.614C320.621 288.614 320.377 288.672 320.193 288.788C320.009 288.898 319.917 289.048 319.917 289.239C319.917 289.343 319.949 289.43 320.015 289.499C320.08 289.569 320.202 289.638 320.38 289.708C320.558 289.771 320.826 289.841 321.182 289.916C321.759 290.037 322.21 290.185 322.537 290.358C322.87 290.526 323.105 290.725 323.241 290.957C323.378 291.182 323.446 291.454 323.446 291.772C323.446 292.374 323.206 292.848 322.724 293.195C322.243 293.536 321.566 293.707 320.692 293.707Z" fill="#B4B8C2" fill-opacity="0.8"/>
<path d="M293.619 314.984C293.619 310.561 297.303 306.976 301.847 306.976H328.586C333.13 306.976 336.813 310.561 336.813 314.984V341.01C336.813 345.433 333.13 349.018 328.586 349.018H301.847C297.303 349.018 293.619 345.433 293.619 341.01V314.984Z" fill="#EFF0F2"/>
<g clip-path="url(#clip0)">
<path fill-rule="evenodd" clip-rule="evenodd" d="M315.565 322.324C312.157 322.324 309.395 325.013 309.395 328.33C309.395 331.647 312.157 334.336 315.565 334.336C318.973 334.336 321.736 331.647 321.736 328.33C321.736 325.013 318.973 322.324 315.565 322.324ZM308.023 328.33C308.023 324.276 311.4 320.99 315.565 320.99C319.731 320.99 323.107 324.276 323.107 328.33C323.107 332.385 319.731 335.671 315.565 335.671C311.4 335.671 308.023 332.385 308.023 328.33Z" fill="#BBBCBD"/>
<path fill-rule="evenodd" clip-rule="evenodd" d="M315.565 323.659C315.943 323.659 316.25 323.958 316.25 324.326V327.918L318.614 329.068C318.952 329.233 319.09 329.634 318.92 329.963C318.751 330.293 318.339 330.427 318 330.262L315.258 328.927C315.026 328.814 314.879 328.583 314.879 328.33V324.326C314.879 323.958 315.186 323.659 315.565 323.659Z" fill="#BBBCBD"/>
</g>
<path d="M341.615 314.984C341.615 310.561 345.299 306.976 349.843 306.976H375.896C380.44 306.976 384.124 310.561 384.124 314.984V341.01C384.124 345.433 380.44 349.018 375.896 349.018H349.843C345.299 349.018 341.615 345.433 341.615 341.01V314.984Z" fill="#EFF0F2"/>
<g clip-path="url(#clip1)">
<path fill-rule="evenodd" clip-rule="evenodd" d="M356.699 323.659C356.321 323.659 356.014 323.958 356.014 324.326V332.334C356.014 332.703 356.321 333.002 356.699 333.002H369.041C369.419 333.002 369.726 332.703 369.726 332.334V324.326C369.726 323.958 369.419 323.659 369.041 323.659H356.699ZM354.643 324.326C354.643 323.221 355.563 322.324 356.699 322.324H369.041C370.177 322.324 371.098 323.221 371.098 324.326V332.334C371.098 333.44 370.177 334.336 369.041 334.336H356.699C355.563 334.336 354.643 333.44 354.643 332.334V324.326Z" fill="#BBBCBD"/>
<path fill-rule="evenodd" clip-rule="evenodd" d="M354.643 326.996C354.643 326.627 354.95 326.328 355.328 326.328H370.412C370.791 326.328 371.098 326.627 371.098 326.996C371.098 327.364 370.791 327.663 370.412 327.663H355.328C354.95 327.663 354.643 327.364 354.643 326.996Z" fill="#BBBCBD"/>
</g>
<path d="M389.609 314.984C389.609 310.561 393.293 306.975 397.837 306.975H423.89C428.434 306.975 432.118 310.561 432.118 314.984V341.01C432.118 345.432 428.434 349.018 423.89 349.018H397.837C393.293 349.018 389.609 345.432 389.609 341.01V314.984Z" fill="#EFF0F2"/>
<g clip-path="url(#clip2)">
<path fill-rule="evenodd" clip-rule="evenodd" d="M410.858 322.324C407.45 322.324 404.688 325.013 404.688 328.33C404.688 331.647 407.45 334.336 410.858 334.336C414.266 334.336 417.029 331.647 417.029 328.33C417.029 325.013 414.266 322.324 410.858 322.324ZM403.316 328.33C403.316 324.276 406.693 320.99 410.858 320.99C415.024 320.99 418.4 324.276 418.4 328.33C418.4 332.384 415.024 335.671 410.858 335.671C406.693 335.671 403.316 332.384 403.316 328.33Z" fill="#BBBCBD"/>
<path fill-rule="evenodd" clip-rule="evenodd" d="M403.316 328.33C403.316 327.962 403.623 327.663 404.002 327.663H417.714C418.093 327.663 418.4 327.962 418.4 328.33C418.4 328.699 418.093 328.998 417.714 328.998H404.002C403.623 328.998 403.316 328.699 403.316 328.33Z" fill="#BBBCBD"/>
<path fill-rule="evenodd" clip-rule="evenodd" d="M408.801 328.33C408.848 330.382 409.573 332.358 410.858 333.969C412.142 332.358 412.868 330.382 412.915 328.33C412.868 326.278 412.142 324.303 410.858 322.692C409.573 324.303 408.848 326.278 408.801 328.33ZM410.858 321.657L410.352 321.207C408.525 323.154 407.486 325.68 407.43 328.316C407.43 328.326 407.43 328.335 407.43 328.344C407.486 330.98 408.525 333.507 410.352 335.454C410.481 335.592 410.665 335.671 410.858 335.671C411.05 335.671 411.234 335.592 411.364 335.454C413.191 333.507 414.229 330.98 414.286 328.344C414.286 328.335 414.286 328.326 414.286 328.316C414.229 325.68 413.191 323.154 411.364 321.207L410.858 321.657Z" fill="#BBBCBD"/>
</g>
<path d="M436.914 314.984C436.914 310.561 440.598 306.976 445.142 306.976H471.881C476.425 306.976 480.108 310.561 480.108 314.984V341.01C480.108 345.433 476.425 349.018 471.881 349.018H445.142C440.598 349.018 436.914 345.433 436.914 341.01V314.984Z" fill="#EFF0F2"/>
<path fill-rule="evenodd" clip-rule="evenodd" d="M458.856 322.992C457.402 322.992 456.006 323.554 454.978 324.555C453.949 325.557 453.371 326.914 453.371 328.33V332.334C453.371 332.703 453.064 333.002 452.686 333.002C452.307 333.002 452 332.703 452 332.334V328.33C452 326.56 452.722 324.863 454.008 323.612C455.294 322.36 457.038 321.657 458.856 321.657C460.675 321.657 462.419 322.36 463.704 323.612C464.99 324.863 465.712 326.56 465.712 328.33V332.334C465.712 332.703 465.405 333.002 465.027 333.002C464.648 333.002 464.341 332.703 464.341 332.334V328.33C464.341 326.914 463.763 325.557 462.735 324.555C461.706 323.554 460.311 322.992 458.856 322.992Z" fill="#BBBCBD"/>
<path fill-rule="evenodd" clip-rule="evenodd" d="M452 329.665C452 329.297 452.307 328.998 452.686 328.998H454.742C455.288 328.998 455.811 329.209 456.197 329.584C456.583 329.96 456.799 330.469 456.799 331V333.002C456.799 333.533 456.583 334.042 456.197 334.417C455.811 334.793 455.288 335.004 454.742 335.004H454.057C453.511 335.004 452.988 334.793 452.602 334.417C452.217 334.042 452 333.533 452 333.002V329.665ZM453.371 330.332V333.002C453.371 333.179 453.443 333.349 453.572 333.474C453.701 333.599 453.875 333.669 454.057 333.669H454.742C454.924 333.669 455.099 333.599 455.227 333.474C455.356 333.349 455.428 333.179 455.428 333.002V331C455.428 330.823 455.356 330.653 455.227 330.528C455.099 330.403 454.924 330.332 454.742 330.332H453.371ZM462.97 330.332C462.788 330.332 462.614 330.403 462.485 330.528C462.357 330.653 462.284 330.823 462.284 331V333.002C462.284 333.179 462.357 333.349 462.485 333.474C462.614 333.599 462.788 333.669 462.97 333.669H463.656C463.837 333.669 464.012 333.599 464.14 333.474C464.269 333.349 464.341 333.179 464.341 333.002V330.332H462.97ZM461.516 329.584C461.901 329.209 462.424 328.998 462.97 328.998H465.027C465.405 328.998 465.712 329.297 465.712 329.665V333.002C465.712 333.533 465.496 334.042 465.11 334.417C464.724 334.793 464.201 335.004 463.656 335.004H462.97C462.424 335.004 461.901 334.793 461.516 334.417C461.13 334.042 460.913 333.533 460.913 333.002V331C460.913 330.469 461.13 329.96 461.516 329.584Z" fill="#BBBCBD"/>
<path d="M41.8789 172.002H43.5546V176.861H46.2374V178.179H41.8789V172.002Z" fill="#B4B8C2" fill-opacity="0.8"/>
<path d="M50.0443 178.257C49.3966 178.257 48.8321 178.13 48.3508 177.876C47.8695 177.615 47.4981 177.245 47.2366 176.765C46.9811 176.285 46.8534 175.724 46.8534 175.082C46.8534 174.44 46.9841 173.882 47.2456 173.408C47.507 172.934 47.8754 172.569 48.3508 172.315C48.8321 172.054 49.3966 171.924 50.0443 171.924C50.692 171.924 51.2535 172.054 51.7288 172.315C52.2102 172.569 52.5786 172.934 52.8341 173.408C53.0896 173.882 53.2173 174.44 53.2173 175.082C53.2173 175.724 53.0896 176.285 52.8341 176.765C52.5786 177.245 52.2102 177.615 51.7288 177.876C51.2535 178.13 50.692 178.257 50.0443 178.257ZM50.0443 177.017C50.5196 177.017 50.891 176.852 51.1584 176.522C51.4317 176.193 51.5684 175.713 51.5684 175.082C51.5684 174.458 51.4317 173.983 51.1584 173.659C50.891 173.33 50.5196 173.165 50.0443 173.165C49.5689 173.165 49.1975 173.327 48.9301 173.651C48.6627 173.975 48.529 174.452 48.529 175.082C48.529 175.718 48.6627 176.201 48.9301 176.531C49.1975 176.855 49.5689 177.017 50.0443 177.017Z" fill="#B4B8C2" fill-opacity="0.8"/>
<path d="M60.1846 174.692V177.789C59.8459 177.939 59.4656 178.055 59.0437 178.136C58.6278 178.217 58.1999 178.257 57.7602 178.257C57.0709 178.257 56.4708 178.13 55.9598 177.876C55.4547 177.621 55.0655 177.257 54.7922 176.783C54.5188 176.303 54.3822 175.736 54.3822 175.082C54.3822 174.446 54.5188 173.891 54.7922 173.417C55.0655 172.936 55.4517 172.569 55.9509 172.315C56.45 172.054 57.0323 171.924 57.6978 171.924C58.1554 171.924 58.5862 171.982 58.9902 172.098C59.4002 172.214 59.733 172.373 59.9885 172.575L59.4626 173.729C59.1715 173.544 58.8892 173.411 58.6159 173.33C58.3485 173.243 58.0603 173.2 57.7513 173.2C57.1868 173.2 56.7649 173.356 56.4857 173.668C56.2123 173.975 56.0756 174.446 56.0756 175.082C56.0756 175.742 56.2183 176.23 56.5035 176.548C56.7946 176.866 57.2403 177.025 57.8404 177.025C58.1197 177.025 58.399 176.997 58.6783 176.939V175.794H57.573V174.692H60.1846Z" fill="#B4B8C2" fill-opacity="0.8"/>
<path d="M64.6231 178.257C63.9754 178.257 63.4109 178.13 62.9296 177.876C62.4483 177.615 62.0769 177.245 61.8155 176.765C61.56 176.285 61.4322 175.724 61.4322 175.082C61.4322 174.44 61.5629 173.882 61.8244 173.408C62.0858 172.934 62.4542 172.569 62.9296 172.315C63.4109 172.054 63.9754 171.924 64.6231 171.924C65.2708 171.924 65.8323 172.054 66.3077 172.315C66.789 172.569 67.1574 172.934 67.4129 173.408C67.6684 173.882 67.7962 174.44 67.7962 175.082C67.7962 175.724 67.6684 176.285 67.4129 176.765C67.1574 177.245 66.789 177.615 66.3077 177.876C65.8323 178.13 65.2708 178.257 64.6231 178.257ZM64.6231 177.017C65.0985 177.017 65.4698 176.852 65.7372 176.522C66.0106 176.193 66.1472 175.713 66.1472 175.082C66.1472 174.458 66.0106 173.983 65.7372 173.659C65.4698 173.33 65.0985 173.165 64.6231 173.165C64.1477 173.165 63.7764 173.327 63.509 173.651C63.2416 173.975 63.1079 174.452 63.1079 175.082C63.1079 175.718 63.2416 176.201 63.509 176.531C63.7764 176.855 64.1477 177.017 64.6231 177.017Z" fill="#B4B8C2" fill-opacity="0.8"/>
<path fill-rule="evenodd" clip-rule="evenodd" d="M205.173 226.228C205.173 225.859 205.48 225.56 205.858 225.56L208.516 225.56L208.516 222.974C208.516 222.605 208.823 222.306 209.202 222.306C209.58 222.306 209.887 222.605 209.887 222.974L209.887 225.56H212.545C212.923 225.56 213.23 225.859 213.23 226.228C213.23 226.596 212.923 226.895 212.545 226.895H209.887L209.887 229.482C209.887 229.85 209.58 230.149 209.202 230.149C208.823 230.149 208.516 229.85 208.516 229.482L208.516 226.895L205.858 226.895C205.48 226.895 205.173 226.596 205.173 226.228Z" fill="#3166ED"/>
<path d="M41.3105 199.534C41.3105 195.112 44.9941 191.526 49.538 191.526H104.388C108.932 191.526 112.615 195.112 112.615 199.534V252.921C112.615 257.344 108.932 260.929 104.388 260.929H49.538C44.9941 260.929 41.3105 257.344 41.3105 252.921V199.534Z" fill="#EFF0F2"/>
<path d="M62.5645 212.214H76.7594V215.353C76.7594 221.25 71.848 226.03 65.7894 226.03H62.5645V212.214Z" fill="#1B367C"/>
<path d="M77.8496 237.771C77.8496 231.874 82.761 227.093 88.8196 227.093H92.0445V240.91H77.8496V237.771Z" fill="#1B367C"/>
<path d="M77.8496 212.214H81.0746C87.1331 212.214 92.0445 216.994 92.0445 222.891V226.03H77.8496V212.214Z" fill="#E37898"/>
<path d="M76.7578 240.91L73.5329 240.91C67.4743 240.91 62.5629 236.129 62.5629 230.232L62.5629 227.093L76.7578 227.093L76.7578 240.91Z" fill="#3166ED"/>
<path d="M120.844 199.534C120.844 195.112 124.527 191.526 129.071 191.526H183.921C188.465 191.526 192.148 195.112 192.148 199.534V252.921C192.148 257.344 188.465 260.929 183.921 260.929H129.071C124.527 260.929 120.844 257.344 120.844 252.921V199.534Z" fill="#1B367C"/>
<path d="M142.094 212.214H156.289V215.353C156.289 221.25 151.377 226.03 145.319 226.03H142.094V212.214Z" fill="#C3C6CF"/>
<path d="M157.381 237.77C157.381 231.873 162.292 227.093 168.351 227.093H171.576V240.909H157.381V237.77Z" fill="#C3C6CF"/>
<path d="M157.381 212.214H160.606C166.664 212.214 171.576 216.994 171.576 222.891V226.03H157.381V212.214Z" fill="#C3C6CF"/>
<path d="M156.287 240.909L153.062 240.909C147.004 240.909 142.092 236.129 142.092 230.232L142.092 227.093L156.287 227.093L156.287 240.909Z" fill="#C3C6CF"/>
<path d="M47.173 26.4658C47.173 26.8162 47.1036 27.1123 46.9646 27.354C46.8256 27.5896 46.6413 27.78 46.4117 27.925C46.1821 28.07 45.9192 28.1758 45.6232 28.2422C45.3331 28.3026 45.034 28.3329 44.7259 28.3329H42.1699V21.9158H44.7259C44.9736 21.9158 45.2274 21.943 45.4872 21.9974C45.747 22.0457 45.9827 22.1333 46.1942 22.2602C46.4057 22.3811 46.5779 22.5472 46.7108 22.7587C46.8437 22.9702 46.9102 23.2391 46.9102 23.5654C46.9102 23.9219 46.8135 24.218 46.6202 24.4536C46.4268 24.6832 46.173 24.8494 45.8588 24.9521V24.9703C46.0401 25.0005 46.2093 25.0579 46.3664 25.1425C46.5295 25.221 46.6685 25.3237 46.7833 25.4506C46.9042 25.5775 46.9978 25.7256 47.0643 25.8947C47.1368 26.0639 47.173 26.2543 47.173 26.4658ZM45.4147 23.7739C45.4147 23.5563 45.3301 23.3992 45.1609 23.3025C44.9978 23.1998 44.7531 23.1485 44.4268 23.1485H43.6654V24.4718H44.4993C44.7893 24.4718 45.0129 24.4144 45.17 24.2995C45.3331 24.1787 45.4147 24.0035 45.4147 23.7739ZM45.6232 26.3207C45.6232 26.0549 45.5235 25.8706 45.3241 25.7679C45.1247 25.6651 44.8588 25.6138 44.5265 25.6138H43.6654V27.0821H44.5355C44.6564 27.0821 44.7802 27.073 44.9071 27.0549C45.0401 27.0307 45.1579 26.9914 45.2606 26.9371C45.3694 26.8827 45.457 26.8071 45.5235 26.7105C45.5899 26.6077 45.6232 26.4778 45.6232 26.3207Z" fill="#1B367C"/>
<path d="M51.6327 28.3329L50.246 25.786H49.7203V28.3329H48.1976V21.9158H50.6448C50.9529 21.9158 51.252 21.949 51.5421 22.0155C51.8381 22.0759 52.101 22.1817 52.3306 22.3327C52.5662 22.4838 52.7536 22.6832 52.8925 22.9309C53.0315 23.1787 53.101 23.4868 53.101 23.8554C53.101 24.2905 52.9832 24.656 52.7475 24.9521C52.5119 25.2482 52.1856 25.4597 51.7686 25.5866L53.4454 28.3329H51.6327ZM51.5692 23.8826C51.5692 23.7316 51.536 23.6107 51.4695 23.5201C51.4091 23.4234 51.3276 23.3509 51.2248 23.3025C51.1282 23.2482 51.0164 23.2119 50.8895 23.1938C50.7686 23.1757 50.6508 23.1666 50.536 23.1666H49.7112V24.6621H50.4454C50.5722 24.6621 50.7022 24.653 50.8351 24.6349C50.968 24.6107 51.0889 24.5715 51.1976 24.5171C51.3064 24.4627 51.394 24.3841 51.4605 24.2814C51.533 24.1787 51.5692 24.0458 51.5692 23.8826Z" fill="#1B367C"/>
<path d="M58.5581 28.3329L58.0596 27.073H55.5761L55.1048 28.3329H53.419L56.1109 21.9158H57.6155L60.2802 28.3329H58.5581ZM56.836 23.6288L56.0203 25.8313H57.6336L56.836 23.6288Z" fill="#1B367C"/>
<path d="M64.8892 28.3329L62.306 24.1364H62.2788L62.3151 28.3329H60.8105V21.9158H62.5779L65.152 26.1032H65.1792L65.1429 21.9158H66.6475V28.3329H64.8892Z" fill="#1B367C"/>
<path d="M73.9622 25.1062C73.9622 25.6682 73.8564 26.1546 73.645 26.5655C73.4395 26.9703 73.1646 27.3056 72.8202 27.5715C72.4818 27.8313 72.0981 28.0247 71.6691 28.1516C71.2401 28.2724 70.805 28.3329 70.3639 28.3329H67.9711V21.9158H70.2914C70.7446 21.9158 71.1917 21.9702 71.6328 22.079C72.0739 22.1817 72.4667 22.3569 72.8111 22.6047C73.1555 22.8463 73.4335 23.1726 73.645 23.5835C73.8564 23.9944 73.9622 24.502 73.9622 25.1062ZM72.3489 25.1062C72.3489 24.7437 72.2884 24.4446 72.1676 24.2089C72.0528 23.9672 71.8957 23.7769 71.6963 23.6379C71.5029 23.4929 71.2794 23.3902 71.0256 23.3297C70.7778 23.2693 70.521 23.2391 70.2552 23.2391H69.4848V26.9914H70.2189C70.4969 26.9914 70.7627 26.9612 71.0165 26.9008C71.2763 26.8343 71.5029 26.7286 71.6963 26.5836C71.8957 26.4386 72.0528 26.2452 72.1676 26.0035C72.2884 25.7618 72.3489 25.4627 72.3489 25.1062Z" fill="#1B367C"/>
<path d="M81.4473 28.3329L80.9488 27.073H78.4653L77.994 28.3329H76.3082L79.0001 21.9158H80.5046L83.1693 28.3329H81.4473ZM79.7252 23.6288L78.9094 25.8313H80.5228L79.7252 23.6288Z" fill="#1B367C"/>
<path d="M87.0895 23.5835C86.9566 23.4143 86.7813 23.2814 86.5638 23.1847C86.3523 23.082 86.1469 23.0306 85.9475 23.0306C85.8448 23.0306 85.739 23.0397 85.6303 23.0578C85.5275 23.076 85.4339 23.1122 85.3493 23.1666C85.2647 23.2149 85.1922 23.2814 85.1318 23.366C85.0774 23.4445 85.0502 23.5473 85.0502 23.6742C85.0502 23.7829 85.0713 23.8736 85.1136 23.9461C85.162 24.0186 85.2284 24.082 85.313 24.1364C85.4037 24.1908 85.5094 24.2421 85.6303 24.2905C85.7511 24.3328 85.8871 24.3781 86.0381 24.4264C86.2556 24.4989 86.4822 24.5805 86.7179 24.6712C86.9535 24.7557 87.168 24.8706 87.3614 25.0156C87.5548 25.1606 87.7149 25.3419 87.8418 25.5594C87.9687 25.7709 88.0321 26.0367 88.0321 26.357C88.0321 26.7256 87.9626 27.0458 87.8236 27.3177C87.6907 27.5836 87.5094 27.8041 87.2798 27.9794C87.0502 28.1546 86.7874 28.2845 86.4913 28.3691C86.1952 28.4537 85.8901 28.496 85.5759 28.496C85.1166 28.496 84.6725 28.4175 84.2435 28.2603C83.8145 28.0972 83.458 27.8676 83.174 27.5715L84.1891 26.5383C84.3462 26.7316 84.5517 26.8948 84.8055 27.0277C85.0653 27.1546 85.3221 27.218 85.5759 27.218C85.6907 27.218 85.8025 27.2059 85.9112 27.1818C86.02 27.1576 86.1136 27.1183 86.1922 27.064C86.2768 27.0096 86.3433 26.9371 86.3916 26.8464C86.4399 26.7558 86.4641 26.647 86.4641 26.5201C86.4641 26.3993 86.4339 26.2966 86.3735 26.212C86.313 26.1274 86.2254 26.0518 86.1106 25.9854C86.0019 25.9129 85.8629 25.8494 85.6937 25.795C85.5306 25.7346 85.3432 25.6712 85.1318 25.6047C84.9263 25.5382 84.7239 25.4597 84.5245 25.3691C84.3311 25.2784 84.1559 25.1636 83.9988 25.0246C83.8477 24.8796 83.7239 24.7074 83.6272 24.508C83.5366 24.3026 83.4912 24.0548 83.4912 23.7648C83.4912 23.4083 83.5637 23.1031 83.7088 22.8494C83.8538 22.5956 84.0441 22.3871 84.2798 22.224C84.5154 22.0608 84.7813 21.943 85.0774 21.8705C85.3735 21.7919 85.6726 21.7527 85.9747 21.7527C86.3372 21.7527 86.7058 21.8191 87.0804 21.9521C87.4611 22.085 87.7934 22.2814 88.0774 22.5412L87.0895 23.5835Z" fill="#1B367C"/>
<path d="M92.4445 23.5835C92.3115 23.4143 92.1363 23.2814 91.9188 23.1847C91.7073 23.082 91.5019 23.0306 91.3024 23.0306C91.1997 23.0306 91.094 23.0397 90.9852 23.0578C90.8825 23.076 90.7888 23.1122 90.7042 23.1666C90.6197 23.2149 90.5471 23.2814 90.4867 23.366C90.4323 23.4445 90.4052 23.5473 90.4052 23.6742C90.4052 23.7829 90.4263 23.8736 90.4686 23.9461C90.5169 24.0186 90.5834 24.082 90.668 24.1364C90.7586 24.1908 90.8644 24.2421 90.9852 24.2905C91.1061 24.3328 91.242 24.3781 91.3931 24.4264C91.6106 24.4989 91.8372 24.5805 92.0729 24.6712C92.3085 24.7557 92.523 24.8706 92.7164 25.0156C92.9097 25.1606 93.0699 25.3419 93.1967 25.5594C93.3236 25.7709 93.3871 26.0367 93.3871 26.357C93.3871 26.7256 93.3176 27.0458 93.1786 27.3177C93.0457 27.5836 92.8644 27.8041 92.6348 27.9794C92.4052 28.1546 92.1423 28.2845 91.8463 28.3691C91.5502 28.4537 91.245 28.496 90.9308 28.496C90.4716 28.496 90.0275 28.4175 89.5985 28.2603C89.1695 28.0972 88.813 27.8676 88.529 27.5715L89.5441 26.5383C89.7012 26.7316 89.9067 26.8948 90.1604 27.0277C90.4203 27.1546 90.6771 27.218 90.9308 27.218C91.0456 27.218 91.1574 27.2059 91.2662 27.1818C91.375 27.1576 91.4686 27.1183 91.5472 27.064C91.6318 27.0096 91.6982 26.9371 91.7466 26.8464C91.7949 26.7558 91.8191 26.647 91.8191 26.5201C91.8191 26.3993 91.7889 26.2966 91.7284 26.212C91.668 26.1274 91.5804 26.0518 91.4656 25.9854C91.3568 25.9129 91.2179 25.8494 91.0487 25.795C90.8855 25.7346 90.6982 25.6712 90.4867 25.6047C90.2813 25.5382 90.0789 25.4597 89.8795 25.3691C89.6861 25.2784 89.5109 25.1636 89.3538 25.0246C89.2027 24.8796 89.0788 24.7074 88.9822 24.508C88.8915 24.3026 88.8462 24.0548 88.8462 23.7648C88.8462 23.4083 88.9187 23.1031 89.0637 22.8494C89.2088 22.5956 89.3991 22.3871 89.6347 22.224C89.8704 22.0608 90.1363 21.943 90.4323 21.8705C90.7284 21.7919 91.0275 21.7527 91.3296 21.7527C91.6922 21.7527 92.0608 21.8191 92.4354 21.9521C92.8161 22.085 93.1484 22.2814 93.4324 22.5412L92.4445 23.5835Z" fill="#1B367C"/>
<path d="M94.4096 28.3329V21.9158H98.7239V23.23H95.9051V24.4355H98.5698V25.6772H95.9051V27.0096H98.8871V28.3329H94.4096Z" fill="#1B367C"/>
<path d="M102.661 23.2391V28.3329H101.111V23.2391H99.2988V21.9158H104.474V23.2391H102.661Z" fill="#1B367C"/>
<path d="M108.571 23.5835C108.438 23.4143 108.263 23.2814 108.046 23.1847C107.834 23.082 107.629 23.0306 107.429 23.0306C107.327 23.0306 107.221 23.0397 107.112 23.0578C107.009 23.076 106.916 23.1122 106.831 23.1666C106.747 23.2149 106.674 23.2814 106.614 23.366C106.559 23.4445 106.532 23.5473 106.532 23.6742C106.532 23.7829 106.553 23.8736 106.595 23.9461C106.644 24.0186 106.71 24.082 106.795 24.1364C106.885 24.1908 106.991 24.2421 107.112 24.2905C107.233 24.3328 107.369 24.3781 107.52 24.4264C107.737 24.4989 107.964 24.5805 108.2 24.6712C108.435 24.7557 108.65 24.8706 108.843 25.0156C109.037 25.1606 109.197 25.3419 109.324 25.5594C109.451 25.7709 109.514 26.0367 109.514 26.357C109.514 26.7256 109.444 27.0458 109.305 27.3177C109.173 27.5836 108.991 27.8041 108.762 27.9794C108.532 28.1546 108.269 28.2845 107.973 28.3691C107.677 28.4537 107.372 28.496 107.058 28.496C106.598 28.496 106.154 28.4175 105.725 28.2603C105.296 28.0972 104.94 27.8676 104.656 27.5715L105.671 26.5383C105.828 26.7316 106.034 26.8948 106.287 27.0277C106.547 27.1546 106.804 27.218 107.058 27.218C107.173 27.218 107.284 27.2059 107.393 27.1818C107.502 27.1576 107.595 27.1183 107.674 27.064C107.759 27.0096 107.825 26.9371 107.873 26.8464C107.922 26.7558 107.946 26.647 107.946 26.5201C107.946 26.3993 107.916 26.2966 107.855 26.212C107.795 26.1274 107.707 26.0518 107.592 25.9854C107.484 25.9129 107.345 25.8494 107.176 25.795C107.012 25.7346 106.825 25.6712 106.614 25.6047C106.408 25.5382 106.206 25.4597 106.006 25.3691C105.813 25.2784 105.638 25.1636 105.481 25.0246C105.33 24.8796 105.206 24.7074 105.109 24.508C105.018 24.3026 104.973 24.0548 104.973 23.7648C104.973 23.4083 105.046 23.1031 105.191 22.8494C105.336 22.5956 105.526 22.3871 105.762 22.224C105.997 22.0608 106.263 21.943 106.559 21.8705C106.855 21.7919 107.154 21.7527 107.457 21.7527C107.819 21.7527 108.188 21.8191 108.562 21.9521C108.943 22.085 109.275 22.2814 109.559 22.5412L108.571 23.5835Z" fill="#1B367C"/>
<defs>
<clipPath id="clip0">
<rect width="16.4549" height="16.0161" fill="white" transform="translate(307.338 320.322)"/>
</clipPath>
<clipPath id="clip1">
<rect width="16.4549" height="16.0161" fill="white" transform="translate(354.643 320.322)"/>
</clipPath>
<clipPath id="clip2">
<rect width="16.4549" height="16.0161" fill="white" transform="translate(402.631 320.322)"/>
</clipPath>
</defs>
</svg>
