<svg width="671" height="401" viewBox="0 0 671 401" fill="none" xmlns="http://www.w3.org/2000/svg">
<path opacity="0.1" d="M0 30.8739C0 23.7639 4.47027 18 9.98462 18H639.015C644.53 18 649 23.7639 649 30.8739V388.126C649 395.236 644.53 401 639.015 401H9.98461C4.47026 401 0 395.236 0 388.126V30.8739Z" fill="#3166ED"/>
<path d="M16 12.9748C16 5.80901 20.5059 0 26.0642 0H660.11C665.668 0 670.174 5.80901 670.174 12.9748V373.025C670.174 380.191 665.668 386 660.11 386H26.0642C20.5059 386 16 380.191 16 373.025V12.9748Z" fill="white"/>
<path d="M57.7001 28.0051C57.5745 27.8452 57.4089 27.7196 57.2033 27.6282C57.0035 27.5311 56.8093 27.4826 56.6209 27.4826C56.5238 27.4826 56.4239 27.4912 56.3211 27.5083C56.2241 27.5254 56.1356 27.5597 56.0556 27.6111C55.9757 27.6568 55.9072 27.7196 55.8501 27.7995C55.7987 27.8737 55.773 27.9708 55.773 28.0907C55.773 28.1935 55.793 28.2792 55.8329 28.3477C55.8786 28.4162 55.9414 28.4762 56.0214 28.5275C56.107 28.5789 56.2069 28.6275 56.3211 28.6731C56.4353 28.7131 56.5638 28.7559 56.7066 28.8016C56.9121 28.8701 57.1263 28.9472 57.3489 29.0329C57.5716 29.1128 57.7743 29.2213 57.9571 29.3584C58.1398 29.4954 58.2911 29.6667 58.411 29.8723C58.5309 30.0721 58.5909 30.3234 58.5909 30.626C58.5909 30.9743 58.5252 31.2769 58.3939 31.5339C58.2683 31.7851 58.097 31.9935 57.88 32.1591C57.663 32.3247 57.4146 32.4475 57.1348 32.5274C56.855 32.6074 56.5667 32.6473 56.2697 32.6473C55.8358 32.6473 55.4161 32.5731 55.0107 32.4247C54.6053 32.2705 54.2684 32.0535 54 31.7737L54.9593 30.7973C55.1078 30.98 55.3019 31.1342 55.5417 31.2598C55.7872 31.3797 56.0299 31.4397 56.2697 31.4397C56.3782 31.4397 56.4839 31.4283 56.5867 31.4054C56.6894 31.3826 56.7779 31.3455 56.8522 31.2941C56.9321 31.2427 56.9949 31.1742 57.0406 31.0885C57.0863 31.0029 57.1091 30.9001 57.1091 30.7802C57.1091 30.666 57.0806 30.5689 57.0235 30.4889C56.9664 30.409 56.8836 30.3376 56.7751 30.2748C56.6723 30.2063 56.541 30.1463 56.3811 30.095C56.2269 30.0379 56.0499 29.9779 55.8501 29.9151C55.6559 29.8523 55.4646 29.778 55.2762 29.6924C55.0935 29.6067 54.9279 29.4983 54.7794 29.3669C54.6367 29.2299 54.5196 29.0671 54.4283 28.8787C54.3426 28.6846 54.2998 28.4505 54.2998 28.1764C54.2998 27.8395 54.3683 27.5511 54.5053 27.3113C54.6424 27.0715 54.8222 26.8745 55.0449 26.7203C55.2676 26.5661 55.5189 26.4548 55.7987 26.3863C56.0785 26.312 56.3611 26.2749 56.6466 26.2749C56.9892 26.2749 57.3375 26.3377 57.6916 26.4634C58.0513 26.589 58.3653 26.7746 58.6337 27.0201L57.7001 28.0051Z" fill="#1B367C"/>
<path d="M64.6963 30.2063C64.6963 30.5717 64.6334 30.9058 64.5078 31.2084C64.3879 31.5053 64.2138 31.7623 63.9854 31.9793C63.757 32.1905 63.48 32.3561 63.1545 32.476C62.8348 32.596 62.4779 32.6559 62.0839 32.6559C61.6842 32.6559 61.3245 32.596 61.0047 32.476C60.6849 32.3561 60.4137 32.1905 60.191 31.9793C59.9683 31.7623 59.797 31.5053 59.6771 31.2084C59.5572 30.9058 59.4972 30.5717 59.4972 30.2063V26.4291H60.9533V30.0864C60.9533 30.252 60.9733 30.409 61.0133 30.5575C61.0589 30.7059 61.1246 30.8401 61.2103 30.96C61.3016 31.0742 61.4187 31.1656 61.5614 31.2341C61.7099 31.3026 61.8869 31.3369 62.0925 31.3369C62.298 31.3369 62.4722 31.3026 62.6149 31.2341C62.7634 31.1656 62.8833 31.0742 62.9747 30.96C63.066 30.8401 63.1317 30.7059 63.1717 30.5575C63.2116 30.409 63.2316 30.252 63.2316 30.0864V26.4291H64.6963V30.2063Z" fill="#1B367C"/>
<path d="M71.2681 32.1249C70.9712 32.279 70.6229 32.4047 70.2231 32.5017C69.8292 32.5988 69.398 32.6473 68.9298 32.6473C68.4445 32.6473 67.9962 32.5703 67.5851 32.4161C67.1797 32.2619 66.8285 32.0449 66.5316 31.7651C66.2404 31.4854 66.012 31.1513 65.8464 30.763C65.6808 30.369 65.598 29.9322 65.598 29.4526C65.598 28.9672 65.6808 28.5275 65.8464 28.1335C66.0177 27.7396 66.2518 27.4055 66.5487 27.1314C66.8456 26.8516 67.194 26.6375 67.5937 26.489C67.9934 26.3406 68.4245 26.2664 68.887 26.2664C69.3666 26.2664 69.812 26.3406 70.2231 26.489C70.6343 26.6318 70.9683 26.8259 71.2253 27.0715L70.3002 28.125C70.1575 27.9594 69.969 27.8252 69.7349 27.7224C69.5008 27.6139 69.2353 27.5597 68.9384 27.5597C68.6814 27.5597 68.4445 27.6082 68.2275 27.7053C68.0105 27.7967 67.8221 27.928 67.6622 28.0993C67.5023 28.2649 67.3767 28.4647 67.2853 28.6988C67.1997 28.9272 67.1568 29.1785 67.1568 29.4526C67.1568 29.7324 67.1968 29.9893 67.2768 30.2234C67.3567 30.4575 67.4738 30.6602 67.6279 30.8316C67.7878 30.9971 67.9819 31.1285 68.2104 31.2255C68.4445 31.3169 68.71 31.3626 69.0069 31.3626C69.1782 31.3626 69.3409 31.3512 69.4951 31.3283C69.6493 31.2998 69.792 31.2569 69.9234 31.1998V30.095H68.7671V28.913H71.2681V32.1249Z" fill="#1B367C"/>
<path d="M77.8508 32.1249C77.5539 32.279 77.2056 32.4047 76.8059 32.5017C76.4119 32.5988 75.9808 32.6473 75.5126 32.6473C75.0272 32.6473 74.579 32.5703 74.1678 32.4161C73.7624 32.2619 73.4113 32.0449 73.1143 31.7651C72.8231 31.4854 72.5947 31.1513 72.4291 30.763C72.2635 30.369 72.1807 29.9322 72.1807 29.4526C72.1807 28.9672 72.2635 28.5275 72.4291 28.1335C72.6004 27.7396 72.8345 27.4055 73.1315 27.1314C73.4284 26.8516 73.7767 26.6375 74.1764 26.489C74.5761 26.3406 75.0072 26.2664 75.4697 26.2664C75.9494 26.2664 76.3948 26.3406 76.8059 26.489C77.217 26.6318 77.5511 26.8259 77.808 27.0715L76.883 28.125C76.7402 27.9594 76.5518 27.8252 76.3177 27.7224C76.0836 27.6139 75.818 27.5597 75.5211 27.5597C75.2642 27.5597 75.0272 27.6082 74.8102 27.7053C74.5932 27.7967 74.4048 27.928 74.2449 28.0993C74.085 28.2649 73.9594 28.4647 73.8681 28.6988C73.7824 28.9272 73.7396 29.1785 73.7396 29.4526C73.7396 29.7324 73.7796 29.9893 73.8595 30.2234C73.9394 30.4575 74.0565 30.6602 74.2107 30.8316C74.3705 30.9971 74.5647 31.1285 74.7931 31.2255C75.0272 31.3169 75.2927 31.3626 75.5896 31.3626C75.7609 31.3626 75.9237 31.3512 76.0779 31.3283C76.232 31.2998 76.3748 31.2569 76.5061 31.1998V30.095H75.3498V28.913H77.8508V32.1249Z" fill="#1B367C"/>
<path d="M79.0461 32.4932V26.4291H83.1231V27.671H80.4594V28.8102H82.9775V29.9836H80.4594V31.2427H83.2773V32.4932H79.0461Z" fill="#1B367C"/>
<path d="M87.4521 28.0051C87.3265 27.8452 87.1609 27.7196 86.9553 27.6282C86.7555 27.5311 86.5613 27.4826 86.3729 27.4826C86.2758 27.4826 86.1759 27.4912 86.0731 27.5083C85.976 27.5254 85.8875 27.5597 85.8076 27.6111C85.7277 27.6568 85.6591 27.7196 85.602 27.7995C85.5506 27.8737 85.5249 27.9708 85.5249 28.0907C85.5249 28.1935 85.5449 28.2792 85.5849 28.3477C85.6306 28.4162 85.6934 28.4762 85.7733 28.5275C85.859 28.5789 85.9589 28.6275 86.0731 28.6731C86.1873 28.7131 86.3158 28.7559 86.4585 28.8016C86.6641 28.8701 86.8782 28.9472 87.1009 29.0329C87.3236 29.1128 87.5263 29.2213 87.709 29.3584C87.8918 29.4954 88.0431 29.6667 88.163 29.8723C88.2829 30.0721 88.3429 30.3234 88.3429 30.626C88.3429 30.9743 88.2772 31.2769 88.1459 31.5339C88.0202 31.7851 87.8489 31.9935 87.632 32.1591C87.415 32.3247 87.1666 32.4475 86.8868 32.5274C86.607 32.6074 86.3186 32.6473 86.0217 32.6473C85.5878 32.6473 85.1681 32.5731 84.7627 32.4247C84.3572 32.2705 84.0203 32.0535 83.752 31.7737L84.7113 30.7973C84.8597 30.98 85.0539 31.1342 85.2937 31.2598C85.5392 31.3797 85.7819 31.4397 86.0217 31.4397C86.1302 31.4397 86.2358 31.4283 86.3386 31.4054C86.4414 31.3826 86.5299 31.3455 86.6041 31.2941C86.6841 31.2427 86.7469 31.1742 86.7926 31.0885C86.8383 31.0029 86.8611 30.9001 86.8611 30.7802C86.8611 30.666 86.8326 30.5689 86.7754 30.4889C86.7183 30.409 86.6356 30.3376 86.5271 30.2748C86.4243 30.2063 86.2929 30.1463 86.1331 30.095C85.9789 30.0379 85.8019 29.9779 85.602 29.9151C85.4079 29.8523 85.2166 29.778 85.0282 29.6924C84.8454 29.6067 84.6799 29.4983 84.5314 29.3669C84.3886 29.2299 84.2716 29.0671 84.1802 28.8787C84.0946 28.6846 84.0518 28.4505 84.0518 28.1764C84.0518 27.8395 84.1203 27.5511 84.2573 27.3113C84.3944 27.0715 84.5742 26.8745 84.7969 26.7203C85.0196 26.5661 85.2708 26.4548 85.5506 26.3863C85.8304 26.312 86.1131 26.2749 86.3986 26.2749C86.7412 26.2749 87.0895 26.3377 87.4435 26.4634C87.8033 26.589 88.1173 26.7746 88.3857 27.0201L87.4521 28.0051Z" fill="#1B367C"/>
<path d="M91.7957 27.6796V32.4932H90.331V27.6796H88.618V26.4291H93.5087V27.6796H91.7957Z" fill="#1B367C"/>
<path d="M94.1772 32.4932V26.4291H95.6504V32.4932H94.1772Z" fill="#1B367C"/>
<path d="M103.225 29.4354C103.225 29.9151 103.142 30.3548 102.977 30.7545C102.811 31.1485 102.58 31.4882 102.283 31.7737C101.992 32.0535 101.643 32.2705 101.238 32.4247C100.833 32.5788 100.393 32.6559 99.9189 32.6559C99.445 32.6559 99.0053 32.5788 98.5999 32.4247C98.2002 32.2705 97.8519 32.0535 97.5549 31.7737C97.2637 31.4882 97.0353 31.1485 96.8697 30.7545C96.7042 30.3548 96.6213 29.9151 96.6213 29.4354C96.6213 28.9501 96.7042 28.5133 96.8697 28.125C97.0353 27.731 97.2637 27.3969 97.5549 27.1229C97.8519 26.8488 98.2002 26.6375 98.5999 26.489C99.0053 26.3406 99.445 26.2664 99.9189 26.2664C100.393 26.2664 100.833 26.3406 101.238 26.489C101.643 26.6375 101.992 26.8488 102.283 27.1229C102.58 27.3969 102.811 27.731 102.977 28.125C103.142 28.5133 103.225 28.9501 103.225 29.4354ZM101.658 29.4354C101.658 29.1728 101.615 28.9272 101.529 28.6988C101.443 28.4704 101.324 28.2763 101.169 28.1164C101.021 27.9508 100.838 27.8223 100.621 27.731C100.41 27.6339 100.176 27.5854 99.9189 27.5854C99.662 27.5854 99.4278 27.6339 99.2166 27.731C99.0053 27.8223 98.8226 27.9508 98.6684 28.1164C98.5142 28.2763 98.3943 28.4704 98.3087 28.6988C98.2287 28.9272 98.1888 29.1728 98.1888 29.4354C98.1888 29.7095 98.2316 29.9636 98.3172 30.1977C98.4029 30.4261 98.5199 30.6231 98.6684 30.7887C98.8226 30.9543 99.0053 31.0856 99.2166 31.1827C99.4278 31.2741 99.662 31.3198 99.9189 31.3198C100.176 31.3198 100.41 31.2741 100.621 31.1827C100.833 31.0856 101.015 30.9543 101.169 30.7887C101.324 30.6231 101.443 30.4261 101.529 30.1977C101.615 29.9636 101.658 29.7095 101.658 29.4354Z" fill="#1B367C"/>
<path d="M108.044 32.4932L105.603 28.5275H105.577L105.611 32.4932H104.189V26.4291H105.86L108.292 30.3862H108.318L108.283 26.4291H109.705V32.4932H108.044Z" fill="#1B367C"/>
<path d="M114.159 28.0051C114.034 27.8452 113.868 27.7196 113.663 27.6282C113.463 27.5311 113.269 27.4826 113.08 27.4826C112.983 27.4826 112.883 27.4912 112.78 27.5083C112.683 27.5254 112.595 27.5597 112.515 27.6111C112.435 27.6568 112.366 27.7196 112.309 27.7995C112.258 27.8737 112.232 27.9708 112.232 28.0907C112.232 28.1935 112.252 28.2792 112.292 28.3477C112.338 28.4162 112.401 28.4762 112.481 28.5275C112.566 28.5789 112.666 28.6275 112.78 28.6731C112.895 28.7131 113.023 28.7559 113.166 28.8016C113.371 28.8701 113.586 28.9472 113.808 29.0329C114.031 29.1128 114.234 29.2213 114.416 29.3584C114.599 29.4954 114.75 29.6667 114.87 29.8723C114.99 30.0721 115.05 30.3234 115.05 30.626C115.05 30.9743 114.985 31.2769 114.853 31.5339C114.728 31.7851 114.556 31.9935 114.339 32.1591C114.122 32.3247 113.874 32.4475 113.594 32.5274C113.314 32.6074 113.026 32.6473 112.729 32.6473C112.295 32.6473 111.875 32.5731 111.47 32.4247C111.065 32.2705 110.728 32.0535 110.459 31.7737L111.419 30.7973C111.567 30.98 111.761 31.1342 112.001 31.2598C112.247 31.3797 112.489 31.4397 112.729 31.4397C112.838 31.4397 112.943 31.4283 113.046 31.4054C113.149 31.3826 113.237 31.3455 113.311 31.2941C113.391 31.2427 113.454 31.1742 113.5 31.0885C113.546 31.0029 113.568 30.9001 113.568 30.7802C113.568 30.666 113.54 30.5689 113.483 30.4889C113.426 30.409 113.343 30.3376 113.234 30.2748C113.132 30.2063 113 30.1463 112.84 30.095C112.686 30.0379 112.509 29.9779 112.309 29.9151C112.115 29.8523 111.924 29.778 111.736 29.6924C111.553 29.6067 111.387 29.4983 111.239 29.3669C111.096 29.2299 110.979 29.0671 110.888 28.8787C110.802 28.6846 110.759 28.4505 110.759 28.1764C110.759 27.8395 110.828 27.5511 110.965 27.3113C111.102 27.0715 111.282 26.8745 111.504 26.7203C111.727 26.5661 111.978 26.4548 112.258 26.3863C112.538 26.312 112.82 26.2749 113.106 26.2749C113.449 26.2749 113.797 26.3377 114.151 26.4634C114.511 26.589 114.825 26.7746 115.093 27.0201L114.159 28.0051Z" fill="#1B367C"/>
<g opacity="0.7">
<path d="M53 113.039C53 108.595 56.6668 104.993 61.19 104.993L625.687 104.993C630.21 104.993 633.877 108.595 633.877 113.039V139.071C633.877 143.515 630.21 147.118 625.687 147.118H61.19C56.6668 147.118 53 143.515 53 139.071V113.039Z" fill="#EFF0F2"/>
<path d="M101.033 121.416C101.033 120.305 101.966 119.404 103.116 119.404H210.574C211.724 119.404 212.656 120.305 212.656 121.416C212.656 122.526 211.724 123.427 210.574 123.427H103.116C101.966 123.427 101.033 122.526 101.033 121.416Z" fill="#C4C4C4"/>
<path d="M101.033 131.875C101.033 130.764 101.966 129.864 103.116 129.864H159.76C160.91 129.864 161.843 130.764 161.843 131.875C161.843 132.986 160.91 133.887 159.76 133.887H103.116C101.966 133.887 101.033 132.986 101.033 131.875Z" fill="#DFDFDF"/>
</g>
<g opacity="0.7">
<path d="M53 164.032C53 159.588 56.6668 155.986 61.19 155.986L625.687 155.986C630.21 155.986 633.877 159.588 633.877 164.032V190.064C633.877 194.508 630.21 198.111 625.687 198.111H61.19C56.6668 198.111 53 194.508 53 190.064V164.032Z" fill="#EFF0F2"/>
<path d="M101.033 172.408C101.033 171.298 101.966 170.397 103.116 170.397H210.574C211.724 170.397 212.656 171.298 212.656 172.408C212.656 173.519 211.724 174.42 210.574 174.42H103.116C101.966 174.42 101.033 173.519 101.033 172.408Z" fill="#C4C4C4"/>
<path d="M101.033 182.868C101.033 181.757 101.966 180.856 103.116 180.856H159.76C160.91 180.856 161.843 181.757 161.843 182.868C161.843 183.979 160.91 184.879 159.76 184.879H103.116C101.966 184.879 101.033 183.979 101.033 182.868Z" fill="#DFDFDF"/>
</g>
<g opacity="0.7">
<path d="M53 215.025C53 210.581 56.6668 206.979 61.19 206.979L625.687 206.979C630.21 206.979 633.877 210.581 633.877 215.025V241.057C633.877 245.501 630.21 249.103 625.687 249.103H61.19C56.6668 249.103 53 245.501 53 241.057V215.025Z" fill="#EFF0F2"/>
<path d="M101.033 223.401C101.033 222.29 101.966 221.39 103.116 221.39H210.574C211.724 221.39 212.656 222.29 212.656 223.401C212.656 224.512 211.724 225.413 210.574 225.413H103.116C101.966 225.413 101.033 224.512 101.033 223.401Z" fill="#C4C4C4"/>
<path d="M101.033 233.861C101.033 232.75 101.966 231.85 103.116 231.85H159.76C160.91 231.85 161.843 232.75 161.843 233.861C161.843 234.972 160.91 235.873 159.76 235.873H103.116C101.966 235.873 101.033 234.972 101.033 233.861Z" fill="#DFDFDF"/>
</g>
<g opacity="0.7">
<path d="M53 266.018C53 261.574 56.6668 257.972 61.19 257.972L625.687 257.972C630.21 257.972 633.877 261.574 633.877 266.018V292.05C633.877 296.494 630.21 300.097 625.687 300.097H61.19C56.6668 300.097 53 296.494 53 292.05V266.018Z" fill="#EFF0F2"/>
<path d="M101.033 274.395C101.033 273.284 101.966 272.383 103.116 272.383H210.574C211.724 272.383 212.656 273.284 212.656 274.395C212.656 275.506 211.724 276.406 210.574 276.406H103.116C101.966 276.406 101.033 275.506 101.033 274.395Z" fill="#C4C4C4"/>
<path d="M101.033 284.854C101.033 283.743 101.966 282.843 103.116 282.843H159.76C160.91 282.843 161.843 283.743 161.843 284.854C161.843 285.965 160.91 286.866 159.76 286.866H103.116C101.966 286.866 101.033 285.965 101.033 284.854Z" fill="#DFDFDF"/>
</g>
<g opacity="0.7">
<path d="M53 317.011C53 312.567 56.6668 308.965 61.19 308.965L625.687 308.965C630.21 308.965 633.877 312.567 633.877 317.011V343.043C633.877 347.487 630.21 351.09 625.687 351.09H61.19C56.6668 351.09 53 347.487 53 343.043V317.011Z" fill="#EFF0F2"/>
<path d="M101.033 325.387C101.033 324.277 101.966 323.376 103.116 323.376H210.574C211.724 323.376 212.656 324.277 212.656 325.387C212.656 326.498 211.724 327.399 210.574 327.399H103.116C101.966 327.399 101.033 326.498 101.033 325.387Z" fill="#C4C4C4"/>
<path d="M101.033 335.847C101.033 334.736 101.966 333.835 103.116 333.835H159.76C160.91 333.835 161.843 334.736 161.843 335.847C161.843 336.958 160.91 337.858 159.76 337.858H103.116C101.966 337.858 101.033 336.958 101.033 335.847Z" fill="#DFDFDF"/>
</g>
<path d="M576.084 123.196C576.084 120.769 578.106 118.801 580.6 118.801L586.129 118.801C588.623 118.801 590.644 120.769 590.644 123.196V128.69C590.644 131.117 588.623 133.085 586.129 133.085L580.6 133.085C578.106 133.085 576.084 131.117 576.084 128.69V123.196Z" fill="#3B5998"/>
<path d="M582.676 128.416V126.286H581.908V125.44H582.676V124.77C582.676 124.417 582.783 124.144 582.996 123.952C583.209 123.753 583.491 123.654 583.844 123.654C584.13 123.654 584.363 123.667 584.542 123.691V124.445H584.063C583.884 124.445 583.761 124.482 583.694 124.556C583.641 124.618 583.614 124.718 583.614 124.854V125.44H584.462L584.343 126.286H583.614V128.416H582.676Z" fill="white"/>
<path d="M576.084 328.012C576.084 325.585 578.106 323.617 580.6 323.617L586.129 323.617C588.623 323.617 590.644 325.585 590.644 328.012V333.506C590.644 335.934 588.623 337.901 586.129 337.901L580.6 337.901C578.106 337.901 576.084 335.934 576.084 333.506V328.012Z" fill="#3B5998"/>
<path d="M582.676 333.232V331.102H581.908V330.256H582.676V329.587C582.676 329.233 582.783 328.96 582.996 328.768C583.209 328.57 583.491 328.471 583.844 328.471C584.13 328.471 584.363 328.483 584.542 328.508V329.261H584.063C583.884 329.261 583.761 329.298 583.694 329.373C583.641 329.435 583.614 329.534 583.614 329.67V330.256H584.462L584.343 331.102H583.614V333.232H582.676Z" fill="white"/>
<path d="M576.084 174.616C576.084 172.203 577.928 170.248 580.353 170.248H586.526C588.801 170.248 590.646 172.203 590.646 174.616V180.075C590.646 182.488 588.801 184.443 586.526 184.443H580.353C577.928 184.443 576.084 182.488 576.084 180.075V174.616Z" fill="#3166ED"/>
<path fill-rule="evenodd" clip-rule="evenodd" d="M584.29 175.568C584.382 175.607 584.425 175.715 584.387 175.809L584.221 175.739L584.054 175.668C584.093 175.574 584.198 175.529 584.29 175.568ZM584.221 175.739C584.054 175.668 584.054 175.668 584.054 175.668L582.667 179.099C582.629 179.193 582.672 179.301 582.764 179.34C582.856 179.379 582.961 179.335 583 179.24L584.387 175.809C584.387 175.809 584.387 175.809 584.221 175.739ZM582.171 176.163C582.24 176.236 582.238 176.353 582.166 176.424L581.261 177.323L582.144 178.284C582.212 178.358 582.209 178.475 582.136 178.545C582.064 178.615 581.95 178.612 581.882 178.537L580.877 177.443C580.809 177.37 580.812 177.254 580.882 177.184L581.916 176.159C581.987 176.088 582.101 176.09 582.171 176.163ZM584.917 176.2C584.988 176.128 585.102 176.129 585.172 176.202L586.178 177.254C586.247 177.327 586.246 177.442 586.177 177.514L585.143 178.581C585.073 178.653 584.959 178.654 584.888 178.582C584.818 178.51 584.817 178.393 584.888 178.32L585.796 177.383L584.915 176.461C584.845 176.388 584.846 176.271 584.917 176.2Z" fill="white"/>
<path d="M584.387 175.809C584.425 175.715 584.382 175.607 584.29 175.568C584.198 175.529 584.093 175.574 584.054 175.668M584.387 175.809L584.221 175.739M584.387 175.809C584.387 175.809 584.387 175.809 584.221 175.739M584.387 175.809L583 179.24C582.961 179.335 582.856 179.379 582.764 179.34C582.672 179.301 582.629 179.193 582.667 179.099L584.054 175.668M584.221 175.739L584.054 175.668M584.221 175.739C584.054 175.668 584.054 175.668 584.054 175.668M582.166 176.424C582.238 176.353 582.24 176.236 582.171 176.163C582.101 176.09 581.987 176.088 581.916 176.159L580.882 177.184C580.812 177.254 580.809 177.37 580.877 177.443L581.882 178.537C581.95 178.612 582.064 178.615 582.136 178.545C582.209 178.475 582.212 178.358 582.144 178.284L581.261 177.323L582.166 176.424ZM585.172 176.202C585.102 176.129 584.988 176.128 584.917 176.2C584.846 176.271 584.845 176.388 584.915 176.461L585.796 177.383L584.888 178.32C584.817 178.393 584.818 178.51 584.888 178.582C584.959 178.654 585.073 178.653 585.143 178.581L586.177 177.514C586.246 177.442 586.247 177.327 586.178 177.254L585.172 176.202Z" stroke="white" stroke-width="0.2" stroke-linecap="round" stroke-linejoin="round"/>
<path d="M576.084 276.694C576.084 274.23 577.765 272.171 580.295 272.171H586.764C589.295 272.171 590.644 274.23 590.644 276.694V282.268C590.644 284.731 588.593 286.728 586.062 286.728H580.666C578.135 286.728 576.084 284.731 576.084 282.268V276.694Z" fill="#1CA1F1"/>
<path d="M585.92 277.904C585.809 277.954 585.694 277.992 585.576 278.021C585.706 277.897 585.804 277.742 585.859 277.569C585.875 277.519 585.822 277.477 585.777 277.503C585.612 277.601 585.435 277.674 585.25 277.721C585.239 277.723 585.228 277.725 585.217 277.725C585.183 277.725 585.151 277.712 585.125 277.69C584.928 277.516 584.674 277.42 584.411 277.42C584.298 277.42 584.183 277.438 584.07 277.473C583.72 277.582 583.451 277.87 583.366 278.226C583.334 278.359 583.326 278.493 583.341 278.623C583.342 278.637 583.335 278.648 583.331 278.653C583.323 278.661 583.312 278.666 583.301 278.666L583.297 278.666C582.532 278.595 581.842 278.226 581.355 277.628C581.33 277.598 581.282 277.601 581.262 277.635C581.167 277.799 581.116 277.987 581.116 278.177C581.116 278.47 581.234 278.745 581.438 278.946C581.352 278.925 581.269 278.893 581.192 278.851C581.154 278.83 581.109 278.856 581.108 278.899C581.103 279.333 581.357 279.72 581.738 279.893C581.73 279.894 581.722 279.894 581.715 279.894C581.654 279.894 581.593 279.888 581.533 279.876C581.491 279.868 581.456 279.908 581.469 279.949C581.592 280.335 581.925 280.619 582.322 280.684C581.992 280.905 581.608 281.022 581.208 281.022L581.083 281.022C581.045 281.022 581.012 281.047 581.003 281.084C580.993 281.121 581.011 281.16 581.043 281.179C581.494 281.441 582.008 281.579 582.53 281.579C582.987 281.579 583.415 281.489 583.801 281.31C584.155 281.146 584.467 280.912 584.73 280.613C584.975 280.336 585.167 280.015 585.299 279.66C585.426 279.322 585.493 278.961 585.493 278.617V278.6C585.493 278.545 585.518 278.493 585.562 278.458C585.727 278.323 585.871 278.165 585.99 277.987C586.022 277.94 585.972 277.881 585.92 277.904Z" fill="white"/>
<path d="M576.084 225.247C576.084 222.784 577.765 220.724 580.295 220.724H586.764C589.295 220.724 590.644 222.784 590.644 225.247V230.821C590.644 233.285 588.593 235.281 586.062 235.281H580.666C578.135 235.281 576.084 233.285 576.084 230.821V225.247Z" fill="#E1306C"/>
<path d="M583.419 226.753C583.19 226.753 582.976 226.81 582.777 226.925C582.585 227.033 582.43 227.184 582.311 227.378C582.201 227.565 582.145 227.77 582.145 227.993C582.145 228.216 582.201 228.424 582.311 228.618C582.43 228.805 582.585 228.956 582.777 229.071C582.976 229.179 583.19 229.233 583.419 229.233C583.648 229.233 583.859 229.179 584.051 229.071C584.25 228.956 584.406 228.805 584.516 228.618C584.635 228.424 584.694 228.216 584.694 227.993C584.694 227.77 584.635 227.565 584.516 227.378C584.406 227.184 584.25 227.033 584.051 226.925C583.859 226.81 583.648 226.753 583.419 226.753ZM583.419 228.802C583.19 228.802 582.995 228.723 582.832 228.564C582.67 228.406 582.588 228.216 582.588 227.993C582.588 227.77 582.67 227.579 582.832 227.421C582.995 227.263 583.19 227.184 583.419 227.184C583.648 227.184 583.844 227.263 584.007 227.421C584.169 227.579 584.25 227.77 584.25 227.993C584.25 228.216 584.169 228.406 584.007 228.564C583.844 228.723 583.648 228.802 583.419 228.802ZM585.048 226.699C585.041 226.778 585.008 226.846 584.948 226.904C584.897 226.961 584.83 226.99 584.749 226.99C584.668 226.99 584.598 226.961 584.538 226.904C584.479 226.846 584.45 226.778 584.45 226.699C584.45 226.62 584.479 226.551 584.538 226.494C584.598 226.436 584.668 226.408 584.749 226.408C584.83 226.408 584.9 226.436 584.96 226.494C585.019 226.551 585.048 226.62 585.048 226.699ZM585.89 226.99C585.875 226.781 585.842 226.602 585.791 226.451C585.724 226.271 585.621 226.116 585.48 225.987C585.347 225.85 585.189 225.75 585.004 225.685C584.849 225.635 584.664 225.606 584.45 225.599C584.243 225.584 583.9 225.577 583.419 225.577C582.939 225.577 582.592 225.584 582.378 225.599C582.171 225.606 581.99 225.635 581.835 225.685C581.65 225.75 581.488 225.85 581.347 225.987C581.214 226.116 581.115 226.271 581.048 226.451C580.997 226.602 580.963 226.781 580.949 226.99C580.941 227.191 580.938 227.526 580.938 227.993C580.938 228.46 580.941 228.798 580.949 229.007C580.963 229.208 580.997 229.384 581.048 229.535C581.115 229.715 581.214 229.873 581.347 230.01C581.488 230.139 581.65 230.232 581.835 230.29C581.99 230.347 582.171 230.38 582.378 230.387C582.592 230.401 582.939 230.409 583.419 230.409C583.9 230.409 584.243 230.401 584.45 230.387C584.664 230.38 584.849 230.351 585.004 230.301C585.189 230.236 585.347 230.139 585.48 230.01C585.621 229.873 585.724 229.715 585.791 229.535C585.842 229.384 585.872 229.208 585.879 229.007C585.894 228.798 585.901 228.46 585.901 227.993C585.901 227.526 585.898 227.191 585.89 226.99ZM585.358 229.416C585.27 229.632 585.111 229.787 584.882 229.88C584.764 229.923 584.564 229.952 584.284 229.966C584.129 229.974 583.9 229.977 583.597 229.977H583.242C582.947 229.977 582.718 229.974 582.555 229.966C582.282 229.952 582.082 229.923 581.957 229.88C581.735 229.794 581.576 229.639 581.48 229.416C581.436 229.294 581.407 229.1 581.392 228.834C581.384 228.676 581.381 228.453 581.381 228.165V227.82C581.381 227.533 581.384 227.31 581.392 227.152C581.407 226.878 581.436 226.684 581.48 226.569C581.569 226.346 581.728 226.192 581.957 226.106C582.082 226.062 582.282 226.034 582.555 226.019C582.718 226.012 582.947 226.009 583.242 226.009H583.597C583.892 226.009 584.121 226.012 584.284 226.019C584.564 226.034 584.764 226.062 584.882 226.106C585.111 226.192 585.27 226.346 585.358 226.569C585.403 226.684 585.432 226.878 585.447 227.152C585.454 227.303 585.458 227.526 585.458 227.82V228.165C585.458 228.453 585.454 228.676 585.447 228.834C585.432 229.1 585.403 229.294 585.358 229.416Z" fill="white"/>
<g opacity="0.7">
<path d="M53 62.0464C53 57.6025 56.6668 54 61.19 54L625.687 54C630.21 54 633.877 57.6025 633.877 62.0464V88.0783C633.877 92.5222 630.21 96.1247 625.687 96.1247H61.19C56.6668 96.1247 53 92.5222 53 88.0783V62.0464Z" fill="#EFF0F2"/>
</g>
<path d="M57.7344 65.4716C57.7344 62.1972 60.7298 59.5427 64.4249 59.5427L187.293 59.5427C190.988 59.5427 193.984 62.1972 193.984 65.4716V84.6531C193.984 87.9275 190.988 90.582 187.293 90.582L64.4249 90.582C60.7298 90.582 57.7344 87.9275 57.7344 84.6531V65.4716Z" fill="#EFF0F2"/>
<path d="M95.9568 76.4522L94.2969 73.7556H94.2795L94.3027 76.4522H93.3359V72.3287H94.4716L96.1257 75.0194H96.1432L96.1199 72.3287H97.0867V76.4522H95.9568Z" fill="#C4C4C4"/>
<path d="M97.9373 76.4522V72.3287H100.71V73.1732H98.8982V73.9478H100.611V74.7457H98.8982V75.6019H100.814V76.4522H97.9373Z" fill="#C4C4C4"/>
<path d="M105.843 76.4522H104.859L104.043 73.6624H104.026L103.211 76.4522H102.22L101.05 72.3287H102.121L102.774 75.0719H102.791L103.525 72.3287H104.562L105.301 75.0719H105.319L105.983 72.3287H107.02L105.843 76.4522Z" fill="#C4C4C4"/>
<path d="M111.013 73.4003C110.928 73.2916 110.815 73.2062 110.675 73.1441C110.539 73.0781 110.407 73.045 110.279 73.045C110.213 73.045 110.145 73.0509 110.075 73.0625C110.009 73.0742 109.949 73.0975 109.895 73.1324C109.84 73.1635 109.794 73.2062 109.755 73.2605C109.72 73.311 109.703 73.377 109.703 73.4586C109.703 73.5285 109.716 73.5867 109.743 73.6333C109.774 73.6799 109.817 73.7207 109.872 73.7556C109.93 73.7905 109.998 73.8235 110.075 73.8546C110.153 73.8818 110.24 73.9109 110.337 73.942C110.477 73.9886 110.623 74.041 110.774 74.0992C110.926 74.1536 111.064 74.2274 111.188 74.3205C111.312 74.4137 111.415 74.5302 111.496 74.67C111.578 74.8059 111.619 74.9767 111.619 75.1825C111.619 75.4194 111.574 75.6252 111.485 75.7999C111.399 75.9707 111.283 76.1124 111.135 76.225C110.988 76.3376 110.819 76.4211 110.629 76.4755C110.438 76.5298 110.242 76.557 110.04 76.557C109.745 76.557 109.46 76.5065 109.184 76.4056C108.909 76.3008 108.679 76.1532 108.497 75.963L109.149 75.299C109.25 75.4232 109.382 75.5281 109.545 75.6135C109.712 75.695 109.877 75.7358 110.04 75.7358C110.114 75.7358 110.186 75.728 110.256 75.7125C110.326 75.697 110.386 75.6717 110.436 75.6368C110.491 75.6019 110.534 75.5553 110.565 75.497C110.596 75.4388 110.611 75.3689 110.611 75.2874C110.611 75.2097 110.592 75.1437 110.553 75.0893C110.514 75.035 110.458 74.9864 110.384 74.9437C110.314 74.8971 110.225 74.8564 110.116 74.8214C110.011 74.7826 109.891 74.7418 109.755 74.6991C109.623 74.6564 109.493 74.6059 109.365 74.5477C109.241 74.4894 109.128 74.4157 109.027 74.3264C108.93 74.2332 108.85 74.1225 108.788 73.9944C108.73 73.8624 108.701 73.7032 108.701 73.5168C108.701 73.2877 108.747 73.0916 108.841 72.9286C108.934 72.7655 109.056 72.6315 109.208 72.5267C109.359 72.4219 109.53 72.3461 109.72 72.2996C109.91 72.2491 110.103 72.2238 110.297 72.2238C110.53 72.2238 110.766 72.2666 111.007 72.352C111.252 72.4374 111.465 72.5636 111.648 72.7305L111.013 73.4003Z" fill="#C4C4C4"/>
<path d="M115.77 74.8971C115.77 75.1456 115.728 75.3728 115.642 75.5786C115.561 75.7805 115.442 75.9552 115.287 76.1027C115.132 76.2464 114.943 76.359 114.722 76.4405C114.505 76.5221 114.262 76.5628 113.994 76.5628C113.722 76.5628 113.478 76.5221 113.26 76.4405C113.043 76.359 112.858 76.2464 112.707 76.1027C112.555 75.9552 112.439 75.7805 112.357 75.5786C112.276 75.3728 112.235 75.1456 112.235 74.8971V72.3287H113.225V74.8156C113.225 74.9282 113.239 75.035 113.266 75.1359C113.297 75.2369 113.342 75.3281 113.4 75.4097C113.462 75.4873 113.542 75.5494 113.639 75.596C113.74 75.6426 113.86 75.6659 114 75.6659C114.14 75.6659 114.258 75.6426 114.355 75.596C114.456 75.5494 114.538 75.4873 114.6 75.4097C114.662 75.3281 114.706 75.2369 114.734 75.1359C114.761 75.035 114.774 74.9282 114.774 74.8156V72.3287H115.77V74.8971Z" fill="#C4C4C4"/>
<path d="M120.239 76.2017C120.037 76.3066 119.8 76.392 119.529 76.458C119.261 76.524 118.968 76.557 118.649 76.557C118.319 76.557 118.014 76.5046 117.735 76.3998C117.459 76.2949 117.22 76.1474 117.018 75.9571C116.82 75.7669 116.665 75.5397 116.552 75.2757C116.44 75.0078 116.384 74.7108 116.384 74.3846C116.384 74.0546 116.44 73.7556 116.552 73.4877C116.669 73.2198 116.828 72.9926 117.03 72.8063C117.232 72.616 117.469 72.4704 117.741 72.3694C118.012 72.2685 118.305 72.218 118.62 72.218C118.946 72.218 119.249 72.2685 119.529 72.3694C119.808 72.4665 120.035 72.5985 120.21 72.7655L119.581 73.4819C119.484 73.3693 119.356 73.278 119.197 73.2081C119.037 73.1344 118.857 73.0975 118.655 73.0975C118.48 73.0975 118.319 73.1305 118.172 73.1965C118.024 73.2586 117.896 73.3479 117.787 73.4644C117.678 73.577 117.593 73.7129 117.531 73.8721C117.473 74.0274 117.444 74.1982 117.444 74.3846C117.444 74.5749 117.471 74.7496 117.525 74.9088C117.579 75.068 117.659 75.2058 117.764 75.3223C117.873 75.4349 118.005 75.5242 118.16 75.5902C118.319 75.6523 118.5 75.6834 118.702 75.6834C118.818 75.6834 118.929 75.6756 119.034 75.6601C119.138 75.6407 119.235 75.6116 119.325 75.5727V74.8214H118.538V74.0177H120.239V76.2017Z" fill="#C4C4C4"/>
<path d="M124.715 76.2017C124.513 76.3066 124.277 76.392 124.005 76.458C123.737 76.524 123.444 76.557 123.125 76.557C122.795 76.557 122.49 76.5046 122.211 76.3998C121.935 76.2949 121.696 76.1474 121.495 75.9571C121.297 75.7669 121.141 75.5397 121.029 75.2757C120.916 75.0078 120.86 74.7108 120.86 74.3846C120.86 74.0546 120.916 73.7556 121.029 73.4877C121.145 73.2198 121.304 72.9926 121.506 72.8063C121.708 72.616 121.945 72.4704 122.217 72.3694C122.489 72.2685 122.782 72.218 123.096 72.218C123.422 72.218 123.725 72.2685 124.005 72.3694C124.284 72.4665 124.511 72.5985 124.686 72.7655L124.057 73.4819C123.96 73.3693 123.832 73.278 123.673 73.2081C123.514 73.1344 123.333 73.0975 123.131 73.0975C122.956 73.0975 122.795 73.1305 122.648 73.1965C122.5 73.2586 122.372 73.3479 122.263 73.4644C122.155 73.577 122.069 73.7129 122.007 73.8721C121.949 74.0274 121.92 74.1982 121.92 74.3846C121.92 74.5749 121.947 74.7496 122.001 74.9088C122.056 75.068 122.135 75.2058 122.24 75.3223C122.349 75.4349 122.481 75.5242 122.636 75.5902C122.795 75.6523 122.976 75.6834 123.178 75.6834C123.294 75.6834 123.405 75.6756 123.51 75.6601C123.615 75.6407 123.712 75.6116 123.801 75.5727V74.8214H123.015V74.0177H124.715V76.2017Z" fill="#C4C4C4"/>
<path d="M125.528 76.4522V72.3287H128.3V73.1732H126.489V73.9478H128.201V74.7457H126.489V75.6019H128.405V76.4522H125.528Z" fill="#C4C4C4"/>
<path d="M131.244 73.4003C131.159 73.2916 131.046 73.2062 130.906 73.1441C130.77 73.0781 130.638 73.045 130.51 73.045C130.444 73.045 130.376 73.0509 130.306 73.0625C130.24 73.0742 130.18 73.0975 130.126 73.1324C130.071 73.1635 130.025 73.2062 129.986 73.2605C129.951 73.311 129.934 73.377 129.934 73.4586C129.934 73.5285 129.947 73.5867 129.974 73.6333C130.005 73.6799 130.048 73.7207 130.103 73.7556C130.161 73.7905 130.229 73.8235 130.306 73.8546C130.384 73.8818 130.471 73.9109 130.568 73.942C130.708 73.9886 130.854 74.041 131.005 74.0992C131.157 74.1536 131.295 74.2274 131.419 74.3205C131.543 74.4137 131.646 74.5302 131.727 74.67C131.809 74.8059 131.85 74.9767 131.85 75.1825C131.85 75.4194 131.805 75.6252 131.716 75.7999C131.63 75.9707 131.514 76.1124 131.366 76.225C131.219 76.3376 131.05 76.4211 130.86 76.4755C130.669 76.5298 130.473 76.557 130.271 76.557C129.976 76.557 129.691 76.5065 129.415 76.4056C129.14 76.3008 128.911 76.1532 128.728 75.963L129.38 75.299C129.481 75.4232 129.613 75.5281 129.776 75.6135C129.943 75.695 130.108 75.7358 130.271 75.7358C130.345 75.7358 130.417 75.728 130.487 75.7125C130.557 75.697 130.617 75.6717 130.667 75.6368C130.722 75.6019 130.765 75.5553 130.796 75.497C130.827 75.4388 130.842 75.3689 130.842 75.2874C130.842 75.2097 130.823 75.1437 130.784 75.0893C130.745 75.035 130.689 74.9864 130.615 74.9437C130.545 74.8971 130.456 74.8564 130.347 74.8214C130.242 74.7826 130.122 74.7418 129.986 74.6991C129.854 74.6564 129.724 74.6059 129.596 74.5477C129.472 74.4894 129.359 74.4157 129.258 74.3264C129.161 74.2332 129.081 74.1225 129.019 73.9944C128.961 73.8624 128.932 73.7032 128.932 73.5168C128.932 73.2877 128.978 73.0916 129.072 72.9286C129.165 72.7655 129.287 72.6315 129.439 72.5267C129.59 72.4219 129.761 72.3461 129.951 72.2996C130.141 72.2491 130.334 72.2238 130.528 72.2238C130.761 72.2238 130.997 72.2666 131.238 72.352C131.483 72.4374 131.696 72.5636 131.879 72.7305L131.244 73.4003Z" fill="#C4C4C4"/>
<path d="M134.198 73.179V76.4522H133.202V73.179H132.037V72.3287H135.362V73.179H134.198Z" fill="#C4C4C4"/>
<path d="M135.817 76.4522V72.3287H136.819V76.4522H135.817Z" fill="#C4C4C4"/>
<path d="M141.969 74.373C141.969 74.6991 141.913 74.9981 141.801 75.2699C141.688 75.5378 141.531 75.7688 141.329 75.963C141.131 76.1532 140.894 76.3008 140.618 76.4056C140.343 76.5104 140.044 76.5628 139.721 76.5628C139.399 76.5628 139.1 76.5104 138.824 76.4056C138.553 76.3008 138.316 76.1532 138.114 75.963C137.916 75.7688 137.761 75.5378 137.648 75.2699C137.535 74.9981 137.479 74.6991 137.479 74.373C137.479 74.0429 137.535 73.7459 137.648 73.4819C137.761 73.2139 137.916 72.9868 138.114 72.8004C138.316 72.6141 138.553 72.4704 138.824 72.3694C139.1 72.2685 139.399 72.218 139.721 72.218C140.044 72.218 140.343 72.2685 140.618 72.3694C140.894 72.4704 141.131 72.6141 141.329 72.8004C141.531 72.9868 141.688 73.2139 141.801 73.4819C141.913 73.7459 141.969 74.0429 141.969 74.373ZM140.904 74.373C140.904 74.1944 140.875 74.0274 140.816 73.8721C140.758 73.7168 140.677 73.5848 140.572 73.476C140.471 73.3634 140.346 73.2761 140.199 73.2139C140.055 73.1479 139.896 73.1149 139.721 73.1149C139.547 73.1149 139.387 73.1479 139.244 73.2139C139.1 73.2761 138.976 73.3634 138.871 73.476C138.766 73.5848 138.685 73.7168 138.626 73.8721C138.572 74.0274 138.545 74.1944 138.545 74.373C138.545 74.5593 138.574 74.7321 138.632 74.8913C138.69 75.0466 138.77 75.1806 138.871 75.2932C138.976 75.4058 139.1 75.4951 139.244 75.5611C139.387 75.6232 139.547 75.6543 139.721 75.6543C139.896 75.6543 140.055 75.6232 140.199 75.5611C140.343 75.4951 140.467 75.4058 140.572 75.2932C140.677 75.1806 140.758 75.0466 140.816 74.8913C140.875 74.7321 140.904 74.5593 140.904 74.373Z" fill="#C4C4C4"/>
<path d="M145.246 76.4522L143.586 73.7556H143.569L143.592 76.4522H142.625V72.3287H143.761L145.415 75.0194H145.432L145.409 72.3287H146.376V76.4522H145.246Z" fill="#C4C4C4"/>
<path d="M149.405 73.4003C149.319 73.2916 149.207 73.2062 149.067 73.1441C148.931 73.0781 148.799 73.045 148.671 73.045C148.605 73.045 148.537 73.0509 148.467 73.0625C148.401 73.0742 148.341 73.0975 148.287 73.1324C148.232 73.1635 148.186 73.2062 148.147 73.2605C148.112 73.311 148.094 73.377 148.094 73.4586C148.094 73.5285 148.108 73.5867 148.135 73.6333C148.166 73.6799 148.209 73.7207 148.263 73.7556C148.321 73.7905 148.389 73.8235 148.467 73.8546C148.545 73.8818 148.632 73.9109 148.729 73.942C148.869 73.9886 149.015 74.041 149.166 74.0992C149.317 74.1536 149.455 74.2274 149.579 74.3205C149.704 74.4137 149.807 74.5302 149.888 74.67C149.97 74.8059 150.01 74.9767 150.01 75.1825C150.01 75.4194 149.966 75.6252 149.877 75.7999C149.791 75.9707 149.675 76.1124 149.527 76.225C149.38 76.3376 149.211 76.4211 149.02 76.4755C148.83 76.5298 148.634 76.557 148.432 76.557C148.137 76.557 147.852 76.5065 147.576 76.4056C147.3 76.3008 147.071 76.1532 146.889 75.963L147.541 75.299C147.642 75.4232 147.774 75.5281 147.937 75.6135C148.104 75.695 148.269 75.7358 148.432 75.7358C148.506 75.7358 148.578 75.728 148.648 75.7125C148.717 75.697 148.778 75.6717 148.828 75.6368C148.883 75.6019 148.925 75.5553 148.956 75.497C148.987 75.4388 149.003 75.3689 149.003 75.2874C149.003 75.2097 148.983 75.1437 148.945 75.0893C148.906 75.035 148.85 74.9864 148.776 74.9437C148.706 74.8971 148.617 74.8564 148.508 74.8214C148.403 74.7826 148.283 74.7418 148.147 74.6991C148.015 74.6564 147.885 74.6059 147.757 74.5477C147.632 74.4894 147.52 74.4157 147.419 74.3264C147.322 74.2332 147.242 74.1225 147.18 73.9944C147.122 73.8624 147.093 73.7032 147.093 73.5168C147.093 73.2877 147.139 73.0916 147.232 72.9286C147.326 72.7655 147.448 72.6315 147.599 72.5267C147.751 72.4219 147.922 72.3461 148.112 72.2996C148.302 72.2491 148.494 72.2238 148.688 72.2238C148.921 72.2238 149.158 72.2666 149.399 72.352C149.644 72.4374 149.857 72.5636 150.04 72.7305L149.405 73.4003Z" fill="#C4C4C4"/>
<g opacity="0.2">
<path d="M260.725 76.4522V72.3287H261.726V76.4522H260.725Z" fill="#1B367C"/>
<path d="M265.2 76.4522L263.54 73.7556H263.522L263.546 76.4522H262.579V72.3287H263.714L265.369 75.0194H265.386L265.363 72.3287H266.33V76.4522H265.2Z" fill="#1B367C"/>
<path d="M271.764 73.5983C271.764 73.8391 271.719 74.0429 271.63 74.2099C271.54 74.373 271.42 74.505 271.269 74.6059C271.117 74.7069 270.943 74.7806 270.744 74.8272C270.546 74.8738 270.341 74.8971 270.127 74.8971H269.632V76.4522H268.636V72.3287H270.15C270.376 72.3287 270.585 72.352 270.779 72.3986C270.977 72.4413 271.148 72.5131 271.292 72.6141C271.44 72.7111 271.554 72.8412 271.636 73.0043C271.721 73.1635 271.764 73.3615 271.764 73.5983ZM270.768 73.6042C270.768 73.5071 270.748 73.4275 270.71 73.3654C270.671 73.3033 270.618 73.2547 270.552 73.2198C270.486 73.1848 270.411 73.1615 270.325 73.1499C270.244 73.1382 270.158 73.1324 270.069 73.1324H269.632V74.105H270.051C270.145 74.105 270.234 74.0973 270.319 74.0818C270.405 74.0662 270.48 74.039 270.546 74.0002C270.616 73.9614 270.671 73.9109 270.71 73.8488C270.748 73.7828 270.768 73.7012 270.768 73.6042Z" fill="#1B367C"/>
<path d="M274.569 76.4522L273.678 74.8156H273.34V76.4522H272.362V72.3287H273.934C274.132 72.3287 274.324 72.35 274.511 72.3927C274.701 72.4316 274.87 72.4995 275.017 72.5966C275.169 72.6937 275.289 72.8218 275.378 72.981C275.468 73.1402 275.512 73.3382 275.512 73.575C275.512 73.8546 275.437 74.0895 275.285 74.2798C275.134 74.47 274.924 74.6059 274.656 74.6875L275.734 76.4522H274.569ZM274.528 73.5925C274.528 73.4955 274.507 73.4178 274.464 73.3596C274.425 73.2974 274.373 73.2508 274.307 73.2198C274.245 73.1848 274.173 73.1615 274.091 73.1499C274.014 73.1382 273.938 73.1324 273.864 73.1324H273.334V74.0934H273.806C273.887 74.0934 273.971 74.0876 274.056 74.0759C274.142 74.0604 274.219 74.0352 274.289 74.0002C274.359 73.9653 274.416 73.9148 274.458 73.8488C274.505 73.7828 274.528 73.6974 274.528 73.5925Z" fill="#1B367C"/>
<path d="M280.522 74.373C280.522 74.6991 280.465 74.9981 280.353 75.2699C280.24 75.5378 280.083 75.7688 279.881 75.963C279.683 76.1532 279.446 76.3008 279.171 76.4056C278.895 76.5104 278.596 76.5628 278.274 76.5628C277.951 76.5628 277.652 76.5104 277.377 76.4056C277.105 76.3008 276.868 76.1532 276.666 75.963C276.468 75.7688 276.313 75.5378 276.2 75.2699C276.088 74.9981 276.031 74.6991 276.031 74.373C276.031 74.0429 276.088 73.7459 276.2 73.4819C276.313 73.2139 276.468 72.9868 276.666 72.8004C276.868 72.6141 277.105 72.4704 277.377 72.3694C277.652 72.2685 277.951 72.218 278.274 72.218C278.596 72.218 278.895 72.2685 279.171 72.3694C279.446 72.4704 279.683 72.6141 279.881 72.8004C280.083 72.9868 280.24 73.2139 280.353 73.4819C280.465 73.7459 280.522 74.0429 280.522 74.373ZM279.456 74.373C279.456 74.1944 279.427 74.0274 279.369 73.8721C279.31 73.7168 279.229 73.5848 279.124 73.476C279.023 73.3634 278.899 73.2761 278.751 73.2139C278.608 73.1479 278.448 73.1149 278.274 73.1149C278.099 73.1149 277.94 73.1479 277.796 73.2139C277.652 73.2761 277.528 73.3634 277.423 73.476C277.318 73.5848 277.237 73.7168 277.179 73.8721C277.124 74.0274 277.097 74.1944 277.097 74.373C277.097 74.5593 277.126 74.7321 277.184 74.8913C277.243 75.0466 277.322 75.1806 277.423 75.2932C277.528 75.4058 277.652 75.4951 277.796 75.5611C277.94 75.6232 278.099 75.6543 278.274 75.6543C278.448 75.6543 278.608 75.6232 278.751 75.5611C278.895 75.4951 279.019 75.4058 279.124 75.2932C279.229 75.1806 279.31 75.0466 279.369 74.8913C279.427 74.7321 279.456 74.5593 279.456 74.373Z" fill="#1B367C"/>
<path d="M284.841 76.2017C284.639 76.3066 284.402 76.392 284.13 76.458C283.862 76.524 283.569 76.557 283.251 76.557C282.921 76.557 282.616 76.5046 282.336 76.3998C282.061 76.2949 281.822 76.1474 281.62 75.9571C281.422 75.7669 281.267 75.5397 281.154 75.2757C281.042 75.0078 280.985 74.7108 280.985 74.3846C280.985 74.0546 281.042 73.7556 281.154 73.4877C281.271 73.2198 281.43 72.9926 281.632 72.8063C281.834 72.616 282.07 72.4704 282.342 72.3694C282.614 72.2685 282.907 72.218 283.222 72.218C283.548 72.218 283.851 72.2685 284.13 72.3694C284.41 72.4665 284.637 72.5985 284.812 72.7655L284.183 73.4819C284.086 73.3693 283.957 73.278 283.798 73.2081C283.639 73.1344 283.459 73.0975 283.257 73.0975C283.082 73.0975 282.921 73.1305 282.773 73.1965C282.626 73.2586 282.498 73.3479 282.389 73.4644C282.28 73.577 282.195 73.7129 282.133 73.8721C282.074 74.0274 282.045 74.1982 282.045 74.3846C282.045 74.5749 282.072 74.7496 282.127 74.9088C282.181 75.068 282.261 75.2058 282.366 75.3223C282.474 75.4349 282.606 75.5242 282.762 75.5902C282.921 75.6523 283.101 75.6834 283.303 75.6834C283.42 75.6834 283.53 75.6756 283.635 75.6601C283.74 75.6407 283.837 75.6116 283.926 75.5727V74.8214H283.14V74.0177H284.841V76.2017Z" fill="#1B367C"/>
<path d="M287.861 76.4522L286.97 74.8156H286.632V76.4522H285.654V72.3287H287.226C287.424 72.3287 287.616 72.35 287.803 72.3927C287.993 72.4316 288.162 72.4995 288.309 72.5966C288.461 72.6937 288.581 72.8218 288.671 72.981C288.76 73.1402 288.804 73.3382 288.804 73.575C288.804 73.8546 288.729 74.0895 288.577 74.2798C288.426 74.47 288.216 74.6059 287.948 74.6875L289.026 76.4522H287.861ZM287.82 73.5925C287.82 73.4955 287.799 73.4178 287.756 73.3596C287.717 73.2974 287.665 73.2508 287.599 73.2198C287.537 73.1848 287.465 73.1615 287.383 73.1499C287.306 73.1382 287.23 73.1324 287.156 73.1324H286.626V74.0934H287.098C287.18 74.0934 287.263 74.0876 287.348 74.0759C287.434 74.0604 287.512 74.0352 287.581 74.0002C287.651 73.9653 287.708 73.9148 287.75 73.8488C287.797 73.7828 287.82 73.6974 287.82 73.5925Z" fill="#1B367C"/>
<path d="M289.516 76.4522V72.3287H292.288V73.1732H290.477V73.9478H292.189V74.7457H290.477V75.6019H292.393V76.4522H289.516Z" fill="#1B367C"/>
<path d="M295.231 73.4003C295.146 73.2916 295.033 73.2062 294.894 73.1441C294.758 73.0781 294.626 73.045 294.498 73.045C294.432 73.045 294.364 73.0509 294.294 73.0625C294.228 73.0742 294.168 73.0975 294.113 73.1324C294.059 73.1635 294.012 73.2062 293.973 73.2605C293.939 73.311 293.921 73.377 293.921 73.4586C293.921 73.5285 293.935 73.5867 293.962 73.6333C293.993 73.6799 294.036 73.7207 294.09 73.7556C294.148 73.7905 294.216 73.8235 294.294 73.8546C294.371 73.8818 294.459 73.9109 294.556 73.942C294.696 73.9886 294.841 74.041 294.993 74.0992C295.144 74.1536 295.282 74.2274 295.406 74.3205C295.53 74.4137 295.633 74.5302 295.715 74.67C295.796 74.8059 295.837 74.9767 295.837 75.1825C295.837 75.4194 295.793 75.6252 295.703 75.7999C295.618 75.9707 295.501 76.1124 295.354 76.225C295.206 76.3376 295.037 76.4211 294.847 76.4755C294.657 76.5298 294.461 76.557 294.259 76.557C293.964 76.557 293.678 76.5065 293.403 76.4056C293.127 76.3008 292.898 76.1532 292.715 75.963L293.368 75.299C293.469 75.4232 293.601 75.5281 293.764 75.6135C293.931 75.695 294.096 75.7358 294.259 75.7358C294.333 75.7358 294.404 75.728 294.474 75.7125C294.544 75.697 294.604 75.6717 294.655 75.6368C294.709 75.6019 294.752 75.5553 294.783 75.497C294.814 75.4388 294.83 75.3689 294.83 75.2874C294.83 75.2097 294.81 75.1437 294.771 75.0893C294.733 75.035 294.676 74.9864 294.602 74.9437C294.533 74.8971 294.443 74.8564 294.335 74.8214C294.23 74.7826 294.109 74.7418 293.973 74.6991C293.841 74.6564 293.711 74.6059 293.583 74.5477C293.459 74.4894 293.346 74.4157 293.245 74.3264C293.148 74.2332 293.069 74.1225 293.007 73.9944C292.948 73.8624 292.919 73.7032 292.919 73.5168C292.919 73.2877 292.966 73.0916 293.059 72.9286C293.152 72.7655 293.275 72.6315 293.426 72.5267C293.577 72.4219 293.748 72.3461 293.939 72.2996C294.129 72.2491 294.321 72.2238 294.515 72.2238C294.748 72.2238 294.985 72.2666 295.226 72.352C295.47 72.4374 295.684 72.5636 295.866 72.7305L295.231 73.4003Z" fill="#1B367C"/>
<path d="M298.673 73.4003C298.587 73.2916 298.475 73.2062 298.335 73.1441C298.199 73.0781 298.067 73.045 297.939 73.045C297.873 73.045 297.805 73.0509 297.735 73.0625C297.669 73.0742 297.609 73.0975 297.554 73.1324C297.5 73.1635 297.453 73.2062 297.415 73.2605C297.38 73.311 297.362 73.377 297.362 73.4586C297.362 73.5285 297.376 73.5867 297.403 73.6333C297.434 73.6799 297.477 73.7207 297.531 73.7556C297.589 73.7905 297.657 73.8235 297.735 73.8546C297.812 73.8818 297.9 73.9109 297.997 73.942C298.137 73.9886 298.282 74.041 298.434 74.0992C298.585 74.1536 298.723 74.2274 298.847 74.3205C298.972 74.4137 299.074 74.5302 299.156 74.67C299.237 74.8059 299.278 74.9767 299.278 75.1825C299.278 75.4194 299.234 75.6252 299.144 75.7999C299.059 75.9707 298.942 76.1124 298.795 76.225C298.647 76.3376 298.478 76.4211 298.288 76.4755C298.098 76.5298 297.902 76.557 297.7 76.557C297.405 76.557 297.119 76.5065 296.844 76.4056C296.568 76.3008 296.339 76.1532 296.156 75.963L296.809 75.299C296.91 75.4232 297.042 75.5281 297.205 75.6135C297.372 75.695 297.537 75.7358 297.7 75.7358C297.774 75.7358 297.846 75.728 297.915 75.7125C297.985 75.697 298.045 75.6717 298.096 75.6368C298.15 75.6019 298.193 75.5553 298.224 75.497C298.255 75.4388 298.271 75.3689 298.271 75.2874C298.271 75.2097 298.251 75.1437 298.212 75.0893C298.174 75.035 298.117 74.9864 298.044 74.9437C297.974 74.8971 297.884 74.8564 297.776 74.8214C297.671 74.7826 297.55 74.7418 297.415 74.6991C297.283 74.6564 297.152 74.6059 297.024 74.5477C296.9 74.4894 296.787 74.4157 296.686 74.3264C296.589 74.2332 296.51 74.1225 296.448 73.9944C296.389 73.8624 296.36 73.7032 296.36 73.5168C296.36 73.2877 296.407 73.0916 296.5 72.9286C296.593 72.7655 296.716 72.6315 296.867 72.5267C297.018 72.4219 297.189 72.3461 297.38 72.2996C297.57 72.2491 297.762 72.2238 297.956 72.2238C298.189 72.2238 298.426 72.2666 298.667 72.352C298.911 72.4374 299.125 72.5636 299.307 72.7305L298.673 73.4003Z" fill="#1B367C"/>
</g>
<g opacity="0.2">
<path d="M410.68 75.8814C410.498 76.0911 410.272 76.258 410.004 76.3823C409.737 76.5027 409.428 76.5628 409.078 76.5628C408.76 76.5628 408.465 76.5104 408.193 76.4056C407.925 76.3008 407.692 76.1532 407.494 75.963C407.296 75.7688 407.141 75.5378 407.028 75.2699C406.916 75.002 406.859 74.7069 406.859 74.3846C406.859 74.0546 406.916 73.7556 407.028 73.4877C407.145 73.2198 407.304 72.9926 407.506 72.8063C407.708 72.616 407.945 72.4704 408.216 72.3694C408.488 72.2685 408.781 72.218 409.096 72.218C409.387 72.218 409.672 72.2704 409.952 72.3753C410.235 72.4762 410.465 72.6257 410.639 72.8237L409.964 73.4993C409.87 73.3712 409.748 73.2761 409.597 73.2139C409.445 73.1518 409.29 73.1208 409.131 73.1208C408.956 73.1208 408.795 73.1538 408.647 73.2198C408.504 73.2819 408.379 73.3693 408.275 73.4819C408.17 73.5945 408.088 73.7284 408.03 73.8837C407.972 74.0352 407.943 74.2021 407.943 74.3846C407.943 74.571 407.972 74.7418 408.03 74.8971C408.088 75.0524 408.168 75.1864 408.269 75.299C408.374 75.4077 408.498 75.4931 408.642 75.5553C408.785 75.6174 408.942 75.6484 409.113 75.6484C409.311 75.6484 409.484 75.6096 409.632 75.532C409.779 75.4543 409.898 75.3534 409.987 75.2291L410.68 75.8814Z" fill="#1B367C"/>
<path d="M415.337 74.373C415.337 74.6991 415.281 74.9981 415.168 75.2699C415.055 75.5378 414.898 75.7688 414.696 75.963C414.498 76.1532 414.261 76.3008 413.986 76.4056C413.71 76.5104 413.411 76.5628 413.089 76.5628C412.766 76.5628 412.467 76.5104 412.192 76.4056C411.92 76.3008 411.683 76.1532 411.481 75.963C411.283 75.7688 411.128 75.5378 411.015 75.2699C410.903 74.9981 410.846 74.6991 410.846 74.373C410.846 74.0429 410.903 73.7459 411.015 73.4819C411.128 73.2139 411.283 72.9868 411.481 72.8004C411.683 72.6141 411.92 72.4704 412.192 72.3694C412.467 72.2685 412.766 72.218 413.089 72.218C413.411 72.218 413.71 72.2685 413.986 72.3694C414.261 72.4704 414.498 72.6141 414.696 72.8004C414.898 72.9868 415.055 73.2139 415.168 73.4819C415.281 73.7459 415.337 74.0429 415.337 74.373ZM414.271 74.373C414.271 74.1944 414.242 74.0274 414.184 73.8721C414.125 73.7168 414.044 73.5848 413.939 73.476C413.838 73.3634 413.714 73.2761 413.566 73.2139C413.423 73.1479 413.263 73.1149 413.089 73.1149C412.914 73.1149 412.755 73.1479 412.611 73.2139C412.467 73.2761 412.343 73.3634 412.238 73.476C412.134 73.5848 412.052 73.7168 411.994 73.8721C411.939 74.0274 411.912 74.1944 411.912 74.373C411.912 74.5593 411.941 74.7321 412 74.8913C412.058 75.0466 412.137 75.1806 412.238 75.2932C412.343 75.4058 412.467 75.4951 412.611 75.5611C412.755 75.6232 412.914 75.6543 413.089 75.6543C413.263 75.6543 413.423 75.6232 413.566 75.5611C413.71 75.4951 413.834 75.4058 413.939 75.2932C414.044 75.1806 414.125 75.0466 414.184 74.8913C414.242 74.7321 414.271 74.5593 414.271 74.373Z" fill="#1B367C"/>
<path d="M419.732 76.4522L419.755 73.5343H419.738L418.666 76.4522H417.967L416.924 73.5343H416.907L416.93 76.4522H415.993V72.3287H417.408L418.346 74.9728H418.369L419.266 72.3287H420.704V76.4522H419.732Z" fill="#1B367C"/>
<path d="M424.683 73.5983C424.683 73.8391 424.638 74.0429 424.549 74.2099C424.459 74.373 424.339 74.505 424.188 74.6059C424.036 74.7069 423.861 74.7806 423.663 74.8272C423.465 74.8738 423.26 74.8971 423.046 74.8971H422.551V76.4522H421.555V72.3287H423.069C423.295 72.3287 423.504 72.352 423.698 72.3986C423.896 72.4413 424.067 72.5131 424.211 72.6141C424.358 72.7111 424.473 72.8412 424.555 73.0043C424.64 73.1635 424.683 73.3615 424.683 73.5983ZM423.687 73.6042C423.687 73.5071 423.667 73.4275 423.629 73.3654C423.59 73.3033 423.537 73.2547 423.471 73.2198C423.405 73.1848 423.33 73.1615 423.244 73.1499C423.163 73.1382 423.077 73.1324 422.988 73.1324H422.551V74.105H422.97C423.064 74.105 423.153 74.0973 423.238 74.0818C423.324 74.0662 423.399 74.039 423.465 74.0002C423.535 73.9614 423.59 73.9109 423.629 73.8488C423.667 73.7828 423.687 73.7012 423.687 73.6042Z" fill="#1B367C"/>
<path d="M425.281 76.4522V72.3287H426.282V75.5844H427.878V76.4522H425.281Z" fill="#1B367C"/>
<path d="M428.346 76.4522V72.3287H431.118V73.1732H429.307V73.9478H431.019V74.7457H429.307V75.6019H431.223V76.4522H428.346Z" fill="#1B367C"/>
<path d="M433.649 73.179V76.4522H432.653V73.179H431.488V72.3287H434.813V73.179H433.649Z" fill="#1B367C"/>
<path d="M435.268 76.4522V72.3287H438.04V73.1732H436.229V73.9478H437.941V74.7457H436.229V75.6019H438.145V76.4522H435.268Z" fill="#1B367C"/>
<path d="M442.656 74.3788C442.656 74.7399 442.588 75.0524 442.452 75.3165C442.32 75.5766 442.143 75.7921 441.922 75.963C441.704 76.1299 441.458 76.2542 441.182 76.3357C440.906 76.4134 440.627 76.4522 440.343 76.4522H438.806V72.3287H440.297C440.588 72.3287 440.875 72.3636 441.159 72.4335C441.442 72.4995 441.695 72.6121 441.916 72.7713C442.137 72.9266 442.316 73.1363 442.452 73.4003C442.588 73.6644 442.656 73.9905 442.656 74.3788ZM441.619 74.3788C441.619 74.1458 441.58 73.9536 441.502 73.8022C441.429 73.6469 441.328 73.5246 441.2 73.4353C441.075 73.3421 440.932 73.2761 440.769 73.2372C440.609 73.1984 440.444 73.179 440.273 73.179H439.778V75.5902H440.25C440.429 75.5902 440.6 75.5708 440.763 75.532C440.93 75.4893 441.075 75.4213 441.2 75.3281C441.328 75.2349 441.429 75.1107 441.502 74.9554C441.58 74.8001 441.619 74.6079 441.619 74.3788Z" fill="#1B367C"/>
</g>
<g opacity="0.2">
<path d="M552.849 76.4522L552.529 75.6426H550.933L550.63 76.4522H549.547L551.277 72.3287H552.243L553.956 76.4522H552.849ZM551.743 73.4294L551.218 74.8447H552.255L551.743 73.4294Z" fill="#1B367C"/>
<path d="M556.504 76.4522L555.613 74.8156H555.275V76.4522H554.297V72.3287H555.869C556.067 72.3287 556.259 72.35 556.446 72.3927C556.636 72.4316 556.805 72.4995 556.952 72.5966C557.104 72.6937 557.224 72.8218 557.313 72.981C557.403 73.1402 557.447 73.3382 557.447 73.575C557.447 73.8546 557.372 74.0895 557.22 74.2798C557.069 74.47 556.859 74.6059 556.591 74.6875L557.669 76.4522H556.504ZM556.463 73.5925C556.463 73.4955 556.442 73.4178 556.399 73.3596C556.36 73.2974 556.308 73.2508 556.242 73.2198C556.18 73.1848 556.108 73.1615 556.026 73.1499C555.949 73.1382 555.873 73.1324 555.799 73.1324H555.269V74.0934H555.741C555.823 74.0934 555.906 74.0876 555.991 74.0759C556.077 74.0604 556.154 74.0352 556.224 74.0002C556.294 73.9653 556.351 73.9148 556.393 73.8488C556.44 73.7828 556.463 73.6974 556.463 73.5925Z" fill="#1B367C"/>
<path d="M561.787 75.8814C561.604 76.0911 561.379 76.258 561.111 76.3823C560.843 76.5027 560.535 76.5628 560.185 76.5628C559.867 76.5628 559.572 76.5104 559.3 76.4056C559.032 76.3008 558.799 76.1532 558.601 75.963C558.403 75.7688 558.248 75.5378 558.135 75.2699C558.023 75.002 557.966 74.7069 557.966 74.3846C557.966 74.0546 558.023 73.7556 558.135 73.4877C558.252 73.2198 558.411 72.9926 558.613 72.8063C558.815 72.616 559.052 72.4704 559.323 72.3694C559.595 72.2685 559.888 72.218 560.203 72.218C560.494 72.218 560.779 72.2704 561.059 72.3753C561.342 72.4762 561.571 72.6257 561.746 72.8237L561.071 73.4993C560.977 73.3712 560.855 73.2761 560.704 73.2139C560.552 73.1518 560.397 73.1208 560.238 73.1208C560.063 73.1208 559.902 73.1538 559.754 73.2198C559.611 73.2819 559.486 73.3693 559.382 73.4819C559.277 73.5945 559.195 73.7284 559.137 73.8837C559.079 74.0352 559.05 74.2021 559.05 74.3846C559.05 74.571 559.079 74.7418 559.137 74.8971C559.195 75.0524 559.275 75.1864 559.376 75.299C559.481 75.4077 559.605 75.4931 559.748 75.5553C559.892 75.6174 560.049 75.6484 560.22 75.6484C560.418 75.6484 560.591 75.6096 560.739 75.532C560.886 75.4543 561.005 75.3534 561.094 75.2291L561.787 75.8814Z" fill="#1B367C"/>
<path d="M564.817 76.4522V74.7282H563.21V76.4522H562.214V72.3287H563.21V73.8896H564.817V72.3287H565.813V76.4522H564.817Z" fill="#1B367C"/>
<path d="M566.662 76.4522V72.3287H567.663V76.4522H566.662Z" fill="#1B367C"/>
<path d="M570.56 76.4522H569.564L568.003 72.3287H569.121L570.077 75.2524H570.1L571.049 72.3287H572.15L570.56 76.4522Z" fill="#1B367C"/>
<path d="M572.486 76.4522V72.3287H575.258V73.1732H573.447V73.9478H575.159V74.7457H573.447V75.6019H575.363V76.4522H572.486Z" fill="#1B367C"/>
<path d="M579.873 74.3788C579.873 74.7399 579.805 75.0524 579.669 75.3165C579.537 75.5766 579.361 75.7921 579.139 75.963C578.922 76.1299 578.675 76.2542 578.4 76.3357C578.124 76.4134 577.844 76.4522 577.561 76.4522H576.023V72.3287H577.514C577.806 72.3287 578.093 72.3636 578.376 72.4335C578.66 72.4995 578.912 72.6121 579.134 72.7713C579.355 72.9266 579.533 73.1363 579.669 73.4003C579.805 73.6644 579.873 73.9905 579.873 74.3788ZM578.837 74.3788C578.837 74.1458 578.798 73.9536 578.72 73.8022C578.646 73.6469 578.545 73.5246 578.417 73.4353C578.293 73.3421 578.149 73.2761 577.986 73.2372C577.827 73.1984 577.662 73.179 577.491 73.179H576.996V75.5902H577.468C577.646 75.5902 577.817 75.5708 577.98 75.532C578.147 75.4893 578.293 75.4213 578.417 75.3281C578.545 75.2349 578.646 75.1107 578.72 74.9554C578.798 74.8001 578.837 74.6079 578.837 74.3788Z" fill="#1B367C"/>
</g>
<ellipse opacity="0.2" cx="73.0322" cy="177.048" rx="10.0536" ry="9.97689" fill="#E23166"/>
<ellipse cx="73.0331" cy="177.048" rx="8.04291" ry="7.98151" fill="#E23166"/>
<ellipse opacity="0.2" cx="73.0322" cy="228.041" rx="10.0536" ry="9.97689" fill="#1BD687"/>
<ellipse cx="73.0331" cy="228.041" rx="8.04291" ry="7.98151" fill="#1BD687"/>
<ellipse opacity="0.2" cx="73.0322" cy="126.055" rx="10.0536" ry="9.97689" fill="#F8941E"/>
<ellipse cx="73.0331" cy="126.055" rx="8.04291" ry="7.98151" fill="#F8941E"/>
<ellipse opacity="0.2" cx="73.0322" cy="279.035" rx="10.0536" ry="9.97689" fill="#E23166"/>
<ellipse cx="73.0331" cy="279.034" rx="8.04291" ry="7.98151" fill="#E23166"/>
<ellipse opacity="0.2" cx="73.0322" cy="330.027" rx="10.0536" ry="9.97689" fill="#1BD687"/>
<ellipse cx="73.0331" cy="330.027" rx="8.04291" ry="7.98151" fill="#1BD687"/>
</svg>
