<svg width="655" height="386" viewBox="0 0 655 386" fill="none" xmlns="http://www.w3.org/2000/svg">
<path d="M0 12.9748C0 5.80901 4.5059 0 10.0642 0H644.11C649.668 0 654.174 5.80901 654.174 12.9748V373.025C654.174 380.191 649.668 386 644.11 386H10.0642C4.5059 386 0 380.191 0 373.025V12.9748Z" fill="white"/>
<path d="M41.7001 28.0051C41.5745 27.8452 41.4089 27.7196 41.2033 27.6282C41.0035 27.5311 40.8093 27.4826 40.6209 27.4826C40.5238 27.4826 40.4239 27.4912 40.3211 27.5083C40.2241 27.5254 40.1356 27.5597 40.0556 27.6111C39.9757 27.6568 39.9072 27.7196 39.8501 27.7995C39.7987 27.8737 39.773 27.9708 39.773 28.0907C39.773 28.1935 39.793 28.2792 39.8329 28.3477C39.8786 28.4162 39.9414 28.4762 40.0214 28.5275C40.107 28.5789 40.2069 28.6275 40.3211 28.6731C40.4353 28.7131 40.5638 28.7559 40.7066 28.8016C40.9121 28.8701 41.1263 28.9472 41.3489 29.0329C41.5716 29.1128 41.7743 29.2213 41.9571 29.3584C42.1398 29.4954 42.2911 29.6667 42.411 29.8723C42.5309 30.0721 42.5909 30.3234 42.5909 30.626C42.5909 30.9743 42.5252 31.2769 42.3939 31.5339C42.2683 31.7851 42.097 31.9935 41.88 32.1591C41.663 32.3247 41.4146 32.4475 41.1348 32.5274C40.855 32.6074 40.5667 32.6473 40.2697 32.6473C39.8358 32.6473 39.4161 32.5731 39.0107 32.4247C38.6053 32.2705 38.2684 32.0535 38 31.7737L38.9593 30.7973C39.1078 30.98 39.3019 31.1342 39.5417 31.2598C39.7872 31.3797 40.0299 31.4397 40.2697 31.4397C40.3782 31.4397 40.4839 31.4283 40.5867 31.4054C40.6894 31.3826 40.7779 31.3455 40.8522 31.2941C40.9321 31.2427 40.9949 31.1742 41.0406 31.0885C41.0863 31.0029 41.1091 30.9001 41.1091 30.7802C41.1091 30.666 41.0806 30.5689 41.0235 30.4889C40.9664 30.409 40.8836 30.3376 40.7751 30.2748C40.6723 30.2063 40.541 30.1463 40.3811 30.095C40.2269 30.0379 40.0499 29.9779 39.8501 29.9151C39.6559 29.8523 39.4646 29.778 39.2762 29.6924C39.0935 29.6067 38.9279 29.4983 38.7794 29.3669C38.6367 29.2299 38.5196 29.0671 38.4283 28.8787C38.3426 28.6846 38.2998 28.4505 38.2998 28.1764C38.2998 27.8395 38.3683 27.5511 38.5053 27.3113C38.6424 27.0715 38.8222 26.8745 39.0449 26.7203C39.2676 26.5661 39.5189 26.4548 39.7987 26.3863C40.0785 26.312 40.3611 26.2749 40.6466 26.2749C40.9892 26.2749 41.3375 26.3377 41.6916 26.4634C42.0513 26.589 42.3653 26.7746 42.6337 27.0201L41.7001 28.0051Z" fill="#1B367C"/>
<path d="M48.6963 30.2063C48.6963 30.5717 48.6334 30.9058 48.5078 31.2084C48.3879 31.5053 48.2138 31.7623 47.9854 31.9793C47.757 32.1905 47.48 32.3561 47.1545 32.476C46.8348 32.596 46.4779 32.6559 46.0839 32.6559C45.6842 32.6559 45.3245 32.596 45.0047 32.476C44.6849 32.3561 44.4137 32.1905 44.191 31.9793C43.9683 31.7623 43.797 31.5053 43.6771 31.2084C43.5572 30.9058 43.4972 30.5717 43.4972 30.2063V26.4291H44.9533V30.0864C44.9533 30.252 44.9733 30.409 45.0133 30.5575C45.0589 30.7059 45.1246 30.8401 45.2103 30.96C45.3016 31.0742 45.4187 31.1656 45.5614 31.2341C45.7099 31.3026 45.8869 31.3369 46.0925 31.3369C46.298 31.3369 46.4722 31.3026 46.6149 31.2341C46.7634 31.1656 46.8833 31.0742 46.9747 30.96C47.066 30.8401 47.1317 30.7059 47.1717 30.5575C47.2116 30.409 47.2316 30.252 47.2316 30.0864V26.4291H48.6963V30.2063Z" fill="#1B367C"/>
<path d="M55.2681 32.1249C54.9712 32.279 54.6229 32.4047 54.2231 32.5017C53.8292 32.5988 53.398 32.6473 52.9298 32.6473C52.4445 32.6473 51.9962 32.5703 51.5851 32.4161C51.1797 32.2619 50.8285 32.0449 50.5316 31.7651C50.2404 31.4854 50.012 31.1513 49.8464 30.763C49.6808 30.369 49.598 29.9322 49.598 29.4526C49.598 28.9672 49.6808 28.5275 49.8464 28.1335C50.0177 27.7396 50.2518 27.4055 50.5487 27.1314C50.8456 26.8516 51.194 26.6375 51.5937 26.489C51.9934 26.3406 52.4245 26.2664 52.887 26.2664C53.3666 26.2664 53.812 26.3406 54.2231 26.489C54.6343 26.6318 54.9683 26.8259 55.2253 27.0715L54.3002 28.125C54.1575 27.9594 53.969 27.8252 53.7349 27.7224C53.5008 27.6139 53.2353 27.5597 52.9384 27.5597C52.6814 27.5597 52.4445 27.6082 52.2275 27.7053C52.0105 27.7967 51.8221 27.928 51.6622 28.0993C51.5023 28.2649 51.3767 28.4647 51.2853 28.6988C51.1997 28.9272 51.1568 29.1785 51.1568 29.4526C51.1568 29.7324 51.1968 29.9893 51.2768 30.2234C51.3567 30.4575 51.4738 30.6602 51.6279 30.8316C51.7878 30.9971 51.9819 31.1285 52.2104 31.2255C52.4445 31.3169 52.71 31.3626 53.0069 31.3626C53.1782 31.3626 53.3409 31.3512 53.4951 31.3283C53.6493 31.2998 53.792 31.2569 53.9234 31.1998V30.095H52.7671V28.913H55.2681V32.1249Z" fill="#1B367C"/>
<path d="M61.8508 32.1249C61.5539 32.279 61.2056 32.4047 60.8059 32.5017C60.4119 32.5988 59.9808 32.6473 59.5126 32.6473C59.0272 32.6473 58.579 32.5703 58.1678 32.4161C57.7624 32.2619 57.4113 32.0449 57.1143 31.7651C56.8231 31.4854 56.5947 31.1513 56.4291 30.763C56.2635 30.369 56.1807 29.9322 56.1807 29.4526C56.1807 28.9672 56.2635 28.5275 56.4291 28.1335C56.6004 27.7396 56.8345 27.4055 57.1315 27.1314C57.4284 26.8516 57.7767 26.6375 58.1764 26.489C58.5761 26.3406 59.0072 26.2664 59.4697 26.2664C59.9494 26.2664 60.3948 26.3406 60.8059 26.489C61.217 26.6318 61.5511 26.8259 61.808 27.0715L60.883 28.125C60.7402 27.9594 60.5518 27.8252 60.3177 27.7224C60.0836 27.6139 59.818 27.5597 59.5211 27.5597C59.2642 27.5597 59.0272 27.6082 58.8102 27.7053C58.5932 27.7967 58.4048 27.928 58.2449 28.0993C58.085 28.2649 57.9594 28.4647 57.8681 28.6988C57.7824 28.9272 57.7396 29.1785 57.7396 29.4526C57.7396 29.7324 57.7796 29.9893 57.8595 30.2234C57.9394 30.4575 58.0565 30.6602 58.2107 30.8316C58.3705 30.9971 58.5647 31.1285 58.7931 31.2255C59.0272 31.3169 59.2927 31.3626 59.5896 31.3626C59.7609 31.3626 59.9237 31.3512 60.0779 31.3283C60.232 31.2998 60.3748 31.2569 60.5061 31.1998V30.095H59.3498V28.913H61.8508V32.1249Z" fill="#1B367C"/>
<path d="M63.0461 32.4932V26.4291H67.1231V27.671H64.4594V28.8102H66.9775V29.9836H64.4594V31.2427H67.2773V32.4932H63.0461Z" fill="#1B367C"/>
<path d="M71.4521 28.0051C71.3265 27.8452 71.1609 27.7196 70.9553 27.6282C70.7555 27.5311 70.5613 27.4826 70.3729 27.4826C70.2758 27.4826 70.1759 27.4912 70.0731 27.5083C69.976 27.5254 69.8875 27.5597 69.8076 27.6111C69.7277 27.6568 69.6591 27.7196 69.602 27.7995C69.5506 27.8737 69.5249 27.9708 69.5249 28.0907C69.5249 28.1935 69.5449 28.2792 69.5849 28.3477C69.6306 28.4162 69.6934 28.4762 69.7733 28.5275C69.859 28.5789 69.9589 28.6275 70.0731 28.6731C70.1873 28.7131 70.3158 28.7559 70.4585 28.8016C70.6641 28.8701 70.8782 28.9472 71.1009 29.0329C71.3236 29.1128 71.5263 29.2213 71.709 29.3584C71.8918 29.4954 72.0431 29.6667 72.163 29.8723C72.2829 30.0721 72.3429 30.3234 72.3429 30.626C72.3429 30.9743 72.2772 31.2769 72.1459 31.5339C72.0202 31.7851 71.8489 31.9935 71.632 32.1591C71.415 32.3247 71.1666 32.4475 70.8868 32.5274C70.607 32.6074 70.3186 32.6473 70.0217 32.6473C69.5878 32.6473 69.1681 32.5731 68.7627 32.4247C68.3572 32.2705 68.0203 32.0535 67.752 31.7737L68.7113 30.7973C68.8597 30.98 69.0539 31.1342 69.2937 31.2598C69.5392 31.3797 69.7819 31.4397 70.0217 31.4397C70.1302 31.4397 70.2358 31.4283 70.3386 31.4054C70.4414 31.3826 70.5299 31.3455 70.6041 31.2941C70.6841 31.2427 70.7469 31.1742 70.7926 31.0885C70.8383 31.0029 70.8611 30.9001 70.8611 30.7802C70.8611 30.666 70.8326 30.5689 70.7754 30.4889C70.7183 30.409 70.6356 30.3376 70.5271 30.2748C70.4243 30.2063 70.2929 30.1463 70.1331 30.095C69.9789 30.0379 69.8019 29.9779 69.602 29.9151C69.4079 29.8523 69.2166 29.778 69.0282 29.6924C68.8454 29.6067 68.6799 29.4983 68.5314 29.3669C68.3886 29.2299 68.2716 29.0671 68.1802 28.8787C68.0946 28.6846 68.0518 28.4505 68.0518 28.1764C68.0518 27.8395 68.1203 27.5511 68.2573 27.3113C68.3944 27.0715 68.5742 26.8745 68.7969 26.7203C69.0196 26.5661 69.2708 26.4548 69.5506 26.3863C69.8304 26.312 70.1131 26.2749 70.3986 26.2749C70.7412 26.2749 71.0895 26.3377 71.4435 26.4634C71.8033 26.589 72.1173 26.7746 72.3857 27.0201L71.4521 28.0051Z" fill="#1B367C"/>
<path d="M75.7957 27.6796V32.4932H74.331V27.6796H72.618V26.4291H77.5087V27.6796H75.7957Z" fill="#1B367C"/>
<path d="M78.1772 32.4932V26.4291H79.6504V32.4932H78.1772Z" fill="#1B367C"/>
<path d="M87.225 29.4354C87.225 29.9151 87.1422 30.3548 86.9767 30.7545C86.8111 31.1485 86.5798 31.4882 86.2829 31.7737C85.9917 32.0535 85.6433 32.2705 85.2379 32.4247C84.8325 32.5788 84.3928 32.6559 83.9189 32.6559C83.445 32.6559 83.0053 32.5788 82.5999 32.4247C82.2002 32.2705 81.8519 32.0535 81.5549 31.7737C81.2637 31.4882 81.0353 31.1485 80.8697 30.7545C80.7042 30.3548 80.6213 29.9151 80.6213 29.4354C80.6213 28.9501 80.7042 28.5133 80.8697 28.125C81.0353 27.731 81.2637 27.3969 81.5549 27.1229C81.8519 26.8488 82.2002 26.6375 82.5999 26.489C83.0053 26.3406 83.445 26.2664 83.9189 26.2664C84.3928 26.2664 84.8325 26.3406 85.2379 26.489C85.6433 26.6375 85.9917 26.8488 86.2829 27.1229C86.5798 27.3969 86.8111 27.731 86.9767 28.125C87.1422 28.5133 87.225 28.9501 87.225 29.4354ZM85.6576 29.4354C85.6576 29.1728 85.6148 28.9272 85.5291 28.6988C85.4435 28.4704 85.3236 28.2763 85.1694 28.1164C85.021 27.9508 84.8382 27.8223 84.6213 27.731C84.41 27.6339 84.1759 27.5854 83.9189 27.5854C83.662 27.5854 83.4278 27.6339 83.2166 27.731C83.0053 27.8223 82.8226 27.9508 82.6684 28.1164C82.5142 28.2763 82.3943 28.4704 82.3087 28.6988C82.2287 28.9272 82.1888 29.1728 82.1888 29.4354C82.1888 29.7095 82.2316 29.9636 82.3172 30.1977C82.4029 30.4261 82.5199 30.6231 82.6684 30.7887C82.8226 30.9543 83.0053 31.0856 83.2166 31.1827C83.4278 31.2741 83.662 31.3198 83.9189 31.3198C84.1759 31.3198 84.41 31.2741 84.6213 31.1827C84.8325 31.0856 85.0152 30.9543 85.1694 30.7887C85.3236 30.6231 85.4435 30.4261 85.5291 30.1977C85.6148 29.9636 85.6576 29.7095 85.6576 29.4354Z" fill="#1B367C"/>
<path d="M92.0436 32.4932L89.6026 28.5275H89.5769L89.6111 32.4932H88.1893V26.4291H89.8595L92.292 30.3862H92.3177L92.2835 26.4291H93.7053V32.4932H92.0436Z" fill="#1B367C"/>
<path d="M98.1594 28.0051C98.0338 27.8452 97.8682 27.7196 97.6627 27.6282C97.4628 27.5311 97.2687 27.4826 97.0802 27.4826C96.9832 27.4826 96.8832 27.4912 96.7805 27.5083C96.6834 27.5254 96.5949 27.5597 96.5149 27.6111C96.435 27.6568 96.3665 27.7196 96.3094 27.7995C96.258 27.8737 96.2323 27.9708 96.2323 28.0907C96.2323 28.1935 96.2523 28.2792 96.2923 28.3477C96.3379 28.4162 96.4007 28.4762 96.4807 28.5275C96.5663 28.5789 96.6663 28.6275 96.7805 28.6731C96.8947 28.7131 97.0231 28.7559 97.1659 28.8016C97.3715 28.8701 97.5856 28.9472 97.8083 29.0329C98.031 29.1128 98.2337 29.2213 98.4164 29.3584C98.5991 29.4954 98.7504 29.6667 98.8703 29.8723C98.9903 30.0721 99.0502 30.3234 99.0502 30.626C99.0502 30.9743 98.9845 31.2769 98.8532 31.5339C98.7276 31.7851 98.5563 31.9935 98.3393 32.1591C98.1223 32.3247 97.8739 32.4475 97.5941 32.5274C97.3144 32.6074 97.026 32.6473 96.7291 32.6473C96.2951 32.6473 95.8754 32.5731 95.47 32.4247C95.0646 32.2705 94.7277 32.0535 94.4593 31.7737L95.4186 30.7973C95.5671 30.98 95.7612 31.1342 96.001 31.2598C96.2466 31.3797 96.4892 31.4397 96.7291 31.4397C96.8376 31.4397 96.9432 31.4283 97.046 31.4054C97.1488 31.3826 97.2373 31.3455 97.3115 31.2941C97.3914 31.2427 97.4543 31.1742 97.4999 31.0885C97.5456 31.0029 97.5684 30.9001 97.5684 30.7802C97.5684 30.666 97.5399 30.5689 97.4828 30.4889C97.4257 30.409 97.3429 30.3376 97.2344 30.2748C97.1316 30.2063 97.0003 30.1463 96.8404 30.095C96.6862 30.0379 96.5092 29.9779 96.3094 29.9151C96.1152 29.8523 95.924 29.778 95.7355 29.6924C95.5528 29.6067 95.3872 29.4983 95.2387 29.3669C95.096 29.2299 94.9789 29.0671 94.8876 28.8787C94.8019 28.6846 94.7591 28.4505 94.7591 28.1764C94.7591 27.8395 94.8276 27.5511 94.9647 27.3113C95.1017 27.0715 95.2816 26.8745 95.5043 26.7203C95.727 26.5661 95.9782 26.4548 96.258 26.3863C96.5378 26.312 96.8204 26.2749 97.1059 26.2749C97.4485 26.2749 97.7969 26.3377 98.1509 26.4634C98.5106 26.589 98.8247 26.7746 99.093 27.0201L98.1594 28.0051Z" fill="#1B367C"/>
<g opacity="0.7">
<path d="M37 113.039C37 108.595 40.6668 104.993 45.19 104.993L609.687 104.993C614.21 104.993 617.877 108.595 617.877 113.039V139.071C617.877 143.515 614.21 147.118 609.687 147.118H45.19C40.6668 147.118 37 143.515 37 139.071V113.039Z" fill="#EFF0F2"/>
<path d="M85.0332 121.416C85.0332 120.305 85.9656 119.404 87.1157 119.404H194.574C195.724 119.404 196.656 120.305 196.656 121.416C196.656 122.526 195.724 123.427 194.574 123.427H87.1157C85.9656 123.427 85.0332 122.526 85.0332 121.416Z" fill="#C4C4C4"/>
<path d="M85.0332 131.875C85.0332 130.764 85.9656 129.864 87.1157 129.864H143.76C144.91 129.864 145.843 130.764 145.843 131.875C145.843 132.986 144.91 133.887 143.76 133.887H87.1157C85.9656 133.887 85.0332 132.986 85.0332 131.875Z" fill="#DFDFDF"/>
</g>
<g opacity="0.7">
<path d="M37 164.032C37 159.588 40.6668 155.986 45.19 155.986L609.687 155.986C614.21 155.986 617.877 159.588 617.877 164.032V190.064C617.877 194.508 614.21 198.111 609.687 198.111H45.19C40.6668 198.111 37 194.508 37 190.064V164.032Z" fill="#EFF0F2"/>
<path d="M85.0332 172.408C85.0332 171.298 85.9656 170.397 87.1157 170.397H194.574C195.724 170.397 196.656 171.298 196.656 172.408C196.656 173.519 195.724 174.42 194.574 174.42H87.1157C85.9656 174.42 85.0332 173.519 85.0332 172.408Z" fill="#C4C4C4"/>
<path d="M85.0332 182.868C85.0332 181.757 85.9656 180.856 87.1157 180.856H143.76C144.91 180.856 145.843 181.757 145.843 182.868C145.843 183.979 144.91 184.879 143.76 184.879H87.1157C85.9656 184.879 85.0332 183.979 85.0332 182.868Z" fill="#DFDFDF"/>
</g>
<g opacity="0.7">
<path d="M37 215.025C37 210.581 40.6668 206.979 45.19 206.979L609.687 206.979C614.21 206.979 617.877 210.581 617.877 215.025V241.057C617.877 245.501 614.21 249.103 609.687 249.103H45.19C40.6668 249.103 37 245.501 37 241.057V215.025Z" fill="#EFF0F2"/>
<path d="M85.0332 223.401C85.0332 222.29 85.9656 221.39 87.1157 221.39H194.574C195.724 221.39 196.656 222.29 196.656 223.401C196.656 224.512 195.724 225.413 194.574 225.413H87.1157C85.9656 225.413 85.0332 224.512 85.0332 223.401Z" fill="#C4C4C4"/>
<path d="M85.0332 233.861C85.0332 232.75 85.9656 231.85 87.1157 231.85H143.76C144.91 231.85 145.843 232.75 145.843 233.861C145.843 234.972 144.91 235.873 143.76 235.873H87.1157C85.9656 235.873 85.0332 234.972 85.0332 233.861Z" fill="#DFDFDF"/>
</g>
<g opacity="0.7">
<path d="M37 266.018C37 261.574 40.6668 257.972 45.19 257.972L609.687 257.972C614.21 257.972 617.877 261.574 617.877 266.018V292.05C617.877 296.494 614.21 300.097 609.687 300.097H45.19C40.6668 300.097 37 296.494 37 292.05V266.018Z" fill="#EFF0F2"/>
<path d="M85.0332 274.395C85.0332 273.284 85.9656 272.383 87.1157 272.383H194.574C195.724 272.383 196.656 273.284 196.656 274.395C196.656 275.506 195.724 276.406 194.574 276.406H87.1157C85.9656 276.406 85.0332 275.506 85.0332 274.395Z" fill="#C4C4C4"/>
<path d="M85.0332 284.854C85.0332 283.743 85.9656 282.843 87.1157 282.843H143.76C144.91 282.843 145.843 283.743 145.843 284.854C145.843 285.965 144.91 286.866 143.76 286.866H87.1157C85.9656 286.866 85.0332 285.965 85.0332 284.854Z" fill="#DFDFDF"/>
</g>
<g opacity="0.7">
<path d="M37 317.011C37 312.567 40.6668 308.965 45.19 308.965L609.687 308.965C614.21 308.965 617.877 312.567 617.877 317.011V343.043C617.877 347.487 614.21 351.09 609.687 351.09H45.19C40.6668 351.09 37 347.487 37 343.043V317.011Z" fill="#EFF0F2"/>
<path d="M85.0332 325.387C85.0332 324.277 85.9656 323.376 87.1157 323.376H194.574C195.724 323.376 196.656 324.277 196.656 325.387C196.656 326.498 195.724 327.399 194.574 327.399H87.1157C85.9656 327.399 85.0332 326.498 85.0332 325.387Z" fill="#C4C4C4"/>
<path d="M85.0332 335.847C85.0332 334.736 85.9656 333.835 87.1157 333.835H143.76C144.91 333.835 145.843 334.736 145.843 335.847C145.843 336.958 144.91 337.858 143.76 337.858H87.1157C85.9656 337.858 85.0332 336.958 85.0332 335.847Z" fill="#DFDFDF"/>
</g>
<path d="M560.084 123.196C560.084 120.769 562.106 118.801 564.6 118.801L570.129 118.801C572.623 118.801 574.644 120.769 574.644 123.196V128.69C574.644 131.117 572.623 133.085 570.129 133.085L564.6 133.085C562.106 133.085 560.084 131.117 560.084 128.69V123.196Z" fill="#3B5998"/>
<path d="M566.676 128.416V126.286H565.908V125.44H566.676V124.77C566.676 124.417 566.783 124.144 566.996 123.952C567.209 123.753 567.491 123.654 567.844 123.654C568.13 123.654 568.363 123.667 568.542 123.691V124.445H568.063C567.884 124.445 567.761 124.482 567.694 124.556C567.641 124.618 567.614 124.718 567.614 124.854V125.44H568.462L568.343 126.286H567.614V128.416H566.676Z" fill="white"/>
<path d="M560.084 328.012C560.084 325.585 562.106 323.617 564.6 323.617L570.129 323.617C572.623 323.617 574.644 325.585 574.644 328.012V333.506C574.644 335.934 572.623 337.901 570.129 337.901L564.6 337.901C562.106 337.901 560.084 335.934 560.084 333.506V328.012Z" fill="#3B5998"/>
<path d="M566.676 333.232V331.102H565.908V330.256H566.676V329.587C566.676 329.233 566.783 328.96 566.996 328.768C567.209 328.57 567.491 328.471 567.844 328.471C568.13 328.471 568.363 328.483 568.542 328.508V329.261H568.063C567.884 329.261 567.761 329.298 567.694 329.373C567.641 329.435 567.614 329.534 567.614 329.67V330.256H568.462L568.343 331.102H567.614V333.232H566.676Z" fill="white"/>
<path d="M560.084 174.616C560.084 172.203 561.928 170.248 564.353 170.248H570.526C572.801 170.248 574.646 172.203 574.646 174.616V180.075C574.646 182.488 572.801 184.443 570.526 184.443H564.353C561.928 184.443 560.084 182.488 560.084 180.075V174.616Z" fill="#3166ED"/>
<path fill-rule="evenodd" clip-rule="evenodd" d="M568.29 175.568C568.382 175.607 568.425 175.715 568.387 175.809L568.221 175.739L568.054 175.668C568.093 175.574 568.198 175.529 568.29 175.568ZM568.221 175.739C568.054 175.668 568.054 175.668 568.054 175.668L566.667 179.099C566.629 179.193 566.672 179.301 566.764 179.34C566.856 179.379 566.961 179.335 567 179.24L568.387 175.809C568.387 175.809 568.387 175.809 568.221 175.739ZM566.171 176.163C566.24 176.236 566.238 176.353 566.166 176.424L565.261 177.323L566.144 178.284C566.212 178.358 566.209 178.475 566.136 178.545C566.064 178.615 565.95 178.612 565.882 178.537L564.877 177.443C564.809 177.37 564.812 177.254 564.882 177.184L565.916 176.159C565.987 176.088 566.101 176.09 566.171 176.163ZM568.917 176.2C568.988 176.128 569.102 176.129 569.172 176.202L570.178 177.254C570.247 177.327 570.246 177.442 570.177 177.514L569.143 178.581C569.073 178.653 568.959 178.654 568.888 178.582C568.818 178.51 568.817 178.393 568.888 178.32L569.796 177.383L568.915 176.461C568.845 176.388 568.846 176.271 568.917 176.2Z" fill="white"/>
<path d="M568.387 175.809C568.425 175.715 568.382 175.607 568.29 175.568C568.198 175.529 568.093 175.574 568.054 175.668M568.387 175.809L568.221 175.739M568.387 175.809C568.387 175.809 568.387 175.809 568.221 175.739M568.387 175.809L567 179.24C566.961 179.335 566.856 179.379 566.764 179.34C566.672 179.301 566.629 179.193 566.667 179.099L568.054 175.668M568.221 175.739L568.054 175.668M568.221 175.739C568.054 175.668 568.054 175.668 568.054 175.668M566.166 176.424C566.238 176.353 566.24 176.236 566.171 176.163C566.101 176.09 565.987 176.088 565.916 176.159L564.882 177.184C564.812 177.254 564.809 177.37 564.877 177.443L565.882 178.537C565.95 178.612 566.064 178.615 566.136 178.545C566.209 178.475 566.212 178.358 566.144 178.284L565.261 177.323L566.166 176.424ZM569.172 176.202C569.102 176.129 568.988 176.128 568.917 176.2C568.846 176.271 568.845 176.388 568.915 176.461L569.796 177.383L568.888 178.32C568.817 178.393 568.818 178.51 568.888 178.582C568.959 178.654 569.073 178.653 569.143 178.581L570.177 177.514C570.246 177.442 570.247 177.327 570.178 177.254L569.172 176.202Z" stroke="white" stroke-width="0.2" stroke-linecap="round" stroke-linejoin="round"/>
<path d="M560.084 276.694C560.084 274.23 561.765 272.171 564.295 272.171H570.764C573.295 272.171 574.644 274.23 574.644 276.694V282.268C574.644 284.731 572.593 286.728 570.062 286.728H564.666C562.135 286.728 560.084 284.731 560.084 282.268V276.694Z" fill="#1CA1F1"/>
<path d="M569.92 277.904C569.809 277.954 569.694 277.992 569.576 278.021C569.706 277.897 569.804 277.742 569.859 277.569C569.875 277.519 569.822 277.477 569.777 277.503C569.612 277.601 569.435 277.674 569.25 277.721C569.239 277.723 569.228 277.725 569.217 277.725C569.183 277.725 569.151 277.712 569.125 277.69C568.928 277.516 568.674 277.42 568.411 277.42C568.298 277.42 568.183 277.438 568.07 277.473C567.72 277.582 567.451 277.87 567.366 278.226C567.334 278.359 567.326 278.493 567.341 278.623C567.342 278.637 567.335 278.648 567.331 278.653C567.323 278.661 567.312 278.666 567.301 278.666L567.297 278.666C566.532 278.595 565.842 278.226 565.355 277.628C565.33 277.598 565.282 277.601 565.262 277.635C565.167 277.799 565.116 277.987 565.116 278.177C565.116 278.47 565.234 278.745 565.438 278.946C565.352 278.925 565.269 278.893 565.192 278.851C565.154 278.83 565.109 278.856 565.108 278.899C565.103 279.333 565.357 279.72 565.738 279.893C565.73 279.894 565.722 279.894 565.715 279.894C565.654 279.894 565.593 279.888 565.533 279.876C565.491 279.868 565.456 279.908 565.469 279.949C565.592 280.335 565.925 280.619 566.322 280.684C565.992 280.905 565.608 281.022 565.208 281.022L565.083 281.022C565.045 281.022 565.012 281.047 565.003 281.084C564.993 281.121 565.011 281.16 565.043 281.179C565.494 281.441 566.008 281.579 566.53 281.579C566.987 281.579 567.415 281.489 567.801 281.31C568.155 281.146 568.467 280.912 568.73 280.613C568.975 280.336 569.167 280.015 569.299 279.66C569.426 279.322 569.493 278.961 569.493 278.617V278.6C569.493 278.545 569.518 278.493 569.562 278.458C569.727 278.323 569.871 278.165 569.99 277.987C570.022 277.94 569.972 277.881 569.92 277.904Z" fill="white"/>
<path d="M560.084 225.247C560.084 222.784 561.765 220.724 564.295 220.724H570.764C573.295 220.724 574.644 222.784 574.644 225.247V230.821C574.644 233.285 572.593 235.281 570.062 235.281H564.666C562.135 235.281 560.084 233.285 560.084 230.821V225.247Z" fill="#E1306C"/>
<path d="M567.419 226.753C567.19 226.753 566.976 226.81 566.777 226.925C566.585 227.033 566.43 227.184 566.311 227.378C566.201 227.565 566.145 227.77 566.145 227.993C566.145 228.216 566.201 228.424 566.311 228.618C566.43 228.805 566.585 228.956 566.777 229.071C566.976 229.179 567.19 229.233 567.419 229.233C567.648 229.233 567.859 229.179 568.051 229.071C568.25 228.956 568.406 228.805 568.516 228.618C568.635 228.424 568.694 228.216 568.694 227.993C568.694 227.77 568.635 227.565 568.516 227.378C568.406 227.184 568.25 227.033 568.051 226.925C567.859 226.81 567.648 226.753 567.419 226.753ZM567.419 228.802C567.19 228.802 566.995 228.723 566.832 228.564C566.67 228.406 566.588 228.216 566.588 227.993C566.588 227.77 566.67 227.579 566.832 227.421C566.995 227.263 567.19 227.184 567.419 227.184C567.648 227.184 567.844 227.263 568.007 227.421C568.169 227.579 568.25 227.77 568.25 227.993C568.25 228.216 568.169 228.406 568.007 228.564C567.844 228.723 567.648 228.802 567.419 228.802ZM569.048 226.699C569.041 226.778 569.008 226.846 568.948 226.904C568.897 226.961 568.83 226.99 568.749 226.99C568.668 226.99 568.598 226.961 568.538 226.904C568.479 226.846 568.45 226.778 568.45 226.699C568.45 226.62 568.479 226.551 568.538 226.494C568.598 226.436 568.668 226.408 568.749 226.408C568.83 226.408 568.9 226.436 568.96 226.494C569.019 226.551 569.048 226.62 569.048 226.699ZM569.89 226.99C569.875 226.781 569.842 226.602 569.791 226.451C569.724 226.271 569.621 226.116 569.48 225.987C569.347 225.85 569.189 225.75 569.004 225.685C568.849 225.635 568.664 225.606 568.45 225.599C568.243 225.584 567.9 225.577 567.419 225.577C566.939 225.577 566.592 225.584 566.378 225.599C566.171 225.606 565.99 225.635 565.835 225.685C565.65 225.75 565.488 225.85 565.347 225.987C565.214 226.116 565.115 226.271 565.048 226.451C564.997 226.602 564.963 226.781 564.949 226.99C564.941 227.191 564.938 227.526 564.938 227.993C564.938 228.46 564.941 228.798 564.949 229.007C564.963 229.208 564.997 229.384 565.048 229.535C565.115 229.715 565.214 229.873 565.347 230.01C565.488 230.139 565.65 230.232 565.835 230.29C565.99 230.347 566.171 230.38 566.378 230.387C566.592 230.401 566.939 230.409 567.419 230.409C567.9 230.409 568.243 230.401 568.45 230.387C568.664 230.38 568.849 230.351 569.004 230.301C569.189 230.236 569.347 230.139 569.48 230.01C569.621 229.873 569.724 229.715 569.791 229.535C569.842 229.384 569.872 229.208 569.879 229.007C569.894 228.798 569.901 228.46 569.901 227.993C569.901 227.526 569.898 227.191 569.89 226.99ZM569.358 229.416C569.27 229.632 569.111 229.787 568.882 229.88C568.764 229.923 568.564 229.952 568.284 229.966C568.129 229.974 567.9 229.977 567.597 229.977H567.242C566.947 229.977 566.718 229.974 566.555 229.966C566.282 229.952 566.082 229.923 565.957 229.88C565.735 229.794 565.576 229.639 565.48 229.416C565.436 229.294 565.407 229.1 565.392 228.834C565.384 228.676 565.381 228.453 565.381 228.165V227.82C565.381 227.533 565.384 227.31 565.392 227.152C565.407 226.878 565.436 226.684 565.48 226.569C565.569 226.346 565.728 226.192 565.957 226.106C566.082 226.062 566.282 226.034 566.555 226.019C566.718 226.012 566.947 226.009 567.242 226.009H567.597C567.892 226.009 568.121 226.012 568.284 226.019C568.564 226.034 568.764 226.062 568.882 226.106C569.111 226.192 569.27 226.346 569.358 226.569C569.403 226.684 569.432 226.878 569.447 227.152C569.454 227.303 569.458 227.526 569.458 227.82V228.165C569.458 228.453 569.454 228.676 569.447 228.834C569.432 229.1 569.403 229.294 569.358 229.416Z" fill="white"/>
<g opacity="0.7">
<path d="M37 62.0464C37 57.6025 40.6668 54 45.19 54L609.687 54C614.21 54 617.877 57.6025 617.877 62.0464V88.0783C617.877 92.5222 614.21 96.1247 609.687 96.1247H45.19C40.6668 96.1247 37 92.5222 37 88.0783V62.0464Z" fill="#EFF0F2"/>
</g>
<path d="M41.7344 65.4716C41.7344 62.1972 44.7298 59.5427 48.4249 59.5427L171.293 59.5427C174.988 59.5427 177.984 62.1972 177.984 65.4716V84.6531C177.984 87.9275 174.988 90.582 171.293 90.582L48.4249 90.582C44.7298 90.582 41.7344 87.9275 41.7344 84.6531V65.4716Z" fill="#EFF0F2"/>
<path d="M79.9568 76.4522L78.2969 73.7556H78.2795L78.3027 76.4522H77.3359V72.3287H78.4716L80.1257 75.0194H80.1432L80.1199 72.3287H81.0867V76.4522H79.9568Z" fill="#C4C4C4"/>
<path d="M81.9373 76.4522V72.3287H84.7096V73.1732H82.8982V73.9478H84.6105V74.7457H82.8982V75.6019H84.8144V76.4522H81.9373Z" fill="#C4C4C4"/>
<path d="M89.8431 76.4522H88.8588L88.0434 73.6624H88.026L87.2106 76.4522H86.2205L85.0498 72.3287H86.1215L86.7738 75.0719H86.7912L87.5251 72.3287H88.5618L89.3015 75.0719H89.3189L89.9829 72.3287H91.0196L89.8431 76.4522Z" fill="#C4C4C4"/>
<path d="M95.013 73.4003C94.9276 73.2916 94.815 73.2062 94.6752 73.1441C94.5393 73.0781 94.4073 73.045 94.2792 73.045C94.2132 73.045 94.1452 73.0509 94.0754 73.0625C94.0093 73.0742 93.9492 73.0975 93.8948 73.1324C93.8404 73.1635 93.7939 73.2062 93.755 73.2605C93.7201 73.311 93.7026 73.377 93.7026 73.4586C93.7026 73.5285 93.7162 73.5867 93.7434 73.6333C93.7744 73.6799 93.8172 73.7207 93.8715 73.7556C93.9298 73.7905 93.9977 73.8235 94.0754 73.8546C94.153 73.8818 94.2404 73.9109 94.3374 73.942C94.4772 73.9886 94.6228 74.041 94.7743 74.0992C94.9257 74.1536 95.0635 74.2274 95.1878 74.3205C95.312 74.4137 95.4149 74.5302 95.4965 74.67C95.578 74.8059 95.6188 74.9767 95.6188 75.1825C95.6188 75.4194 95.5741 75.6252 95.4848 75.7999C95.3994 75.9707 95.2829 76.1124 95.1354 76.225C94.9878 76.3376 94.8189 76.4211 94.6287 76.4755C94.4384 76.5298 94.2423 76.557 94.0404 76.557C93.7453 76.557 93.4599 76.5065 93.1843 76.4056C92.9086 76.3008 92.6795 76.1532 92.497 75.963L93.1493 75.299C93.2503 75.4232 93.3823 75.5281 93.5454 75.6135C93.7123 75.695 93.8773 75.7358 94.0404 75.7358C94.1142 75.7358 94.186 75.728 94.2559 75.7125C94.3258 75.697 94.386 75.6717 94.4365 75.6368C94.4908 75.6019 94.5335 75.5553 94.5646 75.497C94.5956 75.4388 94.6112 75.3689 94.6112 75.2874C94.6112 75.2097 94.5918 75.1437 94.5529 75.0893C94.5141 75.035 94.4578 74.9864 94.384 74.9437C94.3141 74.8971 94.2248 74.8564 94.1161 74.8214C94.0113 74.7826 93.8909 74.7418 93.755 74.6991C93.623 74.6564 93.4929 74.6059 93.3648 74.5477C93.2406 74.4894 93.128 74.4157 93.027 74.3264C92.9299 74.2332 92.8503 74.1225 92.7882 73.9944C92.73 73.8624 92.7009 73.7032 92.7009 73.5168C92.7009 73.2877 92.7474 73.0916 92.8406 72.9286C92.9338 72.7655 93.0561 72.6315 93.2076 72.5267C93.359 72.4219 93.5298 72.3461 93.7201 72.2996C93.9103 72.2491 94.1025 72.2238 94.2967 72.2238C94.5296 72.2238 94.7665 72.2666 95.0072 72.352C95.2518 72.4374 95.4654 72.5636 95.6479 72.7305L95.013 73.4003Z" fill="#C4C4C4"/>
<path d="M99.7703 74.8971C99.7703 75.1456 99.7276 75.3728 99.6422 75.5786C99.5607 75.7805 99.4422 75.9552 99.2869 76.1027C99.1316 76.2464 98.9433 76.359 98.722 76.4405C98.5046 76.5221 98.2619 76.5628 97.994 76.5628C97.7222 76.5628 97.4776 76.5221 97.2601 76.4405C97.0427 76.359 96.8583 76.2464 96.7068 76.1027C96.5554 75.9552 96.4389 75.7805 96.3574 75.5786C96.2758 75.3728 96.2351 75.1456 96.2351 74.8971V72.3287H97.2252V74.8156C97.2252 74.9282 97.2388 75.035 97.266 75.1359C97.297 75.2369 97.3417 75.3281 97.3999 75.4097C97.462 75.4873 97.5416 75.5494 97.6387 75.596C97.7397 75.6426 97.86 75.6659 97.9998 75.6659C98.1396 75.6659 98.258 75.6426 98.3551 75.596C98.456 75.5494 98.5376 75.4873 98.5997 75.4097C98.6618 75.3281 98.7065 75.2369 98.7336 75.1359C98.7608 75.035 98.7744 74.9282 98.7744 74.8156V72.3287H99.7703V74.8971Z" fill="#C4C4C4"/>
<path d="M104.239 76.2017C104.037 76.3066 103.8 76.392 103.529 76.458C103.261 76.524 102.968 76.557 102.649 76.557C102.319 76.557 102.014 76.5046 101.735 76.3998C101.459 76.2949 101.22 76.1474 101.018 75.9571C100.82 75.7669 100.665 75.5397 100.552 75.2757C100.44 75.0078 100.384 74.7108 100.384 74.3846C100.384 74.0546 100.44 73.7556 100.552 73.4877C100.669 73.2198 100.828 72.9926 101.03 72.8063C101.232 72.616 101.469 72.4704 101.741 72.3694C102.012 72.2685 102.305 72.218 102.62 72.218C102.946 72.218 103.249 72.2685 103.529 72.3694C103.808 72.4665 104.035 72.5985 104.21 72.7655L103.581 73.4819C103.484 73.3693 103.356 73.278 103.197 73.2081C103.037 73.1344 102.857 73.0975 102.655 73.0975C102.48 73.0975 102.319 73.1305 102.172 73.1965C102.024 73.2586 101.896 73.3479 101.787 73.4644C101.678 73.577 101.593 73.7129 101.531 73.8721C101.473 74.0274 101.444 74.1982 101.444 74.3846C101.444 74.5749 101.471 74.7496 101.525 74.9088C101.579 75.068 101.659 75.2058 101.764 75.3223C101.873 75.4349 102.005 75.5242 102.16 75.5902C102.319 75.6523 102.5 75.6834 102.702 75.6834C102.818 75.6834 102.929 75.6756 103.034 75.6601C103.138 75.6407 103.235 75.6116 103.325 75.5727V74.8214H102.538V74.0177H104.239V76.2017Z" fill="#C4C4C4"/>
<path d="M108.715 76.2017C108.513 76.3066 108.277 76.392 108.005 76.458C107.737 76.524 107.444 76.557 107.125 76.557C106.795 76.557 106.49 76.5046 106.211 76.3998C105.935 76.2949 105.696 76.1474 105.495 75.9571C105.297 75.7669 105.141 75.5397 105.029 75.2757C104.916 75.0078 104.86 74.7108 104.86 74.3846C104.86 74.0546 104.916 73.7556 105.029 73.4877C105.145 73.2198 105.304 72.9926 105.506 72.8063C105.708 72.616 105.945 72.4704 106.217 72.3694C106.489 72.2685 106.782 72.218 107.096 72.218C107.422 72.218 107.725 72.2685 108.005 72.3694C108.284 72.4665 108.511 72.5985 108.686 72.7655L108.057 73.4819C107.96 73.3693 107.832 73.278 107.673 73.2081C107.514 73.1344 107.333 73.0975 107.131 73.0975C106.956 73.0975 106.795 73.1305 106.648 73.1965C106.5 73.2586 106.372 73.3479 106.263 73.4644C106.155 73.577 106.069 73.7129 106.007 73.8721C105.949 74.0274 105.92 74.1982 105.92 74.3846C105.92 74.5749 105.947 74.7496 106.001 74.9088C106.056 75.068 106.135 75.2058 106.24 75.3223C106.349 75.4349 106.481 75.5242 106.636 75.5902C106.795 75.6523 106.976 75.6834 107.178 75.6834C107.294 75.6834 107.405 75.6756 107.51 75.6601C107.615 75.6407 107.712 75.6116 107.801 75.5727V74.8214H107.015V74.0177H108.715V76.2017Z" fill="#C4C4C4"/>
<path d="M109.528 76.4522V72.3287H112.3V73.1732H110.489V73.9478H112.201V74.7457H110.489V75.6019H112.405V76.4522H109.528Z" fill="#C4C4C4"/>
<path d="M115.244 73.4003C115.159 73.2916 115.046 73.2062 114.906 73.1441C114.77 73.0781 114.638 73.045 114.51 73.045C114.444 73.045 114.376 73.0509 114.306 73.0625C114.24 73.0742 114.18 73.0975 114.126 73.1324C114.071 73.1635 114.025 73.2062 113.986 73.2605C113.951 73.311 113.934 73.377 113.934 73.4586C113.934 73.5285 113.947 73.5867 113.974 73.6333C114.005 73.6799 114.048 73.7207 114.103 73.7556C114.161 73.7905 114.229 73.8235 114.306 73.8546C114.384 73.8818 114.471 73.9109 114.568 73.942C114.708 73.9886 114.854 74.041 115.005 74.0992C115.157 74.1536 115.295 74.2274 115.419 74.3205C115.543 74.4137 115.646 74.5302 115.727 74.67C115.809 74.8059 115.85 74.9767 115.85 75.1825C115.85 75.4194 115.805 75.6252 115.716 75.7999C115.63 75.9707 115.514 76.1124 115.366 76.225C115.219 76.3376 115.05 76.4211 114.86 76.4755C114.669 76.5298 114.473 76.557 114.271 76.557C113.976 76.557 113.691 76.5065 113.415 76.4056C113.14 76.3008 112.911 76.1532 112.728 75.963L113.38 75.299C113.481 75.4232 113.613 75.5281 113.776 75.6135C113.943 75.695 114.108 75.7358 114.271 75.7358C114.345 75.7358 114.417 75.728 114.487 75.7125C114.557 75.697 114.617 75.6717 114.667 75.6368C114.722 75.6019 114.765 75.5553 114.796 75.497C114.827 75.4388 114.842 75.3689 114.842 75.2874C114.842 75.2097 114.823 75.1437 114.784 75.0893C114.745 75.035 114.689 74.9864 114.615 74.9437C114.545 74.8971 114.456 74.8564 114.347 74.8214C114.242 74.7826 114.122 74.7418 113.986 74.6991C113.854 74.6564 113.724 74.6059 113.596 74.5477C113.472 74.4894 113.359 74.4157 113.258 74.3264C113.161 74.2332 113.081 74.1225 113.019 73.9944C112.961 73.8624 112.932 73.7032 112.932 73.5168C112.932 73.2877 112.978 73.0916 113.072 72.9286C113.165 72.7655 113.287 72.6315 113.439 72.5267C113.59 72.4219 113.761 72.3461 113.951 72.2996C114.141 72.2491 114.334 72.2238 114.528 72.2238C114.761 72.2238 114.997 72.2666 115.238 72.352C115.483 72.4374 115.696 72.5636 115.879 72.7305L115.244 73.4003Z" fill="#C4C4C4"/>
<path d="M118.198 73.179V76.4522H117.202V73.179H116.037V72.3287H119.362V73.179H118.198Z" fill="#C4C4C4"/>
<path d="M119.817 76.4522V72.3287H120.819V76.4522H119.817Z" fill="#C4C4C4"/>
<path d="M125.969 74.373C125.969 74.6991 125.913 74.9981 125.801 75.2699C125.688 75.5378 125.531 75.7688 125.329 75.963C125.131 76.1532 124.894 76.3008 124.618 76.4056C124.343 76.5104 124.044 76.5628 123.721 76.5628C123.399 76.5628 123.1 76.5104 122.824 76.4056C122.553 76.3008 122.316 76.1532 122.114 75.963C121.916 75.7688 121.761 75.5378 121.648 75.2699C121.535 74.9981 121.479 74.6991 121.479 74.373C121.479 74.0429 121.535 73.7459 121.648 73.4819C121.761 73.2139 121.916 72.9868 122.114 72.8004C122.316 72.6141 122.553 72.4704 122.824 72.3694C123.1 72.2685 123.399 72.218 123.721 72.218C124.044 72.218 124.343 72.2685 124.618 72.3694C124.894 72.4704 125.131 72.6141 125.329 72.8004C125.531 72.9868 125.688 73.2139 125.801 73.4819C125.913 73.7459 125.969 74.0429 125.969 74.373ZM124.904 74.373C124.904 74.1944 124.875 74.0274 124.816 73.8721C124.758 73.7168 124.677 73.5848 124.572 73.476C124.471 73.3634 124.346 73.2761 124.199 73.2139C124.055 73.1479 123.896 73.1149 123.721 73.1149C123.547 73.1149 123.387 73.1479 123.244 73.2139C123.1 73.2761 122.976 73.3634 122.871 73.476C122.766 73.5848 122.685 73.7168 122.626 73.8721C122.572 74.0274 122.545 74.1944 122.545 74.373C122.545 74.5593 122.574 74.7321 122.632 74.8913C122.69 75.0466 122.77 75.1806 122.871 75.2932C122.976 75.4058 123.1 75.4951 123.244 75.5611C123.387 75.6232 123.547 75.6543 123.721 75.6543C123.896 75.6543 124.055 75.6232 124.199 75.5611C124.343 75.4951 124.467 75.4058 124.572 75.2932C124.677 75.1806 124.758 75.0466 124.816 74.8913C124.875 74.7321 124.904 74.5593 124.904 74.373Z" fill="#C4C4C4"/>
<path d="M129.246 76.4522L127.586 73.7556H127.569L127.592 76.4522H126.625V72.3287H127.761L129.415 75.0194H129.432L129.409 72.3287H130.376V76.4522H129.246Z" fill="#C4C4C4"/>
<path d="M133.405 73.4003C133.319 73.2916 133.207 73.2062 133.067 73.1441C132.931 73.0781 132.799 73.045 132.671 73.045C132.605 73.045 132.537 73.0509 132.467 73.0625C132.401 73.0742 132.341 73.0975 132.287 73.1324C132.232 73.1635 132.186 73.2062 132.147 73.2605C132.112 73.311 132.094 73.377 132.094 73.4586C132.094 73.5285 132.108 73.5867 132.135 73.6333C132.166 73.6799 132.209 73.7207 132.263 73.7556C132.321 73.7905 132.389 73.8235 132.467 73.8546C132.545 73.8818 132.632 73.9109 132.729 73.942C132.869 73.9886 133.015 74.041 133.166 74.0992C133.317 74.1536 133.455 74.2274 133.579 74.3205C133.704 74.4137 133.807 74.5302 133.888 74.67C133.97 74.8059 134.01 74.9767 134.01 75.1825C134.01 75.4194 133.966 75.6252 133.877 75.7999C133.791 75.9707 133.675 76.1124 133.527 76.225C133.38 76.3376 133.211 76.4211 133.02 76.4755C132.83 76.5298 132.634 76.557 132.432 76.557C132.137 76.557 131.852 76.5065 131.576 76.4056C131.3 76.3008 131.071 76.1532 130.889 75.963L131.541 75.299C131.642 75.4232 131.774 75.5281 131.937 75.6135C132.104 75.695 132.269 75.7358 132.432 75.7358C132.506 75.7358 132.578 75.728 132.648 75.7125C132.717 75.697 132.778 75.6717 132.828 75.6368C132.883 75.6019 132.925 75.5553 132.956 75.497C132.987 75.4388 133.003 75.3689 133.003 75.2874C133.003 75.2097 132.983 75.1437 132.945 75.0893C132.906 75.035 132.85 74.9864 132.776 74.9437C132.706 74.8971 132.617 74.8564 132.508 74.8214C132.403 74.7826 132.283 74.7418 132.147 74.6991C132.015 74.6564 131.885 74.6059 131.757 74.5477C131.632 74.4894 131.52 74.4157 131.419 74.3264C131.322 74.2332 131.242 74.1225 131.18 73.9944C131.122 73.8624 131.093 73.7032 131.093 73.5168C131.093 73.2877 131.139 73.0916 131.232 72.9286C131.326 72.7655 131.448 72.6315 131.599 72.5267C131.751 72.4219 131.922 72.3461 132.112 72.2996C132.302 72.2491 132.494 72.2238 132.688 72.2238C132.921 72.2238 133.158 72.2666 133.399 72.352C133.644 72.4374 133.857 72.5636 134.04 72.7305L133.405 73.4003Z" fill="#C4C4C4"/>
<g opacity="0.2">
<path d="M244.725 76.4522V72.3287H245.726V76.4522H244.725Z" fill="#1B367C"/>
<path d="M249.2 76.4522L247.54 73.7556H247.522L247.546 76.4522H246.579V72.3287H247.714L249.369 75.0194H249.386L249.363 72.3287H250.33V76.4522H249.2Z" fill="#1B367C"/>
<path d="M255.764 73.5983C255.764 73.8391 255.719 74.0429 255.63 74.2099C255.54 74.373 255.42 74.505 255.269 74.6059C255.117 74.7069 254.943 74.7806 254.744 74.8272C254.546 74.8738 254.341 74.8971 254.127 74.8971H253.632V76.4522H252.636V72.3287H254.15C254.376 72.3287 254.585 72.352 254.779 72.3986C254.977 72.4413 255.148 72.5131 255.292 72.6141C255.44 72.7111 255.554 72.8412 255.636 73.0043C255.721 73.1635 255.764 73.3615 255.764 73.5983ZM254.768 73.6042C254.768 73.5071 254.748 73.4275 254.71 73.3654C254.671 73.3033 254.618 73.2547 254.552 73.2198C254.486 73.1848 254.411 73.1615 254.325 73.1499C254.244 73.1382 254.158 73.1324 254.069 73.1324H253.632V74.105H254.051C254.145 74.105 254.234 74.0973 254.319 74.0818C254.405 74.0662 254.48 74.039 254.546 74.0002C254.616 73.9614 254.671 73.9109 254.71 73.8488C254.748 73.7828 254.768 73.7012 254.768 73.6042Z" fill="#1B367C"/>
<path d="M258.569 76.4522L257.678 74.8156H257.34V76.4522H256.362V72.3287H257.934C258.132 72.3287 258.324 72.35 258.511 72.3927C258.701 72.4316 258.87 72.4995 259.017 72.5966C259.169 72.6937 259.289 72.8218 259.378 72.981C259.468 73.1402 259.512 73.3382 259.512 73.575C259.512 73.8546 259.437 74.0895 259.285 74.2798C259.134 74.47 258.924 74.6059 258.656 74.6875L259.734 76.4522H258.569ZM258.528 73.5925C258.528 73.4955 258.507 73.4178 258.464 73.3596C258.425 73.2974 258.373 73.2508 258.307 73.2198C258.245 73.1848 258.173 73.1615 258.091 73.1499C258.014 73.1382 257.938 73.1324 257.864 73.1324H257.334V74.0934H257.806C257.887 74.0934 257.971 74.0876 258.056 74.0759C258.142 74.0604 258.219 74.0352 258.289 74.0002C258.359 73.9653 258.416 73.9148 258.458 73.8488C258.505 73.7828 258.528 73.6974 258.528 73.5925Z" fill="#1B367C"/>
<path d="M264.522 74.373C264.522 74.6991 264.465 74.9981 264.353 75.2699C264.24 75.5378 264.083 75.7688 263.881 75.963C263.683 76.1532 263.446 76.3008 263.171 76.4056C262.895 76.5104 262.596 76.5628 262.274 76.5628C261.951 76.5628 261.652 76.5104 261.377 76.4056C261.105 76.3008 260.868 76.1532 260.666 75.963C260.468 75.7688 260.313 75.5378 260.2 75.2699C260.088 74.9981 260.031 74.6991 260.031 74.373C260.031 74.0429 260.088 73.7459 260.2 73.4819C260.313 73.2139 260.468 72.9868 260.666 72.8004C260.868 72.6141 261.105 72.4704 261.377 72.3694C261.652 72.2685 261.951 72.218 262.274 72.218C262.596 72.218 262.895 72.2685 263.171 72.3694C263.446 72.4704 263.683 72.6141 263.881 72.8004C264.083 72.9868 264.24 73.2139 264.353 73.4819C264.465 73.7459 264.522 74.0429 264.522 74.373ZM263.456 74.373C263.456 74.1944 263.427 74.0274 263.369 73.8721C263.31 73.7168 263.229 73.5848 263.124 73.476C263.023 73.3634 262.899 73.2761 262.751 73.2139C262.608 73.1479 262.448 73.1149 262.274 73.1149C262.099 73.1149 261.94 73.1479 261.796 73.2139C261.652 73.2761 261.528 73.3634 261.423 73.476C261.318 73.5848 261.237 73.7168 261.179 73.8721C261.124 74.0274 261.097 74.1944 261.097 74.373C261.097 74.5593 261.126 74.7321 261.184 74.8913C261.243 75.0466 261.322 75.1806 261.423 75.2932C261.528 75.4058 261.652 75.4951 261.796 75.5611C261.94 75.6232 262.099 75.6543 262.274 75.6543C262.448 75.6543 262.608 75.6232 262.751 75.5611C262.895 75.4951 263.019 75.4058 263.124 75.2932C263.229 75.1806 263.31 75.0466 263.369 74.8913C263.427 74.7321 263.456 74.5593 263.456 74.373Z" fill="#1B367C"/>
<path d="M268.841 76.2017C268.639 76.3066 268.402 76.392 268.13 76.458C267.862 76.524 267.569 76.557 267.251 76.557C266.921 76.557 266.616 76.5046 266.336 76.3998C266.061 76.2949 265.822 76.1474 265.62 75.9571C265.422 75.7669 265.267 75.5397 265.154 75.2757C265.042 75.0078 264.985 74.7108 264.985 74.3846C264.985 74.0546 265.042 73.7556 265.154 73.4877C265.271 73.2198 265.43 72.9926 265.632 72.8063C265.834 72.616 266.07 72.4704 266.342 72.3694C266.614 72.2685 266.907 72.218 267.222 72.218C267.548 72.218 267.851 72.2685 268.13 72.3694C268.41 72.4665 268.637 72.5985 268.812 72.7655L268.183 73.4819C268.086 73.3693 267.957 73.278 267.798 73.2081C267.639 73.1344 267.459 73.0975 267.257 73.0975C267.082 73.0975 266.921 73.1305 266.773 73.1965C266.626 73.2586 266.498 73.3479 266.389 73.4644C266.28 73.577 266.195 73.7129 266.133 73.8721C266.074 74.0274 266.045 74.1982 266.045 74.3846C266.045 74.5749 266.072 74.7496 266.127 74.9088C266.181 75.068 266.261 75.2058 266.366 75.3223C266.474 75.4349 266.606 75.5242 266.762 75.5902C266.921 75.6523 267.101 75.6834 267.303 75.6834C267.42 75.6834 267.53 75.6756 267.635 75.6601C267.74 75.6407 267.837 75.6116 267.926 75.5727V74.8214H267.14V74.0177H268.841V76.2017Z" fill="#1B367C"/>
<path d="M271.861 76.4522L270.97 74.8156H270.632V76.4522H269.654V72.3287H271.226C271.424 72.3287 271.616 72.35 271.803 72.3927C271.993 72.4316 272.162 72.4995 272.309 72.5966C272.461 72.6937 272.581 72.8218 272.671 72.981C272.76 73.1402 272.804 73.3382 272.804 73.575C272.804 73.8546 272.729 74.0895 272.577 74.2798C272.426 74.47 272.216 74.6059 271.948 74.6875L273.026 76.4522H271.861ZM271.82 73.5925C271.82 73.4955 271.799 73.4178 271.756 73.3596C271.717 73.2974 271.665 73.2508 271.599 73.2198C271.537 73.1848 271.465 73.1615 271.383 73.1499C271.306 73.1382 271.23 73.1324 271.156 73.1324H270.626V74.0934H271.098C271.18 74.0934 271.263 74.0876 271.348 74.0759C271.434 74.0604 271.512 74.0352 271.581 74.0002C271.651 73.9653 271.708 73.9148 271.75 73.8488C271.797 73.7828 271.82 73.6974 271.82 73.5925Z" fill="#1B367C"/>
<path d="M273.516 76.4522V72.3287H276.288V73.1732H274.477V73.9478H276.189V74.7457H274.477V75.6019H276.393V76.4522H273.516Z" fill="#1B367C"/>
<path d="M279.231 73.4003C279.146 73.2916 279.033 73.2062 278.894 73.1441C278.758 73.0781 278.626 73.045 278.498 73.045C278.432 73.045 278.364 73.0509 278.294 73.0625C278.228 73.0742 278.168 73.0975 278.113 73.1324C278.059 73.1635 278.012 73.2062 277.973 73.2605C277.939 73.311 277.921 73.377 277.921 73.4586C277.921 73.5285 277.935 73.5867 277.962 73.6333C277.993 73.6799 278.036 73.7207 278.09 73.7556C278.148 73.7905 278.216 73.8235 278.294 73.8546C278.371 73.8818 278.459 73.9109 278.556 73.942C278.696 73.9886 278.841 74.041 278.993 74.0992C279.144 74.1536 279.282 74.2274 279.406 74.3205C279.53 74.4137 279.633 74.5302 279.715 74.67C279.796 74.8059 279.837 74.9767 279.837 75.1825C279.837 75.4194 279.793 75.6252 279.703 75.7999C279.618 75.9707 279.501 76.1124 279.354 76.225C279.206 76.3376 279.037 76.4211 278.847 76.4755C278.657 76.5298 278.461 76.557 278.259 76.557C277.964 76.557 277.678 76.5065 277.403 76.4056C277.127 76.3008 276.898 76.1532 276.715 75.963L277.368 75.299C277.469 75.4232 277.601 75.5281 277.764 75.6135C277.931 75.695 278.096 75.7358 278.259 75.7358C278.333 75.7358 278.404 75.728 278.474 75.7125C278.544 75.697 278.604 75.6717 278.655 75.6368C278.709 75.6019 278.752 75.5553 278.783 75.497C278.814 75.4388 278.83 75.3689 278.83 75.2874C278.83 75.2097 278.81 75.1437 278.771 75.0893C278.733 75.035 278.676 74.9864 278.602 74.9437C278.533 74.8971 278.443 74.8564 278.335 74.8214C278.23 74.7826 278.109 74.7418 277.973 74.6991C277.841 74.6564 277.711 74.6059 277.583 74.5477C277.459 74.4894 277.346 74.4157 277.245 74.3264C277.148 74.2332 277.069 74.1225 277.007 73.9944C276.948 73.8624 276.919 73.7032 276.919 73.5168C276.919 73.2877 276.966 73.0916 277.059 72.9286C277.152 72.7655 277.275 72.6315 277.426 72.5267C277.577 72.4219 277.748 72.3461 277.939 72.2996C278.129 72.2491 278.321 72.2238 278.515 72.2238C278.748 72.2238 278.985 72.2666 279.226 72.352C279.47 72.4374 279.684 72.5636 279.866 72.7305L279.231 73.4003Z" fill="#1B367C"/>
<path d="M282.673 73.4003C282.587 73.2916 282.475 73.2062 282.335 73.1441C282.199 73.0781 282.067 73.045 281.939 73.045C281.873 73.045 281.805 73.0509 281.735 73.0625C281.669 73.0742 281.609 73.0975 281.554 73.1324C281.5 73.1635 281.453 73.2062 281.415 73.2605C281.38 73.311 281.362 73.377 281.362 73.4586C281.362 73.5285 281.376 73.5867 281.403 73.6333C281.434 73.6799 281.477 73.7207 281.531 73.7556C281.589 73.7905 281.657 73.8235 281.735 73.8546C281.812 73.8818 281.9 73.9109 281.997 73.942C282.137 73.9886 282.282 74.041 282.434 74.0992C282.585 74.1536 282.723 74.2274 282.847 74.3205C282.972 74.4137 283.074 74.5302 283.156 74.67C283.237 74.8059 283.278 74.9767 283.278 75.1825C283.278 75.4194 283.234 75.6252 283.144 75.7999C283.059 75.9707 282.942 76.1124 282.795 76.225C282.647 76.3376 282.478 76.4211 282.288 76.4755C282.098 76.5298 281.902 76.557 281.7 76.557C281.405 76.557 281.119 76.5065 280.844 76.4056C280.568 76.3008 280.339 76.1532 280.156 75.963L280.809 75.299C280.91 75.4232 281.042 75.5281 281.205 75.6135C281.372 75.695 281.537 75.7358 281.7 75.7358C281.774 75.7358 281.846 75.728 281.915 75.7125C281.985 75.697 282.045 75.6717 282.096 75.6368C282.15 75.6019 282.193 75.5553 282.224 75.497C282.255 75.4388 282.271 75.3689 282.271 75.2874C282.271 75.2097 282.251 75.1437 282.212 75.0893C282.174 75.035 282.117 74.9864 282.044 74.9437C281.974 74.8971 281.884 74.8564 281.776 74.8214C281.671 74.7826 281.55 74.7418 281.415 74.6991C281.283 74.6564 281.152 74.6059 281.024 74.5477C280.9 74.4894 280.787 74.4157 280.686 74.3264C280.589 74.2332 280.51 74.1225 280.448 73.9944C280.389 73.8624 280.36 73.7032 280.36 73.5168C280.36 73.2877 280.407 73.0916 280.5 72.9286C280.593 72.7655 280.716 72.6315 280.867 72.5267C281.018 72.4219 281.189 72.3461 281.38 72.2996C281.57 72.2491 281.762 72.2238 281.956 72.2238C282.189 72.2238 282.426 72.2666 282.667 72.352C282.911 72.4374 283.125 72.5636 283.307 72.7305L282.673 73.4003Z" fill="#1B367C"/>
</g>
<g opacity="0.2">
<path d="M394.68 75.8814C394.498 76.0911 394.272 76.258 394.004 76.3823C393.737 76.5027 393.428 76.5628 393.078 76.5628C392.76 76.5628 392.465 76.5104 392.193 76.4056C391.925 76.3008 391.692 76.1532 391.494 75.963C391.296 75.7688 391.141 75.5378 391.028 75.2699C390.916 75.002 390.859 74.7069 390.859 74.3846C390.859 74.0546 390.916 73.7556 391.028 73.4877C391.145 73.2198 391.304 72.9926 391.506 72.8063C391.708 72.616 391.945 72.4704 392.216 72.3694C392.488 72.2685 392.781 72.218 393.096 72.218C393.387 72.218 393.672 72.2704 393.952 72.3753C394.235 72.4762 394.465 72.6257 394.639 72.8237L393.964 73.4993C393.87 73.3712 393.748 73.2761 393.597 73.2139C393.445 73.1518 393.29 73.1208 393.131 73.1208C392.956 73.1208 392.795 73.1538 392.647 73.2198C392.504 73.2819 392.379 73.3693 392.275 73.4819C392.17 73.5945 392.088 73.7284 392.03 73.8837C391.972 74.0352 391.943 74.2021 391.943 74.3846C391.943 74.571 391.972 74.7418 392.03 74.8971C392.088 75.0524 392.168 75.1864 392.269 75.299C392.374 75.4077 392.498 75.4931 392.642 75.5553C392.785 75.6174 392.942 75.6484 393.113 75.6484C393.311 75.6484 393.484 75.6096 393.632 75.532C393.779 75.4543 393.898 75.3534 393.987 75.2291L394.68 75.8814Z" fill="#1B367C"/>
<path d="M399.337 74.373C399.337 74.6991 399.281 74.9981 399.168 75.2699C399.055 75.5378 398.898 75.7688 398.696 75.963C398.498 76.1532 398.261 76.3008 397.986 76.4056C397.71 76.5104 397.411 76.5628 397.089 76.5628C396.766 76.5628 396.467 76.5104 396.192 76.4056C395.92 76.3008 395.683 76.1532 395.481 75.963C395.283 75.7688 395.128 75.5378 395.015 75.2699C394.903 74.9981 394.846 74.6991 394.846 74.373C394.846 74.0429 394.903 73.7459 395.015 73.4819C395.128 73.2139 395.283 72.9868 395.481 72.8004C395.683 72.6141 395.92 72.4704 396.192 72.3694C396.467 72.2685 396.766 72.218 397.089 72.218C397.411 72.218 397.71 72.2685 397.986 72.3694C398.261 72.4704 398.498 72.6141 398.696 72.8004C398.898 72.9868 399.055 73.2139 399.168 73.4819C399.281 73.7459 399.337 74.0429 399.337 74.373ZM398.271 74.373C398.271 74.1944 398.242 74.0274 398.184 73.8721C398.125 73.7168 398.044 73.5848 397.939 73.476C397.838 73.3634 397.714 73.2761 397.566 73.2139C397.423 73.1479 397.263 73.1149 397.089 73.1149C396.914 73.1149 396.755 73.1479 396.611 73.2139C396.467 73.2761 396.343 73.3634 396.238 73.476C396.134 73.5848 396.052 73.7168 395.994 73.8721C395.939 74.0274 395.912 74.1944 395.912 74.373C395.912 74.5593 395.941 74.7321 396 74.8913C396.058 75.0466 396.137 75.1806 396.238 75.2932C396.343 75.4058 396.467 75.4951 396.611 75.5611C396.755 75.6232 396.914 75.6543 397.089 75.6543C397.263 75.6543 397.423 75.6232 397.566 75.5611C397.71 75.4951 397.834 75.4058 397.939 75.2932C398.044 75.1806 398.125 75.0466 398.184 74.8913C398.242 74.7321 398.271 74.5593 398.271 74.373Z" fill="#1B367C"/>
<path d="M403.732 76.4522L403.755 73.5343H403.738L402.666 76.4522H401.967L400.924 73.5343H400.907L400.93 76.4522H399.993V72.3287H401.408L402.346 74.9728H402.369L403.266 72.3287H404.704V76.4522H403.732Z" fill="#1B367C"/>
<path d="M408.683 73.5983C408.683 73.8391 408.638 74.0429 408.549 74.2099C408.459 74.373 408.339 74.505 408.188 74.6059C408.036 74.7069 407.861 74.7806 407.663 74.8272C407.465 74.8738 407.26 74.8971 407.046 74.8971H406.551V76.4522H405.555V72.3287H407.069C407.295 72.3287 407.504 72.352 407.698 72.3986C407.896 72.4413 408.067 72.5131 408.211 72.6141C408.358 72.7111 408.473 72.8412 408.555 73.0043C408.64 73.1635 408.683 73.3615 408.683 73.5983ZM407.687 73.6042C407.687 73.5071 407.667 73.4275 407.629 73.3654C407.59 73.3033 407.537 73.2547 407.471 73.2198C407.405 73.1848 407.33 73.1615 407.244 73.1499C407.163 73.1382 407.077 73.1324 406.988 73.1324H406.551V74.105H406.97C407.064 74.105 407.153 74.0973 407.238 74.0818C407.324 74.0662 407.399 74.039 407.465 74.0002C407.535 73.9614 407.59 73.9109 407.629 73.8488C407.667 73.7828 407.687 73.7012 407.687 73.6042Z" fill="#1B367C"/>
<path d="M409.281 76.4522V72.3287H410.282V75.5844H411.878V76.4522H409.281Z" fill="#1B367C"/>
<path d="M412.346 76.4522V72.3287H415.118V73.1732H413.307V73.9478H415.019V74.7457H413.307V75.6019H415.223V76.4522H412.346Z" fill="#1B367C"/>
<path d="M417.649 73.179V76.4522H416.653V73.179H415.488V72.3287H418.813V73.179H417.649Z" fill="#1B367C"/>
<path d="M419.268 76.4522V72.3287H422.04V73.1732H420.229V73.9478H421.941V74.7457H420.229V75.6019H422.145V76.4522H419.268Z" fill="#1B367C"/>
<path d="M426.656 74.3788C426.656 74.7399 426.588 75.0524 426.452 75.3165C426.32 75.5766 426.143 75.7921 425.922 75.963C425.704 76.1299 425.458 76.2542 425.182 76.3357C424.906 76.4134 424.627 76.4522 424.343 76.4522H422.806V72.3287H424.297C424.588 72.3287 424.875 72.3636 425.159 72.4335C425.442 72.4995 425.695 72.6121 425.916 72.7713C426.137 72.9266 426.316 73.1363 426.452 73.4003C426.588 73.6644 426.656 73.9905 426.656 74.3788ZM425.619 74.3788C425.619 74.1458 425.58 73.9536 425.502 73.8022C425.429 73.6469 425.328 73.5246 425.2 73.4353C425.075 73.3421 424.932 73.2761 424.769 73.2372C424.609 73.1984 424.444 73.179 424.273 73.179H423.778V75.5902H424.25C424.429 75.5902 424.6 75.5708 424.763 75.532C424.93 75.4893 425.075 75.4213 425.2 75.3281C425.328 75.2349 425.429 75.1107 425.502 74.9554C425.58 74.8001 425.619 74.6079 425.619 74.3788Z" fill="#1B367C"/>
</g>
<g opacity="0.2">
<path d="M536.849 76.4522L536.529 75.6426H534.933L534.63 76.4522H533.547L535.277 72.3287H536.243L537.956 76.4522H536.849ZM535.743 73.4294L535.218 74.8447H536.255L535.743 73.4294Z" fill="#1B367C"/>
<path d="M540.504 76.4522L539.613 74.8156H539.275V76.4522H538.297V72.3287H539.869C540.067 72.3287 540.259 72.35 540.446 72.3927C540.636 72.4316 540.805 72.4995 540.952 72.5966C541.104 72.6937 541.224 72.8218 541.313 72.981C541.403 73.1402 541.447 73.3382 541.447 73.575C541.447 73.8546 541.372 74.0895 541.22 74.2798C541.069 74.47 540.859 74.6059 540.591 74.6875L541.669 76.4522H540.504ZM540.463 73.5925C540.463 73.4955 540.442 73.4178 540.399 73.3596C540.36 73.2974 540.308 73.2508 540.242 73.2198C540.18 73.1848 540.108 73.1615 540.026 73.1499C539.949 73.1382 539.873 73.1324 539.799 73.1324H539.269V74.0934H539.741C539.823 74.0934 539.906 74.0876 539.991 74.0759C540.077 74.0604 540.154 74.0352 540.224 74.0002C540.294 73.9653 540.351 73.9148 540.393 73.8488C540.44 73.7828 540.463 73.6974 540.463 73.5925Z" fill="#1B367C"/>
<path d="M545.787 75.8814C545.604 76.0911 545.379 76.258 545.111 76.3823C544.843 76.5027 544.535 76.5628 544.185 76.5628C543.867 76.5628 543.572 76.5104 543.3 76.4056C543.032 76.3008 542.799 76.1532 542.601 75.963C542.403 75.7688 542.248 75.5378 542.135 75.2699C542.023 75.002 541.966 74.7069 541.966 74.3846C541.966 74.0546 542.023 73.7556 542.135 73.4877C542.252 73.2198 542.411 72.9926 542.613 72.8063C542.815 72.616 543.052 72.4704 543.323 72.3694C543.595 72.2685 543.888 72.218 544.203 72.218C544.494 72.218 544.779 72.2704 545.059 72.3753C545.342 72.4762 545.571 72.6257 545.746 72.8237L545.071 73.4993C544.977 73.3712 544.855 73.2761 544.704 73.2139C544.552 73.1518 544.397 73.1208 544.238 73.1208C544.063 73.1208 543.902 73.1538 543.754 73.2198C543.611 73.2819 543.486 73.3693 543.382 73.4819C543.277 73.5945 543.195 73.7284 543.137 73.8837C543.079 74.0352 543.05 74.2021 543.05 74.3846C543.05 74.571 543.079 74.7418 543.137 74.8971C543.195 75.0524 543.275 75.1864 543.376 75.299C543.481 75.4077 543.605 75.4931 543.748 75.5553C543.892 75.6174 544.049 75.6484 544.22 75.6484C544.418 75.6484 544.591 75.6096 544.739 75.532C544.886 75.4543 545.005 75.3534 545.094 75.2291L545.787 75.8814Z" fill="#1B367C"/>
<path d="M548.817 76.4522V74.7282H547.21V76.4522H546.214V72.3287H547.21V73.8896H548.817V72.3287H549.813V76.4522H548.817Z" fill="#1B367C"/>
<path d="M550.662 76.4522V72.3287H551.663V76.4522H550.662Z" fill="#1B367C"/>
<path d="M554.56 76.4522H553.564L552.003 72.3287H553.121L554.077 75.2524H554.1L555.049 72.3287H556.15L554.56 76.4522Z" fill="#1B367C"/>
<path d="M556.486 76.4522V72.3287H559.258V73.1732H557.447V73.9478H559.159V74.7457H557.447V75.6019H559.363V76.4522H556.486Z" fill="#1B367C"/>
<path d="M563.873 74.3788C563.873 74.7399 563.805 75.0524 563.669 75.3165C563.537 75.5766 563.361 75.7921 563.139 75.963C562.922 76.1299 562.675 76.2542 562.4 76.3357C562.124 76.4134 561.844 76.4522 561.561 76.4522H560.023V72.3287H561.514C561.806 72.3287 562.093 72.3636 562.376 72.4335C562.66 72.4995 562.912 72.6121 563.134 72.7713C563.355 72.9266 563.533 73.1363 563.669 73.4003C563.805 73.6644 563.873 73.9905 563.873 74.3788ZM562.837 74.3788C562.837 74.1458 562.798 73.9536 562.72 73.8022C562.646 73.6469 562.545 73.5246 562.417 73.4353C562.293 73.3421 562.149 73.2761 561.986 73.2372C561.827 73.1984 561.662 73.179 561.491 73.179H560.996V75.5902H561.468C561.646 75.5902 561.817 75.5708 561.98 75.532C562.147 75.4893 562.293 75.4213 562.417 75.3281C562.545 75.2349 562.646 75.1107 562.72 74.9554C562.798 74.8001 562.837 74.6079 562.837 74.3788Z" fill="#1B367C"/>
</g>
<ellipse opacity="0.2" cx="57.0322" cy="177.048" rx="10.0536" ry="9.97689" fill="#E23166"/>
<ellipse cx="57.0331" cy="177.048" rx="8.04291" ry="7.98151" fill="#E23166"/>
<ellipse opacity="0.2" cx="57.0322" cy="228.041" rx="10.0536" ry="9.97689" fill="#1BD687"/>
<ellipse cx="57.0331" cy="228.041" rx="8.04291" ry="7.98151" fill="#1BD687"/>
<ellipse opacity="0.2" cx="57.0322" cy="126.055" rx="10.0536" ry="9.97689" fill="#F8941E"/>
<ellipse cx="57.0331" cy="126.055" rx="8.04291" ry="7.98151" fill="#F8941E"/>
<ellipse opacity="0.2" cx="57.0322" cy="279.035" rx="10.0536" ry="9.97689" fill="#E23166"/>
<ellipse cx="57.0331" cy="279.034" rx="8.04291" ry="7.98151" fill="#E23166"/>
<ellipse opacity="0.2" cx="57.0322" cy="330.027" rx="10.0536" ry="9.97689" fill="#1BD687"/>
<ellipse cx="57.0331" cy="330.027" rx="8.04291" ry="7.98151" fill="#1BD687"/>
</svg>
