<svg width="208" height="32" viewBox="0 0 208 32" fill="none" xmlns="http://www.w3.org/2000/svg">
<g clip-path="url(#clip0)">
<path d="M40.8566 23.9587H40.4275C37.9961 23.9587 35.8985 23.0139 34.2299 21.1715C33.0858 19.8961 32.5137 18.2899 32.5137 16.3058V1H35.6601V10.1173C37.0427 9.07806 38.5205 8.55842 40.0461 8.55842H40.5705C43.2879 8.74738 45.3855 9.92838 46.8158 12.1014C47.6739 13.3297 48.1029 14.6996 48.1029 16.2113C48.1029 17.3923 47.8169 18.5733 47.2448 19.7071C46.7681 20.6047 46.196 21.3605 45.5286 21.9746C44.2414 23.1084 42.6682 23.817 40.8566 23.9587ZM40.2845 20.8881C41.5717 20.8881 42.6682 20.4629 43.574 19.5654C44.4798 18.6678 44.9088 17.5813 44.9088 16.3058C44.9088 15.0303 44.4798 13.9438 43.574 13.0462C42.6682 12.1487 41.5717 11.7235 40.2845 11.7235C38.9973 11.7235 37.9008 12.1487 36.995 13.0462C36.0892 13.9438 35.6601 15.0303 35.6601 16.3058C35.6601 17.5813 36.0892 18.6678 36.995 19.5654C37.9008 20.4629 39.045 20.8881 40.2845 20.8881Z" fill="#1B367C"/>
<path d="M55.7304 23.9587H52.584V8.60566H55.7304V10.1173C57.113 9.07806 58.6385 8.60566 60.3548 8.60566V11.7235C59.0676 11.7235 57.9711 12.1487 57.0653 13.0462C56.1595 13.9438 55.7304 15.0303 55.7304 16.3058V23.9587Z" fill="#1B367C"/>
<path d="M70.8431 23.9587C68.6978 23.9587 66.8385 23.2029 65.3129 21.6912C63.7874 20.1795 63.0723 18.3844 63.0723 16.3058C63.0723 14.18 63.835 12.3376 65.3129 10.8259C66.8385 9.31426 68.6501 8.60566 70.8431 8.60566C72.464 8.60566 74.0372 9.1253 75.4674 10.1646V8.60566H78.5662V16.3058C78.5662 18.4316 77.8034 20.2267 76.3255 21.6912C74.8 23.2029 72.9884 23.9587 70.8431 23.9587ZM70.8431 20.8881C72.1303 20.8881 73.2267 20.4629 74.1325 19.5654C75.0383 18.6678 75.4674 17.5813 75.4674 16.3058C75.4674 14.9831 75.0383 13.8966 74.1325 13.0462C73.2267 12.1487 72.1303 11.7235 70.8431 11.7235C69.5559 11.7235 68.4594 12.1487 67.5536 13.0462C66.6478 13.9438 66.2187 15.0303 66.2187 16.3058C66.2187 17.5813 66.6478 18.6678 67.5536 19.5654C68.4594 20.4629 69.5559 20.8881 70.8431 20.8881Z" fill="#1B367C"/>
<path d="M97.3512 23.9587H94.2047V15.4555C94.2047 14.4162 93.8233 13.5186 93.1082 12.7628C92.3455 12.0069 91.4397 11.6763 90.3908 11.6763C89.342 11.6763 88.3885 12.0542 87.6734 12.7628C86.9107 13.5186 86.5293 14.4162 86.5293 15.4555V23.9587H83.3828V15.4555C83.3828 13.5659 84.0502 11.9125 85.4328 10.5897C86.8153 9.21978 88.4362 8.55842 90.3908 8.55842C92.2978 8.55842 93.9664 9.21978 95.3012 10.5897C96.6837 11.9597 97.3512 13.5659 97.3512 15.4555V23.9587Z" fill="#1B367C"/>
<path d="M108.983 23.9587C105.836 23.9115 103.596 22.4943 102.166 19.7071C101.546 18.5261 101.26 17.3923 101.26 16.2113C101.26 15.6917 101.307 15.1248 101.45 14.5579C102.166 12.0069 103.691 10.2118 106.075 9.17254C106.981 8.74738 107.934 8.55842 108.935 8.55842C110.651 8.55842 112.225 9.07806 113.655 10.1173V1H116.801V16.3058C116.801 18.2899 116.229 19.8961 115.085 21.1715C113.464 23.0139 111.414 23.9587 108.983 23.9587ZM109.078 20.8881C110.365 20.8881 111.462 20.4629 112.368 19.5654C113.274 18.6678 113.703 17.5813 113.703 16.3058C113.703 15.0303 113.274 13.9438 112.368 13.0462C111.462 12.1487 110.365 11.7235 109.078 11.7235C107.791 11.7235 106.695 12.1487 105.789 13.0462C104.883 13.9438 104.454 15.0303 104.454 16.3058C104.454 17.534 104.883 18.6206 105.789 19.5181C106.695 20.4157 107.791 20.8881 109.078 20.8881Z" fill="#1B367C"/>
<path d="M128.767 31.4699V28.3993C130.054 28.3993 131.151 27.9741 132.056 27.0765C132.962 26.179 133.391 25.0925 133.391 23.817V22.3053C132.056 23.3446 130.483 23.8642 128.672 23.8642C126.86 23.8642 125.191 23.2501 123.713 21.9746C121.902 20.4157 120.996 18.5261 120.996 16.2586C120.996 15.0303 121.282 13.8493 121.854 12.7155C122.331 11.7707 122.951 11.0149 123.618 10.4008C125.096 9.07806 126.765 8.46394 128.672 8.46394C131.151 8.46394 133.201 9.3615 134.726 11.1566C135.918 12.6211 136.538 14.2745 136.538 16.1641V23.817C136.538 25.9428 135.775 27.7851 134.249 29.2496C132.724 30.7613 130.865 31.4699 128.767 31.4699ZM128.767 20.7936C130.054 20.7936 131.151 20.3684 132.056 19.4709C132.962 18.5733 133.391 17.4868 133.391 16.2113C133.391 14.8886 132.962 13.8021 132.056 12.9517C131.151 12.0542 130.054 11.629 128.767 11.629C127.48 11.629 126.383 12.0542 125.477 12.9517C124.572 13.8493 124.143 14.9358 124.143 16.2113C124.143 17.4868 124.572 18.5733 125.477 19.4709C126.383 20.3684 127.48 20.7936 128.767 20.7936Z" fill="#1B367C"/>
<path d="M148.36 23.9587C146.405 23.9587 144.736 23.2973 143.402 21.9274C142.019 20.5574 141.352 18.9512 141.352 17.0616V8.55842H144.45V17.0616C144.45 18.1009 144.832 18.9985 145.595 19.7543C146.357 20.5102 147.263 20.8881 148.312 20.8881C149.361 20.8881 150.219 20.5102 150.982 19.7543C151.744 18.9985 152.126 18.1009 152.126 17.0616V8.55842H155.32V17.0616C155.32 18.9512 154.653 20.6047 153.27 21.9274C151.887 23.2501 150.267 23.9587 148.36 23.9587Z" fill="#1B367C"/>
<path d="M163.95 23.9587H160.852V8.6529H163.95V23.9587Z" fill="#1B367C"/>
<path d="M176.202 23.9587C173.055 23.9115 170.815 22.4943 169.384 19.7071C168.765 18.5261 168.479 17.3923 168.479 16.2113C168.479 15.6917 168.526 15.1248 168.669 14.5579C169.384 12.0069 170.91 10.2118 173.294 9.17254C174.199 8.74738 175.153 8.55842 176.154 8.55842C177.87 8.55842 179.443 9.07806 180.874 10.1173V1H184.02V16.3058C184.02 18.2899 183.448 19.8961 182.304 21.1715C180.683 23.0139 178.633 23.9587 176.202 23.9587ZM176.297 20.8881C177.584 20.8881 178.681 20.4629 179.586 19.5654C180.492 18.6678 180.921 17.5813 180.921 16.3058C180.921 15.0303 180.492 13.9438 179.586 13.0462C178.681 12.1487 177.584 11.7235 176.297 11.7235C175.01 11.7235 173.913 12.1487 173.008 13.0462C172.102 13.9438 171.673 15.0303 171.673 16.3058C171.673 17.534 172.102 18.6206 173.008 19.5181C173.913 20.4157 175.01 20.8881 176.297 20.8881Z" fill="#1B367C"/>
<path d="M195.939 23.9587C193.936 23.9587 192.22 23.2973 190.742 21.9746C189.264 20.6519 188.454 18.9985 188.263 17.0616C188.168 16.8727 188.168 16.5892 188.168 16.3058C188.168 16.0696 188.168 15.8334 188.216 15.6917C188.406 14.5107 188.645 13.6131 188.931 13.0935C189.55 11.629 190.647 10.4953 192.125 9.5977C193.317 8.93634 194.556 8.60566 195.939 8.60566C197.655 8.60566 199.181 9.1253 200.515 10.1173C202.613 11.6763 203.662 13.8966 203.662 16.6365C203.614 16.731 203.614 16.8727 203.614 17.0144C199.991 17.0144 196.654 17.0144 193.603 17.0616H191.362C191.553 18.1482 192.077 19.0457 192.935 19.8016C193.793 20.5574 194.795 20.8881 195.939 20.8881C197.369 20.8881 198.513 20.3212 199.467 19.1874L202.518 20.2267C201.85 21.3133 200.945 22.2108 199.8 22.8722C198.561 23.5808 197.321 23.9587 195.939 23.9587ZM199.896 13.991C198.99 12.4321 197.607 11.6763 195.843 11.6763C194.509 11.6763 193.317 12.2431 192.268 13.3297L191.839 14.0383H199.896V13.991Z" fill="#1B367C"/>
<path d="M10.7249 1.57831L6.29122 8.90362C5.81448 9.72289 6.38657 10.7349 7.29237 10.7349H16.1597C17.1131 10.7349 17.6852 9.6747 17.1608 8.90362L12.7748 1.57831C12.2981 0.807229 11.2016 0.807229 10.7249 1.57831Z" fill="#EC6689"/>
<path d="M18.3051 24.0361C21.2803 24.0361 23.6922 21.598 23.6922 18.5904C23.6922 15.5827 21.2803 13.1446 18.3051 13.1446C15.3299 13.1446 12.918 15.5827 12.918 18.5904C12.918 21.598 15.3299 24.0361 18.3051 24.0361Z" fill="#1B367C"/>
<path d="M2.19184 23.4578H9.34288C10.0103 23.4578 10.5347 22.9277 10.5347 22.253V15.0241C10.5347 14.3494 10.0103 13.8193 9.34288 13.8193H2.19184C1.52441 13.8193 1 14.3494 1 15.0241V22.253C1 22.8795 1.52441 23.4578 2.19184 23.4578Z" fill="#2955F2"/>
</g>
<defs>
<clipPath id="clip0">
<rect width="208" height="32" fill="white"/>
</clipPath>
</defs>
</svg>
