<svg width="39" height="55" viewBox="0 0 39 55" fill="none" xmlns="http://www.w3.org/2000/svg">
<path d="M17.9863 24.076C18.9496 23.4842 20.1637 23.4842 21.1269 24.076L34.8392 32.4994C36.7454 33.6705 36.7454 36.4408 34.8392 37.6119L21.1269 46.0354C20.1637 46.6271 18.9496 46.6271 17.9864 46.0354L4.27412 37.6119C2.36784 36.4408 2.36784 33.6705 4.27412 32.4994L17.9863 24.076Z" fill="#86A7FC"/>
<path d="M17.9863 16.5766C18.9496 15.9849 20.1637 15.9849 21.1269 16.5766L34.8392 25.0001C36.7454 26.1712 36.7454 28.9415 34.8392 30.1125L21.1269 38.536C20.1637 39.1278 18.9496 39.1278 17.9864 38.536L4.27412 30.1125C2.36784 28.9415 2.36784 26.1712 4.27412 25.0001L17.9863 16.5766Z" fill="#8FAFFF"/>
<path d="M17.9863 9.07732C18.9496 8.4856 20.1637 8.4856 21.1269 9.07732L34.8392 17.5008C36.7454 18.6719 36.7454 21.4422 34.8392 22.6132L21.1269 31.0367C20.1637 31.6285 18.9496 31.6285 17.9864 31.0367L4.27412 22.6132C2.36784 21.4422 2.36784 18.6719 4.27412 17.5008L17.9863 9.07732Z" fill="#A1BBFE"/>
</svg>
