<svg width="340" height="520" viewBox="0 0 340 520" fill="none" xmlns="http://www.w3.org/2000/svg">
<path d="M236.099 480.986C231.666 484.405 223.235 493.949 224.981 504.773C227.164 518.302 251.954 515.844 260.084 502.276C266.774 491.111 265.159 484.641 263.889 478.065C263.166 474.317 257.553 474.067 255.358 474.246" stroke="white"/>
<path d="M233.935 488.151C233.935 488.151 230.176 491.048 231.332 498.244C232.871 507.824 250.607 505.102 256.152 496.064C259.771 490.165 260.557 483.643 258.829 478.921" stroke="white"/>
<path fill-rule="evenodd" clip-rule="evenodd" d="M97.5054 226.97C128.493 212.152 142.84 175.51 129.59 143.365C115.874 110.088 77.7792 94.2312 44.5024 107.947C11.2257 121.663 -4.63155 159.758 9.08434 193.035C22.0831 224.572 56.9783 240.463 88.917 230.363C86.882 233.491 84.1966 237.957 87.9972 238.49C90.1362 238.79 92.8746 234.812 92.838 233.393C94.1373 237.858 97.4854 245.561 100.484 240.653C103.255 236.119 100.351 229.79 97.5054 226.97Z" fill="#FFEFE9"/>
<path d="M52.1562 125.068L81.3104 137.346L78.5211 143.969C73.2809 156.413 58.9456 162.252 46.5023 157.012L39.8787 154.222L52.1562 125.068Z" fill="#FFBEBE"/>
<path d="M60.8439 192.218C66.084 179.775 80.4193 173.935 92.8626 179.175L99.4862 181.965L87.2087 211.119L58.0545 198.841L60.8439 192.218Z" fill="#FFBEBE"/>
<path d="M83.5537 138.291L90.1773 141.08C102.621 146.32 108.46 160.655 103.22 173.099L100.43 179.722L71.2762 167.445L83.5537 138.291Z" fill="#FFBEBE"/>
<path d="M55.8105 197.897L49.187 195.107C36.7437 189.867 30.9044 175.532 36.1445 163.089L38.9339 156.465L68.0881 168.743L55.8105 197.897Z" fill="#FFBEBE"/>
<path fill-rule="evenodd" clip-rule="evenodd" d="M174.721 151.739C171.187 159.232 174.397 168.171 181.889 171.705L184.067 172.732C179.653 175.456 175.068 178.985 178.242 179.807C182.276 180.851 186.879 179.084 188.677 178.07C186.445 180.765 183.076 186.294 187.458 186.852C190.528 187.242 191.56 181.709 191.753 176.357L201.281 180.85C208.774 184.384 217.712 181.175 221.246 173.682L285.784 36.8386C289.318 29.3459 286.109 20.4071 278.616 16.8733L259.224 7.7279C251.732 4.19414 242.793 7.40357 239.259 14.8963L174.721 151.739Z" fill="#C9E2FA"/>
<path d="M243.115 56.6873L248.758 45.0594L244.622 43.0522L246.864 38.4315L251 40.4388L252.775 36.7828C253.711 34.8533 255.007 33.6419 256.662 33.1487C258.334 32.6216 260.118 32.8186 262.016 33.7397C263.556 34.487 264.777 35.1629 265.678 35.7676L263.682 39.8805L261.103 38.6292C260.136 38.1599 259.375 38.0415 258.82 38.274C258.369 38.4734 257.963 38.9455 257.602 39.6903L256.049 42.8892L260.615 45.105L257.728 49.4129L253.807 47.5099L248.164 59.1377L243.115 56.6873Z" fill="white"/>
<path d="M176.935 192.642C156.745 218.151 125.874 271.31 163.91 279.877C211.456 290.585 315.841 228.205 334.082 287.416" stroke="#D6E4F1" stroke-width="2" stroke-dasharray="2.5 2.5"/>
</svg>
