<svg width="48" height="48" viewBox="0 0 48 48" fill="none" xmlns="http://www.w3.org/2000/svg">
<path d="M20.7276 3.05798L12.1587 17.2508C11.2374 18.8381 12.343 20.7989 14.0937 20.7989H31.2314C33.0742 20.7989 34.1798 18.7447 33.1663 17.2508L24.6896 3.05798C23.7682 1.56401 21.649 1.56401 20.7276 3.05798Z" fill="#EC6689"/>
<path d="M35.3784 46.5702C41.1286 46.5702 45.7901 41.8462 45.7901 36.019C45.7901 30.1917 41.1286 25.4678 35.3784 25.4678C29.6282 25.4678 24.9668 30.1917 24.9668 36.019C24.9668 41.8462 29.6282 46.5702 35.3784 46.5702Z" fill="#1B367C"/>
<path d="M4.23705 45.4496H18.0578C19.3478 45.4496 20.3613 44.4225 20.3613 43.1153V29.1092C20.3613 27.802 19.3478 26.7749 18.0578 26.7749H4.23705C2.94712 26.7749 1.93359 27.802 1.93359 29.1092V43.1153C1.93359 44.3291 2.94712 45.4496 4.23705 45.4496Z" fill="#2955F2"/>
</svg>
