<svg width="639" height="378" viewBox="0 0 639 378" fill="none" xmlns="http://www.w3.org/2000/svg">
<path d="M0 12.6738C0 5.67427 4.40139 0 9.83077 0H629.169C634.599 0 639 5.67427 639 12.6738V364.373C639 371.372 634.599 377.047 629.169 377.047H9.83077C4.40139 377.047 0 371.372 0 364.373V12.6738Z" fill="white"/>
<path d="M23.3105 54.0544C23.3105 49.6316 26.9941 46.0463 31.538 46.0463H171.405C175.949 46.0463 179.632 49.6316 179.632 54.0544V64.0644C179.632 68.4872 175.949 72.0725 171.405 72.0725H31.538C26.9941 72.0725 23.3105 68.4872 23.3105 64.0644V54.0544Z" fill="#EFF0F2"/>
<path d="M32.2246 63.0636C32.2246 61.4051 33.6059 60.0606 35.3099 60.0606H93.5878C95.2918 60.0606 96.6731 61.4051 96.6731 63.0636C96.6731 64.7221 95.2918 66.0666 93.5878 66.0666H35.3099C33.6059 66.0666 32.2246 64.7221 32.2246 63.0636Z" fill="#C4C4C4"/>
<path d="M32.2246 54.388C32.2246 53.4666 32.992 52.7196 33.9387 52.7196H59.9923C60.939 52.7196 61.7064 53.4666 61.7064 54.388C61.7064 55.3094 60.939 56.0563 59.9923 56.0563H33.9387C32.992 56.0563 32.2246 55.3094 32.2246 54.388Z" fill="#DFDFDF"/>
<path d="M187.863 54.0544C187.863 49.6316 191.547 46.0463 196.091 46.0463H335.958C340.502 46.0463 344.185 49.6316 344.185 54.0544V64.0644C344.185 68.4872 340.502 72.0725 335.958 72.0725H196.091C191.547 72.0725 187.863 68.4872 187.863 64.0644V54.0544Z" fill="#EFF0F2"/>
<path d="M196.088 54.388C196.088 53.4666 196.855 52.7196 197.802 52.7196H218.371C219.317 52.7196 220.085 53.4666 220.085 54.388C220.085 55.3094 219.317 56.0563 218.371 56.0563H197.802C196.855 56.0563 196.088 55.3094 196.088 54.388Z" fill="#DFDFDF"/>
<path d="M196.088 63.0636C196.088 61.4051 197.469 60.0606 199.173 60.0606H258.137C259.841 60.0606 261.222 61.4051 261.222 63.0636C261.222 64.7221 259.841 66.0666 258.137 66.0666H199.173C197.469 66.0666 196.088 64.7221 196.088 63.0636Z" fill="#C4C4C4"/>
<path fill-rule="evenodd" clip-rule="evenodd" d="M356.007 59.063C356.007 58.6945 356.314 58.3957 356.692 58.3957L359.35 58.3957L359.35 55.809C359.35 55.4404 359.657 55.1416 360.036 55.1416C360.414 55.1416 360.721 55.4404 360.721 55.809L360.721 58.3957H363.379C363.757 58.3957 364.064 58.6945 364.064 59.063C364.064 59.4316 363.757 59.7304 363.379 59.7304H360.721L360.721 62.3171C360.721 62.6857 360.414 62.9845 360.036 62.9845C359.657 62.9845 359.35 62.6857 359.35 62.3171L359.35 59.7304L356.692 59.7304C356.314 59.7304 356.007 59.4316 356.007 59.063Z" fill="#3166ED"/>
<path d="M26.9018 104.85C26.2541 104.85 25.6896 104.723 25.2083 104.469C24.727 104.208 24.3557 103.838 24.0942 103.358C23.8387 102.878 23.7109 102.317 23.7109 101.675C23.7109 101.033 23.8417 100.475 24.1031 100.001C24.3646 99.5266 24.733 99.1622 25.2083 98.9077C25.6896 98.6475 26.2541 98.5173 26.9018 98.5173C27.5495 98.5173 28.111 98.6475 28.5864 98.9077C29.0677 99.1622 29.4361 99.5266 29.6916 100.001C29.9471 100.475 30.0749 101.033 30.0749 101.675C30.0749 102.317 29.9471 102.878 29.6916 103.358C29.4361 103.838 29.0677 104.208 28.5864 104.469C28.111 104.723 27.5495 104.85 26.9018 104.85ZM26.9018 103.61C27.3772 103.61 27.7486 103.445 28.016 103.115C28.2893 102.786 28.426 102.306 28.426 101.675C28.426 101.051 28.2893 100.576 28.016 100.252C27.7486 99.9227 27.3772 99.7579 26.9018 99.7579C26.4265 99.7579 26.0551 99.9199 25.7877 100.244C25.5203 100.568 25.3866 101.045 25.3866 101.675C25.3866 102.311 25.5203 102.794 25.7877 103.124C26.0551 103.448 26.4265 103.61 26.9018 103.61Z" fill="#B4B8C2" fill-opacity="0.8"/>
<path d="M37.0867 98.5954V104.772H35.8478L32.9689 101.267V104.772H31.4091V98.5954H32.6302L35.5091 102.083V98.5954H37.0867Z" fill="#B4B8C2" fill-opacity="0.8"/>
<path d="M38.5897 98.5954H40.2653V103.454H42.9482V104.772H38.5897V98.5954Z" fill="#B4B8C2" fill-opacity="0.8"/>
<path d="M44.1078 98.5954H45.7834V104.772H44.1078V98.5954Z" fill="#B4B8C2" fill-opacity="0.8"/>
<path d="M52.9621 98.5954V104.772H51.7232L48.8442 101.267V104.772H47.2845V98.5954H48.5056L51.3845 102.083V98.5954H52.9621Z" fill="#B4B8C2" fill-opacity="0.8"/>
<path d="M54.4651 98.5954H58.9929V99.8447H56.0962V101.007H58.8057V102.256H56.0962V103.523H58.9929V104.772H54.4651V98.5954Z" fill="#B4B8C2" fill-opacity="0.8"/>
<path d="M63.1424 98.5954H66.164C66.8889 98.5954 67.4504 98.766 67.8486 99.1073C68.2467 99.4427 68.4457 99.8996 68.4457 100.478C68.4457 101.051 68.2437 101.507 67.8396 101.849C67.4356 102.19 66.877 102.361 66.164 102.361H64.8181V104.772H63.1424V98.5954ZM65.9412 101.146C66.571 101.146 66.8859 100.929 66.8859 100.495C66.8859 100.276 66.8087 100.111 66.6542 100.001C66.5056 99.8852 66.268 99.8273 65.9412 99.8273H64.8181V101.146H65.9412Z" fill="#B4B8C2" fill-opacity="0.8"/>
<path d="M75.1178 104.772H73.3441L72.5241 102.716C72.429 102.485 72.2062 102.369 71.8556 102.369H71.2495V104.772H69.6006V98.5954H72.5508C73.3174 98.5954 73.8937 98.7574 74.28 99.0812C74.6662 99.3993 74.8593 99.8562 74.8593 100.452C74.8593 100.868 74.7435 101.23 74.5117 101.536C74.2859 101.837 73.9651 102.051 73.5491 102.178C73.7274 102.213 73.8878 102.294 74.0304 102.421C74.173 102.549 74.2859 102.719 74.3691 102.933L75.1178 104.772ZM72.2835 101.155C72.64 101.155 72.8985 101.103 73.0589 100.999C73.2193 100.889 73.2995 100.721 73.2995 100.495C73.2995 100.258 73.2193 100.088 73.0589 99.9835C72.9044 99.8794 72.6459 99.8273 72.2835 99.8273H71.2317V101.155H72.2835Z" fill="#B4B8C2" fill-opacity="0.8"/>
<path d="M76.3199 98.5954H80.8477V99.8447H77.951V101.007H80.6606V102.256H77.951V103.523H80.8477V104.772H76.3199V98.5954Z" fill="#B4B8C2" fill-opacity="0.8"/>
<path d="M84.2681 104.85C83.7928 104.85 83.3234 104.79 82.8599 104.668C82.3964 104.547 82.0191 104.382 81.7279 104.174L82.2538 103.02C82.5628 103.211 82.8896 103.358 83.2342 103.462C83.5848 103.561 83.9354 103.61 84.286 103.61C84.6425 103.61 84.9158 103.564 85.106 103.471C85.2961 103.373 85.3912 103.237 85.3912 103.063C85.3912 102.907 85.305 102.78 85.1327 102.682C84.9604 102.577 84.6365 102.476 84.1612 102.378C83.561 102.262 83.0946 102.121 82.7618 101.953C82.4291 101.779 82.1944 101.577 82.0577 101.346C81.927 101.114 81.8616 100.834 81.8616 100.504C81.8616 100.128 81.9715 99.7897 82.1914 99.489C82.4112 99.1824 82.7202 98.9453 83.1184 98.7776C83.5165 98.6041 83.971 98.5173 84.4821 98.5173C84.9396 98.5173 85.3823 98.581 85.8101 98.7082C86.2439 98.8296 86.5826 98.9916 86.8262 99.194L86.3092 100.348C86.03 100.157 85.7358 100.012 85.4268 99.9141C85.1179 99.81 84.8089 99.7579 84.4999 99.7579C84.1968 99.7579 83.9532 99.8158 83.769 99.9314C83.5848 100.041 83.4927 100.192 83.4927 100.383C83.4927 100.487 83.5254 100.573 83.5907 100.643C83.6561 100.712 83.7779 100.782 83.9562 100.851C84.1344 100.915 84.4018 100.984 84.7584 101.059C85.3347 101.181 85.7863 101.328 86.1131 101.502C86.4459 101.669 86.6806 101.869 86.8173 102.1C86.9539 102.326 87.0223 102.598 87.0223 102.916C87.0223 103.517 86.7816 103.992 86.3003 104.339C85.819 104.68 85.1416 104.85 84.2681 104.85Z" fill="#B4B8C2" fill-opacity="0.8"/>
<path d="M88.3136 98.5954H92.8414V99.8447H89.9447V101.007H92.6542V102.256H89.9447V103.523H92.8414V104.772H88.3136V98.5954Z" fill="#B4B8C2" fill-opacity="0.8"/>
<path d="M99.7269 98.5954V104.772H98.488L95.6091 101.267V104.772H94.0493V98.5954H95.2704L98.1493 102.083V98.5954H99.7269Z" fill="#B4B8C2" fill-opacity="0.8"/>
<path d="M104.314 104.85C103.654 104.85 103.078 104.72 102.585 104.46C102.097 104.194 101.72 103.821 101.453 103.341C101.191 102.861 101.061 102.306 101.061 101.675C101.061 101.051 101.191 100.501 101.453 100.027C101.72 99.5468 102.097 99.1767 102.585 98.9164C103.078 98.6504 103.654 98.5173 104.314 98.5173C104.73 98.5173 105.131 98.5781 105.517 98.6995C105.909 98.821 106.224 98.9858 106.462 99.194L105.954 100.348C105.437 99.9835 104.902 99.8013 104.349 99.8013C103.838 99.8013 103.446 99.9603 103.173 100.278C102.9 100.591 102.763 101.056 102.763 101.675C102.763 102.3 102.9 102.771 103.173 103.089C103.446 103.407 103.838 103.566 104.349 103.566C104.902 103.566 105.437 103.384 105.954 103.02L106.462 104.174C106.224 104.382 105.909 104.547 105.517 104.668C105.131 104.79 104.73 104.85 104.314 104.85Z" fill="#B4B8C2" fill-opacity="0.8"/>
<path d="M107.688 98.5954H112.216V99.8447H109.319V101.007H112.029V102.256H109.319V103.523H112.216V104.772H107.688V98.5954Z" fill="#B4B8C2" fill-opacity="0.8"/>
<path fill-rule="evenodd" clip-rule="evenodd" d="M459.364 132.801C459.364 132.432 459.671 132.133 460.05 132.133L462.707 132.133L462.707 129.546C462.707 129.178 463.014 128.879 463.393 128.879C463.772 128.879 464.079 129.178 464.079 129.546L464.079 132.133H466.736C467.115 132.133 467.422 132.432 467.422 132.801C467.422 133.169 467.115 133.468 466.736 133.468H464.079L464.079 136.055C464.079 136.423 463.772 136.722 463.393 136.722C463.014 136.722 462.707 136.423 462.707 136.055L462.707 133.468L460.05 133.468C459.671 133.468 459.364 133.169 459.364 132.801Z" fill="#3166ED"/>
<path d="M138.496 127.462C138.496 123.039 142.18 119.454 146.724 119.454H205.001C209.545 119.454 213.229 123.039 213.229 127.462V137.472C213.229 141.895 209.545 145.48 205.001 145.48H146.724C142.18 145.48 138.496 141.895 138.496 137.472V127.462Z" fill="#3B5998"/>
<path d="M164.553 132.467C164.553 130.44 166.16 128.796 168.143 128.796H200.729C202.712 128.796 204.319 130.44 204.319 132.467C204.319 134.494 202.712 136.137 200.729 136.137H168.143C166.16 136.137 164.553 134.494 164.553 132.467Z" fill="white" fill-opacity="0.5"/>
<path d="M150.865 136.804V132.924H149.465V131.382H150.865V130.162C150.865 129.518 151.059 129.021 151.446 128.671C151.834 128.309 152.349 128.129 152.992 128.129C153.513 128.129 153.937 128.151 154.264 128.196V129.569H153.392C153.064 129.569 152.84 129.637 152.719 129.772C152.622 129.885 152.574 130.066 152.574 130.315V131.382H154.119L153.901 132.924H152.574V136.804H150.865Z" fill="white"/>
<path d="M354.469 127.462C354.469 123.039 358.152 119.454 362.696 119.454H439.486C444.03 119.454 447.713 123.039 447.713 127.462V137.472C447.713 141.895 444.03 145.48 439.486 145.48H362.696C358.152 145.48 354.469 141.895 354.469 137.472V127.462Z" fill="#1AB7EA"/>
<path d="M382.58 132.467C382.58 130.44 384.205 128.796 386.21 128.796H433.115C435.119 128.796 436.744 130.44 436.744 132.467C436.744 134.494 435.119 136.137 433.115 136.137H386.21C384.205 136.137 382.58 134.494 382.58 132.467Z" fill="white" fill-opacity="0.5"/>
<path d="M374.345 131.017C374.308 131.764 373.745 132.792 372.656 134.103C371.542 135.47 370.6 136.148 369.829 136.137C369.352 136.137 368.942 135.723 368.599 134.896L368.342 133.965C368.061 132.976 367.859 132.338 367.736 132.051C367.553 131.591 367.357 131.362 367.149 131.362C367.088 131.362 366.874 131.482 366.507 131.724L366.121 131.258L366.653 130.81C367.143 130.396 367.492 130.115 367.7 129.965C368.055 129.712 368.336 129.58 368.544 129.569C369.18 129.511 369.572 129.919 369.719 130.793C369.915 131.907 370.074 132.666 370.196 133.068C370.331 133.54 370.49 133.764 370.673 133.741C370.857 133.718 371.114 133.465 371.444 132.982C371.787 132.465 371.971 132.074 371.995 131.81C372.032 131.453 371.909 131.241 371.628 131.172C371.408 131.114 371.144 131.149 370.839 131.275C371.242 130.034 372.013 129.431 373.151 129.465C373.996 129.488 374.393 130.005 374.345 131.017Z" fill="white"/>
<path d="M222.139 127.462C222.139 123.039 225.822 119.454 230.366 119.454H337.323C341.867 119.454 345.551 123.039 345.551 127.462V137.472C345.551 141.895 341.867 145.48 337.323 145.48H230.366C225.822 145.48 222.139 141.895 222.139 137.472V127.462Z" fill="#E1306C"/>
<path d="M250.938 132.467C250.938 130.44 252.545 128.796 254.527 128.796H326.88C328.862 128.796 330.47 130.44 330.47 132.467C330.47 134.494 328.862 136.137 326.88 136.137H254.527C252.545 136.137 250.938 134.494 250.938 132.467Z" fill="white" fill-opacity="0.5"/>
<path d="M237.572 130.907C237.161 130.907 236.776 131.01 236.418 131.217C236.073 131.411 235.794 131.682 235.582 132.03C235.383 132.366 235.284 132.734 235.284 133.134C235.284 133.534 235.383 133.909 235.582 134.257C235.794 134.593 236.073 134.864 236.418 135.071C236.776 135.264 237.161 135.361 237.572 135.361C237.983 135.361 238.361 135.264 238.706 135.071C239.064 134.864 239.342 134.593 239.541 134.257C239.754 133.909 239.86 133.534 239.86 133.134C239.86 132.734 239.754 132.366 239.541 132.03C239.342 131.682 239.064 131.411 238.706 131.217C238.361 131.01 237.983 130.907 237.572 130.907ZM237.572 134.586C237.161 134.586 236.809 134.444 236.517 134.16C236.226 133.876 236.08 133.534 236.08 133.134C236.08 132.734 236.226 132.392 236.517 132.108C236.809 131.824 237.161 131.682 237.572 131.682C237.983 131.682 238.334 131.824 238.626 132.108C238.918 132.392 239.064 132.734 239.064 133.134C239.064 133.534 238.918 133.876 238.626 134.16C238.334 134.444 237.983 134.586 237.572 134.586ZM240.496 130.81C240.483 130.952 240.423 131.075 240.317 131.178C240.224 131.281 240.105 131.333 239.959 131.333C239.813 131.333 239.687 131.281 239.581 131.178C239.475 131.075 239.422 130.952 239.422 130.81C239.422 130.668 239.475 130.546 239.581 130.442C239.687 130.339 239.813 130.287 239.959 130.287C240.105 130.287 240.231 130.339 240.337 130.442C240.443 130.546 240.496 130.668 240.496 130.81ZM242.008 131.333C241.982 130.959 241.922 130.636 241.829 130.365C241.71 130.042 241.524 129.765 241.272 129.532C241.034 129.287 240.748 129.106 240.417 128.99C240.138 128.9 239.807 128.848 239.422 128.835C239.051 128.809 238.434 128.796 237.572 128.796C236.71 128.796 236.086 128.809 235.702 128.835C235.33 128.848 235.005 128.9 234.727 128.99C234.395 129.106 234.103 129.287 233.851 129.532C233.613 129.765 233.434 130.042 233.314 130.365C233.221 130.636 233.162 130.959 233.135 131.333C233.122 131.695 233.115 132.295 233.115 133.134C233.115 133.973 233.122 134.58 233.135 134.954C233.162 135.316 233.221 135.632 233.314 135.903C233.434 136.226 233.613 136.51 233.851 136.755C234.103 136.988 234.395 137.155 234.727 137.259C235.005 137.362 235.33 137.42 235.702 137.433C236.086 137.459 236.71 137.472 237.572 137.472C238.434 137.472 239.051 137.459 239.422 137.433C239.807 137.42 240.138 137.368 240.417 137.278C240.748 137.162 241.034 136.988 241.272 136.755C241.524 136.51 241.71 136.226 241.829 135.903C241.922 135.632 241.975 135.316 241.989 134.954C242.015 134.58 242.028 133.973 242.028 133.134C242.028 132.295 242.022 131.695 242.008 131.333ZM241.053 135.69C240.894 136.077 240.609 136.355 240.198 136.523C239.986 136.6 239.628 136.652 239.124 136.678C238.845 136.691 238.434 136.697 237.89 136.697H237.253C236.723 136.697 236.312 136.691 236.02 136.678C235.529 136.652 235.171 136.6 234.946 136.523C234.548 136.368 234.263 136.09 234.09 135.69C234.011 135.471 233.957 135.122 233.931 134.645C233.918 134.36 233.911 133.96 233.911 133.444V132.824C233.911 132.308 233.918 131.908 233.931 131.624C233.957 131.133 234.011 130.784 234.09 130.578C234.249 130.178 234.534 129.9 234.946 129.745C235.171 129.668 235.529 129.616 236.02 129.59C236.312 129.577 236.723 129.571 237.253 129.571H237.89C238.421 129.571 238.832 129.577 239.124 129.59C239.628 129.616 239.986 129.668 240.198 129.745C240.609 129.9 240.894 130.178 241.053 130.578C241.133 130.784 241.186 131.133 241.213 131.624C241.226 131.895 241.233 132.295 241.233 132.824V133.444C241.233 133.96 241.226 134.36 241.213 134.645C241.186 135.122 241.133 135.471 241.053 135.69Z" fill="white"/>
<path d="M23.3105 127.462C23.3105 123.039 26.9941 119.454 31.538 119.454H121.355C125.898 119.454 129.582 123.039 129.582 127.462V137.472C129.582 141.895 125.898 145.48 121.355 145.48H31.538C26.9941 145.48 23.3105 141.895 23.3105 137.472V127.462Z" fill="#3166ED"/>
<path fill-rule="evenodd" clip-rule="evenodd" d="M39.3947 129.492C39.6057 129.571 39.7085 129.796 39.6243 129.995L39.2422 129.851L38.8602 129.708C38.9444 129.509 39.1837 129.412 39.3947 129.492ZM39.2422 129.851C38.8602 129.708 38.8602 129.708 38.8602 129.708L35.795 136.941C35.7108 137.139 35.8136 137.365 36.0246 137.444C36.2356 137.523 36.4749 137.427 36.5592 137.228L39.6243 129.995C39.6243 129.995 39.6243 129.995 39.2422 129.851ZM34.5719 130.798C34.7319 130.95 34.731 131.196 34.5698 131.346L32.5286 133.255L34.5755 135.246C34.7335 135.4 34.7293 135.645 34.5661 135.794C34.4029 135.943 34.1425 135.939 33.9844 135.785L31.6549 133.52C31.4983 133.367 31.5008 133.124 31.6606 132.975L33.9901 130.796C34.1513 130.646 34.4118 130.647 34.5719 130.798ZM40.8475 130.798C41.0075 130.647 41.268 130.646 41.4292 130.796L43.7587 132.975C43.9185 133.124 43.9211 133.367 43.7644 133.52L41.4349 135.785C41.2768 135.939 41.0164 135.943 40.8532 135.794C40.69 135.645 40.6858 135.4 40.8439 135.246L42.8907 133.255L40.8495 131.346C40.6883 131.196 40.6874 130.95 40.8475 130.798Z" fill="white"/>
<path d="M52.793 132.467C52.793 130.44 54.3993 128.796 56.3809 128.796H114.339C116.321 128.796 117.927 130.44 117.927 132.467C117.927 134.494 116.321 136.137 114.339 136.137H56.3809C54.3993 136.137 52.793 134.494 52.793 132.467Z" fill="white" fill-opacity="0.5"/>
<path d="M276.188 172.002H280.617V173.278H277.836V174.406H280.439V175.672H277.836V178.179H276.188V172.002Z" fill="#B4B8C2" fill-opacity="0.8"/>
<path d="M284.753 178.257C284.106 178.257 283.541 178.13 283.06 177.876C282.578 177.615 282.207 177.245 281.946 176.765C281.69 176.285 281.562 175.724 281.562 175.082C281.562 174.44 281.693 173.882 281.955 173.408C282.216 172.934 282.584 172.569 283.06 172.315C283.541 172.055 284.106 171.924 284.753 171.924C285.401 171.924 285.962 172.055 286.438 172.315C286.919 172.569 287.288 172.934 287.543 173.408C287.799 173.882 287.926 174.44 287.926 175.082C287.926 175.724 287.799 176.285 287.543 176.765C287.288 177.245 286.919 177.615 286.438 177.876C285.962 178.13 285.401 178.257 284.753 178.257ZM284.753 177.017C285.229 177.017 285.6 176.852 285.867 176.522C286.141 176.193 286.277 175.713 286.277 175.082C286.277 174.458 286.141 173.983 285.867 173.659C285.6 173.33 285.229 173.165 284.753 173.165C284.278 173.165 283.907 173.327 283.639 173.651C283.372 173.975 283.238 174.452 283.238 175.082C283.238 175.718 283.372 176.201 283.639 176.531C283.907 176.855 284.278 177.017 284.753 177.017Z" fill="#B4B8C2" fill-opacity="0.8"/>
<path d="M294.938 172.002V178.179H293.699L290.82 174.675V178.179H289.26V172.002H290.482L293.361 175.49V172.002H294.938Z" fill="#B4B8C2" fill-opacity="0.8"/>
<path d="M297.867 173.321H295.978V172.002H301.45V173.321H299.561V178.179H297.867V173.321Z" fill="#B4B8C2" fill-opacity="0.8"/>
<path d="M304.616 178.257C304.14 178.257 303.671 178.197 303.207 178.075C302.744 177.954 302.367 177.789 302.075 177.581L302.601 176.427C302.91 176.618 303.237 176.765 303.582 176.869C303.932 176.968 304.283 177.017 304.633 177.017C304.99 177.017 305.263 176.971 305.453 176.878C305.644 176.78 305.739 176.644 305.739 176.47C305.739 176.314 305.653 176.187 305.48 176.089C305.308 175.984 304.984 175.883 304.509 175.785C303.909 175.669 303.442 175.528 303.109 175.36C302.777 175.186 302.542 174.984 302.405 174.753C302.274 174.521 302.209 174.241 302.209 173.911C302.209 173.535 302.319 173.197 302.539 172.896C302.759 172.59 303.068 172.352 303.466 172.185C303.864 172.011 304.319 171.924 304.83 171.924C305.287 171.924 305.73 171.988 306.158 172.115C306.591 172.237 306.93 172.399 307.174 172.601L306.657 173.755C306.377 173.564 306.083 173.419 305.774 173.321C305.465 173.217 305.156 173.165 304.847 173.165C304.544 173.165 304.301 173.223 304.117 173.338C303.932 173.448 303.84 173.599 303.84 173.79C303.84 173.894 303.873 173.98 303.938 174.05C304.004 174.119 304.125 174.189 304.304 174.258C304.482 174.322 304.749 174.391 305.106 174.466C305.682 174.588 306.134 174.735 306.461 174.909C306.793 175.076 307.028 175.276 307.165 175.507C307.301 175.733 307.37 176.005 307.37 176.323C307.37 176.924 307.129 177.399 306.648 177.746C306.167 178.087 305.489 178.257 304.616 178.257Z" fill="#B4B8C2" fill-opacity="0.8"/>
<path fill-rule="evenodd" clip-rule="evenodd" d="M573.177 226.228C573.177 225.859 573.484 225.561 573.862 225.561L576.52 225.561L576.52 222.974C576.52 222.605 576.827 222.307 577.205 222.307C577.584 222.307 577.891 222.605 577.891 222.974L577.891 225.561H580.549C580.927 225.561 581.234 225.859 581.234 226.228C581.234 226.597 580.927 226.895 580.549 226.895H577.891L577.891 229.482C577.891 229.851 577.584 230.149 577.205 230.149C576.827 230.149 576.52 229.851 576.52 229.482L576.52 226.895L573.862 226.895C573.484 226.895 573.177 226.597 573.177 226.228Z" fill="#3166ED"/>
<path d="M275.619 199.534C275.619 195.111 279.303 191.526 283.847 191.526H399.031C403.575 191.526 407.259 195.111 407.259 199.534V252.921C407.259 257.344 403.575 260.929 399.031 260.929H283.847C279.303 260.929 275.619 257.344 275.619 252.921V199.534Z" fill="#EFF0F2"/>
<path d="M286.588 223.892C286.588 222.971 287.355 222.224 288.302 222.224H389.088C390.035 222.224 390.802 222.971 390.802 223.892C390.802 224.814 390.035 225.56 389.088 225.56H288.302C287.355 225.56 286.588 224.814 286.588 223.892Z" fill="#DFDFDF"/>
<path d="M286.588 232.568C286.588 231.646 287.355 230.899 288.302 230.899H367.148C368.095 230.899 368.863 231.646 368.863 232.568C368.863 233.489 368.095 234.236 367.148 234.236H288.302C287.355 234.236 286.588 233.489 286.588 232.568Z" fill="#DFDFDF"/>
<path d="M286.588 241.243C286.588 240.322 287.355 239.575 288.302 239.575H376.747C377.694 239.575 378.461 240.322 378.461 241.243C378.461 242.164 377.694 242.911 376.747 242.911H288.302C287.355 242.911 286.588 242.164 286.588 241.243Z" fill="#DFDFDF"/>
<path d="M286.588 249.918C286.588 248.997 287.355 248.25 288.302 248.25H334.924C335.871 248.25 336.638 248.997 336.638 249.918C336.638 250.84 335.871 251.587 334.924 251.587H288.302C287.355 251.587 286.588 250.84 286.588 249.918Z" fill="#DFDFDF"/>
<path d="M287.986 204.399V211.546H289.601V208.463H292.573V211.546H294.188V204.399H292.573V207.142H289.601V204.399H287.986Z" fill="#888888" fill-opacity="0.5"/>
<path d="M299.034 208.403H296.658C296.665 208.303 296.686 208.189 296.72 208.063C296.761 207.936 296.826 207.816 296.915 207.702C297.011 207.589 297.135 207.495 297.286 207.422C297.443 207.342 297.639 207.302 297.872 207.302C298.228 207.302 298.492 207.395 298.664 207.582C298.842 207.769 298.965 208.043 299.034 208.403ZM296.658 209.304H300.494C300.522 208.904 300.487 208.52 300.391 208.153C300.295 207.786 300.138 207.459 299.918 207.172C299.706 206.885 299.432 206.658 299.096 206.491C298.76 206.318 298.365 206.231 297.913 206.231C297.508 206.231 297.138 206.301 296.802 206.441C296.473 206.581 296.189 206.775 295.949 207.022C295.709 207.262 295.523 207.549 295.393 207.882C295.263 208.216 295.198 208.577 295.198 208.964C295.198 209.364 295.26 209.731 295.383 210.065C295.513 210.398 295.695 210.685 295.928 210.926C296.161 211.166 296.446 211.353 296.782 211.486C297.118 211.613 297.495 211.676 297.913 211.676C298.516 211.676 299.03 211.543 299.456 211.276C299.881 211.009 300.196 210.565 300.402 209.945H299.116C299.068 210.105 298.938 210.258 298.725 210.405C298.513 210.545 298.259 210.615 297.964 210.615C297.553 210.615 297.238 210.512 297.018 210.305C296.799 210.098 296.679 209.764 296.658 209.304Z" fill="#888888" fill-opacity="0.5"/>
<path d="M301.402 204.399V211.546H302.862V204.399H301.402Z" fill="#888888" fill-opacity="0.5"/>
<path d="M306.953 211.546L308.753 206.371H307.303L306.182 209.905H306.161L305.04 206.371H303.508L305.328 211.546H306.953Z" fill="#888888" fill-opacity="0.5"/>
<path d="M312.934 208.403H310.558C310.565 208.303 310.586 208.189 310.62 208.063C310.661 207.936 310.726 207.816 310.815 207.702C310.911 207.589 311.035 207.495 311.185 207.422C311.343 207.342 311.539 207.302 311.772 207.302C312.128 207.302 312.392 207.395 312.564 207.582C312.742 207.769 312.865 208.043 312.934 208.403ZM310.558 209.304H314.394C314.422 208.904 314.387 208.52 314.291 208.153C314.195 207.786 314.038 207.459 313.818 207.172C313.606 206.885 313.331 206.658 312.996 206.491C312.66 206.318 312.265 206.231 311.813 206.231C311.408 206.231 311.038 206.301 310.702 206.441C310.373 206.581 310.088 206.775 309.848 207.022C309.609 207.262 309.423 207.549 309.293 207.882C309.163 208.216 309.098 208.577 309.098 208.964C309.098 209.364 309.159 209.731 309.283 210.065C309.413 210.398 309.595 210.685 309.828 210.926C310.061 211.166 310.346 211.353 310.682 211.486C311.017 211.613 311.395 211.676 311.813 211.676C312.416 211.676 312.93 211.543 313.355 211.276C313.781 211.009 314.096 210.565 314.302 209.945H313.016C312.968 210.105 312.838 210.258 312.625 210.405C312.413 210.545 312.159 210.615 311.864 210.615C311.453 210.615 311.137 210.512 310.918 210.305C310.699 210.098 310.579 209.764 310.558 209.304Z" fill="#888888" fill-opacity="0.5"/>
<path d="M317.111 206.371V204.819H315.651V206.371H314.767V207.322H315.651V210.375C315.651 210.635 315.696 210.845 315.785 211.006C315.874 211.166 315.994 211.289 316.145 211.376C316.302 211.463 316.481 211.519 316.68 211.546C316.885 211.58 317.101 211.596 317.327 211.596C317.471 211.596 317.619 211.593 317.77 211.586C317.921 211.58 318.058 211.566 318.181 211.546V210.445C318.112 210.458 318.041 210.468 317.965 210.475C317.89 210.482 317.811 210.485 317.729 210.485C317.482 210.485 317.317 210.445 317.235 210.365C317.153 210.285 317.111 210.125 317.111 209.885V207.322H318.181V206.371H317.111Z" fill="#888888" fill-opacity="0.5"/>
<path d="M320.377 205.57V204.399H318.917V205.57H320.377ZM318.917 206.371V211.546H320.377V206.371H318.917Z" fill="#888888" fill-opacity="0.5"/>
<path d="M325.147 208.193H326.577C326.556 207.859 326.474 207.572 326.33 207.332C326.186 207.085 325.998 206.881 325.764 206.721C325.538 206.554 325.278 206.431 324.983 206.351C324.695 206.271 324.393 206.231 324.078 206.231C323.646 206.231 323.262 206.301 322.926 206.441C322.59 206.581 322.306 206.778 322.072 207.032C321.839 207.279 321.661 207.576 321.538 207.923C321.421 208.263 321.363 208.633 321.363 209.034C321.363 209.421 321.428 209.778 321.558 210.105C321.688 210.425 321.87 210.702 322.103 210.936C322.336 211.169 322.617 211.353 322.947 211.486C323.283 211.613 323.649 211.676 324.047 211.676C324.753 211.676 325.333 211.496 325.785 211.136C326.238 210.775 326.512 210.252 326.608 209.564H325.199C325.151 209.885 325.031 210.141 324.839 210.335C324.654 210.522 324.386 210.615 324.037 210.615C323.81 210.615 323.618 210.565 323.461 210.465C323.303 210.365 323.176 210.238 323.08 210.085C322.991 209.925 322.926 209.748 322.885 209.554C322.844 209.361 322.823 209.17 322.823 208.984C322.823 208.79 322.844 208.597 322.885 208.403C322.926 208.203 322.995 208.023 323.091 207.862C323.193 207.696 323.324 207.562 323.481 207.462C323.639 207.355 323.834 207.302 324.068 207.302C324.691 207.302 325.051 207.599 325.147 208.193Z" fill="#888888" fill-opacity="0.5"/>
<path d="M327.371 207.963C327.392 207.629 327.477 207.352 327.628 207.132C327.779 206.912 327.971 206.735 328.204 206.601C328.437 206.468 328.698 206.374 328.986 206.321C329.281 206.261 329.575 206.231 329.87 206.231C330.138 206.231 330.408 206.251 330.683 206.291C330.957 206.324 331.207 206.394 331.433 206.501C331.66 206.608 331.845 206.758 331.989 206.952C332.133 207.138 332.205 207.389 332.205 207.702V210.395C332.205 210.629 332.218 210.852 332.246 211.066C332.273 211.279 332.321 211.439 332.39 211.546H330.909C330.881 211.466 330.857 211.386 330.837 211.306C330.823 211.219 330.813 211.132 330.806 211.046C330.573 211.279 330.299 211.443 329.983 211.536C329.668 211.63 329.346 211.676 329.017 211.676C328.763 211.676 328.526 211.646 328.307 211.586C328.088 211.526 327.896 211.433 327.731 211.306C327.566 211.179 327.436 211.019 327.34 210.825C327.251 210.632 327.207 210.402 327.207 210.135C327.207 209.841 327.258 209.601 327.361 209.414C327.47 209.221 327.608 209.067 327.772 208.954C327.944 208.84 328.136 208.757 328.348 208.703C328.567 208.643 328.787 208.597 329.006 208.563C329.226 208.53 329.442 208.503 329.654 208.483C329.867 208.463 330.055 208.433 330.22 208.393C330.384 208.353 330.515 208.296 330.611 208.223C330.707 208.143 330.751 208.029 330.744 207.882C330.744 207.729 330.717 207.609 330.662 207.522C330.614 207.429 330.546 207.359 330.456 207.312C330.374 207.259 330.275 207.225 330.158 207.212C330.048 207.192 329.928 207.182 329.798 207.182C329.51 207.182 329.284 207.242 329.119 207.362C328.955 207.482 328.859 207.682 328.831 207.963H327.371ZM330.744 209.014C330.683 209.067 330.604 209.11 330.508 209.144C330.419 209.17 330.319 209.194 330.21 209.214C330.107 209.234 329.997 209.251 329.88 209.264C329.764 209.277 329.647 209.294 329.531 209.314C329.421 209.334 329.311 209.361 329.202 209.394C329.099 209.427 329.006 209.474 328.924 209.534C328.849 209.588 328.787 209.658 328.739 209.744C328.691 209.831 328.667 209.941 328.667 210.075C328.667 210.201 328.691 210.308 328.739 210.395C328.787 210.482 328.852 210.552 328.934 210.605C329.017 210.652 329.113 210.685 329.222 210.705C329.332 210.725 329.445 210.735 329.562 210.735C329.85 210.735 330.072 210.689 330.23 210.595C330.388 210.502 330.504 210.392 330.58 210.265C330.655 210.131 330.7 209.998 330.713 209.864C330.734 209.731 330.744 209.624 330.744 209.544V209.014Z" fill="#888888" fill-opacity="0.5"/>
<path d="M336.355 204.399V211.546H337.867V206.761H337.887L340.942 211.546H342.556V204.399H341.044V209.194H341.024L337.959 204.399H336.355Z" fill="#888888" fill-opacity="0.5"/>
<path d="M347.402 208.403H345.027C345.034 208.303 345.054 208.189 345.088 208.063C345.13 207.936 345.195 207.816 345.284 207.702C345.38 207.589 345.503 207.495 345.654 207.422C345.812 207.342 346.007 207.302 346.24 207.302C346.597 207.302 346.861 207.395 347.032 207.582C347.21 207.769 347.334 208.043 347.402 208.403ZM345.027 209.304H348.863C348.89 208.904 348.856 208.52 348.76 208.153C348.664 207.786 348.506 207.459 348.287 207.172C348.074 206.885 347.8 206.658 347.464 206.491C347.128 206.318 346.734 206.231 346.281 206.231C345.877 206.231 345.507 206.301 345.171 206.441C344.842 206.581 344.557 206.775 344.317 207.022C344.077 207.262 343.892 207.549 343.762 207.882C343.631 208.216 343.566 208.577 343.566 208.964C343.566 209.364 343.628 209.731 343.751 210.065C343.882 210.398 344.063 210.685 344.297 210.926C344.53 211.166 344.814 211.353 345.15 211.486C345.486 211.613 345.863 211.676 346.281 211.676C346.885 211.676 347.399 211.543 347.824 211.276C348.249 211.009 348.565 210.565 348.77 209.945H347.485C347.437 210.105 347.306 210.258 347.094 210.405C346.881 210.545 346.628 210.615 346.333 210.615C345.921 210.615 345.606 210.512 345.387 210.305C345.167 210.098 345.047 209.764 345.027 209.304Z" fill="#888888" fill-opacity="0.5"/>
<path d="M354.717 211.546V206.371H353.256V209.084C353.256 209.611 353.167 209.991 352.989 210.225C352.811 210.452 352.523 210.565 352.125 210.565C351.775 210.565 351.532 210.462 351.395 210.255C351.258 210.041 351.189 209.721 351.189 209.294V206.371H349.729V209.554C349.729 209.875 349.756 210.168 349.811 210.435C349.873 210.695 349.976 210.919 350.12 211.106C350.264 211.286 350.459 211.426 350.706 211.526C350.96 211.626 351.282 211.676 351.673 211.676C351.981 211.676 352.283 211.61 352.578 211.476C352.872 211.343 353.112 211.126 353.298 210.825H353.328V211.546H354.717Z" fill="#888888" fill-opacity="0.5"/>
<path d="M359.404 208.403H357.028C357.035 208.303 357.056 208.189 357.09 208.063C357.131 207.936 357.196 207.816 357.286 207.702C357.382 207.589 357.505 207.495 357.656 207.422C357.813 207.342 358.009 207.302 358.242 207.302C358.599 207.302 358.862 207.395 359.034 207.582C359.212 207.769 359.336 208.043 359.404 208.403ZM357.028 209.304H360.865C360.892 208.904 360.858 208.52 360.762 208.153C360.666 207.786 360.508 207.459 360.289 207.172C360.076 206.885 359.802 206.658 359.466 206.491C359.13 206.318 358.736 206.231 358.283 206.231C357.879 206.231 357.508 206.301 357.172 206.441C356.843 206.581 356.559 206.775 356.319 207.022C356.079 207.262 355.894 207.549 355.763 207.882C355.633 208.216 355.568 208.577 355.568 208.964C355.568 209.364 355.63 209.731 355.753 210.065C355.883 210.398 356.065 210.685 356.298 210.926C356.531 211.166 356.816 211.353 357.152 211.486C357.488 211.613 357.865 211.676 358.283 211.676C358.886 211.676 359.401 211.543 359.826 211.276C360.251 211.009 360.566 210.565 360.772 209.945H359.486C359.438 210.105 359.308 210.258 359.096 210.405C358.883 210.545 358.629 210.615 358.335 210.615C357.923 210.615 357.608 210.512 357.388 210.305C357.169 210.098 357.049 209.764 357.028 209.304Z" fill="#888888" fill-opacity="0.5"/>
<path d="M423.713 199.534C423.713 195.111 427.396 191.526 431.94 191.526H547.125C551.669 191.526 555.352 195.111 555.352 199.534V252.921C555.352 257.344 551.669 260.929 547.125 260.929H431.94C427.396 260.929 423.713 257.344 423.713 252.921V199.534Z" fill="#EFF0F2"/>
<path d="M434.68 223.892C434.68 222.971 435.447 222.224 436.394 222.224H537.18C538.127 222.224 538.894 222.971 538.894 223.892C538.894 224.814 538.127 225.56 537.18 225.56H436.394C435.447 225.56 434.68 224.814 434.68 223.892Z" fill="#DFDFDF"/>
<path d="M434.68 232.568C434.68 231.646 435.447 230.899 436.394 230.899H515.24C516.187 230.899 516.954 231.646 516.954 232.568C516.954 233.489 516.187 234.236 515.24 234.236H436.394C435.447 234.236 434.68 233.489 434.68 232.568Z" fill="#DFDFDF"/>
<path d="M434.68 241.243C434.68 240.322 435.447 239.575 436.394 239.575H524.839C525.786 239.575 526.553 240.322 526.553 241.243C526.553 242.164 525.786 242.911 524.839 242.911H436.394C435.447 242.911 434.68 242.164 434.68 241.243Z" fill="#DFDFDF"/>
<path d="M434.68 249.918C434.68 248.997 435.447 248.25 436.394 248.25H483.016C483.963 248.25 484.73 248.997 484.73 249.918C484.73 250.84 483.963 251.587 483.016 251.587H436.394C435.447 251.587 434.68 250.84 434.68 249.918Z" fill="#DFDFDF"/>
<path d="M435.979 210.879L436.575 203.772H437.984L439.424 207.285L439.784 208.326H439.804C439.935 207.913 440.055 207.565 440.164 207.285L441.604 203.772H443.013L443.609 210.879H442.283L441.985 206.905C441.971 206.765 441.964 206.605 441.964 206.424C441.964 206.237 441.967 206.087 441.974 205.974V205.804H441.954C441.796 206.264 441.662 206.631 441.553 206.905L440.37 209.658H439.218L438.035 206.905L437.634 205.794H437.614C437.634 206.221 437.631 206.591 437.603 206.905L437.305 210.879H435.979Z" fill="#888888" fill-opacity="0.5"/>
<path d="M444.818 209.057V205.774H446.124V208.797C446.124 209.137 446.182 209.397 446.299 209.578C446.422 209.751 446.634 209.838 446.936 209.838C447.389 209.838 447.745 209.671 448.006 209.337C448.273 209.004 448.407 208.597 448.407 208.116V205.774H449.703V210.879H448.448V210.278L448.479 209.928H448.458C448.321 210.215 448.088 210.465 447.759 210.679C447.43 210.892 447.056 210.999 446.638 210.999C445.424 210.999 444.818 210.352 444.818 209.057Z" fill="#888888" fill-opacity="0.5"/>
<path d="M450.694 210.248L451.28 209.407C451.699 209.781 452.196 209.968 452.772 209.968C453.005 209.968 453.183 209.925 453.306 209.838C453.437 209.744 453.502 209.618 453.502 209.457C453.502 209.311 453.413 209.184 453.235 209.077C453.056 208.97 452.84 208.873 452.587 208.787C452.333 208.7 452.076 208.6 451.815 208.486C451.562 208.366 451.346 208.196 451.167 207.976C450.989 207.756 450.9 207.492 450.9 207.185C450.9 206.705 451.089 206.331 451.466 206.064C451.85 205.79 452.329 205.654 452.905 205.654C453.632 205.654 454.222 205.847 454.674 206.234L454.191 207.125C454.04 206.998 453.838 206.895 453.584 206.815C453.337 206.728 453.097 206.685 452.864 206.685C452.377 206.685 452.134 206.848 452.134 207.175C452.134 207.322 452.223 207.449 452.401 207.555C452.58 207.662 452.796 207.759 453.049 207.846C453.31 207.933 453.567 208.033 453.821 208.146C454.074 208.253 454.29 208.416 454.469 208.637C454.647 208.857 454.736 209.12 454.736 209.427C454.736 209.881 454.554 210.258 454.191 210.559C453.828 210.852 453.348 210.999 452.751 210.999C451.915 210.999 451.229 210.749 450.694 210.248Z" fill="#888888" fill-opacity="0.5"/>
<path d="M455.497 208.326C455.497 207.539 455.744 206.898 456.238 206.404C456.738 205.904 457.383 205.654 458.171 205.654C458.898 205.654 459.467 205.884 459.879 206.344C460.29 206.798 460.496 207.375 460.496 208.076C460.496 208.189 460.482 208.353 460.454 208.567H456.845C456.886 208.994 457.054 209.327 457.349 209.568C457.643 209.801 458 209.918 458.418 209.918C458.939 209.918 459.44 209.731 459.92 209.357L460.434 210.268C460.173 210.495 459.851 210.675 459.467 210.809C459.09 210.936 458.71 210.999 458.326 210.999C457.482 210.999 456.8 210.742 456.279 210.228C455.758 209.708 455.497 209.074 455.497 208.326ZM456.875 207.696H459.189C459.183 207.362 459.08 207.098 458.881 206.905C458.689 206.711 458.442 206.615 458.14 206.615C457.811 206.615 457.534 206.715 457.307 206.915C457.081 207.108 456.937 207.369 456.875 207.696Z" fill="#888888" fill-opacity="0.5"/>
<path d="M462.095 210.248C461.54 209.741 461.262 209.1 461.262 208.326C461.262 207.552 461.54 206.915 462.095 206.414C462.651 205.907 463.329 205.654 464.132 205.654C464.941 205.654 465.623 205.907 466.178 206.414C466.74 206.915 467.021 207.552 467.021 208.326C467.021 209.1 466.744 209.741 466.188 210.248C465.633 210.749 464.951 210.999 464.142 210.999C463.333 210.999 462.651 210.749 462.095 210.248ZM462.589 208.326C462.589 208.793 462.736 209.177 463.031 209.477C463.333 209.771 463.703 209.918 464.142 209.918C464.581 209.918 464.951 209.771 465.253 209.477C465.554 209.177 465.705 208.793 465.705 208.326C465.705 207.866 465.551 207.485 465.242 207.185C464.941 206.885 464.574 206.735 464.142 206.735C463.71 206.735 463.343 206.885 463.041 207.185C462.74 207.485 462.589 207.866 462.589 208.326Z" fill="#888888" fill-opacity="0.5"/>
<path d="M470.331 210.028L471.051 209.057C471.291 209.264 471.572 209.441 471.894 209.588C472.223 209.734 472.545 209.808 472.861 209.808C473.19 209.808 473.45 209.734 473.642 209.588C473.834 209.434 473.93 209.237 473.93 208.997C473.93 208.75 473.814 208.536 473.581 208.356C473.348 208.176 473.063 208.019 472.727 207.886C472.398 207.752 472.065 207.606 471.73 207.445C471.394 207.285 471.109 207.058 470.876 206.765C470.643 206.471 470.526 206.121 470.526 205.714C470.526 205.1 470.759 204.603 471.226 204.222C471.699 203.842 472.295 203.652 473.015 203.652C473.872 203.652 474.585 203.905 475.154 204.412L474.568 205.463C474.362 205.283 474.112 205.136 473.817 205.023C473.529 204.903 473.245 204.843 472.964 204.843C472.628 204.843 472.357 204.916 472.151 205.063C471.952 205.21 471.853 205.407 471.853 205.654C471.853 205.894 471.969 206.101 472.203 206.274C472.436 206.448 472.717 206.598 473.046 206.725C473.382 206.851 473.718 206.995 474.054 207.155C474.39 207.309 474.674 207.532 474.907 207.826C475.14 208.119 475.257 208.476 475.257 208.897C475.257 209.497 475.041 209.998 474.609 210.398C474.177 210.799 473.584 210.999 472.83 210.999C472.364 210.999 471.911 210.916 471.472 210.749C471.034 210.582 470.653 210.342 470.331 210.028Z" fill="#888888" fill-opacity="0.5"/>
<path d="M475.994 209.467C475.994 209.107 476.093 208.8 476.292 208.546C476.498 208.293 476.765 208.109 477.094 207.996C477.43 207.876 477.752 207.792 478.061 207.746C478.376 207.699 478.705 207.676 479.048 207.676H479.275V207.606C479.275 207.005 478.945 206.705 478.287 206.705C477.807 206.705 477.32 206.868 476.827 207.195L476.343 206.284C476.57 206.111 476.875 205.964 477.259 205.844C477.643 205.717 478.023 205.654 478.4 205.654C479.086 205.654 479.621 205.834 480.005 206.194C480.389 206.548 480.581 207.045 480.581 207.686V210.879H479.367V210.448L479.398 210.078H479.377C479.213 210.352 478.983 210.575 478.688 210.749C478.393 210.916 478.071 210.999 477.722 210.999C477.235 210.999 476.823 210.859 476.487 210.579C476.158 210.292 475.994 209.921 475.994 209.467ZM477.29 209.357C477.29 209.537 477.358 209.694 477.495 209.828C477.639 209.961 477.835 210.028 478.082 210.028C478.431 210.028 478.719 209.888 478.945 209.608C479.172 209.327 479.285 209.02 479.285 208.687V208.546H479.059C477.879 208.546 477.29 208.817 477.29 209.357Z" fill="#888888" fill-opacity="0.5"/>
<path d="M481.919 210.879V205.774H483.173V206.374L483.153 206.735H483.173C483.311 206.461 483.537 206.214 483.852 205.994C484.168 205.767 484.562 205.654 485.035 205.654C486.255 205.654 486.865 206.301 486.865 207.596V210.879H485.559V207.856C485.559 207.515 485.498 207.259 485.374 207.085C485.258 206.905 485.045 206.815 484.737 206.815C484.284 206.815 483.917 206.975 483.636 207.295C483.362 207.616 483.225 208.013 483.225 208.486V210.879H481.919Z" fill="#888888" fill-opacity="0.5"/>
<path d="M487.794 210.248L488.38 209.407C488.799 209.781 489.296 209.968 489.872 209.968C490.105 209.968 490.283 209.925 490.406 209.838C490.537 209.744 490.602 209.618 490.602 209.457C490.602 209.311 490.513 209.184 490.334 209.077C490.156 208.97 489.94 208.873 489.687 208.787C489.433 208.7 489.176 208.6 488.915 208.486C488.662 208.366 488.446 208.196 488.267 207.976C488.089 207.756 488 207.492 488 207.185C488 206.705 488.188 206.331 488.566 206.064C488.949 205.79 489.429 205.654 490.005 205.654C490.732 205.654 491.322 205.847 491.774 206.234L491.291 207.125C491.14 206.998 490.938 206.895 490.684 206.815C490.437 206.728 490.197 206.685 489.964 206.685C489.477 206.685 489.234 206.848 489.234 207.175C489.234 207.322 489.323 207.449 489.501 207.555C489.68 207.662 489.896 207.759 490.149 207.846C490.41 207.933 490.667 208.033 490.921 208.146C491.174 208.253 491.39 208.416 491.569 208.637C491.747 208.857 491.836 209.12 491.836 209.427C491.836 209.881 491.654 210.258 491.291 210.559C490.927 210.852 490.448 210.999 489.851 210.999C489.015 210.999 488.329 210.749 487.794 210.248Z" fill="#888888" fill-opacity="0.5"/>
<path fill-rule="evenodd" clip-rule="evenodd" d="M221.454 328.248C221.454 327.879 221.761 327.581 222.14 327.581L224.797 327.581L224.797 324.994C224.797 324.625 225.104 324.326 225.483 324.326C225.861 324.326 226.168 324.625 226.168 324.994L226.168 327.581H228.826C229.205 327.581 229.512 327.879 229.512 328.248C229.512 328.616 229.205 328.915 228.826 328.915H226.168L226.168 331.502C226.168 331.871 225.861 332.169 225.483 332.169C225.104 332.169 224.797 331.871 224.797 331.502L224.797 328.915L222.14 328.915C221.761 328.915 221.454 328.616 221.454 328.248Z" fill="#3166ED"/>
<path d="M26.9642 293.707C26.3046 293.707 25.7283 293.577 25.2351 293.317C24.7478 293.051 24.3705 292.678 24.1031 292.198C23.8417 291.717 23.7109 291.162 23.7109 290.532C23.7109 289.907 23.8417 289.358 24.1031 288.884C24.3705 288.403 24.7478 288.033 25.2351 287.773C25.7283 287.507 26.3046 287.374 26.9642 287.374C27.3802 287.374 27.7812 287.435 28.1675 287.556C28.5597 287.678 28.8746 287.842 29.1123 288.051L28.6042 289.205C28.0873 288.84 27.5525 288.658 26.9999 288.658C26.4889 288.658 26.0967 288.817 25.8233 289.135C25.55 289.447 25.4133 289.913 25.4133 290.532C25.4133 291.156 25.55 291.628 25.8233 291.946C26.0967 292.264 26.4889 292.423 26.9999 292.423C27.5525 292.423 28.0873 292.241 28.6042 291.877L29.1123 293.03C28.8746 293.239 28.5597 293.403 28.1675 293.525C27.7812 293.646 27.3802 293.707 26.9642 293.707Z" fill="#B4B8C2" fill-opacity="0.8"/>
<path d="M33.2207 293.707C32.573 293.707 32.0085 293.58 31.5272 293.325C31.0459 293.065 30.6745 292.695 30.4131 292.215C30.1576 291.735 30.0298 291.174 30.0298 290.532C30.0298 289.89 30.1606 289.332 30.422 288.857C30.6835 288.383 31.0519 288.019 31.5272 287.764C32.0085 287.504 32.573 287.374 33.2207 287.374C33.8684 287.374 34.4299 287.504 34.9053 287.764C35.3866 288.019 35.755 288.383 36.0105 288.857C36.266 289.332 36.3938 289.89 36.3938 290.532C36.3938 291.174 36.266 291.735 36.0105 292.215C35.755 292.695 35.3866 293.065 34.9053 293.325C34.4299 293.58 33.8684 293.707 33.2207 293.707ZM33.2207 292.466C33.6961 292.466 34.0675 292.302 34.3349 291.972C34.6082 291.642 34.7449 291.162 34.7449 290.532C34.7449 289.907 34.6082 289.433 34.3349 289.109C34.0675 288.779 33.6961 288.615 33.2207 288.615C32.7454 288.615 32.374 288.777 32.1066 289.1C31.8392 289.424 31.7055 289.901 31.7055 290.532C31.7055 291.168 31.8392 291.651 32.1066 291.981C32.374 292.305 32.7454 292.466 33.2207 292.466Z" fill="#B4B8C2" fill-opacity="0.8"/>
<path d="M37.728 287.452H39.4036V292.31H42.0865V293.629H37.728V287.452Z" fill="#B4B8C2" fill-opacity="0.8"/>
<path d="M45.8933 293.707C45.2456 293.707 44.6811 293.58 44.1998 293.325C43.7185 293.065 43.3471 292.695 43.0857 292.215C42.8302 291.735 42.7024 291.174 42.7024 290.532C42.7024 289.89 42.8332 289.332 43.0946 288.857C43.3561 288.383 43.7245 288.019 44.1998 287.764C44.6811 287.504 45.2456 287.374 45.8933 287.374C46.541 287.374 47.1025 287.504 47.5779 287.764C48.0592 288.019 48.4276 288.383 48.6831 288.857C48.9386 289.332 49.0664 289.89 49.0664 290.532C49.0664 291.174 48.9386 291.735 48.6831 292.215C48.4276 292.695 48.0592 293.065 47.5779 293.325C47.1025 293.58 46.541 293.707 45.8933 293.707ZM45.8933 292.466C46.3687 292.466 46.7401 292.302 47.0075 291.972C47.2808 291.642 47.4175 291.162 47.4175 290.532C47.4175 289.907 47.2808 289.433 47.0075 289.109C46.7401 288.779 46.3687 288.615 45.8933 288.615C45.418 288.615 45.0466 288.777 44.7792 289.1C44.5118 289.424 44.3781 289.901 44.3781 290.532C44.3781 291.168 44.5118 291.651 44.7792 291.981C45.0466 292.305 45.418 292.466 45.8933 292.466Z" fill="#B4B8C2" fill-opacity="0.8"/>
<path d="M55.9178 293.629H54.1441L53.3241 291.573C53.229 291.342 53.0062 291.226 52.6556 291.226H52.0495V293.629H50.4006V287.452H53.3508C54.1173 287.452 54.6937 287.614 55.0799 287.938C55.4662 288.256 55.6593 288.713 55.6593 289.309C55.6593 289.725 55.5434 290.087 55.3117 290.393C55.0859 290.694 54.765 290.908 54.3491 291.035C54.5273 291.07 54.6878 291.151 54.8304 291.278C54.973 291.405 55.0859 291.576 55.1691 291.79L55.9178 293.629ZM53.0834 290.011C53.4399 290.011 53.6984 289.959 53.8588 289.855C54.0193 289.745 54.0995 289.578 54.0995 289.352C54.0995 289.115 54.0193 288.944 53.8588 288.84C53.7043 288.736 53.4459 288.684 53.0834 288.684H52.0317V290.011H53.0834Z" fill="#B4B8C2" fill-opacity="0.8"/>
<path d="M59.3672 293.707C58.8918 293.707 58.4224 293.646 57.9589 293.525C57.4954 293.403 57.1181 293.239 56.827 293.03L57.3528 291.877C57.6618 292.067 57.9886 292.215 58.3333 292.319C58.6839 292.417 59.0344 292.466 59.385 292.466C59.7415 292.466 60.0149 292.42 60.205 292.328C60.3952 292.229 60.4902 292.093 60.4902 291.92C60.4902 291.764 60.4041 291.637 60.2318 291.538C60.0594 291.434 59.7356 291.333 59.2602 291.235C58.6601 291.119 58.1936 290.977 57.8609 290.809C57.5281 290.636 57.2934 290.434 57.1567 290.202C57.026 289.971 56.9607 289.69 56.9607 289.361C56.9607 288.985 57.0706 288.646 57.2904 288.346C57.5103 288.039 57.8193 287.802 58.2174 287.634C58.6155 287.461 59.0701 287.374 59.5811 287.374C60.0386 287.374 60.4813 287.438 60.9092 287.565C61.3429 287.686 61.6816 287.848 61.9253 288.051L61.4083 289.205C61.129 289.014 60.8349 288.869 60.5259 288.771C60.2169 288.667 59.9079 288.615 59.5989 288.615C59.2959 288.615 59.0523 288.672 58.8681 288.788C58.6839 288.898 58.5918 289.048 58.5918 289.239C58.5918 289.343 58.6244 289.43 58.6898 289.499C58.7552 289.569 58.877 289.638 59.0552 289.708C59.2335 289.771 59.5009 289.841 59.8574 289.916C60.4338 290.037 60.8854 290.185 61.2122 290.358C61.545 290.526 61.7797 290.726 61.9163 290.957C62.053 291.182 62.1213 291.454 62.1213 291.772C62.1213 292.374 61.8807 292.848 61.3994 293.195C60.9181 293.536 60.2407 293.707 59.3672 293.707Z" fill="#B4B8C2" fill-opacity="0.8"/>
<path d="M23.3105 314.984C23.3105 310.561 26.9941 306.976 31.538 306.976H58.2773C62.8212 306.976 66.5047 310.561 66.5047 314.984V341.01C66.5047 345.433 62.8212 349.018 58.2773 349.018H31.538C26.9941 349.018 23.3105 345.433 23.3105 341.01V314.984Z" fill="#3166ED"/>
<path d="M71.3027 314.984C71.3027 310.561 74.9863 306.976 79.5302 306.976H105.584C110.128 306.976 113.811 310.561 113.811 314.984V341.01C113.811 345.433 110.128 349.018 105.584 349.018H79.5302C74.9863 349.018 71.3027 345.433 71.3027 341.01V314.984Z" fill="#E37898"/>
<path d="M119.299 314.984C119.299 310.561 122.982 306.976 127.526 306.976H153.58C158.124 306.976 161.807 310.561 161.807 314.984V341.01C161.807 345.433 158.124 349.018 153.58 349.018H127.526C122.982 349.018 119.299 345.433 119.299 341.01V314.984Z" fill="#1B367C"/>
<path d="M166.607 314.984C166.607 310.561 170.291 306.976 174.835 306.976H201.574C206.118 306.976 209.802 310.561 209.802 314.984V341.01C209.802 345.433 206.118 349.018 201.574 349.018H174.835C170.291 349.018 166.607 345.433 166.607 341.01V314.984Z" fill="#EFF0F2"/>
<path fill-rule="evenodd" clip-rule="evenodd" d="M473.763 328.248C473.763 327.879 474.069 327.581 474.448 327.581L477.106 327.581L477.106 324.994C477.106 324.625 477.413 324.326 477.791 324.326C478.17 324.326 478.477 324.625 478.477 324.994L478.477 327.581H481.135C481.513 327.581 481.82 327.879 481.82 328.248C481.82 328.616 481.513 328.915 481.135 328.915H478.477L478.477 331.502C478.477 331.871 478.17 332.169 477.791 332.169C477.413 332.169 477.106 331.871 477.106 331.502L477.106 328.915L474.448 328.915C474.069 328.915 473.763 328.616 473.763 328.248Z" fill="#3166ED"/>
<path d="M276.188 287.452H277.863V293.629H276.188V287.452Z" fill="#B4B8C2" fill-opacity="0.8"/>
<path d="M282.448 293.707C281.789 293.707 281.212 293.577 280.719 293.316C280.232 293.05 279.854 292.677 279.587 292.197C279.326 291.717 279.195 291.162 279.195 290.532C279.195 289.907 279.326 289.358 279.587 288.883C279.854 288.403 280.232 288.033 280.719 287.773C281.212 287.507 281.789 287.374 282.448 287.374C282.864 287.374 283.265 287.435 283.651 287.556C284.044 287.677 284.358 287.842 284.596 288.051L284.088 289.204C283.571 288.84 283.036 288.658 282.484 288.658C281.973 288.658 281.581 288.817 281.307 289.135C281.034 289.447 280.897 289.913 280.897 290.532C280.897 291.156 281.034 291.628 281.307 291.946C281.581 292.264 281.973 292.423 282.484 292.423C283.036 292.423 283.571 292.241 284.088 291.876L284.596 293.03C284.358 293.238 284.044 293.403 283.651 293.525C283.265 293.646 282.864 293.707 282.448 293.707Z" fill="#B4B8C2" fill-opacity="0.8"/>
<path d="M288.705 293.707C288.057 293.707 287.492 293.58 287.011 293.325C286.53 293.065 286.158 292.695 285.897 292.215C285.641 291.735 285.514 291.174 285.514 290.532C285.514 289.89 285.644 289.332 285.906 288.857C286.167 288.383 286.536 288.019 287.011 287.764C287.492 287.504 288.057 287.374 288.705 287.374C289.352 287.374 289.914 287.504 290.389 287.764C290.87 288.019 291.239 288.383 291.494 288.857C291.75 289.332 291.878 289.89 291.878 290.532C291.878 291.174 291.75 291.735 291.494 292.215C291.239 292.695 290.87 293.065 290.389 293.325C289.914 293.58 289.352 293.707 288.705 293.707ZM288.705 292.466C289.18 292.466 289.551 292.301 289.819 291.972C290.092 291.642 290.229 291.162 290.229 290.532C290.229 289.907 290.092 289.433 289.819 289.109C289.551 288.779 289.18 288.614 288.705 288.614C288.229 288.614 287.858 288.776 287.59 289.1C287.323 289.424 287.189 289.901 287.189 290.532C287.189 291.168 287.323 291.651 287.59 291.98C287.858 292.304 288.229 292.466 288.705 292.466Z" fill="#B4B8C2" fill-opacity="0.8"/>
<path d="M298.889 287.452V293.629H297.651L294.772 290.124V293.629H293.212V287.452H294.433L297.312 290.939V287.452H298.889Z" fill="#B4B8C2" fill-opacity="0.8"/>
<path d="M302.692 293.707C302.217 293.707 301.747 293.646 301.284 293.525C300.82 293.403 300.443 293.238 300.152 293.03L300.678 291.876C300.987 292.067 301.313 292.215 301.658 292.319C302.009 292.417 302.359 292.466 302.71 292.466C303.066 292.466 303.34 292.42 303.53 292.327C303.72 292.229 303.815 292.093 303.815 291.92C303.815 291.764 303.729 291.636 303.557 291.538C303.384 291.434 303.06 291.333 302.585 291.234C301.985 291.119 301.518 290.977 301.186 290.809C300.853 290.636 300.618 290.433 300.482 290.202C300.351 289.971 300.285 289.69 300.285 289.361C300.285 288.985 300.395 288.646 300.615 288.345C300.835 288.039 301.144 287.802 301.542 287.634C301.94 287.461 302.395 287.374 302.906 287.374C303.363 287.374 303.806 287.437 304.234 287.565C304.668 287.686 305.006 287.848 305.25 288.051L304.733 289.204C304.454 289.013 304.16 288.869 303.851 288.771C303.542 288.666 303.233 288.614 302.924 288.614C302.621 288.614 302.377 288.672 302.193 288.788C302.009 288.898 301.917 289.048 301.917 289.239C301.917 289.343 301.949 289.43 302.015 289.499C302.08 289.569 302.202 289.638 302.38 289.708C302.558 289.771 302.826 289.841 303.182 289.916C303.759 290.037 304.21 290.185 304.537 290.358C304.87 290.526 305.105 290.725 305.241 290.957C305.378 291.182 305.446 291.454 305.446 291.772C305.446 292.374 305.206 292.848 304.724 293.195C304.243 293.536 303.566 293.707 302.692 293.707Z" fill="#B4B8C2" fill-opacity="0.8"/>
<path d="M275.619 314.984C275.619 310.561 279.303 306.976 283.847 306.976H310.586C315.13 306.976 318.813 310.561 318.813 314.984V341.01C318.813 345.433 315.13 349.018 310.586 349.018H283.847C279.303 349.018 275.619 345.433 275.619 341.01V314.984Z" fill="#EFF0F2"/>
<g clip-path="url(#clip0)">
<path fill-rule="evenodd" clip-rule="evenodd" d="M297.565 322.324C294.157 322.324 291.395 325.013 291.395 328.33C291.395 331.647 294.157 334.336 297.565 334.336C300.973 334.336 303.736 331.647 303.736 328.33C303.736 325.013 300.973 322.324 297.565 322.324ZM290.023 328.33C290.023 324.276 293.4 320.99 297.565 320.99C301.731 320.99 305.107 324.276 305.107 328.33C305.107 332.385 301.731 335.671 297.565 335.671C293.4 335.671 290.023 332.385 290.023 328.33Z" fill="#BBBCBD"/>
<path fill-rule="evenodd" clip-rule="evenodd" d="M297.565 323.659C297.943 323.659 298.25 323.958 298.25 324.326V327.918L300.614 329.068C300.952 329.233 301.09 329.634 300.92 329.963C300.751 330.293 300.339 330.427 300 330.262L297.258 328.927C297.026 328.814 296.879 328.583 296.879 328.33V324.326C296.879 323.958 297.186 323.659 297.565 323.659Z" fill="#BBBCBD"/>
</g>
<path d="M323.615 314.984C323.615 310.561 327.299 306.976 331.843 306.976H357.896C362.44 306.976 366.124 310.561 366.124 314.984V341.01C366.124 345.433 362.44 349.018 357.896 349.018H331.843C327.299 349.018 323.615 345.433 323.615 341.01V314.984Z" fill="#EFF0F2"/>
<g clip-path="url(#clip1)">
<path fill-rule="evenodd" clip-rule="evenodd" d="M338.699 323.659C338.321 323.659 338.014 323.958 338.014 324.326V332.334C338.014 332.703 338.321 333.002 338.699 333.002H351.041C351.419 333.002 351.726 332.703 351.726 332.334V324.326C351.726 323.958 351.419 323.659 351.041 323.659H338.699ZM336.643 324.326C336.643 323.221 337.563 322.324 338.699 322.324H351.041C352.177 322.324 353.098 323.221 353.098 324.326V332.334C353.098 333.44 352.177 334.336 351.041 334.336H338.699C337.563 334.336 336.643 333.44 336.643 332.334V324.326Z" fill="#BBBCBD"/>
<path fill-rule="evenodd" clip-rule="evenodd" d="M336.643 326.996C336.643 326.627 336.95 326.328 337.328 326.328H352.412C352.791 326.328 353.098 326.627 353.098 326.996C353.098 327.364 352.791 327.663 352.412 327.663H337.328C336.95 327.663 336.643 327.364 336.643 326.996Z" fill="#BBBCBD"/>
</g>
<path d="M371.609 314.984C371.609 310.561 375.293 306.975 379.837 306.975H405.89C410.434 306.975 414.118 310.561 414.118 314.984V341.01C414.118 345.432 410.434 349.018 405.89 349.018H379.837C375.293 349.018 371.609 345.432 371.609 341.01V314.984Z" fill="#EFF0F2"/>
<g clip-path="url(#clip2)">
<path fill-rule="evenodd" clip-rule="evenodd" d="M392.858 322.324C389.45 322.324 386.688 325.013 386.688 328.33C386.688 331.647 389.45 334.336 392.858 334.336C396.266 334.336 399.029 331.647 399.029 328.33C399.029 325.013 396.266 322.324 392.858 322.324ZM385.316 328.33C385.316 324.276 388.693 320.99 392.858 320.99C397.024 320.99 400.4 324.276 400.4 328.33C400.4 332.384 397.024 335.671 392.858 335.671C388.693 335.671 385.316 332.384 385.316 328.33Z" fill="#BBBCBD"/>
<path fill-rule="evenodd" clip-rule="evenodd" d="M385.316 328.33C385.316 327.962 385.623 327.663 386.002 327.663H399.714C400.093 327.663 400.4 327.962 400.4 328.33C400.4 328.699 400.093 328.998 399.714 328.998H386.002C385.623 328.998 385.316 328.699 385.316 328.33Z" fill="#BBBCBD"/>
<path fill-rule="evenodd" clip-rule="evenodd" d="M390.801 328.33C390.848 330.382 391.573 332.358 392.858 333.969C394.142 332.358 394.868 330.382 394.915 328.33C394.868 326.278 394.142 324.303 392.858 322.692C391.573 324.303 390.848 326.278 390.801 328.33ZM392.858 321.657L392.352 321.207C390.525 323.154 389.486 325.68 389.43 328.316C389.43 328.326 389.43 328.335 389.43 328.344C389.486 330.98 390.525 333.507 392.352 335.454C392.481 335.592 392.665 335.671 392.858 335.671C393.05 335.671 393.234 335.592 393.364 335.454C395.191 333.507 396.229 330.98 396.286 328.344C396.286 328.335 396.286 328.326 396.286 328.316C396.229 325.68 395.191 323.154 393.364 321.207L392.858 321.657Z" fill="#BBBCBD"/>
</g>
<path d="M418.914 314.984C418.914 310.561 422.598 306.976 427.142 306.976H453.881C458.425 306.976 462.108 310.561 462.108 314.984V341.01C462.108 345.433 458.425 349.018 453.881 349.018H427.142C422.598 349.018 418.914 345.433 418.914 341.01V314.984Z" fill="#EFF0F2"/>
<path fill-rule="evenodd" clip-rule="evenodd" d="M440.856 322.992C439.402 322.992 438.006 323.554 436.978 324.555C435.949 325.557 435.371 326.914 435.371 328.33V332.334C435.371 332.703 435.064 333.002 434.686 333.002C434.307 333.002 434 332.703 434 332.334V328.33C434 326.56 434.722 324.863 436.008 323.612C437.294 322.36 439.038 321.657 440.856 321.657C442.675 321.657 444.419 322.36 445.704 323.612C446.99 324.863 447.712 326.56 447.712 328.33V332.334C447.712 332.703 447.405 333.002 447.027 333.002C446.648 333.002 446.341 332.703 446.341 332.334V328.33C446.341 326.914 445.763 325.557 444.735 324.555C443.706 323.554 442.311 322.992 440.856 322.992Z" fill="#BBBCBD"/>
<path fill-rule="evenodd" clip-rule="evenodd" d="M434 329.665C434 329.297 434.307 328.998 434.686 328.998H436.742C437.288 328.998 437.811 329.209 438.197 329.584C438.583 329.96 438.799 330.469 438.799 331V333.002C438.799 333.533 438.583 334.042 438.197 334.417C437.811 334.793 437.288 335.004 436.742 335.004H436.057C435.511 335.004 434.988 334.793 434.602 334.417C434.217 334.042 434 333.533 434 333.002V329.665ZM435.371 330.332V333.002C435.371 333.179 435.443 333.349 435.572 333.474C435.701 333.599 435.875 333.669 436.057 333.669H436.742C436.924 333.669 437.099 333.599 437.227 333.474C437.356 333.349 437.428 333.179 437.428 333.002V331C437.428 330.823 437.356 330.653 437.227 330.528C437.099 330.403 436.924 330.332 436.742 330.332H435.371ZM444.97 330.332C444.788 330.332 444.614 330.403 444.485 330.528C444.357 330.653 444.284 330.823 444.284 331V333.002C444.284 333.179 444.357 333.349 444.485 333.474C444.614 333.599 444.788 333.669 444.97 333.669H445.656C445.837 333.669 446.012 333.599 446.14 333.474C446.269 333.349 446.341 333.179 446.341 333.002V330.332H444.97ZM443.516 329.584C443.901 329.209 444.424 328.998 444.97 328.998H447.027C447.405 328.998 447.712 329.297 447.712 329.665V333.002C447.712 333.533 447.496 334.042 447.11 334.417C446.724 334.793 446.201 335.004 445.656 335.004H444.97C444.424 335.004 443.901 334.793 443.516 334.417C443.13 334.042 442.913 333.533 442.913 333.002V331C442.913 330.469 443.13 329.96 443.516 329.584Z" fill="#BBBCBD"/>
<path d="M23.8789 172.002H25.5546V176.861H28.2374V178.179H23.8789V172.002Z" fill="#B4B8C2" fill-opacity="0.8"/>
<path d="M32.0443 178.257C31.3966 178.257 30.8321 178.13 30.3508 177.876C29.8695 177.615 29.4981 177.245 29.2366 176.765C28.9811 176.285 28.8534 175.724 28.8534 175.082C28.8534 174.44 28.9841 173.882 29.2456 173.408C29.507 172.934 29.8754 172.569 30.3508 172.315C30.8321 172.054 31.3966 171.924 32.0443 171.924C32.692 171.924 33.2535 172.054 33.7288 172.315C34.2102 172.569 34.5786 172.934 34.8341 173.408C35.0896 173.882 35.2173 174.44 35.2173 175.082C35.2173 175.724 35.0896 176.285 34.8341 176.765C34.5786 177.245 34.2102 177.615 33.7288 177.876C33.2535 178.13 32.692 178.257 32.0443 178.257ZM32.0443 177.017C32.5196 177.017 32.891 176.852 33.1584 176.522C33.4317 176.193 33.5684 175.713 33.5684 175.082C33.5684 174.458 33.4317 173.983 33.1584 173.659C32.891 173.33 32.5196 173.165 32.0443 173.165C31.5689 173.165 31.1975 173.327 30.9301 173.651C30.6627 173.975 30.529 174.452 30.529 175.082C30.529 175.718 30.6627 176.201 30.9301 176.531C31.1975 176.855 31.5689 177.017 32.0443 177.017Z" fill="#B4B8C2" fill-opacity="0.8"/>
<path d="M42.1846 174.692V177.789C41.8459 177.939 41.4656 178.055 41.0437 178.136C40.6278 178.217 40.1999 178.257 39.7602 178.257C39.0709 178.257 38.4708 178.13 37.9598 177.876C37.4547 177.621 37.0655 177.257 36.7922 176.783C36.5188 176.303 36.3822 175.736 36.3822 175.082C36.3822 174.446 36.5188 173.891 36.7922 173.417C37.0655 172.936 37.4517 172.569 37.9509 172.315C38.45 172.054 39.0323 171.924 39.6978 171.924C40.1554 171.924 40.5862 171.982 40.9902 172.098C41.4002 172.214 41.733 172.373 41.9885 172.575L41.4626 173.729C41.1715 173.544 40.8892 173.411 40.6159 173.33C40.3485 173.243 40.0603 173.2 39.7513 173.2C39.1868 173.2 38.7649 173.356 38.4857 173.668C38.2123 173.975 38.0756 174.446 38.0756 175.082C38.0756 175.742 38.2183 176.23 38.5035 176.548C38.7946 176.866 39.2403 177.025 39.8404 177.025C40.1197 177.025 40.399 176.997 40.6783 176.939V175.794H39.573V174.692H42.1846Z" fill="#B4B8C2" fill-opacity="0.8"/>
<path d="M46.6231 178.257C45.9754 178.257 45.4109 178.13 44.9296 177.876C44.4483 177.615 44.0769 177.245 43.8155 176.765C43.56 176.285 43.4322 175.724 43.4322 175.082C43.4322 174.44 43.5629 173.882 43.8244 173.408C44.0858 172.934 44.4542 172.569 44.9296 172.315C45.4109 172.054 45.9754 171.924 46.6231 171.924C47.2708 171.924 47.8323 172.054 48.3077 172.315C48.789 172.569 49.1574 172.934 49.4129 173.408C49.6684 173.882 49.7962 174.44 49.7962 175.082C49.7962 175.724 49.6684 176.285 49.4129 176.765C49.1574 177.245 48.789 177.615 48.3077 177.876C47.8323 178.13 47.2708 178.257 46.6231 178.257ZM46.6231 177.017C47.0985 177.017 47.4698 176.852 47.7372 176.522C48.0106 176.193 48.1472 175.713 48.1472 175.082C48.1472 174.458 48.0106 173.983 47.7372 173.659C47.4698 173.33 47.0985 173.165 46.6231 173.165C46.1477 173.165 45.7764 173.327 45.509 173.651C45.2416 173.975 45.1079 174.452 45.1079 175.082C45.1079 175.718 45.2416 176.201 45.509 176.531C45.7764 176.855 46.1477 177.017 46.6231 177.017Z" fill="#B4B8C2" fill-opacity="0.8"/>
<path fill-rule="evenodd" clip-rule="evenodd" d="M187.173 226.228C187.173 225.859 187.48 225.56 187.858 225.56L190.516 225.56L190.516 222.974C190.516 222.605 190.823 222.306 191.202 222.306C191.58 222.306 191.887 222.605 191.887 222.974L191.887 225.56H194.545C194.923 225.56 195.23 225.859 195.23 226.228C195.23 226.596 194.923 226.895 194.545 226.895H191.887L191.887 229.482C191.887 229.85 191.58 230.149 191.202 230.149C190.823 230.149 190.516 229.85 190.516 229.482L190.516 226.895L187.858 226.895C187.48 226.895 187.173 226.596 187.173 226.228Z" fill="#3166ED"/>
<path d="M23.3105 199.534C23.3105 195.112 26.9941 191.526 31.538 191.526H86.3878C90.9317 191.526 94.6152 195.112 94.6152 199.534V252.921C94.6152 257.344 90.9317 260.929 86.3878 260.929H31.538C26.9941 260.929 23.3105 257.344 23.3105 252.921V199.534Z" fill="#EFF0F2"/>
<path d="M44.5645 212.214H58.7594V215.353C58.7594 221.25 53.848 226.03 47.7894 226.03H44.5645V212.214Z" fill="#1B367C"/>
<path d="M59.8496 237.771C59.8496 231.874 64.761 227.093 70.8196 227.093H74.0445V240.91H59.8496V237.771Z" fill="#1B367C"/>
<path d="M59.8496 212.214H63.0746C69.1331 212.214 74.0445 216.994 74.0445 222.891V226.03H59.8496V212.214Z" fill="#E37898"/>
<path d="M58.7578 240.91L55.5329 240.91C49.4743 240.91 44.5629 236.129 44.5629 230.232L44.5629 227.093L58.7578 227.093L58.7578 240.91Z" fill="#3166ED"/>
<path d="M102.844 199.534C102.844 195.112 106.527 191.526 111.071 191.526H165.921C170.465 191.526 174.148 195.112 174.148 199.534V252.921C174.148 257.344 170.465 260.929 165.921 260.929H111.071C106.527 260.929 102.844 257.344 102.844 252.921V199.534Z" fill="#1B367C"/>
<path d="M124.094 212.214H138.289V215.353C138.289 221.25 133.377 226.03 127.319 226.03H124.094V212.214Z" fill="#C3C6CF"/>
<path d="M139.381 237.77C139.381 231.873 144.292 227.093 150.351 227.093H153.576V240.909H139.381V237.77Z" fill="#C3C6CF"/>
<path d="M139.381 212.214H142.606C148.664 212.214 153.576 216.994 153.576 222.891V226.03H139.381V212.214Z" fill="#C3C6CF"/>
<path d="M138.287 240.909L135.062 240.909C129.004 240.909 124.092 236.129 124.092 230.232L124.092 227.093L138.287 227.093L138.287 240.909Z" fill="#C3C6CF"/>
<path d="M29.173 26.4658C29.173 26.8162 29.1036 27.1123 28.9646 27.354C28.8256 27.5896 28.6413 27.78 28.4117 27.925C28.1821 28.07 27.9192 28.1758 27.6232 28.2422C27.3331 28.3026 27.034 28.3329 26.7259 28.3329H24.1699V21.9158H26.7259C26.9736 21.9158 27.2274 21.943 27.4872 21.9974C27.747 22.0457 27.9827 22.1333 28.1942 22.2602C28.4057 22.3811 28.5779 22.5472 28.7108 22.7587C28.8437 22.9702 28.9102 23.2391 28.9102 23.5654C28.9102 23.9219 28.8135 24.218 28.6202 24.4536C28.4268 24.6832 28.173 24.8494 27.8588 24.9521V24.9703C28.0401 25.0005 28.2093 25.0579 28.3664 25.1425C28.5295 25.221 28.6685 25.3237 28.7833 25.4506C28.9042 25.5775 28.9978 25.7256 29.0643 25.8947C29.1368 26.0639 29.173 26.2543 29.173 26.4658ZM27.4147 23.7739C27.4147 23.5563 27.3301 23.3992 27.1609 23.3025C26.9978 23.1998 26.7531 23.1485 26.4268 23.1485H25.6654V24.4718H26.4993C26.7893 24.4718 27.0129 24.4144 27.17 24.2995C27.3331 24.1787 27.4147 24.0035 27.4147 23.7739ZM27.6232 26.3207C27.6232 26.0549 27.5235 25.8706 27.3241 25.7679C27.1247 25.6651 26.8588 25.6138 26.5265 25.6138H25.6654V27.0821H26.5355C26.6564 27.0821 26.7802 27.073 26.9071 27.0549C27.0401 27.0307 27.1579 26.9914 27.2606 26.9371C27.3694 26.8827 27.457 26.8071 27.5235 26.7105C27.5899 26.6077 27.6232 26.4778 27.6232 26.3207Z" fill="#1B367C"/>
<path d="M33.6327 28.3329L32.246 25.786H31.7203V28.3329H30.1976V21.9158H32.6448C32.9529 21.9158 33.252 21.949 33.5421 22.0155C33.8381 22.0759 34.101 22.1817 34.3306 22.3327C34.5662 22.4838 34.7536 22.6832 34.8925 22.9309C35.0315 23.1787 35.101 23.4868 35.101 23.8554C35.101 24.2905 34.9832 24.656 34.7475 24.9521C34.5119 25.2482 34.1856 25.4597 33.7686 25.5866L35.4454 28.3329H33.6327ZM33.5692 23.8826C33.5692 23.7316 33.536 23.6107 33.4695 23.5201C33.4091 23.4234 33.3276 23.3509 33.2248 23.3025C33.1282 23.2482 33.0164 23.2119 32.8895 23.1938C32.7686 23.1757 32.6508 23.1666 32.536 23.1666H31.7112V24.6621H32.4454C32.5722 24.6621 32.7022 24.653 32.8351 24.6349C32.968 24.6107 33.0889 24.5715 33.1976 24.5171C33.3064 24.4627 33.394 24.3841 33.4605 24.2814C33.533 24.1787 33.5692 24.0458 33.5692 23.8826Z" fill="#1B367C"/>
<path d="M40.5581 28.3329L40.0596 27.073H37.5761L37.1048 28.3329H35.419L38.1109 21.9158H39.6155L42.2802 28.3329H40.5581ZM38.836 23.6288L38.0203 25.8313H39.6336L38.836 23.6288Z" fill="#1B367C"/>
<path d="M46.8892 28.3329L44.306 24.1364H44.2788L44.3151 28.3329H42.8105V21.9158H44.5779L47.152 26.1032H47.1792L47.1429 21.9158H48.6475V28.3329H46.8892Z" fill="#1B367C"/>
<path d="M55.9622 25.1062C55.9622 25.6682 55.8564 26.1546 55.645 26.5655C55.4395 26.9703 55.1646 27.3056 54.8202 27.5715C54.4818 27.8313 54.0981 28.0247 53.6691 28.1516C53.2401 28.2724 52.805 28.3329 52.3639 28.3329H49.9711V21.9158H52.2914C52.7446 21.9158 53.1917 21.9702 53.6328 22.079C54.0739 22.1817 54.4667 22.3569 54.8111 22.6047C55.1555 22.8463 55.4335 23.1726 55.645 23.5835C55.8564 23.9944 55.9622 24.502 55.9622 25.1062ZM54.3489 25.1062C54.3489 24.7437 54.2884 24.4446 54.1676 24.2089C54.0528 23.9672 53.8957 23.7769 53.6963 23.6379C53.5029 23.4929 53.2794 23.3902 53.0256 23.3297C52.7778 23.2693 52.521 23.2391 52.2552 23.2391H51.4848V26.9914H52.2189C52.4969 26.9914 52.7627 26.9612 53.0165 26.9008C53.2763 26.8343 53.5029 26.7286 53.6963 26.5836C53.8957 26.4386 54.0528 26.2452 54.1676 26.0035C54.2884 25.7618 54.3489 25.4627 54.3489 25.1062Z" fill="#1B367C"/>
<path d="M63.4473 28.3329L62.9488 27.073H60.4653L59.994 28.3329H58.3082L61.0001 21.9158H62.5046L65.1693 28.3329H63.4473ZM61.7252 23.6288L60.9094 25.8313H62.5228L61.7252 23.6288Z" fill="#1B367C"/>
<path d="M69.0895 23.5835C68.9566 23.4143 68.7813 23.2814 68.5638 23.1847C68.3523 23.082 68.1469 23.0306 67.9475 23.0306C67.8448 23.0306 67.739 23.0397 67.6303 23.0578C67.5275 23.076 67.4339 23.1122 67.3493 23.1666C67.2647 23.2149 67.1922 23.2814 67.1318 23.366C67.0774 23.4445 67.0502 23.5473 67.0502 23.6742C67.0502 23.7829 67.0713 23.8736 67.1136 23.9461C67.162 24.0186 67.2284 24.082 67.313 24.1364C67.4037 24.1908 67.5094 24.2421 67.6303 24.2905C67.7511 24.3328 67.8871 24.3781 68.0381 24.4264C68.2556 24.4989 68.4822 24.5805 68.7179 24.6712C68.9535 24.7557 69.168 24.8706 69.3614 25.0156C69.5548 25.1606 69.7149 25.3419 69.8418 25.5594C69.9687 25.7709 70.0321 26.0367 70.0321 26.357C70.0321 26.7256 69.9626 27.0458 69.8236 27.3177C69.6907 27.5836 69.5094 27.8041 69.2798 27.9794C69.0502 28.1546 68.7874 28.2845 68.4913 28.3691C68.1952 28.4537 67.8901 28.496 67.5759 28.496C67.1166 28.496 66.6725 28.4175 66.2435 28.2603C65.8145 28.0972 65.458 27.8676 65.174 27.5715L66.1891 26.5383C66.3462 26.7316 66.5517 26.8948 66.8055 27.0277C67.0653 27.1546 67.3221 27.218 67.5759 27.218C67.6907 27.218 67.8025 27.2059 67.9112 27.1818C68.02 27.1576 68.1136 27.1183 68.1922 27.064C68.2768 27.0096 68.3433 26.9371 68.3916 26.8464C68.4399 26.7558 68.4641 26.647 68.4641 26.5201C68.4641 26.3993 68.4339 26.2966 68.3735 26.212C68.313 26.1274 68.2254 26.0518 68.1106 25.9854C68.0019 25.9129 67.8629 25.8494 67.6937 25.795C67.5306 25.7346 67.3432 25.6712 67.1318 25.6047C66.9263 25.5382 66.7239 25.4597 66.5245 25.3691C66.3311 25.2784 66.1559 25.1636 65.9988 25.0246C65.8477 24.8796 65.7239 24.7074 65.6272 24.508C65.5366 24.3026 65.4912 24.0548 65.4912 23.7648C65.4912 23.4083 65.5637 23.1031 65.7088 22.8494C65.8538 22.5956 66.0441 22.3871 66.2798 22.224C66.5154 22.0608 66.7813 21.943 67.0774 21.8705C67.3735 21.7919 67.6726 21.7527 67.9747 21.7527C68.3372 21.7527 68.7058 21.8191 69.0804 21.9521C69.4611 22.085 69.7934 22.2814 70.0774 22.5412L69.0895 23.5835Z" fill="#1B367C"/>
<path d="M74.4445 23.5835C74.3115 23.4143 74.1363 23.2814 73.9188 23.1847C73.7073 23.082 73.5019 23.0306 73.3024 23.0306C73.1997 23.0306 73.094 23.0397 72.9852 23.0578C72.8825 23.076 72.7888 23.1122 72.7042 23.1666C72.6197 23.2149 72.5471 23.2814 72.4867 23.366C72.4323 23.4445 72.4052 23.5473 72.4052 23.6742C72.4052 23.7829 72.4263 23.8736 72.4686 23.9461C72.5169 24.0186 72.5834 24.082 72.668 24.1364C72.7586 24.1908 72.8644 24.2421 72.9852 24.2905C73.1061 24.3328 73.242 24.3781 73.3931 24.4264C73.6106 24.4989 73.8372 24.5805 74.0729 24.6712C74.3085 24.7557 74.523 24.8706 74.7164 25.0156C74.9097 25.1606 75.0699 25.3419 75.1967 25.5594C75.3236 25.7709 75.3871 26.0367 75.3871 26.357C75.3871 26.7256 75.3176 27.0458 75.1786 27.3177C75.0457 27.5836 74.8644 27.8041 74.6348 27.9794C74.4052 28.1546 74.1423 28.2845 73.8463 28.3691C73.5502 28.4537 73.245 28.496 72.9308 28.496C72.4716 28.496 72.0275 28.4175 71.5985 28.2603C71.1695 28.0972 70.813 27.8676 70.529 27.5715L71.5441 26.5383C71.7012 26.7316 71.9067 26.8948 72.1604 27.0277C72.4203 27.1546 72.6771 27.218 72.9308 27.218C73.0456 27.218 73.1574 27.2059 73.2662 27.1818C73.375 27.1576 73.4686 27.1183 73.5472 27.064C73.6318 27.0096 73.6982 26.9371 73.7466 26.8464C73.7949 26.7558 73.8191 26.647 73.8191 26.5201C73.8191 26.3993 73.7889 26.2966 73.7284 26.212C73.668 26.1274 73.5804 26.0518 73.4656 25.9854C73.3568 25.9129 73.2179 25.8494 73.0487 25.795C72.8855 25.7346 72.6982 25.6712 72.4867 25.6047C72.2813 25.5382 72.0789 25.4597 71.8795 25.3691C71.6861 25.2784 71.5109 25.1636 71.3538 25.0246C71.2027 24.8796 71.0788 24.7074 70.9822 24.508C70.8915 24.3026 70.8462 24.0548 70.8462 23.7648C70.8462 23.4083 70.9187 23.1031 71.0637 22.8494C71.2088 22.5956 71.3991 22.3871 71.6347 22.224C71.8704 22.0608 72.1363 21.943 72.4323 21.8705C72.7284 21.7919 73.0275 21.7527 73.3296 21.7527C73.6922 21.7527 74.0608 21.8191 74.4354 21.9521C74.8161 22.085 75.1484 22.2814 75.4324 22.5412L74.4445 23.5835Z" fill="#1B367C"/>
<path d="M76.4096 28.3329V21.9158H80.7239V23.23H77.9051V24.4355H80.5698V25.6772H77.9051V27.0096H80.8871V28.3329H76.4096Z" fill="#1B367C"/>
<path d="M84.6614 23.2391V28.3329H83.1115V23.2391H81.2988V21.9158H86.4741V23.2391H84.6614Z" fill="#1B367C"/>
<path d="M90.5713 23.5835C90.4384 23.4143 90.2632 23.2814 90.0456 23.1847C89.8342 23.082 89.6287 23.0306 89.4293 23.0306C89.3266 23.0306 89.2209 23.0397 89.1121 23.0578C89.0094 23.076 88.9157 23.1122 88.8311 23.1666C88.7465 23.2149 88.674 23.2814 88.6136 23.366C88.5592 23.4445 88.532 23.5473 88.532 23.6742C88.532 23.7829 88.5532 23.8736 88.5955 23.9461C88.6438 24.0186 88.7103 24.082 88.7949 24.1364C88.8855 24.1908 88.9912 24.2421 89.1121 24.2905C89.2329 24.3328 89.3689 24.3781 89.52 24.4264C89.7375 24.4989 89.9641 24.5805 90.1997 24.6712C90.4354 24.7557 90.6499 24.8706 90.8432 25.0156C91.0366 25.1606 91.1967 25.3419 91.3236 25.5594C91.4505 25.7709 91.5139 26.0367 91.5139 26.357C91.5139 26.7256 91.4445 27.0458 91.3055 27.3177C91.1726 27.5836 90.9913 27.8041 90.7617 27.9794C90.5321 28.1546 90.2692 28.2845 89.9731 28.3691C89.6771 28.4537 89.3719 28.496 89.0577 28.496C88.5985 28.496 88.1544 28.4175 87.7254 28.2603C87.2963 28.0972 86.9398 27.8676 86.6558 27.5715L87.671 26.5383C87.8281 26.7316 88.0335 26.8948 88.2873 27.0277C88.5471 27.1546 88.8039 27.218 89.0577 27.218C89.1725 27.218 89.2843 27.2059 89.3931 27.1818C89.5018 27.1576 89.5955 27.1183 89.674 27.064C89.7586 27.0096 89.8251 26.9371 89.8734 26.8464C89.9218 26.7558 89.9459 26.647 89.9459 26.5201C89.9459 26.3993 89.9157 26.2966 89.8553 26.212C89.7949 26.1274 89.7073 26.0518 89.5925 25.9854C89.4837 25.9129 89.3447 25.8494 89.1755 25.795C89.0124 25.7346 88.8251 25.6712 88.6136 25.6047C88.4081 25.5382 88.2057 25.4597 88.0063 25.3691C87.813 25.2784 87.6377 25.1636 87.4806 25.0246C87.3296 24.8796 87.2057 24.7074 87.109 24.508C87.0184 24.3026 86.9731 24.0548 86.9731 23.7648C86.9731 23.4083 87.0456 23.1031 87.1906 22.8494C87.3356 22.5956 87.526 22.3871 87.7616 22.224C87.9973 22.0608 88.2631 21.943 88.5592 21.8705C88.8553 21.7919 89.1544 21.7527 89.4565 21.7527C89.8191 21.7527 90.1876 21.8191 90.5623 21.9521C90.9429 22.085 91.2753 22.2814 91.5593 22.5412L90.5713 23.5835Z" fill="#1B367C"/>
<defs>
<clipPath id="clip0">
<rect width="16.4549" height="16.0161" fill="white" transform="translate(289.338 320.322)"/>
</clipPath>
<clipPath id="clip1">
<rect width="16.4549" height="16.0161" fill="white" transform="translate(336.643 320.322)"/>
</clipPath>
<clipPath id="clip2">
<rect width="16.4549" height="16.0161" fill="white" transform="translate(384.631 320.322)"/>
</clipPath>
</defs>
</svg>
