<svg width="693" height="432" viewBox="0 0 693 432" fill="none" xmlns="http://www.w3.org/2000/svg">
<path opacity="0.1" d="M526.824 384.367C613.482 384.367 683.733 314.093 683.733 227.407C683.733 140.72 613.482 70.4464 526.824 70.4464C440.165 70.4464 369.914 140.72 369.914 227.407C369.914 314.093 440.165 384.367 526.824 384.367Z" fill="#2955F2"/>
<path d="M85.1292 119.883C118.223 119.883 145.051 93.0463 145.051 59.9415C145.051 26.8367 118.223 0 85.1292 0C52.0351 0 25.207 26.8367 25.207 59.9415C25.207 93.0463 52.0351 119.883 85.1292 119.883Z" fill="#EC6689"/>
<path opacity="0.1" d="M192.618 321.953C279.277 321.953 349.528 251.68 349.528 164.993C349.528 78.3065 279.277 8.03308 192.618 8.03308C105.96 8.03308 35.709 78.3065 35.709 164.993C35.709 251.68 105.96 321.953 192.618 321.953Z" fill="#2955F2"/>
<path d="M185.205 330.605C280.393 330.605 357.558 326.455 357.558 321.336C357.558 316.217 280.393 312.067 185.205 312.067C90.0168 312.067 12.8516 316.217 12.8516 321.336C12.8516 326.455 90.0168 330.605 185.205 330.605Z" fill="#1B367C"/>
<path opacity="0.1" d="M150.613 328.048C221.918 328.048 279.723 325.186 279.723 321.655C279.723 318.125 221.918 315.263 150.613 315.263C79.3067 315.263 21.502 318.125 21.502 321.655C21.502 325.186 79.3067 328.048 150.613 328.048Z" fill="black"/>
<path d="M520.646 396.108C615.834 396.108 693 391.543 693 385.912C693 380.281 615.834 375.716 520.646 375.716C425.458 375.716 348.293 380.281 348.293 385.912C348.293 391.543 425.458 396.108 520.646 396.108Z" fill="#1B367C"/>
<path opacity="0.1" d="M486.052 393.295C557.358 393.295 615.163 390.147 615.163 386.263C615.163 382.38 557.358 379.232 486.052 379.232C414.746 379.232 356.941 382.38 356.941 386.263C356.941 390.147 414.746 393.295 486.052 393.295Z" fill="black"/>
<path d="M571.097 267.574H387.416C383.55 267.574 380.416 270.708 380.416 274.574V377.985C380.416 381.851 383.55 384.985 387.416 384.985H571.097C574.963 384.985 578.097 381.851 578.097 377.985V274.574C578.097 270.708 574.963 267.574 571.097 267.574Z" fill="#1B367C"/>
<path d="M444.045 372.008C468.609 372.008 488.523 352.088 488.523 327.515C488.523 302.943 468.609 283.023 444.045 283.023C419.48 283.023 399.566 302.943 399.566 327.515C399.566 352.088 419.48 372.008 444.045 372.008Z" fill="#3166ED"/>
<path d="M513.939 286.112H505.113C503.456 286.112 502.113 287.456 502.113 289.112V297.943C502.113 299.6 503.456 300.943 505.113 300.943H513.939C515.596 300.943 516.939 299.6 516.939 297.943V289.112C516.939 287.456 515.596 286.112 513.939 286.112Z" fill="#3166ED"/>
<path opacity="0.5" d="M532.473 286.112H523.646C521.99 286.112 520.646 287.456 520.646 289.112V297.943C520.646 299.6 521.99 300.943 523.646 300.943H532.473C534.129 300.943 535.473 299.6 535.473 297.943V289.112C535.473 287.456 534.129 286.112 532.473 286.112Z" fill="#3166ED"/>
<path opacity="0.2" d="M551.006 286.112H542.18C540.523 286.112 539.18 287.456 539.18 289.112V297.943C539.18 299.6 540.523 300.943 542.18 300.943H551.006C552.663 300.943 554.006 299.6 554.006 297.943V289.112C554.006 287.456 552.663 286.112 551.006 286.112Z" fill="#3166ED"/>
<path d="M513.939 304.651H505.113C503.456 304.651 502.113 305.994 502.113 307.651V316.482C502.113 318.139 503.456 319.482 505.113 319.482H513.939C515.596 319.482 516.939 318.139 516.939 316.482V307.651C516.939 305.994 515.596 304.651 513.939 304.651Z" fill="#2F2E41"/>
<path opacity="0.5" d="M532.473 304.651H523.646C521.99 304.651 520.646 305.994 520.646 307.651V316.482C520.646 318.139 521.99 319.482 523.646 319.482H532.473C534.129 319.482 535.473 318.139 535.473 316.482V307.651C535.473 305.994 534.129 304.651 532.473 304.651Z" fill="#2F2E41"/>
<path opacity="0.2" d="M551.006 304.651H542.18C540.523 304.651 539.18 305.994 539.18 307.651V316.482C539.18 318.139 540.523 319.482 542.18 319.482H551.006C552.663 319.482 554.006 318.139 554.006 316.482V307.651C554.006 305.994 552.663 304.651 551.006 304.651Z" fill="#2F2E41"/>
<path d="M513.939 323.19H505.113C503.456 323.19 502.113 324.533 502.113 326.19V335.021C502.113 336.677 503.456 338.021 505.113 338.021H513.939C515.596 338.021 516.939 336.677 516.939 335.021V326.19C516.939 324.533 515.596 323.19 513.939 323.19Z" fill="#EC6689"/>
<path opacity="0.5" d="M532.473 323.19H523.646C521.99 323.19 520.646 324.533 520.646 326.19V335.021C520.646 336.677 521.99 338.021 523.646 338.021H532.473C534.129 338.021 535.473 336.677 535.473 335.021V326.19C535.473 324.533 534.129 323.19 532.473 323.19Z" fill="#EC6689"/>
<path opacity="0.2" d="M551.006 323.19H542.18C540.523 323.19 539.18 324.533 539.18 326.19V335.021C539.18 336.677 540.523 338.021 542.18 338.021H551.006C552.663 338.021 554.006 336.677 554.006 335.021V326.19C554.006 324.533 552.663 323.19 551.006 323.19Z" fill="#EC6689"/>
<path opacity="0.5" d="M444.045 283.023V372.008C468.61 372.008 489.759 352.088 489.759 327.515C489.759 302.943 468.61 283.023 444.045 283.023Z" fill="#3F3D56"/>
<path d="M620.413 275.916C620.413 275.916 646.359 287.657 637.092 301.252C627.826 314.847 600.027 340.801 599.41 346.363C598.792 351.925 595.085 356.868 595.085 356.868C595.085 356.868 582.73 343.891 583.966 342.655C585.201 341.419 597.556 329.678 598.174 326.588C598.792 323.499 617.324 299.398 617.324 299.398L600.645 284.568L620.413 275.916Z" fill="#FFB9B9"/>
<path opacity="0.1" d="M620.413 275.916C620.413 275.916 646.359 287.657 637.092 301.252C627.826 314.847 600.027 340.801 599.41 346.363C598.792 351.925 595.085 356.868 595.085 356.868C595.085 356.868 582.73 343.891 583.966 342.655C585.201 341.419 597.556 329.678 598.174 326.588C598.792 323.499 617.324 299.398 617.324 299.398L600.645 284.568L620.413 275.916Z" fill="black"/>
<path d="M587.672 301.87C587.672 301.87 605.587 309.286 604.351 321.027C603.116 332.768 625.973 366.137 625.973 366.137C625.973 366.137 628.444 374.171 627.826 376.643C627.208 379.114 643.888 378.497 643.888 378.497V372.935C643.888 372.935 630.915 350.689 629.679 344.509C628.444 338.33 621.031 314.229 621.031 314.229C621.031 314.229 618.56 292.601 606.205 292.601C602.608 292.601 599.061 293.439 595.844 295.047C592.628 296.656 589.83 298.992 587.672 301.87Z" fill="#FFB9B9"/>
<path d="M588.599 245.945C588.599 245.945 625.664 276.225 624.429 278.697C623.193 281.169 605.278 290.438 602.19 291.056C599.101 291.674 577.246 245.945 577.246 245.945H588.599Z" fill="#2F2E41"/>
<path opacity="0.1" d="M588.599 245.945C588.599 245.945 625.664 276.225 624.429 278.697C623.193 281.169 605.278 290.438 602.19 291.056C599.101 291.674 577.246 245.945 577.246 245.945H588.599Z" fill="black"/>
<path d="M548.446 252.125C548.446 252.125 544.74 268.81 554.624 275.607C564.508 282.405 581.187 308.977 583.041 308.977C584.894 308.977 611.457 294.764 610.222 292.292C608.986 289.82 595.396 268.192 595.396 268.192L591.071 245.328C591.071 245.328 553.388 244.092 548.446 252.125Z" fill="#2F2E41"/>
<path d="M588.6 197.745L594.159 233.586L604.043 258.923C604.043 258.923 618.869 274.371 610.221 275.607C601.572 276.843 596.63 258.923 596.63 258.923L588.6 244.092V197.745Z" fill="#FFB9B9"/>
<path opacity="0.1" d="M588.6 197.745L594.159 233.586L604.043 258.923C604.043 258.923 618.869 274.371 610.221 275.607C601.572 276.843 596.63 258.923 596.63 258.923L588.6 244.092V197.745Z" fill="black"/>
<path d="M567.904 157.887C567.904 157.887 567.904 170.864 563.58 172.1C559.255 173.336 580.877 190.021 580.877 190.021C580.877 190.021 578.406 168.392 587.054 162.831L567.904 157.887Z" fill="#FFB9B9"/>
<path opacity="0.1" d="M567.904 157.887C567.904 157.887 567.904 170.864 563.58 172.1C559.255 173.336 580.877 190.021 580.877 190.021C580.877 190.021 578.406 168.392 587.054 162.831L567.904 157.887Z" fill="black"/>
<path d="M577.788 168.392C585.635 168.392 591.997 162.029 591.997 154.179C591.997 146.33 585.635 139.966 577.788 139.966C569.941 139.966 563.58 146.33 563.58 154.179C563.58 162.029 569.941 168.392 577.788 168.392Z" fill="#FFB9B9"/>
<path d="M578.405 183.841C578.405 183.841 565.433 167.774 563.579 168.392C561.726 169.01 548.135 182.605 546.9 186.931C545.664 191.257 543.193 222.154 545.047 228.334C546.9 234.513 546.9 250.58 546.282 251.816C545.664 253.052 541.958 256.142 545.664 256.142C549.371 256.142 562.344 246.872 570.992 248.726C579.641 250.58 591.378 248.108 591.996 246.872C592.614 245.636 591.378 213.503 591.996 211.031C592.614 208.559 590.76 196.2 590.143 193.728C589.525 191.257 589.525 181.369 583.347 178.897L580.713 178.637L580.566 184.75L578.405 183.841Z" fill="#3166ED"/>
<path d="M551.225 215.975C551.225 215.975 552.46 235.131 561.726 243.165C570.993 251.198 590.761 264.793 591.996 267.265C593.232 269.737 604.969 282.714 607.44 277.152C608.157 275.418 608.33 273.507 607.936 271.673C607.577 269.849 606.849 268.119 605.797 266.587C604.745 265.055 603.391 263.755 601.818 262.766L596.321 259.231L569.139 230.806L567.904 215.975H551.225Z" fill="#FFB9B9"/>
<path d="M586.748 340.492C586.748 340.492 579.643 338.947 577.172 343.273C574.701 347.599 579.643 359.34 579.643 359.34C579.643 359.34 593.852 389.002 596.323 385.294C598.794 381.586 594.469 367.991 594.469 367.991C594.469 367.991 600.647 354.396 598.176 353.778C595.705 353.16 586.748 347.908 586.748 340.492Z" fill="#2F2E41"/>
<path d="M630.297 376.025C630.297 376.025 626.591 374.171 625.973 376.025C625.355 377.879 621.649 387.148 625.973 388.384C630.297 389.62 672.922 390.856 671.687 388.384C670.451 385.912 663.656 382.822 659.332 381.586C655.007 380.35 643.888 371.081 643.888 371.081C643.888 371.081 637.71 379.114 630.297 376.025Z" fill="#2F2E41"/>
<path d="M592.101 142.899C591.835 142.002 591.247 141.235 590.451 140.744C590.492 139.784 590.374 138.823 590.103 137.901C589.195 135.216 587.044 135.37 585.015 134.183C584.135 133.668 584.189 133.213 583.731 132.367C583.13 131.258 582.231 130.34 581.135 129.717C579.833 128.888 578.459 128.033 576.919 127.928C573.682 127.707 571.201 130.753 568.108 131.73C566.744 132.161 565.279 132.178 563.908 132.586C562.538 132.993 561.17 133.965 560.966 135.381C560.872 136.034 561.038 136.705 560.942 137.358C560.752 138.657 559.613 139.566 558.851 140.634C557.165 142.996 557.358 146.333 558.706 148.903C558.99 149.434 559.315 149.943 559.678 150.425C559.791 151.639 560.14 152.82 560.705 153.901C562.053 156.471 564.373 158.391 566.797 159.987C566.598 159.134 566.478 158.266 566.437 157.392C566.403 157.1 566.441 156.805 566.548 156.532C566.818 155.967 567.531 155.817 568.075 155.508C569.201 154.868 569.643 153.451 569.675 152.156C569.708 150.86 569.433 149.563 569.569 148.274C569.574 147.978 569.642 147.686 569.767 147.417C569.892 147.148 570.071 146.909 570.295 146.714C570.71 146.476 571.185 146.363 571.663 146.387C573.971 146.293 576.382 146.251 578.418 145.159C579.074 144.723 579.78 144.366 580.52 144.095C582.25 143.644 584.018 144.857 585.015 146.341C586.012 147.826 586.509 149.592 587.428 151.125C588.348 152.659 589.937 154.026 591.716 153.845C591.816 153.845 591.915 153.824 592.007 153.783C592.098 153.743 592.18 153.683 592.247 153.608C592.324 153.471 592.358 153.313 592.345 153.156L592.444 146.355C592.527 145.192 592.411 144.023 592.101 142.899Z" fill="#2F2E41"/>
<path d="M556.786 184.459C556.786 184.459 570.377 190.639 569.759 203.616C569.141 216.593 573.466 217.829 562.964 219.064C552.462 220.3 549.991 219.064 549.373 220.3C548.755 221.536 545.049 191.875 547.52 188.785C549.991 185.695 556.786 184.459 556.786 184.459Z" fill="#3166ED"/>
<path d="M283.428 79.716C294.346 79.716 303.196 70.8627 303.196 59.9415C303.196 49.0203 294.346 40.167 283.428 40.167C272.511 40.167 263.66 49.0203 263.66 59.9415C263.66 70.8627 272.511 79.716 283.428 79.716Z" fill="#2F2E41"/>
<path d="M296.712 276.534L285.592 306.814C285.592 306.814 276.326 314.229 281.886 316.701C287.446 319.173 298.565 314.229 298.565 314.229L307.214 291.983L305.978 276.534H296.712Z" fill="#2F2E41"/>
<path opacity="0.1" d="M296.712 276.534L285.592 306.814C285.592 306.814 276.326 314.229 281.886 316.701C287.446 319.173 298.565 314.229 298.565 314.229L307.214 291.983L305.978 276.534H296.712Z" fill="black"/>
<path d="M297.636 97.0187L306.903 98.2546C306.903 98.2546 311.227 132.242 309.374 134.714C307.52 137.186 298.254 147.073 294.548 144.601C290.841 142.129 297.636 97.0187 297.636 97.0187Z" fill="#EC6689"/>
<path d="M208.989 159.123C208.989 159.123 196.016 164.685 193.545 165.303C191.074 165.921 187.367 172.1 191.692 173.336C196.016 174.572 212.695 162.213 212.695 162.213L208.989 159.123Z" fill="#A0616A"/>
<path d="M301.035 288.893L307.83 314.229C307.83 314.229 308.448 323.499 311.537 324.117C314.626 324.734 323.892 321.027 323.892 319.791C323.892 318.555 320.186 308.668 320.186 308.668C320.186 308.668 320.186 301.252 316.479 298.162C312.772 295.073 309.433 284.722 309.433 284.722L301.035 288.893Z" fill="#2F2E41"/>
<path d="M309.683 230.806C310.93 233.716 310.776 254.832 309.411 268.884C308.75 275.712 307.805 280.872 306.594 281.478L297.741 279.266L294.239 278.388L294.146 270.701L293.621 228.334L283.119 184.459V173.336L309.683 175.808L313.896 182.426L314.007 182.605C314.007 182.605 307.829 226.48 309.683 230.806Z" fill="#2F2E41"/>
<path opacity="0.1" d="M304.123 244.401C305.445 246.384 307.65 258.261 309.411 268.884C308.75 275.712 307.805 280.872 306.594 281.478L297.741 279.266C297.605 278.981 297.47 278.685 297.327 278.388C296.197 276.015 295.134 273.395 294.146 270.701L293.621 228.334L283.119 184.459V173.336L309.683 175.808L313.896 182.426L289.297 180.751L294.856 204.852L301.652 230.188C301.652 230.188 301.652 240.693 304.123 244.401Z" fill="black"/>
<path d="M260.263 148.618C260.263 148.618 251.615 167.774 263.97 194.346C271.615 210.882 278.419 227.795 284.356 245.019C284.356 245.019 288.68 265.411 294.857 278.388C301.035 291.365 299.799 291.983 299.799 291.983L309.684 286.422C309.684 286.422 304.124 248.108 301.653 244.401C299.182 240.693 299.182 230.188 299.182 230.188L292.386 204.852L286.827 180.751L314.008 182.605C314.008 182.605 314.008 147.382 301.653 140.584L260.263 148.618Z" fill="#2F2E41"/>
<path d="M270.457 69.2108C270.457 69.2108 270.457 79.0981 267.368 79.716C264.279 80.334 258.102 80.334 256.248 83.4237C254.395 86.5135 270.457 127.298 270.457 127.298L287.136 116.793L292.696 88.9853C292.696 88.9853 284.665 84.0417 284.665 81.5699V70.4467L270.457 69.2108Z" fill="#A0616A"/>
<path opacity="0.1" d="M270.457 69.2108C270.457 69.2108 270.457 79.0981 267.368 79.716C264.279 80.334 258.102 80.334 256.248 83.4237C254.395 86.5135 270.457 127.298 270.457 127.298L287.136 116.793L292.696 88.9853C292.696 88.9853 284.665 84.0417 284.665 81.5699V70.4467L270.457 69.2108Z" fill="black"/>
<path d="M280.031 80.025C288.219 80.025 294.857 73.385 294.857 65.1941C294.857 57.0032 288.219 50.3632 280.031 50.3632C271.843 50.3632 265.205 57.0032 265.205 65.1941C265.205 73.385 271.843 80.025 280.031 80.025Z" fill="#A0616A"/>
<path d="M272.309 114.939C272.309 114.939 266.749 79.716 265.513 79.716C264.278 79.716 246.981 83.4237 245.745 84.0417C244.51 84.6596 240.186 90.2212 240.186 90.2212L248.834 114.939C248.834 114.939 252.541 132.242 255.012 135.332C257.483 138.422 262.425 147.073 259.954 148.309C257.483 149.545 255.012 151.399 257.483 151.399C259.954 151.399 280.34 147.691 281.575 149.545C282.811 151.399 303.196 142.747 303.196 142.129C303.196 141.511 300.725 112.468 300.725 112.468L306.903 98.2546L288.37 85.2776L272.309 114.939Z" fill="#EC6689"/>
<path d="M246.364 87.1315L240.187 90.2212C240.187 90.2212 222.89 129.77 221.654 130.388C220.419 131.006 214.241 142.747 213.623 145.219C213.006 147.691 211.77 155.724 209.917 156.96C208.923 157.636 207.892 158.254 206.828 158.814C206.828 158.814 210.535 164.994 212.388 164.994C214.241 164.994 220.419 156.342 220.419 156.342C220.419 156.342 234.009 164.994 237.716 158.196C241.422 151.399 250.689 108.142 250.689 108.142L246.364 87.1315Z" fill="#EC6689"/>
<path d="M294.857 105.979C294.857 105.979 286.209 84.9686 281.267 87.4405C276.325 89.9123 284.973 104.743 290.533 107.215L294.857 105.979Z" fill="#A0616A"/>
<path opacity="0.1" d="M286.208 106.597L294.876 104.637L296.71 114.012C296.71 114.012 304.741 128.225 302.888 134.405C301.034 140.584 289.915 150.472 286.208 144.91C282.502 139.348 279.413 130.697 281.884 125.754C284.355 120.81 288.062 109.069 286.208 106.597Z" fill="black"/>
<path d="M288.062 105.361L296.729 103.401L298.564 112.777C298.564 112.777 306.594 126.99 304.741 133.169C302.888 139.349 291.768 149.236 288.062 143.674C284.355 138.113 281.267 129.461 283.738 124.518C286.209 119.574 289.915 107.833 288.062 105.361Z" fill="#EC6689"/>
<path d="M297.473 62.2163C299.137 58.6622 294.476 52.9642 287.061 49.4895C279.646 46.0147 272.286 46.0791 270.621 49.6332C268.957 53.1874 273.618 58.8854 281.033 62.3601C288.448 65.8348 295.809 65.7705 297.473 62.2163Z" fill="#2F2E41"/>
<path d="M295.166 51.9081C299.943 51.9081 303.815 48.0348 303.815 43.2568C303.815 38.4787 299.943 34.6054 295.166 34.6054C290.39 34.6054 286.518 38.4787 286.518 43.2568C286.518 48.0348 290.39 51.9081 295.166 51.9081Z" fill="#2F2E41"/>
<path d="M287.137 40.167C287.137 38.0332 287.926 35.9748 289.351 34.3873C290.777 32.7999 292.738 31.7953 294.859 31.5668C293.651 31.4348 292.429 31.5589 291.273 31.9309C290.116 32.303 289.051 32.9146 288.146 33.726C287.242 34.5374 286.518 35.5303 286.023 36.6401C285.527 37.7499 285.271 38.9516 285.271 40.167C285.271 41.3823 285.527 42.584 286.023 43.6938C286.518 44.8036 287.242 45.7965 288.146 46.6079C289.051 47.4193 290.116 48.031 291.273 48.403C292.429 48.775 293.651 48.8991 294.859 48.7672C292.738 48.5386 290.777 47.5341 289.351 45.9466C287.926 44.3591 287.137 42.3007 287.137 40.167Z" fill="#2F2E41"/>
<path d="M249.247 171.173H47.0332C43.1672 171.173 40.0332 174.307 40.0332 178.173V314.336C40.0332 318.202 43.1672 321.336 47.0332 321.336H249.247C253.113 321.336 256.247 318.202 256.247 314.336V178.173C256.247 174.307 253.113 171.173 249.247 171.173Z" fill="#1B367C"/>
<path d="M78.7468 186.004H64.3301C60.4641 186.004 57.3301 189.138 57.3301 193.004V207.43C57.3301 211.296 60.4641 214.43 64.3301 214.43H78.7468C82.6128 214.43 85.7468 211.296 85.7468 207.43V193.004C85.7468 189.138 82.6128 186.004 78.7468 186.004Z" fill="#F2F2F2"/>
<path d="M78.7468 232.35H64.3301C60.4641 232.35 57.3301 235.484 57.3301 239.35V253.776C57.3301 257.642 60.4641 260.776 64.3301 260.776H78.7468C82.6128 260.776 85.7468 257.642 85.7468 253.776V239.35C85.7468 235.484 82.6128 232.35 78.7468 232.35Z" fill="#3166ED"/>
<path d="M78.7468 278.697H64.3301C60.4641 278.697 57.3301 281.831 57.3301 285.697V300.123C57.3301 303.989 60.4641 307.123 64.3301 307.123H78.7468C82.6128 307.123 85.7468 303.989 85.7468 300.123V285.697C85.7468 281.831 82.6128 278.697 78.7468 278.697Z" fill="#F2F2F2"/>
<path d="M233.39 194.964H100.574C99.8912 194.964 99.3379 195.518 99.3379 196.2C99.3379 196.883 99.8912 197.436 100.574 197.436H233.39C234.073 197.436 234.626 196.883 234.626 196.2C234.626 195.518 234.073 194.964 233.39 194.964Z" fill="#F2F2F2"/>
<path d="M140.109 202.998H100.574C99.8912 202.998 99.3379 203.551 99.3379 204.234C99.3379 204.916 99.8912 205.47 100.574 205.47H140.109C140.792 205.47 141.345 204.916 141.345 204.234C141.345 203.551 140.792 202.998 140.109 202.998Z" fill="#F2F2F2"/>
<path d="M233.39 241.311H100.574C99.8912 241.311 99.3379 241.864 99.3379 242.547C99.3379 243.229 99.8912 243.783 100.574 243.783H233.39C234.073 243.783 234.626 243.229 234.626 242.547C234.626 241.864 234.073 241.311 233.39 241.311Z" fill="#F2F2F2"/>
<path d="M140.109 249.344H100.574C99.8912 249.344 99.3379 249.898 99.3379 250.58C99.3379 251.263 99.8912 251.816 100.574 251.816H140.109C140.792 251.816 141.345 251.263 141.345 250.58C141.345 249.898 140.792 249.344 140.109 249.344Z" fill="#F2F2F2"/>
<path d="M233.39 287.657H100.574C99.8912 287.657 99.3379 288.211 99.3379 288.893C99.3379 289.576 99.8912 290.129 100.574 290.129H233.39C234.073 290.129 234.626 289.576 234.626 288.893C234.626 288.211 234.073 287.657 233.39 287.657Z" fill="#F2F2F2"/>
<path d="M140.109 295.691H100.574C99.8912 295.691 99.3379 296.244 99.3379 296.927C99.3379 297.609 99.8912 298.163 100.574 298.163H140.109C140.792 298.163 141.345 297.609 141.345 296.927C141.345 296.244 140.792 295.691 140.109 295.691Z" fill="#F2F2F2"/>
</svg>
