<svg width="76" height="76" viewBox="0 0 76 76" fill="none" xmlns="http://www.w3.org/2000/svg">
<g clip-path="url(#clip0)">
<path d="M74.4201 2.64694C74.285 2.12335 73.8768 1.71515 73.3532 1.58004C61.2295 -1.54642 48.4801 -0.0011622 37.454 5.92996C35.0308 7.23343 32.7393 8.72302 30.5945 10.3796C24.4576 8.19073 17.6312 9.7012 12.9832 14.3491L3.69372 23.6381C3.11446 24.2179 3.11446 25.1578 3.69372 25.7377L14.0298 36.0732C14.0298 36.0738 14.0304 36.0738 14.0304 36.0744L15.3635 37.4068L14.1371 46.4174C14.0745 46.8773 14.2299 47.3394 14.5581 47.6676L15.6377 48.7472L6.76974 57.6685C6.19164 58.2501 6.19454 59.19 6.77612 59.7675C7.35769 60.3456 8.2976 60.3427 8.87511 59.7617L17.7367 50.8462L25.1545 58.2646L12.6556 70.7084C12.0746 71.2871 12.0723 72.227 12.6504 72.808C12.9409 73.0991 13.3219 73.2452 13.7028 73.2452C14.0814 73.2452 14.4601 73.1008 14.75 72.8126L27.2541 60.3636L28.3326 61.4427C28.6132 61.7227 28.9913 61.877 29.3821 61.877C29.4488 61.877 29.5155 61.8729 29.5827 61.8636L38.5933 60.6373L39.9264 61.9703C39.9264 61.9703 39.9264 61.9709 39.927 61.9709L50.2625 72.307C50.5524 72.597 50.9322 72.7413 51.312 72.7413C51.6924 72.7413 52.0722 72.597 52.3621 72.307L61.651 63.0175C66.299 58.3696 67.81 51.5432 65.6206 45.4062C67.2772 43.2614 68.7667 40.9693 70.0702 38.5468C76.0019 27.5201 77.5466 14.7707 74.4201 2.64694ZM14.4618 32.3072L6.8428 24.6882L15.0822 16.4487C18.4737 13.0567 23.2724 11.6906 27.8386 12.6728C21.8906 17.9963 17.2914 24.7056 14.4618 32.3072ZM29.9115 58.8224L17.1778 46.0887L18.0005 40.0439L35.9563 57.9996L29.9115 58.8224ZM59.552 60.9179L51.312 69.1574L43.6936 61.5384C51.2952 58.7088 58.0039 54.1095 63.3273 48.1616C64.3096 52.7278 62.9435 57.5259 59.552 60.9179ZM41.547 59.1547L41.3702 59.2155L16.7846 34.63L16.8455 34.4532C24.6141 11.8738 48.6106 -1.26056 71.757 4.24322C77.2602 27.389 64.1269 51.386 41.547 59.1547Z" fill="#58454B"/>
<path d="M57.8653 16.3165L38.3828 21.5368C37.8708 21.6742 37.4708 22.0743 37.3333 22.5869C37.1959 23.0988 37.3426 23.6456 37.7172 24.0208L40.6117 26.9147L34.7792 32.7467C34.1999 33.3265 34.1999 34.2665 34.7792 34.8463C35.359 35.4255 36.2989 35.4255 36.8787 34.8463L43.7602 27.9642C44.3401 27.385 44.3401 26.4451 43.7602 25.8652L41.6345 23.7396L56.1507 19.85L52.2612 34.3656L50.1355 32.2399C49.8572 31.9616 49.4797 31.8056 49.086 31.8056C48.6923 31.8056 48.3142 31.9616 48.0359 32.2399L36.1911 44.0854C35.6112 44.6652 35.6112 45.6051 36.1911 46.1849C36.481 46.4749 36.8608 46.6192 37.2406 46.6192C37.6204 46.6192 38.0001 46.4749 38.2901 46.1849L49.0854 35.389L51.9794 38.283C52.3545 38.6581 52.9013 38.8042 53.4133 38.6674C53.9259 38.53 54.326 38.1299 54.4628 37.6179L59.6831 18.1349C59.8205 17.6229 59.6744 17.0761 59.2992 16.701C58.9241 16.3258 58.3773 16.1791 57.8653 16.3165Z" fill="#58454B"/>
<path d="M14.2483 61.7517C13.669 61.1719 12.7291 61.1719 12.1493 61.7517L0.434875 73.4661C-0.144958 74.0454 -0.144958 74.9853 0.434875 75.5651C0.724792 75.855 1.10458 76 1.48438 76C1.86417 76 2.24454 75.855 2.53387 75.5651L14.2483 63.8507C14.8281 63.2715 14.8281 62.3316 14.2483 61.7517Z" fill="#58454B"/>
<path d="M3.73633 64.285C4.12656 64.285 4.50925 64.1279 4.78583 63.8502C5.06183 63.5742 5.2207 63.1926 5.2207 62.8007C5.2207 62.4104 5.06183 62.0277 4.78583 61.7517C4.50925 61.4752 4.12656 61.3163 3.73633 61.3163C3.34436 61.3163 2.96283 61.4752 2.68683 61.7517C2.41083 62.0277 2.25195 62.4104 2.25195 62.8007C2.25195 63.1926 2.41083 63.5742 2.68683 63.8502C2.96283 64.1279 3.34552 64.285 3.73633 64.285Z" fill="#58454B"/>
<path d="M29.8999 37.626L29.8872 37.637C29.2766 38.185 29.2262 39.1237 29.7741 39.7337C30.0669 40.0601 30.4722 40.2266 30.8793 40.2266C31.2324 40.2266 31.5867 40.1013 31.8702 39.8462L31.883 39.8352C32.493 39.2872 32.544 38.3491 31.996 37.7391C31.4481 37.1285 30.5099 37.0781 29.8999 37.626Z" fill="#58454B"/>
</g>
<defs>
<clipPath id="clip0">
<rect width="76" height="76" fill="white"/>
</clipPath>
</defs>
</svg>
