<svg width="39" height="24" viewBox="0 0 39 24" fill="none" xmlns="http://www.w3.org/2000/svg">
<path d="M23.9892 11.9981C23.9892 18.626 18.62 23.9963 11.9946 23.9963C5.36913 23.9963 0 18.6248 0 11.9981C0 5.3715 5.37045 0 11.9946 0C18.6187 0 23.9892 5.3715 23.9892 11.9981Z" fill="#E2574C"/>
<path d="M26.3998 0C23.7098 0 21.2334 0.896281 19.2321 2.3925L19.2417 2.39368C19.6353 2.77398 20.0696 3.04164 20.4043 3.47945L17.9087 3.51906C17.5176 3.91384 17.1612 4.34336 16.8253 4.78973H21.2261C21.5609 5.19161 21.8704 5.54086 22.1512 5.98472H16.0274C15.803 6.37108 15.5955 6.76823 15.4143 7.18091H22.8484C23.0428 7.5924 23.2167 7.90322 23.3644 8.33879H14.974C14.8408 8.75279 14.7269 9.17625 14.6404 9.60814H23.7159C23.8047 10.0233 23.873 10.4072 23.9198 10.7984H14.4604C14.4208 11.1932 14.4004 11.5939 14.4004 11.9983H23.9881C23.9881 12.4231 23.9581 12.8165 23.915 13.1981H14.4604C14.5012 13.6049 14.5612 14.0044 14.6404 14.398H23.7014C23.6078 14.7867 23.4998 15.1778 23.3643 15.5834H14.9464C15.0735 15.9937 15.2284 16.392 15.3975 16.7808H22.8484C22.6421 17.2175 22.4081 17.5666 22.1502 17.9758H16.006C16.2484 18.3957 16.5159 18.7964 16.8062 19.1804L21.2263 19.2463C20.8495 19.6986 20.366 19.971 19.9256 20.3669C19.9495 20.3861 19.2213 20.3646 17.7875 20.3418C19.9688 22.5927 23.0175 23.9964 26.3997 23.9964C33.0264 23.9964 38.3979 18.6248 38.3979 11.9983C38.3979 5.37176 33.0275 0 26.3998 0Z" fill="#F4B459"/>
</svg>
