<svg width="124" height="85" viewBox="0 0 124 85" fill="none" xmlns="http://www.w3.org/2000/svg">
<path opacity="0.1" d="M72.107 15.7507C64.2237 15.4711 56.7156 12.9311 49.5509 10.1577C42.3863 7.38424 35.2801 4.29834 27.5856 2.8259C22.6367 1.87873 16.9763 1.74499 12.9896 4.39317C9.15152 6.94652 7.91154 11.3419 7.24526 15.4249C6.74342 18.4962 6.44865 21.728 7.82262 24.6035C8.77758 26.6 10.4707 28.2779 11.6425 30.1905C15.7193 36.8438 12.8374 45.0486 8.42069 51.545C6.34999 54.5932 3.94432 57.5028 2.345 60.7444C0.74569 63.9859 0.00632769 67.7053 1.40588 71.0149C2.79203 74.2978 6.09663 76.7587 9.67651 78.4913C16.9471 82.0101 25.5113 83.0181 33.8684 83.5883C52.3622 84.8516 70.9535 84.3045 89.496 83.7573C96.3586 83.5543 103.25 83.3488 110.001 82.2897C113.75 81.7013 117.62 80.7675 120.342 78.5144C123.797 75.6535 124.653 70.8082 122.337 67.2214C118.454 61.204 107.721 59.7096 105.003 53.2509C103.51 49.6969 105.043 45.7367 107.215 42.4405C111.873 35.3689 119.68 29.1643 120.09 21.0799C120.373 15.5282 116.62 9.96799 110.817 7.34047C104.735 4.5865 96.3001 4.93303 91.8152 9.49136C87.189 14.1798 79.0682 15.9854 72.107 15.7507Z" fill="#3166ED"/>
<g clip-path="url(#clip0)">
<path d="M86.7229 56.7593C86.7235 54.5095 85.8926 52.3405 84.3929 50.6767C82.8932 49.0128 80.8325 47.974 78.6142 47.7633C76.3959 47.5527 74.1796 48.1855 72.399 49.5378C70.6184 50.8902 69.4016 52.8648 68.9868 55.0752L41.4913 54.3222L41.7932 59.092C41.7932 59.092 37.8725 68.2267 58.4784 70.6605V79.8931H82.2999V64.5425C83.6452 63.7471 84.7611 62.6104 85.5369 61.2451C86.3128 59.8798 86.7217 58.3334 86.7229 56.7593Z" fill="url(#paint0_linear)"/>
<path d="M42.7372 59.2923C42.7372 59.2923 38.9829 68.04 58.7163 70.3737V79.2192H81.5299V55.7929L42.4442 54.7239L42.7372 59.2923Z" fill="#F6B9AD"/>
<path d="M54.1391 22.7879C53.5442 23.7357 52.6021 24.4073 51.5184 24.6559C50.4347 24.9046 49.2977 24.7101 48.3556 24.1149L36.1066 15.9646C35.1679 15.364 34.5028 14.4126 34.2566 13.3184C34.0103 12.2242 34.2029 11.076 34.7924 10.1247C35.3872 9.17815 36.3285 8.50742 37.4111 8.25883C38.4937 8.01023 39.6297 8.20394 40.5715 8.7977L52.8204 16.948C53.7598 17.5479 54.4259 18.4989 54.673 19.5932C54.92 20.6875 54.7281 21.8361 54.1391 22.7879Z" fill="url(#paint1_linear)"/>
<path d="M53.4604 22.3417C52.9075 23.2227 52.0317 23.847 51.0245 24.0781C50.0172 24.3093 48.9602 24.1285 48.0845 23.5753L36.6948 15.999C35.8223 15.4407 35.2041 14.5564 34.9752 13.5393C34.7462 12.5222 34.9253 11.4549 35.4731 10.5707C36.026 9.68966 36.9018 9.06539 37.9091 8.83425C38.9164 8.60311 39.9733 8.78388 40.849 9.33707L52.2365 16.9145C53.1091 17.4724 53.7276 18.3564 53.9569 19.3732C54.1862 20.3901 54.0077 21.4573 53.4604 22.3417Z" fill="#F6B9AD"/>
<path d="M77.1983 65.7084C81.9299 65.7084 85.7657 61.8353 85.7657 57.0576C85.7657 52.2798 81.9299 48.4067 77.1983 48.4067C72.4667 48.4067 68.631 52.2798 68.631 57.0576C68.631 61.8353 72.4667 65.7084 77.1983 65.7084Z" fill="#F6B9AD"/>
<path d="M75.656 0H42.8364C42.0911 0 41.4869 0.610076 41.4869 1.36264V63.3724C41.4869 64.1249 42.0911 64.735 42.8364 64.735H75.656C76.4013 64.735 77.0055 64.1249 77.0055 63.3724V1.36264C77.0055 0.610076 76.4013 0 75.656 0Z" fill="url(#paint2_linear)"/>
<path d="M75.0226 0.875488H43.4698C42.64 0.875488 41.9672 1.55479 41.9672 2.39275V62.3446C41.9672 63.1826 42.64 63.8619 43.4698 63.8619H75.0226C75.8525 63.8619 76.5252 63.1826 76.5252 62.3446V2.39275C76.5252 1.55479 75.8525 0.875488 75.0226 0.875488Z" fill="white"/>
<path d="M67.9281 2.45386C67.8281 3.12183 67.4947 3.73162 66.9881 4.17293C66.4816 4.61423 65.8353 4.85792 65.1663 4.8599H53.2313C52.5625 4.85765 51.9165 4.61385 51.4102 4.17257C50.9038 3.73128 50.5706 3.12164 50.4706 2.45386H44.1473C43.9749 2.45371 43.8042 2.48787 43.6449 2.55438C43.4856 2.6209 43.3408 2.71846 43.2188 2.8415C43.0969 2.96453 43.0001 3.11063 42.9341 3.27144C42.8681 3.43224 42.8342 3.60461 42.8342 3.77868V60.9541C42.834 61.1281 42.8679 61.3005 42.9337 61.4614C42.9996 61.6223 43.0962 61.7684 43.2181 61.8916C43.3399 62.0147 43.4846 62.1124 43.6439 62.1791C43.8031 62.2457 43.9738 62.28 44.1462 62.28H74.3462C74.5185 62.2802 74.6893 62.246 74.8486 62.1795C75.0079 62.113 75.1527 62.0154 75.2746 61.8924C75.3966 61.7693 75.4933 61.6232 75.5593 61.4624C75.6253 61.3016 75.6593 61.1292 75.6593 60.9552V3.77979C75.6594 3.60572 75.6256 3.43333 75.5597 3.27246C75.4939 3.1116 75.3972 2.96542 75.2754 2.84228C75.1535 2.71914 75.0089 2.62146 74.8496 2.55481C74.6903 2.48816 74.5196 2.45386 74.3472 2.45386H67.9281Z" fill="#3166ED"/>
<path d="M62.9256 3.20825H55.6648C55.5431 3.20825 55.4445 3.30786 55.4445 3.43072V3.47188C55.4445 3.59475 55.5431 3.69435 55.6648 3.69435H62.9256C63.0473 3.69435 63.1459 3.59475 63.1459 3.47188V3.43072C63.1459 3.30786 63.0473 3.20825 62.9256 3.20825Z" fill="#DBDBDB"/>
<path d="M64.7818 3.69421C64.9412 3.69421 65.0705 3.56372 65.0705 3.40277C65.0705 3.24181 64.9412 3.11133 64.7818 3.11133C64.6224 3.11133 64.4932 3.24181 64.4932 3.40277C64.4932 3.56372 64.6224 3.69421 64.7818 3.69421Z" fill="#DBDBDB"/>
<path d="M82.7372 58.5824C80.2509 59.1631 78.5444 57.5257 77.9694 55.0162L72.2564 33.5966C71.9833 32.3864 72.1955 31.1163 72.8467 30.0636C73.4979 29.0109 74.5352 28.2611 75.732 27.978C76.9305 27.7023 78.1883 27.9166 79.2309 28.5741C80.2734 29.2317 81.0159 30.279 81.2963 31.4875L85.9584 53.4567C86.5334 55.9706 85.2225 58.0018 82.7372 58.5824Z" fill="url(#paint3_linear)"/>
<path d="M80.6553 32.0131C80.1706 29.8948 78.077 28.5743 75.9791 29.0637C73.8812 29.5532 72.5734 31.6672 73.0581 33.7855L78.3115 56.7439C78.7962 58.8622 80.8899 60.1827 82.9878 59.6932C85.0857 59.2038 86.3934 57.0898 85.9087 54.9714L80.6553 32.0131Z" fill="#F6B9AD"/>
<path d="M83.7304 76.325H55.1223C54.0177 76.325 53.1223 77.2204 53.1223 78.325V82.0003C53.1223 83.1048 54.0177 84.0003 55.1223 84.0003H83.7304C84.835 84.0003 85.7304 83.1048 85.7304 82.0002V78.325C85.7304 77.2204 84.835 76.325 83.7304 76.325Z" fill="url(#paint4_linear)"/>
<path d="M82.8491 77.2146H56.0036C54.899 77.2146 54.0036 78.11 54.0036 79.2146V81.2214C54.0036 82.3259 54.899 83.2214 56.0036 83.2214H82.8491C83.9537 83.2214 84.8491 82.3259 84.8491 81.2213V79.2146C84.8491 78.11 83.9537 77.2146 82.8491 77.2146Z" fill="#EC6689"/>
<path d="M66.5214 20.2873L63.9942 18.3662L65.0958 16.9201L63.2572 15.463L62.1082 16.9335L59.5095 14.9591C59.4105 14.8841 59.2901 14.8435 59.1664 14.8435C59.0426 14.8435 58.9222 14.8841 58.8232 14.9591L51.9347 20.1371C51.6737 20.3596 51.4291 20.6143 51.4269 21.1972H51.4192L51.4016 29.175V29.5299C51.4013 29.6441 51.4233 29.7573 51.4663 29.8629C51.5093 29.9686 51.5725 30.0646 51.6523 30.1456C51.7321 30.2266 51.8269 30.2909 51.9313 30.3349C52.0357 30.3789 52.1477 30.4017 52.2608 30.402H52.6001L59.1317 30.4164L66.0036 30.432C66.1167 30.4323 66.2288 30.4101 66.3334 30.3666C66.4381 30.3232 66.5332 30.2594 66.6134 30.1788C66.6936 30.0982 66.7573 30.0025 66.8008 29.8971C66.8444 29.7917 66.867 29.6786 66.8673 29.5644L66.886 21.2461H66.9003C66.9003 20.6621 66.7824 20.5097 66.5214 20.2873Z" fill="url(#paint5_linear)"/>
<path d="M66.2217 21.3674C66.2217 20.8357 66.1115 20.7 65.8758 20.4942L59.4786 15.6365C59.3882 15.568 59.2783 15.531 59.1652 15.531C59.0522 15.531 58.9422 15.568 58.8518 15.6365L52.5671 20.3619C52.4159 20.4709 52.2943 20.6166 52.2134 20.7855C52.1326 20.9544 52.0951 21.1411 52.1044 21.3285H52.0978L52.0812 28.6078V28.9315C52.0809 29.1419 52.1634 29.3439 52.3104 29.493C52.4575 29.6421 52.6572 29.7262 52.8656 29.7268H53.1752L59.1349 29.7402L65.4043 29.7546C65.6127 29.7549 65.8127 29.6717 65.9604 29.5232C66.1081 29.3747 66.1914 29.1731 66.1919 28.9626L66.2085 21.373L66.2217 21.3674Z" fill="url(#paint6_linear)"/>
<path d="M52.2133 21.3577L66.075 21.3894L66.0577 29.0903C66.0575 29.1514 66.0455 29.2118 66.0222 29.2681C65.999 29.3245 65.9649 29.3757 65.9221 29.4188C65.8792 29.4618 65.8284 29.496 65.7724 29.5192C65.7165 29.5425 65.6566 29.5543 65.5962 29.5542L52.7072 29.5247C52.5725 29.5244 52.4434 29.47 52.3484 29.3737C52.2534 29.2773 52.2002 29.1467 52.2005 29.0107L52.2177 21.3577L52.2133 21.3577Z" fill="#3166ED"/>
<path opacity="0.2" d="M52.2133 21.3577L66.075 21.3894L66.0577 29.0903C66.0575 29.1514 66.0455 29.2118 66.0222 29.2681C65.999 29.3245 65.9649 29.3757 65.9221 29.4188C65.8792 29.4618 65.8284 29.496 65.7724 29.5192C65.7165 29.5425 65.6566 29.5543 65.5962 29.5542L52.7072 29.5247C52.5725 29.5244 52.4434 29.47 52.3484 29.3737C52.2534 29.2773 52.2002 29.1467 52.2005 29.0107L52.2177 21.3577L52.2133 21.3577Z" fill="white"/>
<path d="M52.2145 21.3552L52.1991 28.4287C52.1988 28.5715 52.2264 28.7128 52.2802 28.8448C52.334 28.9768 52.413 29.0967 52.5128 29.1979C52.6125 29.299 52.731 29.3793 52.8615 29.4342C52.9919 29.489 53.1318 29.5174 53.2732 29.5177L64.9824 29.5444" fill="#F5F5F5"/>
<path d="M66.0774 21.3862L66.062 28.4642C66.0617 28.6069 66.0335 28.7482 65.9792 28.8799C65.9248 29.0116 65.8453 29.1313 65.7452 29.232C65.645 29.3327 65.5262 29.4125 65.3955 29.4669C65.2648 29.5212 65.1248 29.549 64.9835 29.5487L53.2743 29.522" fill="white"/>
<path d="M58.8507 15.8211L52.6816 20.4151C52.5335 20.5204 52.414 20.6617 52.3345 20.8261C52.255 20.9904 52.2179 21.1724 52.2267 21.3551L66.095 21.3996C66.095 20.8823 65.9849 20.7466 65.7557 20.5508L59.471 15.8233C59.3817 15.7552 59.2731 15.7182 59.1612 15.7178C59.0494 15.7174 58.9404 15.7536 58.8507 15.8211Z" fill="#3166ED"/>
<path opacity="0.2" d="M58.8507 15.8211L52.6816 20.4151C52.5335 20.5204 52.414 20.6617 52.3345 20.8261C52.255 20.9904 52.2179 21.1724 52.2267 21.3551L66.095 21.3996C66.095 20.8823 65.9849 20.7466 65.7557 20.5508L59.471 15.8233C59.3817 15.7552 59.2731 15.7182 59.1612 15.7178C59.0494 15.7174 58.9404 15.7536 58.8507 15.8211Z" fill="black"/>
<path d="M64.5758 17.4197L62.8981 16.0916L58.843 21.2774L56.664 19.571L55.2991 21.323L58.4706 23.7691L59.2572 24.4065L64.5758 17.4197Z" fill="url(#paint7_linear)"/>
<path d="M64.4525 17.3873L62.9322 16.2104L58.9036 21.5153L56.6662 19.7834L55.4996 21.3184L58.4971 23.6366L59.266 24.2183L64.4525 17.3873Z" fill="white"/>
<path d="M51.5084 34.462C50.9179 35.4027 49.9827 36.0692 48.9071 36.316C47.8316 36.5627 46.703 36.3697 45.7679 35.7791L35.3575 28.9347C34.4259 28.3384 33.7658 27.3941 33.5214 26.3081C33.2771 25.222 33.4682 24.0824 34.0532 23.1382C34.6437 22.1975 35.5789 21.531 36.6545 21.2842C37.73 21.0375 38.8586 21.2305 39.7937 21.8211L50.2041 28.6655C51.1357 29.2618 51.7958 30.2061 52.0401 31.2922C52.2845 32.3782 52.0934 33.5178 51.5084 34.462Z" fill="url(#paint8_linear)"/>
<path d="M50.9554 34.1017C50.4024 34.9827 49.5267 35.607 48.5194 35.8381C47.5121 36.0693 46.4552 35.8885 45.5795 35.3353L35.829 28.9248C34.9565 28.3665 34.3382 27.4822 34.1093 26.4651C33.8804 25.448 34.0594 24.3807 34.6073 23.4965C35.1602 22.6154 36.036 21.9912 37.0433 21.76C38.0505 21.5289 39.1075 21.7097 39.9832 22.2628L49.7337 28.6734C50.6062 29.2317 51.2244 30.116 51.4533 31.1331C51.6823 32.1502 51.5032 33.2175 50.9554 34.1017Z" fill="#F6B9AD"/>
<path d="M49.3845 45.766C48.7968 46.7026 47.866 47.3662 46.7953 47.612C45.7246 47.8577 44.6012 47.6655 43.6703 47.0775L35.4544 41.7104C34.5269 41.117 33.8697 40.1771 33.6263 39.096C33.383 38.0149 33.5732 36.8804 34.1556 35.9405C34.7432 35.004 35.6741 34.3403 36.7448 34.0946C37.8154 33.8489 38.9389 34.041 39.8697 34.6291L48.0846 39.9973C49.0119 40.5905 49.6692 41.5301 49.9128 42.611C50.1563 43.6918 49.9664 44.8261 49.3845 45.766Z" fill="url(#paint9_linear)"/>
<path d="M47.3222 57.1277C46.7294 58.0728 45.7901 58.7426 44.7097 58.9906C43.6293 59.2387 42.4956 59.0448 41.5563 58.4514L36.4679 54.7027C35.5319 54.1041 34.8686 53.1557 34.623 52.0648C34.3773 50.9738 34.5693 49.8291 35.157 48.8806C35.7506 47.9362 36.6901 47.2674 37.7705 47.0202C38.8508 46.773 39.9841 46.9676 40.9229 47.5614L46.0113 51.3089C46.9464 51.9075 47.609 52.8553 47.8546 53.9454C48.1002 55.0356 47.9088 56.1795 47.3222 57.1277Z" fill="url(#paint10_linear)"/>
<path d="M46.9113 56.8483C46.3584 57.7294 45.4826 58.3536 44.4753 58.5848C43.4681 58.8159 42.4111 58.6351 41.5354 58.0819L36.7907 54.5869C35.9182 54.0286 35.2999 53.1443 35.071 52.1272C34.8421 51.1101 35.0211 50.0428 35.569 49.1586C36.1219 48.2775 36.9977 47.6533 38.005 47.4221C39.0123 47.191 40.0692 47.3718 40.9449 47.925L45.6896 51.42C46.5621 51.9783 47.1804 52.8626 47.4093 53.8797C47.6382 54.8968 47.4592 55.9641 46.9113 56.8483Z" fill="#F6B9AD"/>
<path d="M70.4828 35.9927H48.0096V42.7781H70.4828V35.9927Z" fill="url(#paint11_linear)"/>
<path d="M67.7116 36.6602H50.7808C49.6762 36.6602 48.7808 37.5556 48.7808 38.6602V39.5545C48.7808 40.6591 49.6762 41.5545 50.7808 41.5545H67.7116C68.8162 41.5545 69.7116 40.6591 69.7116 39.5545V38.6602C69.7116 37.5556 68.8162 36.6602 67.7116 36.6602Z" fill="#69F0AE"/>
<path d="M48.9328 45.4755C48.3799 46.3565 47.5041 46.9808 46.4968 47.2119C45.4895 47.4431 44.4326 47.2623 43.5569 46.7091L35.8279 41.659C34.9554 41.1007 34.3371 40.2164 34.1082 39.1993C33.8793 38.1822 34.0583 37.1149 34.6062 36.2307C35.1582 35.3487 36.0336 34.7233 37.0409 34.4911C38.0483 34.2589 39.1057 34.4388 39.9821 34.9915L47.7111 40.0416C48.5851 40.6 49.2044 41.4853 49.4334 42.5038C49.6624 43.5222 49.4824 44.5908 48.9328 45.4755Z" fill="#F6B9AD"/>
</g>
<defs>
<linearGradient id="paint0_linear" x1="64.1088" y1="79.8976" x2="64.1088" y2="47.7247" gradientUnits="userSpaceOnUse">
<stop stop-color="#808080" stop-opacity="0.25"/>
<stop offset="0.54" stop-color="#808080" stop-opacity="0.12"/>
<stop offset="1" stop-color="#808080" stop-opacity="0.1"/>
</linearGradient>
<linearGradient id="paint1_linear" x1="8518.55" y1="4908.31" x2="8518.55" y2="2428.01" gradientUnits="userSpaceOnUse">
<stop stop-color="#808080" stop-opacity="0.25"/>
<stop offset="0.54" stop-color="#808080" stop-opacity="0.12"/>
<stop offset="1" stop-color="#808080" stop-opacity="0.1"/>
</linearGradient>
<linearGradient id="paint2_linear" x1="19395.7" y1="42353.9" x2="19395.7" y2="4680.7" gradientUnits="userSpaceOnUse">
<stop stop-color="#808080" stop-opacity="0.25"/>
<stop offset="0.54" stop-color="#808080" stop-opacity="0.12"/>
<stop offset="1" stop-color="#808080" stop-opacity="0.1"/>
</linearGradient>
<linearGradient id="paint3_linear" x1="10199.9" y1="18535.3" x2="10199.9" y2="9984.56" gradientUnits="userSpaceOnUse">
<stop stop-color="#808080" stop-opacity="0.25"/>
<stop offset="0.54" stop-color="#808080" stop-opacity="0.12"/>
<stop offset="1" stop-color="#808080" stop-opacity="0.1"/>
</linearGradient>
<linearGradient id="paint4_linear" x1="20833.3" y1="6420.12" x2="20833.3" y2="5890.52" gradientUnits="userSpaceOnUse">
<stop stop-color="#808080" stop-opacity="0.25"/>
<stop offset="0.54" stop-color="#808080" stop-opacity="0.12"/>
<stop offset="1" stop-color="#808080" stop-opacity="0.1"/>
</linearGradient>
<linearGradient id="paint5_linear" x1="59.1504" y1="30.4309" x2="59.1504" y2="14.8423" gradientUnits="userSpaceOnUse">
<stop stop-opacity="0.12"/>
<stop offset="0.55" stop-opacity="0.09"/>
<stop offset="1" stop-opacity="0.02"/>
</linearGradient>
<linearGradient id="paint6_linear" x1="7753.68" y1="4849.57" x2="7753.68" y2="3030.94" gradientUnits="userSpaceOnUse">
<stop stop-color="#808080" stop-opacity="0.25"/>
<stop offset="0.54" stop-color="#808080" stop-opacity="0.12"/>
<stop offset="1" stop-color="#808080" stop-opacity="0.1"/>
</linearGradient>
<linearGradient id="paint7_linear" x1="5142.71" y1="2447.21" x2="5144.14" y2="1825.01" gradientUnits="userSpaceOnUse">
<stop stop-opacity="0.12"/>
<stop offset="0.55" stop-opacity="0.09"/>
<stop offset="1" stop-opacity="0.02"/>
</linearGradient>
<linearGradient id="paint8_linear" x1="7449.96" y1="6115.57" x2="7449.96" y2="4027.06" gradientUnits="userSpaceOnUse">
<stop stop-color="#808080" stop-opacity="0.25"/>
<stop offset="0.54" stop-color="#808080" stop-opacity="0.12"/>
<stop offset="1" stop-color="#808080" stop-opacity="0.1"/>
</linearGradient>
<linearGradient id="paint9_linear" x1="6414.32" y1="6916.25" x2="6414.32" y2="5222.45" gradientUnits="userSpaceOnUse">
<stop stop-color="#808080" stop-opacity="0.25"/>
<stop offset="0.54" stop-color="#808080" stop-opacity="0.12"/>
<stop offset="1" stop-color="#808080" stop-opacity="0.1"/>
</linearGradient>
<linearGradient id="paint10_linear" x1="5169.73" y1="7400.15" x2="5169.73" y2="6066.02" gradientUnits="userSpaceOnUse">
<stop stop-color="#808080" stop-opacity="0.25"/>
<stop offset="0.54" stop-color="#808080" stop-opacity="0.12"/>
<stop offset="1" stop-color="#808080" stop-opacity="0.1"/>
</linearGradient>
<linearGradient id="paint11_linear" x1="7850.23" y1="2645.45" x2="7850.23" y2="2231.54" gradientUnits="userSpaceOnUse">
<stop stop-opacity="0.12"/>
<stop offset="0.55" stop-opacity="0.09"/>
<stop offset="1" stop-opacity="0.02"/>
</linearGradient>
<clipPath id="clip0">
<rect width="88" height="84" fill="white" transform="translate(21)"/>
</clipPath>
</defs>
</svg>
