<svg width="124" height="83" viewBox="0 0 124 83" fill="none" xmlns="http://www.w3.org/2000/svg">
<path opacity="0.1" d="M72.107 13.5451C64.2237 13.2655 56.7156 10.7255 49.5509 7.9521C42.3863 5.17867 35.2801 2.09277 27.5856 0.620338C22.6367 -0.326833 16.9763 -0.46058 12.9896 2.18761C9.15152 4.74096 7.91154 9.13636 7.24526 13.2193C6.74342 16.2906 6.44865 19.5224 7.82262 22.398C8.77758 24.3944 10.4707 26.0724 11.6425 27.9849C15.7193 34.6382 12.8374 42.843 8.42069 49.3394C6.34999 52.3877 3.94432 55.2973 2.345 58.5388C0.74569 61.7803 0.00632769 65.4997 1.40588 68.8093C2.79203 72.0922 6.09663 74.5531 9.67651 76.2858C16.9471 79.8045 25.5113 80.8125 33.8684 81.3827C52.3622 82.646 70.9535 82.0989 89.496 81.5518C96.3586 81.3487 103.25 81.1432 110.001 80.0842C113.75 79.4957 117.62 78.5619 120.342 76.3089C123.797 73.4479 124.653 68.6026 122.337 65.0158C118.454 58.9984 107.721 57.5041 105.003 51.0453C103.51 47.4913 105.043 43.5312 107.215 40.2349C111.873 33.1634 119.68 26.9587 120.09 18.8743C120.373 13.3226 116.62 7.76242 110.817 5.1349C104.735 2.38093 96.3001 2.72746 91.8152 7.28579C87.189 11.9742 79.0682 13.7798 72.107 13.5451Z" fill="#3166ED"/>
<path opacity="0.2" d="M71.9717 36.2471H69.5706V31.5604C69.5706 26.2717 65.3744 21.8752 60.1114 21.7951C58.8423 21.7817 57.5832 22.0208 56.4065 22.4986C55.2298 22.9765 54.1588 23.6836 53.2553 24.5793C52.3518 25.4749 51.6336 26.5414 51.1422 27.7172C50.6507 28.8931 50.3957 30.155 50.3918 31.4304V36.2471H47.996C46.9372 36.2504 45.9227 36.6745 45.174 37.4268C44.4253 38.1792 44.0033 39.1986 44 40.2626V59.5331C44.0033 60.5971 44.4253 61.6165 45.174 62.3688C45.9227 63.1212 46.9372 63.5453 47.996 63.5486H71.9717C73.0303 63.5453 74.0446 63.1211 74.793 62.3687C75.5414 61.6163 75.9631 60.5969 75.9659 59.5331V40.2626C75.9631 39.1988 75.5414 38.1793 74.793 37.427C74.0446 36.6746 73.0303 36.2504 71.9717 36.2471ZM61.3837 48.7742V55.6762C61.3861 56.0416 61.2501 56.3943 61.0033 56.6628C60.7565 56.9312 60.4174 57.0954 60.0547 57.1221C59.8654 57.131 59.6762 57.1012 59.4986 57.0345C59.321 56.9679 59.1587 56.8657 59.0216 56.7342C58.8844 56.6027 58.7752 56.4446 58.7006 56.2695C58.626 56.0943 58.5875 55.9058 58.5875 55.7153V48.7707C57.9392 48.453 57.4172 47.9239 57.1067 47.2697C56.7962 46.6156 56.7154 45.875 56.8777 45.1688C57.0399 44.4626 57.4355 43.8325 58 43.3813C58.5644 42.9302 59.2644 42.6845 59.9856 42.6845C60.7068 42.6845 61.4068 42.9302 61.9713 43.3813C62.5357 43.8325 62.9313 44.4626 63.0935 45.1688C63.2558 45.875 63.175 46.6156 62.8645 47.2697C62.554 47.9239 62.032 48.453 61.3837 48.7707V48.7742ZM66.7779 36.2471H53.188V31.4304C53.188 29.6202 53.9037 27.8841 55.1775 26.6041C56.4512 25.3241 58.1789 24.605 59.9803 24.605C61.7817 24.605 63.5093 25.3241 64.7831 26.6041C66.0569 27.8841 66.7725 29.6202 66.7725 31.4304L66.7779 36.2471Z" fill="#1B367C"/>
<path d="M72.9717 37.2471H70.5706V32.5604C70.5706 27.2717 66.3744 22.8752 61.1114 22.7951C59.8423 22.7817 58.5832 23.0208 57.4065 23.4986C56.2298 23.9765 55.1588 24.6836 54.2553 25.5793C53.3518 26.4749 52.6336 27.5414 52.1422 28.7172C51.6507 29.8931 51.3957 31.155 51.3918 32.4304V37.2471H48.996C47.9372 37.2504 46.9227 37.6745 46.174 38.4268C45.4253 39.1792 45.0033 40.1986 45 41.2626V60.5331C45.0033 61.5971 45.4253 62.6165 46.174 63.3688C46.9227 64.1212 47.9372 64.5453 48.996 64.5486H72.9717C74.0303 64.5453 75.0446 64.1211 75.793 63.3687C76.5414 62.6163 76.9631 61.5969 76.9659 60.5331V41.2626C76.9631 40.1988 76.5414 39.1793 75.793 38.427C75.0446 37.6746 74.0303 37.2504 72.9717 37.2471ZM62.3837 49.7742V56.6762C62.3861 57.0416 62.2501 57.3943 62.0033 57.6628C61.7565 57.9312 61.4174 58.0954 61.0547 58.1221C60.8654 58.131 60.6762 58.1012 60.4986 58.0345C60.321 57.9679 60.1587 57.8657 60.0216 57.7342C59.8844 57.6027 59.7752 57.4446 59.7006 57.2695C59.626 57.0943 59.5875 56.9058 59.5875 56.7153V49.7707C58.9392 49.453 58.4172 48.9239 58.1067 48.2697C57.7962 47.6156 57.7154 46.875 57.8777 46.1688C58.0399 45.4626 58.4355 44.8325 59 44.3813C59.5644 43.9302 60.2644 43.6845 60.9856 43.6845C61.7068 43.6845 62.4068 43.9302 62.9713 44.3813C63.5357 44.8325 63.9313 45.4626 64.0935 46.1688C64.2558 46.875 64.175 47.6156 63.8645 48.2697C63.554 48.9239 63.032 49.453 62.3837 49.7707V49.7742ZM67.7779 37.2471H54.188V32.4304C54.188 30.6202 54.9037 28.8841 56.1775 27.6041C57.4512 26.3241 59.1789 25.605 60.9803 25.605C62.7817 25.605 64.5093 26.3241 65.7831 27.6041C67.0569 28.8841 67.7725 30.6202 67.7725 32.4304L67.7779 37.2471Z" fill="#EC6689"/>
</svg>
