<svg width="124" height="84" viewBox="0 0 124 84" fill="none" xmlns="http://www.w3.org/2000/svg">
<path opacity="0.1" d="M72.107 13.5451C64.2237 13.2655 56.7156 10.7255 49.5509 7.9521C42.3863 5.17867 35.2801 2.09277 27.5856 0.620338C22.6367 -0.326833 16.9763 -0.46058 12.9896 2.18761C9.15152 4.74096 7.91154 9.13636 7.24526 13.2193C6.74342 16.2906 6.44865 19.5224 7.82262 22.398C8.77758 24.3944 10.4707 26.0724 11.6425 27.9849C15.7193 34.6382 12.8374 42.843 8.42069 49.3394C6.34999 52.3877 3.94432 55.2973 2.345 58.5388C0.74569 61.7803 0.00632769 65.4997 1.40588 68.8093C2.79203 72.0922 6.09663 74.5531 9.67651 76.2858C16.9471 79.8045 25.5113 80.8125 33.8684 81.3827C52.3622 82.646 70.9535 82.0989 89.496 81.5518C96.3586 81.3487 103.25 81.1432 110.001 80.0842C113.75 79.4957 117.62 78.5619 120.342 76.3089C123.797 73.4479 124.653 68.6026 122.337 65.0158C118.454 58.9984 107.721 57.5041 105.003 51.0453C103.51 47.4913 105.043 43.5312 107.215 40.2349C111.873 33.1634 119.68 26.9587 120.09 18.8743C120.373 13.3226 116.62 7.76242 110.817 5.1349C104.735 2.38093 96.3001 2.72746 91.8152 7.28579C87.189 11.9742 79.0682 13.7798 72.107 13.5451Z" fill="#3166ED"/>
<path d="M67.9313 9.12219L31.99 16.8368C29.8301 17.3004 28.4547 19.4273 28.918 21.5873L40.2142 74.2545C40.6775 76.4145 42.804 77.7897 44.964 77.3261L80.9052 69.6115C83.0652 69.1479 84.4406 67.021 83.9773 64.861L72.6811 12.1938C72.2178 10.0338 70.0912 8.65857 67.9313 9.12219Z" fill="#E0E0E0"/>
<g opacity="0.5">
<path opacity="0.5" d="M71.3226 9.46422L29.0386 18.5403L41.574 76.9849L83.858 67.9089L71.3226 9.46422Z" fill="url(#paint0_linear)"/>
</g>
<path d="M66.9651 10.8494L33.5794 18.0155C31.4194 18.4791 30.044 20.606 30.5073 22.766L41.088 72.0973C41.5513 74.2573 43.6779 75.6325 45.8378 75.1689L79.2235 68.0028C81.3834 67.5392 82.7589 65.4123 82.2956 63.2523L71.7149 13.921C71.2516 11.761 69.125 10.3858 66.9651 10.8494Z" fill="#FAFAFA"/>
<path d="M59.0386 9.95918L40.5515 13.9273C40.0115 14.0432 39.6676 14.575 39.7834 15.115L40.4265 18.1132C40.5423 18.6532 41.074 18.997 41.614 18.8811L60.1011 14.913C60.6411 14.7971 60.9849 14.2653 60.8691 13.7253L60.226 10.7271C60.1102 10.1871 59.5786 9.84327 59.0386 9.95918Z" fill="url(#paint1_linear)"/>
<path d="M48.7566 7.10479C47.1783 7.44393 46.1797 9.02895 46.5269 10.6447C46.8741 12.2605 48.434 13.2973 50.0092 12.9582C51.5844 12.6191 52.586 11.034 52.2388 9.41829C51.8916 7.80253 50.3349 6.76566 48.7566 7.10479ZM49.747 11.7256C49.4134 11.8052 49.0637 11.7836 48.7425 11.6637C48.4212 11.5437 48.1429 11.3307 47.9431 11.0519C47.7433 10.7732 47.6309 10.4412 47.6204 10.0983C47.6099 9.75539 47.7017 9.41714 47.8841 9.12663C48.0664 8.83612 48.3311 8.6065 48.6445 8.46705C48.9578 8.3276 49.3055 8.28463 49.6433 8.34361C49.9811 8.40259 50.2937 8.56085 50.5413 8.79823C50.7888 9.03561 50.9601 9.34135 51.0334 9.67648C51.084 9.89556 51.0908 10.1225 51.0535 10.3442C51.0161 10.5659 50.9354 10.7781 50.8158 10.9685C50.6963 11.1589 50.5403 11.3238 50.3569 11.4537C50.1735 11.5837 49.9662 11.6761 49.747 11.7256Z" fill="url(#paint2_linear)"/>
<path d="M58.7774 9.79306L40.7209 13.6688C40.1809 13.7847 39.8371 14.3164 39.9529 14.8564L40.5491 17.6363C40.6649 18.1763 41.1966 18.5201 41.7366 18.4042L59.7931 14.5285C60.333 14.4126 60.6769 13.8808 60.5611 13.3408L59.9648 10.561C59.849 10.021 59.3174 9.67716 58.7774 9.79306Z" fill="#EC6689"/>
<path d="M48.7568 7.10474C48.2037 7.22351 47.6982 7.5037 47.3042 7.90988C46.9102 8.31606 46.6455 8.82999 46.5435 9.38668C46.4415 9.94337 46.5067 10.5178 46.7311 11.0374C46.9554 11.557 47.3287 11.9983 47.8038 12.3056C48.2789 12.613 48.8344 12.7725 49.4001 12.764C49.9658 12.7555 50.5162 12.5794 50.9819 12.2579C51.4475 11.9365 51.8074 11.4841 52.0161 10.9581C52.2247 10.432 52.2727 9.85583 52.1541 9.30245C52.0753 8.93499 51.9249 8.58665 51.7115 8.27733C51.4981 7.96801 51.226 7.70376 50.9105 7.49968C50.595 7.2956 50.2425 7.15568 49.8729 7.08792C49.5034 7.02015 49.1242 7.02587 48.7568 7.10474ZM49.7032 11.5207C49.3839 11.5892 49.0515 11.5615 48.7479 11.441C48.4444 11.3205 48.1834 11.1127 47.998 10.8438C47.8125 10.575 47.7109 10.2571 47.706 9.93048C47.7011 9.60384 47.7932 9.2831 47.9705 9.0088C48.1479 8.7345 48.4026 8.51898 48.7024 8.38949C49.0022 8.26 49.3336 8.22235 49.6548 8.28131C49.976 8.34027 50.2725 8.49319 50.5068 8.72073C50.7411 8.94827 50.9027 9.24021 50.9711 9.55962C51.0629 9.98787 50.9809 10.4351 50.7431 10.8028C50.5053 11.1706 50.1313 11.4288 49.7032 11.5207Z" fill="#EC6689"/>
<path opacity="0.4" d="M88.1718 15.7727H51.4126C49.2035 15.7727 47.4126 17.5636 47.4126 19.7727V73.6387C47.4126 75.8478 49.2035 77.6387 51.4126 77.6387H88.1718C90.3809 77.6387 92.1718 75.8478 92.1718 73.6387V19.7727C92.1718 17.5636 90.3809 15.7727 88.1718 15.7727Z" fill="#E0E0E0"/>
<g opacity="0.5">
<path opacity="0.5" d="M84.4159 16.8188H55.1694C51.3034 16.8188 48.1694 19.9529 48.1694 23.8188V69.5937C48.1694 73.4597 51.3034 76.5937 55.1694 76.5937H84.4159C88.2819 76.5937 91.4159 73.4597 91.4159 69.5937V23.8188C91.4159 19.9529 88.2819 16.8188 84.4159 16.8188Z" fill="url(#paint3_linear)"/>
</g>
<path d="M86.8652 17.2595H52.7197C50.5106 17.2595 48.7197 19.0504 48.7197 21.2595V71.7137C48.7197 73.9228 50.5106 75.7137 52.7197 75.7137H86.8652C89.0743 75.7137 90.8652 73.9228 90.8652 71.7137V21.2595C90.8652 19.0504 89.0743 17.2595 86.8652 17.2595Z" fill="white"/>
<path d="M79.3014 14.7246H60.3936C59.8413 14.7246 59.3936 15.1723 59.3936 15.7246V18.7911C59.3936 19.3434 59.8413 19.7911 60.3936 19.7911H79.3014C79.8537 19.7911 80.3014 19.3434 80.3014 18.7911V15.7246C80.3014 15.1723 79.8537 14.7246 79.3014 14.7246Z" fill="url(#paint4_linear)"/>
<path d="M69.8478 9.77905C68.2337 9.77905 66.9248 11.1192 66.9248 12.7729C66.9248 14.4265 68.2337 15.7667 69.8478 15.7667C71.462 15.7667 72.7709 14.4265 72.7709 12.7729C72.7709 11.1192 71.462 9.77905 69.8478 9.77905ZM69.8478 14.5003C69.5047 14.5085 69.1669 14.4141 68.8776 14.2293C68.5883 14.0445 68.3606 13.7777 68.2236 13.4628C68.0866 13.148 68.0465 12.7994 68.1084 12.4617C68.1704 12.1239 68.3315 11.8123 68.5713 11.5666C68.8111 11.3209 69.1186 11.1523 69.4546 11.0822C69.7907 11.0122 70.1399 11.0439 70.4579 11.1734C70.7758 11.3028 71.0479 11.5241 71.2396 11.809C71.4312 12.0939 71.5336 12.4295 71.5337 12.7729C71.5369 13.2242 71.3614 13.6584 71.0455 13.9806C70.7296 14.3028 70.299 14.4867 69.8478 14.4921V14.5003Z" fill="url(#paint5_linear)"/>
<path d="M79.0817 14.5073H60.6143C60.062 14.5073 59.6143 14.955 59.6143 15.5073V18.3505C59.6143 18.9028 60.062 19.3505 60.6143 19.3505H79.0817C79.634 19.3505 80.0817 18.9028 80.0817 18.3505V15.5073C80.0817 14.955 79.634 14.5073 79.0817 14.5073Z" fill="#3166ED"/>
<path d="M69.8479 9.77905C69.2821 9.77905 68.729 9.94689 68.2586 10.2613C67.7882 10.5758 67.4216 11.0227 67.2051 11.5456C66.9885 12.0685 66.9319 12.6439 67.0423 13.199C67.1526 13.7541 67.4251 14.264 67.8251 14.6642C68.2252 15.0644 68.7349 15.3369 69.2898 15.4474C69.8447 15.5578 70.4199 15.5011 70.9426 15.2845C71.4653 15.0679 71.912 14.7011 72.2263 14.2305C72.5407 13.7599 72.7084 13.2067 72.7084 12.6407C72.7084 11.8817 72.4071 11.1539 71.8706 10.6172C71.3341 10.0805 70.6065 9.77905 69.8479 9.77905ZM69.8479 14.2923C69.5216 14.2919 69.2028 14.1948 68.9316 14.0133C68.6605 13.8317 68.4492 13.5739 68.3244 13.2723C68.1996 12.9707 68.167 12.6389 68.2306 12.3187C68.2942 11.9986 68.4512 11.7045 68.6818 11.4736C68.9123 11.2426 69.2061 11.0852 69.5261 11.0212C69.846 10.9571 70.1777 10.9894 70.4794 11.1138C70.781 11.2383 71.039 11.4493 71.2208 11.7203C71.4026 11.9914 71.5001 12.3102 71.5009 12.6366C71.5008 12.8536 71.4579 13.0684 71.3748 13.2688C71.2916 13.4692 71.1698 13.6512 71.0163 13.8045C70.8628 13.9578 70.6806 14.0793 70.4801 14.1622C70.2796 14.245 70.0648 14.2875 69.8479 14.2872V14.2923Z" fill="#3166ED"/>
<defs>
<linearGradient id="paint0_linear" x1="62.7155" y1="72.447" x2="50.1711" y2="14.0043" gradientUnits="userSpaceOnUse">
<stop stop-color="#808080" stop-opacity="0.25"/>
<stop offset="0.54" stop-color="#808080" stop-opacity="0.12"/>
<stop offset="1" stop-color="#808080" stop-opacity="0.1"/>
</linearGradient>
<linearGradient id="paint1_linear" x1="11267.3" y1="-1461.24" x2="11214.7" y2="-1706.19" gradientUnits="userSpaceOnUse">
<stop stop-color="#808080" stop-opacity="0.25"/>
<stop offset="0.54" stop-color="#808080" stop-opacity="0.12"/>
<stop offset="1" stop-color="#808080" stop-opacity="0.1"/>
</linearGradient>
<linearGradient id="paint2_linear" x1="3304.94" y1="170.9" x2="3231.59" y2="-170.836" gradientUnits="userSpaceOnUse">
<stop stop-color="#808080" stop-opacity="0.25"/>
<stop offset="0.54" stop-color="#808080" stop-opacity="0.12"/>
<stop offset="1" stop-color="#808080" stop-opacity="0.1"/>
</linearGradient>
<linearGradient id="paint3_linear" x1="20650.8" y1="42488.7" x2="20650.8" y2="7615.4" gradientUnits="userSpaceOnUse">
<stop stop-color="#808080" stop-opacity="0.25"/>
<stop offset="0.54" stop-color="#808080" stop-opacity="0.12"/>
<stop offset="1" stop-color="#808080" stop-opacity="0.1"/>
</linearGradient>
<linearGradient id="paint4_linear" x1="10031.2" y1="805.763" x2="10031.2" y2="555.222" gradientUnits="userSpaceOnUse">
<stop stop-color="#808080" stop-opacity="0.25"/>
<stop offset="0.54" stop-color="#808080" stop-opacity="0.12"/>
<stop offset="1" stop-color="#808080" stop-opacity="0.1"/>
</linearGradient>
<linearGradient id="paint5_linear" x1="3965.44" y1="1065.94" x2="3965.44" y2="716.02" gradientUnits="userSpaceOnUse">
<stop stop-color="#808080" stop-opacity="0.25"/>
<stop offset="0.54" stop-color="#808080" stop-opacity="0.12"/>
<stop offset="1" stop-color="#808080" stop-opacity="0.1"/>
</linearGradient>
</defs>
</svg>
