<svg width="223" height="156" viewBox="0 0 223 156" fill="none" xmlns="http://www.w3.org/2000/svg">
<g clip-path="url(#clip0)">
<path d="M179.083 145.093C177.635 150.587 172.563 154.02 172.563 154.02C172.563 154.02 169.838 148.546 171.286 143.052C172.733 137.558 177.805 134.124 177.805 134.124C177.805 134.124 180.53 139.599 179.083 145.093Z" fill="#1B367C"/>
<path d="M176.888 143.93C172.833 147.923 172.38 154.017 172.38 154.017C172.38 154.017 178.499 153.639 182.553 149.646C186.607 145.654 187.061 139.56 187.061 139.56C187.061 139.56 180.942 139.938 176.888 143.93Z" fill="#3166ED"/>
<path d="M29.9946 124.31H37.6295L56.4441 116.971C56.4441 116.971 69.8052 111.536 68.7145 121.864C67.6238 132.191 65.715 146.052 65.715 146.052C65.715 146.052 59.7162 143.335 56.4441 144.15C53.172 144.965 55.3534 127.571 55.3534 127.571C55.3534 127.571 28.6312 140.345 26.1772 138.714C23.7231 137.084 23.1777 125.669 23.1777 125.669L29.9946 124.31Z" fill="#1B367C"/>
<path opacity="0.1" d="M30.2319 124.653H37.8668L56.6814 117.315C56.6814 117.315 70.0424 111.88 68.9517 122.207C67.861 132.535 65.9523 146.396 65.9523 146.396C65.9523 146.396 59.9535 143.678 56.6814 144.494C53.4093 145.309 55.5907 127.915 55.5907 127.915C55.5907 127.915 28.8685 140.689 26.4145 139.058C23.9604 137.427 23.415 126.012 23.415 126.012L30.2319 124.653Z" fill="black"/>
<path d="M42.0233 100.478L51.2631 113.71L72.8044 131.648C72.8044 131.648 92.7097 136.268 89.9829 139.53C87.2562 142.791 70.623 136.268 70.623 136.268C70.623 136.268 45.8096 118.33 44.9916 116.971C44.1736 115.613 35.1753 102.839 35.1753 102.839L42.0233 100.478Z" fill="#A0616A"/>
<path opacity="0.1" d="M42.0233 100.478L51.2631 113.71L72.8044 131.648C72.8044 131.648 92.7097 136.268 89.9829 139.53C87.2562 142.791 70.623 136.268 70.623 136.268C70.623 136.268 45.8096 118.33 44.9916 116.971C44.1736 115.613 35.1753 102.839 35.1753 102.839L42.0233 100.478Z" fill="black"/>
<path d="M36.5383 89.793L42.5372 101.48C42.5372 101.48 41.1738 107.187 38.9924 107.731C36.811 108.274 27.54 100.664 27.54 100.664L36.5383 89.793Z" fill="#ABC0F9"/>
<path d="M109.722 118.259L111.494 125.544C111.514 125.626 111.511 125.711 111.485 125.79L103.447 150.828C103.415 150.927 103.35 151.012 103.263 151.069C103.175 151.126 103.071 151.152 102.967 151.142C102.863 151.132 102.766 151.086 102.691 151.013C102.617 150.94 102.57 150.844 102.558 150.74L101.446 140.987C101.439 140.922 101.446 140.856 101.466 140.794L108.844 118.225C108.875 118.131 108.936 118.049 109.017 117.993C109.099 117.936 109.196 117.907 109.296 117.911C109.395 117.915 109.49 117.951 109.567 118.014C109.644 118.076 109.698 118.162 109.722 118.259Z" fill="#1B367C"/>
<path d="M109.07 118.874L110.705 125.125L103.616 147.955L101.98 140.888L109.07 118.874Z" fill="#F2F2F2"/>
<path d="M73.3493 152.847C73.622 153.662 101.707 152.575 101.98 152.303C102.218 151.963 102.419 151.599 102.58 151.216C102.836 150.673 103.071 150.129 103.071 150.129L101.98 141.329L74.1673 140.345C74.1673 140.345 73.472 147.803 73.3302 151.216C73.2948 152.078 73.2948 152.684 73.3493 152.847Z" fill="#1B367C"/>
<path opacity="0.2" d="M98.4355 142.519L98.9807 150.129H86.7104V142.519H98.4355Z" fill="black"/>
<path opacity="0.1" d="M82.6203 144.965L82.6935 144.951L82.3476 148.227H75.5308V144.965H82.6203Z" fill="black"/>
<path opacity="0.1" d="M73.3493 152.847C73.622 153.662 101.707 152.575 101.98 152.303C102.218 151.963 102.419 151.599 102.58 151.216H73.3302C73.2948 152.078 73.2948 152.684 73.3493 152.847Z" fill="black"/>
<path d="M40.6288 85.988C47.4055 85.988 52.8991 80.5123 52.8991 73.7577C52.8991 67.0031 47.4055 61.5274 40.6288 61.5274C33.852 61.5274 28.3584 67.0031 28.3584 73.7577C28.3584 80.5123 33.852 85.988 40.6288 85.988Z" fill="#A0616A"/>
<path d="M39.8105 84.6291C39.8105 84.6291 35.7204 91.6955 34.9024 95.5005C34.0844 99.3055 22.632 87.8905 22.632 87.8905L21.1323 83.9496C21.1323 83.9496 31.903 78.9216 31.085 74.8449C30.2669 70.7681 39.8105 84.6291 39.8105 84.6291Z" fill="#A0616A"/>
<path d="M41.9922 105.828L53.1719 120.505L79.894 140.345C79.894 140.345 99.2539 144.422 94.8911 147.411C90.5283 150.401 77.9853 144.693 77.9853 144.693C77.9853 144.693 50.9905 130.289 45.2643 124.31C39.5381 118.33 28.9038 108.274 28.9038 108.274L41.9922 105.828Z" fill="#A0616A"/>
<path d="M26.9951 128.658L30.2672 133.822L49.7954 127.698C54.0802 126.355 58.7787 126.849 62.5792 129.236C65.9876 131.376 68.169 134.773 63.2608 139.801C53.4445 149.857 46.9004 144.422 46.9004 144.422C46.9004 144.422 13.9067 159.913 8.45321 152.303C2.99972 144.693 2.72705 140.888 2.72705 140.888C2.72705 140.888 23.723 127.843 26.9951 128.658Z" fill="#1B367C"/>
<path d="M67.8955 146.596C67.8955 146.596 76.6211 152.303 66.2594 155.021C55.8978 157.739 48.2629 153.934 48.2629 153.934C48.2629 153.934 39.2646 153.934 39.2646 149.314C39.2646 144.693 42.2641 144.15 42.2641 144.15L51.535 145.509C51.535 145.509 62.7147 142.519 67.8955 146.596Z" fill="#91A9EA"/>
<path d="M50.6942 70.6811C51.5294 71.0522 52.3576 71.4914 53.2655 71.5991C54.1735 71.7069 55.2075 71.3909 55.6371 70.5864C55.8692 70.1518 55.8957 69.6407 55.9065 69.1485C55.9394 67.6561 55.8311 66.0427 54.8822 64.8877C54.2784 64.1527 53.3969 63.6893 52.7718 62.9721C52.3239 62.4583 52.0259 61.8354 51.7049 61.2346C50.4893 58.9589 48.6894 56.7718 46.1879 56.1157C45.1433 55.8417 44.0476 55.8551 42.9676 55.8703L36.6681 55.9589C35.6487 55.9732 34.6136 55.9899 33.6377 56.284C31.6101 56.895 30.1338 58.5946 28.7817 60.2198C27.7701 61.4358 26.7559 62.6643 25.9967 64.0509C24.9083 66.0743 24.3579 68.3419 24.398 70.6374C24.3896 71.2262 24.4659 71.8131 24.6245 72.3802C24.8101 72.9004 25.04 73.4038 25.3118 73.8849C26.4931 76.1977 27.1946 79.0865 25.8641 81.3174C28.1752 80.3765 30.4619 79.1427 31.9864 77.1723C32.6684 76.2908 33.2032 75.2589 34.1121 74.612C35.021 73.9651 36.502 73.909 37.0851 74.8584C37.2856 75.2424 37.3888 75.6695 37.3858 76.1024C37.4284 76.815 37.4272 77.555 37.7304 78.2018C38.0335 78.8486 38.7555 79.3704 39.4449 79.1769C40.6321 78.8436 40.5184 77.0274 41.4328 76.2024C42.1273 75.5759 43.1986 75.6957 44.0908 75.4112C45.1302 75.0799 45.9102 74.1823 46.3546 73.1888C46.6924 72.4336 46.6875 70.4574 47.3267 70.0485C48.1283 69.5356 49.9512 70.351 50.6942 70.6811Z" fill="#0B2056"/>
<path d="M20.1582 82.6604C20.7103 82.5136 21.2914 82.5151 21.8427 82.6647C23.593 83.1331 27.5169 84.373 28.3582 86.2598C29.4489 88.7058 33.2663 92.5108 33.2663 92.5108C33.2663 92.5108 38.4471 97.6747 37.3564 101.208C36.2657 104.741 32.1756 108.818 32.1756 108.818C32.1756 108.818 33.2663 125.669 27.8128 130.017C22.3593 134.366 20.1779 131.376 20.1779 135.453C20.1779 139.53 3.2721 152.303 0 144.422C0 144.422 1.63605 129.745 1.0907 124.581C0.553215 119.492 1.34006 87.7383 20.1582 82.6604Z" fill="#C1D2FF"/>
<path d="M28.9038 89.5212C28.9038 89.5212 45.537 101.752 42.5375 106.915C42.5375 106.915 32.4486 111.808 30.2672 111.536C28.0858 111.264 19.6329 101.752 17.4515 100.936C15.2701 100.121 14.1794 85.4444 28.9038 89.5212Z" fill="#C6D6FF"/>
<path opacity="0.15" d="M103.217 62.4757C110.657 62.4757 116.688 56.4645 116.688 49.0493C116.688 41.6341 110.657 35.6229 103.217 35.6229C95.778 35.6229 89.7471 41.6341 89.7471 49.0493C89.7471 56.4645 95.778 62.4757 103.217 62.4757Z" fill="#3166ED"/>
<path d="M214.476 31.6121H138.99V15.8682H214.476V31.6121ZM139.322 31.2806H214.143V16.1996H139.322V31.2806Z" fill="#1B367C"/>
<path d="M208.989 19.017H133.835V34.4294H208.989V19.017Z" fill="#3166ED"/>
<path d="M86.3275 4.30886C86.9703 4.30886 87.4914 3.78947 87.4914 3.14877C87.4914 2.50807 86.9703 1.98868 86.3275 1.98868C85.6847 1.98868 85.1636 2.50807 85.1636 3.14877C85.1636 3.78947 85.6847 4.30886 86.3275 4.30886Z" fill="#3166ED"/>
<path d="M90.3177 4.30886C90.9605 4.30886 91.4816 3.78947 91.4816 3.14877C91.4816 2.50807 90.9605 1.98868 90.3177 1.98868C89.6749 1.98868 89.1538 2.50807 89.1538 3.14877C89.1538 3.78947 89.6749 4.30886 90.3177 4.30886Z" fill="#3166ED"/>
<path d="M94.3084 4.30886C94.9512 4.30886 95.4723 3.78947 95.4723 3.14877C95.4723 2.50807 94.9512 1.98868 94.3084 1.98868C93.6656 1.98868 93.1445 2.50807 93.1445 3.14877C93.1445 3.78947 93.6656 4.30886 94.3084 4.30886Z" fill="#3166ED"/>
<path d="M223 90.8175H83.0024V0H223V90.8175ZM83.335 90.486H222.668V0.331451H83.335V90.486Z" fill="#1B367C"/>
<path d="M222.834 5.02725H83.1685V5.3587H222.834V5.02725Z" fill="#1B367C"/>
<path d="M86.6602 3.97741C86.3971 3.97741 86.14 3.89965 85.9212 3.75397C85.7025 3.60829 85.532 3.40123 85.4313 3.15897C85.3307 2.91671 85.3043 2.65014 85.3556 2.39296C85.407 2.13578 85.5336 1.89954 85.7197 1.71412C85.9057 1.52871 86.1427 1.40244 86.4007 1.35128C86.6587 1.30012 86.9262 1.32638 87.1692 1.42673C87.4123 1.52707 87.62 1.69701 87.7662 1.91503C87.9123 2.13306 87.9903 2.38939 87.9903 2.65161C87.9899 3.00311 87.8497 3.3401 87.6003 3.58864C87.3509 3.83719 87.0129 3.977 86.6602 3.97741ZM86.6602 1.65726C86.4629 1.65726 86.27 1.71557 86.106 1.82484C85.9419 1.9341 85.8141 2.08939 85.7386 2.27109C85.663 2.45278 85.6433 2.65271 85.6818 2.8456C85.7203 3.03848 85.8153 3.21566 85.9548 3.35472C86.0943 3.49378 86.2721 3.58849 86.4656 3.62685C86.6591 3.66522 86.8597 3.64553 87.042 3.57027C87.2243 3.49501 87.3801 3.36756 87.4897 3.20404C87.5993 3.04052 87.6578 2.84827 87.6578 2.65161C87.6575 2.38798 87.5523 2.13524 87.3653 1.94883C87.1783 1.76242 86.9247 1.65756 86.6602 1.65726Z" fill="#1B367C"/>
<path d="M90.6505 3.97741C90.3874 3.97741 90.1302 3.89965 89.9115 3.75397C89.6927 3.60829 89.5222 3.40123 89.4216 3.15897C89.3209 2.91671 89.2945 2.65014 89.3459 2.39296C89.3972 2.13578 89.5239 1.89954 89.7099 1.71412C89.8959 1.52871 90.1329 1.40244 90.391 1.35128C90.649 1.30012 90.9164 1.32638 91.1595 1.42673C91.4025 1.52707 91.6103 1.69701 91.7564 1.91503C91.9026 2.13306 91.9806 2.38939 91.9806 2.65161C91.9802 3.00311 91.8399 3.3401 91.5906 3.58864C91.3412 3.83719 91.0031 3.977 90.6505 3.97741ZM90.6505 1.65726C90.4532 1.65726 90.2603 1.71557 90.0962 1.82484C89.9322 1.9341 89.8043 2.08939 89.7288 2.27109C89.6533 2.45278 89.6335 2.65271 89.672 2.8456C89.7105 3.03848 89.8055 3.21566 89.945 3.35472C90.0846 3.49378 90.2623 3.58849 90.4558 3.62685C90.6494 3.66522 90.8499 3.64553 91.0322 3.57027C91.2145 3.49501 91.3703 3.36756 91.48 3.20404C91.5896 3.04052 91.6481 2.84827 91.6481 2.65161C91.6478 2.38798 91.5426 2.13524 91.3555 1.94883C91.1685 1.76242 90.915 1.65756 90.6505 1.65726Z" fill="#1B367C"/>
<path d="M94.6412 3.97741C94.3781 3.97741 94.1209 3.89965 93.9022 3.75397C93.6835 3.60829 93.513 3.40123 93.4123 3.15897C93.3116 2.91671 93.2853 2.65014 93.3366 2.39296C93.3879 2.13578 93.5146 1.89954 93.7006 1.71412C93.8866 1.52871 94.1237 1.40244 94.3817 1.35128C94.6397 1.30012 94.9072 1.32638 95.1502 1.42673C95.3933 1.52707 95.601 1.697 95.7472 1.91503C95.8933 2.13306 95.9713 2.38939 95.9713 2.65161C95.9709 3.00311 95.8307 3.34009 95.5813 3.58864C95.3319 3.83719 94.9938 3.977 94.6412 3.97741ZM94.6412 1.65726C94.4439 1.65726 94.251 1.71557 94.0869 1.82483C93.9229 1.93409 93.795 2.08939 93.7195 2.27108C93.644 2.45278 93.6242 2.65271 93.6627 2.84559C93.7012 3.03848 93.7962 3.21566 93.9358 3.35472C94.0753 3.49378 94.253 3.58849 94.4466 3.62685C94.6401 3.66522 94.8407 3.64553 95.0229 3.57027C95.2052 3.49501 95.361 3.36756 95.4707 3.20404C95.5803 3.04052 95.6388 2.84827 95.6388 2.65161C95.6385 2.38798 95.5333 2.13525 95.3463 1.94883C95.1592 1.76242 94.9057 1.65756 94.6412 1.65726Z" fill="#1B367C"/>
<path d="M127.184 5.19299H126.852V90.7803H127.184V5.19299Z" fill="#1B367C"/>
<path opacity="0.15" d="M167.172 47.2731H142.731V50.5876H167.172V47.2731Z" fill="#3166ED"/>
<path opacity="0.15" d="M205.58 47.2731H181.139V50.5876H205.58V47.2731Z" fill="#3166ED"/>
<path d="M168.668 49.0961H143.895V45.4501H168.668V49.0961ZM144.227 48.7646H168.336V45.7816H144.227V48.7646Z" fill="#1B367C"/>
<path opacity="0.15" d="M167.172 72.9605H142.731V76.275H167.172V72.9605Z" fill="#3166ED"/>
<path d="M168.668 74.7835H143.895V71.1376H168.668V74.7835ZM144.227 74.4521H168.336V71.469H144.227V74.4521Z" fill="#1B367C"/>
<path opacity="0.15" d="M205.663 59.7854H142.814V63.0999H205.663V59.7854Z" fill="#3166ED"/>
<path d="M207.16 61.9398H143.978V58.2939H207.16V61.9398ZM144.311 61.6084H206.827V58.6253H144.311V61.6084Z" fill="#1B367C"/>
<path d="M207.077 49.0961H182.303V45.4501H207.077V49.0961ZM182.635 48.7646H206.744V45.7816H182.635V48.7646Z" fill="#1B367C"/>
<path d="M105.497 58.9642C102.792 58.9642 100.147 58.1647 97.8981 56.6667C95.6488 55.1687 93.8957 53.0395 92.8605 50.5484C91.8253 48.0573 91.5544 45.3161 92.0822 42.6716C92.6099 40.0271 93.9126 37.5979 95.8254 35.6913C97.7383 33.7847 100.175 32.4863 102.829 31.9602C105.482 31.4342 108.232 31.7042 110.731 32.736C113.23 33.7679 115.367 35.5152 116.869 37.7572C118.372 39.9991 119.175 42.6349 119.175 45.3313C119.17 48.9457 117.728 52.4109 115.164 54.9667C112.6 57.5225 109.123 58.9601 105.497 58.9642ZM105.497 32.1114C102.874 32.1114 100.309 32.8867 98.1284 34.3393C95.9472 35.792 94.2473 37.8566 93.2434 40.2722C92.2396 42.6878 91.9769 45.3459 92.4887 47.9103C93.0004 50.4747 94.2636 52.8303 96.1185 54.6791C97.9734 56.5279 100.337 57.787 102.909 58.2971C105.482 58.8072 108.149 58.5454 110.573 57.5448C112.996 56.5442 115.067 54.8498 116.525 52.6758C117.982 50.5018 118.76 47.9459 118.76 45.3313C118.756 41.8264 117.357 38.4661 114.871 35.9878C112.385 33.5095 109.013 32.1154 105.497 32.1114Z" fill="#1B367C"/>
<path d="M213.674 153.775H155.026V154.188H213.674V153.775Z" fill="#1B367C"/>
</g>
<defs>
<clipPath id="clip0">
<rect width="223" height="156" fill="white"/>
</clipPath>
</defs>
</svg>
