<svg width="273" height="219" viewBox="0 0 273 219" fill="none" xmlns="http://www.w3.org/2000/svg">
<path d="M11 131H147V211C147 215.418 143.418 219 139 219H19C14.5817 219 11 215.418 11 211V131Z" fill="#E19842"/>
<path d="M11 131H51V219H19C14.5817 219 11 215.418 11 211V131Z" fill="#D98D34"/>
<path d="M1.15589 110.608C-0.767416 106.624 2.13525 102 6.55921 102H29.0963C32.7385 102 36.0926 103.98 37.8521 107.169L51.0001 131H11.0001L1.15589 110.608Z" fill="#CF842B"/>
<path d="M13 109L23 112L29 108L40 131H23L13 109Z" fill="#DE9D1F"/>
<path d="M156.21 110.454C157.99 106.485 155.086 102 150.735 102H72.0864C68.348 102 64.9217 104.085 63.2042 107.406L51.0003 131H147L156.21 110.454Z" fill="#CF842B"/>
<path d="M89.331 168C88.1112 169.525 86.2837 167 84.331 167C82.3784 167 80.5508 169.525 79.331 168C77.7689 166.047 82.1219 163 84.331 163C86.5402 163 90.8931 166.047 89.331 168Z" fill="#4A0D0D"/>
<path d="M93.3308 188.49C94.5506 186.965 98.3782 189.49 100.331 189.49C102.283 189.49 106.111 186.965 107.331 188.49C108.893 190.442 102.54 193.49 100.331 193.49C98.1217 193.49 91.7687 190.442 93.3308 188.49Z" fill="#4A0D0D"/>
<path d="M119.662 168C118.442 169.525 116.615 167 114.662 167C112.709 167 110.882 169.525 109.662 168C108.1 166.047 112.453 163 114.662 163C116.871 163 121.224 166.047 119.662 168Z" fill="#4A0D0D"/>
<path d="M91 175.5C91 176.881 88.0899 180 84.5 180C80.9101 180 78 176.881 78 175.5C78 174.119 80.9101 173 84.5 173C88.0899 173 91 174.119 91 175.5Z" fill="#BE1F58" fill-opacity="0.12"/>
<path d="M121 175.5C121 176.881 118.09 180 114.5 180C110.91 180 108 176.881 108 175.5C108 174.119 110.91 173 114.5 173C118.09 173 121 174.119 121 175.5Z" fill="#BE1F58" fill-opacity="0.12"/>
<path d="M23 131H40V164H23V131Z" fill="#DE9D1F"/>
<path d="M216.463 5.77393L269.189 0.396325L272.538 33.226L219.811 38.6036L216.463 5.77393Z" fill="#DAE4FF"/>
<path d="M244.551 19.9975L219.811 38.6037L272.537 33.2261L244.551 19.9975Z" fill="#AFC1F1"/>
<path d="M245.464 28.951L269.189 0.396396L216.463 5.77399L245.464 28.951Z" fill="#C2D1F9"/>
<path fill-rule="evenodd" clip-rule="evenodd" d="M124.743 52.6336C143.691 41.2774 170.383 32.2619 204.924 27.0056L205.075 27.9942C170.616 33.238 144.059 42.2225 125.257 53.4913C106.453 64.761 95.4441 78.2899 91.9858 92.6172L91.0137 92.3826C94.5554 77.7099 105.796 63.9888 124.743 52.6336Z" fill="url(#paint0_linear)" fill-opacity="0.4"/>
<path fill-rule="evenodd" clip-rule="evenodd" d="M124.243 42.1336C143.191 30.7774 169.883 21.7619 204.424 16.5056L204.575 17.4942C170.116 22.738 143.559 31.7225 124.757 42.9913C105.953 54.261 94.9441 67.7899 91.4858 82.1172L90.5137 81.8826C94.0554 67.2099 105.296 53.4888 124.243 42.1336Z" fill="url(#paint1_linear)" fill-opacity="0.4"/>
<path fill-rule="evenodd" clip-rule="evenodd" d="M125.243 63.1336C144.191 51.7774 170.883 42.7619 205.424 37.5056L205.575 38.4942C171.116 43.738 144.559 52.7225 125.757 63.9913C106.953 75.261 95.9441 88.7899 92.4858 103.117L91.5137 102.883C95.0554 88.2099 106.296 74.4888 125.243 63.1336Z" fill="url(#paint2_linear)" fill-opacity="0.4"/>
<defs>
<linearGradient id="paint0_linear" x1="207.5" y1="24.5" x2="85" y2="98.5" gradientUnits="userSpaceOnUse">
<stop stop-color="#1b367c;"/>
<stop offset="1" stop-color="#1b367c;" stop-opacity="0"/>
</linearGradient>
<linearGradient id="paint1_linear" x1="207" y1="14" x2="84.5" y2="88" gradientUnits="userSpaceOnUse">
<stop stop-color="#1b367c;"/>
<stop offset="1" stop-color="#1b367c;" stop-opacity="0"/>
</linearGradient>
<linearGradient id="paint2_linear" x1="208" y1="35" x2="85.5" y2="109" gradientUnits="userSpaceOnUse">
<stop stop-color="#1b367c;"/>
<stop offset="1" stop-color="#1b367c;" stop-opacity="0"/>
</linearGradient>
</defs>
</svg>
