<svg width="328" height="251" viewBox="0 0 328 251" fill="none" xmlns="http://www.w3.org/2000/svg">
<g clip-path="url(#clip0)">
<path opacity="0.1" d="M139.893 122.911C125.774 122.408 112.327 117.842 99.4945 112.856C86.6623 107.87 73.9349 102.323 60.1537 99.6755C51.2899 97.9727 41.152 97.7323 34.0116 102.493C27.1374 107.083 24.9165 114.985 23.7232 122.325C22.8244 127.847 22.2964 133.657 24.7573 138.826C26.4676 142.415 29.5001 145.432 31.5988 148.87C38.9006 160.831 33.7389 175.581 25.8284 187.26C22.1197 192.74 17.811 197.971 14.9466 203.799C12.0822 209.626 10.7579 216.313 13.2646 222.262C15.7472 228.164 21.6659 232.588 28.0777 235.703C41.0996 242.029 56.4385 243.841 71.4064 244.866C104.53 247.137 137.827 246.154 171.038 245.17C183.329 244.805 195.673 244.436 207.763 242.532C214.478 241.474 221.409 239.795 226.285 235.745C232.472 230.602 234.005 221.891 229.858 215.443C222.903 204.625 203.679 201.938 198.812 190.327C196.137 183.938 198.884 176.819 202.774 170.893C211.116 158.18 225.098 147.025 225.833 132.492C226.339 122.511 219.618 112.515 209.225 107.792C198.332 102.841 183.224 103.464 175.192 111.658C166.906 120.087 152.361 123.333 139.893 122.911Z" fill="#3166ED"/>
<path d="M114.742 210.783C114.877 212.531 115.549 214.341 116.962 215.373C118.376 216.405 120.625 216.385 121.705 214.999C122.068 214.479 122.335 213.898 122.493 213.283C123.403 210.402 124.048 207.25 123.051 204.398C120.802 204.251 118.195 203.191 116.506 205.053C115.143 206.57 114.584 208.761 114.742 210.783Z" fill="#1B367C"/>
<path d="M125.182 193.158C124.884 195.7 124.375 198.231 124.428 200.791C124.447 201.779 124.552 202.758 124.554 203.751C124.558 206.327 123.881 208.859 122.591 211.089C122.455 211.351 122.273 211.586 122.054 211.784C121.537 212.203 120.758 212.168 120.178 211.847C119.611 211.494 119.15 210.993 118.845 210.398C117.22 207.609 117.174 204.218 116.53 201.056C116.037 198.636 115.173 196.29 114.861 193.842C114.658 192.266 114.689 190.66 114.366 189.103C114.268 188.633 113.993 187.927 113.812 187.234C113.646 186.616 113.555 186.008 113.725 185.591C114.072 184.736 115.208 185.068 115.948 185.121C118.552 185.314 121.168 185.308 123.771 185.101C124.028 185.081 124.321 185.07 124.502 185.254C124.581 185.347 124.64 185.455 124.676 185.571C124.884 186.139 125.042 186.724 125.15 187.32C125.51 189.224 125.409 191.219 125.182 193.158Z" fill="#FABDBD"/>
<g opacity="0.1">
<path opacity="0.1" d="M124.179 185.101C124.045 185.087 123.909 185.087 123.775 185.101C122.527 185.202 121.277 185.252 120.029 185.258C121.412 185.261 122.796 185.209 124.179 185.101Z" fill="black"/>
<path opacity="0.1" d="M120.618 211.847C120.051 211.494 119.59 210.993 119.285 210.398C117.66 207.609 117.614 204.218 116.97 201.055C116.477 198.636 115.613 196.29 115.302 193.842C115.099 192.266 115.129 190.66 114.806 189.103C114.708 188.633 114.433 187.927 114.252 187.234C114.086 186.616 113.995 186.008 114.165 185.591C114.237 185.419 114.359 185.274 114.514 185.173C114.67 185.071 114.852 185.019 115.038 185.022C114.486 184.985 113.947 185.051 113.729 185.591C113.558 186.008 113.65 186.616 113.816 187.234C113.997 187.927 114.272 188.633 114.37 189.103C114.693 190.66 114.662 192.266 114.865 193.842C115.177 196.292 116.041 198.638 116.534 201.055C117.178 204.218 117.224 207.613 118.849 210.398C119.154 210.993 119.615 211.494 120.182 211.847C120.53 212.04 120.929 212.121 121.325 212.079C121.077 212.046 120.837 211.968 120.618 211.847Z" fill="black"/>
</g>
<path d="M133.431 206.564C132.122 209.187 132.34 212.903 132.34 212.903C132.558 221.646 129.068 240.008 129.068 240.008H126.014C126.014 240.008 125.577 219.679 126.014 217.93C126.45 216.182 125.795 210.061 125.141 201.537C124.655 195.198 125.979 189.453 126.69 186.933C126.934 186.059 127.104 185.58 127.104 185.58C127.104 185.58 132.122 178.148 134.958 181.645C135.613 182.458 135.96 184.1 136.08 186.172C136.468 193.01 134.435 204.551 133.431 206.564Z" fill="#FABDBD"/>
<path opacity="0.1" d="M136.079 186.172C135.959 184.1 135.617 182.456 134.958 181.645C134.325 180.867 133.583 180.631 132.816 180.734C133.411 180.833 133.944 181.159 134.303 181.645C134.958 182.458 135.305 184.1 135.425 186.172C135.813 193.009 133.78 204.551 132.776 206.564C131.467 209.187 131.685 212.903 131.685 212.903C131.904 221.646 128.413 240.007 128.413 240.007H129.068C129.068 240.007 132.558 221.646 132.34 212.903C132.34 212.903 132.122 209.187 133.431 206.564C134.434 204.551 136.468 193.009 136.079 186.172Z" fill="black"/>
<path d="M124.425 239.209C124.182 239.401 123.971 239.631 123.801 239.891C123.411 240.63 123.965 241.513 124.558 242.101C125.152 242.689 125.867 243.319 125.867 244.156C125.867 244.829 125.359 245.406 124.79 245.765C124.484 245.957 124.1 246.202 124.164 246.565C124.186 246.657 124.225 246.743 124.279 246.821C124.768 247.57 125.634 248.01 126.511 248.176C127.388 248.342 128.293 248.27 129.186 248.198C129.319 248.202 129.45 248.157 129.552 248.071C129.617 247.984 129.651 247.878 129.65 247.769C129.694 247.306 129.666 246.816 129.869 246.399C130.152 245.828 130.804 245.537 131.177 245.026C131.701 244.327 131.629 243.354 131.431 242.504C130.994 240.652 130.023 238.541 128.566 237.257C126.878 235.784 125.553 238.145 124.425 239.209Z" fill="#1B367C"/>
<path d="M131.036 129.032C132.253 127.209 131.937 124.66 130.693 122.846C129.45 121.031 127.451 119.89 125.39 119.154C122.61 118.161 119.545 117.823 116.69 118.568C114.416 119.16 112.374 120.4 110.232 121.357C106.442 123.051 102.321 123.873 98.1722 123.762C93.5669 123.633 88.5208 122.45 84.6572 124.973C77.5844 129.582 80.7303 142.129 74.0394 147.268C72.2352 148.654 69.9641 149.26 67.9571 150.328C65.95 151.397 64.0476 153.257 64.0956 155.535C64.1174 156.628 64.5974 157.671 65.1864 158.595C67.6953 162.58 72.3857 165.046 77.0827 165C81.7797 164.954 86.3632 162.451 89.0706 158.6C89.7491 157.636 90.3468 156.562 91.3307 155.92C93.2941 154.63 95.8815 155.533 98.2246 155.725C103.441 156.152 108.659 152.228 109.698 147.08C110.134 144.883 110.058 142.258 111.822 140.879C113.247 139.766 115.252 140.005 117.058 139.814C120.361 139.471 122.968 137.41 124.762 134.717C125.584 133.482 125.68 132.007 126.801 131.034C128.01 129.965 129.88 130.754 131.036 129.032Z" fill="#1B367C"/>
<g opacity="0.1">
<path opacity="0.1" d="M93.8081 124.183C95.7212 124.236 97.6345 124.089 99.5174 123.746C98.9982 123.761 98.4746 123.761 97.9532 123.746C94.3383 123.646 90.4528 122.898 87.0801 123.799C89.3053 123.82 91.6069 124.122 93.8081 124.183Z" fill="black"/>
<path opacity="0.1" d="M86.9627 156.355C85.9788 156.997 85.381 158.071 84.7026 159.035C82.6171 161.968 79.5693 164.073 76.0918 164.982C76.347 164.993 76.6023 165 76.8597 164.998C81.5611 164.952 86.1402 162.449 88.8476 158.597C89.5261 157.634 90.1238 156.56 91.1077 155.918L91.2779 155.813C89.7377 155.601 88.2258 155.526 86.9627 156.355Z" fill="black"/>
<path opacity="0.1" d="M130.473 122.839C129.232 121.034 127.231 119.884 125.17 119.147C122.39 118.155 119.325 117.816 116.469 118.561C116.404 118.577 116.341 118.596 116.277 118.614C117.899 118.704 119.498 119.031 121.025 119.584C123.086 120.321 125.087 121.471 126.328 123.276C127.569 125.082 127.888 127.648 126.671 129.462C125.514 131.191 123.645 130.402 122.421 131.467C121.3 132.439 121.204 133.915 120.381 135.15C118.839 137.46 116.692 139.303 114.02 140.002C114.938 139.893 115.907 139.906 116.823 139.81C120.126 139.467 122.733 137.406 124.526 134.713C125.349 133.478 125.445 132.002 126.566 131.029C127.79 129.965 129.659 130.754 130.816 129.025C132.035 127.202 131.719 124.645 130.473 122.839Z" fill="black"/>
<path opacity="0.1" d="M112.68 140.247C110.884 140.435 108.88 140.199 107.444 141.312C105.679 142.691 105.764 145.316 105.319 147.513C104.553 151.353 101.442 154.521 97.749 155.699L98.0086 155.723C103.225 156.149 108.443 152.226 109.482 147.078C109.918 144.881 109.842 142.256 111.607 140.877C112.012 140.573 112.472 140.35 112.961 140.221C112.863 140.223 112.774 140.238 112.68 140.247Z" fill="black"/>
</g>
<path d="M165.392 121.206C165.392 121.206 160.156 131.698 158.411 135.633C156.665 139.568 140.74 145.469 138.558 145.688C137.973 145.768 137.428 146.031 137 146.44C135.768 147.533 135.067 149.404 135.067 149.404C135.067 149.404 135.94 155.306 134.849 165.142C134.827 165.332 134.808 165.522 134.79 165.706C133.839 175.066 135.831 177.273 135.831 177.273C135.831 177.273 114.669 185.361 115.324 174.869C115.529 171.566 115.498 169.153 115.296 167.136C115.073 165.07 114.654 163.031 114.043 161.046C113.526 159.234 112.909 157.247 112.27 154.541C111.962 153.19 111.557 151.864 111.057 150.573C111.041 150.534 111.026 150.495 111.013 150.457C109.922 147.745 108.831 146.868 108.208 146.584C107.618 146.327 107.057 146.011 106.532 145.64C104.516 144.182 100.19 140.914 96.3375 137.054C91.1016 131.808 85.8658 119.348 85.8658 119.348C85.8658 119.348 84.3387 112.135 87.8292 106.233C91.3198 100.331 89.7927 117.818 89.7927 117.818C89.7927 117.818 96.1193 126.343 97.6464 130.278C98.4318 132.302 99.6797 133.338 100.701 133.876C102.387 134.755 104.002 135.767 105.531 136.901C106.564 137.683 107.649 138.393 108.779 139.025C111.218 140.337 114.139 141.817 116.574 142.206C116.954 142.269 117.338 142.302 117.724 142.304C117.906 142.31 118.088 142.274 118.255 142.198C118.421 142.122 118.568 142.009 118.684 141.867C119.338 141.095 119.323 139.434 119.172 138.068C119.092 137.36 118.972 136.658 118.814 135.963C118.814 135.963 125.905 131.482 125.687 136.947C125.653 137.551 125.709 138.156 125.852 138.743C125.968 139.283 126.225 139.781 126.597 140.188C126.968 140.595 127.441 140.896 127.966 141.06C128.818 141.311 129.718 141.34 130.584 141.146C130.854 141.1 131.115 141.01 131.356 140.881C132.011 140.444 138.556 138.477 140.519 138.258C142.483 138.04 152.3 133.231 152.3 133.231L162.99 118.367C162.99 118.367 162.772 109.624 167.135 106.126C171.498 102.629 165.392 121.206 165.392 121.206Z" fill="#FABDBD"/>
<g opacity="0.1">
<path opacity="0.1" d="M134.79 164.394C134.599 166.151 134.516 167.917 134.539 169.684C134.561 168.53 134.637 167.212 134.79 165.706C134.807 165.522 134.827 165.332 134.849 165.142C135.23 161.776 135.413 158.39 135.394 155.002C135.361 157.952 135.179 160.899 134.849 163.83C134.836 164.021 134.807 164.211 134.79 164.394Z" fill="black"/>
<path opacity="0.1" d="M119.041 135.823C118.895 135.908 118.823 135.961 118.823 135.961C119.035 136.896 119.175 137.846 119.242 138.802C119.286 137.805 119.219 136.806 119.041 135.823Z" fill="black"/>
<path opacity="0.1" d="M89.8944 116.631C90.0013 115.101 90.1605 112.358 90.13 109.918C90.0929 113.18 89.8027 116.507 89.8027 116.507L89.8944 116.631Z" fill="black"/>
<path opacity="0.1" d="M115.339 174.613C115.339 174.699 115.339 174.784 115.323 174.869C114.669 185.361 135.831 177.273 135.831 177.273C135.583 176.939 135.396 176.563 135.279 176.163C132.091 177.3 116.074 182.585 115.339 174.613Z" fill="black"/>
<path opacity="0.1" d="M165.392 119.895C165.392 119.895 160.156 130.387 158.411 134.321C156.665 138.256 140.74 144.158 138.558 144.376C137.973 144.457 137.428 144.72 137 145.128C135.768 146.221 135.067 148.092 135.067 148.092C135.067 148.092 135.12 148.449 135.183 149.126C135.427 148.564 136.056 147.275 137 146.44C137.428 146.031 137.973 145.768 138.558 145.688C140.74 145.469 156.665 139.567 158.411 135.633C160.156 131.698 165.392 121.206 165.392 121.206C165.392 121.206 169.081 109.982 168.675 106.625C168.339 110.926 165.392 119.895 165.392 119.895Z" fill="black"/>
<path opacity="0.1" d="M115.295 165.824C115.073 163.759 114.654 161.719 114.043 159.734C113.526 157.922 112.908 155.935 112.269 153.229C111.962 151.879 111.556 150.553 111.056 149.262C111.041 149.222 111.026 149.183 111.013 149.146C109.922 146.433 108.831 145.557 108.207 145.273C107.618 145.016 107.057 144.699 106.532 144.328C104.516 142.87 100.19 139.602 96.3371 135.742C91.1012 130.496 85.8654 118.037 85.8654 118.037C85.6719 116.985 85.5639 115.919 85.5425 114.85C85.4892 116.357 85.5974 117.865 85.8654 119.348C85.8654 119.348 91.1012 131.808 96.3371 137.054C100.19 140.914 104.516 144.182 106.532 145.64C107.061 146.012 107.627 146.328 108.22 146.584C108.842 146.868 109.931 147.745 111.026 150.457C111.039 150.495 111.054 150.534 111.069 150.573C111.567 151.865 111.97 153.191 112.276 154.541C112.915 157.247 113.532 159.234 114.049 161.046C114.66 163.031 115.08 165.07 115.302 167.135C115.393 168.049 115.448 169.044 115.463 170.163C115.49 168.715 115.433 167.266 115.295 165.824Z" fill="black"/>
</g>
<path d="M136.902 156.329C136.568 156.88 136.277 157.456 136.029 158.051C135.699 158.969 135.697 159.968 135.636 160.941C135.549 162.306 135.342 163.66 135.017 164.989C134.964 165.234 134.891 165.473 134.798 165.706C134.733 165.862 134.647 166.009 134.543 166.143C134.427 166.286 134.29 166.41 134.137 166.512C133.903 166.669 133.656 166.804 133.398 166.917C130.361 168.338 127.049 169.592 123.736 169.103C122.335 168.857 120.979 168.4 119.715 167.747C118.515 167.164 117.158 166.471 115.915 166.956C115.724 167.053 115.518 167.118 115.306 167.146C115.265 167.147 115.224 167.143 115.184 167.135C114.774 167.057 114.774 165.671 114.68 165.262C114.322 163.693 114.267 162.421 114.054 161.057C113.94 160.302 113.764 159.559 113.528 158.834C112.655 156.189 112.391 153.369 112.391 150.597C112.391 150.46 111.41 150.597 111.082 150.584C110.999 150.584 110.954 150.571 110.973 150.543C110.992 150.515 111.014 150.491 111.039 150.468C111.153 150.375 111.286 150.309 111.429 150.274L111.687 150.197C113.035 149.815 114.523 149.655 115.531 148.704C116.578 147.723 116.84 146.156 116.794 144.722C116.781 144.26 116.556 143.141 116.593 142.212C116.973 142.275 117.358 142.308 117.743 142.311C117.926 142.317 118.107 142.28 118.274 142.204C118.44 142.129 118.587 142.015 118.703 141.874C119.067 142.58 119.382 143.31 119.645 144.059C120.016 144.973 120.3 145.935 120.843 146.761C121.715 148.108 123.325 148.993 124.927 148.857C126.528 148.722 128.018 147.489 128.304 145.906C128.555 144.518 127.972 142.521 127.985 141.078C128.837 141.328 129.738 141.357 130.603 141.163C130.64 141.252 130.671 141.343 130.697 141.436C131.188 143.124 131.842 145.061 133.49 145.659C134.554 146.044 135.813 145.756 136.797 146.315C136.872 146.359 136.945 146.407 137.015 146.459C137.242 146.629 137.438 146.837 137.593 147.074C137.997 147.742 138.237 148.497 138.293 149.277C138.545 151.714 138.06 154.171 136.902 156.329Z" fill="#3166ED"/>
<path opacity="0.1" d="M125.852 138.741C124.764 139.161 123.592 139.319 122.432 139.202C121.271 139.085 120.155 138.695 119.172 138.066C119.092 137.358 118.972 136.655 118.814 135.961C118.814 135.961 125.905 131.48 125.686 136.944C125.653 137.548 125.709 138.154 125.852 138.741Z" fill="black"/>
<path d="M123.175 138.803C127.272 138.803 130.593 135.475 130.593 131.371C130.593 127.266 127.272 123.939 123.175 123.939C119.079 123.939 115.758 127.266 115.758 131.371C115.758 135.475 119.079 138.803 123.175 138.803Z" fill="#FABDBD"/>
<path d="M110.197 149.841C110.197 149.841 124.596 140.66 169.319 150.497C214.041 160.333 240.002 152.464 240.002 152.464V162.737C240.002 162.737 189.826 168.202 170.628 162.737C151.43 157.273 124.101 154.121 114.53 162.582L110.197 149.841Z" fill="#F86D70"/>
<path opacity="0.1" d="M110.197 149.841C110.197 149.841 124.596 140.66 169.319 150.497C214.041 160.333 240.002 152.464 240.002 152.464V162.737C240.002 162.737 189.826 168.202 170.628 162.737C151.43 157.273 124.101 154.121 114.53 162.582L110.197 149.841Z" fill="black"/>
<path d="M110.633 150.278C110.633 150.278 124.595 141.098 169.318 150.934C214.041 160.77 239.565 152.901 239.565 152.901L239.783 162.3C239.783 162.3 190.043 167.765 170.845 162.3C151.647 156.836 124.536 153.028 114.965 161.489L110.633 150.278Z" fill="#EC6689"/>
<path d="M105.384 164.399C105.384 164.399 90.9853 173.579 46.2625 163.743C1.53974 153.907 3.72134 161.776 3.72134 161.776V151.502C3.72134 151.502 25.7555 146.038 44.9536 151.502C64.1517 156.967 91.4806 160.119 101.051 151.657L105.384 164.399Z" fill="#F86D70"/>
<path opacity="0.1" d="M105.384 164.399C105.384 164.399 90.9853 173.579 46.2625 163.743C1.53974 153.907 3.72134 161.776 3.72134 161.776V151.502C3.72134 151.502 25.7555 146.038 44.9536 151.502C64.1517 156.967 91.4806 160.119 101.051 151.657L105.384 164.399Z" fill="black"/>
<path d="M104.949 163.961C104.949 163.961 90.9863 173.142 46.2635 163.306C1.54067 153.469 4.15859 161.338 4.15859 161.338L3.94043 151.939C3.94043 151.939 25.5383 146.475 44.7363 151.939C63.9344 157.404 91.0452 161.212 100.616 152.75L104.949 163.961Z" fill="#EC6689"/>
<path d="M116.796 132.601C116.578 131.237 116.242 129.519 117.38 128.739C117.787 128.492 118.256 128.37 118.731 128.389C121.089 128.365 123.343 130.011 125.655 129.53C126.391 129.375 127.067 129.011 127.601 128.481C128.135 127.951 128.505 127.277 128.667 126.542C128.828 125.806 128.774 125.039 128.51 124.333C128.247 123.627 127.786 123.013 127.182 122.564C126.273 121.886 125.123 121.641 124.01 121.412C121.085 120.808 118.031 120.207 115.142 120.975C112.254 121.742 109.614 124.336 109.845 127.314C109.954 128.739 110.679 130.033 111.436 131.248C112.012 132.17 114.254 136.494 115.343 136.56C116.879 136.649 116.946 133.493 116.796 132.601Z" fill="#1B367C"/>
<path d="M135.176 173.557C135.176 173.557 120.123 177.273 115.106 173.557C115.106 173.557 112.924 182.082 113.579 186.454C113.579 186.454 124.268 187.11 125.359 187.765C125.359 187.765 125.577 186.017 126.668 186.891C126.668 186.891 130.377 182.519 137.14 186.454C137.14 186.454 138.449 176.18 135.176 173.557Z" fill="#3166ED"/>
<path opacity="0.1" d="M127.187 122.564C127.032 122.451 126.869 122.349 126.701 122.258C127.151 122.77 127.459 123.393 127.594 124.062C127.729 124.731 127.686 125.425 127.47 126.072C127.253 126.72 126.871 127.299 126.362 127.753C125.852 128.206 125.232 128.517 124.565 128.656C122.252 129.136 119.999 127.49 117.64 127.515C117.166 127.496 116.696 127.618 116.29 127.864C115.151 128.645 115.485 130.363 115.703 131.727C115.847 132.619 115.788 135.775 114.257 135.69H114.23C114.652 136.203 115.044 136.551 115.347 136.564C116.875 136.649 116.938 133.504 116.794 132.601C116.576 131.237 116.242 129.519 117.381 128.739C117.787 128.492 118.256 128.37 118.731 128.389C121.089 128.365 123.343 130.011 125.656 129.53C126.391 129.375 127.067 129.011 127.601 128.481C128.136 127.951 128.506 127.277 128.667 126.541C128.828 125.806 128.774 125.039 128.511 124.333C128.247 123.627 127.786 123.013 127.183 122.564H127.187Z" fill="black"/>
<g opacity="0.1">
<path opacity="0.1" d="M18.8404 112.181C18.8404 112.181 2.5286 105.309 0.390634 117.702C0.390634 117.702 -0.724164 119.633 0.826954 121.228C0.826954 121.228 1.16074 120.374 2.73804 121.259C3.3011 121.569 3.89859 121.812 4.51822 121.982C5.35554 122.214 6.24525 122.166 7.05324 121.847C7.05324 121.847 12.4178 121.556 16.9293 114.524C16.9293 114.524 18.8622 113.326 18.9604 112.878L15.7273 113.097C15.7273 113.097 15.9738 115.469 14.6365 116.892C14.6365 116.892 15.8255 113.213 15.2539 113.108C15.1383 113.086 13.5457 113.298 13.5457 113.298C13.5457 113.298 13.958 117.42 11.8004 119.554C11.8004 119.554 13.8031 115.359 12.9305 113.372L10.546 113.834C10.546 113.834 11.2005 118.17 8.83997 120.695C8.83997 120.695 10.7794 116.236 10.0311 113.969L7.74481 114.738C7.74481 114.738 8.29675 118.983 6.3224 121.077C6.3224 121.077 8.04587 115.698 7.23431 114.957C7.23431 114.957 5.17925 115.792 4.73856 116.269C4.73856 116.269 5.0658 119.329 3.8092 120.422C3.8092 120.422 4.58149 116.706 4.19971 116.553C4.19971 116.553 1.81086 118.354 1.08438 119.908C1.08438 119.908 1.99193 117.534 3.89865 116.192C3.89865 116.192 2.29735 115.921 1.06257 116.592C1.06257 116.592 1.88939 115.016 4.47677 115.764C4.47677 115.764 6.3944 114.435 6.77836 114.452C6.77836 114.452 4.3306 113.359 2.56133 113.493C2.56133 113.493 4.45714 112.4 7.3783 114.227L9.65589 113.401C9.65589 113.401 6.49475 111.777 4.90873 111.783C4.90873 111.783 7.01615 110.968 10.2493 113.241L12.5814 112.762C12.5814 112.762 9.9635 111.156 8.19858 110.782C8.19858 110.782 10.3169 110.448 13.2555 112.653L14.8525 112.518C14.8525 112.518 12.9196 111.379 12.3349 111.101C11.7502 110.824 11.7764 110.642 11.7764 110.642C13.168 110.884 14.4649 111.509 15.5222 112.448C15.5222 112.448 18.8252 112.384 18.8404 112.181Z" fill="#3166ED"/>
</g>
<g opacity="0.1">
<path opacity="0.1" d="M18.2386 99.8615C18.2386 99.8615 12.4486 86.4688 4.13893 92.611C4.13893 92.611 2.37838 93.1225 2.39365 94.9499C2.39365 94.9499 3.07868 94.633 3.51063 96.0581C3.67214 96.5642 3.89177 97.0498 4.16511 97.5052C4.52664 98.1176 5.0772 98.5956 5.73368 98.867C5.73368 98.867 9.08462 101.757 15.769 100.154C15.769 100.154 17.5994 100.548 17.9136 100.336L15.8694 98.6178C15.8694 98.6178 14.6695 100.168 13.0595 100.244C13.0595 100.244 15.8585 98.7358 15.5771 98.3467C15.5203 98.268 14.4557 97.4855 14.4557 97.4855C14.4557 97.4855 12.3548 100.17 9.87436 100.211C9.87436 100.211 13.45 98.8604 14.0609 97.1838L12.3832 96.0909C12.3832 96.0909 10.302 99.0396 7.46805 99.1926C7.46805 99.1926 11.155 97.6625 11.9992 95.8789L10.2038 95.0308C10.2038 95.0308 8.11817 97.8724 5.75986 97.9795C5.75986 97.9795 9.84164 95.7674 9.77837 94.8647C9.77837 94.8647 8.08327 94.187 7.54659 94.2264C7.54659 94.2264 6.0042 96.2264 4.62761 96.1696C4.62761 96.1696 7.19972 94.4013 7.05791 94.0931C7.05791 94.0931 4.61452 93.8001 3.29902 94.3116C3.29902 94.3116 5.18828 93.4198 7.08409 93.7127C7.08409 93.7127 6.28781 92.6351 5.17737 92.3356C5.17737 92.3356 6.56487 91.87 7.67749 93.7914C7.67749 93.7914 9.57112 94.0952 9.79146 94.3226C9.79146 94.3226 8.96245 92.27 7.82802 91.3454C7.82802 91.3454 9.5733 91.7826 10.2714 94.5302L12.093 95.3412C12.093 95.3412 11.1397 92.5717 10.182 91.6733C10.182 91.6733 11.8989 92.3903 12.5272 95.586L14.183 96.633C14.183 96.633 13.5394 94.1849 12.7061 92.9652C12.7061 92.9652 14.1547 93.9728 14.6477 96.9609L15.6731 97.7915C15.6731 97.7915 15.1713 96.0122 14.9815 95.5139C14.7917 95.0155 14.9117 94.9237 14.9117 94.9237C15.5996 95.8625 16.0142 96.974 16.1094 98.1347C16.1094 98.1347 18.1208 99.9752 18.2386 99.8615Z" fill="#3166ED"/>
</g>
</g>
<path d="M270.949 5.37769L323.676 8.42884e-05L327.024 32.8298L274.298 38.2074L270.949 5.37769Z" fill="#DAE4FF"/>
<path d="M299.037 19.6012L274.297 38.2075L327.024 32.8299L299.037 19.6012Z" fill="#AFC1F1"/>
<path d="M299.95 28.5548L323.675 0.00015541L270.949 5.37775L299.95 28.5548Z" fill="#C2D1F9"/>
<path fill-rule="evenodd" clip-rule="evenodd" d="M179.229 52.2373C198.177 40.8811 224.87 31.8656 259.411 26.6094L259.561 27.598C225.102 32.8417 198.545 41.8263 179.743 53.0951C160.939 64.3648 149.93 77.8937 146.472 92.221L145.5 91.9864C149.042 77.3137 160.283 63.5926 179.229 52.2373Z" fill="url(#paint0_linear)" fill-opacity="0.4"/>
<path fill-rule="evenodd" clip-rule="evenodd" d="M178.729 41.7373C197.677 30.3811 224.37 21.3656 258.911 16.1094L259.061 17.098C224.602 22.3417 198.045 31.3263 179.243 42.5951C160.439 53.8648 149.43 67.3937 145.972 81.721L145 81.4864C148.542 66.8137 159.783 53.0926 178.729 41.7373Z" fill="url(#paint1_linear)" fill-opacity="0.4"/>
<path fill-rule="evenodd" clip-rule="evenodd" d="M179.729 62.7373C198.677 51.3811 225.37 42.3656 259.911 37.1094L260.061 38.098C225.602 43.3417 199.045 52.3263 180.243 63.5951C161.439 74.8648 150.43 88.3937 146.972 102.721L146 102.486C149.542 87.8137 160.783 74.0926 179.729 62.7373Z" fill="url(#paint2_linear)" fill-opacity="0.4"/>
<defs>
<linearGradient id="paint0_linear" x1="261.986" y1="24.1038" x2="139.486" y2="98.1038" gradientUnits="userSpaceOnUse">
<stop stop-color="#3166ED"/>
<stop offset="1" stop-color="#3166ED" stop-opacity="0"/>
</linearGradient>
<linearGradient id="paint1_linear" x1="261.486" y1="13.6038" x2="138.986" y2="87.6038" gradientUnits="userSpaceOnUse">
<stop stop-color="#3166ED"/>
<stop offset="1" stop-color="#3166ED" stop-opacity="0"/>
</linearGradient>
<linearGradient id="paint2_linear" x1="262.486" y1="34.6038" x2="139.986" y2="108.604" gradientUnits="userSpaceOnUse">
<stop stop-color="#3166ED"/>
<stop offset="1" stop-color="#3166ED" stop-opacity="0"/>
</linearGradient>
<clipPath id="clip0">
<rect width="240" height="160" fill="white" transform="translate(0 91)"/>
</clipPath>
</defs>
</svg>
