<svg width="114" height="114" viewBox="0 0 114 114" fill="none" xmlns="http://www.w3.org/2000/svg">
<path d="M34 92V68.6951C34.0683 67.8444 33.9111 66.7235 34.8201 65.3659M48.8908 58.2317C49.8835 57.7561 49.8835 55.6634 49.8835 53M48.8908 58.2317L56.8325 66.3171M48.8908 58.2317C39.5639 61.0245 36.1132 63.4347 34.8201 65.3659M56.8325 66.3171V91.5244M56.8325 66.3171L64.7742 58.2317M34.8201 65.3659L41.3988 72.6922C42.3875 73.7934 42.9345 75.221 42.9345 76.7009V91.5244M64.7742 58.2317C63.7815 57.2805 63.7815 55.2829 63.7815 53M64.7742 58.2317C68.6113 59.2175 75.4657 61.7743 78.437 65.3659M79.8723 91.5244C79.9687 86.1341 80.1036 74.022 79.8723 68.6951C79.8208 67.5088 79.2883 66.3949 78.437 65.3659M78.437 65.3659L72.1652 72.7201C71.2392 73.806 70.7305 75.1863 70.7305 76.6134V91.5244" stroke="#58454B" stroke-width="3" stroke-linecap="round" stroke-linejoin="round"/>
<path d="M1.5 92.5V76.5C1.5 75.9073 1.67566 75.3145 2 74.7334M11.5 69C12.5 69 12.5 62.7354 12.5 62.7354M11.5 69L17.5 74M11.5 69C7.08667 70.2036 3.31723 72.3731 2 74.7334M17.5 74V92.5M17.5 74L23.5 69M2 74.7334C4.33333 76.4889 9 80.4 9 82C9 83.6 9 89.6667 9 92.5M23.5 69C24.1667 69.3333 25.8 70.1 27 70.5M23.5 69C23.3333 67.5 23 64.1 23 62.5M7 51C7.9968 50.77 9.34636 50.2225 10.6105 49.6009C12.593 48.6261 15.2785 48.7942 17.2178 49.8523C19.6903 51.2012 23.4388 52.3684 28 51M23.873 38.882C24.0765 38.252 24.1865 37.5798 24.1865 36.882C24.1865 33.2922 21.2764 30.382 17.6865 30.382C14.0966 30.382 11.1865 33.2922 11.1865 36.882C11.1865 37.5798 11.2965 38.252 11.5 38.882M17.5 64C11.701 64 7 59.299 7 53.5V47.5C7 41.701 11.701 37 17.5 37C23.299 37 28 41.701 28 47.5V53.5C28 59.299 23.299 64 17.5 64Z" stroke="#58454B" stroke-width="3" stroke-linecap="round" stroke-linejoin="round"/>
<path d="M110.117 67.4127L100.772 62.7398C100.124 62.4158 99.7215 61.7647 99.7215 61.0407V58.674C101.909 56.7318 103.291 53.9014 103.291 50.753V48.8522C103.33 48.8522 103.368 48.8533 103.406 48.8533C104.328 48.8533 105.076 48.1056 105.076 47.1834V43.6138C105.076 37.7721 100.323 33.0195 94.4817 33.0195H90.9121C85.0705 33.0195 80.3179 37.7721 80.3179 43.6138V47.1834C80.3179 48.1056 81.0656 48.8533 81.9878 48.8533C82.0016 48.8533 82.0417 48.8529 82.1027 48.8504V50.753C82.1027 53.9016 83.4849 56.732 85.6725 58.6743V61.0409C85.6725 61.7652 85.2702 62.4162 84.6223 62.74C83.7973 63.1523 83.4629 64.1554 83.8755 64.9804C84.168 65.5655 84.7579 65.9039 85.3704 65.9039C85.6213 65.9039 85.876 65.8472 86.1158 65.7274C86.4118 65.5793 86.6872 65.4045 86.9439 65.2104L91.027 69.2934V91.8047C91.027 92.7269 91.7747 93.4746 92.6969 93.4746C93.6192 93.4746 94.3668 92.7269 94.3668 91.8047V69.293L98.4497 65.2099C98.7066 65.4043 98.9818 65.5791 99.2777 65.7269L108.321 70.2486L105.578 72.9915C104.251 74.3184 103.521 76.0822 103.521 77.9586V91.8042C103.521 92.7265 104.268 93.4742 105.191 93.4742C106.113 93.4742 106.861 92.7265 106.861 91.8042V77.9586C106.861 76.9744 107.244 76.0491 107.94 75.353L110.538 72.7549C110.617 73.057 110.66 73.3721 110.66 73.6954V91.8042C110.66 92.7265 111.408 93.4742 112.33 93.4742C113.252 93.4742 114 92.7265 114 91.8042V73.6954C114 71.0177 112.512 68.6103 110.117 67.4127ZM83.6575 45.1699V43.6135H83.6577C83.6577 39.6135 86.9121 36.3592 90.9121 36.3592H94.4817C98.4817 36.3592 101.736 39.6135 101.736 43.6135V45.4685C94.4768 45.0768 90.0961 42.252 90.0535 42.2242C89.771 42.0358 89.4486 41.9436 89.1277 41.9436C88.6967 41.9436 88.2692 42.1102 87.9463 42.4328C86.3485 44.0306 84.783 44.7996 83.6575 45.1699ZM92.6969 66.2397L88.838 62.3808C88.9507 61.9502 89.0124 61.5013 89.0124 61.0407V60.6851C90.1604 61.1124 91.4017 61.347 92.6969 61.347C93.9921 61.347 95.2334 61.1124 96.3814 60.6851V61.0407C96.3814 61.5013 96.4429 61.9502 96.5558 62.3808L92.6969 66.2397ZM92.6969 58.0074C88.6969 58.0074 85.4425 54.7533 85.4425 50.753V48.0609C86.6121 47.5935 87.9748 46.8505 89.3615 45.6691C91.1152 46.5816 94.7841 48.1586 99.9513 48.6797V50.753C99.9513 54.7531 96.6969 58.0074 92.6969 58.0074Z" fill="#58454B"/>
<path d="M45 40V43C45 49.6274 50.3726 55 57 55V55C63.6274 55 69 49.6274 69 43V38" stroke="#58454B" stroke-width="3" stroke-linecap="round" stroke-linejoin="round"/>
<path d="M49 37.5C48.6 38.3 44.8333 40.1667 43 41L43 36.5C43 28.4919 49.4919 22 57.5 22V22C65.5081 22 72 28.4919 72 36.5L72 37C65.5 37.3333 56.5 39 51.5 32.5" stroke="#58454B" stroke-width="3" stroke-linecap="round" stroke-linejoin="round"/>
</svg>
