<svg width="131" height="102" viewBox="0 0 131 102" fill="none" xmlns="http://www.w3.org/2000/svg">
<g clip-path="url(#clip0)">
<path opacity="0.1" d="M45.9527 100.024C58.573 100.024 68.8037 98.0958 68.8037 95.7168C68.8037 93.3378 58.573 91.4092 45.9527 91.4092C33.3323 91.4092 23.1016 93.3378 23.1016 95.7168C23.1016 98.0958 33.3323 100.024 45.9527 100.024Z" fill="#3166ED"/>
<path opacity="0.1" d="M76.1105 14.3853C67.7123 14.0961 59.7138 11.3974 52.076 8.44558C44.4382 5.49378 36.8731 2.22432 28.676 0.660616C23.4038 -0.34527 17.3737 -0.488599 13.1266 2.32117C9.03781 5.0328 7.71683 9.70068 7.00703 14.0354C6.47241 17.2971 6.15838 20.7306 7.6221 23.7844C8.63944 25.9046 10.4431 27.6866 11.6914 29.7177C16.0346 36.7834 12.9644 45.4968 8.25923 52.396C6.05328 55.6319 3.49048 58.7231 1.7867 62.1643C0.0829254 65.6055 -0.70473 69.5619 0.786236 73.0819C2.26293 76.5682 5.78337 79.1817 9.59708 81.0218C17.3426 84.76 26.4661 85.8291 35.3691 86.436C55.0709 87.7763 74.8765 87.1965 94.6302 86.6142C101.941 86.3998 109.283 86.1816 116.474 85.0569C120.468 84.432 124.591 83.4403 127.491 81.0463C131.171 78.008 132.083 72.8636 129.617 69.0544C125.48 62.6627 114.045 61.0758 111.15 54.2179C109.559 50.4423 111.193 46.238 113.507 42.7374C118.469 35.2262 126.785 28.6369 127.223 20.0527C127.524 14.1568 123.526 8.2519 117.344 5.4615C110.865 2.53681 101.879 2.90482 97.1008 7.74573C92.1764 12.7248 83.5264 14.6423 76.1105 14.3853Z" fill="#3166ED"/>
<path d="M69.4385 46.7099L65.4639 44.0434L67.4687 41.0736L56.971 40.2407L53.1988 43.1434L48.4768 40.5093L44.5385 40.9806L44.4918 39.9476C44.443 38.8707 44.3343 37.7973 44.1661 36.7324C44.1829 36.4095 44.1946 36.039 44.1933 35.6361C44.1933 33.9381 43.9623 31.6874 42.9476 30.187L43.1812 28.0977L41.2866 25.8703C41.5909 25.2673 41.9378 24.6865 42.3247 24.1323C42.3896 24.0393 42.4545 23.9489 42.5246 23.8611C44.9836 23.6842 46.9235 21.6725 46.9235 19.2126C46.9235 19.099 46.9235 18.9854 46.9105 18.873C46.9105 18.8278 46.9015 18.7814 46.8963 18.7362C47.1363 18.8653 47.379 18.9944 47.6216 19.1235C47.667 19.1881 47.719 19.2527 47.776 19.3288L47.7877 19.343L47.8604 19.4321L47.8837 19.4593C47.9097 19.4902 47.937 19.5199 47.9642 19.5509L47.9824 19.5716C48.0511 19.6478 48.1238 19.7253 48.2017 19.8014C48.2109 19.8089 48.2196 19.8172 48.2276 19.826L48.3249 19.9164L48.3522 19.9409C48.4352 20.0145 48.5235 20.0855 48.6117 20.1527L48.6403 20.1733L48.7519 20.2495L48.7882 20.2727C48.831 20.2986 48.8751 20.3257 48.918 20.3502L48.9335 20.3593C48.9841 20.3864 49.036 20.4122 49.0879 20.4367L49.1139 20.4471C49.158 20.466 49.2013 20.4841 49.2437 20.5013L49.2839 20.5155C49.3293 20.531 49.3734 20.5452 49.4201 20.5581L49.4487 20.5659C49.5058 20.5801 49.5629 20.5917 49.6213 20.6007H49.6278C49.6827 20.6096 49.7382 20.6152 49.7938 20.6175H49.8315C49.8812 20.6201 49.931 20.6201 49.9807 20.6175H50.0131C50.0754 20.6139 50.1374 20.6066 50.1987 20.5956C50.489 20.5576 50.7678 20.4581 51.0162 20.3037C51.0794 20.2617 51.1355 20.2098 51.1823 20.1501C51.4418 19.8118 51.1563 19.4412 51.1563 19.4412C51.0551 19.201 50.3985 19.0319 50.3985 19.0319C50.3985 19.0319 48.3223 18.1693 48.3223 17.4823C48.3223 16.7954 47.8033 13.2315 42.4454 12.4168C42.4454 12.4168 38.96 12.2218 37.9803 14.0786L37.9595 14.2955C37.6715 14.475 37.4327 14.8353 37.1485 14.9412C37.0258 14.9674 36.9074 15.0109 36.7969 15.0703V15.0458C36.7641 15.0743 36.7372 15.109 36.7177 15.1478C36.6567 15.2686 36.6201 15.4002 36.61 15.5351C36.5808 15.6999 36.5233 15.8585 36.44 16.0039C36.4168 16.0452 36.3908 16.0849 36.3622 16.1227L36.3401 16.1575C36.4908 16.1692 36.642 16.1449 36.7813 16.0865C36.7594 16.2633 36.7158 16.4367 36.6515 16.603C36.734 16.6057 36.8156 16.5847 36.8864 16.5426C36.9573 16.5004 37.0145 16.439 37.0512 16.3654V16.3551L37.0681 16.3318C37.1007 16.2721 37.1276 16.2094 37.1485 16.1446L37.1343 16.1601C37.1602 16.0762 37.1836 15.991 37.2121 15.9083C37.2252 15.8618 37.2467 15.818 37.2757 15.7792C37.3103 15.7444 37.3527 15.7183 37.3993 15.7028C37.446 15.6873 37.4957 15.683 37.5443 15.6901L37.4911 16.8096H37.5145C37.4832 16.891 37.445 16.9697 37.4003 17.0446C37.216 17.3416 36.8812 17.5443 36.7579 17.8697C36.7048 18.0267 36.6845 18.1928 36.6983 18.3578C36.6983 18.4547 36.7099 18.5528 36.7177 18.6496V18.6419C36.7359 18.9001 36.7411 19.1455 36.6009 19.3534C36.5049 19.4954 36.3505 19.6026 36.2973 19.764C36.2826 19.809 36.276 19.8562 36.2778 19.9035C36.2882 20.045 36.3179 20.1844 36.3661 20.3179C36.3666 20.3154 36.3666 20.3127 36.3661 20.3102C36.3984 20.4084 36.406 20.5131 36.3881 20.6149C36.3297 20.8732 36.0144 21.0888 36.03 21.3355C36.0291 21.3679 36.0339 21.4002 36.0443 21.431C36.1049 21.5515 36.21 21.644 36.3375 21.6893C36.5376 21.8025 36.7674 21.8529 36.9967 21.8339C37.0827 21.8184 37.1658 21.7901 37.2433 21.7499C37.1524 21.9578 37.059 22.1631 36.9643 22.3581C36.95 22.3891 36.9344 22.4201 36.9189 22.4511C36.9189 22.4511 36.1169 21.9178 35.6615 23.005C35.5285 23.231 35.4334 23.477 35.3799 23.7333C35.3571 23.8359 35.3249 23.9361 35.2839 24.0329C35.0817 24.3735 34.779 24.644 34.417 24.8076C33.4879 25.2312 29.7352 29.8887 29.669 31.0947C29.6366 31.5655 29.5566 32.0319 29.4303 32.4867C29.1349 33.5579 29.059 34.6772 29.2071 35.7781C29.2535 36.1339 29.3303 36.4851 29.4368 36.8279C29.8351 38.0327 30.1012 40.2807 30.1012 40.2807L30.532 44.1829C30.516 44.7215 30.5394 45.2605 30.602 45.7957C30.1621 46.2954 28.3961 48.3782 29.0708 48.945C29.5899 49.3918 30.4982 49.3182 31.0082 49.2265C30.5787 50.2841 29.9026 52.1228 29.8131 53.3857C29.6833 55.2541 30.035 57.7294 30.5917 58.6798C31.1483 59.6302 33.0039 62.0681 33.0039 62.0681C33.0039 62.0681 32.917 65.4124 33.5801 66.6275C34.2432 67.8425 34.5105 70.3631 34.5105 70.3631C34.5105 70.3631 35.1294 72.4911 34.8193 73.2736C34.5092 74.056 35.3941 74.7068 34.4651 75.2272C33.536 75.7476 32.3473 87.476 32.3473 87.476C32.3473 87.476 31.8685 95.1629 32.3473 95.5541C32.373 95.5727 32.4003 95.5887 32.4291 95.6019V98.1844C32.4291 98.1844 32.0969 98.7267 33.4477 98.8365C34.3729 98.9101 36.9954 99.0767 38.5513 99.1735L39.7567 99.2484C39.7567 99.2484 42.6115 99.814 43.8728 99.2484C45.1341 98.6828 47.3699 98.6957 47.0377 97.2018C46.9937 96.9985 46.9347 96.7986 46.8612 96.6039C46.4966 95.6768 45.8776 95.5709 44.737 95.3127C44.6708 95.2985 44.6073 95.2856 44.5489 95.2752C43.3473 95.0673 42.9528 95.6239 42.2793 94.8995C41.6941 94.2732 39.8307 93.5721 39.1962 93.35C39.2118 93.3035 39.2312 93.2583 39.2468 93.2105C39.0671 93.1802 38.9 93.099 38.7654 92.9768L40.4847 93.0853L41.5085 93.1485C41.5085 93.1485 43.9351 93.6302 45.0121 93.1485C46.0891 92.6669 47.9837 92.6798 47.7008 91.4105C47.6635 91.2375 47.6136 91.0675 47.5516 90.9017C47.2414 90.1141 46.7146 90.0276 45.7453 89.8093C45.6895 89.7977 45.6376 89.7861 45.5857 89.7771C44.5644 89.6002 44.2297 90.0728 43.6574 89.4581C43.1669 88.9339 41.6188 88.3464 41.0622 88.1462C41.0622 87.8596 40.6729 87.4515 40.4276 87.0422C40.1395 86.5644 40.6716 84.8922 40.6716 84.8922L40.9752 77.9543C41.0908 77.9031 41.2132 77.8683 41.3385 77.851C41.3385 77.851 42.7114 76.5469 42.4013 75.1575C42.3381 74.7373 42.3052 74.3131 42.3027 73.8882C42.7543 73.4711 43.3758 72.8552 43.5523 72.4756C43.8404 71.857 43.5523 68.86 43.5523 68.86V57.4002L45.8491 57.6313L47.9331 57.8444L48.5676 57.9089L50.6516 58.1181L55.4411 58.5997L59.757 57.7863L61.6243 57.435L65.4639 56.7119V47.3633L69.4385 46.7099ZM37.8272 15.7314L37.5599 15.703C37.6481 15.7069 37.7415 15.7237 37.8272 15.7314Z" fill="url(#paint0_linear)"/>
<path d="M60.1224 52.78C58.8248 54.6278 54.1599 53.649 54.1599 53.649L50.5447 50.2827L50.0581 49.8269L50.8743 48.1018C50.8743 48.1018 51.1338 48.1728 51.5789 48.2994C53.9159 48.9747 61.2176 51.2266 60.1224 52.78Z" fill="#EFB7B9"/>
<path opacity="0.1" d="M51.5763 48.2994C51.4167 48.852 50.9794 49.6797 50.5447 50.2827L50.0581 49.8269L50.8743 48.1018C50.8743 48.1018 51.1364 48.1728 51.5763 48.2994Z" fill="black"/>
<path d="M39.178 28.8453C39.178 28.8453 35.8457 30.316 36.0092 33.9276C36.1269 36.2544 36.3817 38.5723 36.7722 40.8694C36.7722 40.8694 36.091 46.3043 38.9276 47.7053C41.7642 49.1063 44.3893 50.2581 44.3893 50.2581C44.3893 50.2581 48.8271 50.7333 49.3786 50.9296C49.9301 51.1259 51.6534 48.125 51.3354 47.6575C51.0175 47.1901 46.9443 46.21 46.4252 45.4301C45.9062 44.6502 44.7059 44.1686 44.7059 44.1686C44.7059 44.1686 43.4667 43.4222 43.3823 42.7482C43.298 42.0742 43.625 41.5719 43.708 41.2762C43.7911 40.9805 44.0013 38.1255 44.0013 38.1255C44.0013 38.1255 45.4001 27.9633 39.178 28.8453Z" fill="#DCE6F2"/>
<path opacity="0.1" d="M41.3775 40.7209C41.3775 40.7209 36.8059 41.4828 37.2484 43.0749C37.2484 43.0749 38.9081 41.3562 41.3775 40.7209Z" fill="black"/>
<path opacity="0.1" d="M41.4121 41.3652C41.4121 41.3652 38.8986 43.4067 39.3904 43.5113C39.8822 43.6159 41.4121 41.3652 41.4121 41.3652Z" fill="black"/>
<path opacity="0.1" d="M42.6206 42.0767C42.6206 42.0767 41.9471 43.4492 42.3611 43.3563C42.775 43.2633 42.6206 42.0767 42.6206 42.0767Z" fill="black"/>
<path opacity="0.1" d="M51.7455 48.4451L51.4678 48.3664C51.5469 48.1081 51.569 47.8989 51.5041 47.8021C51.1862 47.3346 47.1156 46.3559 46.5978 45.5747C46.0801 44.7935 44.8785 44.3131 44.8785 44.3131C44.8785 44.3131 43.6392 43.5668 43.5549 42.8927C43.4706 42.2187 43.7976 41.7164 43.8806 41.4207C43.9637 41.125 44.1739 38.2688 44.1739 38.2688C44.1739 38.2688 45.5688 28.1079 39.3467 28.9898C39.3467 28.9898 36.0144 30.4618 36.1766 34.0735C36.2943 36.4003 36.5495 38.7183 36.9409 41.0153C36.9409 41.0153 36.2597 46.4501 39.0963 47.8511C41.9329 49.2522 44.558 50.404 44.558 50.404C44.558 50.404 48.9945 50.8778 49.5473 51.0754C49.7562 51.1503 50.1338 50.7642 50.5037 50.2335L50.7139 50.4285L54.329 53.7935C54.329 53.7935 58.994 54.7736 60.2916 52.9258C61.3881 51.3711 54.0877 49.1192 51.7455 48.4451Z" fill="black"/>
<path d="M37.2597 15.2898C37.1327 15.3145 37.011 15.3612 36.9002 15.4279C36.7705 15.5351 36.7705 15.7185 36.738 15.8786C36.6999 16.1013 36.6112 16.3124 36.4785 16.4958C36.6262 16.5066 36.7743 16.4822 36.9106 16.4248C36.8884 16.6015 36.8448 16.7749 36.7809 16.9413C36.8617 16.9433 36.9414 16.9221 37.0105 16.8802C37.0795 16.8383 37.135 16.7774 37.1701 16.705C37.2388 16.5595 37.2931 16.4077 37.3324 16.2517C37.3445 16.2051 37.3657 16.1613 37.3946 16.1226C37.514 15.9819 37.7359 16.0451 37.9202 16.0632C38.0735 16.0761 38.2275 16.0479 38.3663 15.9816C38.505 15.9153 38.6234 15.8133 38.7091 15.6862C38.9051 15.3905 38.9168 14.6338 38.4496 14.5537C37.9617 14.4737 37.6581 15.1426 37.2597 15.2898Z" fill="#965D7B"/>
<g opacity="0.1">
<path opacity="0.1" d="M36.8872 15.5867C36.8988 15.5234 36.9066 15.4576 36.9209 15.3943C36.7976 15.5015 36.7911 15.6835 36.7587 15.8449C36.7423 15.9381 36.7167 16.0293 36.6821 16.1174C36.7843 15.9553 36.8539 15.7751 36.8872 15.5867Z" fill="black"/>
<path opacity="0.1" d="M36.9289 16.6532C36.9935 16.4871 37.0371 16.3136 37.0586 16.1367C36.9287 16.1911 36.788 16.2154 36.6473 16.2077C36.6063 16.2986 36.5563 16.3851 36.498 16.466C36.6452 16.4773 36.7929 16.4534 36.9289 16.3963C36.9073 16.5731 36.8637 16.7466 36.7991 16.9128C36.8799 16.9146 36.9596 16.8934 37.0286 16.8515C37.0976 16.8096 37.1531 16.7488 37.1884 16.6765C37.2207 16.6178 37.2468 16.5559 37.2662 16.4918C37.2282 16.5448 37.1773 16.5873 37.1183 16.6155C37.0594 16.6437 36.9942 16.6567 36.9289 16.6532Z" fill="black"/>
<path opacity="0.1" d="M38.0685 15.7753C37.8842 15.7573 37.6611 15.694 37.5417 15.8347C37.5133 15.8737 37.4921 15.9174 37.4794 15.9639C37.4677 15.9974 37.4573 16.0323 37.4482 16.0672C37.5715 15.9703 37.7713 16.022 37.9387 16.0388C38.092 16.0512 38.2459 16.0229 38.3846 15.9566C38.5232 15.8903 38.6416 15.7886 38.7277 15.6617C38.767 15.599 38.7964 15.5306 38.8146 15.459C38.7258 15.5684 38.6113 15.6545 38.4812 15.7097C38.3511 15.7648 38.2094 15.7874 38.0685 15.7753Z" fill="black"/>
</g>
<path d="M41.166 25.9541L43.1449 28.3223L42.8866 30.7124L40.4951 26.9871L41.166 25.9541Z" fill="#DCE6F2"/>
<path opacity="0.1" d="M43.1436 28.3223L42.9009 30.5703L42.8853 30.7124L40.7274 27.3499L40.4951 26.9871L40.5626 26.8825L41.1647 25.9541L41.2983 26.1142L43.1436 28.3223Z" fill="black"/>
<path d="M44.1708 22.748C43.5012 22.9391 42.8615 23.5951 42.3048 24.3918C41.9285 24.9415 41.592 25.5171 41.2978 26.1143C41.1149 26.4784 40.954 26.8284 40.8203 27.1331L40.7269 27.35C40.5011 27.8807 40.3752 28.2358 40.3752 28.2358C40.3752 28.2358 35.2496 24.4008 36.0606 24.1425C36.3331 24.056 36.6913 23.475 37.0455 22.7428L37.0897 22.6499C37.3141 22.1798 37.5347 21.6556 37.7307 21.1623C38.1316 20.1487 38.4288 19.2681 38.4288 19.2681C38.4288 19.2681 46.2145 22.1669 44.1708 22.748Z" fill="#EFB7B9"/>
<path d="M47.2373 19.0525C47.2373 19.0525 48.4207 21.1831 50.0103 20.8925C51.5999 20.602 50.9459 19.7485 50.9459 19.7485L47.2373 19.0525Z" fill="#444053"/>
<path d="M44.9444 92.8023C43.8959 93.2788 41.5252 92.8023 41.5252 92.8023L40.526 92.7403C39.2284 92.6577 37.0562 92.5182 36.288 92.4562C35.1668 92.3646 35.4419 91.9075 35.4419 91.9075V89.1455L40.8815 87.7742C40.8815 87.7742 43.0317 88.5063 43.6208 89.1455C44.1801 89.7549 44.5071 89.2862 45.505 89.4618C45.5543 89.4709 45.6062 89.4812 45.6607 89.4941C46.6079 89.7098 47.1218 89.795 47.4254 90.5762C47.4865 90.7403 47.5355 90.9086 47.5721 91.0798C47.8524 92.3374 45.9916 92.3284 44.9444 92.8023Z" fill="#A36468"/>
<path opacity="0.1" d="M47.4254 90.5763C47.2305 90.6975 47.0256 90.802 46.813 90.8887C46.0993 91.2129 45.4206 91.608 44.6992 91.914C43.9777 92.22 43.2004 92.4383 42.4192 92.3802C42.0105 92.3505 41.5926 92.251 41.2021 92.3672C40.9605 92.46 40.733 92.5856 40.526 92.7404C39.2284 92.6578 37.0562 92.5183 36.288 92.4563C35.1668 92.3647 35.4419 91.9075 35.4419 91.9075V91.5847C35.4821 91.5847 35.5276 91.5731 35.5795 91.5692C35.848 91.565 36.1154 91.6047 36.371 91.6868C36.9342 91.8391 37.4948 91.9889 38.0579 92.1387C38.1042 91.9648 38.1857 91.802 38.2972 91.6604C38.4087 91.5188 38.5481 91.4012 38.7067 91.3149C39.0282 91.1451 39.3889 91.0627 39.7526 91.076C40.6259 91.0876 41.4525 91.4995 42.3245 91.5408C42.5683 91.5631 42.8137 91.5222 43.0369 91.422C43.1563 91.3626 43.2614 91.2761 43.3782 91.2103C43.5651 91.1203 43.7625 91.0539 43.966 91.0127C44.5378 90.8711 45.0993 90.6907 45.6464 90.473C45.8021 90.4123 45.9838 90.3025 45.963 90.1372C45.9358 89.9177 45.5893 89.8919 45.4985 89.6905C45.4825 89.6541 45.4751 89.6146 45.4769 89.575C45.4787 89.5353 45.4896 89.4967 45.5089 89.4619C45.5582 89.471 45.6101 89.4813 45.6646 89.4942C46.608 89.7098 47.1218 89.7951 47.4254 90.5763Z" fill="black"/>
<path d="M43.8363 98.8456C42.6036 99.406 39.8137 98.8456 39.8137 98.8456L38.6393 98.7771C37.1185 98.6803 34.557 98.5189 33.6526 98.4427C32.3329 98.3342 32.6573 97.797 32.6573 97.797V94.5418L39.0585 92.9277C39.0585 92.9277 41.5888 93.789 42.2818 94.5418C42.9397 95.2584 43.3199 94.7071 44.4994 94.9137C44.5578 94.924 44.6188 94.9369 44.6824 94.9511C45.797 95.2094 46.4017 95.3062 46.7586 96.2256C46.8308 96.4186 46.8885 96.6167 46.9311 96.8183C47.2529 98.2981 45.0691 98.2864 43.8363 98.8456Z" fill="#A36468"/>
<path opacity="0.1" d="M46.756 96.2254C46.5267 96.3679 46.2858 96.491 46.0358 96.5934C45.1962 96.9743 44.3969 97.4392 43.5482 97.7994C42.6996 98.1597 41.7848 98.4153 40.8648 98.3482C40.3846 98.3133 39.8928 98.1933 39.4374 98.3327C39.152 98.4433 38.8834 98.5928 38.6393 98.7769C37.1185 98.6801 34.557 98.5186 33.6526 98.4425C32.3329 98.334 32.6573 97.7968 32.6573 97.7968V97.4172C32.711 97.4085 32.7652 97.4024 32.8195 97.3991C33.1356 97.3934 33.4505 97.4401 33.7512 97.5373L35.7353 98.0693C35.7905 97.8641 35.8873 97.6723 36.0196 97.5055C36.1519 97.3388 36.317 97.2007 36.5048 97.0996C36.883 96.8989 37.3079 96.8018 37.7362 96.8181C38.7639 96.8323 39.7358 97.3165 40.7623 97.3656C41.0481 97.3915 41.3359 97.3439 41.5979 97.2274C41.7394 97.1564 41.8574 97.0544 42.0002 96.9782C42.2196 96.8712 42.4521 96.7931 42.6918 96.7458C43.361 96.5777 44.0182 96.3655 44.659 96.1105C44.842 96.0381 45.0561 95.909 45.0314 95.7153C44.999 95.4571 44.5915 95.4261 44.4838 95.1885C44.4657 95.1456 44.4574 95.0992 44.4597 95.0527C44.4619 95.0063 44.4746 94.9609 44.4968 94.9199C44.5552 94.9303 44.6162 94.9432 44.6798 94.9574C45.7944 95.2053 46.3991 95.306 46.756 96.2254Z" fill="black"/>
<path d="M41.0462 76.5081L40.6998 84.621C40.6998 84.621 40.1807 86.2777 40.4623 86.7516C40.7439 87.2255 41.2188 87.6981 41.0462 87.9783C40.8737 88.2585 38.7975 91.2877 38.1266 90.1256C37.4557 88.9635 36.7939 83.9276 36.7939 83.9276L37.4129 77.7076L41.0462 76.5081Z" fill="#1B367C"/>
<path d="M42.549 56.2949L43.5118 57.5758V68.7168C43.5118 68.7168 43.7934 71.6867 43.5118 72.3C43.2302 72.9134 41.8028 74.1401 41.8028 74.1401L40.6025 68.0066L40.8621 61.518L42.549 56.2949Z" fill="#1B367C"/>
<path opacity="0.1" d="M41.0462 76.5081L40.6998 84.621C40.6998 84.621 40.1807 86.2777 40.4623 86.7516C40.7439 87.2255 41.2188 87.6981 41.0462 87.9783C40.8737 88.2585 38.7975 91.2877 38.1266 90.1256C37.4557 88.9635 36.7939 83.9276 36.7939 83.9276L37.4129 77.7076L41.0462 76.5081Z" fill="black"/>
<path opacity="0.1" d="M41.9464 56.2949L42.9093 57.5758V68.7168C42.9093 68.7168 43.1909 71.6867 42.9093 72.3C42.6277 72.9134 41.2003 74.1401 41.2003 74.1401L40 68.0066L40.2595 61.518L41.9464 56.2949Z" fill="black"/>
<path d="M43.5115 51.5431V57.5694L42.4306 62.2605C42.4306 62.2605 42.0841 73.5809 42.3865 74.9574C42.6888 76.3339 41.3484 77.6264 41.3484 77.6264C41.3484 77.6264 40.5698 77.7129 40.5698 78.3147C40.5698 78.9164 39.2722 80.6389 39.2722 80.6389L39.315 83.9962C39.315 83.9962 39.8782 90.2807 39.0127 91.4855C38.1472 92.6902 39.315 92.8632 39.315 92.8632C38.2341 96.3922 33.0436 95.5748 32.5752 95.1875C32.1067 94.8001 32.5752 87.1817 32.5752 87.1817C32.5752 87.1817 33.7353 75.5604 34.6436 75.0439C35.5519 74.5274 34.6877 73.8818 34.9901 73.107C35.2924 72.3323 34.6877 70.2237 34.6877 70.2237C34.6877 70.2237 34.4282 67.7264 33.7794 66.5216C33.1306 65.3169 33.2162 62.0023 33.2162 62.0023C33.2162 62.0023 31.3995 59.5915 30.8597 58.645C30.3199 57.6985 29.9722 55.2451 30.1019 53.3935C30.1902 52.1422 30.8506 50.3203 31.2698 49.2718C31.4709 48.7695 31.6162 48.4441 31.6162 48.4441L31.7395 48.4764L38.8271 50.3229L43.5115 51.5431Z" fill="#1B367C"/>
<path opacity="0.1" d="M44.1714 22.748C43.5018 22.9391 42.8621 23.5951 42.3054 24.3918H42.1601C41.3441 24.3923 40.5424 24.1786 39.8361 23.772C39.1298 23.3655 38.5438 22.7806 38.1374 22.0765C37.9676 21.7848 37.8309 21.4751 37.73 21.1533C38.1309 20.1397 38.4281 19.259 38.4281 19.259C38.4281 19.259 46.2151 22.1669 44.1714 22.748Z" fill="black"/>
<path d="M46.799 19.5199C46.8001 20.2264 46.6383 20.9237 46.3259 21.5582C46.0136 22.1927 45.559 22.7473 44.9973 23.1795C44.4356 23.6116 43.7817 23.9096 43.0859 24.0507C42.3902 24.1917 41.6712 24.1719 40.9844 23.9929C40.2976 23.8138 39.6612 23.4803 39.1243 23.018C38.5874 22.5556 38.1644 21.9768 37.8877 21.3262C37.611 20.6755 37.4881 19.9703 37.5285 19.2649C37.5689 18.5595 37.7714 17.8728 38.1205 17.2576C38.2611 17.0076 38.4254 16.7715 38.611 16.5526C38.917 16.1898 39.2767 15.8754 39.6776 15.6203C40.3549 15.192 41.1323 14.9458 41.9338 14.9059C42.7352 14.866 43.5334 15.0336 44.2503 15.3925C44.9672 15.7513 45.5783 16.2891 46.0239 16.9532C46.4694 17.6173 46.7343 18.3851 46.7925 19.1815C46.7951 19.2952 46.799 19.4075 46.799 19.5199Z" fill="#EFB7B9"/>
<path opacity="0.1" d="M42.9004 30.5705L42.8848 30.7125L40.7269 27.3552C40.5011 27.8859 40.3752 28.241 40.3752 28.241C40.3752 28.241 35.2496 24.4008 36.0606 24.1426C36.3331 24.0561 36.6913 23.475 37.0455 22.7429L37.0897 22.6499C37.466 23.7655 39.6525 25.9955 40.5621 26.8891C40.6672 26.9924 40.7541 27.0776 40.8216 27.1396L40.9605 27.2687L41.0331 27.341C41.364 27.6806 42.7603 29.1785 42.9004 30.5705Z" fill="black"/>
<path d="M44.5133 41.9618L44.2771 49.5247L44.2356 50.8714C44.2356 50.8714 41.4379 50.6132 38.8271 50.3291C36.725 50.1006 34.7435 49.8539 34.4386 49.7093C34.0493 49.5273 33.2149 49.3865 32.557 49.2974C32.0483 49.229 31.6487 49.1928 31.6487 49.1928C31.6487 49.1928 31.4995 49.2367 31.2698 49.278C30.7689 49.3684 29.8891 49.442 29.3765 48.9991C28.7213 48.4323 30.4432 46.3727 30.8727 45.8782L30.9674 45.771L30.8052 44.2796L30.3835 40.4123C30.3835 40.4123 30.124 38.1849 29.7347 36.9905C29.6306 36.6509 29.5555 36.3032 29.5102 35.951C29.3656 34.8601 29.4397 33.7515 29.7282 32.6893C29.8515 32.238 29.9297 31.7756 29.9618 31.309C30.0267 30.1146 33.6924 25.4983 34.6008 25.0787C35.0094 24.8891 35.3382 24.5628 35.5299 24.1567C35.5931 24.029 35.6406 23.8942 35.6713 23.7551C36.0606 22.0765 37.0455 22.7428 37.0455 22.7428C37.2829 24.056 40.9591 27.532 40.9591 27.532L41.0318 27.6044C41.3964 27.9762 43.021 29.722 42.9055 31.2121C42.8825 31.7667 42.9657 32.3206 43.1508 32.8443C43.8985 35.1872 44.3284 37.6191 44.4289 40.0753L44.5133 41.9618Z" fill="#DCE6F2"/>
<path opacity="0.1" d="M39.3052 32.9812C39.3052 32.9812 38.3968 35.1763 37.7156 35.5314C37.0343 35.8865 39.6296 36.2804 39.3052 32.9812Z" fill="black"/>
<path opacity="0.1" d="M39.9863 37.0811C39.9863 37.0811 37.9102 37.3393 37.9102 37.7267C37.9102 38.1141 39.9863 37.0811 39.9863 37.0811Z" fill="black"/>
<path opacity="0.1" d="M42.1599 39.5989C42.1599 39.5989 39.1429 45.9906 38.2995 46.1843C37.456 46.3779 42.1599 39.5989 42.1599 39.5989Z" fill="black"/>
<path opacity="0.1" d="M40.9021 27.8563L38.4068 28.9358L35.395 24.4087C35.4583 24.281 35.5058 24.1461 35.5365 24.0071C35.9257 22.3285 36.9106 22.9947 36.9106 22.9947C37.1481 24.3079 40.8243 27.784 40.8243 27.784L40.9021 27.8563Z" fill="black"/>
<path d="M41.032 27.598L38.5367 28.6775L35.5249 24.1504C35.5882 24.0227 35.6357 23.8878 35.6663 23.7488C36.0556 22.0702 37.0405 22.7364 37.0405 22.7364C37.278 24.0496 40.9541 27.5257 40.9541 27.5257L41.032 27.598Z" fill="#DCE6F2"/>
<path opacity="0.1" d="M44.2359 50.8715C44.2359 50.8715 41.4382 50.6132 38.8274 50.3291L43.5118 51.5494V52.9698C43.3068 53.1544 43.129 53.25 43.0135 53.2009C42.4737 52.9749 38.0683 52.2647 38.0683 52.2647C38.0683 52.2647 35.5094 50.9735 32.7481 49.424C32.681 49.387 32.6161 49.3465 32.5534 49.3026C32.2315 49.0851 31.954 48.8086 31.7359 48.4878C31.226 47.7531 30.9768 46.8092 30.8691 45.8834C30.8086 45.3528 30.786 44.8186 30.8016 44.2848C30.815 43.6795 30.8705 43.0759 30.9677 42.4783C30.7007 40.1637 30.5707 37.8354 30.5785 35.5056C30.6109 31.89 34.0171 30.5988 34.0171 30.5988C40.2782 30.05 38.3369 40.1218 38.3369 40.1218C38.3369 40.1218 37.9749 42.9625 37.8763 43.2531C37.7776 43.5436 37.4234 44.0278 37.4714 44.7057C37.5194 45.3836 38.7158 46.1946 38.7158 46.1946C38.7158 46.1946 39.8837 46.7395 40.3651 47.5465C40.7155 48.1418 42.9915 48.9488 44.2774 49.5247L44.2359 50.8715Z" fill="black"/>
<path opacity="0.1" d="M46.333 16.6533C46.3354 16.866 46.2912 17.0766 46.2033 17.2705C46.1368 17.4287 46.0596 17.5823 45.9723 17.7302C45.8357 18.0022 45.6419 18.2418 45.4039 18.4326C45.1042 18.6457 44.7253 18.7051 44.3659 18.7916C44.0064 18.8781 43.6327 19.0163 43.4277 19.321C43.3166 19.5169 43.2422 19.7313 43.2084 19.9537C43.174 20.1759 43.0848 20.3862 42.9488 20.5658C42.878 20.6534 42.78 20.7152 42.67 20.7414C42.5601 20.7676 42.4446 20.7567 42.3416 20.7104C42.233 20.6376 42.1507 20.5322 42.1067 20.4095C41.9588 20.0777 41.9211 19.7097 41.8614 19.352C41.8017 18.9943 41.7174 18.6263 41.4968 18.3384C41.2762 18.0504 40.8856 17.8606 40.5392 17.9729C40.4232 18.0174 40.3175 18.0846 40.2283 18.1707C40.1391 18.2568 40.0683 18.36 40.0201 18.4739C39.9242 18.7021 39.8584 18.9417 39.8242 19.1867C39.6633 20.063 39.4734 20.9342 39.2545 21.8002C39.2478 21.8357 39.2332 21.8693 39.2117 21.8984C39.1772 21.9326 39.1306 21.952 39.0819 21.9526C38.7913 21.9913 38.5123 21.7886 38.219 21.8105C38.1888 21.8126 38.1588 21.8173 38.1295 21.8248C37.6553 21.0048 37.446 20.0595 37.5298 19.1172C37.6136 18.1748 37.9865 17.2808 38.5979 16.5564L38.6213 16.55C38.8164 16.4811 38.9936 16.3699 39.1403 16.2246C39.3276 16.038 39.5011 15.8382 39.6594 15.6267L39.7632 15.4976C40.0615 15.14 40.4012 14.8189 40.7753 14.5408C40.8775 14.4575 40.9946 14.3944 41.1205 14.3548C41.2282 14.334 41.3387 14.3305 41.4475 14.3445C41.8956 14.398 42.3474 14.4149 42.7983 14.3949C43.1125 14.3457 43.4292 14.3138 43.7469 14.2993C44.5683 14.3226 45.269 14.8998 45.788 15.5325C46.067 15.8566 46.3162 16.2297 46.333 16.6533Z" fill="black"/>
<path d="M37.5141 17.3803C37.3338 17.6747 37.0081 17.8748 36.8861 18.1976C36.707 18.6663 37.0094 19.25 36.7317 19.6684C36.6395 19.8091 36.4877 19.9137 36.4358 20.0751C36.3476 20.3476 36.5889 20.6381 36.5266 20.9183C36.4644 21.1985 36.0932 21.4348 36.1919 21.7085C36.2501 21.8279 36.3524 21.9204 36.4773 21.9668C36.674 22.079 36.9003 22.129 37.1262 22.1101C37.4804 22.052 37.7438 21.706 38.1033 21.6801C38.3952 21.6595 38.6742 21.8609 38.9649 21.8235C39.0136 21.8218 39.0599 21.802 39.0946 21.7679C39.1167 21.7392 39.1314 21.7055 39.1375 21.6698C39.3555 20.8047 39.5458 19.9335 39.7084 19.0563C39.7416 18.8112 39.807 18.5716 39.9031 18.3435C39.9516 18.2298 40.0225 18.1268 40.1117 18.0408C40.2008 17.9548 40.3064 17.8873 40.4221 17.8425C40.7686 17.7315 41.1579 17.92 41.3798 18.2079C41.6016 18.4959 41.686 18.8639 41.7457 19.2216C41.8054 19.5793 41.843 19.9473 41.9896 20.2791C42.0342 20.4022 42.1169 20.508 42.2258 20.5813C42.4204 20.6936 42.6826 20.6045 42.8318 20.4367C42.9685 20.257 43.0577 20.0461 43.0913 19.8233C43.1252 19.6013 43.1995 19.3873 43.3106 19.1919C43.5156 18.8871 43.8906 18.749 44.2488 18.6625C44.6069 18.576 44.9845 18.5153 45.2869 18.3022C45.5245 18.1116 45.7183 17.8725 45.8552 17.6011C46.0473 17.2679 46.2264 16.9064 46.2108 16.5229C46.1939 16.1045 45.9448 15.7313 45.6788 15.4059C45.1597 14.7732 44.4577 14.196 43.6363 14.1741C43.3185 14.1873 43.0018 14.2192 42.6878 14.2696C42.2368 14.2898 41.785 14.2725 41.3369 14.218C41.228 14.205 41.1177 14.2089 41.0099 14.2296C40.8839 14.2679 40.7669 14.3311 40.6661 14.4155C40.2916 14.6932 39.9514 15.0139 39.6526 15.3711C39.46 15.6252 39.2511 15.8668 39.0272 16.0942C38.8804 16.2397 38.7032 16.3513 38.5081 16.4209C38.3784 16.457 38.2486 16.4312 38.1253 16.4712C37.7425 16.5913 37.6919 17.0884 37.5141 17.3803Z" fill="#965D7B"/>
<path opacity="0.1" d="M50.0103 20.8912C48.9722 21.081 48.1119 20.2456 47.6357 19.6361C47.4894 19.451 47.3563 19.256 47.2373 19.0525L50.8006 19.7214L50.9446 19.7485C50.9446 19.7485 51.5999 20.602 50.0103 20.8912Z" fill="black"/>
<g opacity="0.1">
<path opacity="0.1" d="M36.5266 20.5491C36.5411 20.3802 36.5153 20.2103 36.4513 20.0532C36.4513 20.0661 36.4397 20.079 36.4358 20.092C36.38 20.265 36.4552 20.4445 36.5032 20.624C36.5135 20.5998 36.5214 20.5748 36.5266 20.5491Z" fill="black"/>
<path opacity="0.1" d="M36.8356 18.4353C36.8222 18.6139 36.8257 18.7933 36.846 18.9712C36.8593 18.7926 36.8558 18.6132 36.8356 18.4353Z" fill="black"/>
<path opacity="0.1" d="M45.8474 17.2279C45.7109 17.4999 45.517 17.7395 45.2791 17.9303C44.9793 18.1434 44.6017 18.2028 44.241 18.2893C43.8802 18.3758 43.5078 18.514 43.3028 18.8187C43.1919 19.0147 43.1176 19.2291 43.0835 19.4514C43.0497 19.6742 42.9605 19.885 42.824 20.0648C42.6748 20.2326 42.4126 20.323 42.218 20.2094C42.1091 20.1361 42.0264 20.0303 41.9818 19.9072C41.8352 19.5754 41.7963 19.2087 41.7379 18.8497C41.6795 18.4907 41.5925 18.124 41.3719 17.8361C41.1513 17.5481 40.7608 17.3583 40.4143 17.4706C40.2984 17.5153 40.1928 17.5826 40.1036 17.6687C40.0145 17.7547 39.9436 17.8578 39.8952 17.9716C39.7992 18.1997 39.7337 18.4393 39.7006 18.6844C39.5388 19.5616 39.3485 20.4328 39.1296 21.2979C39.1236 21.3336 39.1089 21.3673 39.0868 21.396C39.0521 21.4301 39.0058 21.4499 38.9571 21.4516C38.6664 21.489 38.3874 21.2876 38.0954 21.3082C37.736 21.3341 37.4726 21.6801 37.1183 21.7369C36.8924 21.7571 36.6657 21.707 36.4695 21.5936C36.3793 21.555 36.2984 21.4978 36.2321 21.4257C36.2017 21.469 36.1816 21.5186 36.1733 21.5707C36.165 21.6228 36.1686 21.6761 36.184 21.7266C36.2412 21.8468 36.3438 21.9397 36.4695 21.9849C36.6657 22.0983 36.8924 22.1484 37.1183 22.1282C37.4726 22.0714 37.736 21.7253 38.0954 21.6995C38.3874 21.6788 38.6664 21.8803 38.9571 21.8428C39.0058 21.8411 39.0521 21.8213 39.0868 21.7873C39.1089 21.7585 39.1236 21.7248 39.1296 21.6892C39.3477 20.8283 39.538 19.9572 39.7006 19.0757C39.7337 18.8306 39.7992 18.5909 39.8952 18.3629C39.9436 18.249 40.0145 18.146 40.1036 18.0599C40.1928 17.9738 40.2984 17.9065 40.4143 17.8619C40.7608 17.7495 41.15 17.9394 41.3719 18.2273C41.5938 18.5153 41.6782 18.8833 41.7379 19.2409C41.7976 19.5986 41.8352 19.9666 41.9818 20.2985C42.0264 20.4216 42.1091 20.5274 42.218 20.6006C42.4126 20.713 42.6748 20.6239 42.824 20.456C42.9605 20.2763 43.0497 20.0654 43.0835 19.8427C43.1176 19.6203 43.1919 19.4059 43.3028 19.21C43.5078 18.9052 43.8828 18.7683 44.241 18.6805C44.5991 18.5927 44.9767 18.5346 45.2791 18.3216C45.517 18.1307 45.7109 17.8912 45.8474 17.6191C46.0395 17.2873 46.2186 16.9257 46.203 16.5422C46.2004 16.4929 46.1952 16.4438 46.1874 16.395C46.1248 16.6906 46.0097 16.9726 45.8474 17.2279Z" fill="black"/>
</g>
<path opacity="0.1" d="M46.2082 17.2665C46.5409 17.8553 46.7382 18.5102 46.7856 19.1841C45.6294 18.5384 44.542 17.8295 43.9931 17.5829C43.0368 17.1529 39.4605 17.2175 38.1162 17.2575C38.2568 17.0075 38.4211 16.7715 38.6067 16.5525C38.9139 16.1894 39.2749 15.875 39.6772 15.6202C40.2101 15.2837 40.8063 15.0588 41.4295 14.9594C42.0526 14.8599 42.6896 14.888 43.3015 15.0419C43.9134 15.1957 44.4873 15.4721 44.9882 15.8542C45.4891 16.2363 45.9064 16.716 46.2147 17.264L46.2082 17.2665Z" fill="black"/>
<path opacity="0.1" d="M50.3347 20.3437C49.7106 20.5349 48.6919 20.1656 47.6357 19.6361C47.4894 19.451 47.3563 19.256 47.2373 19.0525L50.8006 19.7214C51.0367 19.8815 51.0964 20.11 50.3347 20.3437Z" fill="black"/>
<path d="M42.4362 12.7898C42.4362 12.7898 39.0299 12.5961 38.0723 14.4361L37.9179 16.067L37.6583 16.0386L37.6064 17.1478C37.6064 17.1478 42.8125 16.9218 43.9972 17.4538C45.1819 17.9858 48.8633 20.6664 50.3387 20.2145C51.8141 19.7626 50.2089 19.3429 50.2089 19.3429C50.2089 19.3429 48.1781 18.4868 48.1781 17.8154C48.1781 17.1439 47.6747 13.5968 42.4362 12.7898Z" fill="#1B367C"/>
<path opacity="0.1" d="M35.8662 73.2463C35.8662 73.2463 38.0397 75.3446 38.9805 75.1832C38.9805 75.1832 36.3204 74.9572 35.8662 73.2463Z" fill="black"/>
<path opacity="0.1" d="M35.4121 74.2188C35.4121 74.2188 35.6068 75.2983 36.1258 75.1924C36.6449 75.0865 35.4121 74.2188 35.4121 74.2188Z" fill="black"/>
<path opacity="0.1" d="M38.8184 92.26C38.8184 92.26 35.7326 94.6488 36.253 94.7134C36.7733 94.7779 38.8184 92.26 38.8184 92.26Z" fill="black"/>
<path d="M42.9463 44.8491L52.938 43.2312V52.6444L43.4446 52.1499L42.9463 44.8491Z" fill="#3166ED"/>
<path opacity="0.05" d="M42.9463 44.8491L52.938 43.2312V52.6444L43.4446 52.1499L42.9463 44.8491Z" fill="black"/>
<path d="M52.9375 43.2312L64.9197 44.1235L64.2566 52.3151L52.9375 52.6444V43.2312Z" fill="#3166ED"/>
<path opacity="0.1" d="M52.9375 43.2312L64.9197 44.1235L64.2566 52.3151L52.9375 52.6444V43.2312Z" fill="black"/>
<path d="M56.6215 40.3582L52.9375 43.2312L64.9197 44.1235L66.8779 41.1833L56.6215 40.3582Z" fill="#3166ED"/>
<path d="M39.3281 41.7114L48.3232 40.6216L52.9376 43.2312L42.9459 44.8491L39.3281 41.7114Z" fill="#3166ED"/>
<path d="M55.1284 45.6755V58.5455L50.4478 58.0677L48.4119 57.8611L47.7916 57.7965L45.7569 57.5886L42.9463 57.302V44.8491L52.9367 45.5257L55.1284 45.6755Z" fill="#3166ED"/>
<path d="M64.9203 44.1235V56.6745L61.1688 57.3912L59.3444 57.7398L55.1284 58.5456V45.6756L64.9203 44.1235Z" fill="#3166ED"/>
<path opacity="0.05" d="M64.9203 44.1235V56.6745L61.1688 57.3912L59.3444 57.7398L55.1284 58.5456V45.6756L64.9203 44.1235Z" fill="black"/>
<path d="M39.3281 47.5582L42.9459 44.8491L55.128 45.6755L53.3346 48.6816L39.3281 47.5582Z" fill="#3166ED"/>
<path opacity="0.1" d="M39.3281 47.5582L42.9459 44.8491L55.128 45.6755L53.3346 48.6816L39.3281 47.5582Z" fill="white"/>
<path d="M64.9202 44.1235L55.1284 45.6756L58.3154 48.5164L68.804 46.7654L64.9202 44.1235Z" fill="#3166ED"/>
<path opacity="0.1" d="M64.9202 44.1235L55.1284 45.6756L58.3154 48.5164L68.804 46.7654L64.9202 44.1235Z" fill="white"/>
<path opacity="0.1" d="M61.1687 57.3911L59.3442 57.7398V55.0578L61.0532 54.6292L61.1687 57.3911Z" fill="white"/>
<path opacity="0.1" d="M50.4476 56.2935V58.0676L48.4116 57.861V56.2935H50.4476Z" fill="white"/>
<path opacity="0.1" d="M47.7915 56.8525V57.7964L45.7568 57.5886V56.8525H47.7915Z" fill="white"/>
<path opacity="0.1" d="M53.9033 55.3523C52.5084 57.1278 47.9018 55.9011 47.9018 55.9011L44.4787 52.3475L44.0142 51.8659L44.9225 50.1873C44.9225 50.1873 45.182 50.2725 45.6154 50.4223C47.9096 51.2203 55.0777 53.8583 53.9033 55.3523Z" fill="black"/>
<path d="M53.7735 55.094C52.3785 56.8694 47.772 55.6427 47.772 55.6427L44.3488 52.0892L43.8843 51.6076L44.7926 49.929C44.7926 49.929 45.0521 50.0142 45.4855 50.164C47.7797 50.962 54.9478 53.6 53.7735 55.094Z" fill="#EFB7B9"/>
<path opacity="0.1" d="M45.4802 50.164C45.2907 50.7063 44.8093 51.5094 44.3435 52.0892L43.8789 51.6076L44.7872 49.929C44.7872 49.929 45.0481 50.0142 45.4802 50.164Z" fill="black"/>
<path d="M34.147 30.0824C34.147 30.0824 30.7408 31.3737 30.7083 34.9892C30.7006 37.319 30.8306 39.6473 31.0976 41.962C31.0976 41.962 30.1244 47.353 32.8818 48.9025C35.6393 50.452 38.2021 51.7432 38.2021 51.7432C38.2021 51.7432 42.6075 52.4534 43.1486 52.6794C43.6897 52.9053 45.57 50 45.278 49.5158C44.986 49.0316 40.9751 47.8372 40.4989 47.0301C40.0226 46.2231 38.8496 45.6795 38.8496 45.6795C38.8496 45.6795 37.6532 44.8673 37.6052 44.1894C37.5572 43.5115 37.9101 43.0273 38.01 42.7367C38.11 42.4462 38.472 39.6054 38.472 39.6054C38.472 39.6054 40.408 29.5272 34.147 30.0824Z" fill="#DCE6F2"/>
<path opacity="0.1" d="M35.704 42.0522C35.704 42.0522 31.0974 42.5687 31.4543 44.1828C31.4543 44.1828 33.2048 42.5545 35.704 42.0522Z" fill="black"/>
<path opacity="0.1" d="M35.7037 42.698C35.7037 42.698 33.089 44.6026 33.5691 44.7317C34.0492 44.8609 35.7037 42.698 35.7037 42.698Z" fill="black"/>
<path opacity="0.1" d="M36.872 43.4727C36.872 43.4727 36.1259 44.8078 36.5476 44.7381C36.9693 44.6683 36.872 43.4727 36.872 43.4727Z" fill="black"/>
<path d="M84.8348 14.5125C84.8348 14.5125 79.9038 14.2168 80.4799 17.6592C80.4799 17.6592 80.3644 18.2674 80.9185 18.5437C80.9185 18.5437 80.9276 18.2855 81.4246 18.3746C81.6016 18.4042 81.7815 18.4129 81.9605 18.4004C82.2031 18.3843 82.4338 18.2895 82.6171 18.1305C82.6171 18.1305 84.0043 17.5611 84.5441 15.304C84.5441 15.304 84.9438 14.8107 84.9334 14.6842L84.1003 15.0393C84.1003 15.0393 84.3845 15.6371 84.16 16.1343C84.16 16.1343 84.134 15.0612 83.9731 15.0858C83.9407 15.0858 83.541 15.2937 83.541 15.2937C83.541 15.2937 84.0302 16.3344 83.6604 17.0924C83.6604 17.0924 83.8005 15.8089 83.3879 15.3686L82.8014 15.7095C82.8014 15.7095 83.3736 16.7851 82.9856 17.6631C82.9856 17.6631 83.0856 16.3163 82.6781 15.7921L82.1461 16.204C82.1461 16.204 82.6846 17.2654 82.3563 17.9937C82.3563 17.9937 82.3135 16.4261 82.0306 16.3073C82.0306 16.3073 81.566 16.7153 81.496 16.8832C81.496 16.8832 81.8632 17.658 81.6348 18.0595C81.6348 18.0595 81.4947 17.0149 81.3753 17.0097C81.3753 17.0097 80.912 17.7019 80.864 18.1719C80.8865 17.7337 81.0238 17.309 81.2624 16.94C80.9954 16.9903 80.7491 17.1173 80.5539 17.3054C80.5539 17.3054 80.6253 16.8161 81.3766 16.7734C81.3766 16.7734 81.7659 16.2479 81.8619 16.2156C81.8619 16.2156 81.1145 16.1536 80.6616 16.3538C80.6616 16.3538 81.06 15.8928 81.9994 16.0955L82.5185 15.6694C82.5185 15.6694 81.5349 15.5403 81.1171 15.6836C81.1171 15.6836 81.5972 15.2756 82.6599 15.5726L83.2309 15.233C83.2309 15.233 82.3926 15.0522 81.893 15.1181C81.893 15.1181 82.4199 14.8353 83.3983 15.1413L83.807 14.9592C83.807 14.9592 83.192 14.8391 83.0129 14.8198C82.8338 14.8004 82.8234 14.7513 82.8234 14.7513C83.2126 14.6869 83.612 14.7316 83.977 14.8805C83.977 14.8805 84.8529 14.5667 84.8348 14.5125Z" fill="#3166ED"/>
<path opacity="0.1" d="M99.8166 31.73C99.8166 31.73 94.8857 31.4343 95.4619 34.8768C95.4619 34.8768 95.3464 35.485 95.9005 35.7613C95.9005 35.7613 95.9095 35.503 96.4078 35.5921C96.5848 35.6218 96.7647 35.6304 96.9437 35.618C97.1835 35.6007 97.4112 35.5064 97.5925 35.3494C97.5925 35.3494 98.981 34.7786 99.5208 32.5215C99.5208 32.5215 99.9191 32.0296 99.9036 31.903L99.0705 32.2568C99.0705 32.2568 99.3547 32.8547 99.1315 33.3518C99.1315 33.3518 99.1042 32.2788 98.9446 32.3033C98.9122 32.3033 98.5112 32.5112 98.5112 32.5112C98.5112 32.5112 99.0017 33.5532 98.6319 34.3099C98.6319 34.3099 98.7721 33.0264 98.3581 32.5861L97.7781 32.9231C97.7781 32.9231 98.3503 33.9987 97.9624 34.8768C97.9624 34.8768 98.0623 33.53 97.6548 33.0058L97.1241 33.419C97.1241 33.419 97.6613 34.4791 97.3343 35.2073C97.3343 35.2073 97.2915 33.6398 97.0086 33.521C97.0086 33.521 96.5441 33.929 96.4727 34.0969C96.4727 34.0969 96.8412 34.8716 96.6128 35.2732C96.6128 35.2732 96.4727 34.2286 96.3533 34.2234C96.3533 34.2234 95.8901 34.9155 95.8421 35.3855C95.8652 34.9473 96.003 34.5227 96.2417 34.1537C95.9744 34.2041 95.7277 34.3311 95.5319 34.5191C95.5319 34.5191 95.6046 34.0297 96.3559 33.9871C96.3559 33.9871 96.7387 33.4616 96.8412 33.4293C96.8412 33.4293 96.0938 33.3673 95.6409 33.5674C95.6409 33.5674 96.0393 33.1065 96.9775 33.3157L97.4965 32.8895C97.4965 32.8895 96.5116 32.7604 96.0951 32.9037C96.0951 32.9037 96.5752 32.4957 97.6379 32.7927L98.2089 32.4531C98.2089 32.4531 97.3693 32.2736 96.8698 32.3382C96.8698 32.3382 97.3979 32.0554 98.3763 32.3614L98.785 32.1793C98.785 32.1793 98.17 32.0593 97.9896 32.0399C97.8092 32.0205 97.8001 31.9715 97.8001 31.9715C98.1897 31.907 98.5896 31.9517 98.955 32.1006C98.955 32.1006 99.8322 31.7842 99.8166 31.73Z" fill="#3166ED"/>
<path opacity="0.1" d="M69.8612 28.6736C69.8612 28.6736 70.9966 23.8843 67.4878 23.8676C67.4878 23.8676 66.9052 23.6506 66.5379 24.1465C66.5379 24.1465 66.7884 24.1994 66.6184 24.672C66.5596 24.8391 66.5204 25.0124 66.5016 25.1885C66.4765 25.4285 66.5307 25.6702 66.656 25.8767C66.656 25.8767 66.9843 27.3359 69.1215 28.2501C69.1215 28.2501 69.542 28.7253 69.6691 28.7304L69.4615 27.8537C69.4615 27.8537 68.8205 28.0306 68.3663 27.7245C68.3663 27.7245 69.4342 27.8808 69.4355 27.7245C69.4355 27.6922 69.3058 27.2648 69.3058 27.2648C69.3058 27.2648 68.1911 27.567 67.5034 27.075C67.5034 27.075 68.7504 27.4314 69.2578 27.1021L69.0242 26.4669C69.0242 26.4669 67.8563 26.8452 67.057 26.3145C67.057 26.3145 68.3741 26.6425 68.9632 26.3326L68.6453 25.7412C68.6453 25.7412 67.5034 26.0872 66.8377 25.6417C66.8377 25.6417 68.3948 25.8664 68.5635 25.6107C68.5635 25.6107 68.2391 25.0852 68.0847 24.9871C68.0847 24.9871 67.2594 25.2169 66.8961 24.9238C66.8961 24.9238 67.9537 24.9638 67.9783 24.8528C67.9783 24.8528 67.3723 24.2808 66.9104 24.1516C67.3409 24.2492 67.7384 24.4565 68.064 24.7534C68.0592 24.4827 67.9753 24.2194 67.8226 23.9954C67.8226 23.9954 68.2949 24.1503 68.2119 24.8993C68.2119 24.8993 68.6661 25.3641 68.6803 25.47C68.6803 25.47 68.8685 24.7482 68.7478 24.2691C68.7478 24.2691 69.1371 24.7392 68.7699 25.6237L69.1021 26.2112C69.1021 26.2112 69.4031 25.2686 69.3265 24.8347C69.3265 24.8347 69.6497 25.3744 69.1734 26.3661L69.4135 26.9846C69.4135 26.9846 69.734 26.1918 69.7548 25.6934C69.7548 25.6934 69.9455 26.259 69.4745 27.1667L69.5861 27.598C69.5861 27.598 69.8093 27.0156 69.8586 26.8426C69.9079 26.6696 69.9585 26.6683 69.9585 26.6683C69.9565 27.0611 69.8446 27.4456 69.6354 27.7788C69.6354 27.7788 69.8054 28.6801 69.8612 28.6736Z" fill="#3166ED"/>
<path opacity="0.1" d="M59.0622 30.3056C59.0622 30.3056 55.1019 27.3577 53.6862 30.5509C53.6862 30.5509 53.2541 30.9964 53.5642 31.5297C53.5642 31.5297 53.7121 31.3218 54.0832 31.6666C54.2147 31.7883 54.3602 31.894 54.5166 31.9816C54.7286 32.0991 54.9733 32.1444 55.2135 32.1108C55.2135 32.1108 56.6876 32.3935 58.3849 30.804C58.3849 30.804 58.9909 30.6103 59.048 30.4967L58.1539 30.3405C58.1539 30.3405 58.0605 30.9951 57.5998 31.2882C57.5998 31.2882 58.1695 30.3766 58.0215 30.3108C57.9917 30.2966 57.5453 30.2462 57.5453 30.2462C57.5453 30.2462 57.3792 31.3851 56.6525 31.8151C56.6525 31.8151 57.4791 30.8195 57.3766 30.2255L56.6979 30.1894C56.6979 30.1894 56.5825 31.4019 55.7727 31.9235C55.7727 31.9235 56.5993 30.8531 56.5513 30.192L55.8791 30.2462C55.8791 30.2462 55.7429 31.4251 55.0668 31.8538C55.0668 31.8538 55.896 30.5212 55.726 30.2681C55.726 30.2681 55.1123 30.3547 54.9604 30.4554C54.9604 30.4554 54.8423 31.2999 54.4271 31.5142C54.4271 31.5142 54.8878 30.5651 54.7943 30.4993C54.7943 30.4993 54.0248 30.8234 53.7225 31.1927C53.984 30.8391 54.3338 30.5596 54.7372 30.3818C54.4862 30.278 54.2103 30.2492 53.9431 30.2991C53.9431 30.2991 54.2727 29.9298 54.9241 30.3056C54.9241 30.3056 55.534 30.077 55.6378 30.1055C55.6378 30.1055 55.0474 29.6445 54.5582 29.5644C54.5582 29.5644 55.1473 29.3966 55.8156 30.0809L56.489 30.0125C56.489 30.0125 55.7403 29.3669 55.3108 29.2584C55.3108 29.2584 55.9375 29.1796 56.6603 30.0086L57.3247 30.0383C57.3247 30.0383 56.7239 29.4288 56.271 29.2093C56.271 29.2093 56.8666 29.261 57.5155 30.0525L57.9579 30.1235C57.9579 30.1235 57.5103 29.6871 57.3701 29.5735C57.23 29.4598 57.2494 29.4121 57.2494 29.4121C57.6104 29.5711 57.92 29.8268 58.1435 30.1506C58.1435 30.1506 59.0454 30.3585 59.0622 30.3056Z" fill="#3166ED"/>
<path opacity="0.1" d="M72.2478 2.91701C72.2478 2.91701 68.2874 -0.03221 66.8717 3.16235C66.8717 3.16235 66.4396 3.60784 66.7497 4.14112C66.7497 4.14112 66.8977 3.93323 67.2688 4.278C67.4009 4.39906 67.5468 4.50436 67.7035 4.59177C67.9154 4.70929 68.1601 4.75464 68.4003 4.7209C68.4003 4.7209 69.8744 5.00368 71.5717 3.41286C71.5717 3.41286 72.1777 3.22046 72.2335 3.10554L71.3394 2.95188C71.3394 2.95188 71.2473 3.60654 70.7853 3.89966C70.7853 3.89966 71.3563 2.98803 71.2084 2.92218C71.1785 2.90798 70.7321 2.85762 70.7321 2.85762C70.7321 2.85762 70.5609 3.99909 69.8342 4.42649C69.8342 4.42649 70.6595 3.43093 70.5583 2.83696L69.8796 2.8008C69.8796 2.8008 69.7628 4.01329 68.9544 4.53366C68.9544 4.53366 69.781 3.46322 69.733 2.80209L69.0621 2.85633C69.0621 2.85633 68.9245 4.03653 68.2485 4.46523C68.2485 4.46523 69.079 3.13265 68.909 2.87957C68.909 2.87957 68.2952 2.96608 68.1434 3.0668C68.1434 3.0668 68.0253 3.91128 67.6101 4.12563C67.6101 4.12563 68.0707 3.17656 67.9773 3.10941C67.9773 3.10941 67.2078 3.43481 66.9055 3.80411C67.1666 3.45014 67.5165 3.17053 67.9202 2.9932C67.6689 2.88861 67.3923 2.85987 67.1247 2.91056C67.1247 2.91056 67.4556 2.54126 68.1071 2.91701C68.1071 2.91701 68.7169 2.68717 68.8207 2.71687C68.8207 2.71687 68.2303 2.25589 67.7411 2.17454C67.7411 2.17454 68.3289 2.00797 68.9972 2.69105L69.6707 2.62261C69.6707 2.62261 68.9233 1.97698 68.4924 1.86722C68.4924 1.86722 69.1192 1.78975 69.8433 2.61873L70.5077 2.64714C70.5077 2.64714 69.9069 2.03767 69.4527 1.81945C69.4527 1.81945 70.0496 1.8711 70.6984 2.66264L71.1396 2.73366C71.1396 2.73366 70.6906 2.30238 70.5505 2.19133C70.4103 2.08028 70.4298 2.03121 70.4298 2.03121C70.7909 2.19011 71.1005 2.44585 71.3239 2.76981C71.3239 2.76981 72.2257 2.96608 72.2478 2.91701Z" fill="#3166ED"/>
<path opacity="0.1" d="M87.3806 6.65257C87.3806 6.65257 85.7975 1.98985 82.8117 3.82214C82.8117 3.82214 82.2018 3.95127 82.1538 4.55945C82.1538 4.55945 82.3939 4.47164 82.5003 4.96232C82.5398 5.13686 82.5995 5.30628 82.678 5.4672C82.7853 5.68377 82.9601 5.85999 83.1763 5.9695C83.1763 5.9695 84.23 7.03478 86.5346 6.68227C86.5346 6.68227 87.1432 6.86563 87.2547 6.80236L86.6059 6.16835C86.6059 6.16835 86.157 6.65515 85.6094 6.63579C85.6094 6.63579 86.5994 6.20709 86.5177 6.06892C86.5008 6.04181 86.1621 5.74869 86.1621 5.74869C86.1621 5.74869 85.3758 6.59188 84.5323 6.53636C84.5323 6.53636 85.7794 6.18256 86.0337 5.63248L85.4965 5.22057C85.4965 5.22057 84.7101 6.15286 83.746 6.12445C83.746 6.12445 85.0436 5.70996 85.3719 5.13664L84.788 4.8022C84.788 4.8022 84.0094 5.69704 83.2023 5.66864C83.2023 5.66864 84.6452 5.03979 84.6491 4.73506C84.6491 4.73506 84.095 4.46002 83.9121 4.45744C83.9121 4.45744 83.3333 5.08628 82.874 5.02947C82.874 5.02947 83.7927 4.50651 83.7538 4.39933C83.7538 4.39933 82.9363 4.23276 82.4756 4.36705C82.8923 4.2227 83.3396 4.18931 83.7732 4.27021C83.6252 4.04282 83.4137 3.86332 83.1647 3.75371C83.1647 3.75371 83.6474 3.6362 83.9705 4.31282C83.9705 4.31282 84.6037 4.46906 84.6712 4.55041C84.6712 4.55041 84.448 3.83893 84.0912 3.49545C84.0912 3.49545 84.6712 3.69043 84.8295 4.63434L85.4238 4.95715C85.4238 4.95715 85.1786 4.00034 84.8827 3.6659C84.8827 3.6659 85.4446 3.95514 85.5665 5.04625L86.0986 5.44525C86.0986 5.44525 85.9506 4.60335 85.7015 4.16691C85.7015 4.16691 86.1634 4.54654 86.2465 5.56534L86.5696 5.87265C86.5696 5.87265 86.4502 5.2606 86.4009 5.08757C86.3516 4.91454 86.3918 4.90292 86.3918 4.90292C86.5981 5.23789 86.7072 5.62312 86.7072 6.01598C86.7072 6.01598 87.3352 6.68615 87.3806 6.65257Z" fill="#EC6689"/>
<path opacity="0.1" d="M77.0489 6.88242C77.0489 6.88242 72.1309 6.33751 72.537 9.80969C72.537 9.80969 72.3904 10.4114 72.9263 10.7136C72.9263 10.7136 72.9484 10.4553 73.4454 10.5715C73.621 10.6091 73.8003 10.6269 73.98 10.6245C74.2226 10.6201 74.4572 10.5371 74.6483 10.3882C74.6483 10.3882 76.064 9.88845 76.7245 7.66104C76.7245 7.66104 77.1475 7.18973 77.1384 7.0619L76.2885 7.37438C76.2885 7.37438 76.548 7.98515 76.2885 8.47066C76.2885 8.47066 76.3157 7.39763 76.1587 7.41441C76.1263 7.41441 75.7162 7.60035 75.7162 7.60035C75.7162 7.60035 76.1522 8.66564 75.7448 9.40811C75.7448 9.40811 75.9498 8.13235 75.5592 7.67266L74.9558 7.98256C74.9558 7.98256 75.4748 9.08658 75.0401 9.94398C75.0401 9.94398 75.2088 8.60366 74.8286 8.06004L74.2771 8.44741C74.2771 8.44741 74.7599 9.53336 74.3952 10.2448C74.3952 10.2448 74.4329 8.67726 74.1565 8.54426C74.1565 8.54426 73.6711 8.93164 73.592 9.09175C73.592 9.09175 73.9203 9.87941 73.6724 10.2732C73.6724 10.2732 73.5855 9.22346 73.4713 9.21313C73.4713 9.21313 72.973 9.88071 72.9004 10.352C72.9454 9.91506 73.1046 9.49746 73.3623 9.14082C73.093 9.17785 72.8405 9.29228 72.6356 9.47009C72.6356 9.47009 72.7317 8.98587 73.4843 8.9807C73.4843 8.9807 73.893 8.47582 74.0033 8.44871C74.0033 8.44871 73.2598 8.34928 72.7965 8.52618C72.7965 8.52618 73.2183 8.08457 74.1448 8.34153L74.6911 7.94253C74.6911 7.94253 73.7036 7.74368 73.2858 7.87281C73.2858 7.87281 73.7866 7.48543 74.8325 7.84053L75.4203 7.52933C75.4203 7.52933 74.5912 7.30724 74.089 7.34727C74.089 7.34727 74.6301 7.08902 75.5916 7.44669L76.0095 7.28529C76.0095 7.28529 75.4009 7.13421 75.2218 7.1058C75.0427 7.07739 75.0362 7.02833 75.0362 7.02833C75.4285 6.98354 75.8256 7.0479 76.1833 7.21427C76.1833 7.21427 77.0579 6.93665 77.0489 6.88242Z" fill="#3166ED"/>
<path opacity="0.1" d="M120.078 44.8671C120.078 44.8671 115.163 44.3222 115.569 47.7905C115.569 47.7905 115.422 48.3922 115.958 48.6944C115.958 48.6944 115.98 48.4361 116.477 48.551C116.653 48.5899 116.832 48.6077 117.012 48.604C117.255 48.6003 117.489 48.5172 117.68 48.3677C117.68 48.3677 119.096 47.868 119.75 45.6418C119.75 45.6418 120.173 45.1692 120.164 45.0427L119.314 45.3539C119.314 45.3539 119.573 45.9659 119.314 46.4515C119.314 46.4515 119.341 45.3771 119.184 45.3952C119.152 45.3952 118.741 45.5799 118.741 45.5799C118.741 45.5799 119.177 46.6451 118.77 47.3876C118.77 47.3876 118.975 46.1131 118.584 45.6522L117.981 45.9634C117.981 45.9634 118.5 47.0674 118.067 47.9248C118.067 47.9248 118.234 46.5845 117.854 46.0395L117.302 46.4269C117.302 46.4269 117.785 47.5129 117.42 48.2231C117.42 48.2231 117.458 46.6555 117.182 46.5238C117.182 46.5238 116.698 46.9111 116.617 47.0713C116.617 47.0713 116.947 47.8589 116.698 48.2528C116.698 48.2528 116.611 47.203 116.497 47.1926C116.497 47.1926 115.998 47.8602 115.926 48.3315C115.971 47.8946 116.13 47.477 116.388 47.1203C116.118 47.1567 115.865 47.2712 115.661 47.4496C115.661 47.4496 115.757 46.9641 116.51 46.9589C116.51 46.9589 116.92 46.454 117.029 46.4282C117.029 46.4282 116.285 46.3275 115.822 46.5044C115.822 46.5044 116.244 46.0641 117.171 46.321L117.716 45.922C117.716 45.922 116.741 45.7387 116.316 45.8652C116.316 45.8652 116.817 45.4779 117.863 45.8317L118.451 45.5218C118.451 45.5218 117.622 45.2997 117.119 45.3397C117.119 45.3397 117.661 45.0814 118.622 45.4391L119.04 45.2764C119.04 45.2764 118.431 45.1253 118.252 45.0982C118.073 45.0711 118.067 45.0207 118.067 45.0207C118.459 44.9751 118.856 45.0391 119.214 45.2054C119.214 45.2054 120.091 44.9226 120.078 44.8671Z" fill="#3166ED"/>
<path opacity="0.1" d="M127.593 49.4355C127.593 49.4355 122.677 48.8919 123.083 52.3589C123.083 52.3589 122.938 52.9606 123.473 53.2628C123.473 53.2628 123.495 53.0045 123.992 53.1207C124.167 53.1587 124.346 53.176 124.525 53.1724C124.767 53.1675 125 53.085 125.191 52.9374C125.191 52.9374 126.605 52.4377 127.259 50.2103C127.259 50.2103 127.683 49.739 127.673 49.6111L126.823 49.9223C126.823 49.9223 127.083 50.5344 126.823 51.0199C126.823 51.0199 126.85 49.9469 126.693 49.9636C126.661 49.9636 126.251 50.1483 126.251 50.1483C126.251 50.1483 126.687 51.2136 126.279 51.956C126.279 51.956 126.484 50.6816 126.094 50.2219L125.49 50.5318C125.49 50.5318 126.01 51.6358 125.576 52.4932C125.576 52.4932 125.744 51.1529 125.363 50.6093L124.812 50.9966C124.812 50.9966 125.295 52.0826 124.931 52.7941C124.931 52.7941 124.968 51.2252 124.691 51.0935C124.691 51.0935 124.207 51.4809 124.127 51.641C124.127 51.641 124.456 52.4286 124.207 52.8225C124.207 52.8225 124.12 51.7727 124.006 51.7624C124.006 51.7624 123.508 52.4299 123.436 52.9012C123.481 52.4645 123.64 52.047 123.897 51.69C123.628 51.7271 123.375 51.8415 123.17 52.0193C123.17 52.0193 123.268 51.5338 124.02 51.5299C124.02 51.5299 124.429 51.025 124.539 50.9979C124.539 50.9979 123.796 50.8985 123.333 51.0754C123.333 51.0754 123.754 50.6338 124.682 50.8908L125.227 50.4918C125.227 50.4918 124.251 50.3084 123.827 50.4349C123.827 50.4349 124.328 50.0476 125.374 50.4027L125.962 50.0915C125.962 50.0915 125.132 49.8694 124.63 49.9094C124.63 49.9094 125.171 49.6512 126.133 50.0088L126.551 49.8474C126.551 49.8474 125.942 49.6964 125.764 49.6679C125.587 49.6395 125.577 49.5905 125.577 49.5905C125.97 49.5457 126.367 49.61 126.725 49.7764C126.725 49.7764 127.606 49.491 127.593 49.4355Z" fill="#3166ED"/>
<path opacity="0.1" d="M110.909 10.955C110.909 10.955 106.949 8.00709 105.533 11.2004C105.533 11.2004 105.101 11.6458 105.411 12.1791C105.411 12.1791 105.559 11.9712 105.93 12.316C106.061 12.4377 106.207 12.5434 106.363 12.6311C106.575 12.7484 106.82 12.7937 107.06 12.7602C107.06 12.7602 108.534 13.043 110.233 11.4534C110.233 11.4534 110.837 11.2597 110.895 11.1461L110.003 10.986C110.003 10.986 109.91 11.6407 109.449 11.9338C109.449 11.9338 110.019 11.0222 109.871 10.9563C109.841 10.9421 109.396 10.8917 109.396 10.8917C109.396 10.8917 109.228 12.0306 108.502 12.4606C108.502 12.4606 109.328 11.4651 109.226 10.8711L108.547 10.8349C108.547 10.8349 108.432 12.0474 107.622 12.5691C107.622 12.5691 108.45 11.4986 108.401 10.8375L107.728 10.8917C107.728 10.8917 107.599 12.0707 106.916 12.4994C106.916 12.4994 107.747 11.1668 107.575 10.9137C107.575 10.9137 106.962 11.0002 106.81 11.1009C106.81 11.1009 106.693 11.9454 106.278 12.1598C106.278 12.1598 106.737 11.2107 106.644 11.1448C106.644 11.1448 105.874 11.4689 105.572 11.8382C105.833 11.4846 106.183 11.2051 106.587 11.0273C106.335 10.9235 106.06 10.8948 105.792 10.9447C105.792 10.9447 106.123 10.5754 106.775 10.9511C106.775 10.9511 107.383 10.7226 107.487 10.751C107.487 10.751 106.897 10.29 106.407 10.21C106.407 10.21 106.997 10.0421 107.665 10.7265L108.338 10.658C108.338 10.658 107.591 10.0124 107.16 9.90393C107.16 9.90393 107.787 9.82517 108.51 10.6542L109.175 10.6839C109.175 10.6839 108.573 10.0744 108.12 9.85487C108.12 9.85487 108.717 9.90652 109.365 10.6981L109.807 10.7691C109.807 10.7691 109.359 10.3326 109.219 10.219C109.079 10.1054 109.1 10.0679 109.1 10.0679C109.46 10.2273 109.769 10.4829 109.993 10.8065C109.993 10.8065 110.892 11.008 110.909 10.955Z" fill="#EC6689"/>
<path opacity="0.1" d="M113.969 32.2375C113.969 32.2375 112.604 27.5076 109.533 29.2056C109.533 29.2056 108.918 29.2999 108.842 29.9119C108.842 29.9119 109.086 29.8357 109.17 30.3303C109.201 30.5079 109.254 30.6813 109.326 30.8468C109.422 31.0693 109.589 31.2543 109.801 31.3736C109.801 31.3736 110.805 32.4841 113.123 32.2362C113.123 32.2362 113.722 32.4453 113.836 32.3885L113.223 31.7248C113.223 31.7248 112.752 32.1923 112.207 32.1484C112.207 32.1484 113.213 31.761 113.136 31.6228C113.12 31.5944 112.796 31.2858 112.796 31.2858C112.796 31.2858 111.973 32.0941 111.132 31.9999C111.132 31.9999 112.395 31.7029 112.672 31.1683L112.153 30.7319C112.153 30.7319 111.325 31.628 110.364 31.5583C110.364 31.5583 111.672 31.2006 112.033 30.644L111.464 30.2838C111.464 30.2838 110.64 31.1425 109.841 31.0779C109.841 31.0779 111.311 30.5136 111.329 30.2102C111.329 30.2102 110.787 29.9106 110.604 29.9003C110.604 29.9003 109.998 30.502 109.537 30.4245C109.537 30.4245 110.479 29.9429 110.446 29.8344C110.446 29.8344 109.636 29.6317 109.17 29.744C109.592 29.6195 110.039 29.6066 110.468 29.7066C110.33 29.473 110.127 29.2844 109.884 29.1643C109.884 29.1643 110.372 29.0674 110.662 29.7582C110.662 29.7582 111.287 29.9416 111.351 30.0268C111.351 30.0268 111.161 29.305 110.819 28.9473C110.819 28.9473 111.39 29.1669 111.506 30.1172L112.085 30.4671C112.085 30.4671 111.882 29.4987 111.602 29.1578C111.602 29.1578 112.149 29.4716 112.223 30.5666L112.742 30.9888C112.742 30.9888 112.632 30.1417 112.404 29.6976C112.404 29.6976 112.849 30.0978 112.885 31.1179L113.194 31.4407C113.194 31.4407 113.103 30.8235 113.064 30.6479C113.025 30.4723 113.064 30.4478 113.064 30.4478C113.256 30.7912 113.348 31.1811 113.33 31.5737C113.33 31.5737 113.922 32.2684 113.969 32.2375Z" fill="#EC6689"/>
<path opacity="0.1" d="M83.5497 42.8954C83.5497 42.8954 80.8987 38.7401 78.4371 41.2271C78.4371 41.2271 77.8739 41.4853 77.9725 42.0987C77.9725 42.0987 78.1866 41.9566 78.4072 42.4086C78.4865 42.5687 78.585 42.7188 78.7005 42.8553C78.8552 43.0418 79.0672 43.1724 79.3039 43.2272C79.3039 43.2272 80.5821 44.0123 82.7361 43.1239C82.7361 43.1239 83.3706 43.1575 83.4641 43.071L82.6855 42.6061C82.6855 42.6061 82.365 43.1872 81.8291 43.297C81.8291 43.297 82.6881 42.6513 82.5726 42.5325C82.5505 42.5093 82.1509 42.3053 82.1509 42.3053C82.1509 42.3053 81.589 43.3099 80.7559 43.4558C80.7559 43.4558 81.8836 42.8166 82.0003 42.2252L81.3788 41.9528C81.3788 41.9528 80.8377 43.0439 79.8956 43.244C79.8956 43.244 81.0505 42.5351 81.2386 41.8998L80.5898 41.7139C80.5898 41.7139 80.0422 42.7688 79.2572 42.9302C79.2572 42.9302 80.5081 41.9773 80.4393 41.6803C80.4393 41.6803 79.8346 41.5447 79.6607 41.5861C79.6607 41.5861 79.2494 42.3337 78.7848 42.3879C78.7848 42.3879 79.553 41.6622 79.4895 41.5667C79.4895 41.5667 78.6551 41.599 78.2398 41.8378C78.6102 41.5991 79.0371 41.461 79.4778 41.4376C79.2805 41.2517 79.0328 41.1274 78.7654 41.0799C78.7654 41.0799 79.2053 40.8513 79.6737 41.4324C79.6737 41.4324 80.3225 41.4324 80.4121 41.497C80.4121 41.497 80.0228 40.8513 79.5959 40.6099C79.5959 40.6099 80.2057 40.6615 80.5846 41.5409L81.2399 41.7139C81.2399 41.7139 80.7715 40.8423 80.4069 40.5931C80.4069 40.5931 81.0206 40.7403 81.4008 41.772L82.0133 42.0302C82.0133 42.0302 81.6682 41.249 81.3217 40.8836C81.3217 40.8836 81.8615 41.1419 82.1846 42.1116L82.5739 42.335C82.5739 42.335 82.3144 41.7681 82.2222 41.6119C82.1301 41.4556 82.1664 41.4195 82.1664 41.4195C82.4472 41.6955 82.6454 42.0438 82.7387 42.4254C82.7387 42.4254 83.5147 42.9393 83.5497 42.8954Z" fill="#EC6689"/>
<path d="M100.973 21.6647C100.973 21.6647 98.4518 17.4306 95.9123 19.8401C95.9123 19.8401 95.3414 20.0854 95.4218 20.6975C95.4218 20.6975 95.6385 20.5606 95.8461 21.019C95.9204 21.182 96.0141 21.3354 96.1251 21.4761C96.2741 21.6665 96.4821 21.8027 96.7169 21.8635C96.7169 21.8635 97.9691 22.6873 100.15 21.8635C100.15 21.8635 100.784 21.9164 100.88 21.8325L100.118 21.3444C100.118 21.3444 99.7805 21.9139 99.2407 22.0081C99.2407 22.0081 100.119 21.3844 100.009 21.2669C99.9856 21.2424 99.5937 21.0255 99.5937 21.0255C99.5937 21.0255 99.0007 22.0133 98.1663 22.1334C98.1663 22.1334 99.3134 21.5291 99.447 20.9428L98.8346 20.6562C98.8346 20.6562 98.2597 21.7318 97.3112 21.9035C97.3112 21.9035 98.4881 21.2308 98.6957 20.6019L98.0547 20.3953C98.0547 20.3953 97.4734 21.4284 96.6844 21.5704C96.6844 21.5704 97.9639 20.6562 97.9042 20.3579C97.9042 20.3579 97.3047 20.203 97.1256 20.2391C97.1256 20.2391 96.6909 20.9738 96.2251 21.0139C96.2251 21.0139 97.0153 20.314 96.9556 20.2159C96.9556 20.2159 96.1199 20.2223 95.6982 20.4483C96.076 20.2215 96.5068 20.0969 96.9478 20.0867C96.756 19.8948 96.512 19.7628 96.2458 19.7071C96.2458 19.7071 96.6935 19.4915 97.1542 20.0867C97.1542 20.0867 97.803 20.1087 97.8899 20.1745C97.8899 20.1745 97.5227 19.5289 97.1022 19.2629C97.1022 19.2629 97.7095 19.3326 98.0612 20.2236L98.71 20.4173C98.71 20.4173 98.2701 19.5315 97.912 19.2707C97.912 19.2707 98.5218 19.4372 98.8696 20.4793L99.473 20.7595C99.473 20.7595 99.1525 19.9679 98.8242 19.5974C98.8242 19.5974 99.3549 19.8724 99.6495 20.8512L100.03 21.0862C100.03 21.0862 99.7857 20.5116 99.7001 20.3527C99.6144 20.1939 99.6508 20.159 99.6508 20.159C99.9228 20.4435 100.11 20.7976 100.192 21.1817C100.192 21.1817 100.935 21.7073 100.973 21.6647Z" fill="#3166ED"/>
<path d="M85.0214 30.5679C85.0214 30.5679 85.1512 25.6482 81.7164 26.3416C81.7164 26.3416 81.1013 26.2474 80.8418 26.8078C80.8418 26.8078 81.1013 26.8078 81.0287 27.3049C81.0049 27.4822 81.0023 27.6616 81.0209 27.8395C81.0443 28.0808 81.1469 28.3076 81.3128 28.4851C81.3128 28.4851 81.9318 29.8461 84.2169 30.3084C84.2169 30.3084 84.7243 30.6893 84.8514 30.6686L84.4622 29.8525C84.4622 29.8525 83.8717 30.1547 83.3644 29.9494C83.3644 29.9494 84.4414 29.8861 84.4115 29.7286C84.4115 29.6963 84.1884 29.3038 84.1884 29.3038C84.1884 29.3038 83.1581 29.8267 82.386 29.4832C82.386 29.4832 83.6836 29.5801 84.1079 29.1553L83.7459 28.5832C83.7459 28.5832 82.6844 29.1876 81.7891 28.8312C81.7891 28.8312 83.1451 28.8854 83.6589 28.4632L83.2268 27.9467C83.2268 27.9467 82.1796 28.5174 81.4374 28.2152C81.4374 28.2152 83.0101 28.121 83.1243 27.8356C83.1243 27.8356 82.6987 27.3875 82.5274 27.3191C82.5274 27.3191 81.767 27.7065 81.3518 27.4973C81.3518 27.4973 82.3899 27.3243 82.3964 27.2094C82.3964 27.2094 81.6865 26.7716 81.2077 26.7393C81.6493 26.7472 82.081 26.8701 82.4599 27.0957C82.4008 26.8318 82.2655 26.5908 82.0706 26.4023C82.0706 26.4023 82.565 26.4578 82.6325 27.2029C82.6325 27.2029 83.1736 27.567 83.2087 27.6677C83.2087 27.6677 83.2463 26.9227 83.0296 26.4785C83.0296 26.4785 83.5071 26.8594 83.328 27.7995L83.7731 28.3082C83.7731 28.3082 83.8743 27.3243 83.7121 26.9149C83.7121 26.9149 84.1378 27.3785 83.8756 28.4451L84.2351 29.0016C84.2351 29.0016 84.3882 28.161 84.3064 27.6665C84.3064 27.6665 84.6075 28.183 84.3324 29.1656L84.5296 29.5659C84.5296 29.5659 84.6296 28.95 84.6425 28.7705C84.6555 28.591 84.7048 28.5794 84.7048 28.5794C84.7829 28.9646 84.7519 29.3638 84.6153 29.7325C84.6153 29.7325 84.9643 30.5847 85.0214 30.5679Z" fill="#EC6689"/>
<path opacity="0.1" d="M90.6996 93.0801C92.6295 93.0801 94.1941 92.817 94.1941 92.4925C94.1941 92.1681 92.6295 91.905 90.6996 91.905C88.7696 91.905 87.2051 92.1681 87.2051 92.4925C87.2051 92.817 88.7696 93.0801 90.6996 93.0801Z" fill="#3166ED"/>
<path opacity="0.1" d="M77.9608 102C79.8908 102 81.4553 101.737 81.4553 101.412C81.4553 101.088 79.8908 100.825 77.9608 100.825C76.0308 100.825 74.4663 101.088 74.4663 101.412C74.4663 101.737 76.0308 102 77.9608 102Z" fill="#3166ED"/>
<path opacity="0.1" d="M12.0858 97.4302C14.0158 97.4302 15.5803 97.1671 15.5803 96.8426C15.5803 96.5182 14.0158 96.2551 12.0858 96.2551C10.1558 96.2551 8.59131 96.5182 8.59131 96.8426C8.59131 97.1671 10.1558 97.4302 12.0858 97.4302Z" fill="#3166ED"/>
<path opacity="0.1" d="M104.466 101.413C106.396 101.413 107.961 101.15 107.961 100.825C107.961 100.501 106.396 100.238 104.466 100.238C102.536 100.238 100.972 100.501 100.972 100.825C100.972 101.15 102.536 101.413 104.466 101.413Z" fill="#3166ED"/>
<path d="M108.105 94.2485C110.987 94.2485 113.323 93.8554 113.323 93.3705C113.323 92.8855 110.987 92.4924 108.105 92.4924C105.223 92.4924 102.887 92.8855 102.887 93.3705C102.887 93.8554 105.223 94.2485 108.105 94.2485Z" fill="#3166ED"/>
<path d="M110.268 91.9334C110.506 91.7408 110.68 91.4804 110.765 91.1871C110.83 90.8901 110.703 90.535 110.418 90.4265C110.099 90.3051 109.758 90.5246 109.498 90.7467C109.239 90.9688 108.944 91.2232 108.606 91.1767C108.78 91.0196 108.91 90.8203 108.983 90.5984C109.057 90.3764 109.072 90.1393 109.026 89.91C109.011 89.815 108.971 89.7257 108.909 89.6518C108.732 89.4632 108.411 89.5446 108.198 89.6931C107.523 90.1657 107.335 91.0773 107.331 91.8986C107.264 91.6029 107.321 91.2942 107.32 90.9947C107.318 90.6951 107.234 90.349 106.976 90.1915C106.817 90.1036 106.638 90.059 106.457 90.0624C106.153 90.052 105.814 90.0817 105.608 90.3026C105.349 90.5763 105.417 91.0373 105.641 91.3356C105.864 91.6338 106.205 91.8262 106.519 92.0354C106.77 92.1848 106.985 92.3882 107.147 92.6307C107.166 92.6645 107.181 92.6999 107.193 92.7366H109.095C109.521 92.5231 109.915 92.2529 110.268 91.9334Z" fill="#3166ED"/>
<path d="M9.73975 94.1119C9.73975 94.1119 11.7316 94.0512 12.335 93.6251C12.9384 93.1989 15.4013 92.6915 15.5505 93.3745C15.6997 94.0576 18.5454 96.7692 16.2953 96.7873C14.0453 96.8054 11.0672 96.4387 10.4677 96.0746C9.86821 95.7104 9.73975 94.1119 9.73975 94.1119Z" fill="#93A7DC"/>
<path opacity="0.2" d="M16.333 96.5496C14.0829 96.5677 11.1048 96.201 10.5053 95.8368C10.0486 95.5605 9.86691 94.5675 9.80593 94.1091H9.73975C9.73975 94.1091 9.86951 95.709 10.4651 96.0718C11.0607 96.4347 14.0427 96.8027 16.2927 96.7846C16.9415 96.7846 17.166 96.5496 17.1544 96.2087C17.0635 96.4166 16.8157 96.5457 16.333 96.5496Z" fill="black"/>
</g>
<defs>
<linearGradient id="paint0_linear" x1="28.9359" y1="55.9656" x2="69.4385" y2="55.9656" gradientUnits="userSpaceOnUse">
<stop stop-color="#808080" stop-opacity="0.25"/>
<stop offset="0.54" stop-color="#808080" stop-opacity="0.12"/>
<stop offset="1" stop-color="#808080" stop-opacity="0.1"/>
</linearGradient>
<clipPath id="clip0">
<rect width="131" height="102" fill="white"/>
</clipPath>
</defs>
</svg>
