<svg width="41" height="33" viewBox="0 0 41 33" fill="none" xmlns="http://www.w3.org/2000/svg">
<path d="M31.2788 16.2131C31.2788 7.99815 24.6262 1.34583 16.417 1.34583C8.20201 1.34583 1.54938 7.99844 1.54938 16.2131C1.54938 24.4226 8.20201 31.0825 16.417 31.0825C24.6262 31.0825 31.2788 24.4226 31.2788 16.2131ZM13.0411 25.0066C9.50243 23.6478 7.00252 20.2273 6.99493 16.2131C7.00252 12.201 9.50243 8.78051 13.0411 7.41241V25.0066ZM19.7871 7.41241C23.3258 8.77292 25.8332 12.201 25.8408 16.2131C25.8332 20.227 23.3258 23.6478 19.7871 25.0066V7.41241Z" fill="white"/>
<path d="M0 16.3816C0 25.2479 7.38976 32.5289 16.3813 32.486H24.0198C32.9011 32.5292 41 25.2404 41 16.3816C41 6.68821 32.8935 -0.00728667 24.0198 5.95136e-06H16.3813C7.39734 -0.00728667 0 6.69551 0 16.3816ZM1.54952 16.213C1.54952 7.99797 8.20215 1.34564 16.4171 1.34564C24.6266 1.34564 31.2789 7.99826 31.2789 16.213C31.2789 24.4224 24.6263 31.0823 16.4171 31.0823C8.20186 31.0823 1.54952 24.4224 1.54952 16.213Z" fill="#005ECE"/>
<path d="M6.99512 16.2129C7.0027 20.2268 9.50261 23.6476 13.0413 25.0064V7.41248C9.50261 8.78028 7.00241 12.2008 6.99512 16.2129Z" fill="#005ECE"/>
<path d="M25.841 16.213C25.8335 12.2009 23.326 8.77274 19.7873 7.41223V25.0061C23.326 23.6477 25.8335 20.2268 25.841 16.213Z" fill="#005ECE"/>
</svg>
