<svg width="81" height="26" viewBox="0 0 81 26" fill="none" xmlns="http://www.w3.org/2000/svg">
<path d="M42.9822 13.7178C46.7342 13.7178 49.7758 10.6763 49.7758 6.92429C49.7758 3.17231 46.7342 0.130737 42.9822 0.130737C39.2302 0.130737 36.1887 3.17231 36.1887 6.92429C36.1887 10.6763 39.2302 13.7178 42.9822 13.7178Z" fill="#EF9122"/>
<path d="M36.1887 6.92429C36.1887 3.13558 39.1935 0.130737 42.9822 0.130737C46.7709 0.130737 49.7758 3.13558 49.7758 6.92429C49.7758 10.713 46.7709 13.7178 42.9822 13.7178" fill="#F26E21"/>
<path d="M38.2791 2.09042C40.892 -0.522489 45.2033 -0.522489 47.8162 2.09042C50.4291 4.70332 50.4291 9.01461 47.8162 11.6275" fill="#F44500"/>
<path d="M3.65807 0.522583H0V13.3258H3.65807C5.61774 13.3258 7.05484 12.8032 8.23065 11.8887C9.66774 10.7129 10.5823 8.88388 10.5823 6.9242C10.5823 3.13549 7.83871 0.522583 3.65807 0.522583ZM6.6629 10.1903C5.87903 10.8436 4.83387 11.2355 3.26613 11.2355H2.48226V2.74355H3.13548C4.70323 2.74355 5.74839 3.00484 6.53226 3.78871C7.44678 4.57258 7.96936 5.74839 7.96936 6.9242C8.1 8.10001 7.57742 9.40646 6.6629 10.1903Z" fill="#595A5B"/>
<path d="M14.2403 0.522583H11.758V13.3258H14.2403V0.522583Z" fill="#595A5B"/>
<path d="M20.5112 5.48701C18.9435 4.96443 18.5515 4.57249 18.5515 3.91926C18.5515 3.13539 19.3354 2.48217 20.3806 2.48217C21.1644 2.48217 21.8177 2.74346 22.4709 3.52733L23.7773 1.82894C22.7322 0.914424 21.4257 0.391846 19.9886 0.391846C17.7677 0.391846 15.9386 1.95959 15.9386 4.04991C15.9386 5.87894 16.7225 6.66282 19.0741 7.57733C20.1193 7.96927 20.5112 8.09991 20.7725 8.3612C21.2951 8.62249 21.5564 9.14507 21.5564 9.66765C21.5564 10.7128 20.7725 11.4967 19.5967 11.4967C18.4209 11.4967 17.3757 10.8435 16.8531 9.7983L15.2854 11.366C16.4612 13.0644 17.8983 13.8483 19.7273 13.8483C22.3402 13.8483 24.1693 12.1499 24.1693 9.66765C24.1693 7.44668 23.3854 6.53217 20.5112 5.48701Z" fill="#595A5B"/>
<path d="M24.9532 6.9242C24.9532 10.7129 27.958 13.5871 31.7467 13.5871C32.7919 13.5871 33.7064 13.3258 34.8822 12.8032V9.79839C33.8371 10.8436 32.9225 11.2355 31.8774 11.2355C29.3951 11.2355 27.5661 9.40646 27.5661 6.79355C27.5661 4.31129 29.3951 2.35161 31.7467 2.35161C32.9225 2.35161 33.8371 2.74355 34.8822 3.78871V0.783872C33.8371 0.261291 32.9225 0 31.7467 0C28.0887 0.26129 24.9532 3.26613 24.9532 6.9242Z" fill="#3B3D3F"/>
<path d="M55.3934 9.14517L51.9967 0.522583H49.2531L54.6096 13.7177H56.0467L61.6644 0.522583H58.9209L55.3934 9.14517Z" fill="black"/>
<path d="M62.7098 13.3258H69.8953V11.2355H65.3227V7.70807H69.7646V5.4871H65.3227V2.74355H69.8953V0.522583H62.7098V13.3258Z" fill="black"/>
<path d="M76.9501 7.96936C78.9098 7.57742 79.9549 6.27097 79.9549 4.3113C79.9549 1.95968 78.2565 0.522583 75.3823 0.522583H71.5936V13.3258H74.0759V8.23065H74.4678L77.9952 13.3258H81.0001L76.9501 7.96936ZM74.8598 6.40162H74.0759V2.48226H74.8598C76.4275 2.48226 77.342 3.13549 77.342 4.44194C77.342 5.74839 76.4275 6.40162 74.8598 6.40162Z" fill="#595A5B"/>
<path d="M3.65807 0.522583H0V13.3258H3.65807C5.61774 13.3258 7.05484 12.8032 8.23065 11.8887C9.66774 10.7129 10.5823 8.88388 10.5823 6.9242C10.5823 3.13549 7.83871 0.522583 3.65807 0.522583ZM6.6629 10.1903C5.87903 10.8436 4.83387 11.2355 3.26613 11.2355H2.48226V2.74355H3.13548C4.70323 2.74355 5.74839 3.00484 6.53226 3.78871C7.44678 4.57258 7.96936 5.74839 7.96936 6.9242C8.1 8.10001 7.57742 9.40646 6.6629 10.1903Z" fill="#595A5B"/>
<path d="M14.2403 0.522583H11.758V13.3258H14.2403V0.522583Z" fill="#595A5B"/>
<path d="M20.5112 5.48676C18.9435 4.96418 18.5515 4.57225 18.5515 3.91902C18.5515 3.13515 19.3354 2.48192 20.3806 2.48192C21.1644 2.48192 21.8177 2.74321 22.4709 3.52709L23.7773 1.8287C22.7322 0.91418 21.4257 0.391602 19.9886 0.391602C17.7677 0.391602 15.9386 1.95934 15.9386 4.04967C15.9386 5.8787 16.7225 6.66257 19.0741 7.57709C20.1193 7.96902 20.5112 8.09967 20.7725 8.36096C21.2951 8.62225 21.5564 9.14483 21.5564 9.66741C21.5564 10.7126 20.7725 11.4964 19.5967 11.4964C18.4209 11.4964 17.3757 10.8432 16.8531 9.79805L15.2854 11.3658C16.4612 13.0642 17.8983 13.8481 19.7273 13.8481C22.3402 13.8481 24.1693 12.1497 24.1693 9.66741C24.1693 7.44644 23.3854 6.53193 20.5112 5.48676Z" fill="#595A5B"/>
<path d="M31.8778 13.5873C32.923 13.5873 33.8375 13.326 35.0133 12.8034V9.79858C33.9681 10.8437 33.0536 11.2357 32.0084 11.2357C29.5262 11.2357 27.6971 9.40665 27.6971 6.79374C27.6971 5.48729 28.2197 4.44213 29.0036 3.52761L27.3052 1.82922C25.9988 3.00503 25.0842 4.83406 25.0842 6.79374C24.9536 10.7131 27.9584 13.5873 31.8778 13.5873Z" fill="#595A5B"/>
<path d="M76.9501 7.96936C78.9098 7.57742 79.9549 6.27097 79.9549 4.3113C79.9549 1.95968 78.2565 0.522583 75.3823 0.522583H71.5936V13.3258H74.0759V8.23065H74.4678L77.9952 13.3258H81.0001L76.9501 7.96936ZM74.8598 6.40162H74.0759V2.48226H74.8598C76.4275 2.48226 77.342 3.13549 77.342 4.44194C77.342 5.74839 76.4275 6.40162 74.8598 6.40162Z" fill="black"/>
<path d="M18.421 25.215V18.0295L23.3855 23.1247V18.4215H24.4306V25.607L19.4661 20.5118V25.215H18.421Z" fill="#F26E21"/>
<path d="M29.6567 19.4659H26.9131V21.0337H29.526V22.0788H26.9131V24.2998H29.6567V25.2143H25.868V18.4208H29.6567V19.4659Z" fill="#F26E21"/>
<path d="M32.9226 19.466V25.2144H31.8774V19.466H30.3097V18.5515H34.4903V19.466H32.9226Z" fill="#F26E21"/>
<path d="M36.0581 18.5513L37.7565 23.1239L39.5855 18.29L41.2839 23.1239L43.1129 18.5513H44.4194L41.4146 25.7368L39.7162 20.9029L37.8871 25.7368L35.0129 18.5513H36.0581Z" fill="#F26E21"/>
<path d="M44.55 21.8175C44.55 20.9029 44.9419 19.9884 45.5952 19.3352C46.2484 18.682 47.1629 18.29 48.0774 18.29C48.9919 18.29 49.9064 18.682 50.5597 19.3352C51.2129 19.9884 51.6048 20.9029 51.6048 21.8175C51.6048 22.732 51.2129 23.6465 50.5597 24.2997C49.9064 24.9529 48.9919 25.3449 48.0774 25.3449C47.1629 25.3449 46.379 25.0836 45.7258 24.4304C44.9419 23.7771 44.55 22.9933 44.55 21.8175ZM45.5952 21.8175C45.5952 22.6013 45.8564 23.1239 46.379 23.6465C46.9016 24.1691 47.4242 24.4304 48.0774 24.4304C48.7306 24.4304 49.3839 24.1691 49.9064 23.6465C50.429 23.1239 50.6903 22.6013 50.6903 21.8175C50.6903 21.0336 50.429 20.511 49.9064 19.9884C49.3839 19.4658 48.8613 19.2046 48.0774 19.2046C47.4242 19.2046 46.771 19.4658 46.2484 19.9884C45.8564 20.511 45.5952 21.1642 45.5952 21.8175Z" fill="#F26E21"/>
<path d="M55.2629 22.3401L57.3533 25.2143H56.0468L54.0871 22.4708H53.9565V25.2143H52.9113V18.4208H54.0871C55.0016 18.4208 55.6549 18.5514 56.0468 18.9434C56.4387 19.3353 56.7 19.8579 56.7 20.3805C56.7 20.903 56.5694 21.295 56.3081 21.5563C56.0468 22.0788 55.6549 22.3401 55.2629 22.3401ZM53.9565 21.5563H54.2178C55.1323 21.5563 55.6549 21.1643 55.6549 20.5111C55.6549 19.8579 55.1323 19.4659 54.2178 19.4659H53.8258V21.5563H53.9565Z" fill="#F26E21"/>
<path d="M59.3128 21.1642L61.9257 18.4207H63.2322L60.2273 21.4255L63.2322 25.0836H61.9257L59.4435 22.0787L59.1822 22.34V25.0836H58.137V18.29H59.1822V21.1642H59.3128Z" fill="#F26E21"/>
<path d="M67.6745 11.2354H65.3229V8.88378L62.71 6.27087V13.3257H69.7648L67.6745 11.2354Z" fill="#3B3D3F"/>
<path d="M58.2676 1.82903L55.3934 9.14517L51.9967 0.522583H49.2531L54.6096 13.7177H56.0467L60.2273 3.78871L58.2676 1.82903Z" fill="#3B3D3F"/>
</svg>
