<svg width="62" height="90" viewBox="0 0 62 90" fill="none" xmlns="http://www.w3.org/2000/svg">
<path d="M55.6527 50.09L47.414 46.9121L43.2043 42.7023C42.9248 42.4228 42.5493 42.2945 42.1814 42.3198V38.7288C44.1711 36.6273 45.5842 33.9534 46.1382 30.9363C46.1456 30.9092 46.1897 30.8647 46.2201 30.8524C46.588 30.8777 46.9603 30.8526 47.3275 30.7775C49.2444 30.3852 50.6359 28.6033 50.6359 26.5407V25.4426C50.6359 24.2113 50.121 23.0842 49.2887 22.2979C50.644 15.0652 49.5712 9.1789 46.1734 5.25495C42.9077 1.48447 37.6359 -0.316928 30.9283 0.0457066C24.6319 0.386017 20.6102 3.31856 19.4158 4.31488C17.7378 4.52424 12.7723 5.7285 12.7723 12.6347C12.7723 16.5422 13.4185 19.7774 13.8565 21.5225C12.3705 22.1745 11.3633 23.7012 11.3633 25.4593V26.5409C11.3633 28.6033 12.7547 30.3852 14.6716 30.7777C15.0388 30.853 15.4115 30.8781 15.779 30.8526C15.8093 30.8649 15.8536 30.9092 15.8606 30.935C16.4148 33.9527 17.8281 36.627 19.8178 38.7286V42.3198C19.4497 42.2945 19.0742 42.423 18.7949 42.7023L14.5853 46.9119L6.34667 50.0898C2.44206 51.5959 -0.0689606 55.4174 0.0987337 59.599L1.26556 88.7339C1.29404 89.4435 1.87816 89.9995 2.58198 89.9995C2.59991 89.9995 2.61784 89.9991 2.63577 89.9984C3.36332 89.9692 3.92934 89.356 3.90033 88.6284L2.7335 59.4935C2.69923 58.6391 2.81841 57.8053 3.06995 57.0233L7.86435 61.8177C9.21224 63.1656 9.95455 64.9577 9.95455 66.8638V88.6813C9.95455 89.4094 10.5448 89.9997 11.2729 89.9997C12.001 89.9997 12.5913 89.4094 12.5913 88.6813V66.8635C12.5913 64.2531 11.5747 61.7989 9.72885 59.953L4.39674 54.6211C5.15505 53.7169 6.14206 52.9949 7.29588 52.5499L15.0478 49.5598L20.9508 58.4146C21.641 59.4499 22.747 60.1139 23.9852 60.2364C24.123 60.2501 24.2604 60.2568 24.3972 60.2568C25.2314 60.2568 26.0386 60.0051 26.7221 59.5382L25.4557 88.6237C25.4241 89.351 25.988 89.9664 26.7156 89.9981C26.7351 89.999 26.7546 89.9993 26.7739 89.9993C27.4756 89.9993 28.0592 89.4463 28.09 88.7383L29.2601 61.8618H32.7402L33.9104 88.7383C33.9412 89.4461 34.5248 89.9993 35.2265 89.9993C35.2458 89.9993 35.2653 89.999 35.2848 89.9981C36.0122 89.9663 36.5763 89.351 36.5447 88.6237L35.2783 59.5385C35.9616 60.0056 36.7688 60.2571 37.6032 60.2571C37.74 60.2571 37.8776 60.2503 38.0152 60.2367C39.2533 60.1142 40.3593 59.4501 41.0495 58.4149L46.9526 49.5602L54.7045 52.5502C55.8583 52.9953 56.8453 53.7174 57.6036 54.6214L52.2715 59.9534C50.4257 61.7992 49.4091 64.2535 49.4091 66.8638V88.6813C49.4091 89.4094 49.9994 89.9997 50.7275 89.9997C51.4556 89.9997 52.0458 89.4094 52.0458 88.6813V66.8638C52.0458 64.9577 52.7882 63.1656 54.136 61.8177L58.9304 57.0233C59.182 57.8053 59.3012 58.6391 59.2669 59.4935L58.1002 88.6284C58.071 89.356 58.6372 89.9692 59.3648 89.9984C59.3829 89.9991 59.4007 89.9995 59.4186 89.9995C60.1222 89.9995 60.7065 89.4435 60.735 88.7339L61.9018 59.5992C62.0683 55.4175 59.5573 51.5961 55.6527 50.09ZM18.453 30.4583C18.205 29.105 16.9534 28.1229 15.602 28.2217C15.4705 28.2314 15.3354 28.222 15.2 28.1945C14.5155 28.0544 13.9994 27.3435 13.9994 26.5409V25.4593C13.9994 24.6592 14.5231 23.9638 15.2176 23.8418C15.7899 23.7414 16.3398 23.9522 16.6876 24.4057C16.9401 24.7349 17.2762 24.9701 17.6597 25.0861C18.2215 25.2558 18.8411 25.1563 19.3171 24.8202C20.4703 24.0063 21.4478 22.9738 22.2223 21.7514C22.612 21.1363 22.4295 20.322 21.8144 19.9321C21.1994 19.5424 20.3848 19.725 19.9951 20.3399C19.5239 21.0834 18.9561 21.7331 18.3025 22.2777C17.7963 21.8098 17.1851 21.4819 16.5268 21.313C16.1454 19.8916 15.4085 16.6286 15.4085 12.6349C15.4085 7.1344 19.5038 6.91467 19.9612 6.90782C20.3019 6.90782 20.6292 6.77598 20.8747 6.53991C20.9113 6.50493 24.599 3.02835 31.07 2.67854C36.9338 2.36179 41.4672 3.84942 44.1793 6.98129C46.9406 10.1698 47.8412 15.0705 46.8062 21.197C46.3316 21.1646 45.7895 21.2003 45.2549 21.3014L43.7819 17.7642C43.5291 17.1572 42.8664 16.8297 42.231 16.9957C42.0902 17.0324 28.0659 20.59 22.1565 13.2334C21.7007 12.6658 20.871 12.5751 20.3031 13.0311C19.7355 13.4871 19.6448 14.317 20.1009 14.8845C26.0713 22.3178 38.033 20.5702 41.7745 19.8025L42.9281 22.5725C43.3628 23.6168 44.4748 24.1872 45.5722 23.9288C46.057 23.8147 46.5557 23.8005 46.7791 23.8448C47.4743 23.9831 47.9985 24.6699 47.9985 25.4424V26.5405C47.9985 27.3431 47.4824 28.054 46.7979 28.1941C46.6626 28.2219 46.5276 28.2308 46.3961 28.2213C45.048 28.1222 43.7931 29.1046 43.5446 30.4583C42.4326 36.5125 37.1564 40.9069 30.9988 40.9069C24.8414 40.9069 19.5652 36.5125 18.453 30.4583ZM25.4526 57.1806C25.1337 57.4997 24.6937 57.6573 24.2443 57.6127C23.7953 57.5682 23.3944 57.3274 23.144 56.9521L17.196 48.0298L19.7868 45.439L29.0707 53.5624L25.4526 57.1806ZM29.3742 59.2253L29.476 56.886L30.9995 55.3625L32.5228 56.886L32.6246 59.2253H29.3742ZM30.9995 51.7465L22.4543 44.2696V40.9519C24.9147 42.5952 27.8613 43.5441 30.9995 43.5441C34.1377 43.5441 37.0843 42.5952 39.5447 40.9521V44.2696L30.9995 51.7465ZM38.8548 56.9521C38.6044 57.3274 38.2035 57.5682 37.7546 57.6127C37.3051 57.6575 36.8653 57.4995 36.5462 57.1806L32.9282 53.5624L42.212 45.439L44.8028 48.0298L38.8548 56.9521Z" fill="#58454B"/>
</svg>
