<svg width="47" height="47" viewBox="0 0 47 47" fill="none" xmlns="http://www.w3.org/2000/svg">
<circle cx="24" cy="23" r="19" fill="#93B1FF" fill-opacity="0.6"/>
<path d="M44 23.5C44 20.8079 43.4698 18.1422 42.4395 15.655C41.4093 13.1678 39.8993 10.9079 37.9957 9.00431C36.0921 7.10071 33.8322 5.59069 31.345 4.56047C28.8578 3.53025 26.1921 3 23.5 3" stroke="#A9C1FF" stroke-width="5"/>
<path d="M23.5 3C19.4455 3 15.482 4.2023 12.1108 6.45487C8.7396 8.70744 6.11207 11.9091 4.56047 15.655C3.00887 19.4009 2.6029 23.5227 3.3939 27.4994C4.1849 31.476 6.13733 35.1287 9.00431 37.9957C11.8713 40.8627 15.524 42.8151 19.5006 43.6061C23.4773 44.3971 27.5991 43.9911 31.345 42.4395C35.0909 40.8879 38.2926 38.2604 40.5451 34.8892C42.7977 31.518 44 27.5545 44 23.5" stroke="#93B1FF" stroke-width="5"/>
<path d="M26.344 17.712C26.6727 17.848 26.9617 18.001 27.211 18.171L26.293 20.262C25.6923 20.058 25.2277 19.922 24.899 19.854C24.5817 19.786 24.2303 19.752 23.845 19.752C23.505 19.752 23.2273 19.8313 23.012 19.99C22.808 20.1487 22.706 20.3413 22.706 20.568C22.706 20.738 22.791 20.891 22.961 21.027C23.1423 21.1517 23.437 21.3217 23.845 21.537L24.457 21.877C25.171 22.285 25.766 22.6647 26.242 23.016C26.718 23.356 27.1203 23.764 27.449 24.24C27.789 24.7047 27.959 25.2317 27.959 25.821C27.959 26.4443 27.7833 27.011 27.432 27.521C27.092 28.0197 26.6047 28.4163 25.97 28.711V31.074H23.947V29.204C23.8223 29.2153 23.624 29.221 23.352 29.221H23.131V31.023H21.125V28.898C20.513 28.7393 19.9917 28.5353 19.561 28.286L20.581 25.957C20.887 26.1383 21.3063 26.3083 21.839 26.467C22.383 26.6143 22.859 26.688 23.267 26.688C23.7203 26.688 24.083 26.5973 24.355 26.416C24.627 26.2233 24.763 26.0137 24.763 25.787C24.763 25.6397 24.661 25.498 24.457 25.362C24.2643 25.2147 23.947 25.0107 23.505 24.75L22.978 24.444C22.2073 23.9907 21.6067 23.6167 21.176 23.322C20.7453 23.016 20.36 22.625 20.02 22.149C19.68 21.673 19.51 21.1347 19.51 20.534C19.5213 19.8993 19.7027 19.327 20.054 18.817C20.4167 18.307 20.921 17.916 21.567 17.644V15.587L23.573 15.417V17.219H23.811C24.0377 17.219 24.2077 17.2247 24.321 17.236V15.587L26.344 15.417V17.712Z" fill="#6D91EF"/>
</svg>
