<svg width="502" height="292" viewBox="0 0 502 292" fill="none" xmlns="http://www.w3.org/2000/svg">
<path opacity="0.1" d="M466.226 -29.5155C465.997 -30.4426 465.767 -31.3696 465.368 -32.2653C461.942 -42.2045 456.631 -51.6284 449.483 -60.4509C428.471 -86.7736 392.593 -109.412 351.844 -129.363C351.185 -129.676 350.526 -129.988 349.891 -130.307C348.915 -130.774 347.964 -131.247 347.014 -131.71C345.087 -132.686 343.099 -133.632 341.051 -134.549L336.57 -136.613C335.511 -137.112 334.404 -137.6 333.318 -138.103C332.662 -138.406 331.979 -138.713 331.272 -139.014C320.106 -144.146 308.094 -148.853 295.284 -153.119L293.829 -153.583C277.778 -158.88 259.51 -162.875 239.397 -165.487C204.065 -169.904 160.866 -168.722 115.833 -163C114.312 -162.814 112.795 -162.607 111.252 -162.405C108.317 -162.005 105.336 -161.584 102.358 -161.153C100.308 -160.856 98.2598 -160.55 96.1928 -160.218C81.9256 -158.012 67.5699 -155.363 53.2244 -152.289C45.444 -150.625 37.6719 -148.826 29.9771 -146.919L26.6418 -146.093C17.1381 -143.704 7.69419 -141.117 -1.65383 -138.34L-2.99442 -137.934C-28.3459 -130.433 -52.6946 -121.403 -75.1545 -111.175C-78.744 -109.538 -82.2513 -107.875 -85.6764 -106.187L-87.4358 -105.328L-88.2892 -104.894C-99.7452 -99.1796 -110.657 -93.2338 -120.949 -87.0986C-132.966 -79.9835 -144.164 -72.7225 -154.927 -65.4423C-171.004 -54.6279 -186.006 -43.6031 -199.847 -32.4304L-200.48 -31.9243C-206.413 -27.0896 -212.014 -22.2452 -217.284 -17.3912L-217.27 -17.3314C-220.932 -13.948 -224.409 -10.5647 -227.701 -7.18144C-227.867 -7.03454 -228.006 -6.88361 -228.167 -6.71677C-232.979 -1.74712 -237.364 3.21187 -241.245 8.16242L-242.126 9.30122C-244.922 12.9144 -247.405 16.4993 -249.575 20.056C-262.088 40.1702 -265.125 59.3432 -264.841 77.7356C-264.35 114.92 -250.587 149.948 -219.647 179.598C-215.466 183.613 -210.966 187.523 -206.145 191.33C-205.489 191.834 -204.855 192.354 -204.175 192.852C-203.142 193.654 -202.061 194.444 -201.039 195.302C-200.602 195.638 -200.139 195.978 -199.677 196.308C-195.552 199.348 -191.171 202.301 -186.534 205.165L-184.11 206.681C-181.591 208.173 -179.002 209.742 -176.333 211.229C-173.893 212.603 -171.38 213.969 -168.777 215.292C-168.345 215.502 -167.94 215.709 -167.533 215.925C-145.283 227.139 -117.425 236.498 -80.3525 239.573C-77.775 239.771 -75.2025 239.948 -72.6349 240.105C-68.7848 240.336 -64.8271 240.491 -60.7618 240.57L-57.8919 240.62L-56.8271 240.631L-56.068 240.634L-55.6383 240.633C-53.5876 240.643 -51.4843 240.662 -49.4032 240.59C-47.3221 240.519 -45.1309 240.484 -42.976 240.405L-42.6901 240.334L-41.8405 240.293C-40.1604 240.236 -38.4614 240.154 -36.8289 240.109L-35.0847 240.005L-34.4118 239.965L-31.6038 239.766C-18.8508 238.877 -5.72727 237.317 7.54846 235.111C14.8989 233.887 22.2796 232.453 29.647 230.82C40.8116 228.356 51.8849 225.346 62.6473 221.848C64.2853 221.315 65.8969 220.778 67.5036 220.222C81.0607 215.614 93.5779 209.989 104.249 203.709C118.107 195.451 127.175 186.739 135.212 178.05L136.031 177.17C137.386 175.702 138.694 174.245 140.002 172.789C144.582 167.697 149.156 162.586 154.057 157.467C158.597 152.723 163.413 147.975 168.716 143.254C174.046 138.498 179.979 133.795 186.469 129.184C187.438 128.499 188.43 127.809 189.448 127.123C201.478 118.901 215.766 111.215 231.64 104.426C246.02 98.3761 261.767 93.3523 277.66 90.8529C282.161 90.1363 286.601 89.6462 290.901 89.3913C299.023 88.9022 306.971 88.4244 314.76 87.8167C328.707 86.9136 343.159 85.1104 357.757 82.4519C372.816 79.6028 387.759 75.1738 401.312 69.5425C403.608 68.6032 405.772 67.6437 408.022 66.6206C417.937 62.1094 426.801 57.0822 434.227 51.7577C435.107 51.1269 435.961 50.492 436.816 49.8571C455.452 35.7798 463.879 20.6036 467.061 7.01293C469.987 -5.78496 469.707 -18.0418 466.226 -29.5155Z" fill="#3166ED"/>
</svg>
