<svg width="93" height="82" viewBox="0 0 93 82" fill="none" xmlns="http://www.w3.org/2000/svg">
<path d="M82 17L70 29M70 29V24M70 29H75" stroke="#7FA0F4" stroke-opacity="0.5" stroke-width="2" stroke-linecap="round" stroke-linejoin="round"/>
<path d="M46.4853 1.00007V17.9706M46.4853 17.9706L42.9497 14.4351M46.4853 17.9706L50.0208 14.4351" stroke="#7FA0F4" stroke-opacity="0.5" stroke-width="2" stroke-linecap="round" stroke-linejoin="round"/>
<path d="M91.9706 45.4853H75.0001M75.0001 45.4853L78.5356 41.9497M75.0001 45.4853L78.5356 49.0208" stroke="#7FA0F4" stroke-opacity="0.5" stroke-width="2" stroke-linecap="round" stroke-linejoin="round"/>
<path d="M81 74L69 62M69 62L74 62M69 62L69 67" stroke="#7FA0F4" stroke-opacity="0.5" stroke-width="2" stroke-linecap="round" stroke-linejoin="round"/>
<path d="M10.9707 17L22.9707 29M22.9707 29V24M22.9707 29H17.9707" stroke="#7FA0F4" stroke-opacity="0.5" stroke-width="2" stroke-linecap="round" stroke-linejoin="round"/>
<path d="M1.00007 45.4853H17.9706M17.9706 45.4853L14.4351 41.9497M17.9706 45.4853L14.4351 49.0208" stroke="#7FA0F4" stroke-opacity="0.5" stroke-width="2" stroke-linecap="round" stroke-linejoin="round"/>
<path d="M11.9707 74L23.9707 62M23.9707 62L18.9707 62M23.9707 62L23.9707 67" stroke="#7FA0F4" stroke-opacity="0.5" stroke-width="2" stroke-linecap="round" stroke-linejoin="round"/>
<path d="M46.5 24C34.902 24 25 33.0629 25 45.573C25 58.0832 35.3137 62.1009 40 72V76V78C40 79.1046 40.8954 80 42 80H43C43 80 43 81 44 81H49C50 81 50 80 50 80H51C52.1046 80 53 79.1046 53 78V76V72C57.6863 62.1009 68 58.0832 68 45.573C68 33.0629 58.098 24 46.5 24Z" fill="#C1D0FA" stroke="#7FA0F4" stroke-width="2"/>
<path d="M46.6387 40.152C45.7747 40.152 45.0227 40.272 44.3827 40.512C43.7587 40.736 43.0627 41.096 42.2947 41.592L42.5347 43.248C43.2547 42.752 43.9187 42.384 44.5267 42.144C45.1507 41.904 45.8307 41.784 46.5667 41.784C47.4787 41.784 48.1667 41.984 48.6307 42.384C49.0947 42.768 49.3267 43.376 49.3267 44.208C49.3267 45.04 48.9427 45.808 48.1747 46.512C47.4227 47.216 46.4147 47.768 45.1507 48.168L45.3427 52.872L46.7347 53.424L46.9747 49.128C48.2547 48.536 49.2787 47.792 50.0467 46.896C50.8307 45.984 51.2227 45.08 51.2227 44.184C51.2227 42.952 50.8387 41.976 50.0707 41.256C49.3027 40.52 48.1587 40.152 46.6387 40.152ZM45.9667 54.432C45.6147 54.432 45.3107 54.56 45.0547 54.816C44.8147 55.056 44.6947 55.352 44.6947 55.704C44.6947 56.072 44.8147 56.384 45.0547 56.64C45.3107 56.88 45.6147 57 45.9667 57C46.3347 57 46.6467 56.872 46.9027 56.616C47.1587 56.36 47.2867 56.056 47.2867 55.704C47.2867 55.352 47.1587 55.056 46.9027 54.816C46.6467 54.56 46.3347 54.432 45.9667 54.432Z" fill="#7FA0F4"/>
<rect x="40" y="72" width="13" height="4" fill="#7FA0F4" fill-opacity="0.5"/>
<rect x="40" y="76" width="13" height="4" fill="#7FA0F4" fill-opacity="0.8"/>
</svg>
