<svg width="15" height="14" viewBox="0 0 15 14" fill="none" xmlns="http://www.w3.org/2000/svg">
<path d="M7.60908 4.11125C6.99716 4.11125 6.42471 4.26495 5.89173 4.57237C5.3785 4.86056 4.96397 5.26404 4.64814 5.7828C4.35204 6.28235 4.204 6.82992 4.204 7.42553C4.204 8.02115 4.35204 8.57833 4.64814 9.09709C4.96397 9.59663 5.3785 10.0001 5.89173 10.3075C6.42471 10.5957 6.99716 10.7398 7.60908 10.7398C8.22101 10.7398 8.78359 10.5957 9.29683 10.3075C9.8298 10.0001 10.2443 9.59663 10.5404 9.09709C10.8563 8.57833 11.0142 8.02115 11.0142 7.42553C11.0142 6.82992 10.8563 6.28235 10.5404 5.7828C10.2443 5.26404 9.8298 4.86056 9.29683 4.57237C8.78359 4.26495 8.22101 4.11125 7.60908 4.11125ZM7.60908 9.58703C6.99716 9.58703 6.47405 9.37568 6.03978 8.95299C5.60551 8.5303 5.38837 8.02115 5.38837 7.42553C5.38837 6.82992 5.60551 6.32077 6.03978 5.89808C6.47405 5.47539 6.99716 5.26404 7.60908 5.26404C8.22101 5.26404 8.74411 5.47539 9.17839 5.89808C9.61266 6.32077 9.82979 6.82992 9.82979 7.42553C9.82979 8.02115 9.61266 8.5303 9.17839 8.95299C8.74411 9.37568 8.22101 9.58703 7.60908 9.58703ZM11.9617 3.96715C11.9419 4.17849 11.8531 4.36102 11.6952 4.51473C11.557 4.66843 11.3794 4.74529 11.1622 4.74529C10.9451 4.74529 10.7576 4.66843 10.5996 4.51473C10.4417 4.36102 10.3628 4.17849 10.3628 3.96715C10.3628 3.7558 10.4417 3.57328 10.5996 3.41957C10.7576 3.26586 10.9451 3.18901 11.1622 3.18901C11.3794 3.18901 11.5669 3.26586 11.7248 3.41957C11.8827 3.57328 11.9617 3.7558 11.9617 3.96715ZM14.212 4.74529C14.1725 4.1881 14.0837 3.70777 13.9455 3.30429C13.7679 2.82396 13.4915 2.41087 13.1164 2.06503C12.7611 1.69998 12.3367 1.431 11.8432 1.25808C11.4287 1.12359 10.9352 1.04673 10.3628 1.02752C9.81006 0.989092 8.89216 0.969879 7.60908 0.969879C6.32601 0.969879 5.39824 0.989092 4.82579 1.02752C4.27308 1.04673 3.78946 1.12359 3.37493 1.25808C2.88144 1.431 2.44717 1.69998 2.07211 2.06503C1.7168 2.41087 1.45031 2.82396 1.27266 3.30429C1.13448 3.70777 1.04565 4.1881 1.00617 4.74529C0.986432 5.28326 0.976562 6.17667 0.976562 7.42553C0.976562 8.6744 0.986432 9.57742 1.00617 10.1346C1.04565 10.6726 1.13448 11.1433 1.27266 11.5468C1.45031 12.0271 1.7168 12.4498 2.07211 12.8149C2.44717 13.1607 2.88144 13.4105 3.37493 13.5642C3.78946 13.7179 4.27308 13.8043 4.82579 13.8236C5.39824 13.862 6.32601 13.8812 7.60908 13.8812C8.89216 13.8812 9.81006 13.862 10.3628 13.8236C10.9352 13.8043 11.4287 13.7275 11.8432 13.593C12.3367 13.4201 12.7611 13.1607 13.1164 12.8149C13.4915 12.4498 13.7679 12.0271 13.9455 11.5468C14.0837 11.1433 14.1626 10.6726 14.1824 10.1346C14.2219 9.57742 14.2416 8.6744 14.2416 7.42553C14.2416 6.17667 14.2317 5.28326 14.212 4.74529ZM12.7907 11.2298C12.5539 11.8062 12.1295 12.2192 11.5175 12.469C11.2017 12.5843 10.6687 12.6611 9.91862 12.6996C9.50409 12.7188 8.89216 12.7284 8.08284 12.7284H7.13533C6.34575 12.7284 5.73382 12.7188 5.29955 12.6996C4.56918 12.6611 4.03621 12.5843 3.70063 12.469C3.10844 12.2385 2.68404 11.8254 2.42743 11.2298C2.30899 10.9031 2.23003 10.3844 2.19055 9.67349C2.17081 9.25079 2.16094 8.65518 2.16094 7.88665V6.96442C2.16094 6.19589 2.17081 5.60028 2.19055 5.17758C2.23003 4.44748 2.30899 3.92872 2.42743 3.62131C2.6643 3.0257 3.08871 2.61261 3.70063 2.38205C4.03621 2.26677 4.56918 2.18992 5.29955 2.15149C5.73382 2.13228 6.34575 2.12267 7.13533 2.12267H8.08284C8.87242 2.12267 9.48435 2.13228 9.91862 2.15149C10.6687 2.18992 11.2017 2.26677 11.5175 2.38205C12.1295 2.61261 12.5539 3.0257 12.7907 3.62131C12.9092 3.92872 12.9881 4.44748 13.0276 5.17758C13.0474 5.58106 13.0572 6.17667 13.0572 6.96442V7.88665C13.0572 8.65518 13.0474 9.25079 13.0276 9.67349C12.9881 10.3844 12.9092 10.9031 12.7907 11.2298Z" fill="white"/>
</svg>
