<svg width="56" height="40" viewBox="0 0 56 40" fill="none" xmlns="http://www.w3.org/2000/svg">
<path d="M7.56544 0C3.29319 0 0 2.77405 0 7.60626V21.387C0.356021 23.0872 2.13613 24.34 4.09424 24.34C6.31937 24.34 7.92147 22.7293 7.92147 20.7606V13.7808H13.9738V20.6711C13.9738 24.519 9.07853 26.4877 5.51832 26.4877C3.4712 26.4877 1.51309 25.8613 0.0890052 24.7875V40H9.70157C13.0838 40 17 36.7785 17 32.6622V0H7.56544Z" fill="#1174CE"/>
<path d="M0 7.60626V21.387C0.356021 23.0872 2.13613 24.34 4.09424 24.34C6.31937 24.34 7.92147 22.7293 7.92147 20.7606V13.7808H13.9738V20.6711C13.9738 24.519 9.07853 26.4877 5.51832 26.4877C3.4712 26.4877 1.51309 25.8613 0.0890052 24.7875V40H9.70157C13.0838 40 17 36.7785 17 32.6622V0" fill="#0F549D"/>
<path d="M13.9579 13V20.0956C13.9579 24.058 9.03684 26.0853 5.45789 26.0853C3.4 26.0853 1.43158 25.4403 0 24.3345V40H9.66316C13.0632 40 17 36.6826 17 32.4437" fill="#02375E"/>
<path d="M42 24H46.0286C47.0571 24 48 23.0435 48 22C48 20.9565 47.0571 20 46.0286 20H42V24Z" fill="#146643"/>
<path d="M46.1474 0C41.5053 0 38.0947 2.77405 38.0947 7.51678V13.7808H50.0316C51.7368 13.7808 53.1579 15.123 53.1579 16.7338C53.1579 18.3445 51.7368 19.6868 50.0316 19.6868C51.9263 19.6868 53.4421 20.9396 53.4421 22.5503C53.4421 24.1611 52.0211 25.4139 50.0316 25.4139H38V40H48.2316C51.8316 40 56 36.7785 56 32.6622V0H46.1474Z" fill="#1BCC38"/>
<path d="M38 7.60626V13.7808H49.9368C51.6421 13.7808 53.0632 15.123 53.0632 16.7338C53.0632 18.3445 51.6421 19.6868 49.9368 19.6868C51.8316 19.6868 53.3474 20.9396 53.3474 22.5503C53.3474 24.1611 51.9263 25.4139 49.9368 25.4139H38V40H48.2316C51.8316 40 56 36.7785 56 32.6622V0" fill="#329947"/>
<path d="M52.4752 16.6606C52.4752 18.2643 51.1388 19.6007 49.5352 19.6007C51.317 19.6007 52.7425 20.848 52.7425 22.4516C52.7425 24.0553 51.4061 25.3026 49.5352 25.3026H38.3096V39.8246H47.9315C51.317 39.8246 55.2371 36.6173 55.2371 32.519" fill="#146643"/>
<path d="M47.3969 17.0169C47.3969 15.9478 46.4169 14.9678 45.3478 14.9678H41.2495V18.9769H45.4368C46.5059 18.9769 47.3969 18.086 47.3969 17.0169Z" fill="#146643"/>
<path d="M26.6053 0C22.2211 0 19 2.77405 19 7.51678V15.2125C20.0737 14.3177 21.4158 13.6913 22.8474 13.6913H33.0474V15.8389C30.6316 15.302 28.3053 15.0336 27.1421 15.0336C24.6368 15.0336 22.5789 17.0917 22.5789 19.5973C22.5789 22.1029 24.6368 24.1611 27.1421 24.1611C28.3053 24.1611 30.6316 23.9821 33.0474 23.4452V25.4139H22.8474C21.4158 25.4139 19.9842 24.877 19 23.8926V40H28.6632C32.0632 40 36 36.7785 36 32.6622V0H26.6053Z" fill="#E20E37"/>
<path d="M19 7.60626V15.302C20.0737 14.4072 21.4158 13.7808 22.8474 13.7808H33.0474V15.9284C30.6316 15.3915 28.3053 15.123 27.1421 15.123C24.6368 15.123 22.5789 17.1812 22.5789 19.6868C22.5789 22.1924 24.6368 24.2506 27.1421 24.2506C28.3053 24.2506 30.6316 24.0716 33.0474 23.5347V25.4139H22.8474C21.4158 25.4139 19.9842 24.877 19 23.8926V40H28.6632C32.0632 40 36 36.7785 36 32.6622V0" fill="#B41F36"/>
<path d="M33.0474 13V15.2116C30.6316 14.6587 28.3053 14.3823 27.1421 14.3823C24.6368 14.3823 22.5789 16.5017 22.5789 19.0819C22.5789 21.6621 24.6368 23.7816 27.1421 23.7816C28.3053 23.7816 30.6316 23.5973 33.0474 23.0444V24.9795H22.8474C21.4158 24.9795 19.9842 24.4266 19 23.413V40H28.6632C32.0632 40 36 36.6826 36 32.4437" fill="#720A1E"/>
</svg>
