<svg width="117" height="117" viewBox="0 0 117 117" fill="none" xmlns="http://www.w3.org/2000/svg">
<path d="M78.67 58.3033H48.9671C47.4191 58.3033 46.0627 57.2679 45.6545 55.7748C45.2464 54.2817 45.8876 52.7001 47.2201 51.9124C60.1616 44.2654 66.8839 35.345 67.7705 24.6418C68.0797 20.9273 71.3881 17.9603 75.1438 18.0094C78.976 18.0706 82.5662 19.6067 85.2551 22.3352C87.9461 25.0662 89.4292 28.6827 89.4306 32.5181C89.4306 32.5185 89.4306 32.519 89.4306 32.5194V33.6732C89.4306 43.0424 86.6555 49.0162 81.5351 56.7624C80.8987 57.7247 79.8231 58.3033 78.67 58.3033Z" fill="#E4AB99"/>
<path d="M115.072 62.1954C115.072 56.2622 110.245 51.4351 104.312 51.4351H48.9671C48.3522 51.4351 47.7484 51.6 47.2194 51.9131C43.3344 54.2102 39.4117 56.1011 36.2598 57.621C35.1604 58.1509 34.122 58.6516 33.1776 59.1237C32.0142 59.7055 31.2793 60.8945 31.2793 62.1954V106.152C31.2793 107.453 32.0142 108.642 33.1776 109.224C47.0537 116.161 58.5883 117 72.0389 117C74.1219 117 76.2521 116.98 78.4426 116.959C80.8654 116.937 83.3701 116.913 85.9962 116.913H96.8528C102.786 116.913 107.613 112.086 107.613 106.152C107.613 104.158 107.068 102.288 106.117 100.684C109.209 98.7917 111.276 95.383 111.276 91.5C111.276 89.5051 110.731 87.6354 109.781 86.0319C112.872 84.1393 114.939 80.7305 114.939 76.8476C114.939 74.057 113.871 71.5111 112.123 69.5973C114.027 67.5907 115.072 64.9735 115.072 62.1954Z" fill="#F4BDAC"/>
<path d="M107.929 32.2477H100.603C98.7061 32.2477 97.1685 30.71 97.1685 28.8135C97.1685 26.9171 98.7061 25.3794 100.603 25.3794H107.929C109.825 25.3794 111.363 26.9171 111.363 28.8135C111.363 30.71 109.825 32.2477 107.929 32.2477Z" fill="#29CCB1"/>
<path d="M56.6456 32.2477H49.3194C47.4229 32.2477 45.8853 30.71 45.8853 28.8135C45.8853 26.9171 47.4229 25.3794 49.3194 25.3794H56.6456C58.5421 25.3794 60.0797 26.9171 60.0797 28.8135C60.0797 30.71 58.5425 32.2477 56.6456 32.2477Z" fill="#29CCB1"/>
<path d="M67.6385 13.2139C66.4513 13.2139 65.2973 12.598 64.6614 11.4964L60.9983 5.15164C60.0499 3.5093 60.6128 1.40878 62.2551 0.460671C63.8974 -0.487669 65.998 0.0751652 66.9461 1.71751L70.6092 8.06224C71.5575 9.70459 70.9947 11.8051 69.3523 12.7532C68.8117 13.0656 68.221 13.2139 67.6385 13.2139Z" fill="#29CCB1"/>
<path d="M89.6101 13.2141C89.0274 13.2141 88.4369 13.0658 87.8962 12.7534C86.2539 11.8051 85.691 9.70479 86.6394 8.06245L90.3025 1.71771C91.2506 0.0753683 93.3511 -0.487923 94.9935 0.460874C96.6358 1.40921 97.1986 3.5095 96.2503 5.15184L92.5872 11.4966C91.9517 12.5983 90.797 13.2141 89.6101 13.2141Z" fill="#29CCB1"/>
<path d="M23.4488 98.8697V116.956H16.5806V98.8697C16.5806 96.9741 18.1192 95.4355 20.0147 95.4355C21.9102 95.4355 23.4488 96.9741 23.4488 98.8697Z" fill="#73C3FF"/>
<path d="M107.929 32.2477H100.603C98.7061 32.2477 97.1685 30.71 97.1685 28.8135C97.1685 26.9171 98.7061 25.3794 100.603 25.3794H107.929C109.825 25.3794 111.363 26.9171 111.363 28.8135C111.363 30.71 109.825 32.2477 107.929 32.2477Z" fill="#EC6689"/>
<path d="M56.6456 32.2477H49.3194C47.4229 32.2477 45.8853 30.71 45.8853 28.8135C45.8853 26.9171 47.4229 25.3794 49.3194 25.3794H56.6456C58.5421 25.3794 60.0797 26.9171 60.0797 28.8135C60.0797 30.71 58.5425 32.2477 56.6456 32.2477Z" fill="#EC6689"/>
<path d="M67.6385 13.2139C66.4513 13.2139 65.2973 12.598 64.6614 11.4964L60.9983 5.15164C60.0499 3.5093 60.6128 1.40878 62.2551 0.460671C63.8974 -0.487669 65.998 0.0751652 66.9461 1.71751L70.6092 8.06224C71.5575 9.70459 70.9947 11.8051 69.3523 12.7532C68.8117 13.0656 68.221 13.2139 67.6385 13.2139Z" fill="#EC6689"/>
<path d="M89.6101 13.2141C89.0274 13.2141 88.4369 13.0658 87.8962 12.7534C86.2539 11.8051 85.691 9.70479 86.6394 8.06245L90.3025 1.71771C91.2506 0.0753683 93.3511 -0.487923 94.9935 0.460874C96.6358 1.40921 97.1986 3.5095 96.2503 5.15184L92.5872 11.4966C91.9517 12.5983 90.797 13.2141 89.6101 13.2141Z" fill="#EC6689"/>
<path d="M23.4488 98.8697V116.956H16.5806V98.8697C16.5806 96.9741 18.1192 95.4355 20.0147 95.4355C21.9102 95.4355 23.4488 96.9741 23.4488 98.8697Z" fill="#73C3FF"/>
<path d="M34.667 51.4351H5.36236C3.46682 51.4351 1.92822 52.9737 1.92822 54.8692V113.478C1.92822 115.376 3.46682 116.913 5.36236 116.956H27.3408C31.5509 116.913 35.2026 114.483 36.9679 110.953C37.6937 109.508 38.1011 107.876 38.1011 106.152V54.8692C38.1011 52.9734 36.5625 51.4351 34.667 51.4351Z" fill="#3166EC"/>
</svg>
