<svg width="16" height="11" viewBox="0 0 16 11" fill="none" xmlns="http://www.w3.org/2000/svg">
<path fill-rule="evenodd" clip-rule="evenodd" d="M9.92268 0.217462C10.1682 0.321833 10.2845 0.610672 10.1827 0.862604L9.7382 0.673624L9.29374 0.484645C9.39563 0.232714 9.67722 0.113092 9.92268 0.217462ZM9.7382 0.673624C9.29374 0.484645 9.29374 0.484645 9.29374 0.484645L5.58575 9.65295C5.48386 9.90488 5.60025 10.1937 5.84572 10.2981C6.09119 10.4025 6.37278 10.2828 6.47467 10.0309L10.1827 0.862604C10.1827 0.862604 10.1827 0.862604 9.7382 0.673624ZM4.2592 1.80754C4.44386 2.00353 4.43861 2.31612 4.24747 2.50573L1.8275 4.9063L4.18795 7.47486C4.37021 7.6732 4.36117 7.9857 4.16774 8.17285C3.97431 8.36 3.66975 8.35093 3.48748 8.15259L0.801095 5.22936C0.620433 5.03277 0.627505 4.72357 0.816962 4.53563L3.57874 1.79599C3.76988 1.60638 4.07453 1.61155 4.2592 1.80754ZM11.5998 1.90527C11.7896 1.71427 12.0943 1.71721 12.2803 1.91184L14.9682 4.72404C15.1525 4.91695 15.1514 5.22623 14.9656 5.41794L12.2023 8.26862C12.0148 8.46203 11.7101 8.46299 11.5217 8.27076C11.3334 8.07853 11.3326 7.7659 11.5201 7.57248L13.9481 5.06767L11.5929 2.60352C11.4069 2.40889 11.41 2.09627 11.5998 1.90527Z" fill="white"/>
<path d="M10.1827 0.862604C10.2845 0.610672 10.1682 0.321833 9.92268 0.217462C9.67722 0.113092 9.39563 0.232714 9.29374 0.484645M10.1827 0.862604L9.7382 0.673624M10.1827 0.862604C10.1827 0.862604 10.1827 0.862604 9.7382 0.673624M10.1827 0.862604L6.47467 10.0309C6.37278 10.2828 6.09119 10.4025 5.84572 10.2981C5.60025 10.1937 5.48386 9.90488 5.58575 9.65295L9.29374 0.484645M9.7382 0.673624L9.29374 0.484645M9.7382 0.673624C9.29374 0.484645 9.29374 0.484645 9.29374 0.484645M4.24747 2.50573C4.43861 2.31612 4.44386 2.00353 4.2592 1.80754C4.07453 1.61155 3.76988 1.60638 3.57874 1.79599L0.816962 4.53563C0.627505 4.72357 0.620433 5.03277 0.801095 5.22936L3.48748 8.15259C3.66975 8.35093 3.97431 8.36 4.16774 8.17285C4.36117 7.9857 4.37022 7.6732 4.18795 7.47486L1.8275 4.9063L4.24747 2.50573ZM12.2803 1.91184C12.0943 1.71721 11.7896 1.71427 11.5998 1.90527C11.41 2.09627 11.4069 2.40889 11.5929 2.60352L13.9481 5.06767L11.5201 7.57248C11.3326 7.7659 11.3334 8.07853 11.5217 8.27076C11.7101 8.46299 12.0148 8.46203 12.2023 8.26862L14.9656 5.41794C15.1514 5.22623 15.1525 4.91695 14.9682 4.72404L12.2803 1.91184Z" stroke="white" stroke-width="0.2" stroke-linecap="round" stroke-linejoin="round"/>
</svg>
