<svg width="14" height="14" viewBox="0 0 14 14" fill="none" xmlns="http://www.w3.org/2000/svg">
<path d="M2.92969 14H0.205078V5.24023H2.92969V14ZM1.58203 4.03906C1.15234 4.03906 0.78125 3.88281 0.46875 3.57031C0.15625 3.25781 0 2.88672 0 2.45703C0 2.02734 0.15625 1.65625 0.46875 1.34375C0.78125 1.03125 1.15234 0.875 1.58203 0.875C1.85547 0.875 2.10938 0.943359 2.34375 1.08008C2.59766 1.2168 2.79297 1.41211 2.92969 1.66602C3.08594 1.90039 3.16406 2.16406 3.16406 2.45703C3.16406 2.73047 3.08594 2.99414 2.92969 3.24805C2.79297 3.48242 2.59766 3.67773 2.34375 3.83398C2.10938 3.9707 1.85547 4.03906 1.58203 4.03906ZM13.125 14H10.4004V9.72266C10.4004 9.39062 10.3906 9.12695 10.3711 8.93164C10.3516 8.7168 10.3027 8.48242 10.2246 8.22852C10.1465 7.95508 10 7.75 9.78516 7.61328C9.58984 7.47656 9.32617 7.4082 8.99414 7.4082C8.34961 7.4082 7.91016 7.61328 7.67578 8.02344C7.46094 8.43359 7.35352 8.98047 7.35352 9.66406V14H4.62891V5.24023H7.26562V6.44141H7.29492C7.49023 6.05078 7.8125 5.71875 8.26172 5.44531C8.71094 5.15234 9.24805 5.00586 9.87305 5.00586C10.5371 5.00586 11.084 5.11328 11.5137 5.32812C11.9629 5.52344 12.2949 5.82617 12.5098 6.23633C12.7441 6.62695 12.9004 7.05664 12.9785 7.52539C13.0762 7.99414 13.125 8.55078 13.125 9.19531V14Z" fill="white"/>
</svg>
