<svg width="25" height="25" viewBox="0 0 25 25" fill="none" xmlns="http://www.w3.org/2000/svg">
<circle cx="12.5" cy="12.5" r="11.5" stroke="#9EA3B2" stroke-width="2" stroke-linecap="round" stroke-linejoin="round"/>
<path d="M10.32 7.785C10.96 7.395 11.705 7.2 12.555 7.2C13.175 7.2 13.725 7.305 14.205 7.515C14.685 7.725 15.055 8.015 15.315 8.385C15.585 8.755 15.72 9.185 15.72 9.675C15.72 10.205 15.595 10.66 15.345 11.04C15.105 11.42 14.74 11.86 14.25 12.36C13.84 12.78 13.53 13.14 13.32 13.44C13.11 13.73 12.98 14.06 12.93 14.43L12.87 14.85H11.76V14.235C11.76 13.675 11.86 13.205 12.06 12.825C12.26 12.435 12.55 12.015 12.93 11.565C13.22 11.225 13.435 10.93 13.575 10.68C13.725 10.43 13.8 10.15 13.8 9.84C13.8 9.49 13.675 9.22 13.425 9.03C13.185 8.83 12.85 8.73 12.42 8.73C11.72 8.73 11.02 8.945 10.32 9.375V7.785ZM11.28 15.9H13.395V18H11.28V15.9Z" fill="#9EA3B2"/>
</svg>
