<svg width="240" height="160" viewBox="0 0 240 160" fill="none" xmlns="http://www.w3.org/2000/svg">
<g clip-path="url(#clip0)">
<path opacity="0.1" d="M139.893 31.9114C125.774 31.4086 112.327 26.8424 99.4945 21.8564C86.6623 16.8705 73.9349 11.3228 60.1537 8.67576C51.2899 6.97298 41.152 6.73254 34.0116 11.4933C27.1374 16.0836 24.9165 23.9855 23.7232 31.3256C22.8244 36.847 22.2964 42.657 24.7573 47.8266C26.4676 51.4157 29.5001 54.4322 31.5988 57.8705C38.9006 69.8315 33.7389 84.5817 25.8284 96.2607C22.1197 101.741 17.811 106.971 14.9466 112.799C12.0822 118.626 10.7579 125.313 13.2646 131.263C15.7472 137.165 21.6659 141.589 28.0777 144.704C41.0996 151.029 56.4385 152.841 71.4064 153.867C104.53 156.138 137.827 155.154 171.038 154.17C183.329 153.805 195.673 153.436 207.763 151.532C214.478 150.474 221.409 148.795 226.285 144.745C232.472 139.602 234.005 130.891 229.858 124.443C222.903 113.625 203.679 110.939 198.812 99.3274C196.137 92.9382 198.884 85.8189 202.774 79.893C211.116 67.1801 225.098 56.0257 225.833 41.492C226.339 31.5114 219.618 21.5155 209.225 16.7918C198.332 11.8409 183.224 12.4638 175.192 20.6586C166.906 29.0872 152.361 32.3332 139.893 31.9114Z" fill="#3166ED"/>
<g opacity="0.1">
<path opacity="0.1" d="M93.8081 33.1831C95.1996 33.2214 96.5912 33.1543 97.9712 32.9828C98.1162 32.9647 98.0993 32.7502 97.9532 32.7459C96.5871 32.7079 95.1823 32.5775 93.7812 32.4786C92.7152 32.4033 92.7399 33.1534 93.8081 33.1831Z" fill="black"/>
<path opacity="0.1" d="M86.9627 65.3541C85.9788 65.9967 85.381 67.07 84.7026 68.0339C82.766 70.7574 79.9996 72.7672 76.8298 73.7687C76.7034 73.8086 76.7271 73.9981 76.8597 73.9969C81.5611 73.951 86.1402 71.4482 88.8476 67.5967C89.5261 66.6328 90.1238 65.5595 91.1077 64.9169C91.165 64.8816 91.1465 64.7941 91.0797 64.7855C89.6083 64.5952 88.1716 64.5612 86.9627 65.3541Z" fill="black"/>
<path opacity="0.1" d="M130.473 31.8388C129.232 30.0333 127.231 28.8836 125.17 28.1469C122.39 27.1546 119.325 26.8158 116.469 27.5611C116.433 27.5696 116.439 27.6234 116.476 27.6259C118.029 27.7313 119.56 28.0537 121.025 28.5841C123.086 29.3207 125.087 30.4705 126.328 32.276C127.569 34.0815 127.888 36.6477 126.671 38.462C125.514 40.191 123.645 39.4019 122.421 40.4664C121.3 41.4391 121.204 42.9146 120.381 44.1496C118.839 46.46 116.692 48.3027 114.02 49.0021C114.938 48.8929 115.907 48.906 116.823 48.8098C120.126 48.4666 122.733 46.4054 124.526 43.7124C125.349 42.4774 125.445 41.0019 126.566 40.0292C127.79 38.9647 129.659 39.7538 130.816 38.0248C132.035 36.2018 131.719 33.6444 130.473 31.8388Z" fill="black"/>
<path opacity="0.1" d="M112.68 49.2469C110.884 49.4349 108.88 49.1988 107.444 50.3114C105.679 51.6907 105.764 54.3159 105.319 56.5127C104.571 60.2672 101.581 63.3783 97.9964 64.6165C97.9418 64.6354 97.9511 64.7174 98.0086 64.7228C103.225 65.149 108.443 61.2254 109.482 56.0777C109.918 53.8809 109.842 51.2557 111.607 49.8765C111.936 49.6293 112.302 49.4359 112.691 49.3027C112.728 49.2898 112.719 49.2432 112.68 49.2469Z" fill="black"/>
</g>
<g opacity="0.1">
<path opacity="0.1" d="M18.3366 21.3056C18.8221 21.2505 18.5408 21.0557 18.0811 20.8898C14.8811 19.7345 2.56264 16.0128 0.465009 26.3062C0.413208 26.5604 0.321316 26.8156 0.229275 27.0582C0.117647 27.3523 -0.00877877 27.8047 0.00379793 28.3231C0.027933 29.3179 1.87025 29.7713 2.73804 30.2584C3.3011 30.5686 3.89859 30.8114 4.51822 30.9819C4.98695 31.1114 5.47209 31.1536 5.95013 31.1095C6.70059 31.0404 7.44116 30.8315 8.16973 30.6387C9.93946 30.1705 13.5167 28.6621 16.7176 23.848C16.8574 23.6378 17.0405 23.4555 17.2517 23.3173C17.3565 23.2488 17.48 23.1666 17.612 23.0762C18.364 22.561 18.0515 21.9393 17.1421 22.0007L16.4915 22.0447C16.074 22.073 15.7264 21.9095 15.7413 22.3278C15.7695 23.1157 15.3454 23.4818 15.4023 22.6955C15.4265 22.3614 15.3904 22.1324 15.2539 22.1073C15.203 22.0977 14.8656 22.1334 14.504 22.1764C13.9693 22.24 13.5829 22.7226 13.5763 23.2611C13.576 23.2873 13.5756 23.3141 13.5751 23.3412C13.5544 24.4439 13.2398 24.2862 13.1306 23.1886C13.0851 22.7312 12.61 22.4338 12.1587 22.5211L11.5614 22.6366C10.994 22.7464 10.6079 23.2847 10.6243 23.8624C10.6273 23.9679 10.6291 24.0799 10.6293 24.1975C10.6304 25.3431 10.2244 25.2413 10.2017 24.0959C10.1905 23.5304 9.59485 23.1154 9.05872 23.2958L8.73874 23.4035C8.16109 23.5979 7.79909 24.1747 7.81252 24.784C7.81334 24.8215 7.81403 24.8597 7.81456 24.8987C7.83257 26.2298 7.61232 25.7517 7.42827 24.4332C7.36163 23.9558 6.94984 24.0708 6.51026 24.2686C6.09703 24.4544 5.58722 24.6977 5.20681 24.9249C4.88905 25.1147 4.7624 25.4785 4.7728 25.8484C4.77692 25.9949 4.77856 26.1629 4.77495 26.3454C4.75386 27.4127 4.26323 27.2183 4.30283 26.1515C4.31188 25.9077 4.30026 25.7187 4.25825 25.6209C4.23571 25.5685 4.17309 25.5723 4.12803 25.6074C4.09215 25.6353 4.04371 25.6733 3.98477 25.7204C3.82757 25.8461 3.30399 25.6647 3.45726 25.5342C3.56369 25.4436 3.66088 25.1608 3.52146 25.1513C3.30185 25.1362 3.00236 25.1284 2.66658 25.1547C2.16543 25.194 1.91472 24.7818 2.40137 24.6558C2.87018 24.5344 3.48134 24.5107 4.26383 24.7058C4.39884 24.7394 4.54301 24.7172 4.65828 24.6392C4.67462 24.6282 4.6919 24.6165 4.71005 24.6043C5.1231 24.3262 5.57727 22.9899 5.09884 22.8519C4.638 22.719 4.01441 22.1443 4.4924 22.1839C5.18145 22.2411 6.03315 22.461 7.01162 23.0091C7.24554 23.1401 7.52557 23.1731 7.77761 23.0816L8.24515 22.912C8.78239 22.7171 9.46044 22.2956 8.94205 22.0551C8.28311 21.7493 7.69563 20.8964 8.36497 21.1787C8.85579 21.3857 9.39015 21.6667 9.96225 22.0449C10.1471 22.167 10.3723 22.2154 10.5893 22.1709L11.0756 22.0711C11.6153 21.9603 12.3779 21.6337 11.897 21.3649C11.3085 21.0359 10.7619 20.2073 11.3705 20.4974C11.9047 20.752 12.4904 21.0929 13.1147 21.5484C13.205 21.6144 13.3171 21.6474 13.4286 21.638C13.8708 21.6005 14.0017 21.0204 13.6162 20.8004C13.1146 20.5141 12.5932 20.2234 12.3349 20.1007C11.9661 19.9256 12.1101 19.6962 12.5035 19.8052C12.8049 19.8888 13.1003 19.9907 13.3882 20.1102C14.2941 20.4862 17.3619 21.4163 18.3366 21.3056Z" fill="#3166ED"/>
</g>
<g opacity="0.1">
<path opacity="0.1" d="M17.2509 8.14432C17.8327 8.64043 18.0376 8.3998 17.6803 7.72387C16.0638 4.66587 11.0679 -3.19798 4.40908 1.41734C4.23315 1.53928 4.03276 1.63888 3.83945 1.73085C3.60659 1.84163 3.2761 2.03708 2.98985 2.34947C2.43581 2.9541 3.27276 4.27307 3.51063 5.05789C3.67214 5.564 3.89177 6.04959 4.16511 6.50492C4.52664 7.11736 5.0772 7.59534 5.73368 7.86671L-nan -nanL5.73368 7.86671C5.73368 7.86671 8.98004 10.6662 15.4561 9.22647C15.6605 9.18103 15.8747 9.17734 16.0804 9.21622C16.1825 9.2355 16.3036 9.25745 16.4345 9.27927C17.1739 9.40256 17.3424 8.85555 16.7686 8.37325L16.3579 8.02811C16.0913 7.80406 15.975 7.50654 15.7433 7.76642C15.3089 8.25342 14.8414 8.22248 15.3263 7.78584C15.5339 7.59892 15.6449 7.44022 15.5771 7.34647C15.552 7.31173 15.3305 7.13979 15.0909 6.95857C14.7389 6.69238 14.6149 6.30541 14.3271 6.63992C13.7366 7.32618 13.162 7.49192 13.7189 6.77813C13.9499 6.48202 13.8381 6.03848 13.5234 5.83348L13.0942 5.55388C12.6973 5.29532 12.1631 5.39367 11.8453 5.74489C11.7884 5.80774 11.7273 5.87359 11.6623 5.94172C11.0142 6.62047 10.8332 6.33458 11.4662 5.6417C11.7773 5.30114 11.6609 4.71885 11.2439 4.52184L10.993 4.40333C10.5347 4.18684 9.98526 4.3248 9.64289 4.69855C9.62437 4.71877 9.60543 4.73929 9.5861 4.76007C8.8345 5.56819 8.97545 5.15515 9.62166 4.26051C9.85508 3.93734 9.54388 3.76952 9.16831 3.63586C8.81347 3.50957 8.36724 3.36255 8.01 3.28295C7.71892 3.2181 7.44377 3.36122 7.24391 3.58257C7.16183 3.67348 7.06518 3.7766 6.95663 3.88559C6.33993 4.50477 6.15956 4.11221 6.78517 3.50202C6.92749 3.36321 7.02624 3.24523 7.05496 3.16425C7.07014 3.12143 7.03153 3.08966 6.98635 3.08492C6.95031 3.08114 6.90141 3.07624 6.84139 3.07075C6.68042 3.05602 6.4768 2.65411 6.63812 2.66435C6.75001 2.67145 6.96395 2.56233 6.88886 2.47907C6.76766 2.3447 6.5939 2.16769 6.37857 1.99032C6.06027 1.72813 6.14619 1.34096 6.50563 1.54309C6.85231 1.73805 7.22785 2.07161 7.58107 2.6316C7.64387 2.73116 7.74456 2.80189 7.86056 2.82188C7.88719 2.82646 7.91624 2.83152 7.9474 2.837C8.35225 2.90819 9.36887 2.41237 9.16476 2.05558C8.96604 1.70822 8.92149 1.00061 9.18232 1.30411C9.54839 1.73005 9.91535 2.33651 10.1776 3.19429C10.2418 3.40403 10.3883 3.58203 10.5887 3.67123L10.9758 3.84357C11.4005 4.03264 12.0392 4.17482 11.8703 3.74169C11.6552 3.18979 11.7852 2.35182 12.0186 2.89629C12.1899 3.29616 12.3452 3.76332 12.4685 4.30781C12.5085 4.48448 12.6139 4.64059 12.767 4.7374L13.1151 4.95747C13.4968 5.19882 14.1344 5.43867 14.0019 5.00692C13.84 4.47893 13.9864 3.6778 14.1824 4.19413C14.3559 4.65132 14.5109 5.18981 14.6234 5.81928C14.6395 5.90941 14.687 5.99248 14.7581 6.05011C15.0416 6.27974 15.4494 6.01005 15.3456 5.66033C15.2101 5.204 15.0653 4.7338 14.9815 4.51361C14.8617 4.19906 15.0779 4.14537 15.2495 4.43493C15.4832 4.8293 15.6728 5.24734 15.8154 5.68139C16.0858 6.50453 16.5917 7.58213 17.2509 8.14432Z" fill="#3166ED"/>
</g>
<g clip-path="url(#clip1)">
<path d="M157.229 25.2239L43.4215 60.5322C40.8555 61.3283 39.4217 64.0507 40.2189 66.613L60.691 132.407C61.4882 134.969 64.2146 136.401 66.7806 135.605L180.588 100.296C183.154 99.5004 184.588 96.7779 183.791 94.2157L163.319 28.4218C162.521 25.8595 159.795 24.4278 157.229 25.2239Z" fill="url(#paint0_linear)"/>
<path d="M156.641 26.2625L45.3443 60.792C42.7784 61.588 41.3445 64.3105 42.1418 66.8727L61.787 130.01C62.5843 132.572 65.3107 134.004 67.8767 133.207L179.173 98.6781C181.739 97.882 183.173 95.1595 182.376 92.5973L162.731 29.4604C161.934 26.8982 159.207 25.4665 156.641 26.2625Z" fill="white"/>
<path d="M164.255 34.3641L43.666 71.7764L46.8974 82.1617L167.486 44.7494L164.255 34.3641Z" fill="#3166ED"/>
<path d="M96.9886 109.404L70.8417 117.516C69.6013 117.901 68.9085 119.218 69.2944 120.458C69.6802 121.698 70.9986 122.392 72.2391 122.007L98.3859 113.895C99.6264 113.51 100.319 112.193 99.9333 110.953C99.5474 109.713 98.229 109.019 96.9886 109.404Z" fill="#BDBDBD"/>
<path d="M117.116 94.8485L68.4823 109.937C67.2419 110.322 66.5491 111.639 66.935 112.879C67.3209 114.119 68.6392 114.813 69.8797 114.428L118.514 99.3393C119.754 98.9545 120.447 97.6372 120.061 96.3971C119.675 95.157 118.357 94.4636 117.116 94.8485Z" fill="#E0E0E0"/>
<path d="M197.135 66.3096H77.2343C74.5474 66.3096 72.3691 68.4846 72.3691 71.1677V140.142C72.3691 142.825 74.5474 145 77.2343 145H197.135C199.822 145 202.001 142.825 202.001 140.142V71.1677C202.001 68.4846 199.822 66.3096 197.135 66.3096Z" fill="url(#paint1_linear)"/>
<path d="M195.25 67.1113H78.705C76.0181 67.1113 73.8398 69.2864 73.8398 71.9694V138.084C73.8398 140.767 76.0181 142.942 78.705 142.942H195.25C197.937 142.942 200.115 140.767 200.115 138.084V71.9694C200.115 69.2864 197.937 67.1113 195.25 67.1113Z" fill="white"/>
<path d="M87.3801 87.6081V80.8546C87.3801 79.8384 86.5563 79.0146 85.5401 79.0146C84.524 79.0146 83.7002 79.8384 83.7002 80.8546V87.6081C83.7002 88.6243 84.524 89.448 85.5401 89.448C86.5563 89.448 87.3801 88.6243 87.3801 87.6081Z" fill="#E0E0E0"/>
<path d="M92.089 87.6081V80.8546C92.089 79.8384 91.2653 79.0146 90.2491 79.0146C89.2329 79.0146 88.4092 79.8384 88.4092 80.8546V87.6081C88.4092 88.6243 89.2329 89.448 90.2491 89.448C91.2653 89.448 92.089 88.6243 92.089 87.6081Z" fill="#E0E0E0"/>
<path d="M96.799 87.6081V80.8546C96.799 79.8384 95.9752 79.0146 94.9591 79.0146C93.9429 79.0146 93.1191 79.8384 93.1191 80.8546V87.6081C93.1191 88.6243 93.9429 89.448 94.9591 89.448C95.9752 89.448 96.799 88.6243 96.799 87.6081Z" fill="#E0E0E0"/>
<path d="M105.041 87.6081V80.8546C105.041 79.8384 104.217 79.0146 103.201 79.0146C102.185 79.0146 101.361 79.8384 101.361 80.8546V87.6081C101.361 88.6243 102.185 89.448 103.201 89.448C104.217 89.448 105.041 88.6243 105.041 87.6081Z" fill="#E0E0E0"/>
<path d="M109.751 87.6081V80.8546C109.751 79.8384 108.927 79.0146 107.911 79.0146C106.895 79.0146 106.071 79.8384 106.071 80.8546V87.6081C106.071 88.6243 106.895 89.448 107.911 89.448C108.927 89.448 109.751 88.6243 109.751 87.6081Z" fill="#E0E0E0"/>
<path d="M114.46 87.6081V80.8546C114.46 79.8384 113.636 79.0146 112.62 79.0146C111.604 79.0146 110.78 79.8384 110.78 80.8546V87.6081C110.78 88.6243 111.604 89.448 112.62 89.448C113.636 89.448 114.46 88.6243 114.46 87.6081Z" fill="#E0E0E0"/>
<path d="M122.701 87.6081V80.8546C122.701 79.8384 121.878 79.0146 120.861 79.0146C119.845 79.0146 119.021 79.8384 119.021 80.8546V87.6081C119.021 88.6243 119.845 89.448 120.861 89.448C121.878 89.448 122.701 88.6243 122.701 87.6081Z" fill="#E0E0E0"/>
<path d="M127.412 87.6081V80.8546C127.412 79.8384 126.588 79.0146 125.572 79.0146C124.556 79.0146 123.732 79.8384 123.732 80.8546V87.6081C123.732 88.6243 124.556 89.448 125.572 89.448C126.588 89.448 127.412 88.6243 127.412 87.6081Z" fill="#E0E0E0"/>
<path d="M132.122 87.6081V80.8546C132.122 79.8384 131.298 79.0146 130.282 79.0146C129.266 79.0146 128.442 79.8384 128.442 80.8546V87.6081C128.442 88.6243 129.266 89.448 130.282 89.448C131.298 89.448 132.122 88.6243 132.122 87.6081Z" fill="#E0E0E0"/>
<path d="M140.362 87.6081V80.8546C140.362 79.8384 139.539 79.0146 138.523 79.0146C137.506 79.0146 136.683 79.8384 136.683 80.8546V87.6081C136.683 88.6243 137.506 89.448 138.523 89.448C139.539 89.448 140.362 88.6243 140.362 87.6081Z" fill="#E0E0E0"/>
<path d="M145.071 87.6081V80.8546C145.071 79.8384 144.248 79.0146 143.232 79.0146C142.215 79.0146 141.392 79.8384 141.392 80.8546V87.6081C141.392 88.6243 142.215 89.448 143.232 89.448C144.248 89.448 145.071 88.6243 145.071 87.6081Z" fill="#E0E0E0"/>
<path d="M149.781 87.6081V80.8546C149.781 79.8384 148.958 79.0146 147.941 79.0146C146.925 79.0146 146.102 79.8384 146.102 80.8546V87.6081C146.102 88.6243 146.925 89.448 147.941 89.448C148.958 89.448 149.781 88.6243 149.781 87.6081Z" fill="#E0E0E0"/>
<path d="M113.433 131.625H86.0515C84.7529 131.625 83.7002 132.678 83.7002 133.976C83.7002 135.275 84.7529 136.328 86.0515 136.328H113.433C114.731 136.328 115.784 135.275 115.784 133.976C115.784 132.678 114.731 131.625 113.433 131.625Z" fill="#BDBDBD"/>
<path d="M136.98 123.689H86.0515C84.7529 123.689 83.7002 124.742 83.7002 126.041C83.7002 127.339 84.7529 128.392 86.0515 128.392H136.98C138.279 128.392 139.331 127.339 139.331 126.041C139.331 124.742 138.279 123.689 136.98 123.689Z" fill="#E0E0E0"/>
<path d="M179 108H167C163.134 108 160 111.134 160 115V121C160 124.866 163.134 128 167 128H179C182.866 128 186 124.866 186 121V115C186 111.134 182.866 108 179 108Z" fill="url(#paint2_linear)"/>
<path d="M178 109H168C164.134 109 161 112.134 161 116V120C161 123.866 164.134 127 168 127H178C181.866 127 185 123.866 185 120V116C185 112.134 181.866 109 178 109Z" fill="#69F0AE"/>
<path opacity="0.2" d="M178 109H168C164.134 109 161 112.134 161 116V120C161 123.866 164.134 127 168 127H178C181.866 127 185 123.866 185 120V116C185 112.134 181.866 109 178 109Z" fill="white"/>
<path d="M168 118.2L170.857 121L178 114" stroke="white" stroke-width="3"/>
</g>
</g>
<defs>
<linearGradient id="paint0_linear" x1="112.224" y1="136.28" x2="113.121" y2="25.151" gradientUnits="userSpaceOnUse">
<stop stop-color="#808080" stop-opacity="0.25"/>
<stop offset="0.54" stop-color="#808080" stop-opacity="0.12"/>
<stop offset="1" stop-color="#808080" stop-opacity="0.1"/>
</linearGradient>
<linearGradient id="paint1_linear" x1="71281.5" y1="53519.1" x2="71281.5" y2="18467.3" gradientUnits="userSpaceOnUse">
<stop stop-color="#808080" stop-opacity="0.25"/>
<stop offset="0.54" stop-color="#808080" stop-opacity="0.12"/>
<stop offset="1" stop-color="#808080" stop-opacity="0.1"/>
</linearGradient>
<linearGradient id="paint2_linear" x1="16548.8" y1="5021.2" x2="16548.8" y2="1939.2" gradientUnits="userSpaceOnUse">
<stop stop-color="#808080" stop-opacity="0.25"/>
<stop offset="0.54" stop-color="#808080" stop-opacity="0.12"/>
<stop offset="1" stop-color="#808080" stop-opacity="0.1"/>
</linearGradient>
<clipPath id="clip0">
<rect width="240" height="160" fill="white"/>
</clipPath>
<clipPath id="clip1">
<rect width="162" height="120" fill="white" transform="translate(40 25)"/>
</clipPath>
</defs>
</svg>
