<svg width="92" height="24" viewBox="0 0 92 24" fill="none" xmlns="http://www.w3.org/2000/svg">
<path d="M34.3988 5.95947H29.308C29.1394 5.95937 28.9764 6.01945 28.8482 6.12891C28.7201 6.23837 28.6352 6.39 28.609 6.55647L26.55 19.6108C26.5405 19.6714 26.5443 19.7333 26.5611 19.7923C26.5778 19.8513 26.6072 19.9059 26.6471 19.9525C26.687 19.999 26.7365 20.0364 26.7922 20.0619C26.8479 20.0875 26.9085 20.1007 26.9698 20.1006H29.4003C29.5689 20.1007 29.732 20.0405 29.8602 19.9309C29.9884 19.8213 30.0732 19.6695 30.0993 19.5029L30.6546 15.9819C30.6806 15.8154 30.7653 15.6637 30.8933 15.5541C31.0213 15.4446 31.1843 15.3843 31.3528 15.3842H32.9644C36.3179 15.3842 38.2533 13.7614 38.7587 10.5457C38.9865 9.13876 38.7684 8.03334 38.1096 7.25918C37.3861 6.40908 36.1028 5.95947 34.3988 5.95947ZM34.9862 10.7273C34.7078 12.554 33.312 12.554 31.9625 12.554H31.1943L31.7332 9.14248C31.749 9.04267 31.7998 8.95177 31.8767 8.88613C31.9535 8.82049 32.0512 8.78443 32.1523 8.78443H32.5044C33.4237 8.78443 34.2909 8.78443 34.739 9.30848C35.0063 9.62112 35.0882 10.0856 34.9862 10.7273ZM49.6164 10.6685H47.1785C47.0775 10.6685 46.9797 10.7045 46.9029 10.7702C46.8261 10.8358 46.7752 10.9267 46.7594 11.0265L46.6515 11.7084L46.481 11.4613C45.9533 10.6953 44.7764 10.4392 43.6017 10.4392C40.9078 10.4392 38.6069 12.4796 38.1588 15.3418C37.9258 16.7695 38.257 18.1347 39.0669 19.0868C39.8098 19.9622 40.8728 20.3269 42.1375 20.3269C44.3082 20.3269 45.5118 18.9312 45.5118 18.9312L45.4032 19.6086C45.3935 19.6692 45.397 19.7311 45.4136 19.7902C45.4301 19.8492 45.4593 19.904 45.4991 19.9507C45.5388 19.9974 45.5883 20.0349 45.6439 20.0606C45.6996 20.0864 45.7602 20.0998 45.8215 20.0999H48.0174C48.1861 20.1 48.3492 20.0398 48.4774 19.9302C48.6056 19.8206 48.6903 19.6688 48.7164 19.5021L50.034 11.1583C50.0437 11.0979 50.0402 11.036 50.0236 10.9771C50.0071 10.9182 49.978 10.8635 49.9383 10.817C49.8986 10.7704 49.8492 10.733 49.7936 10.7074C49.7381 10.6817 49.6776 10.6685 49.6164 10.6685ZM46.2183 15.4132C45.983 16.806 44.8776 17.7409 43.4677 17.7409C42.7598 17.7409 42.1941 17.5139 41.8308 17.0836C41.4705 16.6563 41.3336 16.0482 41.4482 15.3708C41.6678 13.9899 42.7918 13.0245 44.1801 13.0245C44.8724 13.0245 45.4352 13.2545 45.8059 13.6885C46.1773 14.1269 46.3247 14.7388 46.2183 15.4132ZM62.6 10.6685H60.1502C60.0347 10.6687 59.921 10.697 59.8189 10.7511C59.7168 10.8052 59.6294 10.8834 59.5644 10.9789L56.1856 15.9559L54.7534 11.1732C54.7095 11.0273 54.6197 10.8995 54.4974 10.8086C54.3752 10.7177 54.2269 10.6686 54.0745 10.6685H51.6672C51.5996 10.6683 51.533 10.6843 51.4728 10.715C51.4126 10.7458 51.3607 10.7905 51.3213 10.8454C51.2819 10.9003 51.2562 10.9638 51.2463 11.0307C51.2364 11.0975 51.2427 11.1658 51.2645 11.2297L53.9629 19.1486L51.426 22.7298C51.3809 22.7933 51.3542 22.868 51.3487 22.9457C51.3432 23.0233 51.3593 23.101 51.395 23.1702C51.4307 23.2394 51.4848 23.2974 51.5514 23.3379C51.6179 23.3784 51.6943 23.3998 51.7721 23.3998H54.2189C54.3332 23.3999 54.4458 23.3724 54.547 23.3195C54.6483 23.2666 54.7352 23.1899 54.8003 23.0961L62.9484 11.3347C62.9926 11.2711 63.0185 11.1966 63.0233 11.1193C63.0281 11.042 63.0117 10.9648 62.9758 10.8962C62.9399 10.8275 62.8859 10.77 62.8197 10.7299C62.7534 10.6898 62.6775 10.6685 62.6 10.6685Z" fill="#253B80"/>
<path d="M70.7115 5.95924H65.6199C65.4514 5.95931 65.2886 6.01948 65.1606 6.12892C65.0326 6.23836 64.9478 6.38989 64.9216 6.55624L62.8626 19.6106C62.8531 19.6711 62.8567 19.7329 62.8733 19.7918C62.8899 19.8507 62.9191 19.9054 62.9589 19.9519C62.9987 19.9985 63.0481 20.0359 63.1037 20.0615C63.1593 20.0871 63.2198 20.1004 63.281 20.1004H65.8938C66.0117 20.1002 66.1256 20.058 66.2151 19.9813C66.3046 19.9046 66.3639 19.7985 66.3821 19.6821L66.9665 15.9817C66.9925 15.8152 67.0772 15.6635 67.2052 15.5539C67.3332 15.4443 67.4962 15.384 67.6647 15.3839H69.2755C72.6298 15.3839 74.5644 13.7612 75.0706 10.5454C75.2991 9.13853 75.0795 8.03311 74.4208 7.25894C73.698 6.40885 72.4154 5.95924 70.7115 5.95924ZM71.2988 10.7271C71.0211 12.5538 69.6254 12.5538 68.2751 12.5538H67.5076L68.0473 9.14225C68.0628 9.04244 68.1135 8.95146 68.1902 8.88578C68.2669 8.82011 68.3646 8.78407 68.4657 8.7842H68.8177C69.7363 8.7842 70.6043 8.7842 71.0524 9.30825C71.3196 9.62089 71.4008 10.0854 71.2988 10.7271ZM85.9283 10.6682H83.4919C83.3908 10.668 83.2931 10.7039 83.2163 10.7697C83.1395 10.8354 83.0889 10.9264 83.0735 11.0263L82.9656 11.7082L82.7944 11.461C82.2666 10.695 81.0905 10.439 79.9158 10.439C77.2219 10.439 74.9217 12.4793 74.4736 15.3415C74.2414 16.7693 74.5711 18.1345 75.381 19.0865C76.1254 19.9619 77.1869 20.3267 78.4516 20.3267C80.6223 20.3267 81.8259 18.931 81.8259 18.931L81.7173 19.6084C81.7076 19.669 81.7112 19.7311 81.7278 19.7903C81.7444 19.8494 81.7737 19.9043 81.8137 19.951C81.8536 19.9977 81.9032 20.0352 81.959 20.0609C82.0149 20.0865 82.0756 20.0998 82.1371 20.0997H84.3323C84.5008 20.0996 84.6638 20.0393 84.7918 19.9297C84.9198 19.8201 85.0045 19.6684 85.0305 19.5019L86.3489 11.1581C86.3582 11.0974 86.3543 11.0355 86.3375 10.9765C86.3206 10.9176 86.2912 10.8629 86.2512 10.8164C86.2113 10.7699 86.1617 10.7325 86.106 10.7069C86.0502 10.6814 85.9896 10.6682 85.9283 10.6682ZM82.5301 15.413C82.2964 16.8057 81.1895 17.7407 79.7796 17.7407C79.0732 17.7407 78.506 17.5136 78.1427 17.0834C77.7824 16.6561 77.6469 16.0479 77.7601 15.3706C77.9812 13.9897 79.1037 13.0242 80.492 13.0242C81.1843 13.0242 81.747 13.2543 82.1177 13.6882C82.4907 14.1267 82.6381 14.7386 82.5301 15.413ZM88.8024 6.31729L86.7129 19.6106C86.7033 19.6711 86.7069 19.7329 86.7236 19.7918C86.7402 19.8507 86.7694 19.9054 86.8091 19.9519C86.8489 19.9985 86.8983 20.0359 86.9539 20.0615C87.0095 20.0871 87.07 20.1004 87.1312 20.1004H89.2319C89.581 20.1004 89.8773 19.8473 89.9309 19.5027L91.9913 6.44905C92.0009 6.38854 91.9972 6.32668 91.9806 6.26771C91.964 6.20875 91.9348 6.15408 91.8951 6.10747C91.8553 6.06086 91.806 6.02341 91.7503 5.99769C91.6947 5.97198 91.6342 5.9586 91.573 5.9585H89.2207C89.1197 5.95885 89.0222 5.99516 88.9455 6.0609C88.8688 6.12665 88.8181 6.21754 88.8024 6.31729Z" fill="#179BD7"/>
<path d="M5.40995 22.6384L5.79927 20.1655L4.93205 20.1454H0.791016L3.66882 1.89823C3.67739 1.84248 3.70571 1.79166 3.74861 1.75504C3.79152 1.71842 3.84615 1.69844 3.90256 1.69873H10.8849C13.203 1.69873 14.8027 2.1811 15.6379 3.13317C16.0294 3.57981 16.2788 4.04654 16.3994 4.56017C16.5259 5.0991 16.5281 5.743 16.4046 6.52833L16.3956 6.58565V7.08886L16.7872 7.31068C17.0861 7.46212 17.3548 7.66698 17.58 7.91513C17.9149 8.297 18.1316 8.78234 18.2231 9.35775C18.3177 9.94954 18.2864 10.6537 18.1316 11.451C17.9529 12.3681 17.6641 13.1668 17.274 13.8204C16.9299 14.4059 16.4671 14.913 15.9155 15.3091C15.3974 15.6769 14.7818 15.956 14.0858 16.1347C13.4114 16.3103 12.6424 16.3989 11.799 16.3989H11.2556C10.8671 16.3989 10.4897 16.5389 10.1934 16.7897C9.89755 17.0433 9.70129 17.3936 9.63957 17.7783L9.59863 18.0009L8.91081 22.3593L8.87955 22.5193C8.87136 22.5699 8.85722 22.5952 8.83637 22.6123C8.81618 22.6289 8.79099 22.638 8.76491 22.6384H5.40995Z" fill="#253B80"/>
<path d="M17.1576 6.64355C17.1367 6.7768 17.1129 6.91302 17.0861 7.05297C16.1653 11.7806 13.015 13.4138 8.99161 13.4138H6.94305C6.45101 13.4138 6.03639 13.7711 5.95971 14.2564L4.91087 20.9083L4.61386 22.7938C4.60203 22.8686 4.60654 22.9451 4.6271 23.018C4.64765 23.0908 4.68376 23.1584 4.73293 23.216C4.7821 23.2736 4.84316 23.3198 4.91192 23.3515C4.98067 23.3833 5.05549 23.3997 5.13121 23.3998H8.76457C9.19483 23.3998 9.56032 23.0871 9.62806 22.6628L9.66379 22.4782L10.3479 18.1369L10.3918 17.8987C10.4588 17.4729 10.825 17.1603 11.2553 17.1603H11.7987C15.3189 17.1603 18.0746 15.7311 18.8801 11.5952C19.2165 9.8675 19.0424 8.42488 18.1521 7.41028C17.8699 7.09641 17.5329 6.8366 17.1576 6.64355Z" fill="#179BD7"/>
<path d="M16.1954 6.26C15.9014 6.17494 15.6023 6.10855 15.2999 6.06123C14.7023 5.9694 14.0984 5.92534 13.4938 5.92946H8.0206C7.81231 5.9293 7.61083 6.00367 7.45259 6.13911C7.29434 6.27455 7.18978 6.46214 7.15778 6.66796L5.99346 14.0425L5.95996 14.2577C5.99623 14.0229 6.11533 13.8089 6.29571 13.6543C6.47609 13.4997 6.70583 13.4148 6.94338 13.4149H8.99211C13.0159 13.4149 16.1664 11.7809 17.0873 7.05359C17.1148 6.91363 17.1379 6.7774 17.1588 6.64414C16.9158 6.51671 16.6625 6.40988 16.4016 6.32477C16.3333 6.30208 16.2645 6.28049 16.1954 6.26Z" fill="#222D65"/>
<path d="M7.15649 6.6666C7.1882 6.46073 7.29271 6.27308 7.45102 6.13771C7.60933 6.00235 7.81094 5.92826 8.01923 5.92891H13.492C14.1403 5.92891 14.7455 5.97134 15.2979 6.06067C15.6716 6.11941 16.0402 6.20726 16.4003 6.32343C16.672 6.41351 16.9244 6.51995 17.1574 6.64278C17.4313 4.8957 17.1551 3.70616 16.2105 2.62903C15.1691 1.44322 13.2895 0.935547 10.8844 0.935547H3.90202C3.41072 0.935547 2.99163 1.29285 2.9157 1.77894L0.00737668 20.2137C-0.00616983 20.2993 -0.00101584 20.3868 0.0224841 20.4702C0.045984 20.5536 0.0872722 20.631 0.143509 20.6969C0.199745 20.7628 0.269595 20.8158 0.348253 20.8521C0.426911 20.8885 0.512512 20.9074 0.599166 20.9075H4.90992L5.99226 14.0405L7.15649 6.6666Z" fill="#253B80"/>
</svg>
