<svg width="92" height="24" viewBox="0 0 92 24" fill="none" xmlns="http://www.w3.org/2000/svg">
<path d="M34.8539 6H29.763C29.5945 5.99989 29.4315 6.05998 29.3033 6.16944C29.1752 6.2789 29.0903 6.43052 29.0641 6.597L27.0051 19.6513C26.9956 19.7119 26.9994 19.7738 27.0162 19.8328C27.0329 19.8918 27.0622 19.9464 27.1021 19.993C27.142 20.0395 27.1916 20.0769 27.2473 20.1025C27.303 20.128 27.3636 20.1412 27.4249 20.1412H29.8554C30.024 20.1412 30.1871 20.081 30.3153 19.9714C30.4435 19.8618 30.5282 19.71 30.5543 19.5434L31.1096 16.0225C31.1357 15.856 31.2204 15.7043 31.3484 15.5947C31.4764 15.4851 31.6394 15.4248 31.8079 15.4247H33.4195C36.773 15.4247 38.7084 13.8019 39.2138 10.5862C39.4416 9.17929 39.2235 8.07387 38.5647 7.2997C37.8412 6.44961 36.5578 6 34.8539 6ZM35.4412 10.7678C35.1628 12.5945 33.7671 12.5945 32.4175 12.5945H31.6493L32.1883 9.18301C32.204 9.0832 32.2549 8.9923 32.3318 8.92666C32.4086 8.86102 32.5063 8.82496 32.6074 8.82496H32.9595C33.8788 8.82496 34.746 8.82496 35.1941 9.34901C35.4613 9.66165 35.5432 10.1261 35.4412 10.7678ZM50.0715 10.709H47.6336C47.5326 10.709 47.4348 10.7451 47.358 10.8107C47.2812 10.8763 47.2303 10.9672 47.2145 11.0671L47.1066 11.7489L46.9361 11.5018C46.4083 10.7358 45.2315 10.4797 44.0568 10.4797C41.3629 10.4797 39.062 12.5201 38.6138 15.3823C38.3808 16.81 38.7121 18.1752 39.522 19.1273C40.2649 20.0027 41.3279 20.3675 42.5926 20.3675C44.7632 20.3675 45.9669 18.9717 45.9669 18.9717L45.8582 19.6491C45.8485 19.7097 45.8521 19.7716 45.8687 19.8307C45.8852 19.8897 45.9144 19.9445 45.9542 19.9912C45.9939 20.0379 46.0433 20.0754 46.099 20.1012C46.1547 20.1269 46.2152 20.1403 46.2766 20.1404H48.4725C48.6412 20.1405 48.8043 20.0803 48.9325 19.9707C49.0606 19.8611 49.1454 19.7093 49.1715 19.5427L50.4891 11.1988C50.4988 11.1384 50.4952 11.0766 50.4787 11.0176C50.4622 10.9587 50.4331 10.9041 50.3933 10.8575C50.3536 10.8109 50.3043 10.7735 50.2487 10.7479C50.1932 10.7223 50.1327 10.709 50.0715 10.709ZM46.6733 15.4537C46.4381 16.8465 45.3327 17.7814 43.9228 17.7814C43.2149 17.7814 42.6492 17.5544 42.2859 17.1242C41.9256 16.6969 41.7887 16.0887 41.9033 15.4113C42.1229 14.0305 43.2469 13.065 44.6352 13.065C45.3275 13.065 45.8902 13.295 46.2609 13.729C46.6324 14.1674 46.7798 14.7793 46.6733 15.4537ZM63.0551 10.709H60.6053C60.4898 10.7092 60.376 10.7376 60.274 10.7916C60.1719 10.8457 60.0845 10.9239 60.0195 11.0194L56.6407 15.9964L55.2085 11.2137C55.1645 11.0678 55.0748 10.94 54.9525 10.8491C54.8302 10.7582 54.682 10.7091 54.5296 10.709H52.1223C52.0547 10.7088 51.988 10.7248 51.9279 10.7556C51.8677 10.7863 51.8158 10.831 51.7764 10.8859C51.737 10.9409 51.7113 11.0044 51.7014 11.0712C51.6915 11.1381 51.6977 11.2063 51.7195 11.2703L54.418 19.1891L51.8811 22.7703C51.836 22.8338 51.8093 22.9085 51.8038 22.9862C51.7983 23.0639 51.8143 23.1416 51.8501 23.2108C51.8858 23.2799 51.9399 23.3379 52.0064 23.3784C52.073 23.4189 52.1493 23.4403 52.2272 23.4403H54.674C54.7883 23.4404 54.9008 23.4129 55.0021 23.36C55.1034 23.3071 55.1903 23.2304 55.2554 23.1366L63.4035 11.3752C63.4476 11.3116 63.4735 11.2371 63.4784 11.1598C63.4832 11.0825 63.4668 11.0053 63.4309 10.9367C63.395 10.8681 63.341 10.8106 63.2748 10.7704C63.2085 10.7303 63.1326 10.709 63.0551 10.709Z" fill="white"/>
<path d="M70.7115 5.95924H65.6199C65.4514 5.95931 65.2886 6.01948 65.1606 6.12892C65.0326 6.23836 64.9478 6.38989 64.9216 6.55624L62.8626 19.6106C62.8531 19.6711 62.8567 19.7329 62.8733 19.7918C62.8899 19.8507 62.9191 19.9054 62.9589 19.9519C62.9987 19.9985 63.0481 20.0359 63.1037 20.0615C63.1593 20.0871 63.2198 20.1004 63.281 20.1004H65.8938C66.0117 20.1002 66.1256 20.058 66.2151 19.9813C66.3046 19.9046 66.3639 19.7985 66.3821 19.6821L66.9665 15.9817C66.9925 15.8152 67.0772 15.6635 67.2052 15.5539C67.3332 15.4443 67.4962 15.384 67.6647 15.3839H69.2755C72.6298 15.3839 74.5644 13.7612 75.0706 10.5454C75.2991 9.13853 75.0795 8.03311 74.4208 7.25894C73.698 6.40885 72.4154 5.95924 70.7115 5.95924V5.95924ZM71.2988 10.7271C71.0211 12.5538 69.6254 12.5538 68.2751 12.5538H67.5076L68.0473 9.14225C68.0628 9.04244 68.1135 8.95146 68.1902 8.88578C68.2669 8.82011 68.3646 8.78407 68.4657 8.7842H68.8177C69.7363 8.7842 70.6043 8.7842 71.0524 9.30825C71.3196 9.62089 71.4008 10.0854 71.2988 10.7271V10.7271ZM85.9283 10.6682H83.4919C83.3908 10.668 83.2931 10.7039 83.2163 10.7697C83.1395 10.8354 83.0889 10.9264 83.0735 11.0263L82.9656 11.7082L82.7944 11.461C82.2666 10.695 81.0905 10.439 79.9158 10.439C77.2219 10.439 74.9217 12.4793 74.4736 15.3415C74.2414 16.7693 74.5711 18.1345 75.381 19.0865C76.1254 19.9619 77.1869 20.3267 78.4516 20.3267C80.6223 20.3267 81.8259 18.931 81.8259 18.931L81.7173 19.6084C81.7076 19.669 81.7112 19.7311 81.7278 19.7903C81.7444 19.8494 81.7737 19.9043 81.8137 19.951C81.8536 19.9977 81.9032 20.0352 81.959 20.0609C82.0149 20.0865 82.0756 20.0998 82.1371 20.0997H84.3323C84.5008 20.0996 84.6638 20.0393 84.7918 19.9297C84.9198 19.8201 85.0045 19.6684 85.0305 19.5019L86.3489 11.1581C86.3582 11.0974 86.3543 11.0355 86.3375 10.9765C86.3206 10.9176 86.2912 10.8629 86.2512 10.8164C86.2113 10.7699 86.1617 10.7325 86.106 10.7069C86.0502 10.6814 85.9896 10.6682 85.9283 10.6682V10.6682ZM82.5301 15.413C82.2964 16.8057 81.1895 17.7407 79.7796 17.7407C79.0732 17.7407 78.506 17.5136 78.1427 17.0834C77.7824 16.6561 77.6469 16.0479 77.7601 15.3706C77.9812 13.9897 79.1037 13.0242 80.492 13.0242C81.1843 13.0242 81.747 13.2543 82.1177 13.6882C82.4907 14.1267 82.6381 14.7386 82.5301 15.413V15.413ZM88.8024 6.31729L86.7129 19.6106C86.7033 19.6711 86.7069 19.7329 86.7236 19.7918C86.7402 19.8507 86.7694 19.9054 86.8091 19.9519C86.8489 19.9985 86.8983 20.0359 86.9539 20.0615C87.0095 20.0871 87.07 20.1004 87.1312 20.1004H89.2319C89.581 20.1004 89.8773 19.8473 89.9309 19.5027L91.9913 6.44905C92.0009 6.38854 91.9972 6.32668 91.9806 6.26771C91.964 6.20875 91.9348 6.15408 91.8951 6.10747C91.8553 6.06086 91.8059 6.02341 91.7503 5.99769C91.6947 5.97198 91.6342 5.9586 91.573 5.9585H89.2207C89.1197 5.95885 89.0222 5.99516 88.9455 6.0609C88.8688 6.12665 88.8181 6.21754 88.8024 6.31729Z" fill="white" fill-opacity="0.9"/>
<path d="M17.1576 6.64355C17.1367 6.7768 17.1129 6.91302 17.0861 7.05297C16.1653 11.7806 13.015 13.4138 8.99161 13.4138H6.94305C6.45101 13.4138 6.03639 13.7711 5.95971 14.2564L4.91087 20.9083L4.61386 22.7938C4.60203 22.8686 4.60654 22.9451 4.6271 23.018C4.64765 23.0908 4.68376 23.1584 4.73293 23.216C4.7821 23.2736 4.84316 23.3198 4.91192 23.3515C4.98067 23.3833 5.05549 23.3997 5.13121 23.3998H8.76457C9.19483 23.3998 9.56032 23.0871 9.62806 22.6628L9.66379 22.4782L10.3479 18.1369L10.3918 17.8987C10.4588 17.4729 10.825 17.1603 11.2553 17.1603H11.7987C15.3189 17.1603 18.0746 15.7311 18.8801 11.5952C19.2165 9.8675 19.0424 8.42488 18.1521 7.41028C17.8699 7.09641 17.5329 6.8366 17.1576 6.64355V6.64355Z" fill="white" fill-opacity="0.8"/>
<path d="M16.1954 6.26C15.9014 6.17494 15.6023 6.10855 15.2999 6.06123C14.7023 5.9694 14.0984 5.92534 13.4938 5.92946H8.0206C7.81231 5.9293 7.61083 6.00367 7.45259 6.13911C7.29434 6.27455 7.18978 6.46214 7.15778 6.66796L5.99346 14.0425L5.95996 14.2577C5.99623 14.0229 6.11533 13.8089 6.29571 13.6543C6.47609 13.4997 6.70583 13.4148 6.94338 13.4149H8.99211C13.0159 13.4149 16.1664 11.7809 17.0873 7.05359C17.1148 6.91363 17.1379 6.7774 17.1588 6.64414C16.9158 6.51671 16.6625 6.40988 16.4016 6.32477C16.3333 6.30208 16.2645 6.28049 16.1954 6.26V6.26Z" fill="white"/>
<path d="M7.15649 6.6666C7.1882 6.46073 7.29271 6.27308 7.45102 6.13771C7.60933 6.00235 7.81094 5.92826 8.01923 5.92891H13.492C14.1403 5.92891 14.7455 5.97134 15.2979 6.06067C15.6716 6.11941 16.0402 6.20726 16.4003 6.32343C16.672 6.41351 16.9244 6.51995 17.1574 6.64278C17.4313 4.8957 17.1551 3.70616 16.2105 2.62903C15.1691 1.44322 13.2895 0.935547 10.8844 0.935547H3.90202C3.41072 0.935547 2.99163 1.29285 2.9157 1.77894L0.00737668 20.2137C-0.00616983 20.2993 -0.00101584 20.3868 0.0224841 20.4702C0.045984 20.5536 0.0872722 20.631 0.143509 20.6969C0.199745 20.7628 0.269595 20.8158 0.348253 20.8521C0.426911 20.8885 0.512512 20.9074 0.599166 20.9075H4.90992L5.99226 14.0405L7.15649 6.6666Z" fill="white" fill-opacity="0.6"/>
</svg>
