<svg width="17" height="12" viewBox="0 0 17 12" fill="none" xmlns="http://www.w3.org/2000/svg">
<path d="M16.1133 2.50781C16.1719 2.74219 16.2207 3.03516 16.2598 3.38672C16.3184 3.73828 16.3574 4.08984 16.377 4.44141C16.3965 4.77344 16.4062 5.08594 16.4062 5.37891C16.4258 5.67188 16.4355 5.91602 16.4355 6.11133V6.375C16.4355 8.13281 16.3281 9.43164 16.1133 10.2715C16.0156 10.6035 15.8398 10.8965 15.5859 11.1504C15.332 11.4043 15.0293 11.5801 14.6777 11.6777C14.3066 11.7754 13.6035 11.8535 12.5684 11.9121C11.5332 11.9512 10.5859 11.9805 9.72656 12H8.4375C5.09766 12 3.01758 11.8926 2.19727 11.6777C1.43555 11.4629 0.957031 10.9941 0.761719 10.2715C0.664062 9.90039 0.585938 9.39258 0.527344 8.74805C0.488281 8.08398 0.458984 7.52734 0.439453 7.07812V6.375C0.439453 4.63672 0.546875 3.34766 0.761719 2.50781C0.859375 2.15625 1.03516 1.85352 1.28906 1.59961C1.54297 1.3457 1.8457 1.16992 2.19727 1.07227C2.56836 0.974609 3.27148 0.90625 4.30664 0.867188C5.3418 0.808594 6.28906 0.769531 7.14844 0.75H8.4375C11.7773 0.75 13.8574 0.857422 14.6777 1.07227C15.0293 1.16992 15.332 1.3457 15.5859 1.59961C15.8398 1.85352 16.0156 2.15625 16.1133 2.50781ZM6.79688 8.77734L10.9863 6.375L6.79688 4.00195V8.77734Z" fill="white"/>
</svg>
