<svg width="58" height="86" viewBox="0 0 58 86" fill="none" xmlns="http://www.w3.org/2000/svg">
<mask id="path-1-outside-1" maskUnits="userSpaceOnUse" x="-0.546875" y="-0.00012207" width="59" height="86" fill="black">
<rect fill="white" x="-0.546875" y="-0.00012207" width="59" height="86"/>
<path d="M54.4443 16.557C54.129 15.9418 53.3753 15.6989 52.7601 16.0136C52.1449 16.3289 51.9013 17.0832 52.2166 17.6984C54.1072 21.3898 55.0659 25.3798 55.0659 29.5577C55.0659 35.2684 53.2523 40.6902 49.8211 45.2358C48.3977 47.1219 47.6139 49.4938 47.6139 51.9143V52.0739C47.6139 55.4827 44.8409 58.2557 41.4328 58.2557H30.2624V42.4077C34.7786 41.7944 38.272 37.9152 38.272 33.2337C38.272 32.5422 37.7112 31.9821 37.0204 31.9821C36.3289 31.9821 35.7688 32.5422 35.7688 33.2337C35.7688 36.9597 32.7375 39.9916 29.0108 39.9916C25.2842 39.9916 22.2529 36.9597 22.2529 33.2337C22.2529 32.5422 21.6928 31.9821 21.0013 31.9821C20.3104 31.9821 19.7497 32.5422 19.7497 33.2337C19.7497 37.9152 23.243 41.7944 27.7592 42.4077V58.2557H16.5889C13.1808 58.2557 10.4077 55.4827 10.4077 52.0739V51.9124C10.4077 49.4777 9.61755 47.1334 8.12241 45.1326C4.79631 40.6793 3.01021 35.3806 2.95702 29.8102C2.89101 22.8375 5.5724 16.2494 10.5064 11.259C15.4392 6.27046 21.9933 3.51602 28.9621 3.5032H29.0115C37.2088 3.5032 44.7627 7.24458 49.7416 13.7737C50.1614 14.323 50.9464 14.4287 51.4957 14.0096C52.0455 13.5905 52.1513 12.8054 51.7321 12.2562C49.118 8.82753 45.7073 5.99041 41.8692 4.05178C37.8433 2.01831 33.4924 0.988438 28.9576 0.999974C21.3166 1.01407 14.1318 4.03256 8.72674 9.49851C3.31975 14.967 0.382015 22.189 0.454433 29.8339C0.512751 35.94 2.4706 41.7482 6.11777 46.6304C7.28672 48.1954 7.90451 50.0218 7.90451 51.9124V52.0739C7.90451 54.7431 9.11575 57.1335 11.0159 58.728C9.18304 59.5605 7.90451 61.4068 7.90451 63.5473C7.90451 65.9807 9.55667 68.0347 11.7971 68.6499C11.2165 69.4991 10.8769 70.5244 10.8769 71.628C10.8769 74.5459 13.2506 76.9197 16.1685 76.9197H19.7208C20.3348 81.4756 24.2453 84.9997 28.9666 84.9997C33.6879 84.9997 37.5984 81.4749 38.2118 76.9197H41.7641C44.682 76.9197 47.0557 74.5459 47.0557 71.628C47.0557 70.5244 46.7161 69.4991 46.1361 68.6499C48.3765 68.0347 50.0281 65.9807 50.0281 63.5473C50.0281 61.4293 48.7765 59.5989 46.975 58.7543C48.8931 57.1598 50.1171 54.7578 50.1171 52.0745V51.9149C50.1171 50.0346 50.7215 48.1986 51.8186 46.7438C55.5799 41.7604 57.5685 35.817 57.5685 29.5583C57.5685 24.9793 56.5175 20.6054 54.4443 16.557ZM28.9666 82.4971C25.6283 82.4971 22.8444 80.0888 22.2548 76.9197H35.6784C35.0888 80.0888 32.3042 82.4971 28.9666 82.4971ZM44.7364 60.7589C46.2745 60.7589 47.5255 62.0099 47.5255 63.5473C47.5255 65.0854 46.2745 66.3364 44.7364 66.3364H22.9501C22.2593 66.3364 21.6985 66.8965 21.6985 67.5874C21.6985 68.2789 22.2593 68.839 22.9501 68.839H41.7641C43.3022 68.839 44.5531 70.0899 44.5531 71.628C44.5531 73.1655 43.3022 74.4164 41.7641 74.4164H16.1685C14.6311 74.4164 13.3801 73.1655 13.3801 71.628C13.3801 70.0899 14.6311 68.839 16.1685 68.839H17.9443C18.6352 68.839 19.1953 68.2789 19.1953 67.5874C19.1953 66.8965 18.6352 66.3364 17.9443 66.3364H13.1962C11.6587 66.3364 10.4077 65.0848 10.4077 63.5473C10.4077 62.0092 11.6587 60.7589 13.1962 60.7589H44.7364Z"/>
</mask>
<path d="M54.4443 16.557C54.129 15.9418 53.3753 15.6989 52.7601 16.0136C52.1449 16.3289 51.9013 17.0832 52.2166 17.6984C54.1072 21.3898 55.0659 25.3798 55.0659 29.5577C55.0659 35.2684 53.2523 40.6902 49.8211 45.2358C48.3977 47.1219 47.6139 49.4938 47.6139 51.9143V52.0739C47.6139 55.4827 44.8409 58.2557 41.4328 58.2557H30.2624V42.4077C34.7786 41.7944 38.272 37.9152 38.272 33.2337C38.272 32.5422 37.7112 31.9821 37.0204 31.9821C36.3289 31.9821 35.7688 32.5422 35.7688 33.2337C35.7688 36.9597 32.7375 39.9916 29.0108 39.9916C25.2842 39.9916 22.2529 36.9597 22.2529 33.2337C22.2529 32.5422 21.6928 31.9821 21.0013 31.9821C20.3104 31.9821 19.7497 32.5422 19.7497 33.2337C19.7497 37.9152 23.243 41.7944 27.7592 42.4077V58.2557H16.5889C13.1808 58.2557 10.4077 55.4827 10.4077 52.0739V51.9124C10.4077 49.4777 9.61755 47.1334 8.12241 45.1326C4.79631 40.6793 3.01021 35.3806 2.95702 29.8102C2.89101 22.8375 5.5724 16.2494 10.5064 11.259C15.4392 6.27046 21.9933 3.51602 28.9621 3.5032H29.0115C37.2088 3.5032 44.7627 7.24458 49.7416 13.7737C50.1614 14.323 50.9464 14.4287 51.4957 14.0096C52.0455 13.5905 52.1513 12.8054 51.7321 12.2562C49.118 8.82753 45.7073 5.99041 41.8692 4.05178C37.8433 2.01831 33.4924 0.988438 28.9576 0.999974C21.3166 1.01407 14.1318 4.03256 8.72674 9.49851C3.31975 14.967 0.382015 22.189 0.454433 29.8339C0.512751 35.94 2.4706 41.7482 6.11777 46.6304C7.28672 48.1954 7.90451 50.0218 7.90451 51.9124V52.0739C7.90451 54.7431 9.11575 57.1335 11.0159 58.728C9.18304 59.5605 7.90451 61.4068 7.90451 63.5473C7.90451 65.9807 9.55667 68.0347 11.7971 68.6499C11.2165 69.4991 10.8769 70.5244 10.8769 71.628C10.8769 74.5459 13.2506 76.9197 16.1685 76.9197H19.7208C20.3348 81.4756 24.2453 84.9997 28.9666 84.9997C33.6879 84.9997 37.5984 81.4749 38.2118 76.9197H41.7641C44.682 76.9197 47.0557 74.5459 47.0557 71.628C47.0557 70.5244 46.7161 69.4991 46.1361 68.6499C48.3765 68.0347 50.0281 65.9807 50.0281 63.5473C50.0281 61.4293 48.7765 59.5989 46.975 58.7543C48.8931 57.1598 50.1171 54.7578 50.1171 52.0745V51.9149C50.1171 50.0346 50.7215 48.1986 51.8186 46.7438C55.5799 41.7604 57.5685 35.817 57.5685 29.5583C57.5685 24.9793 56.5175 20.6054 54.4443 16.557ZM28.9666 82.4971C25.6283 82.4971 22.8444 80.0888 22.2548 76.9197H35.6784C35.0888 80.0888 32.3042 82.4971 28.9666 82.4971ZM44.7364 60.7589C46.2745 60.7589 47.5255 62.0099 47.5255 63.5473C47.5255 65.0854 46.2745 66.3364 44.7364 66.3364H22.9501C22.2593 66.3364 21.6985 66.8965 21.6985 67.5874C21.6985 68.2789 22.2593 68.839 22.9501 68.839H41.7641C43.3022 68.839 44.5531 70.0899 44.5531 71.628C44.5531 73.1655 43.3022 74.4164 41.7641 74.4164H16.1685C14.6311 74.4164 13.3801 73.1655 13.3801 71.628C13.3801 70.0899 14.6311 68.839 16.1685 68.839H17.9443C18.6352 68.839 19.1953 68.2789 19.1953 67.5874C19.1953 66.8965 18.6352 66.3364 17.9443 66.3364H13.1962C11.6587 66.3364 10.4077 65.0848 10.4077 63.5473C10.4077 62.0092 11.6587 60.7589 13.1962 60.7589H44.7364Z" fill="#58454B"/>
<path d="M54.4443 16.557L54.7113 16.4203L54.7113 16.4202L54.4443 16.557ZM52.7601 16.0136L52.6235 15.7465L52.6233 15.7466L52.7601 16.0136ZM52.2166 17.6984L52.4836 17.5617L52.4836 17.5616L52.2166 17.6984ZM49.8211 45.2358L49.5816 45.0551L49.5816 45.0551L49.8211 45.2358ZM30.2624 58.2557H29.9624V58.5557H30.2624V58.2557ZM30.2624 42.4077L30.2221 42.1104L29.9624 42.1457V42.4077H30.2624ZM27.7592 42.4077H28.0592V42.1457L27.7996 42.1104L27.7592 42.4077ZM27.7592 58.2557V58.5557H28.0592V58.2557H27.7592ZM8.12241 45.1326L7.88205 45.3122L7.88209 45.3122L8.12241 45.1326ZM2.95702 29.8102L2.65703 29.813L2.65703 29.813L2.95702 29.8102ZM10.5064 11.259L10.2931 11.048L10.2931 11.0481L10.5064 11.259ZM28.9621 3.5032V3.2032L28.9616 3.2032L28.9621 3.5032ZM49.7416 13.7737L49.503 13.9557L49.5032 13.9559L49.7416 13.7737ZM51.4957 14.0096L51.3138 13.771L51.3137 13.7711L51.4957 14.0096ZM51.7321 12.2562L51.4936 12.4381L51.4936 12.4382L51.7321 12.2562ZM41.8692 4.05178L41.7339 4.31956V4.31956L41.8692 4.05178ZM28.9576 0.999974L28.9582 1.29997L28.9584 1.29997L28.9576 0.999974ZM8.72674 9.49851L8.51343 9.28757L8.51342 9.28758L8.72674 9.49851ZM0.454433 29.8339L0.154446 29.8367L0.154446 29.8367L0.454433 29.8339ZM6.11777 46.6304L6.35813 46.4508L6.35812 46.4508L6.11777 46.6304ZM11.0159 58.728L11.14 59.0012L11.5735 58.8043L11.2088 58.4982L11.0159 58.728ZM11.7971 68.6499L12.0448 68.8192L12.2822 68.472L11.8766 68.3606L11.7971 68.6499ZM19.7208 76.9197L20.0181 76.8796L19.9831 76.6197H19.7208V76.9197ZM38.2118 76.9197V76.6197H37.9494L37.9144 76.8796L38.2118 76.9197ZM46.1361 68.6499L46.0566 68.3606L45.6512 68.4719L45.8883 68.8191L46.1361 68.6499ZM46.975 58.7543L46.7832 58.5236L46.4201 58.8254L46.8476 59.0259L46.975 58.7543ZM51.8186 46.7438L51.5792 46.5631L51.5791 46.5631L51.8186 46.7438ZM22.2548 76.9197V76.6197H21.8938L21.9599 76.9745L22.2548 76.9197ZM35.6784 76.9197L35.9733 76.9745L36.0394 76.6197H35.6784V76.9197ZM54.7113 16.4202C54.3204 15.6575 53.386 15.3565 52.6235 15.7465L52.8967 16.2807C53.3646 16.0413 53.9376 16.2261 54.1773 16.6939L54.7113 16.4202ZM52.6233 15.7466C51.8607 16.1374 51.5587 17.0724 51.9496 17.8352L52.4836 17.5616C52.2439 17.094 52.429 16.5204 52.8969 16.2805L52.6233 15.7466ZM51.9496 17.8352C53.8183 21.4839 54.7659 25.427 54.7659 29.5577H55.3659C55.3659 25.3326 54.396 21.2957 52.4836 17.5617L51.9496 17.8352ZM54.7659 29.5577C54.7659 35.2034 52.9734 40.5616 49.5816 45.0551L50.0605 45.4166C53.5311 40.8187 55.3659 35.3335 55.3659 29.5577H54.7659ZM49.5816 45.0551C48.1179 46.9946 47.3139 49.4303 47.3139 51.9143H47.9139C47.9139 49.5572 48.6775 47.2492 50.0605 45.4165L49.5816 45.0551ZM47.3139 51.9143V52.0739H47.9139V51.9143H47.3139ZM47.3139 52.0739C47.3139 55.317 44.6752 57.9557 41.4328 57.9557V58.5557C45.0066 58.5557 47.9139 55.6483 47.9139 52.0739H47.3139ZM41.4328 57.9557H30.2624V58.5557H41.4328V57.9557ZM30.5624 58.2557V42.4077H29.9624V58.2557H30.5624ZM30.3028 42.705C34.9654 42.0718 38.572 38.0676 38.572 33.2337H37.972C37.972 37.7628 34.5919 41.517 30.2221 42.1104L30.3028 42.705ZM38.572 33.2337C38.572 32.3764 37.8768 31.6821 37.0204 31.6821V32.2821C37.5457 32.2821 37.972 32.708 37.972 33.2337H38.572ZM37.0204 31.6821C36.1632 31.6821 35.4688 32.3765 35.4688 33.2337H36.0688C36.0688 32.7079 36.4946 32.2821 37.0204 32.2821V31.6821ZM35.4688 33.2337C35.4688 36.794 32.5718 39.6916 29.0108 39.6916V40.2916C32.9032 40.2916 36.0688 37.1253 36.0688 33.2337H35.4688ZM29.0108 39.6916C25.4499 39.6916 22.5529 36.794 22.5529 33.2337H21.9529C21.9529 37.1253 25.1185 40.2916 29.0108 40.2916V39.6916ZM22.5529 33.2337C22.5529 32.3765 21.8585 31.6821 21.0013 31.6821V32.2821C21.5271 32.2821 21.9529 32.7079 21.9529 33.2337H22.5529ZM21.0013 31.6821C20.1448 31.6821 19.4497 32.3764 19.4497 33.2337H20.0497C20.0497 32.708 20.476 32.2821 21.0013 32.2821V31.6821ZM19.4497 33.2337C19.4497 38.0676 23.0563 42.0718 27.7188 42.705L27.7996 42.1104C23.4298 41.517 20.0497 37.7628 20.0497 33.2337H19.4497ZM27.4592 42.4077V58.2557H28.0592V42.4077H27.4592ZM27.7592 57.9557H16.5889V58.5557H27.7592V57.9557ZM16.5889 57.9557C13.3465 57.9557 10.7077 55.317 10.7077 52.0739H10.1077C10.1077 55.6483 13.0151 58.5557 16.5889 58.5557V57.9557ZM10.7077 52.0739V51.9124H10.1077V52.0739H10.7077ZM10.7077 51.9124C10.7077 49.4112 9.89554 47.0043 8.36272 44.9531L7.88209 45.3122C9.33956 47.2626 10.1077 49.5442 10.1077 51.9124H10.7077ZM8.36277 44.9531C5.0749 40.5509 3.30959 35.3141 3.257 29.8073L2.65703 29.813C2.71083 35.447 4.51772 40.8076 7.88205 45.3122L8.36277 44.9531ZM3.25701 29.8073C3.19176 22.9152 5.84153 16.4039 10.7198 11.4699L10.2931 11.0481C5.30326 16.0949 2.59026 22.7598 2.65703 29.813L3.25701 29.8073ZM10.7198 11.4699C15.5967 6.53782 22.0745 3.81587 28.9627 3.8032L28.9616 3.2032C21.9122 3.21617 15.2817 6.00311 10.2931 11.048L10.7198 11.4699ZM28.9621 3.8032H29.0115V3.2032H28.9621V3.8032ZM29.0115 3.8032C37.1151 3.8032 44.5808 7.5008 49.503 13.9557L49.9801 13.5918C44.9446 6.98837 37.3025 3.2032 29.0115 3.2032V3.8032ZM49.5032 13.9559C50.0234 14.6365 50.9965 14.7678 51.6777 14.2481L51.3137 13.7711C50.8963 14.0896 50.2993 14.0095 49.9799 13.5916L49.5032 13.9559ZM51.6775 14.2482C52.3591 13.7286 52.4904 12.7552 51.9706 12.0742L51.4936 12.4382C51.8122 12.8555 51.7319 13.4523 51.3138 13.771L51.6775 14.2482ZM51.9707 12.0743C49.3292 8.60966 45.8832 5.74313 42.0044 3.784L41.7339 4.31956C45.5315 6.23768 48.9069 9.04539 51.4936 12.4381L51.9707 12.0743ZM42.0044 3.784C37.9362 1.72916 33.5387 0.688319 28.9569 0.699975L28.9584 1.29997C33.4461 1.28856 37.7503 2.30747 41.7339 4.31956L42.0044 3.784ZM28.9571 0.699974C21.2355 0.714222 13.9743 3.76516 8.51343 9.28757L8.94006 9.70945C14.2893 4.29995 21.3976 1.31392 28.9582 1.29997L28.9571 0.699974ZM8.51342 9.28758C3.05057 14.8126 0.0812657 22.1113 0.154446 29.8367L0.754419 29.831C0.682764 22.2666 3.58893 15.1215 8.94007 9.70944L8.51342 9.28758ZM0.154446 29.8367C0.213372 36.0065 2.19201 41.8766 5.87743 46.8099L6.35812 46.4508C2.74919 41.6199 0.812131 35.8736 0.754419 29.831L0.154446 29.8367ZM5.87742 46.8099C7.00902 48.3249 7.60451 50.0888 7.60451 51.9124H8.20451C8.20451 49.9549 7.56442 48.0658 6.35813 46.4508L5.87742 46.8099ZM7.60451 51.9124V52.0739H8.20451V51.9124H7.60451ZM7.60451 52.0739C7.60451 54.8359 8.85823 57.3091 10.8231 58.9578L11.2088 58.4982C9.37327 56.958 8.20451 54.6503 8.20451 52.0739H7.60451ZM10.8919 58.4549C8.95628 59.334 7.60451 61.2844 7.60451 63.5473H8.20451C8.20451 61.5293 9.40981 59.787 11.14 59.0012L10.8919 58.4549ZM7.60451 63.5473C7.60451 66.1197 9.35075 68.2892 11.7177 68.9392L11.8766 68.3606C9.76259 67.7801 8.20451 65.8417 8.20451 63.5473H7.60451ZM11.5495 68.4806C10.936 69.3779 10.5769 70.4619 10.5769 71.628H11.1769C11.1769 70.587 11.4971 69.6203 12.0448 68.8192L11.5495 68.4806ZM10.5769 71.628C10.5769 74.7116 13.0849 77.2197 16.1685 77.2197V76.6197C13.4163 76.6197 11.1769 74.3802 11.1769 71.628H10.5769ZM16.1685 77.2197H19.7208V76.6197H16.1685V77.2197ZM19.4235 76.9597C20.0572 81.6622 24.0928 85.2997 28.9666 85.2997V84.6997C24.3979 84.6997 20.6123 81.289 20.0181 76.8796L19.4235 76.9597ZM28.9666 85.2997C33.8404 85.2997 37.876 81.6615 38.5091 76.9597L37.9144 76.8796C37.3209 81.2883 33.5354 84.6997 28.9666 84.6997V85.2997ZM38.2118 77.2197H41.7641V76.6197H38.2118V77.2197ZM41.7641 77.2197C44.8476 77.2197 47.3557 74.7116 47.3557 71.628H46.7557C46.7557 74.3802 44.5163 76.6197 41.7641 76.6197V77.2197ZM47.3557 71.628C47.3557 70.4619 46.9966 69.3779 46.3838 68.4807L45.8883 68.8191C46.4355 69.6202 46.7557 70.587 46.7557 71.628H47.3557ZM46.2155 68.9392C48.5825 68.2892 50.3281 66.1196 50.3281 63.5473H49.7281C49.7281 65.8418 48.1706 67.7801 46.0566 68.3606L46.2155 68.9392ZM50.3281 63.5473C50.3281 61.3081 49.0048 59.3747 47.1023 58.4827L46.8476 59.0259C48.5481 59.8232 49.7281 61.5504 49.7281 63.5473H50.3281ZM47.1668 58.985C49.1502 57.3362 50.4171 54.8512 50.4171 52.0745H49.8171C49.8171 54.6645 48.636 56.9834 46.7832 58.5236L47.1668 58.985ZM50.4171 52.0745V51.9149H49.8171V52.0745H50.4171ZM50.4171 51.9149C50.4171 50.0976 51.0016 48.3254 52.0582 46.9244L51.5791 46.5631C50.4414 48.0717 49.8171 49.9717 49.8171 51.9149H50.4171ZM52.0581 46.9245C55.8587 41.8889 57.8685 35.8821 57.8685 29.5583H57.2685C57.2685 35.7519 55.3011 41.6319 51.5792 46.5631L52.0581 46.9245ZM57.8685 29.5583C57.8685 24.9321 56.8063 20.5113 54.7113 16.4203L54.1773 16.6938C56.2286 20.6995 57.2685 25.0265 57.2685 29.5583H57.8685ZM28.9666 82.1971C25.7759 82.1971 23.1135 79.8948 22.5497 76.8648L21.9599 76.9745C22.5753 80.2827 25.4808 82.7971 28.9666 82.7971V82.1971ZM22.2548 77.2197H35.6784V76.6197H22.2548V77.2197ZM35.3835 76.8648C34.8198 79.8948 32.1567 82.1971 28.9666 82.1971V82.7971C32.4518 82.7971 35.3579 80.2827 35.9733 76.9745L35.3835 76.8648ZM44.7364 61.0589C46.1089 61.0589 47.2255 62.1756 47.2255 63.5473H47.8255C47.8255 61.8442 46.4401 60.4589 44.7364 60.4589V61.0589ZM47.2255 63.5473C47.2255 64.9197 46.1088 66.0364 44.7364 66.0364V66.6364C46.4402 66.6364 47.8255 65.2511 47.8255 63.5473H47.2255ZM44.7364 66.0364H22.9501V66.6364H44.7364V66.0364ZM22.9501 66.0364C22.0938 66.0364 21.3985 66.7306 21.3985 67.5874H21.9985C21.9985 67.0624 22.4248 66.6364 22.9501 66.6364V66.0364ZM21.3985 67.5874C21.3985 68.4446 22.0937 69.139 22.9501 69.139V68.539C22.4249 68.539 21.9985 68.1131 21.9985 67.5874H21.3985ZM22.9501 69.139H41.7641V68.539H22.9501V69.139ZM41.7641 69.139C43.1365 69.139 44.2531 70.2556 44.2531 71.628H44.8531C44.8531 69.9243 43.4678 68.539 41.7641 68.539V69.139ZM44.2531 71.628C44.2531 72.9997 43.1365 74.1164 41.7641 74.1164V74.7164C43.4678 74.7164 44.8531 73.3312 44.8531 71.628H44.2531ZM41.7641 74.1164H16.1685V74.7164H41.7641V74.1164ZM16.1685 74.1164C14.7967 74.1164 13.6801 72.9998 13.6801 71.628H13.0801C13.0801 73.3311 14.4654 74.7164 16.1685 74.7164V74.1164ZM13.6801 71.628C13.6801 70.2556 14.7968 69.139 16.1685 69.139V68.539C14.4653 68.539 13.0801 69.9243 13.0801 71.628H13.6801ZM16.1685 69.139H17.9443V68.539H16.1685V69.139ZM17.9443 69.139C18.801 69.139 19.4953 68.4444 19.4953 67.5874H18.8953C18.8953 68.1133 18.4694 68.539 17.9443 68.539V69.139ZM19.4953 67.5874C19.4953 66.7308 18.8009 66.0364 17.9443 66.0364V66.6364C18.4695 66.6364 18.8953 67.0622 18.8953 67.5874H19.4953ZM17.9443 66.0364H13.1962V66.6364H17.9443V66.0364ZM13.1962 66.0364C11.8245 66.0364 10.7077 64.9192 10.7077 63.5473H10.1077C10.1077 65.2504 11.4929 66.6364 13.1962 66.6364V66.0364ZM10.7077 63.5473C10.7077 62.175 11.8244 61.0589 13.1962 61.0589V60.4589C11.4931 60.4589 10.1077 61.8435 10.1077 63.5473H10.7077ZM13.1962 61.0589H44.7364V60.4589H13.1962V61.0589Z" fill="#58454B" mask="url(#path-1-outside-1)"/>
</svg>
