<svg width="94" height="94" viewBox="0 0 94 94" fill="none" xmlns="http://www.w3.org/2000/svg">
<g clip-path="url(#clip0)">
<path d="M47.0001 22.3274C47.0001 23.1752 47.989 23.6384 48.6403 23.0956L57.8834 15.3931C58.0632 15.2433 58.2897 15.1613 58.5236 15.1613H71.7743C72.3266 15.1613 72.7743 14.7136 72.7743 14.1613V1C72.7743 0.447716 72.3266 0 71.7743 0H37.3872C36.8349 0 36.3872 0.447715 36.3872 1V14.1613C36.3872 14.7136 36.8349 15.1613 37.3872 15.1613H46.0001C46.5524 15.1613 47.0001 15.609 47.0001 16.1613V22.3274ZM40.4195 12.129C39.8672 12.129 39.4195 11.6813 39.4195 11.129V4.03226C39.4195 3.47997 39.8672 3.03226 40.4195 3.03226H68.742C69.2943 3.03226 69.742 3.47997 69.742 4.03226V11.129C69.742 11.6813 69.2943 12.129 68.742 12.129H57.4265C57.1926 12.129 56.966 12.2111 56.7863 12.3608L51.6726 16.6224C51.0212 17.1652 50.0324 16.702 50.0324 15.8542V13.129C50.0324 12.5767 49.5847 12.129 49.0324 12.129H40.4195Z" fill="#58454B"/>
<path d="M42.4517 7.06451C42.4517 6.51223 42.8994 6.06451 43.4517 6.06451H44.4839C45.0362 6.06451 45.4839 6.51223 45.4839 7.06451V8.09677C45.4839 8.64906 45.0362 9.09677 44.4839 9.09677H43.4517C42.8994 9.09677 42.4517 8.64906 42.4517 8.09677V7.06451Z" fill="#58454B"/>
<path d="M48.5161 7.06451C48.5161 6.51223 48.9638 6.06451 49.5161 6.06451H59.6451C60.1974 6.06451 60.6451 6.51223 60.6451 7.06451V8.09677C60.6451 8.64906 60.1974 9.09677 59.6451 9.09677H49.5161C48.9638 9.09677 48.5161 8.64906 48.5161 8.09677V7.06451Z" fill="#58454B"/>
<path d="M63.6772 7.06451C63.6772 6.51223 64.125 6.06451 64.6772 6.06451H65.7095C66.2618 6.06451 66.7095 6.51223 66.7095 7.06451V8.09677C66.7095 8.64906 66.2618 9.09677 65.7095 9.09677H64.6772C64.125 9.09677 63.6772 8.64906 63.6772 8.09677V7.06451Z" fill="#58454B"/>
<path d="M78.0833 90.9678C77.5695 90.9678 77.1393 90.5784 77.0883 90.0671L76.0462 79.634C75.9935 79.1066 76.3633 78.6346 76.8773 78.5054C81.4805 77.3485 84.9032 73.184 84.9032 68.2258V49.5161C84.9032 48.9639 84.4555 48.5161 83.9032 48.5161H79.8387C79.2864 48.5161 78.8387 48.0684 78.8387 47.5161V46.4211C78.8387 44.8458 78.177 43.3933 77.0519 42.3725C76.5384 41.9065 76.424 41.0609 76.8565 40.519C78.0948 38.9675 78.8387 37.0067 78.8387 34.871V31.8387C78.8387 26.8217 74.7589 22.7419 69.7419 22.7419C64.7249 22.7419 60.6452 26.8217 60.6452 31.8387V34.871C60.6452 38.2398 62.489 41.1789 65.2185 42.7494C65.8523 43.114 66.0466 44.0031 65.5296 44.5201L58.7942 51.2555C58.6066 51.443 58.3523 51.5484 58.087 51.5484H50.9341C50.4078 51.5484 49.9802 51.1373 49.8649 50.6238C49.3869 48.4968 47.7879 46.7305 45.6342 46.1146L40.1449 44.5479C39.7155 44.4254 39.4194 44.0329 39.4194 43.5863V42.0789C39.4194 41.795 39.5421 41.5266 39.744 41.327C41.4114 39.6782 42.4516 37.3973 42.4516 34.871V31.8387C42.4516 26.8217 38.3718 22.7419 33.3548 22.7419C28.3378 22.7419 24.2581 26.8217 24.2581 31.8387V34.871C24.2581 37.3961 25.2984 39.677 26.966 41.327C27.1677 41.5266 27.2903 41.7949 27.2903 42.0786V43.5878C27.2903 44.0344 26.9942 44.4269 26.5648 44.5494L21.0755 46.1161C18.486 46.8542 16.6774 49.2527 16.6774 51.9474V56.6129C16.6774 57.1652 16.2297 57.6129 15.6774 57.6129H11.6129C11.0606 57.6129 10.6129 58.0606 10.6129 58.6129V65.7097C10.6129 66.262 11.0606 66.7097 11.6129 66.7097H12.6452C13.1974 66.7097 13.6452 67.1574 13.6452 67.7097V89.9678C13.6452 90.52 13.1974 90.9678 12.6452 90.9678H0.999999C0.447715 90.9678 0 91.4155 0 91.9678V93C0 93.5523 0.447715 94 1 94H93C93.5523 94 94 93.5523 94 93V91.9678C94 91.4155 93.5523 90.9678 93 90.9678H78.0833ZM62.6774 66.7097C63.2297 66.7097 63.6774 66.262 63.6774 65.7097V60.171C63.6774 59.9058 63.7828 59.6515 63.9703 59.4639L74.4206 49.0136C75.1216 48.3126 75.5663 47.3944 75.7224 46.4219C75.7291 46.3804 75.8064 46.379 75.8064 46.4211V65.1936C75.8064 67.7009 73.7654 69.7419 71.2581 69.7419H60.129C59.5767 69.7419 59.129 69.2942 59.129 68.7419V67.7097C59.129 67.1574 59.5767 66.7097 60.129 66.7097H62.6774ZM59.129 79.8387C59.129 79.2864 59.5767 78.8387 60.129 78.8387H65.949C66.4628 78.8387 66.893 79.228 66.9441 79.7392L67.9567 89.8683C68.0156 90.4569 67.5533 90.9678 66.9617 90.9678H60.129C59.5767 90.9678 59.129 90.52 59.129 89.9678V79.8387ZM70.011 79.9382C69.9522 79.3495 70.4144 78.8387 71.0061 78.8387H72.0135C72.5273 78.8387 72.9575 79.228 73.0086 79.7392L74.0212 89.8683C74.0801 90.4569 73.6178 90.9678 73.0262 90.9678H72.0187C71.505 90.9678 71.0748 90.5784 71.0237 90.0672L70.011 79.9382ZM78.8387 65.1936V52.5484C78.8387 51.9961 79.2864 51.5484 79.8387 51.5484H80.871C81.4232 51.5484 81.871 51.9961 81.871 52.5484V68.2258C81.871 72.4055 78.47 75.8065 74.2903 75.8065H60.129C59.5767 75.8065 59.129 75.3587 59.129 74.8065V73.7742C59.129 73.2219 59.5767 72.7742 60.129 72.7742H71.2581C75.4378 72.7742 78.8387 69.3733 78.8387 65.1936ZM63.6774 34.871V31.8387C63.6774 28.4941 66.3973 25.7742 69.7419 25.7742C73.0866 25.7742 75.8064 28.4941 75.8064 31.8387V34.871C75.8064 38.2156 73.0866 40.9355 69.7419 40.9355C66.3973 40.9355 63.6774 38.2156 63.6774 34.871ZM59.3426 54.5807C59.6078 54.5807 59.8622 54.4753 60.0497 54.2878L69.8722 44.4652C70.1891 44.1484 70.6273 43.9678 71.0745 43.9678C72.0117 43.9678 72.7742 44.7303 72.7742 45.6675C72.7742 46.1146 72.5936 46.5529 72.2767 46.8697L61.8264 57.32C61.6389 57.5076 61.3845 57.6129 61.1193 57.6129H45.4839C44.6473 57.6129 43.9677 56.9333 43.9677 56.0968C43.9677 55.2602 44.6473 54.5807 45.4839 54.5807H59.3426ZM27.2903 31.8387C27.2903 28.4941 30.0102 25.7742 33.3548 25.7742C36.6995 25.7742 39.4194 28.4941 39.4194 31.8387V34.871C39.4194 38.2156 36.6995 40.9355 33.3548 40.9355C30.0102 40.9355 27.2903 38.2156 27.2903 34.871V31.8387ZM33.3548 43.9678C33.949 43.9678 34.5284 43.9073 35.0896 43.7954C35.7342 43.6668 36.3871 44.1269 36.3871 44.7842C36.3871 44.9679 36.336 45.1485 36.2281 45.2973C35.7593 45.9438 34.7782 47 33.3548 47C31.9314 47 30.9504 45.9438 30.4816 45.2973C30.3737 45.1485 30.3226 44.9679 30.3226 44.7842C30.3226 44.1269 30.9755 43.6668 31.62 43.7954C32.1813 43.9073 32.7607 43.9678 33.3548 43.9678ZM19.7097 51.9474C19.7097 50.5993 20.6151 49.4015 21.9084 49.0314L27.5003 47.4341C27.895 47.3213 28.3139 47.4648 28.5888 47.7696C29.5482 48.8335 31.1231 50.0323 33.3548 50.0323C35.5865 50.0323 37.1615 48.8335 38.1209 47.7687C38.3957 47.4636 38.8149 47.3199 39.2098 47.4327L44.8013 49.0299C45.5822 49.2534 46.2042 49.783 46.5772 50.4632C46.8689 50.9951 46.394 51.5469 45.7874 51.5469H45.4839C42.9765 51.5469 40.9355 53.5879 40.9355 56.0953C40.9355 56.1387 40.9362 56.1818 40.9376 56.2248C40.9603 56.9162 40.4866 57.6114 39.7948 57.6114H20.7097C20.1574 57.6114 19.7097 57.1637 19.7097 56.6114V51.9474ZM13.6452 61.6452C13.6452 61.0929 14.0929 60.6452 14.6452 60.6452H59.6452C60.1974 60.6452 60.6452 61.0929 60.6452 61.6452V62.6774C60.6452 63.2297 60.1974 63.6774 59.6452 63.6774H14.6452C14.0929 63.6774 13.6452 63.2297 13.6452 62.6774V61.6452ZM16.6774 73.7742C16.6774 73.2219 17.1251 72.7742 17.6774 72.7742H20.2258C20.7781 72.7742 21.2258 72.3265 21.2258 71.7742V70.7419C21.2258 70.1897 20.7781 69.7419 20.2258 69.7419H17.6774C17.1251 69.7419 16.6774 69.2942 16.6774 68.7419V67.7097C16.6774 67.1574 17.1251 66.7097 17.6774 66.7097H55.0968C55.6491 66.7097 56.0968 67.1574 56.0968 67.7097V68.7419C56.0968 69.2942 55.6491 69.7419 55.0968 69.7419H25.2581C24.7058 69.7419 24.2581 70.1897 24.2581 70.7419V71.7742C24.2581 72.3265 24.7058 72.7742 25.2581 72.7742H55.0968C55.6491 72.7742 56.0968 73.2219 56.0968 73.7742V89.9678C56.0968 90.52 55.6491 90.9678 55.0968 90.9678H53.1036C52.7249 90.9678 52.3786 90.7537 52.2092 90.415L49.7297 85.456C49.5603 85.1172 49.2141 84.9032 48.8353 84.9032H23.9389C23.5601 84.9032 23.2138 85.1172 23.0445 85.456L20.565 90.415C20.3956 90.7537 20.0493 90.9678 19.6706 90.9678H17.6774C17.1251 90.9678 16.6774 90.52 16.6774 89.9678V73.7742ZM48.3714 89.5205C48.7039 90.1854 48.2204 90.9678 47.477 90.9678H25.2972C24.5538 90.9678 24.0703 90.1854 24.4028 89.5205L24.9189 88.4883C25.0883 88.1495 25.4345 87.9355 25.8133 87.9355H46.9609C47.3396 87.9355 47.6859 88.1495 47.8553 88.4883L48.3714 89.5205Z" fill="#58454B"/>
</g>
<defs>
<clipPath id="clip0">
<rect width="94" height="94" fill="white"/>
</clipPath>
</defs>
</svg>
