<svg width="8" height="8" viewBox="0 0 8 8" fill="none" xmlns="http://www.w3.org/2000/svg">
<path d="M7.55786 6.45159C8.1063 7.04044 7.68872 8 6.88403 8C6.622 8 6.37237 7.88836 6.19768 7.69306L4 5.23595L1.80289 7.69241C1.62784 7.88813 1.37769 8 1.11511 8C0.309533 8 -0.109253 7.04008 0.438699 6.44958L2.76389 3.94382L0.546699 1.54997C-0.000486255 0.959188 0.418514 0 1.22377 0C1.48778 0 1.73914 0.113068 1.91429 0.310607L4 2.66292L6.11526 0.305015C6.2894 0.1109 6.53787 0 6.79865 0C7.60221 0 8.01803 0.959297 7.46867 1.54573L5.22222 3.94382L7.55786 6.45159Z" fill="#EC6689"/>
</svg>
