<svg width="317" height="259" viewBox="0 0 317 259" fill="none" xmlns="http://www.w3.org/2000/svg">
<path d="M259.949 5.37769L312.676 8.42884e-05L316.024 32.8298L263.298 38.2074L259.949 5.37769Z" fill="#DAE4FF"/>
<path d="M288.037 19.6012L263.297 38.2075L316.024 32.8299L288.037 19.6012Z" fill="#AFC1F1"/>
<path d="M288.95 28.5548L312.675 0.00015541L259.949 5.37775L288.95 28.5548Z" fill="#C2D1F9"/>
<path fill-rule="evenodd" clip-rule="evenodd" d="M168.229 52.2373C187.177 40.8811 213.87 31.8656 248.411 26.6094L248.561 27.598C214.102 32.8417 187.545 41.8263 168.743 53.0951C149.939 64.3648 138.93 77.8937 135.472 92.221L134.5 91.9864C138.042 77.3137 149.283 63.5926 168.229 52.2373Z" fill="url(#paint0_linear)" fill-opacity="0.4"/>
<path fill-rule="evenodd" clip-rule="evenodd" d="M167.729 41.7373C186.677 30.3811 213.37 21.3656 247.911 16.1094L248.061 17.098C213.602 22.3417 187.045 31.3263 168.243 42.5951C149.439 53.8648 138.43 67.3937 134.972 81.721L134 81.4864C137.542 66.8137 148.783 53.0926 167.729 41.7373Z" fill="url(#paint1_linear)" fill-opacity="0.4"/>
<path fill-rule="evenodd" clip-rule="evenodd" d="M168.729 62.7373C187.677 51.3811 214.37 42.3656 248.911 37.1094L249.061 38.098C214.602 43.3417 188.045 52.3263 169.243 63.5951C150.439 74.8648 139.43 88.3937 135.972 102.721L135 102.486C138.542 87.8137 149.783 74.0926 168.729 62.7373Z" fill="url(#paint2_linear)" fill-opacity="0.4"/>
<path opacity="0.1" d="M128.893 122.911C114.774 122.408 101.327 117.842 88.4945 112.856C75.6623 107.87 62.9349 102.323 49.1537 99.6755C40.2899 97.9727 30.152 97.7323 23.0116 102.493C16.1374 107.083 13.9165 114.985 12.7232 122.325C11.8244 127.847 11.2964 133.657 13.7573 138.826C15.4676 142.415 18.5001 145.432 20.5988 148.87C27.9006 160.831 22.7389 175.581 14.8284 187.26C11.1197 192.74 6.81104 197.971 3.94659 203.799C1.08215 209.626 -0.242078 216.313 2.26458 222.262C4.74724 228.164 10.6659 232.588 17.0777 235.703C30.0996 242.029 45.4385 243.841 60.4064 244.866C93.5297 247.137 126.827 246.154 160.038 245.17C172.329 244.805 184.673 244.436 196.763 242.532C203.478 241.474 210.409 239.795 215.285 235.745C221.472 230.602 223.005 221.891 218.858 215.443C211.903 204.625 192.679 201.938 187.812 190.327C185.137 183.938 187.884 176.819 191.774 170.893C200.116 158.18 214.098 147.025 214.833 132.492C215.339 122.511 208.618 112.515 198.225 107.792C187.332 102.841 172.224 103.464 164.192 111.658C155.906 120.087 141.361 123.333 128.893 122.911Z" fill="#3166ED"/>
<path opacity="0.1" d="M171.656 259C186.975 259 199.394 257.788 199.394 256.293C199.394 254.798 186.975 253.587 171.656 253.587C156.337 253.587 143.918 254.798 143.918 256.293C143.918 257.788 156.337 259 171.656 259Z" fill="#3166ED"/>
<path d="M196.77 132.187H32.7943C31.572 132.187 30.5811 133.183 30.5811 134.411V225.822C30.5811 227.051 31.572 228.046 32.7943 228.046H196.77C197.993 228.046 198.984 227.051 198.984 225.822V134.411C198.984 133.183 197.993 132.187 196.77 132.187Z" fill="url(#paint3_linear)"/>
<path d="M196.521 133.535H33.0609C31.8386 133.535 30.8477 134.531 30.8477 135.759V225.504C30.8477 226.732 31.8386 227.728 33.0609 227.728H196.521C197.744 227.728 198.735 226.732 198.735 225.504V135.759C198.735 134.531 197.744 133.535 196.521 133.535Z" fill="white"/>
<path d="M196.521 133.535H33.0609C31.8386 133.535 30.8477 134.531 30.8477 135.759V225.504C30.8477 226.732 31.8386 227.728 33.0609 227.728H196.521C197.744 227.728 198.735 226.732 198.735 225.504V135.759C198.735 134.531 197.744 133.535 196.521 133.535Z" fill="white"/>
<path opacity="0.04" d="M196.521 133.535H33.0609C31.8386 133.535 30.8477 134.531 30.8477 135.759V225.504C30.8477 226.732 31.8386 227.728 33.0609 227.728H196.521C197.744 227.728 198.735 226.732 198.735 225.504V135.759C198.735 134.531 197.744 133.535 196.521 133.535Z" fill="white"/>
<path d="M197.882 132.454H31.7C31.474 132.454 31.2572 132.544 31.0973 132.705C30.9375 132.866 30.8477 133.083 30.8477 133.311V136.931H198.728V133.311C198.728 133.085 198.639 132.868 198.48 132.707C198.322 132.547 198.107 132.456 197.882 132.454Z" fill="#1B367C"/>
<path d="M34.2007 135.85C34.8368 135.85 35.3525 135.332 35.3525 134.692C35.3525 134.053 34.8368 133.535 34.2007 133.535C33.5645 133.535 33.0488 134.053 33.0488 134.692C33.0488 135.332 33.5645 135.85 34.2007 135.85Z" fill="white"/>
<path d="M37.3012 135.85C37.9374 135.85 38.4531 135.332 38.4531 134.692C38.4531 134.053 37.9374 133.535 37.3012 133.535C36.6651 133.535 36.1494 134.053 36.1494 134.692C36.1494 135.332 36.6651 135.85 37.3012 135.85Z" fill="white"/>
<path d="M40.4028 135.85C41.0389 135.85 41.5546 135.332 41.5546 134.692C41.5546 134.053 41.0389 133.535 40.4028 133.535C39.7667 133.535 39.251 134.053 39.251 134.692C39.251 135.332 39.7667 135.85 40.4028 135.85Z" fill="white"/>
<path opacity="0.2" d="M89.73 145.35H44.6758V149.192H89.73V145.35Z" fill="#3166ED"/>
<path opacity="0.1" d="M184.908 160.758H44.6758V219.87H184.908V160.758Z" fill="#5A5773"/>
<path opacity="0.1" d="M125.783 172.613H123.382V167.926C123.382 162.638 119.186 158.241 113.923 158.161C112.654 158.148 111.395 158.387 110.218 158.865C109.041 159.343 107.97 160.05 107.067 160.945C106.163 161.841 105.445 162.907 104.954 164.083C104.462 165.259 104.207 166.521 104.203 167.796V172.613H101.807C100.749 172.616 99.7342 173.041 98.9855 173.793C98.2368 174.545 97.8148 175.565 97.8115 176.629V195.899C97.8148 196.963 98.2368 197.983 98.9855 198.735C99.7342 199.487 100.749 199.911 101.807 199.915H125.783C126.842 199.911 127.856 199.487 128.605 198.735C129.353 197.982 129.775 196.963 129.777 195.899V176.629C129.775 175.565 129.353 174.545 128.605 173.793C127.856 173.041 126.842 172.617 125.783 172.613ZM115.195 185.14V192.042C115.198 192.408 115.062 192.76 114.815 193.029C114.568 193.297 114.229 193.462 113.866 193.488C113.677 193.497 113.488 193.467 113.31 193.401C113.133 193.334 112.97 193.232 112.833 193.1C112.696 192.969 112.587 192.811 112.512 192.636C112.438 192.46 112.399 192.272 112.399 192.081V185.137C111.751 184.819 111.229 184.29 110.918 183.636C110.608 182.982 110.527 182.241 110.689 181.535C110.851 180.829 111.247 180.199 111.811 179.747C112.376 179.296 113.076 179.051 113.797 179.051C114.518 179.051 115.218 179.296 115.783 179.747C116.347 180.199 116.743 180.829 116.905 181.535C117.067 182.241 116.987 182.982 116.676 183.636C116.366 184.29 115.844 184.819 115.195 185.137V185.14ZM120.589 172.613H107V167.796C107 165.986 107.715 164.25 108.989 162.97C110.263 161.69 111.99 160.971 113.792 160.971C115.593 160.971 117.321 161.69 118.595 162.97C119.868 164.25 120.584 165.986 120.584 167.796L120.589 172.613Z" fill="black"/>
<path d="M126.783 173.453H124.382V168.766C124.382 163.477 120.186 159.081 114.923 159.001C113.654 158.987 112.395 159.226 111.218 159.704C110.041 160.182 108.97 160.889 108.067 161.785C107.163 162.68 106.445 163.747 105.954 164.923C105.462 166.099 105.207 167.36 105.203 168.636V173.453H102.807C101.749 173.456 100.734 173.88 99.9855 174.632C99.2368 175.385 98.8148 176.404 98.8115 177.468V196.739C98.8148 197.803 99.2368 198.822 99.9855 199.574C100.734 200.327 101.749 200.751 102.807 200.754H126.783C127.842 200.751 128.856 200.327 129.605 199.574C130.353 198.822 130.775 197.802 130.777 196.739V177.468C130.775 176.404 130.353 175.385 129.605 174.632C128.856 173.88 127.842 173.456 126.783 173.453ZM116.195 185.98V192.882C116.198 193.247 116.062 193.6 115.815 193.868C115.568 194.137 115.229 194.301 114.866 194.328C114.677 194.336 114.488 194.307 114.31 194.24C114.133 194.173 113.97 194.071 113.833 193.94C113.696 193.808 113.587 193.65 113.512 193.475C113.438 193.3 113.399 193.111 113.399 192.921V185.976C112.751 185.658 112.229 185.129 111.918 184.475C111.608 183.821 111.527 183.08 111.689 182.374C111.851 181.668 112.247 181.038 112.811 180.587C113.376 180.136 114.076 179.89 114.797 179.89C115.518 179.89 116.218 180.136 116.783 180.587C117.347 181.038 117.743 181.668 117.905 182.374C118.067 183.08 117.987 183.821 117.676 184.475C117.366 185.129 116.844 185.658 116.195 185.976V185.98ZM121.589 173.453H108V168.636C108 166.826 108.715 165.09 109.989 163.81C111.263 162.53 112.99 161.81 114.792 161.81C116.593 161.81 118.321 162.53 119.595 163.81C120.868 165.09 121.584 166.826 121.584 168.636L121.589 173.453Z" fill="#EC6689"/>
<path opacity="0.1" d="M184.908 155.069H170.714V158.436H184.908V155.069Z" fill="#5A5773"/>
<path d="M189.738 257.109C189.645 256.637 189.485 256.181 189.263 255.754L187.137 252.563H187.149C187.149 252.563 186.814 250.96 187.149 250.173C187.484 249.386 185.955 247.451 185.955 247.451C185.955 247.451 185.769 246.964 186.254 246.366C186.74 245.768 185.955 244.016 185.955 244.016C185.955 244.016 185.583 240.356 185.546 239.797C185.508 239.238 185.209 236.14 185.209 236.14L184.5 229.571L183.238 212.161L183.215 211.835C183.371 211.759 183.455 211.71 183.455 211.71L183.203 202.084L183.421 201.886C185.324 200.156 189.713 196.149 189.669 196.062C189.625 195.975 189.138 189.372 189.081 187.719C189.032 186.545 188.776 185.389 188.326 184.304C188.216 184.085 187.899 182.641 187.768 182.03C187.732 181.863 187.709 181.758 187.709 181.758C187.709 181.758 186.423 179.293 186.534 178.173C186.646 177.053 186.869 176.214 184.126 175.823C184.126 175.823 181.823 175.477 180.451 174.535C179.64 173.971 178.753 173.525 177.818 173.21C177.818 173.21 177.049 171.786 176.513 172.268C176.287 171.76 176.117 171.228 176.008 170.682L175.992 170.582C177.008 169.87 177.739 168.819 178.055 167.615C178.073 167.548 178.087 167.478 178.103 167.411C178.156 167.429 178.212 167.439 178.268 167.441C178.734 167.441 179.021 166.919 179.457 166.754C179.634 166.684 179.852 166.673 179.988 166.533C180.033 166.479 180.067 166.416 180.087 166.348C180.107 166.28 180.113 166.209 180.105 166.139C180.11 166.091 180.11 166.042 180.105 165.993C180.106 165.976 180.106 165.959 180.105 165.942V165.959C179.987 165.311 179.487 164.736 179.542 164.077C179.595 163.458 180.137 162.913 180.093 162.309C180.092 162.261 180.088 162.214 180.081 162.167V162.188C180.015 161.952 179.893 161.736 179.726 161.558C179.535 161.296 179.285 161.085 178.996 160.941C178.75 160.833 178.464 160.808 178.234 160.678C177.557 160.308 177.559 159.342 177.157 158.684C176.984 158.408 176.74 158.187 176.45 158.042C176.16 157.898 175.836 157.837 175.514 157.866C175.011 157.916 174.555 158.185 174.057 158.272C173.377 158.393 172.684 158.171 172.039 157.916C171.394 157.661 170.74 157.382 170.047 157.382C169.354 157.382 168.605 157.738 168.396 158.395C168.284 158.751 168.339 159.134 168.254 159.496C168.102 160.133 167.545 160.589 166.969 160.906C166.615 161.103 166.193 161.33 166.083 161.704C166.083 161.693 166.083 161.684 166.083 161.675C166.075 161.705 166.069 161.735 166.065 161.766C166.062 161.806 166.062 161.845 166.065 161.885C166.065 162.142 166.2 162.386 166.291 162.63C166.459 163.094 166.455 163.603 166.28 164.065C166.149 164.403 165.925 164.7 165.798 165.037C165.738 165.194 165.698 165.358 165.681 165.525V165.496C165.677 165.572 165.677 165.648 165.681 165.724C165.679 165.984 165.74 166.241 165.858 166.472C165.939 166.632 166.052 166.773 166.188 166.889C166.325 167.004 166.483 167.091 166.654 167.144C167.008 167.225 167.23 166.876 167.604 166.965C167.671 166.982 167.736 167.002 167.8 167.028C167.813 167.108 167.825 167.188 167.839 167.266C168.065 168.465 168.701 169.546 169.636 170.324C169.636 170.367 169.65 170.409 169.656 170.454C169.769 171.164 169.818 171.883 169.803 172.601C169.803 172.601 169.245 171.78 168.479 173.365C168.479 173.365 166.482 174.523 165.793 174.654C165.103 174.786 162.656 175.643 162.656 175.643C162.287 175.911 161.843 176.055 161.387 176.054C160.624 176.054 159.989 177.733 160.081 178.647C160.173 179.56 160.026 180.233 159.316 180.271C158.605 180.308 158.993 181.756 158.999 181.781L158.933 182.092C158.795 182.73 158.494 184.097 158.387 184.311C157.937 185.396 157.68 186.552 157.631 187.726C157.576 189.379 157.099 195.957 157.044 196.069C157.007 196.142 160.014 198.904 162.128 200.834L162.435 201.112L161.462 210.243C161.49 210.595 161.594 210.936 161.767 211.244C161.939 211.551 162.176 211.817 162.461 212.024C162.461 212.131 162.461 212.239 162.451 212.352C162.408 213.42 162.323 214.713 162.153 215.051C161.855 215.649 161.93 218.858 161.93 218.858C161.93 218.858 161.63 225.39 161.258 226.1C160.886 226.811 160.81 228.301 160.921 228.593C161.033 228.885 160.547 236.729 160.547 236.729L160.175 240.239C160.175 240.239 160.287 243.597 159.95 243.672C159.613 243.747 159.427 246.062 159.427 246.062C159.427 246.062 158.235 247.703 158.756 248.3C159.277 248.896 158.68 249.16 158.625 249.308C158.57 249.456 157.487 250.02 158.27 252.107C158.277 252.128 158.286 252.148 158.295 252.168C157.561 253.192 155.237 256.495 155.378 256.997C155.483 257.316 155.705 257.584 155.998 257.745C156.546 258.074 157.485 258.227 158.979 257.745C161.46 256.942 161.283 256.363 161.283 256.363C161.295 256.092 161.411 255.837 161.605 255.649C161.8 255.462 162.059 255.357 162.328 255.355C163.354 255.28 164.12 254.329 164.12 254.329L163.999 253.879L163.834 253.256C163.854 253.078 163.98 252.766 164.543 252.593C165.403 252.331 165.178 250.69 165.178 250.69C165.178 250.69 165.103 248.973 165.475 248.749C165.848 248.524 165.7 245.688 165.7 245.688C165.7 245.688 166.112 243.635 166.707 242.253C167.302 240.871 168.015 232.662 168.015 232.662C168.015 232.662 168.499 228.631 168.947 227.473C169.395 226.316 169.806 223.069 169.806 223.069C169.806 223.069 172.569 217.694 172.604 216.499C172.604 216.499 172.959 215.379 173.313 216.611C173.668 217.843 174.663 220.792 174.663 220.792L175.633 224.412L176.79 229.824L177.538 234.379C177.538 234.379 177.424 236.095 177.715 236.693C178.006 237.292 178.424 238.67 178.2 238.932C177.977 239.194 178.647 240.426 178.835 240.686C179.023 240.946 178.835 246.471 178.835 246.471C178.835 246.471 179.693 251.174 180.924 251.991C181.01 252.048 181.101 252.096 181.197 252.134C181.179 252.643 181.162 253.325 181.185 253.681C181.182 253.761 181.195 253.84 181.224 253.914C181.335 254.064 182.604 255.072 182.866 255.072C183.129 255.072 184.059 255.725 184.098 256.042C184.137 256.359 186.825 257.702 187.206 257.741C187.587 257.78 189.433 258.113 189.687 257.592C189.75 257.439 189.767 257.271 189.738 257.109ZM183.134 189.849L183.325 190.015C183.325 190.015 183.522 191.555 183.662 192.016C183.802 192.477 183.634 193.375 183.634 193.375C183.646 193.71 183.713 194.04 183.83 194.354C183.997 194.691 183.494 195.423 183.494 195.423H183.045L182.905 189.657L183.134 189.849ZM169.803 172.633V172.6C169.799 172.61 169.797 172.623 169.797 172.633H169.803ZM162.918 194.83C162.849 194.68 162.839 194.511 162.89 194.354C162.93 194.27 162.961 194.181 162.984 194.091C163.039 193.857 163.073 193.618 163.087 193.378C163.087 193.375 163.087 193.372 163.087 193.369C163.071 193.284 162.927 192.458 163.06 192.02C163.193 191.582 163.395 190.018 163.395 190.018L163.523 189.91L163.819 189.651C163.819 189.651 163.819 189.555 163.84 189.397C163.902 190.75 163.951 192.246 163.872 192.321C163.723 192.468 163.181 193.923 163.312 193.98C163.354 194 163.296 194.582 163.197 195.366C163.085 195.197 162.992 195.018 162.918 194.83Z" fill="url(#paint4_linear)"/>
<path d="M177.201 174.056V176.271L172.679 178.556C172.679 178.556 168.188 175.826 169.296 174.74C170.005 174.052 169.868 172.165 169.677 170.867C169.565 170.112 169.436 169.558 169.436 169.558C169.436 169.558 177.502 167.243 176.283 169.001C175.875 169.588 175.844 170.349 175.98 171.102C176.256 172.596 177.201 174.056 177.201 174.056Z" fill="#FABDBD"/>
<path d="M164.813 195.718L164.23 202.933C164.23 202.933 163.356 202.137 162.226 201.101C160.129 199.18 157.152 196.432 157.188 196.359C157.243 196.247 157.719 189.701 157.771 188.056C157.819 186.888 158.072 185.738 158.519 184.658C158.625 184.445 158.924 183.084 159.05 182.448C159.093 182.251 159.119 182.123 159.119 182.123L160.098 181.727C160.098 181.727 164.173 186.297 164.173 186.38C164.173 186.464 163.895 189.974 163.895 189.974L163.606 190.226L163.48 190.335C163.48 190.335 163.285 191.868 163.147 192.328C163.009 192.787 163.158 193.585 163.174 193.67C163.161 193.91 163.127 194.149 163.073 194.383C163.05 194.473 163.018 194.56 162.979 194.644C162.929 194.8 162.939 194.969 163.007 195.118C163.086 195.324 163.188 195.521 163.312 195.704L164.813 195.718Z" fill="#1B367C"/>
<path d="M189.513 196.359C189.556 196.446 185.209 200.433 183.325 202.155L182.471 202.933L181.894 195.718H183.391C183.391 195.718 183.891 194.993 183.724 194.659C183.608 194.347 183.543 194.018 183.531 193.685C183.531 193.685 183.696 192.794 183.558 192.333C183.419 191.872 183.224 190.34 183.224 190.34L183.035 190.177L182.81 189.979C182.81 189.979 182.531 186.469 182.531 186.386C182.531 186.302 186.607 181.733 186.607 181.733L187.578 182.123C187.578 182.123 187.6 182.228 187.635 182.395C187.766 183.002 188.08 184.439 188.188 184.658C188.634 185.738 188.887 186.888 188.936 188.056C188.982 189.701 189.457 196.247 189.513 196.359Z" fill="#1B367C"/>
<path d="M189.532 257.604C189.271 258.124 187.442 257.782 187.065 257.753C186.687 257.725 184.022 256.377 183.985 256.062C183.948 255.747 183.025 255.097 182.766 255.097C182.507 255.097 181.251 254.092 181.139 253.945C181.111 253.871 181.098 253.792 181.102 253.713C181.063 253.102 181.139 251.53 181.139 251.53L186.5 251.827L189.104 255.764C189.324 256.189 189.483 256.643 189.576 257.112C189.607 257.277 189.592 257.448 189.532 257.604Z" fill="#112861"/>
<path opacity="0.1" d="M189.476 257.239C189.216 257.759 187.387 257.417 187.009 257.389C186.632 257.36 183.967 256.012 183.93 255.697C183.892 255.382 182.969 254.732 182.71 254.732C182.452 254.732 181.195 253.728 181.084 253.58C181.055 253.506 181.043 253.427 181.047 253.348L182.783 254.452C182.783 254.452 183.892 255.165 184.188 255.587C184.484 256.009 186.816 256.887 187.009 256.904C187.153 256.919 188.684 256.623 189.52 256.748C189.552 256.912 189.537 257.083 189.476 257.239Z" fill="black"/>
<path d="M164.191 254.354C164.191 254.354 163.432 255.301 162.419 255.375C162.151 255.377 161.895 255.482 161.702 255.668C161.51 255.855 161.396 256.108 161.384 256.377C161.384 256.377 161.561 256.954 159.11 257.753C157.631 258.232 156.7 258.081 156.158 257.753C155.867 257.592 155.648 257.326 155.543 257.009C155.377 256.416 158.648 251.902 158.648 251.902L161.625 251.724L163.751 252.689L164.077 253.913L164.191 254.354Z" fill="#112861"/>
<path opacity="0.1" d="M164.191 254.354C164.191 254.354 163.432 255.302 162.419 255.375C162.151 255.377 161.895 255.482 161.702 255.668C161.51 255.855 161.396 256.109 161.384 256.377C161.384 256.377 161.561 256.954 159.11 257.754C157.631 258.233 156.7 258.081 156.158 257.754C157.553 257.608 160.634 256.723 160.943 256.416C161.313 256.044 161.776 255.022 162.089 255.004C162.307 254.99 163.415 254.32 164.079 253.906L164.191 254.354Z" fill="black"/>
<path d="M187.017 250.212C186.684 250.992 187.017 252.59 187.017 252.59C187.017 252.59 182.055 252.85 180.843 252.032C179.631 251.215 178.773 246.534 178.773 246.534C178.773 246.534 178.951 241.037 178.773 240.777C178.596 240.517 177.923 239.291 178.144 239.031C178.366 238.772 177.967 237.397 177.664 236.802C177.361 236.207 177.487 234.5 177.487 234.5L176.746 229.966L175.601 224.581L174.629 220.977C174.629 220.977 173.631 218.043 173.292 216.817C172.954 215.592 172.596 216.705 172.596 216.705C172.561 217.895 169.825 223.244 169.825 223.244C169.825 223.244 169.417 226.476 168.974 227.626C168.531 228.777 168.049 232.79 168.049 232.79C168.049 232.79 167.34 240.962 166.755 242.336C166.171 243.711 165.768 245.754 165.768 245.754C165.768 245.754 165.917 248.578 165.547 248.8C165.176 249.023 165.237 250.732 165.237 250.732C165.237 250.732 165.458 252.365 164.608 252.627C163.757 252.889 163.899 253.444 163.899 253.444C163.899 253.444 159.167 254.224 158.391 252.143C157.615 250.061 158.687 249.507 158.746 249.358C158.804 249.208 159.394 248.95 158.877 248.353C158.359 247.757 159.541 246.126 159.541 246.126C159.541 246.126 159.727 243.823 160.059 243.749C160.39 243.674 160.282 240.331 160.282 240.331L160.651 236.839C160.651 236.839 161.133 229.038 161.021 228.741C160.909 228.444 160.984 226.96 161.354 226.248C161.725 225.536 162.019 219.04 162.019 219.04C162.019 219.04 161.944 215.847 162.24 215.252C162.417 214.916 162.492 213.621 162.534 212.565C162.566 211.759 162.573 211.091 162.573 211.091L166.713 209.531L172.029 207.823L176.502 209.978L183.046 211.24L183.127 212.375L184.377 229.702L185.085 236.239C185.085 236.239 185.381 239.322 185.419 239.879C185.456 240.436 185.824 244.078 185.824 244.078C185.824 244.078 186.6 245.823 186.12 246.418C185.64 247.013 185.824 247.486 185.824 247.486C185.824 247.486 187.35 249.432 187.017 250.212Z" fill="#1B367C"/>
<path opacity="0.1" d="M176.287 169.001C175.879 169.588 175.847 170.349 175.984 171.102C175.052 171.762 173.931 172.096 172.792 172.054C171.653 172.011 170.56 171.593 169.68 170.865C169.569 170.11 169.439 169.556 169.439 169.556C169.439 169.556 177.506 167.245 176.287 169.001Z" fill="black"/>
<path d="M178.172 166.728C178.172 167.76 177.868 168.769 177.297 169.627C176.727 170.485 175.916 171.154 174.967 171.549C174.018 171.944 172.974 172.047 171.967 171.846C170.96 171.644 170.035 171.147 169.309 170.418C168.583 169.688 168.088 168.758 167.888 167.746C167.688 166.734 167.79 165.685 168.183 164.732C168.576 163.778 169.242 162.964 170.096 162.39C170.949 161.817 171.953 161.511 172.98 161.511C173.663 161.508 174.34 161.64 174.971 161.901C175.602 162.163 176.176 162.547 176.659 163.032C177.142 163.517 177.524 164.093 177.784 164.728C178.044 165.362 178.176 166.042 178.172 166.728Z" fill="#FABDBD"/>
<path opacity="0.1" d="M179.253 175.399L177.552 205.839L168.311 203.89L166.48 191.686L168.293 175.304L169.658 175.48L172.064 175.789L174.448 175.936L177.031 175.648L179.253 175.399Z" fill="black"/>
<path d="M179.253 175.621L177.552 206.062L168.311 204.112L166.48 191.909L168.293 175.529L169.658 175.703L172.064 176.011L174.448 176.159L177.031 175.871L179.253 175.621Z" fill="#3166ED"/>
<path d="M171.656 176.438L174.984 176.551L174.049 177.867C174.049 177.867 174.114 180.525 174.559 181.287C175.004 182.049 174.873 193.823 174.873 193.823L173.987 195.513L172.471 193.618L172.491 178.073L171.656 176.438Z" fill="#3F3D56"/>
<path opacity="0.1" d="M171.656 176.438L174.984 176.551L174.049 177.867C174.049 177.867 174.114 180.525 174.559 181.287C175.004 182.049 174.873 193.823 174.873 193.823L173.987 195.513L172.471 193.618L172.491 178.073L171.656 176.438Z" fill="black"/>
<path opacity="0.1" d="M176.868 172.984L173.764 176.439L175.537 178.296L178.477 175.417L176.868 172.984Z" fill="black"/>
<path d="M176.868 172.761L173.764 176.216L175.537 178.073L178.477 175.194L176.868 172.761Z" fill="#3166ED"/>
<path opacity="0.1" d="M172.452 176.271L169.309 173.114L169.013 174.766L170.455 178.388L172.452 176.271Z" fill="black"/>
<path d="M172.562 176.049L169.42 172.891L169.124 174.544L170.566 178.166L172.562 176.049Z" fill="#3166ED"/>
<path opacity="0.1" d="M183.143 212.38C181.634 213.102 180.018 213.572 178.359 213.771C175.309 214.161 173.314 210.261 173.314 210.261L172.149 211.784C171.779 213.4 166.142 213.808 163.851 213.196C163.376 213.078 162.928 212.865 162.536 212.571C162.568 211.764 162.575 211.096 162.575 211.096L166.715 209.536L172.031 207.829L176.503 209.983L183.048 211.246L183.143 212.38Z" fill="black"/>
<path opacity="0.1" d="M179.253 175.623L177.554 206.062L168.311 204.112L166.477 191.911L168.288 175.529L169.652 175.707C169.617 176.304 169.55 176.898 169.452 177.488C169.23 178.529 170.598 185.921 170.598 185.921C170.598 185.921 173.198 194.21 174.367 193.015C175.537 191.82 177.203 185.511 177.203 185.511C178.332 183.172 177.222 176.608 177.139 176.476C177.081 176.282 177.045 176.082 177.033 175.88L179.253 175.623Z" fill="black"/>
<path opacity="0.1" d="M183.246 199.178L183.324 202.161L182.469 202.939L181.894 195.718H183.169L183.246 199.178Z" fill="black"/>
<path opacity="0.1" d="M163.175 193.676C163.162 193.915 163.129 194.154 163.074 194.388C163.074 194.322 163.074 194.284 163.06 194.279C163.007 194.265 163.071 193.992 163.175 193.676Z" fill="black"/>
<path opacity="0.1" d="M164.813 195.718L164.23 202.933C164.23 202.933 163.356 202.138 162.226 201.101L162.36 199.823C162.36 199.823 162.837 196.682 163.011 195.132C163.089 195.339 163.192 195.535 163.315 195.718H164.813Z" fill="black"/>
<path d="M169.826 173.002C169.826 173.002 169.273 172.184 168.514 173.762C168.514 173.762 166.537 174.914 165.856 175.044C165.176 175.174 162.755 176.029 162.755 176.029C162.39 176.294 161.95 176.437 161.499 176.437C160.74 176.437 160.111 178.109 160.204 179.019C160.296 179.929 160.149 180.598 159.447 180.636C158.745 180.673 159.131 182.138 159.131 182.138L163.808 187.525C163.808 187.525 164.104 192.484 163.957 192.634C163.81 192.783 163.273 194.236 163.402 194.286C163.531 194.336 162.693 199.821 162.693 199.821L161.566 210.464C161.566 210.464 161.566 212.244 163.859 212.859C166.152 213.473 171.793 213.067 172.156 211.45L173.32 209.926C173.32 209.926 175.316 213.828 178.365 213.438C181.415 213.048 183.357 211.933 183.357 211.933L183.024 199.178L182.802 189.984L187.564 182.122C187.564 182.122 186.288 179.67 186.4 178.561C186.511 177.452 186.731 176.611 184.015 176.221C184.015 176.221 181.723 175.878 180.373 174.939C179.571 174.379 178.694 173.936 177.768 173.621C177.768 173.621 177.006 172.197 176.476 172.685C176.476 172.685 177.008 174.699 176.964 175C176.919 175.301 177.047 176.661 177.13 176.802C177.213 176.942 178.323 183.497 177.194 185.837C177.194 185.837 175.537 192.146 174.359 193.341C173.18 194.536 170.59 186.246 170.59 186.246C170.59 186.246 169.221 178.853 169.443 177.813C169.665 176.773 169.826 173.002 169.826 173.002Z" fill="#1B367C"/>
<path d="M173.781 197.353C174.23 197.353 174.595 196.987 174.595 196.535C174.595 196.084 174.23 195.718 173.781 195.718C173.332 195.718 172.968 196.084 172.968 196.535C172.968 196.987 173.332 197.353 173.781 197.353Z" fill="#3F3D56"/>
<path d="M173.781 201.206C174.23 201.206 174.595 200.84 174.595 200.389C174.595 199.937 174.23 199.572 173.781 199.572C173.332 199.572 172.968 199.937 172.968 200.389C172.968 200.84 173.332 201.206 173.781 201.206Z" fill="#3F3D56"/>
<path opacity="0.1" d="M173.781 197.353C174.23 197.353 174.595 196.987 174.595 196.535C174.595 196.084 174.23 195.718 173.781 195.718C173.332 195.718 172.968 196.084 172.968 196.535C172.968 196.987 173.332 197.353 173.781 197.353Z" fill="black"/>
<path opacity="0.1" d="M173.781 201.206C174.23 201.206 174.595 200.84 174.595 200.389C174.595 199.937 174.23 199.572 173.781 199.572C173.332 199.572 172.968 199.937 172.968 200.389C172.968 200.84 173.332 201.206 173.781 201.206Z" fill="black"/>
<path opacity="0.1" d="M181.091 249.098C181.091 249.098 184.429 249.358 184.761 249.618C185.092 249.878 181.091 249.098 181.091 249.098Z" fill="black" stroke="#3166ED" stroke-miterlimit="10"/>
<path opacity="0.1" d="M161.214 246.46C161.214 246.46 161.923 247.351 161.621 247.76C161.32 248.17 161.214 246.46 161.214 246.46Z" fill="black" stroke="#3166ED" stroke-miterlimit="10"/>
<path opacity="0.1" d="M162.064 249.671C162.064 249.671 163.358 248.816 163.876 249.384C164.393 249.952 162.064 249.671 162.064 249.671Z" fill="black" stroke="#3166ED" stroke-miterlimit="10"/>
<path opacity="0.1" d="M178.173 166.729C178.174 167.174 178.118 167.617 178.006 168.048C177.897 167.998 177.805 167.915 177.744 167.812C177.682 167.708 177.654 167.588 177.662 167.468C177.685 167.256 177.825 167.062 177.795 166.851C177.751 166.527 177.361 166.396 177.155 166.139C176.902 165.829 176.957 165.379 176.978 164.978C177 164.577 176.899 164.088 176.525 163.951C176.413 163.91 176.291 163.906 176.183 163.86C175.888 163.735 175.798 163.368 175.601 163.116C175.208 162.606 174.427 162.617 173.829 162.859C173.569 162.984 173.303 163.096 173.032 163.194C172.896 163.242 172.752 163.261 172.608 163.251C172.464 163.24 172.325 163.199 172.197 163.132C172.08 163.057 171.986 162.953 171.866 162.879C171.465 162.637 170.941 162.879 170.594 163.19C170.246 163.502 169.968 163.92 169.53 164.111C169.334 164.2 169.091 164.253 168.999 164.446C168.953 164.55 168.934 164.665 168.942 164.779C168.942 165.471 169.024 166.175 168.88 166.853C168.788 167.289 168.483 167.784 168.042 167.731C167.987 167.723 167.933 167.709 167.881 167.69C167.748 166.977 167.764 166.244 167.93 165.537C168.095 164.831 168.405 164.167 168.839 163.588C169.274 163.009 169.825 162.527 170.455 162.174C171.086 161.82 171.783 161.603 172.502 161.535C173.221 161.468 173.946 161.552 174.631 161.782C175.315 162.012 175.945 162.383 176.479 162.872C177.013 163.36 177.44 163.955 177.732 164.618C178.024 165.282 178.175 165.999 178.176 166.725L178.173 166.729Z" fill="black"/>
<path d="M167.649 167.395C167.781 167.425 167.907 167.494 168.044 167.512C168.485 167.565 168.79 167.07 168.882 166.634C169.025 165.956 168.951 165.252 168.946 164.56C168.936 164.446 168.955 164.331 169.001 164.227C169.102 164.034 169.344 163.981 169.532 163.892C169.961 163.7 170.241 163.29 170.595 162.971C170.95 162.653 171.466 162.417 171.866 162.66C171.985 162.731 172.08 162.838 172.197 162.913C172.325 162.979 172.465 163.019 172.609 163.03C172.753 163.041 172.897 163.022 173.034 162.975C173.308 162.893 173.565 162.749 173.829 162.64C174.421 162.398 175.205 162.389 175.601 162.895C175.798 163.149 175.889 163.514 176.183 163.639C176.291 163.685 176.413 163.691 176.525 163.732C176.899 163.872 176.994 164.358 176.978 164.759C176.962 165.16 176.909 165.61 177.156 165.92C177.361 166.173 177.751 166.305 177.795 166.632C177.824 166.842 177.685 167.038 177.662 167.248C177.657 167.327 177.667 167.405 177.692 167.479C177.717 167.553 177.757 167.622 177.809 167.68C177.86 167.739 177.923 167.787 177.993 167.821C178.063 167.855 178.139 167.875 178.217 167.879C178.678 167.879 178.963 167.361 179.394 167.195C179.571 167.126 179.785 167.115 179.925 166.974C179.977 166.907 180.014 166.828 180.033 166.745C180.052 166.662 180.053 166.575 180.035 166.492C179.948 165.81 179.404 165.217 179.463 164.533C179.518 163.878 180.122 163.306 179.994 162.661C179.929 162.424 179.808 162.206 179.64 162.026C179.45 161.767 179.202 161.557 178.917 161.411C178.671 161.305 178.385 161.28 178.16 161.15C177.49 160.781 177.492 159.819 177.097 159.164C176.927 158.893 176.687 158.675 176.402 158.532C176.117 158.389 175.798 158.328 175.481 158.356C174.983 158.406 174.531 158.671 174.039 158.76C173.363 158.881 172.679 158.658 172.04 158.404C171.4 158.149 170.753 157.87 170.067 157.87C169.382 157.87 168.639 158.226 168.43 158.877C168.32 159.234 168.375 159.615 168.29 159.973C168.141 160.608 167.581 161.061 167.018 161.376C166.63 161.593 166.164 161.842 166.118 162.286C166.087 162.567 166.242 162.82 166.339 163.092C166.505 163.553 166.501 164.059 166.328 164.517C166.199 164.853 165.983 165.149 165.852 165.484C165.759 165.711 165.715 165.956 165.723 166.201C165.731 166.447 165.79 166.688 165.898 166.908C165.98 167.069 166.095 167.211 166.234 167.326C166.373 167.441 166.534 167.526 166.708 167.576C167.057 167.66 167.276 167.313 167.649 167.395Z" fill="#3F3D56"/>
<g opacity="0.1">
<path opacity="0.1" d="M168.882 166.246C168.789 166.682 168.483 167.177 168.042 167.124C167.905 167.106 167.781 167.037 167.646 167.006C167.276 166.924 167.056 167.273 166.707 167.184C166.534 167.134 166.372 167.049 166.233 166.935C166.093 166.82 165.979 166.678 165.896 166.517C165.803 166.335 165.747 166.138 165.731 165.934C165.696 166.25 165.753 166.568 165.896 166.851C165.979 167.012 166.093 167.155 166.233 167.269C166.372 167.384 166.534 167.469 166.707 167.519C167.062 167.601 167.276 167.252 167.646 167.341C167.776 167.386 167.908 167.425 168.042 167.457C168.483 167.512 168.789 167.017 168.882 166.581C168.954 166.195 168.983 165.803 168.967 165.411C168.965 165.691 168.936 165.971 168.882 166.246Z" fill="black"/>
<path opacity="0.1" d="M166.454 163.564C166.476 163.273 166.436 162.979 166.337 162.704C166.256 162.521 166.188 162.333 166.133 162.142C166.125 162.172 166.119 162.202 166.115 162.232C166.085 162.512 166.241 162.767 166.337 163.039C166.399 163.208 166.438 163.385 166.454 163.564Z" fill="black"/>
<path opacity="0.1" d="M179.992 162.626C179.909 163.132 179.501 163.607 179.46 164.14C179.451 164.231 179.451 164.323 179.46 164.414C179.549 163.792 180.097 163.242 179.992 162.626Z" fill="black"/>
<path opacity="0.1" d="M180.022 166.383C180.007 166.458 179.972 166.526 179.921 166.582C179.79 166.723 179.567 166.734 179.39 166.803C178.959 166.969 178.681 167.492 178.213 167.487C178.093 167.48 177.978 167.437 177.883 167.363C177.788 167.29 177.718 167.189 177.681 167.074C177.671 167.113 177.662 167.152 177.657 167.191C177.651 167.269 177.662 167.348 177.687 167.422C177.712 167.495 177.752 167.564 177.803 167.622C177.855 167.68 177.918 167.728 177.988 167.762C178.058 167.796 178.134 167.816 178.211 167.82C178.674 167.82 178.957 167.302 179.388 167.138C179.565 167.069 179.781 167.058 179.919 166.917C179.971 166.85 180.008 166.771 180.027 166.688C180.046 166.605 180.047 166.518 180.029 166.435C180.027 166.413 180.024 166.399 180.022 166.383Z" fill="black"/>
<path opacity="0.1" d="M177.8 166.236C177.756 165.911 177.366 165.78 177.161 165.523C177.035 165.355 176.966 165.15 176.966 164.939C176.952 165.27 176.957 165.609 177.161 165.858C177.364 166.107 177.675 166.214 177.774 166.471C177.799 166.395 177.808 166.315 177.8 166.236Z" fill="black"/>
<path opacity="0.1" d="M176.976 164.371C176.99 163.97 176.895 163.481 176.521 163.344C176.411 163.303 176.289 163.297 176.181 163.253C175.886 163.128 175.794 162.761 175.599 162.508C175.204 162.001 174.423 162.01 173.827 162.252C173.561 162.361 173.308 162.505 173.032 162.587C172.896 162.635 172.751 162.654 172.608 162.644C172.464 162.633 172.324 162.592 172.197 162.524C172.08 162.45 171.984 162.346 171.866 162.272C171.463 162.029 170.939 162.272 170.593 162.583C170.248 162.895 169.968 163.312 169.53 163.504C169.332 163.593 169.091 163.646 168.988 163.839C168.943 163.943 168.924 164.058 168.933 164.172C168.933 164.241 168.933 164.311 168.933 164.38C168.935 164.308 168.953 164.238 168.984 164.173C169.087 163.981 169.328 163.928 169.526 163.839C169.955 163.646 170.235 163.237 170.59 162.918C170.944 162.599 171.46 162.364 171.862 162.606C171.981 162.678 172.076 162.784 172.193 162.857C172.321 162.926 172.46 162.966 172.604 162.977C172.748 162.988 172.892 162.968 173.028 162.92C173.299 162.823 173.564 162.712 173.824 162.587C174.417 162.345 175.199 162.334 175.596 162.841C175.791 163.094 175.883 163.461 176.177 163.586C176.285 163.632 176.407 163.637 176.517 163.678C176.82 163.792 176.941 164.134 176.967 164.473L176.976 164.371Z" fill="black"/>
</g>
<g opacity="0.1">
<path opacity="0.1" d="M168.249 166.235C168.259 165.94 168.364 165.656 168.549 165.425C168.733 165.195 168.988 165.031 169.273 164.959C170.063 164.765 170.892 164.802 171.662 165.067C173.343 165.626 171.449 167.639 171.449 167.639C171.449 167.639 170.189 168.885 169.014 168.014C168.667 167.751 168.424 167.372 168.328 166.946C168.271 166.714 168.244 166.475 168.249 166.235Z" fill="black"/>
<path opacity="0.1" d="M177.494 166.235C177.483 165.94 177.378 165.655 177.193 165.425C177.008 165.195 176.753 165.031 176.468 164.959C175.678 164.765 174.85 164.803 174.081 165.067C172.399 165.626 174.293 167.639 174.293 167.639C174.293 167.639 175.552 168.885 176.728 168.014C177.075 167.751 177.318 167.372 177.414 166.946C177.472 166.714 177.498 166.475 177.494 166.235Z" fill="black"/>
<path opacity="0.1" d="M171.345 164.903V164.987H174.416V164.887L171.345 164.903Z" fill="black"/>
<path opacity="0.1" d="M172.324 165.796H172.422V165.512C172.422 165.512 172.734 165.268 173.251 165.512V165.765H173.428V165.6H173.341C173.341 165.6 173.377 165.256 172.799 165.311C172.799 165.311 172.335 165.267 172.346 165.562H172.239L172.324 165.796Z" fill="black"/>
</g>
<path d="M168.249 166.119C168.259 165.824 168.364 165.54 168.549 165.309C168.733 165.079 168.988 164.915 169.273 164.843C170.063 164.65 170.892 164.688 171.662 164.951C173.343 165.512 171.449 167.523 171.449 167.523C171.449 167.523 170.189 168.769 169.014 167.898C168.666 167.635 168.423 167.257 168.328 166.83C168.271 166.598 168.244 166.359 168.249 166.119Z" fill="#12265A"/>
<path d="M177.494 166.12C177.483 165.824 177.378 165.539 177.193 165.309C177.008 165.079 176.753 164.915 176.468 164.843C175.678 164.65 174.85 164.688 174.081 164.951C172.399 165.512 174.293 167.523 174.293 167.523C174.293 167.523 175.552 168.769 176.728 167.898C177.076 167.636 177.319 167.257 177.414 166.83C177.472 166.598 177.498 166.359 177.494 166.12Z" fill="#12265A"/>
<path d="M171.345 164.791V164.877H174.416V164.775L171.345 164.791Z" fill="#3166ED"/>
<path d="M172.324 165.683H172.422V165.4C172.422 165.4 172.734 165.158 173.251 165.4V165.655H173.428V165.487H173.341C173.341 165.487 173.377 165.146 172.799 165.199C172.799 165.199 172.335 165.156 172.346 165.45H172.239L172.324 165.683Z" fill="#12265A"/>
<defs>
<linearGradient id="paint0_linear" x1="250.986" y1="24.1038" x2="128.486" y2="98.1038" gradientUnits="userSpaceOnUse">
<stop stop-color="#3166ED"/>
<stop offset="1" stop-color="#3166ED" stop-opacity="0"/>
</linearGradient>
<linearGradient id="paint1_linear" x1="250.486" y1="13.6038" x2="127.986" y2="87.6038" gradientUnits="userSpaceOnUse">
<stop stop-color="#3166ED"/>
<stop offset="1" stop-color="#3166ED" stop-opacity="0"/>
</linearGradient>
<linearGradient id="paint2_linear" x1="251.486" y1="34.6038" x2="128.986" y2="108.604" gradientUnits="userSpaceOnUse">
<stop stop-color="#3166ED"/>
<stop offset="1" stop-color="#3166ED" stop-opacity="0"/>
</linearGradient>
<linearGradient id="paint3_linear" x1="114.781" y1="228.046" x2="114.781" y2="132.187" gradientUnits="userSpaceOnUse">
<stop stop-color="#808080" stop-opacity="0.25"/>
<stop offset="0.54" stop-color="#808080" stop-opacity="0.12"/>
<stop offset="1" stop-color="#808080" stop-opacity="0.1"/>
</linearGradient>
<linearGradient id="paint4_linear" x1="32621.6" y1="86197" x2="32621.6" y2="29280.2" gradientUnits="userSpaceOnUse">
<stop stop-color="#808080" stop-opacity="0.25"/>
<stop offset="0.54" stop-color="#808080" stop-opacity="0.12"/>
<stop offset="1" stop-color="#808080" stop-opacity="0.1"/>
</linearGradient>
</defs>
</svg>
