<svg width="88" height="88" viewBox="0 0 88 88" fill="none" xmlns="http://www.w3.org/2000/svg">
<g clip-path="url(#clip0)">
<path d="M60.1335 0H27.8668C25.4369 0 23.4668 1.97012 23.4668 4.4V57.2C23.4668 59.6299 25.4369 61.6 27.8668 61.6H36.6668V58.6667H27.8668C27.0568 58.6667 26.4001 58.01 26.4001 57.2V4.4C26.4001 3.59004 27.0568 2.93333 27.8668 2.93333H60.1335C60.9434 2.93333 61.6001 3.59004 61.6001 4.4V57.2C61.6001 58.01 60.9434 58.6667 60.1335 58.6667H51.3335V61.6H60.1335C62.5634 61.6 64.5335 59.6299 64.5335 57.2V4.4C64.5335 1.97012 62.5634 0 60.1335 0Z" fill="#58454B"/>
<path d="M4.4 55.7333H20.5333V52.8H4.4C3.59004 52.8 2.93333 52.1433 2.93333 51.3333V10.2667C2.93333 9.4567 3.59004 8.8 4.4 8.8H20.5333V5.86666H4.4C1.97012 5.86666 0 7.83678 0 10.2667V51.3333C0 53.7632 1.97012 55.7333 4.4 55.7333Z" fill="#58454B"/>
<path d="M35.2002 8.8C35.2002 7.98998 35.8568 7.33334 36.6669 7.33334C37.4769 7.33334 38.1335 7.98998 38.1335 8.8C38.1335 9.61002 37.4769 10.2667 36.6669 10.2667C35.8568 10.2667 35.2002 9.61002 35.2002 8.8Z" fill="#58454B"/>
<path d="M41.0669 8.8C41.0669 7.98998 41.7235 7.33334 42.5336 7.33334H51.3336C52.1436 7.33334 52.8002 7.98998 52.8002 8.8C52.8002 9.61002 52.1436 10.2667 51.3336 10.2667H42.5336C41.7235 10.2667 41.0669 9.61002 41.0669 8.8Z" fill="#58454B"/>
<path d="M30.7998 16.1333C30.7998 15.3233 31.4565 14.6667 32.2665 14.6667C33.0765 14.6667 33.7331 15.3233 33.7331 16.1333V19.0667C33.7331 19.8767 33.0765 20.5333 32.2665 20.5333C31.4565 20.5333 30.7998 19.8767 30.7998 19.0667V16.1333Z" fill="#58454B"/>
<path d="M36.6665 16.1333C36.6665 15.3233 37.3232 14.6667 38.1332 14.6667C38.9432 14.6667 39.5998 15.3233 39.5998 16.1333V19.0667C39.5998 19.8767 38.9432 20.5333 38.1332 20.5333C37.3232 20.5333 36.6665 19.8767 36.6665 19.0667V16.1333Z" fill="#58454B"/>
<path d="M42.5332 16.1333C42.5332 15.3233 43.1899 14.6667 43.9999 14.6667C44.8099 14.6667 45.4665 15.3233 45.4665 16.1333V19.0667C45.4665 19.8767 44.8099 20.5333 43.9999 20.5333C43.1899 20.5333 42.5332 19.8767 42.5332 19.0667V16.1333Z" fill="#58454B"/>
<path d="M48.3999 16.1333C48.3999 15.3233 49.0566 14.6667 49.8666 14.6667C50.6766 14.6667 51.3332 15.3233 51.3332 16.1333V19.0667C51.3332 19.8767 50.6766 20.5333 49.8666 20.5333C49.0566 20.5333 48.3999 19.8767 48.3999 19.0667V16.1333Z" fill="#58454B"/>
<path d="M54.2666 16.1333C54.2666 15.3233 54.9232 14.6667 55.7333 14.6667C56.5433 14.6667 57.1999 15.3233 57.1999 16.1333V19.0667C57.1999 19.8767 56.5433 20.5333 55.7333 20.5333C54.9232 20.5333 54.2666 19.8767 54.2666 19.0667V16.1333Z" fill="#58454B"/>
<path d="M42.5332 26.4C42.5332 25.59 43.1899 24.9333 43.9999 24.9333H51.3332C52.1432 24.9333 52.7999 25.59 52.7999 26.4C52.7999 27.21 52.1432 27.8667 51.3332 27.8667H43.9999C43.1899 27.8667 42.5332 27.21 42.5332 26.4Z" fill="#58454B"/>
<path d="M39.6002 51.3333H48.4002C50.8301 51.3333 52.8002 49.3632 52.8002 46.9333C52.8002 44.5034 50.8301 42.5333 48.4002 42.5333H39.6002C37.1703 42.5333 35.2002 44.5034 35.2002 46.9333C35.2002 49.3632 37.1703 51.3333 39.6002 51.3333ZM39.6002 45.4667H48.4002C49.2102 45.4667 49.8669 46.1234 49.8669 46.9333C49.8669 47.7433 49.2102 48.4 48.4002 48.4H39.6002C38.7902 48.4 38.1335 47.7433 38.1335 46.9333C38.1335 46.1234 38.7902 45.4667 39.6002 45.4667Z" fill="#58454B"/>
<path d="M16.1333 13.2C16.1333 12.39 16.7899 11.7333 17.6 11.7333H19.0666C19.8767 11.7333 20.5333 12.39 20.5333 13.2C20.5333 14.01 19.8767 14.6667 19.0666 14.6667H17.6C16.7899 14.6667 16.1333 14.01 16.1333 13.2Z" fill="#58454B"/>
<path d="M5.8667 20.5333C5.8667 19.7233 6.52335 19.0667 7.33337 19.0667C8.14338 19.0667 8.80003 19.7233 8.80003 20.5333V22C8.80003 22.81 8.14338 23.4667 7.33337 23.4667C6.52335 23.4667 5.8667 22.81 5.8667 22V20.5333Z" fill="#58454B"/>
<path d="M11.7334 20.5333C11.7334 19.7233 12.39 19.0667 13.2001 19.0667C14.0101 19.0667 14.6667 19.7233 14.6667 20.5333V22C14.6667 22.81 14.0101 23.4667 13.2001 23.4667C12.39 23.4667 11.7334 22.81 11.7334 22V20.5333Z" fill="#58454B"/>
<path d="M17.6001 20.5333C17.6001 19.7233 18.2567 19.0667 19.0668 19.0667C19.8768 19.0667 20.5334 19.7233 20.5334 20.5333V22C20.5334 22.81 19.8768 23.4667 19.0668 23.4667C18.2567 23.4667 17.6001 22.81 17.6001 22V20.5333Z" fill="#58454B"/>
<path d="M10.2666 13.2C10.2666 12.39 10.9233 11.7333 11.7333 11.7333C12.5433 11.7333 13.1999 12.39 13.1999 13.2C13.1999 14.01 12.5433 14.6667 11.7333 14.6667C10.9233 14.6667 10.2666 14.01 10.2666 13.2Z" fill="#58454B"/>
<path d="M11.7335 48.4H20.5335V45.4667H11.7335C10.9235 45.4667 10.2668 44.81 10.2668 44C10.2668 43.19 10.9235 42.5333 11.7335 42.5333H20.5335V39.6H11.7335C9.30361 39.6 7.3335 41.5701 7.3335 44C7.3335 46.4299 9.30361 48.4 11.7335 48.4Z" fill="#58454B"/>
<path d="M83.6001 5.86666H67.4668V8.8H83.6001C84.4101 8.8 85.0668 9.4567 85.0668 10.2667V51.3333C85.0668 52.1433 84.4101 52.8 83.6001 52.8H67.4668V55.7333H83.6001C86.03 55.7333 88.0001 53.7632 88.0001 51.3333V10.2667C88.0001 7.83678 86.03 5.86666 83.6001 5.86666Z" fill="#58454B"/>
<path d="M67.4668 13.2C67.4668 12.39 68.1234 11.7333 68.9335 11.7333H76.2668C77.0768 11.7333 77.7335 12.39 77.7335 13.2C77.7335 14.01 77.0768 14.6667 76.2668 14.6667H68.9335C68.1234 14.6667 67.4668 14.01 67.4668 13.2Z" fill="#58454B"/>
<path d="M79.2002 20.5333C79.2002 19.7233 79.8568 19.0667 80.6669 19.0667C81.4769 19.0667 82.1335 19.7233 82.1335 20.5333V22C82.1335 22.81 81.4769 23.4667 80.6669 23.4667C79.8568 23.4667 79.2002 22.81 79.2002 22V20.5333Z" fill="#58454B"/>
<path d="M73.3335 20.5333C73.3335 19.7233 73.9901 19.0667 74.8002 19.0667C75.6102 19.0667 76.2668 19.7233 76.2668 20.5333V22C76.2668 22.81 75.6102 23.4667 74.8002 23.4667C73.9901 23.4667 73.3335 22.81 73.3335 22V20.5333Z" fill="#58454B"/>
<path d="M67.4668 20.5333C67.4668 19.7233 68.1234 19.0667 68.9335 19.0667C69.7435 19.0667 70.4001 19.7233 70.4001 20.5333V22C70.4001 22.81 69.7435 23.4667 68.9335 23.4667C68.1234 23.4667 67.4668 22.81 67.4668 22V20.5333Z" fill="#58454B"/>
<path d="M67.4668 39.6V42.5333H76.2668C77.0768 42.5333 77.7335 43.19 77.7335 44C77.7335 44.81 77.0768 45.4667 76.2668 45.4667H67.4668V48.4H76.2668C78.6967 48.4 80.6668 46.4299 80.6668 44C80.6668 41.5701 78.6967 39.6 76.2668 39.6H67.4668Z" fill="#58454B"/>
<path d="M65.9999 86.5333V70.5568C66.0271 68.3676 64.4831 66.4734 62.3332 66.0587C61.0535 65.8475 59.7458 66.2091 58.7561 67.047C58.7267 67.0706 58.6974 67.0957 58.6694 67.1222C57.0008 65.624 54.4714 65.624 52.8028 67.1222C51.5896 66.0816 49.921 65.7508 48.4028 66.2492V58.8235C48.4307 56.6342 46.886 54.74 44.7361 54.3254C43.4585 54.1084 42.1494 54.4658 41.1597 55.3029C40.1692 56.1394 39.5992 57.3704 39.5999 58.6667V76.6097L35.7076 74.275C34.5196 73.5575 33.0457 73.5016 31.8075 74.1282L31.5741 74.2443C30.3022 74.8809 29.4564 76.137 29.3454 77.555C29.2344 78.973 29.8746 80.3458 31.0319 81.173L40.2144 87.73C40.4636 87.9069 40.7615 88.0014 41.0666 88H64.5332C65.3432 88 65.9999 87.3433 65.9999 86.5333ZM63.0666 85.0666H41.5356L32.7356 78.7817C32.4155 78.5533 32.2379 78.173 32.268 77.7806C32.2981 77.3881 32.5308 77.0394 32.8824 76.8618L33.1159 76.7479C33.4582 76.5753 33.8657 76.5903 34.1937 76.7887L40.3082 80.4554C40.7615 80.7289 41.3265 80.7375 41.787 80.4776C42.2482 80.2176 42.5332 79.7292 42.5332 79.2V58.6667C42.5332 58.2327 42.7252 57.8209 43.0574 57.5423C43.3905 57.263 43.8295 57.1463 44.2563 57.2222C44.9889 57.4012 45.4945 58.0701 45.4666 58.8235V70.4C45.4666 71.2099 46.1233 71.8667 46.9332 71.8667C47.7432 71.8667 48.3999 71.2099 48.3999 70.4C48.3999 69.59 49.0566 68.9333 49.8666 68.9333C50.6765 68.9333 51.3332 69.59 51.3332 70.4C51.3332 71.2099 51.9899 71.8667 52.7999 71.8667C53.6099 71.8667 54.2666 71.2099 54.2666 70.4C54.2666 69.59 54.9233 68.9333 55.7332 68.9333C56.5432 68.9333 57.1999 69.59 57.1999 70.4C57.1999 71.2099 57.8566 71.8667 58.6666 71.8667C59.4765 71.8667 60.1332 71.2099 60.1332 70.4C60.1332 69.966 60.3252 69.5542 60.6575 69.2756C60.9905 68.9963 61.4295 68.8796 61.8563 68.9555C62.5889 69.1346 63.0945 69.8034 63.0666 70.5568V85.0666Z" fill="#58454B"/>
<path d="M35.2002 26.4C35.2002 25.59 35.8568 24.9333 36.6669 24.9333H38.1335C38.9435 24.9333 39.6002 25.59 39.6002 26.4C39.6002 27.21 38.9435 27.8667 38.1335 27.8667H36.6669C35.8568 27.8667 35.2002 27.21 35.2002 26.4Z" fill="#58454B"/>
<path d="M35.2002 32.2667C35.2002 31.4566 35.8568 30.8 36.6669 30.8H51.3335C52.1435 30.8 52.8002 31.4566 52.8002 32.2667C52.8002 33.0767 52.1435 33.7333 51.3335 33.7333H36.6669C35.8568 33.7333 35.2002 33.0767 35.2002 32.2667Z" fill="#58454B"/>
<path d="M38.1333 38.1333C38.1333 37.3233 38.79 36.6667 39.6 36.6667H48.4C49.21 36.6667 49.8666 37.3233 49.8666 38.1333C49.8666 38.9433 49.21 39.6 48.4 39.6H39.6C38.7899 39.6 38.1333 38.9433 38.1333 38.1333Z" fill="#58454B"/>
<path d="M11.7334 29.3333C11.7334 28.5233 12.39 27.8667 13.2001 27.8667H19.0667C19.8767 27.8667 20.5334 28.5233 20.5334 29.3333C20.5334 30.1434 19.8767 30.8 19.0667 30.8H13.2001C12.39 30.8 11.7334 30.1434 11.7334 29.3333Z" fill="#58454B"/>
<path d="M14.6665 35.2C14.6665 34.39 15.3232 33.7333 16.1332 33.7333H19.0665C19.8765 33.7333 20.5332 34.39 20.5332 35.2C20.5332 36.01 19.8765 36.6667 19.0665 36.6667H16.1332C15.3232 36.6667 14.6665 36.01 14.6665 35.2Z" fill="#58454B"/>
<path d="M67.4668 29.3333C67.4668 28.5233 68.1234 27.8667 68.9335 27.8667H73.3335C74.1435 27.8667 74.8001 28.5233 74.8001 29.3333C74.8001 30.1434 74.1435 30.8 73.3335 30.8H68.9335C68.1234 30.8 67.4668 30.1434 67.4668 29.3333Z" fill="#58454B"/>
<path d="M67.4668 35.2C67.4668 34.39 68.1234 33.7333 68.9335 33.7333H70.4001C71.2102 33.7333 71.8668 34.39 71.8668 35.2C71.8668 36.01 71.2102 36.6667 70.4001 36.6667H68.9335C68.1234 36.6667 67.4668 36.01 67.4668 35.2Z" fill="#58454B"/>
</g>
<defs>
<clipPath id="clip0">
<rect width="88" height="88" fill="white"/>
</clipPath>
</defs>
</svg>
