<svg width="17" height="17" viewBox="0 0 17 17" fill="none" xmlns="http://www.w3.org/2000/svg">
<path d="M9.46111 12.5596C9.75401 12.2667 9.75401 11.7918 9.46111 11.4989C9.16822 11.206 8.69334 11.206 8.40045 11.4989L9.46111 12.5596ZM4.1611 11.3365L7.01884 8.47874L5.95818 7.41808L3.10044 10.2758L4.1611 11.3365ZM8.40045 11.4989L6.36199 13.5374L7.42265 14.598L9.46111 12.5596L8.40045 11.4989ZM3.10044 14.598C4.29399 15.7916 6.2291 15.7916 7.42265 14.598L6.36199 13.5374C5.75423 14.1451 4.76886 14.1451 4.1611 13.5374L3.10044 14.598ZM7.01884 8.47874C7.66948 7.8281 8.72439 7.8281 9.37503 8.47874L10.4357 7.41808C9.19926 6.18165 7.19461 6.18165 5.95818 7.41808L7.01884 8.47874ZM3.10044 10.2758C1.9069 11.4694 1.9069 13.4045 3.10044 14.598L4.1611 13.5374C3.55334 12.9296 3.55334 11.9442 4.1611 11.3365L3.10044 10.2758Z" fill="#A88D95"/>
<path d="M8.23738 5.13891C7.94448 5.43181 7.94448 5.90668 8.23738 6.19957C8.53027 6.49247 9.00514 6.49247 9.29804 6.19957L8.23738 5.13891ZM13.5374 6.36199L10.6796 9.21973L11.7403 10.2804L14.598 7.42265L13.5374 6.36199ZM9.29804 6.19957L11.3365 4.16111L10.2758 3.10045L8.23738 5.13891L9.29804 6.19957ZM14.598 3.10045C13.4045 1.90691 11.4694 1.9069 10.2758 3.10045L11.3365 4.16111C11.9443 3.55335 12.9296 3.55335 13.5374 4.16111L14.598 3.10045ZM10.6796 9.21973C10.029 9.87037 8.9741 9.87037 8.32345 9.21973L7.26279 10.2804C8.49922 11.5168 10.5039 11.5168 11.7403 10.2804L10.6796 9.21973ZM14.598 7.42265C15.7916 6.22911 15.7916 4.29399 14.598 3.10045L13.5374 4.16111C14.1451 4.76887 14.1451 5.75424 13.5374 6.36199L14.598 7.42265Z" fill="#465347" fill-opacity="0.5"/>
<path d="M8.23738 5.13891C7.94448 5.43181 7.94448 5.90668 8.23738 6.19957C8.53027 6.49247 9.00514 6.49247 9.29804 6.19957L8.23738 5.13891ZM13.5374 6.36199L10.6796 9.21973L11.7403 10.2804L14.598 7.42265L13.5374 6.36199ZM9.29804 6.19957L11.3365 4.16111L10.2758 3.10045L8.23738 5.13891L9.29804 6.19957ZM14.598 3.10045C13.4045 1.90691 11.4694 1.9069 10.2758 3.10045L11.3365 4.16111C11.9443 3.55335 12.9296 3.55335 13.5374 4.16111L14.598 3.10045ZM10.6796 9.21973C10.029 9.87037 8.9741 9.87037 8.32345 9.21973L7.26279 10.2804C8.49922 11.5168 10.5039 11.5168 11.7403 10.2804L10.6796 9.21973ZM14.598 7.42265C15.7916 6.22911 15.7916 4.29399 14.598 3.10045L13.5374 4.16111C14.1451 4.76887 14.1451 5.75424 13.5374 6.36199L14.598 7.42265Z" fill="#A88D95"/>
</svg>
