<svg width="14" height="12" viewBox="0 0 14 12" fill="none" xmlns="http://www.w3.org/2000/svg">
<path d="M13.2821 1.32215C12.9852 1.4538 12.677 1.55765 12.3608 1.63284C12.7092 1.30173 12.9712 0.88757 13.119 0.425298C13.1612 0.293327 13.0178 0.179209 12.8987 0.249869C12.4588 0.510813 11.9849 0.70657 11.4902 0.831765C11.4615 0.83903 11.4319 0.842711 11.4022 0.842711C11.3121 0.842711 11.2245 0.809254 11.1556 0.74853C10.6292 0.284661 9.95232 0.0291901 9.24953 0.0291901C8.94542 0.0291901 8.63838 0.0765901 8.33691 0.170087C7.40285 0.459797 6.68215 1.23028 6.45603 2.18089C6.37119 2.53745 6.34823 2.89433 6.38771 3.24161C6.39224 3.28152 6.37338 3.30937 6.36175 3.32243C6.34132 3.34533 6.31236 3.35846 6.28229 3.35846L6.27206 3.35797C4.22744 3.16802 2.3837 2.18298 1.08044 0.58434C1.01399 0.502799 0.886542 0.5128 0.833572 0.603659C0.578361 1.0415 0.443491 1.54228 0.443491 2.05185C0.443491 2.83279 0.757243 3.56875 1.30223 4.10527C1.07305 4.05093 0.851229 3.96535 0.645177 3.8509C0.545491 3.79552 0.422837 3.8667 0.421436 3.98072C0.407167 5.14087 1.0864 6.17318 2.10392 6.63802C2.08343 6.63851 2.06294 6.63874 2.04242 6.63874C1.88113 6.63874 1.71782 6.62317 1.55708 6.59245C1.44482 6.57101 1.35051 6.67751 1.38537 6.78635C1.71564 7.81745 2.60343 8.57748 3.66584 8.75004C2.78411 9.34194 1.7573 9.65416 0.688603 9.65416L0.355435 9.65397C0.252783 9.65397 0.165965 9.72088 0.139805 9.82031C0.114037 9.91823 0.161502 10.0215 0.249037 10.0725C1.45329 10.7733 2.82691 11.1437 4.222 11.1437C5.44316 11.1437 6.58546 10.9014 7.61718 10.4234C8.563 9.98531 9.3988 9.35901 10.1014 8.56194C10.7558 7.81944 11.2676 6.9623 11.6225 6.01436C11.9607 5.11076 12.1395 4.14661 12.1395 3.2261V3.18225C12.1395 3.03445 12.2063 2.89538 12.3229 2.80071C12.7655 2.44138 13.1509 2.01839 13.4684 1.54351C13.5522 1.41812 13.42 1.26097 13.2821 1.32215Z" fill="white"/>
</svg>
