<svg width="71" height="44" viewBox="0 0 71 44" fill="none" xmlns="http://www.w3.org/2000/svg">
<path d="M13.7753 -0.000244141H31.332C33.7828 -0.000244141 35.3071 1.99734 34.7354 4.45624L26.5614 39.5501C25.9846 42.0005 23.5308 43.9998 21.0783 43.9998H3.52328C1.07593 43.9998 -0.451787 42.0005 0.119931 39.5501L8.29729 4.45624C8.86901 1.99734 11.3215 -0.000244141 13.7753 -0.000244141Z" fill="#E21836"/>
<path d="M29.8711 0H50.0609C52.5113 0 51.4063 1.99759 50.8299 4.45649L42.6573 39.5504C42.0838 42.0007 42.2627 44 39.8072 44H19.6174C17.1619 44 15.6423 42.0007 16.2192 39.5504L24.3914 4.45649C24.9717 1.99759 27.419 0 29.8711 0Z" fill="#00447C"/>
<path d="M49.2601 -0.000244141H66.8169C69.2711 -0.000244141 70.7954 1.99734 70.219 4.45624L62.0463 39.5501C61.4695 42.0005 59.014 43.9998 56.5602 43.9998H39.0116C36.5561 43.9998 35.0331 42.0005 35.6082 39.5501L43.7822 4.45624C44.3539 1.99734 46.8047 -0.000244141 49.2601 -0.000244141Z" fill="#007B84"/>
<path d="M18.3605 11.2465C16.555 11.2649 16.0218 11.2465 15.8515 11.2063C15.786 11.5174 14.5677 17.1375 14.5643 17.1422C14.3019 18.2792 14.1111 19.0897 13.4628 19.613C13.0948 19.9173 12.6651 20.0641 12.167 20.0641C11.3663 20.0641 10.8999 19.6665 10.8216 18.9125L10.8066 18.6536C10.8066 18.6536 11.0505 17.1306 11.0505 17.122C11.0505 17.122 12.3292 12.0006 12.5581 11.3236C12.5701 11.285 12.5735 11.2649 12.5765 11.2465C10.0877 11.2684 9.64647 11.2465 9.61609 11.2063C9.5994 11.2615 9.53778 11.579 9.53778 11.579L8.23216 17.3514L8.12004 17.841L7.90308 19.4423C7.90308 19.9173 7.99637 20.305 8.18209 20.6328C8.77691 21.6722 10.4737 21.828 11.4335 21.828C12.6702 21.828 13.8304 21.5653 14.6143 21.0856C15.9752 20.2815 16.3312 19.0246 16.6487 17.9077L16.7959 17.3347C16.7959 17.3347 18.1131 12.0155 18.3369 11.3236C18.3455 11.285 18.3489 11.2649 18.3605 11.2465ZM22.8421 15.5376C22.5245 15.5376 21.9443 15.6146 21.423 15.8701C21.2339 15.9672 21.055 16.0793 20.8663 16.191L21.0366 15.5761L20.9433 15.4725C19.838 15.6963 19.5906 15.7263 18.5696 15.8701L18.484 15.927C18.3655 16.91 18.2602 17.649 17.8207 19.5811C17.6534 20.2932 17.4796 21.0121 17.3055 21.7225L17.3525 21.8128C18.3988 21.7576 18.7164 21.7576 19.6257 21.7726L19.6993 21.6925C19.8149 21.1007 19.8298 20.9621 20.0858 19.7634C20.206 19.1951 20.4568 17.9464 20.5804 17.5018C20.8077 17.3965 21.0319 17.293 21.2459 17.293C21.7555 17.293 21.6935 17.7376 21.6738 17.9147C21.652 18.2122 21.4663 19.1836 21.2758 20.0176L21.1487 20.5559C21.0602 20.9535 20.963 21.3399 20.8744 21.734L20.9129 21.8128C21.9443 21.7576 22.2588 21.7576 23.1395 21.7726L23.243 21.6925C23.4022 20.7682 23.4489 20.5209 23.7313 19.175L23.8734 18.5566C24.1494 17.3465 24.288 16.7328 24.0792 16.233C23.8584 15.6728 23.3286 15.5376 22.8421 15.5376ZM27.8485 16.8046C27.3004 16.9099 26.9507 16.9801 26.6032 17.0255C26.2588 17.0807 25.9228 17.1307 25.3931 17.2043L25.3511 17.2424L25.3126 17.2728C25.2574 17.6674 25.2189 18.0084 25.1457 18.4094C25.0837 18.8241 24.9882 19.2952 24.8329 19.9722C24.7126 20.4904 24.6506 20.671 24.5821 20.8533C24.5154 21.0356 24.4418 21.2128 24.3065 21.7224L24.3382 21.7695L24.3647 21.8127C24.8599 21.7892 25.1838 21.7725 25.5167 21.7695C25.8492 21.7575 26.1937 21.7695 26.7269 21.7725L26.7736 21.7344L26.8236 21.6925C26.9007 21.2329 26.9122 21.1092 26.9593 20.885C27.0059 20.6445 27.0864 20.3116 27.2837 19.4223C27.3769 19.0046 27.4809 18.5883 27.5776 18.162C27.6782 17.7375 27.7835 17.3194 27.8836 16.9018L27.8686 16.8513L27.8485 16.8046ZM27.8602 15.0963C27.3621 14.8023 26.4878 14.8956 25.8994 15.3017C25.3127 15.6996 25.246 16.2645 25.7424 16.5624C26.2319 16.8482 27.1096 16.7631 27.6929 16.3535C28.2783 15.947 28.3515 15.3872 27.8602 15.0963ZM30.8726 21.9049C31.8804 21.9049 32.9135 21.6271 33.691 20.8029C34.2893 20.1345 34.5636 19.14 34.6586 18.7305C34.968 17.3731 34.727 16.7393 34.4245 16.3533C33.9649 15.7649 33.1527 15.5762 32.3101 15.5762C31.8034 15.5762 30.5966 15.6263 29.6539 16.4954C28.9769 17.1223 28.6641 17.973 28.4754 18.7887C28.2849 19.6197 28.0658 21.1158 29.4416 21.6725C29.8661 21.8548 30.4781 21.9049 30.8726 21.9049ZM30.7939 18.8507C31.0263 17.8228 31.3006 16.9601 32.0007 16.9601C32.5493 16.9601 32.5891 17.602 32.3452 18.6333C32.3015 18.8623 32.1012 19.7134 31.8304 20.0759C31.6412 20.3433 31.4174 20.5055 31.1701 20.5055C31.0965 20.5055 30.6587 20.5055 30.6518 19.8555C30.6484 19.5346 30.7139 19.2068 30.7939 18.8507ZM37.1778 21.7727L37.2565 21.6927C37.3682 21.1008 37.3866 20.9618 37.634 19.7635C37.7576 19.1952 38.0135 17.9465 38.1338 17.5019C38.3615 17.3962 38.5818 17.2927 38.8027 17.2927C39.3089 17.2927 39.2473 17.7373 39.2272 17.9144C39.2088 18.2123 39.023 19.1833 38.8292 20.0173L38.7089 20.5556C38.6169 20.9536 38.5168 21.3396 38.4282 21.7342L38.4667 21.8129C39.5015 21.7577 39.804 21.7577 40.6898 21.7727L40.7968 21.6927C40.9522 20.7679 40.9941 20.5206 41.2851 19.1751L41.4237 18.5563C41.701 17.3462 41.8414 16.7329 41.636 16.2331C41.4088 15.6729 40.8756 15.5377 40.3958 15.5377C40.0779 15.5377 39.4946 15.6143 38.9764 15.8702C38.7911 15.9674 38.6054 16.079 38.4231 16.1912L38.5818 15.5762L38.4967 15.4722C37.3918 15.6965 37.1393 15.7264 36.1195 15.8702L36.0412 15.9271C35.9175 16.9101 35.817 17.6487 35.3775 19.5812C35.2102 20.2933 35.0364 21.0122 34.8627 21.7226L34.9093 21.8129C35.9573 21.7577 36.2702 21.7577 37.1778 21.7727ZM44.7802 21.8127C44.8453 21.4952 45.2317 19.6131 45.2351 19.6131C45.2351 19.6131 45.5642 18.2322 45.5843 18.1821C45.5843 18.1821 45.6879 18.0383 45.7914 17.9814H45.9438C47.3812 17.9814 49.0043 17.9814 50.2766 17.0455C51.1423 16.4036 51.7341 15.4558 51.9982 14.3038C52.0666 14.0213 52.1171 13.6854 52.1171 13.3495C52.1171 12.9083 52.0285 12.4718 51.7726 12.1307C51.1239 11.2231 49.832 11.2064 48.3406 11.1995C48.3359 11.1995 47.6054 11.2064 47.6054 11.2064C45.6964 11.2299 44.9309 11.2231 44.6163 11.1846C44.5898 11.3236 44.5397 11.571 44.5397 11.571C44.5397 11.571 43.8559 14.7403 43.8559 14.7454C43.8559 14.7454 42.2195 21.4836 42.1425 21.8011C43.8093 21.781 44.4927 21.781 44.7802 21.8127ZM46.0473 16.1828C46.0473 16.1828 46.7744 13.02 46.771 13.032L46.7945 12.8698L46.8048 12.7461L47.0953 12.7761C47.0953 12.7761 48.5948 12.9049 48.6299 12.9083C49.2217 13.1372 49.4657 13.7273 49.2953 14.4976C49.14 15.2016 48.6834 15.7934 48.0967 16.0793C47.6136 16.3215 47.0217 16.3416 46.4119 16.3416H46.0174L46.0473 16.1828ZM50.5742 18.9093C50.382 19.7284 50.1612 21.2244 51.5302 21.7576C51.9667 21.9433 52.3578 21.9985 52.7553 21.9784C53.1752 21.9558 53.5641 21.7452 53.9245 21.4422C53.8919 21.5668 53.8594 21.6913 53.8269 21.8162L53.8889 21.8963C54.8736 21.8548 55.1792 21.8548 56.246 21.8629L56.3427 21.7893C56.4985 20.8735 56.6453 19.9843 57.0501 18.2323C57.2474 17.3931 57.4442 16.5621 57.6466 15.7263L57.6149 15.6343C56.5134 15.8385 56.219 15.8821 55.1595 16.0323L55.079 16.0978C55.0683 16.1829 55.0572 16.2647 55.0469 16.3464C54.8822 16.0802 54.6434 15.853 54.2749 15.7114C53.8038 15.5261 52.6972 15.7649 51.7459 16.631C51.0774 17.2494 50.7565 18.0967 50.5742 18.9093ZM52.8876 18.9594C53.1234 17.9499 53.3943 17.0957 54.0961 17.0957C54.5398 17.0957 54.7735 17.5053 54.726 18.2036C54.6883 18.3778 54.6477 18.5614 54.5993 18.7689C54.5291 19.0689 54.453 19.3663 54.3789 19.6642C54.3036 19.8679 54.2159 20.06 54.1196 20.188C53.939 20.4439 53.5094 20.6026 53.262 20.6026C53.1918 20.6026 52.7588 20.6026 52.7438 19.9642C52.7404 19.6462 52.8058 19.3188 52.8876 18.9594ZM64.9683 15.6262L64.8832 15.529C63.7932 15.7498 63.5959 15.7849 62.5946 15.9202L62.521 15.9938C62.5176 16.0057 62.5146 16.0241 62.5094 16.0408L62.506 16.0241C61.7605 17.744 61.7824 17.373 61.1756 18.727C61.1721 18.6653 61.1721 18.6268 61.1687 18.5614L61.0168 15.6262L60.9214 15.529C59.7796 15.7498 59.7527 15.7849 58.6983 15.9202L58.6161 15.9938C58.6045 16.0288 58.6045 16.0674 58.5977 16.1093L58.6045 16.1243C58.7363 16.7978 58.7047 16.6476 58.8369 17.7106C58.8985 18.2323 58.9807 18.7569 59.0423 19.2721C59.1463 20.1344 59.2045 20.5589 59.3316 21.8748C58.6195 23.0499 58.4509 23.4946 57.7654 24.5259L57.7701 24.5361L57.2874 25.2996C57.2322 25.38 57.1821 25.4352 57.1119 25.4588C57.0349 25.4969 56.9347 25.5037 56.7957 25.5037H56.5282L56.1307 26.826L57.4945 26.8495C58.2951 26.8461 58.7984 26.4717 59.0693 25.9684L59.9268 24.4989H59.9132L60.0034 24.3954C60.5803 23.1535 64.9683 15.6262 64.9683 15.6262ZM50.5741 32.9927H49.9956L52.1369 25.91H52.8473L53.0728 25.1804L53.0947 25.9918C53.0681 26.4933 53.4627 26.9379 54.4991 26.8643H55.6978L56.1103 25.5005H55.6593C55.3999 25.5005 55.2797 25.435 55.2947 25.2947L55.2728 24.4692H53.0531V24.4735C52.3355 24.4884 50.1924 24.5423 49.7585 24.6579C49.2334 24.7931 48.6801 25.1911 48.6801 25.1911L48.8975 24.4606H46.8212L46.3885 25.91L44.2185 33.101H43.7974L43.3844 34.455H47.52L47.3813 34.9064H49.4191L49.5544 34.455H50.1261L50.5741 32.9927ZM48.8774 27.3492C48.5449 27.4412 47.9261 27.7202 47.9261 27.7202L48.4764 25.91H50.1261L49.7281 27.2289C49.7281 27.2289 49.2184 27.2589 48.8774 27.3492ZM48.909 29.9352C48.909 29.9352 48.3908 30.0002 48.0498 30.0772C47.7138 30.1791 47.0839 30.5 47.0839 30.5L47.6522 28.6163H49.3105L48.909 29.9352ZM47.9847 33.0094H46.3299L46.8096 31.4196H48.4593L47.9847 33.0094ZM51.9699 28.6163H54.3552L54.0124 29.7263H51.5954L51.2326 30.9399H53.3474L51.7461 33.1947C51.634 33.3603 51.5334 33.4189 51.4217 33.4656C51.3096 33.5225 51.1624 33.5893 50.9921 33.5893H50.4054L50.0022 34.9184H51.5368C52.3345 34.9184 52.8056 34.5555 53.1535 34.0792L54.2516 32.5764L54.4874 34.1024C54.5375 34.3882 54.7429 34.5555 54.882 34.6206C55.0356 34.6976 55.1943 34.8298 55.4186 34.8495C55.6591 34.8598 55.8328 34.8679 55.9484 34.8679H56.7024L57.1551 33.3804H56.8577C56.687 33.3804 56.393 33.3518 56.3429 33.2983C56.2929 33.2332 56.2929 33.1331 56.2659 32.9807L56.0267 31.4513H55.0471L55.4768 30.9399H57.889L58.2601 29.7263H56.0267L56.3746 28.6163H58.6011L59.0141 27.2473H52.376L51.9699 28.6163ZM31.8236 33.3185L32.3803 31.4664H34.6685L35.0866 30.0889H32.7963L33.1459 28.9489H35.384L35.7987 27.615H30.1987L29.7926 28.9489H31.0649L30.7255 30.0889H29.4499L29.0271 31.49H30.2989L29.5568 33.9403C29.4567 34.2647 29.6039 34.3883 29.6972 34.539C29.7926 34.6858 29.8893 34.7829 30.1067 34.8381C30.331 34.8882 30.4846 34.9181 30.6934 34.9181H33.273L33.7326 33.3921L32.5892 33.5492C32.3684 33.5492 31.7568 33.5226 31.8236 33.3185ZM32.086 24.4523L31.5062 25.5003C31.3821 25.7292 31.2704 25.8713 31.1698 25.9368C31.0813 25.992 30.9058 26.0151 30.6516 26.0151H30.3491L29.9447 27.3558H30.9495C31.4326 27.3558 31.8036 27.1786 31.9808 27.09C32.1712 26.9882 32.2213 27.0464 32.3685 26.9043L32.7078 26.6103H35.8454L36.2618 25.2144H33.9651L34.3661 24.4523H32.086ZM36.7182 33.3454C36.6647 33.2684 36.7032 33.1327 36.7849 32.8503L37.6425 30.0118H40.6932C41.1378 30.0054 41.4588 30.0003 41.6676 29.9853C41.8919 29.9618 42.1358 29.8817 42.4015 29.738C42.6758 29.5873 42.8162 29.4286 42.9347 29.2463C43.067 29.0644 43.2792 28.6664 43.4615 28.0528L44.5395 24.4607L41.3736 24.4791C41.3736 24.4791 40.3988 24.6229 39.9696 24.7816C39.5365 24.9588 38.9177 25.4535 38.9177 25.4535L39.2036 24.4688H37.2479L34.51 33.5491C34.4129 33.9017 34.3478 34.1576 34.3329 34.3113C34.3277 34.4769 34.5417 34.6408 34.6803 34.7645C34.8442 34.8881 35.0865 34.868 35.3188 34.8881C35.5632 34.9065 35.9106 34.9181 36.3904 34.9181H37.8933L38.3546 33.3604L37.0092 33.4875C36.8654 33.4875 36.7614 33.4105 36.7182 33.3454ZM38.1958 28.0947H41.4002L41.1965 28.7332C41.1678 28.7482 41.0993 28.7015 40.7732 28.74H37.9985L38.1958 28.0947ZM38.8377 25.9533H42.069L41.8367 26.7223C41.8367 26.7223 40.3136 26.7073 40.0697 26.7523C38.9965 26.938 38.3695 27.5114 38.3695 27.5114L38.8377 25.9533ZM41.2682 30.8713C41.2417 30.9667 41.1997 31.0249 41.1411 31.0685C41.076 31.1105 40.9708 31.1254 40.8137 31.1254H40.3571L40.3841 30.3479H38.4849L38.4079 34.1492C38.4049 34.4235 38.4314 34.5823 38.6321 34.7094C38.8328 34.8681 39.4512 34.8883 40.2835 34.8883H41.4736L41.9032 33.4654L40.8672 33.5223L40.5227 33.5424C40.4757 33.5223 40.4307 33.5039 40.3807 33.4538C40.337 33.4106 40.2634 33.4371 40.2754 33.1628L40.2835 32.1884L41.37 32.1435C41.9567 32.1435 42.2075 31.9526 42.4215 31.7708C42.6256 31.5966 42.6923 31.3963 42.7694 31.1254L42.9517 30.2627H41.4586L41.2682 30.8713Z" fill="#FEFEFE"/>
</svg>
