<svg width="40" height="40" viewBox="0 0 40 40" fill="none" xmlns="http://www.w3.org/2000/svg">
<g clip-path="url(#clip0)">
<path d="M14.0483 31.36L8.08078 34.6151C7.73059 34.806 7.41588 35.0408 7.12305 35.2966C10.6023 38.2302 15.0936 40 20.0008 40C24.8717 40 29.3344 38.2566 32.8038 35.363C32.4838 35.0928 32.1366 34.8498 31.7517 34.6581L25.3615 31.4634C24.5359 31.0506 24.0144 30.2068 24.0144 29.2838V26.7766C24.194 26.5721 24.3993 26.3094 24.6189 25.9993C25.4898 24.7691 26.1487 23.4159 26.6053 21.9962C27.4249 21.7434 28.0287 20.9864 28.0287 20.0868V17.4106C28.0287 16.8219 27.7668 16.2959 27.36 15.9276V12.0589C27.36 12.0589 28.1547 6.0385 20.0015 6.0385C11.8483 6.0385 12.643 12.0589 12.643 12.0589V15.9276C12.2355 16.2959 11.9744 16.8219 11.9744 17.4106V20.0868C11.9744 20.7917 12.3449 21.4121 12.8996 21.7706C13.5683 24.6815 15.3193 26.7766 15.3193 26.7766V29.2219C15.3185 30.1125 14.831 30.9328 14.0483 31.36Z" fill="white"/>
<path d="M20.3419 0.00303927C9.29807 -0.18564 0.191659 8.61436 0.00298021 19.6581C-0.10419 25.92 2.68675 31.5479 7.13053 35.2906C7.42109 35.037 7.73279 34.8045 8.07921 34.6159L14.0468 31.3608C14.8294 30.9336 15.3169 30.1132 15.3169 29.2211V26.7759C15.3169 26.7759 13.5652 24.6808 12.8973 21.7698C12.3434 21.4113 11.972 20.7917 11.972 20.0861V17.4098C11.972 16.8212 12.2339 16.2951 12.6407 15.9268V12.0581C12.6407 12.0581 11.846 6.03776 19.9992 6.03776C28.1524 6.03776 27.3577 12.0581 27.3577 12.0581V15.9268C27.7653 16.2951 28.0264 16.8212 28.0264 17.4098V20.0861C28.0264 20.9857 27.4226 21.7427 26.603 21.9955C26.1464 23.4151 25.4875 24.7683 24.6166 25.9985C24.3969 26.3087 24.1917 26.5713 24.012 26.7759V29.283C24.012 30.2061 24.5336 31.0506 25.3592 31.4627L31.7494 34.6574C32.1328 34.8491 32.4792 35.0913 32.7985 35.3608C37.1079 31.7668 39.892 26.3932 39.9954 20.3419C40.1856 9.29813 31.3864 0.191719 20.3419 0.00303927Z" fill="#1B367C"/>
</g>
<defs>
<clipPath id="clip0">
<rect width="40" height="40" fill="white"/>
</clipPath>
</defs>
</svg>
