<svg width="76" height="76" viewBox="0 0 76 76" fill="none" xmlns="http://www.w3.org/2000/svg">
<path d="M63.3335 0H17.7335C14.6352 0 12.0601 2.23947 11.5167 5.1832C8.57296 5.7266 6.3335 8.30173 6.3335 11.4V69.6667C6.3335 73.1589 9.17463 76 12.6668 76H58.2668C61.3651 76 63.9402 73.7605 64.4836 70.8168C67.4274 70.2734 69.6668 67.6983 69.6668 64.6V6.33333C69.6668 2.84113 66.8257 0 63.3335 0ZM62.0668 69.6667C62.0668 71.7617 60.3619 73.4667 58.2668 73.4667H12.6668C10.5718 73.4667 8.86683 71.7617 8.86683 69.6667V11.4C8.86683 9.30493 10.5718 7.6 12.6668 7.6H50.6668V17.7333C50.6668 18.4338 51.2343 19 51.9335 19H62.0668V69.6667ZM53.2002 16.4667V9.39107L60.2758 16.4667H53.2002ZM67.1335 64.6C67.1335 66.2492 66.0708 67.6425 64.6002 68.1669V17.7333C64.6002 17.3825 64.4583 17.0658 64.2278 16.8365L52.8303 5.43907C52.601 5.20853 52.2844 5.06667 51.9335 5.06667H14.1666C14.691 3.59607 16.0843 2.53333 17.7335 2.53333H63.3335C65.4286 2.53333 67.1335 4.23827 67.1335 6.33333V64.6Z" fill="#58454B"/>
<path d="M35.4667 19C25.6881 19 17.7334 26.9547 17.7334 36.7333C17.7334 46.512 25.6881 54.4667 35.4667 54.4667C45.2454 54.4667 53.2001 46.512 53.2001 36.7333C53.2001 26.9547 45.2454 19 35.4667 19ZM35.4667 51.9333C27.0852 51.9333 20.2667 45.1149 20.2667 36.7333C20.2667 28.3518 27.0852 21.5333 35.4667 21.5333C43.8483 21.5333 50.6667 28.3518 50.6667 36.7333C50.6667 45.1149 43.8483 51.9333 35.4667 51.9333Z" fill="#58454B"/>
<path d="M39.4827 28.4281L29.3491 43.6294L31.4572 45.0347L41.5909 29.8334L39.4827 28.4281Z" fill="#58454B"/>
<path d="M41.8 36.7333C39.7049 36.7333 38 38.4383 38 40.5333C38 42.6284 39.7049 44.3333 41.8 44.3333C43.8951 44.3333 45.6 42.6284 45.6 40.5333C45.6 38.4383 43.8951 36.7333 41.8 36.7333ZM41.8 41.8C41.1021 41.8 40.5333 41.2325 40.5333 40.5333C40.5333 39.8341 41.1021 39.2667 41.8 39.2667C42.4979 39.2667 43.0667 39.8341 43.0667 40.5333C43.0667 41.2325 42.4979 41.8 41.8 41.8Z" fill="#58454B"/>
<path d="M29.1335 29.1334C27.0384 29.1334 25.3335 30.8383 25.3335 32.9334C25.3335 35.0284 27.0384 36.7334 29.1335 36.7334C31.2286 36.7334 32.9335 35.0284 32.9335 32.9334C32.9335 30.8383 31.2286 29.1334 29.1335 29.1334ZM29.1335 34.2C28.4356 34.2 27.8668 33.6326 27.8668 32.9334C27.8668 32.2342 28.4356 31.6667 29.1335 31.6667C29.8314 31.6667 30.4002 32.2342 30.4002 32.9334C30.4002 33.6326 29.8314 34.2 29.1335 34.2Z" fill="#58454B"/>
<path d="M42.1715 56.1045L35.467 62.809L32.5626 59.9045L30.7715 61.6956L34.5715 65.4956C34.8185 65.7426 35.1428 65.8667 35.467 65.8667C35.7913 65.8667 36.1156 65.7426 36.3626 65.4956L43.9626 57.8956L42.1715 56.1045Z" fill="#58454B"/>
</svg>
