<svg width="72" height="25" viewBox="0 0 72 25" fill="none" xmlns="http://www.w3.org/2000/svg">
<path d="M25.2913 0L21.3265 24.6728H27.6638L31.6262 0H25.2913ZM44.4069 10.0503C42.1923 8.95668 40.8347 8.21857 40.8347 7.10003C40.8618 6.08304 41.9827 5.04113 44.486 5.04113C46.5449 4.98941 48.0582 5.47327 49.2062 5.95469L49.7813 6.21138L50.6429 1.04922C49.3912 0.56536 47.4064 0.03222 44.9549 0.03222C38.6967 0.03222 34.29 3.28602 34.2626 7.93968C34.2109 11.3738 37.4176 13.2795 39.8174 14.4226C42.2689 15.5953 43.1034 16.3556 43.1034 17.3975C43.0764 18.9972 41.1211 19.7353 39.2967 19.7353C36.7689 19.7353 35.411 19.3552 33.3496 18.4638L32.5151 18.0837L31.6289 23.4484C33.1176 24.1101 35.8553 24.6925 38.697 24.7223C45.3478 24.7223 49.6755 21.5178 49.7299 16.5582C49.7516 13.8375 48.0606 11.7537 44.4069 10.0503ZM66.8897 0.0763555H61.9867C60.4758 0.0763555 59.3277 0.510936 58.6736 2.06134L49.2601 24.6728H55.9109L57.7427 19.7773H65.1836L66.134 24.6925H71.9999L66.8897 0.0763555ZM59.5871 14.8369C59.7155 14.8494 62.1399 6.84551 62.1399 6.84551L64.0705 14.8369C64.0705 14.8369 60.8389 14.8369 59.5871 14.8369ZM16.0311 0L9.82219 16.7629L9.14582 13.4571C7.99777 9.6428 4.39847 5.49791 0.381653 3.439L6.0672 24.6481H12.7725L22.7364 0.00270618H16.0311V0Z" fill="#2394BC"/>
</svg>
